G04 MADE WITH FRITZING*
G04 WWW.FRITZING.ORG*
G04 DOUBLE SIDED*
G04 HOLES PLATED*
G04 CONTOUR ON CENTER OF CONTOUR VECTOR*
%ASAXBY*%
%FSLAX23Y23*%
%MOIN*%
%OFA0B0*%
%SFA1.0B1.0*%
%ADD10C,0.010000*%
%ADD11R,0.001000X0.001000*%
%LNSILK1*%
G90*
G70*
G54D10*
X118Y32D02*
X118Y832D01*
D02*
X118Y832D02*
X18Y832D01*
D02*
X18Y832D02*
X18Y32D01*
D02*
X18Y32D02*
X118Y32D01*
D02*
X918Y832D02*
X918Y32D01*
D02*
X918Y32D02*
X1018Y32D01*
D02*
X1018Y32D02*
X1018Y832D01*
D02*
X1018Y832D02*
X918Y832D01*
G54D11*
X0Y856D02*
X1036Y856D01*
X0Y855D02*
X1036Y855D01*
X0Y854D02*
X1036Y854D01*
X0Y853D02*
X1036Y853D01*
X0Y852D02*
X1036Y852D01*
X0Y851D02*
X1036Y851D01*
X0Y850D02*
X1036Y850D01*
X0Y849D02*
X1036Y849D01*
X0Y848D02*
X7Y848D01*
X1029Y848D02*
X1036Y848D01*
X0Y847D02*
X7Y847D01*
X1029Y847D02*
X1036Y847D01*
X0Y846D02*
X7Y846D01*
X1029Y846D02*
X1036Y846D01*
X0Y845D02*
X7Y845D01*
X1029Y845D02*
X1036Y845D01*
X0Y844D02*
X7Y844D01*
X1029Y844D02*
X1036Y844D01*
X0Y843D02*
X7Y843D01*
X1029Y843D02*
X1036Y843D01*
X0Y842D02*
X7Y842D01*
X1029Y842D02*
X1036Y842D01*
X0Y841D02*
X7Y841D01*
X1029Y841D02*
X1036Y841D01*
X0Y840D02*
X7Y840D01*
X1029Y840D02*
X1036Y840D01*
X0Y839D02*
X7Y839D01*
X1029Y839D02*
X1036Y839D01*
X0Y838D02*
X7Y838D01*
X1029Y838D02*
X1036Y838D01*
X0Y837D02*
X7Y837D01*
X1029Y837D02*
X1036Y837D01*
X0Y836D02*
X7Y836D01*
X1029Y836D02*
X1036Y836D01*
X0Y835D02*
X7Y835D01*
X1029Y835D02*
X1036Y835D01*
X0Y834D02*
X7Y834D01*
X949Y834D02*
X951Y834D01*
X1029Y834D02*
X1036Y834D01*
X0Y833D02*
X7Y833D01*
X948Y833D02*
X952Y833D01*
X1029Y833D02*
X1036Y833D01*
X0Y832D02*
X7Y832D01*
X947Y832D02*
X953Y832D01*
X1029Y832D02*
X1036Y832D01*
X0Y831D02*
X7Y831D01*
X946Y831D02*
X953Y831D01*
X1029Y831D02*
X1036Y831D01*
X0Y830D02*
X7Y830D01*
X945Y830D02*
X952Y830D01*
X1029Y830D02*
X1036Y830D01*
X0Y829D02*
X7Y829D01*
X944Y829D02*
X951Y829D01*
X1029Y829D02*
X1036Y829D01*
X0Y828D02*
X7Y828D01*
X943Y828D02*
X950Y828D01*
X1029Y828D02*
X1036Y828D01*
X0Y827D02*
X7Y827D01*
X942Y827D02*
X949Y827D01*
X1029Y827D02*
X1036Y827D01*
X0Y826D02*
X7Y826D01*
X941Y826D02*
X948Y826D01*
X1029Y826D02*
X1036Y826D01*
X0Y825D02*
X7Y825D01*
X940Y825D02*
X947Y825D01*
X1029Y825D02*
X1036Y825D01*
X0Y824D02*
X7Y824D01*
X939Y824D02*
X946Y824D01*
X1029Y824D02*
X1036Y824D01*
X0Y823D02*
X7Y823D01*
X938Y823D02*
X945Y823D01*
X1029Y823D02*
X1036Y823D01*
X0Y822D02*
X7Y822D01*
X233Y822D02*
X322Y822D01*
X372Y822D02*
X462Y822D01*
X672Y822D02*
X762Y822D01*
X764Y822D02*
X793Y822D01*
X937Y822D02*
X944Y822D01*
X1029Y822D02*
X1036Y822D01*
X0Y821D02*
X7Y821D01*
X233Y821D02*
X322Y821D01*
X372Y821D02*
X462Y821D01*
X522Y821D02*
X612Y821D01*
X672Y821D02*
X794Y821D01*
X936Y821D02*
X943Y821D01*
X1029Y821D02*
X1036Y821D01*
X0Y820D02*
X7Y820D01*
X233Y820D02*
X322Y820D01*
X372Y820D02*
X462Y820D01*
X522Y820D02*
X612Y820D01*
X672Y820D02*
X794Y820D01*
X935Y820D02*
X942Y820D01*
X1029Y820D02*
X1036Y820D01*
X0Y819D02*
X7Y819D01*
X233Y819D02*
X235Y819D01*
X320Y819D02*
X322Y819D01*
X372Y819D02*
X374Y819D01*
X460Y819D02*
X462Y819D01*
X465Y819D02*
X495Y819D01*
X522Y819D02*
X612Y819D01*
X616Y819D02*
X645Y819D01*
X672Y819D02*
X674Y819D01*
X760Y819D02*
X794Y819D01*
X934Y819D02*
X941Y819D01*
X1029Y819D02*
X1036Y819D01*
X0Y818D02*
X7Y818D01*
X233Y818D02*
X235Y818D01*
X320Y818D02*
X322Y818D01*
X372Y818D02*
X374Y818D01*
X460Y818D02*
X462Y818D01*
X464Y818D02*
X495Y818D01*
X522Y818D02*
X524Y818D01*
X610Y818D02*
X612Y818D01*
X614Y818D02*
X645Y818D01*
X672Y818D02*
X674Y818D01*
X760Y818D02*
X762Y818D01*
X764Y818D02*
X794Y818D01*
X933Y818D02*
X939Y818D01*
X1029Y818D02*
X1036Y818D01*
X0Y817D02*
X7Y817D01*
X233Y817D02*
X235Y817D01*
X320Y817D02*
X322Y817D01*
X372Y817D02*
X374Y817D01*
X460Y817D02*
X462Y817D01*
X464Y817D02*
X495Y817D01*
X522Y817D02*
X524Y817D01*
X610Y817D02*
X612Y817D01*
X614Y817D02*
X645Y817D01*
X672Y817D02*
X674Y817D01*
X760Y817D02*
X762Y817D01*
X780Y817D02*
X783Y817D01*
X790Y817D02*
X794Y817D01*
X932Y817D02*
X938Y817D01*
X1029Y817D02*
X1036Y817D01*
X0Y816D02*
X7Y816D01*
X233Y816D02*
X235Y816D01*
X320Y816D02*
X322Y816D01*
X372Y816D02*
X374Y816D01*
X460Y816D02*
X462Y816D01*
X464Y816D02*
X495Y816D01*
X522Y816D02*
X524Y816D01*
X610Y816D02*
X612Y816D01*
X614Y816D02*
X645Y816D01*
X672Y816D02*
X674Y816D01*
X760Y816D02*
X762Y816D01*
X780Y816D02*
X783Y816D01*
X790Y816D02*
X794Y816D01*
X931Y816D02*
X937Y816D01*
X1029Y816D02*
X1036Y816D01*
X0Y815D02*
X7Y815D01*
X233Y815D02*
X235Y815D01*
X320Y815D02*
X322Y815D01*
X372Y815D02*
X374Y815D01*
X460Y815D02*
X462Y815D01*
X481Y815D02*
X485Y815D01*
X492Y815D02*
X495Y815D01*
X522Y815D02*
X524Y815D01*
X610Y815D02*
X612Y815D01*
X615Y815D02*
X645Y815D01*
X672Y815D02*
X674Y815D01*
X760Y815D02*
X762Y815D01*
X780Y815D02*
X783Y815D01*
X790Y815D02*
X794Y815D01*
X930Y815D02*
X936Y815D01*
X1029Y815D02*
X1036Y815D01*
X0Y814D02*
X7Y814D01*
X233Y814D02*
X235Y814D01*
X320Y814D02*
X322Y814D01*
X372Y814D02*
X374Y814D01*
X460Y814D02*
X462Y814D01*
X482Y814D02*
X485Y814D01*
X492Y814D02*
X495Y814D01*
X522Y814D02*
X524Y814D01*
X610Y814D02*
X612Y814D01*
X632Y814D02*
X635Y814D01*
X642Y814D02*
X645Y814D01*
X672Y814D02*
X674Y814D01*
X760Y814D02*
X762Y814D01*
X778Y814D02*
X783Y814D01*
X790Y814D02*
X794Y814D01*
X929Y814D02*
X935Y814D01*
X1029Y814D02*
X1036Y814D01*
X0Y813D02*
X7Y813D01*
X233Y813D02*
X235Y813D01*
X320Y813D02*
X322Y813D01*
X372Y813D02*
X374Y813D01*
X460Y813D02*
X462Y813D01*
X482Y813D02*
X485Y813D01*
X492Y813D02*
X495Y813D01*
X522Y813D02*
X524Y813D01*
X610Y813D02*
X612Y813D01*
X632Y813D02*
X635Y813D01*
X642Y813D02*
X645Y813D01*
X672Y813D02*
X674Y813D01*
X760Y813D02*
X762Y813D01*
X776Y813D02*
X783Y813D01*
X790Y813D02*
X794Y813D01*
X928Y813D02*
X934Y813D01*
X1029Y813D02*
X1036Y813D01*
X0Y812D02*
X7Y812D01*
X233Y812D02*
X235Y812D01*
X320Y812D02*
X322Y812D01*
X340Y812D02*
X344Y812D01*
X372Y812D02*
X374Y812D01*
X460Y812D02*
X462Y812D01*
X481Y812D02*
X485Y812D01*
X492Y812D02*
X495Y812D01*
X522Y812D02*
X524Y812D01*
X610Y812D02*
X612Y812D01*
X631Y812D02*
X635Y812D01*
X642Y812D02*
X645Y812D01*
X672Y812D02*
X674Y812D01*
X760Y812D02*
X762Y812D01*
X775Y812D02*
X783Y812D01*
X790Y812D02*
X794Y812D01*
X927Y812D02*
X933Y812D01*
X1029Y812D02*
X1036Y812D01*
X0Y811D02*
X7Y811D01*
X233Y811D02*
X235Y811D01*
X320Y811D02*
X322Y811D01*
X338Y811D02*
X347Y811D01*
X372Y811D02*
X374Y811D01*
X460Y811D02*
X462Y811D01*
X479Y811D02*
X485Y811D01*
X492Y811D02*
X495Y811D01*
X522Y811D02*
X524Y811D01*
X610Y811D02*
X612Y811D01*
X630Y811D02*
X635Y811D01*
X642Y811D02*
X645Y811D01*
X672Y811D02*
X674Y811D01*
X760Y811D02*
X762Y811D01*
X773Y811D02*
X783Y811D01*
X790Y811D02*
X794Y811D01*
X926Y811D02*
X932Y811D01*
X1029Y811D02*
X1036Y811D01*
X0Y810D02*
X7Y810D01*
X233Y810D02*
X235Y810D01*
X320Y810D02*
X322Y810D01*
X336Y810D02*
X349Y810D01*
X372Y810D02*
X374Y810D01*
X460Y810D02*
X462Y810D01*
X478Y810D02*
X485Y810D01*
X492Y810D02*
X495Y810D01*
X522Y810D02*
X524Y810D01*
X610Y810D02*
X612Y810D01*
X628Y810D02*
X635Y810D01*
X642Y810D02*
X645Y810D01*
X672Y810D02*
X674Y810D01*
X760Y810D02*
X762Y810D01*
X771Y810D02*
X783Y810D01*
X790Y810D02*
X794Y810D01*
X925Y810D02*
X931Y810D01*
X1029Y810D02*
X1036Y810D01*
X0Y809D02*
X7Y809D01*
X233Y809D02*
X235Y809D01*
X320Y809D02*
X322Y809D01*
X334Y809D02*
X351Y809D01*
X372Y809D02*
X374Y809D01*
X460Y809D02*
X462Y809D01*
X476Y809D02*
X485Y809D01*
X492Y809D02*
X495Y809D01*
X522Y809D02*
X524Y809D01*
X610Y809D02*
X612Y809D01*
X626Y809D02*
X635Y809D01*
X642Y809D02*
X645Y809D01*
X672Y809D02*
X674Y809D01*
X760Y809D02*
X762Y809D01*
X769Y809D02*
X777Y809D01*
X780Y809D02*
X783Y809D01*
X790Y809D02*
X794Y809D01*
X924Y809D02*
X931Y809D01*
X1029Y809D02*
X1036Y809D01*
X0Y808D02*
X7Y808D01*
X233Y808D02*
X235Y808D01*
X320Y808D02*
X322Y808D01*
X332Y808D02*
X341Y808D01*
X344Y808D02*
X353Y808D01*
X372Y808D02*
X374Y808D01*
X460Y808D02*
X462Y808D01*
X474Y808D02*
X485Y808D01*
X492Y808D02*
X495Y808D01*
X522Y808D02*
X524Y808D01*
X610Y808D02*
X612Y808D01*
X625Y808D02*
X635Y808D01*
X642Y808D02*
X645Y808D01*
X672Y808D02*
X674Y808D01*
X760Y808D02*
X762Y808D01*
X768Y808D02*
X775Y808D01*
X780Y808D02*
X783Y808D01*
X790Y808D02*
X794Y808D01*
X923Y808D02*
X930Y808D01*
X1029Y808D02*
X1036Y808D01*
X0Y807D02*
X7Y807D01*
X233Y807D02*
X235Y807D01*
X320Y807D02*
X322Y807D01*
X330Y807D02*
X338Y807D01*
X346Y807D02*
X355Y807D01*
X372Y807D02*
X374Y807D01*
X460Y807D02*
X462Y807D01*
X472Y807D02*
X485Y807D01*
X492Y807D02*
X495Y807D01*
X522Y807D02*
X524Y807D01*
X610Y807D02*
X612Y807D01*
X623Y807D02*
X635Y807D01*
X642Y807D02*
X645Y807D01*
X672Y807D02*
X674Y807D01*
X760Y807D02*
X762Y807D01*
X766Y807D02*
X773Y807D01*
X780Y807D02*
X783Y807D01*
X790Y807D02*
X793Y807D01*
X922Y807D02*
X929Y807D01*
X1029Y807D02*
X1036Y807D01*
X0Y806D02*
X7Y806D01*
X233Y806D02*
X235Y806D01*
X320Y806D02*
X322Y806D01*
X329Y806D02*
X336Y806D01*
X348Y806D02*
X356Y806D01*
X372Y806D02*
X374Y806D01*
X460Y806D02*
X462Y806D01*
X471Y806D02*
X478Y806D01*
X482Y806D02*
X485Y806D01*
X492Y806D02*
X495Y806D01*
X522Y806D02*
X524Y806D01*
X610Y806D02*
X612Y806D01*
X621Y806D02*
X629Y806D01*
X632Y806D02*
X635Y806D01*
X642Y806D02*
X645Y806D01*
X672Y806D02*
X674Y806D01*
X760Y806D02*
X762Y806D01*
X764Y806D02*
X772Y806D01*
X780Y806D02*
X784Y806D01*
X789Y806D02*
X793Y806D01*
X921Y806D02*
X928Y806D01*
X1029Y806D02*
X1036Y806D01*
X0Y805D02*
X7Y805D01*
X233Y805D02*
X235Y805D01*
X320Y805D02*
X322Y805D01*
X328Y805D02*
X334Y805D01*
X350Y805D02*
X357Y805D01*
X372Y805D02*
X374Y805D01*
X460Y805D02*
X462Y805D01*
X469Y805D02*
X476Y805D01*
X482Y805D02*
X485Y805D01*
X492Y805D02*
X495Y805D01*
X522Y805D02*
X524Y805D01*
X610Y805D02*
X612Y805D01*
X620Y805D02*
X627Y805D01*
X632Y805D02*
X635Y805D01*
X642Y805D02*
X645Y805D01*
X672Y805D02*
X674Y805D01*
X760Y805D02*
X770Y805D01*
X780Y805D02*
X793Y805D01*
X920Y805D02*
X927Y805D01*
X1029Y805D02*
X1036Y805D01*
X0Y804D02*
X7Y804D01*
X233Y804D02*
X235Y804D01*
X320Y804D02*
X322Y804D01*
X327Y804D02*
X332Y804D01*
X352Y804D02*
X357Y804D01*
X372Y804D02*
X374Y804D01*
X460Y804D02*
X462Y804D01*
X467Y804D02*
X475Y804D01*
X482Y804D02*
X485Y804D01*
X492Y804D02*
X495Y804D01*
X522Y804D02*
X524Y804D01*
X610Y804D02*
X612Y804D01*
X618Y804D02*
X625Y804D01*
X632Y804D02*
X635Y804D01*
X642Y804D02*
X645Y804D01*
X672Y804D02*
X674Y804D01*
X760Y804D02*
X768Y804D01*
X781Y804D02*
X792Y804D01*
X919Y804D02*
X926Y804D01*
X1029Y804D02*
X1036Y804D01*
X0Y803D02*
X7Y803D01*
X233Y803D02*
X235Y803D01*
X320Y803D02*
X322Y803D01*
X327Y803D02*
X331Y803D01*
X354Y803D02*
X358Y803D01*
X372Y803D02*
X374Y803D01*
X460Y803D02*
X462Y803D01*
X466Y803D02*
X473Y803D01*
X482Y803D02*
X486Y803D01*
X491Y803D02*
X495Y803D01*
X522Y803D02*
X524Y803D01*
X610Y803D02*
X612Y803D01*
X616Y803D02*
X624Y803D01*
X632Y803D02*
X636Y803D01*
X641Y803D02*
X645Y803D01*
X672Y803D02*
X674Y803D01*
X760Y803D02*
X767Y803D01*
X782Y803D02*
X791Y803D01*
X918Y803D02*
X925Y803D01*
X1029Y803D02*
X1036Y803D01*
X0Y802D02*
X7Y802D01*
X233Y802D02*
X235Y802D01*
X320Y802D02*
X322Y802D01*
X327Y802D02*
X330Y802D01*
X355Y802D02*
X358Y802D01*
X372Y802D02*
X374Y802D01*
X460Y802D02*
X462Y802D01*
X464Y802D02*
X471Y802D01*
X482Y802D02*
X494Y802D01*
X522Y802D02*
X524Y802D01*
X610Y802D02*
X612Y802D01*
X615Y802D02*
X622Y802D01*
X632Y802D02*
X645Y802D01*
X672Y802D02*
X674Y802D01*
X760Y802D02*
X765Y802D01*
X783Y802D02*
X790Y802D01*
X917Y802D02*
X924Y802D01*
X1029Y802D02*
X1036Y802D01*
X0Y801D02*
X7Y801D01*
X233Y801D02*
X235Y801D01*
X320Y801D02*
X322Y801D01*
X327Y801D02*
X330Y801D01*
X355Y801D02*
X358Y801D01*
X372Y801D02*
X374Y801D01*
X460Y801D02*
X462Y801D01*
X464Y801D02*
X470Y801D01*
X483Y801D02*
X494Y801D01*
X522Y801D02*
X524Y801D01*
X610Y801D02*
X612Y801D01*
X614Y801D02*
X620Y801D01*
X633Y801D02*
X644Y801D01*
X672Y801D02*
X674Y801D01*
X760Y801D02*
X762Y801D01*
X916Y801D02*
X923Y801D01*
X1029Y801D02*
X1036Y801D01*
X0Y800D02*
X7Y800D01*
X233Y800D02*
X235Y800D01*
X320Y800D02*
X322Y800D01*
X327Y800D02*
X330Y800D01*
X355Y800D02*
X358Y800D01*
X372Y800D02*
X374Y800D01*
X460Y800D02*
X462Y800D01*
X464Y800D02*
X468Y800D01*
X484Y800D02*
X493Y800D01*
X522Y800D02*
X524Y800D01*
X610Y800D02*
X612Y800D01*
X614Y800D02*
X618Y800D01*
X634Y800D02*
X643Y800D01*
X672Y800D02*
X674Y800D01*
X760Y800D02*
X762Y800D01*
X916Y800D02*
X922Y800D01*
X1029Y800D02*
X1036Y800D01*
X0Y799D02*
X7Y799D01*
X233Y799D02*
X235Y799D01*
X320Y799D02*
X322Y799D01*
X327Y799D02*
X330Y799D01*
X355Y799D02*
X358Y799D01*
X372Y799D02*
X374Y799D01*
X460Y799D02*
X462Y799D01*
X465Y799D02*
X466Y799D01*
X486Y799D02*
X491Y799D01*
X522Y799D02*
X524Y799D01*
X610Y799D02*
X612Y799D01*
X615Y799D02*
X617Y799D01*
X635Y799D02*
X642Y799D01*
X672Y799D02*
X674Y799D01*
X760Y799D02*
X762Y799D01*
X917Y799D02*
X921Y799D01*
X1029Y799D02*
X1036Y799D01*
X0Y798D02*
X7Y798D01*
X233Y798D02*
X235Y798D01*
X320Y798D02*
X322Y798D01*
X327Y798D02*
X330Y798D01*
X355Y798D02*
X358Y798D01*
X372Y798D02*
X374Y798D01*
X460Y798D02*
X462Y798D01*
X522Y798D02*
X524Y798D01*
X610Y798D02*
X612Y798D01*
X672Y798D02*
X674Y798D01*
X760Y798D02*
X762Y798D01*
X918Y798D02*
X920Y798D01*
X1029Y798D02*
X1036Y798D01*
X0Y797D02*
X7Y797D01*
X233Y797D02*
X235Y797D01*
X320Y797D02*
X322Y797D01*
X327Y797D02*
X330Y797D01*
X355Y797D02*
X358Y797D01*
X372Y797D02*
X374Y797D01*
X460Y797D02*
X462Y797D01*
X522Y797D02*
X524Y797D01*
X610Y797D02*
X612Y797D01*
X672Y797D02*
X674Y797D01*
X760Y797D02*
X762Y797D01*
X919Y797D02*
X919Y797D01*
X1029Y797D02*
X1036Y797D01*
X0Y796D02*
X7Y796D01*
X233Y796D02*
X235Y796D01*
X320Y796D02*
X322Y796D01*
X327Y796D02*
X330Y796D01*
X355Y796D02*
X358Y796D01*
X372Y796D02*
X374Y796D01*
X460Y796D02*
X462Y796D01*
X522Y796D02*
X524Y796D01*
X610Y796D02*
X612Y796D01*
X672Y796D02*
X674Y796D01*
X760Y796D02*
X762Y796D01*
X1029Y796D02*
X1036Y796D01*
X0Y795D02*
X7Y795D01*
X233Y795D02*
X235Y795D01*
X320Y795D02*
X322Y795D01*
X327Y795D02*
X330Y795D01*
X355Y795D02*
X358Y795D01*
X372Y795D02*
X374Y795D01*
X460Y795D02*
X462Y795D01*
X522Y795D02*
X524Y795D01*
X610Y795D02*
X612Y795D01*
X672Y795D02*
X674Y795D01*
X760Y795D02*
X762Y795D01*
X1029Y795D02*
X1036Y795D01*
X0Y794D02*
X7Y794D01*
X233Y794D02*
X235Y794D01*
X320Y794D02*
X322Y794D01*
X327Y794D02*
X330Y794D01*
X355Y794D02*
X358Y794D01*
X372Y794D02*
X374Y794D01*
X460Y794D02*
X462Y794D01*
X522Y794D02*
X524Y794D01*
X610Y794D02*
X612Y794D01*
X672Y794D02*
X674Y794D01*
X760Y794D02*
X762Y794D01*
X1029Y794D02*
X1036Y794D01*
X0Y793D02*
X7Y793D01*
X233Y793D02*
X235Y793D01*
X320Y793D02*
X322Y793D01*
X327Y793D02*
X330Y793D01*
X355Y793D02*
X358Y793D01*
X372Y793D02*
X374Y793D01*
X460Y793D02*
X462Y793D01*
X522Y793D02*
X524Y793D01*
X610Y793D02*
X612Y793D01*
X672Y793D02*
X674Y793D01*
X760Y793D02*
X762Y793D01*
X1029Y793D02*
X1036Y793D01*
X0Y792D02*
X7Y792D01*
X233Y792D02*
X235Y792D01*
X320Y792D02*
X322Y792D01*
X327Y792D02*
X329Y792D01*
X356Y792D02*
X357Y792D01*
X372Y792D02*
X374Y792D01*
X460Y792D02*
X462Y792D01*
X522Y792D02*
X524Y792D01*
X610Y792D02*
X612Y792D01*
X672Y792D02*
X674Y792D01*
X760Y792D02*
X762Y792D01*
X1029Y792D02*
X1036Y792D01*
X0Y791D02*
X7Y791D01*
X233Y791D02*
X235Y791D01*
X320Y791D02*
X322Y791D01*
X372Y791D02*
X374Y791D01*
X460Y791D02*
X462Y791D01*
X522Y791D02*
X524Y791D01*
X610Y791D02*
X612Y791D01*
X672Y791D02*
X674Y791D01*
X760Y791D02*
X765Y791D01*
X791Y791D02*
X793Y791D01*
X1029Y791D02*
X1036Y791D01*
X0Y790D02*
X7Y790D01*
X233Y790D02*
X235Y790D01*
X320Y790D02*
X322Y790D01*
X372Y790D02*
X374Y790D01*
X460Y790D02*
X462Y790D01*
X522Y790D02*
X524Y790D01*
X610Y790D02*
X612Y790D01*
X672Y790D02*
X674Y790D01*
X760Y790D02*
X765Y790D01*
X790Y790D02*
X793Y790D01*
X1029Y790D02*
X1036Y790D01*
X0Y789D02*
X7Y789D01*
X233Y789D02*
X235Y789D01*
X320Y789D02*
X322Y789D01*
X372Y789D02*
X374Y789D01*
X460Y789D02*
X462Y789D01*
X465Y789D02*
X466Y789D01*
X493Y789D02*
X494Y789D01*
X522Y789D02*
X524Y789D01*
X610Y789D02*
X612Y789D01*
X672Y789D02*
X674Y789D01*
X760Y789D02*
X765Y789D01*
X790Y789D02*
X794Y789D01*
X1029Y789D02*
X1036Y789D01*
X0Y788D02*
X7Y788D01*
X233Y788D02*
X235Y788D01*
X320Y788D02*
X322Y788D01*
X372Y788D02*
X374Y788D01*
X460Y788D02*
X462Y788D01*
X464Y788D02*
X467Y788D01*
X492Y788D02*
X495Y788D01*
X522Y788D02*
X524Y788D01*
X610Y788D02*
X612Y788D01*
X614Y788D02*
X630Y788D01*
X643Y788D02*
X645Y788D01*
X672Y788D02*
X674Y788D01*
X760Y788D02*
X765Y788D01*
X790Y788D02*
X794Y788D01*
X1029Y788D02*
X1036Y788D01*
X0Y787D02*
X7Y787D01*
X233Y787D02*
X235Y787D01*
X320Y787D02*
X322Y787D01*
X372Y787D02*
X374Y787D01*
X460Y787D02*
X462Y787D01*
X464Y787D02*
X467Y787D01*
X492Y787D02*
X495Y787D01*
X522Y787D02*
X524Y787D01*
X610Y787D02*
X612Y787D01*
X614Y787D02*
X630Y787D01*
X642Y787D02*
X645Y787D01*
X672Y787D02*
X674Y787D01*
X760Y787D02*
X765Y787D01*
X790Y787D02*
X794Y787D01*
X1029Y787D02*
X1036Y787D01*
X0Y786D02*
X7Y786D01*
X233Y786D02*
X235Y786D01*
X320Y786D02*
X322Y786D01*
X372Y786D02*
X374Y786D01*
X460Y786D02*
X462Y786D01*
X464Y786D02*
X467Y786D01*
X492Y786D02*
X495Y786D01*
X522Y786D02*
X524Y786D01*
X610Y786D02*
X612Y786D01*
X614Y786D02*
X631Y786D01*
X642Y786D02*
X645Y786D01*
X672Y786D02*
X674Y786D01*
X760Y786D02*
X765Y786D01*
X790Y786D02*
X794Y786D01*
X1029Y786D02*
X1036Y786D01*
X0Y785D02*
X7Y785D01*
X233Y785D02*
X235Y785D01*
X320Y785D02*
X322Y785D01*
X372Y785D02*
X374Y785D01*
X460Y785D02*
X462Y785D01*
X464Y785D02*
X467Y785D01*
X479Y785D02*
X480Y785D01*
X492Y785D02*
X495Y785D01*
X522Y785D02*
X524Y785D01*
X610Y785D02*
X612Y785D01*
X614Y785D02*
X631Y785D01*
X642Y785D02*
X645Y785D01*
X672Y785D02*
X674Y785D01*
X760Y785D02*
X765Y785D01*
X790Y785D02*
X794Y785D01*
X1029Y785D02*
X1036Y785D01*
X0Y784D02*
X7Y784D01*
X233Y784D02*
X235Y784D01*
X320Y784D02*
X322Y784D01*
X372Y784D02*
X374Y784D01*
X460Y784D02*
X462Y784D01*
X464Y784D02*
X467Y784D01*
X478Y784D02*
X481Y784D01*
X492Y784D02*
X495Y784D01*
X522Y784D02*
X524Y784D01*
X610Y784D02*
X612Y784D01*
X614Y784D02*
X617Y784D01*
X628Y784D02*
X631Y784D01*
X642Y784D02*
X645Y784D01*
X672Y784D02*
X674Y784D01*
X760Y784D02*
X765Y784D01*
X790Y784D02*
X794Y784D01*
X1029Y784D02*
X1036Y784D01*
X0Y783D02*
X7Y783D01*
X233Y783D02*
X235Y783D01*
X320Y783D02*
X322Y783D01*
X372Y783D02*
X374Y783D01*
X460Y783D02*
X462Y783D01*
X464Y783D02*
X467Y783D01*
X478Y783D02*
X481Y783D01*
X492Y783D02*
X495Y783D01*
X522Y783D02*
X524Y783D01*
X610Y783D02*
X612Y783D01*
X614Y783D02*
X617Y783D01*
X628Y783D02*
X631Y783D01*
X642Y783D02*
X645Y783D01*
X672Y783D02*
X674Y783D01*
X760Y783D02*
X794Y783D01*
X1029Y783D02*
X1036Y783D01*
X0Y782D02*
X7Y782D01*
X233Y782D02*
X235Y782D01*
X320Y782D02*
X322Y782D01*
X328Y782D02*
X328Y782D01*
X356Y782D02*
X357Y782D01*
X372Y782D02*
X374Y782D01*
X460Y782D02*
X462Y782D01*
X464Y782D02*
X467Y782D01*
X478Y782D02*
X481Y782D01*
X492Y782D02*
X495Y782D01*
X522Y782D02*
X524Y782D01*
X610Y782D02*
X612Y782D01*
X614Y782D02*
X617Y782D01*
X628Y782D02*
X631Y782D01*
X642Y782D02*
X645Y782D01*
X672Y782D02*
X674Y782D01*
X760Y782D02*
X794Y782D01*
X1029Y782D02*
X1036Y782D01*
X0Y781D02*
X7Y781D01*
X233Y781D02*
X235Y781D01*
X320Y781D02*
X322Y781D01*
X327Y781D02*
X330Y781D01*
X355Y781D02*
X358Y781D01*
X372Y781D02*
X374Y781D01*
X460Y781D02*
X462Y781D01*
X464Y781D02*
X467Y781D01*
X478Y781D02*
X481Y781D01*
X492Y781D02*
X495Y781D01*
X522Y781D02*
X524Y781D01*
X610Y781D02*
X612Y781D01*
X614Y781D02*
X617Y781D01*
X628Y781D02*
X631Y781D01*
X642Y781D02*
X645Y781D01*
X672Y781D02*
X674Y781D01*
X760Y781D02*
X794Y781D01*
X1029Y781D02*
X1036Y781D01*
X0Y780D02*
X7Y780D01*
X233Y780D02*
X235Y780D01*
X320Y780D02*
X322Y780D01*
X327Y780D02*
X330Y780D01*
X355Y780D02*
X358Y780D01*
X372Y780D02*
X374Y780D01*
X460Y780D02*
X462Y780D01*
X464Y780D02*
X467Y780D01*
X478Y780D02*
X481Y780D01*
X492Y780D02*
X495Y780D01*
X522Y780D02*
X524Y780D01*
X610Y780D02*
X612Y780D01*
X614Y780D02*
X617Y780D01*
X628Y780D02*
X631Y780D01*
X642Y780D02*
X645Y780D01*
X672Y780D02*
X674Y780D01*
X760Y780D02*
X794Y780D01*
X1029Y780D02*
X1036Y780D01*
X0Y779D02*
X7Y779D01*
X233Y779D02*
X235Y779D01*
X320Y779D02*
X322Y779D01*
X327Y779D02*
X330Y779D01*
X355Y779D02*
X358Y779D01*
X372Y779D02*
X374Y779D01*
X460Y779D02*
X462Y779D01*
X464Y779D02*
X467Y779D01*
X478Y779D02*
X481Y779D01*
X492Y779D02*
X495Y779D01*
X522Y779D02*
X524Y779D01*
X610Y779D02*
X612Y779D01*
X614Y779D02*
X617Y779D01*
X628Y779D02*
X631Y779D01*
X642Y779D02*
X645Y779D01*
X672Y779D02*
X674Y779D01*
X760Y779D02*
X765Y779D01*
X1029Y779D02*
X1036Y779D01*
X0Y778D02*
X7Y778D01*
X233Y778D02*
X235Y778D01*
X320Y778D02*
X322Y778D01*
X327Y778D02*
X330Y778D01*
X355Y778D02*
X358Y778D01*
X372Y778D02*
X374Y778D01*
X460Y778D02*
X462Y778D01*
X464Y778D02*
X467Y778D01*
X478Y778D02*
X481Y778D01*
X492Y778D02*
X495Y778D01*
X522Y778D02*
X524Y778D01*
X610Y778D02*
X612Y778D01*
X614Y778D02*
X617Y778D01*
X628Y778D02*
X631Y778D01*
X642Y778D02*
X645Y778D01*
X672Y778D02*
X674Y778D01*
X760Y778D02*
X765Y778D01*
X1029Y778D02*
X1036Y778D01*
X0Y777D02*
X7Y777D01*
X233Y777D02*
X235Y777D01*
X320Y777D02*
X322Y777D01*
X327Y777D02*
X330Y777D01*
X355Y777D02*
X358Y777D01*
X372Y777D02*
X374Y777D01*
X460Y777D02*
X462Y777D01*
X464Y777D02*
X467Y777D01*
X478Y777D02*
X481Y777D01*
X492Y777D02*
X495Y777D01*
X522Y777D02*
X524Y777D01*
X610Y777D02*
X612Y777D01*
X614Y777D02*
X617Y777D01*
X628Y777D02*
X631Y777D01*
X642Y777D02*
X645Y777D01*
X672Y777D02*
X674Y777D01*
X760Y777D02*
X765Y777D01*
X1029Y777D02*
X1036Y777D01*
X0Y776D02*
X7Y776D01*
X233Y776D02*
X235Y776D01*
X320Y776D02*
X322Y776D01*
X327Y776D02*
X330Y776D01*
X355Y776D02*
X358Y776D01*
X372Y776D02*
X374Y776D01*
X460Y776D02*
X462Y776D01*
X464Y776D02*
X467Y776D01*
X478Y776D02*
X481Y776D01*
X492Y776D02*
X495Y776D01*
X522Y776D02*
X524Y776D01*
X610Y776D02*
X612Y776D01*
X614Y776D02*
X617Y776D01*
X628Y776D02*
X631Y776D01*
X642Y776D02*
X645Y776D01*
X672Y776D02*
X674Y776D01*
X760Y776D02*
X765Y776D01*
X1029Y776D02*
X1036Y776D01*
X0Y775D02*
X7Y775D01*
X233Y775D02*
X235Y775D01*
X320Y775D02*
X322Y775D01*
X327Y775D02*
X330Y775D01*
X355Y775D02*
X358Y775D01*
X372Y775D02*
X374Y775D01*
X460Y775D02*
X462Y775D01*
X464Y775D02*
X467Y775D01*
X478Y775D02*
X481Y775D01*
X492Y775D02*
X495Y775D01*
X522Y775D02*
X524Y775D01*
X610Y775D02*
X612Y775D01*
X614Y775D02*
X617Y775D01*
X628Y775D02*
X631Y775D01*
X642Y775D02*
X645Y775D01*
X672Y775D02*
X674Y775D01*
X760Y775D02*
X775Y775D01*
X1029Y775D02*
X1036Y775D01*
X0Y774D02*
X7Y774D01*
X233Y774D02*
X235Y774D01*
X320Y774D02*
X322Y774D01*
X327Y774D02*
X330Y774D01*
X354Y774D02*
X358Y774D01*
X372Y774D02*
X374Y774D01*
X460Y774D02*
X462Y774D01*
X464Y774D02*
X467Y774D01*
X478Y774D02*
X482Y774D01*
X492Y774D02*
X495Y774D01*
X522Y774D02*
X524Y774D01*
X610Y774D02*
X612Y774D01*
X614Y774D02*
X617Y774D01*
X628Y774D02*
X631Y774D01*
X642Y774D02*
X645Y774D01*
X672Y774D02*
X674Y774D01*
X760Y774D02*
X776Y774D01*
X1029Y774D02*
X1036Y774D01*
X0Y773D02*
X7Y773D01*
X233Y773D02*
X235Y773D01*
X320Y773D02*
X322Y773D01*
X327Y773D02*
X358Y773D01*
X372Y773D02*
X374Y773D01*
X460Y773D02*
X462Y773D01*
X464Y773D02*
X467Y773D01*
X477Y773D02*
X483Y773D01*
X492Y773D02*
X495Y773D01*
X522Y773D02*
X524Y773D01*
X610Y773D02*
X612Y773D01*
X614Y773D02*
X617Y773D01*
X628Y773D02*
X631Y773D01*
X642Y773D02*
X645Y773D01*
X672Y773D02*
X674Y773D01*
X760Y773D02*
X776Y773D01*
X1029Y773D02*
X1036Y773D01*
X0Y772D02*
X7Y772D01*
X233Y772D02*
X235Y772D01*
X320Y772D02*
X322Y772D01*
X327Y772D02*
X358Y772D01*
X372Y772D02*
X374Y772D01*
X460Y772D02*
X462Y772D01*
X464Y772D02*
X495Y772D01*
X522Y772D02*
X524Y772D01*
X610Y772D02*
X612Y772D01*
X614Y772D02*
X617Y772D01*
X628Y772D02*
X645Y772D01*
X672Y772D02*
X674Y772D01*
X760Y772D02*
X775Y772D01*
X1029Y772D02*
X1036Y772D01*
X0Y771D02*
X7Y771D01*
X233Y771D02*
X235Y771D01*
X320Y771D02*
X322Y771D01*
X327Y771D02*
X358Y771D01*
X372Y771D02*
X374Y771D01*
X460Y771D02*
X462Y771D01*
X464Y771D02*
X495Y771D01*
X522Y771D02*
X524Y771D01*
X610Y771D02*
X612Y771D01*
X614Y771D02*
X617Y771D01*
X628Y771D02*
X645Y771D01*
X672Y771D02*
X674Y771D01*
X760Y771D02*
X762Y771D01*
X1029Y771D02*
X1036Y771D01*
X0Y770D02*
X7Y770D01*
X233Y770D02*
X235Y770D01*
X320Y770D02*
X322Y770D01*
X327Y770D02*
X358Y770D01*
X372Y770D02*
X374Y770D01*
X460Y770D02*
X462Y770D01*
X465Y770D02*
X494Y770D01*
X522Y770D02*
X524Y770D01*
X610Y770D02*
X612Y770D01*
X614Y770D02*
X617Y770D01*
X629Y770D02*
X645Y770D01*
X672Y770D02*
X674Y770D01*
X760Y770D02*
X762Y770D01*
X1029Y770D02*
X1036Y770D01*
X0Y769D02*
X7Y769D01*
X233Y769D02*
X235Y769D01*
X320Y769D02*
X322Y769D01*
X327Y769D02*
X330Y769D01*
X372Y769D02*
X374Y769D01*
X460Y769D02*
X462Y769D01*
X466Y769D02*
X477Y769D01*
X482Y769D02*
X493Y769D01*
X522Y769D02*
X524Y769D01*
X610Y769D02*
X612Y769D01*
X614Y769D02*
X617Y769D01*
X630Y769D02*
X643Y769D01*
X672Y769D02*
X674Y769D01*
X760Y769D02*
X762Y769D01*
X1029Y769D02*
X1036Y769D01*
X0Y768D02*
X7Y768D01*
X233Y768D02*
X235Y768D01*
X320Y768D02*
X322Y768D01*
X327Y768D02*
X330Y768D01*
X372Y768D02*
X374Y768D01*
X460Y768D02*
X462Y768D01*
X522Y768D02*
X524Y768D01*
X610Y768D02*
X612Y768D01*
X672Y768D02*
X674Y768D01*
X760Y768D02*
X762Y768D01*
X1029Y768D02*
X1036Y768D01*
X0Y767D02*
X7Y767D01*
X233Y767D02*
X235Y767D01*
X320Y767D02*
X322Y767D01*
X327Y767D02*
X330Y767D01*
X372Y767D02*
X374Y767D01*
X460Y767D02*
X462Y767D01*
X522Y767D02*
X524Y767D01*
X610Y767D02*
X612Y767D01*
X672Y767D02*
X674Y767D01*
X760Y767D02*
X762Y767D01*
X1029Y767D02*
X1036Y767D01*
X0Y766D02*
X7Y766D01*
X233Y766D02*
X235Y766D01*
X320Y766D02*
X322Y766D01*
X327Y766D02*
X330Y766D01*
X372Y766D02*
X374Y766D01*
X460Y766D02*
X462Y766D01*
X522Y766D02*
X524Y766D01*
X610Y766D02*
X612Y766D01*
X672Y766D02*
X674Y766D01*
X760Y766D02*
X762Y766D01*
X1029Y766D02*
X1036Y766D01*
X0Y765D02*
X7Y765D01*
X233Y765D02*
X235Y765D01*
X320Y765D02*
X322Y765D01*
X327Y765D02*
X340Y765D01*
X372Y765D02*
X374Y765D01*
X460Y765D02*
X462Y765D01*
X522Y765D02*
X524Y765D01*
X610Y765D02*
X612Y765D01*
X672Y765D02*
X674Y765D01*
X760Y765D02*
X762Y765D01*
X1029Y765D02*
X1036Y765D01*
X0Y764D02*
X7Y764D01*
X233Y764D02*
X235Y764D01*
X320Y764D02*
X322Y764D01*
X327Y764D02*
X340Y764D01*
X372Y764D02*
X374Y764D01*
X460Y764D02*
X462Y764D01*
X522Y764D02*
X524Y764D01*
X610Y764D02*
X612Y764D01*
X672Y764D02*
X674Y764D01*
X760Y764D02*
X762Y764D01*
X1029Y764D02*
X1036Y764D01*
X0Y763D02*
X7Y763D01*
X233Y763D02*
X235Y763D01*
X320Y763D02*
X322Y763D01*
X327Y763D02*
X340Y763D01*
X372Y763D02*
X374Y763D01*
X460Y763D02*
X462Y763D01*
X522Y763D02*
X524Y763D01*
X610Y763D02*
X612Y763D01*
X672Y763D02*
X674Y763D01*
X760Y763D02*
X762Y763D01*
X1029Y763D02*
X1036Y763D01*
X0Y762D02*
X7Y762D01*
X233Y762D02*
X235Y762D01*
X320Y762D02*
X322Y762D01*
X327Y762D02*
X340Y762D01*
X372Y762D02*
X374Y762D01*
X460Y762D02*
X462Y762D01*
X522Y762D02*
X524Y762D01*
X610Y762D02*
X612Y762D01*
X672Y762D02*
X674Y762D01*
X760Y762D02*
X762Y762D01*
X1029Y762D02*
X1036Y762D01*
X0Y761D02*
X7Y761D01*
X233Y761D02*
X235Y761D01*
X320Y761D02*
X322Y761D01*
X372Y761D02*
X374Y761D01*
X460Y761D02*
X462Y761D01*
X522Y761D02*
X524Y761D01*
X610Y761D02*
X612Y761D01*
X672Y761D02*
X674Y761D01*
X760Y761D02*
X762Y761D01*
X1029Y761D02*
X1036Y761D01*
X0Y760D02*
X7Y760D01*
X233Y760D02*
X235Y760D01*
X320Y760D02*
X322Y760D01*
X372Y760D02*
X374Y760D01*
X460Y760D02*
X462Y760D01*
X522Y760D02*
X524Y760D01*
X610Y760D02*
X612Y760D01*
X672Y760D02*
X674Y760D01*
X760Y760D02*
X762Y760D01*
X1029Y760D02*
X1036Y760D01*
X0Y759D02*
X7Y759D01*
X233Y759D02*
X235Y759D01*
X320Y759D02*
X322Y759D01*
X372Y759D02*
X374Y759D01*
X460Y759D02*
X462Y759D01*
X522Y759D02*
X524Y759D01*
X610Y759D02*
X612Y759D01*
X672Y759D02*
X674Y759D01*
X760Y759D02*
X762Y759D01*
X1029Y759D02*
X1036Y759D01*
X0Y758D02*
X7Y758D01*
X233Y758D02*
X235Y758D01*
X320Y758D02*
X322Y758D01*
X372Y758D02*
X374Y758D01*
X460Y758D02*
X462Y758D01*
X522Y758D02*
X524Y758D01*
X610Y758D02*
X612Y758D01*
X672Y758D02*
X674Y758D01*
X760Y758D02*
X762Y758D01*
X1029Y758D02*
X1036Y758D01*
X0Y757D02*
X7Y757D01*
X233Y757D02*
X235Y757D01*
X320Y757D02*
X322Y757D01*
X372Y757D02*
X374Y757D01*
X460Y757D02*
X462Y757D01*
X522Y757D02*
X524Y757D01*
X610Y757D02*
X612Y757D01*
X672Y757D02*
X674Y757D01*
X760Y757D02*
X762Y757D01*
X1029Y757D02*
X1036Y757D01*
X0Y756D02*
X7Y756D01*
X233Y756D02*
X235Y756D01*
X320Y756D02*
X322Y756D01*
X372Y756D02*
X374Y756D01*
X460Y756D02*
X462Y756D01*
X522Y756D02*
X524Y756D01*
X610Y756D02*
X612Y756D01*
X672Y756D02*
X674Y756D01*
X760Y756D02*
X762Y756D01*
X1029Y756D02*
X1036Y756D01*
X0Y755D02*
X7Y755D01*
X233Y755D02*
X235Y755D01*
X320Y755D02*
X322Y755D01*
X372Y755D02*
X374Y755D01*
X460Y755D02*
X462Y755D01*
X522Y755D02*
X524Y755D01*
X610Y755D02*
X612Y755D01*
X672Y755D02*
X674Y755D01*
X760Y755D02*
X762Y755D01*
X1029Y755D02*
X1036Y755D01*
X0Y754D02*
X7Y754D01*
X233Y754D02*
X235Y754D01*
X320Y754D02*
X322Y754D01*
X372Y754D02*
X374Y754D01*
X460Y754D02*
X462Y754D01*
X522Y754D02*
X524Y754D01*
X610Y754D02*
X612Y754D01*
X672Y754D02*
X674Y754D01*
X760Y754D02*
X762Y754D01*
X1029Y754D02*
X1036Y754D01*
X0Y753D02*
X7Y753D01*
X233Y753D02*
X235Y753D01*
X320Y753D02*
X322Y753D01*
X372Y753D02*
X374Y753D01*
X460Y753D02*
X462Y753D01*
X522Y753D02*
X524Y753D01*
X610Y753D02*
X612Y753D01*
X672Y753D02*
X674Y753D01*
X760Y753D02*
X762Y753D01*
X1029Y753D02*
X1036Y753D01*
X0Y752D02*
X7Y752D01*
X233Y752D02*
X235Y752D01*
X320Y752D02*
X322Y752D01*
X372Y752D02*
X374Y752D01*
X460Y752D02*
X462Y752D01*
X522Y752D02*
X524Y752D01*
X610Y752D02*
X612Y752D01*
X672Y752D02*
X674Y752D01*
X760Y752D02*
X762Y752D01*
X1029Y752D02*
X1036Y752D01*
X0Y751D02*
X7Y751D01*
X233Y751D02*
X235Y751D01*
X320Y751D02*
X322Y751D01*
X372Y751D02*
X374Y751D01*
X460Y751D02*
X462Y751D01*
X522Y751D02*
X524Y751D01*
X610Y751D02*
X612Y751D01*
X672Y751D02*
X674Y751D01*
X760Y751D02*
X762Y751D01*
X1029Y751D02*
X1036Y751D01*
X0Y750D02*
X7Y750D01*
X233Y750D02*
X235Y750D01*
X320Y750D02*
X322Y750D01*
X372Y750D02*
X374Y750D01*
X460Y750D02*
X462Y750D01*
X522Y750D02*
X524Y750D01*
X610Y750D02*
X612Y750D01*
X672Y750D02*
X674Y750D01*
X760Y750D02*
X762Y750D01*
X1029Y750D02*
X1036Y750D01*
X0Y749D02*
X7Y749D01*
X233Y749D02*
X235Y749D01*
X320Y749D02*
X322Y749D01*
X372Y749D02*
X374Y749D01*
X460Y749D02*
X462Y749D01*
X522Y749D02*
X524Y749D01*
X610Y749D02*
X612Y749D01*
X672Y749D02*
X674Y749D01*
X760Y749D02*
X762Y749D01*
X1029Y749D02*
X1036Y749D01*
X0Y748D02*
X7Y748D01*
X233Y748D02*
X235Y748D01*
X320Y748D02*
X322Y748D01*
X372Y748D02*
X374Y748D01*
X460Y748D02*
X462Y748D01*
X522Y748D02*
X524Y748D01*
X610Y748D02*
X612Y748D01*
X672Y748D02*
X674Y748D01*
X760Y748D02*
X762Y748D01*
X1029Y748D02*
X1036Y748D01*
X0Y747D02*
X7Y747D01*
X233Y747D02*
X235Y747D01*
X320Y747D02*
X322Y747D01*
X372Y747D02*
X374Y747D01*
X460Y747D02*
X462Y747D01*
X522Y747D02*
X524Y747D01*
X610Y747D02*
X612Y747D01*
X672Y747D02*
X674Y747D01*
X760Y747D02*
X762Y747D01*
X1029Y747D02*
X1036Y747D01*
X0Y746D02*
X7Y746D01*
X233Y746D02*
X236Y746D01*
X319Y746D02*
X322Y746D01*
X372Y746D02*
X375Y746D01*
X459Y746D02*
X462Y746D01*
X522Y746D02*
X525Y746D01*
X609Y746D02*
X612Y746D01*
X672Y746D02*
X675Y746D01*
X759Y746D02*
X762Y746D01*
X1029Y746D02*
X1036Y746D01*
X0Y745D02*
X7Y745D01*
X233Y745D02*
X236Y745D01*
X319Y745D02*
X322Y745D01*
X372Y745D02*
X375Y745D01*
X459Y745D02*
X462Y745D01*
X522Y745D02*
X525Y745D01*
X609Y745D02*
X612Y745D01*
X672Y745D02*
X675Y745D01*
X759Y745D02*
X762Y745D01*
X1029Y745D02*
X1036Y745D01*
X0Y744D02*
X7Y744D01*
X233Y744D02*
X236Y744D01*
X319Y744D02*
X322Y744D01*
X372Y744D02*
X375Y744D01*
X459Y744D02*
X462Y744D01*
X522Y744D02*
X525Y744D01*
X609Y744D02*
X612Y744D01*
X672Y744D02*
X675Y744D01*
X759Y744D02*
X762Y744D01*
X1029Y744D02*
X1036Y744D01*
X0Y743D02*
X7Y743D01*
X233Y743D02*
X236Y743D01*
X319Y743D02*
X322Y743D01*
X372Y743D02*
X375Y743D01*
X459Y743D02*
X462Y743D01*
X522Y743D02*
X525Y743D01*
X609Y743D02*
X612Y743D01*
X672Y743D02*
X675Y743D01*
X759Y743D02*
X762Y743D01*
X1029Y743D02*
X1036Y743D01*
X0Y742D02*
X7Y742D01*
X233Y742D02*
X236Y742D01*
X319Y742D02*
X322Y742D01*
X372Y742D02*
X375Y742D01*
X459Y742D02*
X462Y742D01*
X522Y742D02*
X525Y742D01*
X609Y742D02*
X612Y742D01*
X672Y742D02*
X675Y742D01*
X759Y742D02*
X762Y742D01*
X1029Y742D02*
X1036Y742D01*
X0Y741D02*
X7Y741D01*
X233Y741D02*
X236Y741D01*
X319Y741D02*
X322Y741D01*
X372Y741D02*
X375Y741D01*
X459Y741D02*
X462Y741D01*
X522Y741D02*
X525Y741D01*
X609Y741D02*
X612Y741D01*
X672Y741D02*
X675Y741D01*
X759Y741D02*
X762Y741D01*
X1029Y741D02*
X1036Y741D01*
X0Y740D02*
X7Y740D01*
X233Y740D02*
X236Y740D01*
X319Y740D02*
X322Y740D01*
X372Y740D02*
X375Y740D01*
X459Y740D02*
X462Y740D01*
X522Y740D02*
X525Y740D01*
X609Y740D02*
X612Y740D01*
X672Y740D02*
X675Y740D01*
X759Y740D02*
X762Y740D01*
X1029Y740D02*
X1036Y740D01*
X0Y739D02*
X7Y739D01*
X233Y739D02*
X236Y739D01*
X319Y739D02*
X322Y739D01*
X372Y739D02*
X375Y739D01*
X459Y739D02*
X462Y739D01*
X522Y739D02*
X525Y739D01*
X609Y739D02*
X612Y739D01*
X672Y739D02*
X675Y739D01*
X759Y739D02*
X762Y739D01*
X1029Y739D02*
X1036Y739D01*
X0Y738D02*
X7Y738D01*
X233Y738D02*
X236Y738D01*
X319Y738D02*
X322Y738D01*
X372Y738D02*
X375Y738D01*
X459Y738D02*
X462Y738D01*
X522Y738D02*
X525Y738D01*
X609Y738D02*
X612Y738D01*
X672Y738D02*
X675Y738D01*
X759Y738D02*
X762Y738D01*
X1029Y738D02*
X1036Y738D01*
X0Y737D02*
X7Y737D01*
X233Y737D02*
X236Y737D01*
X319Y737D02*
X322Y737D01*
X372Y737D02*
X375Y737D01*
X459Y737D02*
X462Y737D01*
X522Y737D02*
X525Y737D01*
X609Y737D02*
X612Y737D01*
X672Y737D02*
X675Y737D01*
X759Y737D02*
X762Y737D01*
X1029Y737D02*
X1036Y737D01*
X0Y736D02*
X7Y736D01*
X233Y736D02*
X236Y736D01*
X319Y736D02*
X322Y736D01*
X372Y736D02*
X375Y736D01*
X459Y736D02*
X462Y736D01*
X522Y736D02*
X525Y736D01*
X609Y736D02*
X612Y736D01*
X672Y736D02*
X675Y736D01*
X759Y736D02*
X762Y736D01*
X1029Y736D02*
X1036Y736D01*
X0Y735D02*
X7Y735D01*
X233Y735D02*
X236Y735D01*
X319Y735D02*
X322Y735D01*
X372Y735D02*
X375Y735D01*
X459Y735D02*
X462Y735D01*
X522Y735D02*
X525Y735D01*
X609Y735D02*
X612Y735D01*
X672Y735D02*
X675Y735D01*
X759Y735D02*
X762Y735D01*
X1029Y735D02*
X1036Y735D01*
X0Y734D02*
X7Y734D01*
X233Y734D02*
X236Y734D01*
X319Y734D02*
X322Y734D01*
X372Y734D02*
X375Y734D01*
X459Y734D02*
X462Y734D01*
X522Y734D02*
X525Y734D01*
X609Y734D02*
X612Y734D01*
X672Y734D02*
X675Y734D01*
X759Y734D02*
X762Y734D01*
X1029Y734D02*
X1036Y734D01*
X0Y733D02*
X7Y733D01*
X233Y733D02*
X236Y733D01*
X319Y733D02*
X322Y733D01*
X372Y733D02*
X375Y733D01*
X459Y733D02*
X462Y733D01*
X522Y733D02*
X525Y733D01*
X609Y733D02*
X612Y733D01*
X672Y733D02*
X675Y733D01*
X759Y733D02*
X762Y733D01*
X1029Y733D02*
X1036Y733D01*
X0Y732D02*
X7Y732D01*
X233Y732D02*
X236Y732D01*
X319Y732D02*
X322Y732D01*
X372Y732D02*
X375Y732D01*
X459Y732D02*
X462Y732D01*
X522Y732D02*
X525Y732D01*
X609Y732D02*
X612Y732D01*
X672Y732D02*
X675Y732D01*
X759Y732D02*
X762Y732D01*
X1029Y732D02*
X1036Y732D01*
X0Y731D02*
X7Y731D01*
X233Y731D02*
X236Y731D01*
X319Y731D02*
X322Y731D01*
X372Y731D02*
X375Y731D01*
X459Y731D02*
X462Y731D01*
X522Y731D02*
X525Y731D01*
X609Y731D02*
X612Y731D01*
X672Y731D02*
X675Y731D01*
X759Y731D02*
X765Y731D01*
X791Y731D02*
X793Y731D01*
X1029Y731D02*
X1036Y731D01*
X0Y730D02*
X7Y730D01*
X233Y730D02*
X236Y730D01*
X319Y730D02*
X322Y730D01*
X372Y730D02*
X375Y730D01*
X459Y730D02*
X462Y730D01*
X522Y730D02*
X525Y730D01*
X609Y730D02*
X612Y730D01*
X672Y730D02*
X675Y730D01*
X759Y730D02*
X765Y730D01*
X790Y730D02*
X793Y730D01*
X1029Y730D02*
X1036Y730D01*
X0Y729D02*
X7Y729D01*
X233Y729D02*
X236Y729D01*
X319Y729D02*
X322Y729D01*
X372Y729D02*
X375Y729D01*
X459Y729D02*
X462Y729D01*
X464Y729D02*
X478Y729D01*
X494Y729D02*
X494Y729D01*
X522Y729D02*
X525Y729D01*
X609Y729D02*
X612Y729D01*
X672Y729D02*
X675Y729D01*
X759Y729D02*
X765Y729D01*
X790Y729D02*
X794Y729D01*
X1029Y729D02*
X1036Y729D01*
X0Y728D02*
X7Y728D01*
X233Y728D02*
X236Y728D01*
X319Y728D02*
X322Y728D01*
X372Y728D02*
X375Y728D01*
X459Y728D02*
X462Y728D01*
X464Y728D02*
X480Y728D01*
X492Y728D02*
X495Y728D01*
X522Y728D02*
X525Y728D01*
X609Y728D02*
X612Y728D01*
X614Y728D02*
X645Y728D01*
X672Y728D02*
X675Y728D01*
X759Y728D02*
X765Y728D01*
X790Y728D02*
X794Y728D01*
X1029Y728D02*
X1036Y728D01*
X0Y727D02*
X7Y727D01*
X233Y727D02*
X236Y727D01*
X319Y727D02*
X322Y727D01*
X372Y727D02*
X375Y727D01*
X459Y727D02*
X462Y727D01*
X464Y727D02*
X481Y727D01*
X492Y727D02*
X495Y727D01*
X522Y727D02*
X525Y727D01*
X609Y727D02*
X612Y727D01*
X614Y727D02*
X645Y727D01*
X672Y727D02*
X675Y727D01*
X759Y727D02*
X765Y727D01*
X790Y727D02*
X794Y727D01*
X1029Y727D02*
X1036Y727D01*
X0Y726D02*
X7Y726D01*
X233Y726D02*
X236Y726D01*
X319Y726D02*
X322Y726D01*
X372Y726D02*
X375Y726D01*
X459Y726D02*
X462Y726D01*
X464Y726D02*
X481Y726D01*
X492Y726D02*
X495Y726D01*
X522Y726D02*
X525Y726D01*
X609Y726D02*
X612Y726D01*
X614Y726D02*
X645Y726D01*
X672Y726D02*
X675Y726D01*
X759Y726D02*
X765Y726D01*
X790Y726D02*
X794Y726D01*
X1029Y726D02*
X1036Y726D01*
X0Y725D02*
X7Y725D01*
X233Y725D02*
X236Y725D01*
X319Y725D02*
X322Y725D01*
X372Y725D02*
X375Y725D01*
X459Y725D02*
X462Y725D01*
X464Y725D02*
X481Y725D01*
X492Y725D02*
X495Y725D01*
X522Y725D02*
X525Y725D01*
X609Y725D02*
X612Y725D01*
X614Y725D02*
X645Y725D01*
X672Y725D02*
X675Y725D01*
X759Y725D02*
X765Y725D01*
X790Y725D02*
X794Y725D01*
X1029Y725D02*
X1036Y725D01*
X0Y724D02*
X7Y724D01*
X233Y724D02*
X236Y724D01*
X319Y724D02*
X322Y724D01*
X372Y724D02*
X375Y724D01*
X459Y724D02*
X462Y724D01*
X464Y724D02*
X467Y724D01*
X478Y724D02*
X481Y724D01*
X492Y724D02*
X495Y724D01*
X522Y724D02*
X525Y724D01*
X609Y724D02*
X612Y724D01*
X614Y724D02*
X617Y724D01*
X625Y724D02*
X628Y724D01*
X642Y724D02*
X645Y724D01*
X672Y724D02*
X675Y724D01*
X759Y724D02*
X765Y724D01*
X790Y724D02*
X794Y724D01*
X1029Y724D02*
X1036Y724D01*
X0Y723D02*
X7Y723D01*
X233Y723D02*
X236Y723D01*
X319Y723D02*
X322Y723D01*
X372Y723D02*
X375Y723D01*
X459Y723D02*
X462Y723D01*
X464Y723D02*
X467Y723D01*
X478Y723D02*
X481Y723D01*
X492Y723D02*
X495Y723D01*
X522Y723D02*
X525Y723D01*
X609Y723D02*
X612Y723D01*
X614Y723D02*
X617Y723D01*
X625Y723D02*
X628Y723D01*
X643Y723D02*
X645Y723D01*
X672Y723D02*
X675Y723D01*
X759Y723D02*
X794Y723D01*
X1029Y723D02*
X1036Y723D01*
X0Y722D02*
X7Y722D01*
X233Y722D02*
X236Y722D01*
X319Y722D02*
X322Y722D01*
X372Y722D02*
X375Y722D01*
X459Y722D02*
X462Y722D01*
X464Y722D02*
X467Y722D01*
X478Y722D02*
X481Y722D01*
X492Y722D02*
X495Y722D01*
X522Y722D02*
X525Y722D01*
X609Y722D02*
X612Y722D01*
X614Y722D02*
X617Y722D01*
X625Y722D02*
X628Y722D01*
X672Y722D02*
X675Y722D01*
X759Y722D02*
X794Y722D01*
X1029Y722D02*
X1036Y722D01*
X0Y721D02*
X7Y721D01*
X233Y721D02*
X236Y721D01*
X319Y721D02*
X322Y721D01*
X327Y721D02*
X329Y721D01*
X355Y721D02*
X358Y721D01*
X372Y721D02*
X375Y721D01*
X459Y721D02*
X462Y721D01*
X464Y721D02*
X467Y721D01*
X478Y721D02*
X481Y721D01*
X492Y721D02*
X495Y721D01*
X522Y721D02*
X525Y721D01*
X609Y721D02*
X612Y721D01*
X614Y721D02*
X617Y721D01*
X625Y721D02*
X628Y721D01*
X672Y721D02*
X675Y721D01*
X759Y721D02*
X794Y721D01*
X1029Y721D02*
X1036Y721D01*
X0Y720D02*
X7Y720D01*
X233Y720D02*
X236Y720D01*
X319Y720D02*
X322Y720D01*
X327Y720D02*
X330Y720D01*
X355Y720D02*
X358Y720D01*
X372Y720D02*
X375Y720D01*
X459Y720D02*
X462Y720D01*
X464Y720D02*
X467Y720D01*
X478Y720D02*
X481Y720D01*
X492Y720D02*
X495Y720D01*
X522Y720D02*
X525Y720D01*
X609Y720D02*
X612Y720D01*
X614Y720D02*
X617Y720D01*
X625Y720D02*
X628Y720D01*
X672Y720D02*
X675Y720D01*
X759Y720D02*
X794Y720D01*
X1029Y720D02*
X1036Y720D01*
X0Y719D02*
X7Y719D01*
X233Y719D02*
X236Y719D01*
X319Y719D02*
X322Y719D01*
X327Y719D02*
X330Y719D01*
X355Y719D02*
X358Y719D01*
X372Y719D02*
X375Y719D01*
X459Y719D02*
X462Y719D01*
X464Y719D02*
X467Y719D01*
X478Y719D02*
X481Y719D01*
X492Y719D02*
X495Y719D01*
X522Y719D02*
X525Y719D01*
X609Y719D02*
X612Y719D01*
X614Y719D02*
X617Y719D01*
X625Y719D02*
X628Y719D01*
X672Y719D02*
X675Y719D01*
X759Y719D02*
X765Y719D01*
X1029Y719D02*
X1036Y719D01*
X0Y718D02*
X7Y718D01*
X233Y718D02*
X236Y718D01*
X319Y718D02*
X322Y718D01*
X327Y718D02*
X330Y718D01*
X355Y718D02*
X358Y718D01*
X372Y718D02*
X375Y718D01*
X459Y718D02*
X462Y718D01*
X464Y718D02*
X467Y718D01*
X478Y718D02*
X481Y718D01*
X492Y718D02*
X495Y718D01*
X522Y718D02*
X525Y718D01*
X609Y718D02*
X612Y718D01*
X614Y718D02*
X617Y718D01*
X625Y718D02*
X628Y718D01*
X672Y718D02*
X675Y718D01*
X759Y718D02*
X765Y718D01*
X1029Y718D02*
X1036Y718D01*
X0Y717D02*
X7Y717D01*
X233Y717D02*
X236Y717D01*
X319Y717D02*
X322Y717D01*
X327Y717D02*
X330Y717D01*
X355Y717D02*
X358Y717D01*
X372Y717D02*
X375Y717D01*
X459Y717D02*
X462Y717D01*
X464Y717D02*
X467Y717D01*
X478Y717D02*
X481Y717D01*
X492Y717D02*
X495Y717D01*
X522Y717D02*
X525Y717D01*
X609Y717D02*
X612Y717D01*
X614Y717D02*
X617Y717D01*
X625Y717D02*
X628Y717D01*
X672Y717D02*
X675Y717D01*
X759Y717D02*
X765Y717D01*
X1029Y717D02*
X1036Y717D01*
X0Y716D02*
X7Y716D01*
X233Y716D02*
X236Y716D01*
X319Y716D02*
X322Y716D01*
X327Y716D02*
X330Y716D01*
X355Y716D02*
X358Y716D01*
X372Y716D02*
X375Y716D01*
X459Y716D02*
X462Y716D01*
X464Y716D02*
X467Y716D01*
X478Y716D02*
X481Y716D01*
X492Y716D02*
X495Y716D01*
X522Y716D02*
X525Y716D01*
X609Y716D02*
X612Y716D01*
X614Y716D02*
X617Y716D01*
X625Y716D02*
X628Y716D01*
X672Y716D02*
X675Y716D01*
X759Y716D02*
X765Y716D01*
X1029Y716D02*
X1036Y716D01*
X0Y715D02*
X7Y715D01*
X233Y715D02*
X236Y715D01*
X319Y715D02*
X322Y715D01*
X327Y715D02*
X330Y715D01*
X355Y715D02*
X358Y715D01*
X372Y715D02*
X375Y715D01*
X459Y715D02*
X462Y715D01*
X464Y715D02*
X467Y715D01*
X478Y715D02*
X481Y715D01*
X492Y715D02*
X495Y715D01*
X522Y715D02*
X525Y715D01*
X609Y715D02*
X612Y715D01*
X614Y715D02*
X617Y715D01*
X625Y715D02*
X628Y715D01*
X672Y715D02*
X675Y715D01*
X759Y715D02*
X775Y715D01*
X1029Y715D02*
X1036Y715D01*
X0Y714D02*
X7Y714D01*
X233Y714D02*
X236Y714D01*
X319Y714D02*
X322Y714D01*
X327Y714D02*
X330Y714D01*
X355Y714D02*
X358Y714D01*
X372Y714D02*
X375Y714D01*
X459Y714D02*
X462Y714D01*
X464Y714D02*
X467Y714D01*
X478Y714D02*
X481Y714D01*
X492Y714D02*
X495Y714D01*
X522Y714D02*
X525Y714D01*
X609Y714D02*
X612Y714D01*
X614Y714D02*
X617Y714D01*
X625Y714D02*
X628Y714D01*
X672Y714D02*
X675Y714D01*
X759Y714D02*
X776Y714D01*
X1029Y714D02*
X1036Y714D01*
X0Y713D02*
X7Y713D01*
X233Y713D02*
X236Y713D01*
X319Y713D02*
X322Y713D01*
X327Y713D02*
X358Y713D01*
X372Y713D02*
X375Y713D01*
X459Y713D02*
X462Y713D01*
X464Y713D02*
X467Y713D01*
X478Y713D02*
X481Y713D01*
X492Y713D02*
X495Y713D01*
X522Y713D02*
X525Y713D01*
X609Y713D02*
X612Y713D01*
X614Y713D02*
X617Y713D01*
X625Y713D02*
X628Y713D01*
X672Y713D02*
X675Y713D01*
X759Y713D02*
X776Y713D01*
X1029Y713D02*
X1036Y713D01*
X0Y712D02*
X7Y712D01*
X233Y712D02*
X236Y712D01*
X319Y712D02*
X322Y712D01*
X327Y712D02*
X358Y712D01*
X372Y712D02*
X375Y712D01*
X459Y712D02*
X462Y712D01*
X464Y712D02*
X467Y712D01*
X478Y712D02*
X495Y712D01*
X522Y712D02*
X525Y712D01*
X609Y712D02*
X612Y712D01*
X614Y712D02*
X628Y712D01*
X672Y712D02*
X675Y712D01*
X759Y712D02*
X775Y712D01*
X1029Y712D02*
X1036Y712D01*
X0Y711D02*
X7Y711D01*
X233Y711D02*
X236Y711D01*
X319Y711D02*
X322Y711D01*
X327Y711D02*
X358Y711D01*
X372Y711D02*
X375Y711D01*
X459Y711D02*
X462Y711D01*
X464Y711D02*
X467Y711D01*
X478Y711D02*
X495Y711D01*
X522Y711D02*
X525Y711D01*
X609Y711D02*
X612Y711D01*
X614Y711D02*
X628Y711D01*
X672Y711D02*
X675Y711D01*
X759Y711D02*
X762Y711D01*
X1029Y711D02*
X1036Y711D01*
X0Y710D02*
X7Y710D01*
X233Y710D02*
X236Y710D01*
X319Y710D02*
X322Y710D01*
X327Y710D02*
X358Y710D01*
X372Y710D02*
X375Y710D01*
X459Y710D02*
X462Y710D01*
X464Y710D02*
X467Y710D01*
X479Y710D02*
X494Y710D01*
X522Y710D02*
X525Y710D01*
X609Y710D02*
X612Y710D01*
X614Y710D02*
X628Y710D01*
X672Y710D02*
X675Y710D01*
X759Y710D02*
X762Y710D01*
X1029Y710D02*
X1036Y710D01*
X0Y709D02*
X7Y709D01*
X233Y709D02*
X236Y709D01*
X319Y709D02*
X322Y709D01*
X327Y709D02*
X330Y709D01*
X372Y709D02*
X375Y709D01*
X459Y709D02*
X462Y709D01*
X465Y709D02*
X466Y709D01*
X480Y709D02*
X493Y709D01*
X522Y709D02*
X525Y709D01*
X609Y709D02*
X612Y709D01*
X614Y709D02*
X627Y709D01*
X672Y709D02*
X675Y709D01*
X759Y709D02*
X762Y709D01*
X1029Y709D02*
X1036Y709D01*
X0Y708D02*
X7Y708D01*
X233Y708D02*
X236Y708D01*
X319Y708D02*
X322Y708D01*
X327Y708D02*
X330Y708D01*
X372Y708D02*
X375Y708D01*
X459Y708D02*
X462Y708D01*
X522Y708D02*
X525Y708D01*
X609Y708D02*
X612Y708D01*
X616Y708D02*
X625Y708D01*
X672Y708D02*
X675Y708D01*
X759Y708D02*
X762Y708D01*
X1029Y708D02*
X1036Y708D01*
X0Y707D02*
X7Y707D01*
X233Y707D02*
X236Y707D01*
X319Y707D02*
X322Y707D01*
X327Y707D02*
X330Y707D01*
X372Y707D02*
X375Y707D01*
X459Y707D02*
X462Y707D01*
X522Y707D02*
X525Y707D01*
X609Y707D02*
X612Y707D01*
X672Y707D02*
X675Y707D01*
X759Y707D02*
X762Y707D01*
X1029Y707D02*
X1036Y707D01*
X0Y706D02*
X7Y706D01*
X233Y706D02*
X236Y706D01*
X319Y706D02*
X322Y706D01*
X327Y706D02*
X330Y706D01*
X372Y706D02*
X375Y706D01*
X459Y706D02*
X462Y706D01*
X522Y706D02*
X525Y706D01*
X609Y706D02*
X612Y706D01*
X672Y706D02*
X675Y706D01*
X759Y706D02*
X762Y706D01*
X1029Y706D02*
X1036Y706D01*
X0Y705D02*
X7Y705D01*
X233Y705D02*
X236Y705D01*
X319Y705D02*
X322Y705D01*
X327Y705D02*
X340Y705D01*
X372Y705D02*
X375Y705D01*
X459Y705D02*
X462Y705D01*
X522Y705D02*
X525Y705D01*
X609Y705D02*
X612Y705D01*
X672Y705D02*
X675Y705D01*
X759Y705D02*
X762Y705D01*
X1029Y705D02*
X1036Y705D01*
X0Y704D02*
X7Y704D01*
X233Y704D02*
X236Y704D01*
X319Y704D02*
X322Y704D01*
X327Y704D02*
X340Y704D01*
X372Y704D02*
X375Y704D01*
X459Y704D02*
X462Y704D01*
X522Y704D02*
X525Y704D01*
X609Y704D02*
X612Y704D01*
X672Y704D02*
X675Y704D01*
X759Y704D02*
X762Y704D01*
X1029Y704D02*
X1036Y704D01*
X0Y703D02*
X7Y703D01*
X233Y703D02*
X236Y703D01*
X319Y703D02*
X322Y703D01*
X327Y703D02*
X340Y703D01*
X372Y703D02*
X375Y703D01*
X459Y703D02*
X462Y703D01*
X522Y703D02*
X525Y703D01*
X609Y703D02*
X612Y703D01*
X672Y703D02*
X675Y703D01*
X759Y703D02*
X762Y703D01*
X1029Y703D02*
X1036Y703D01*
X0Y702D02*
X7Y702D01*
X233Y702D02*
X236Y702D01*
X319Y702D02*
X322Y702D01*
X327Y702D02*
X340Y702D01*
X372Y702D02*
X375Y702D01*
X459Y702D02*
X462Y702D01*
X522Y702D02*
X525Y702D01*
X609Y702D02*
X612Y702D01*
X672Y702D02*
X675Y702D01*
X759Y702D02*
X762Y702D01*
X1029Y702D02*
X1036Y702D01*
X0Y701D02*
X7Y701D01*
X233Y701D02*
X236Y701D01*
X319Y701D02*
X322Y701D01*
X372Y701D02*
X375Y701D01*
X459Y701D02*
X462Y701D01*
X522Y701D02*
X525Y701D01*
X609Y701D02*
X612Y701D01*
X672Y701D02*
X675Y701D01*
X759Y701D02*
X762Y701D01*
X764Y701D02*
X766Y701D01*
X1029Y701D02*
X1036Y701D01*
X0Y700D02*
X7Y700D01*
X233Y700D02*
X236Y700D01*
X319Y700D02*
X322Y700D01*
X372Y700D02*
X375Y700D01*
X459Y700D02*
X462Y700D01*
X522Y700D02*
X525Y700D01*
X609Y700D02*
X612Y700D01*
X672Y700D02*
X675Y700D01*
X759Y700D02*
X762Y700D01*
X764Y700D02*
X767Y700D01*
X1029Y700D02*
X1036Y700D01*
X0Y699D02*
X7Y699D01*
X233Y699D02*
X236Y699D01*
X319Y699D02*
X322Y699D01*
X372Y699D02*
X375Y699D01*
X459Y699D02*
X462Y699D01*
X464Y699D02*
X477Y699D01*
X522Y699D02*
X525Y699D01*
X609Y699D02*
X612Y699D01*
X672Y699D02*
X675Y699D01*
X759Y699D02*
X767Y699D01*
X1029Y699D02*
X1036Y699D01*
X0Y698D02*
X7Y698D01*
X233Y698D02*
X236Y698D01*
X319Y698D02*
X322Y698D01*
X372Y698D02*
X375Y698D01*
X459Y698D02*
X462Y698D01*
X464Y698D02*
X480Y698D01*
X493Y698D02*
X495Y698D01*
X522Y698D02*
X525Y698D01*
X609Y698D02*
X612Y698D01*
X672Y698D02*
X675Y698D01*
X759Y698D02*
X767Y698D01*
X1029Y698D02*
X1036Y698D01*
X0Y697D02*
X7Y697D01*
X233Y697D02*
X235Y697D01*
X320Y697D02*
X322Y697D01*
X372Y697D02*
X374Y697D01*
X460Y697D02*
X462Y697D01*
X464Y697D02*
X480Y697D01*
X492Y697D02*
X495Y697D01*
X522Y697D02*
X525Y697D01*
X609Y697D02*
X612Y697D01*
X672Y697D02*
X674Y697D01*
X760Y697D02*
X766Y697D01*
X776Y697D02*
X794Y697D01*
X1029Y697D02*
X1036Y697D01*
X0Y696D02*
X7Y696D01*
X233Y696D02*
X235Y696D01*
X320Y696D02*
X322Y696D01*
X372Y696D02*
X374Y696D01*
X460Y696D02*
X462Y696D01*
X464Y696D02*
X481Y696D01*
X492Y696D02*
X495Y696D01*
X522Y696D02*
X524Y696D01*
X610Y696D02*
X612Y696D01*
X672Y696D02*
X674Y696D01*
X760Y696D02*
X766Y696D01*
X776Y696D02*
X794Y696D01*
X1029Y696D02*
X1036Y696D01*
X0Y695D02*
X7Y695D01*
X233Y695D02*
X235Y695D01*
X320Y695D02*
X322Y695D01*
X372Y695D02*
X374Y695D01*
X460Y695D02*
X462Y695D01*
X464Y695D02*
X481Y695D01*
X492Y695D02*
X495Y695D01*
X522Y695D02*
X524Y695D01*
X610Y695D02*
X612Y695D01*
X672Y695D02*
X674Y695D01*
X760Y695D02*
X765Y695D01*
X776Y695D02*
X794Y695D01*
X1029Y695D02*
X1036Y695D01*
X0Y694D02*
X7Y694D01*
X233Y694D02*
X235Y694D01*
X320Y694D02*
X322Y694D01*
X372Y694D02*
X374Y694D01*
X460Y694D02*
X462Y694D01*
X464Y694D02*
X467Y694D01*
X478Y694D02*
X481Y694D01*
X492Y694D02*
X495Y694D01*
X522Y694D02*
X524Y694D01*
X610Y694D02*
X612Y694D01*
X672Y694D02*
X674Y694D01*
X760Y694D02*
X765Y694D01*
X776Y694D02*
X794Y694D01*
X1029Y694D02*
X1036Y694D01*
X0Y693D02*
X7Y693D01*
X233Y693D02*
X235Y693D01*
X320Y693D02*
X322Y693D01*
X372Y693D02*
X374Y693D01*
X460Y693D02*
X462Y693D01*
X464Y693D02*
X467Y693D01*
X478Y693D02*
X481Y693D01*
X492Y693D02*
X495Y693D01*
X522Y693D02*
X524Y693D01*
X610Y693D02*
X612Y693D01*
X672Y693D02*
X674Y693D01*
X760Y693D02*
X765Y693D01*
X776Y693D02*
X780Y693D01*
X790Y693D02*
X794Y693D01*
X1029Y693D02*
X1036Y693D01*
X0Y692D02*
X7Y692D01*
X233Y692D02*
X235Y692D01*
X320Y692D02*
X322Y692D01*
X372Y692D02*
X374Y692D01*
X460Y692D02*
X462Y692D01*
X464Y692D02*
X467Y692D01*
X478Y692D02*
X481Y692D01*
X492Y692D02*
X495Y692D01*
X522Y692D02*
X524Y692D01*
X610Y692D02*
X612Y692D01*
X620Y692D02*
X625Y692D01*
X672Y692D02*
X674Y692D01*
X760Y692D02*
X765Y692D01*
X776Y692D02*
X779Y692D01*
X790Y692D02*
X794Y692D01*
X1029Y692D02*
X1036Y692D01*
X0Y691D02*
X7Y691D01*
X233Y691D02*
X235Y691D01*
X320Y691D02*
X322Y691D01*
X328Y691D02*
X356Y691D01*
X372Y691D02*
X374Y691D01*
X460Y691D02*
X462Y691D01*
X464Y691D02*
X467Y691D01*
X478Y691D02*
X481Y691D01*
X492Y691D02*
X495Y691D01*
X522Y691D02*
X524Y691D01*
X610Y691D02*
X612Y691D01*
X619Y691D02*
X626Y691D01*
X672Y691D02*
X674Y691D01*
X760Y691D02*
X765Y691D01*
X776Y691D02*
X779Y691D01*
X790Y691D02*
X794Y691D01*
X1029Y691D02*
X1036Y691D01*
X0Y690D02*
X7Y690D01*
X233Y690D02*
X235Y690D01*
X320Y690D02*
X322Y690D01*
X327Y690D02*
X357Y690D01*
X372Y690D02*
X374Y690D01*
X460Y690D02*
X462Y690D01*
X464Y690D02*
X467Y690D01*
X478Y690D02*
X481Y690D01*
X492Y690D02*
X495Y690D01*
X522Y690D02*
X524Y690D01*
X610Y690D02*
X612Y690D01*
X619Y690D02*
X626Y690D01*
X672Y690D02*
X674Y690D01*
X760Y690D02*
X765Y690D01*
X776Y690D02*
X779Y690D01*
X790Y690D02*
X794Y690D01*
X1029Y690D02*
X1036Y690D01*
X0Y689D02*
X7Y689D01*
X233Y689D02*
X235Y689D01*
X320Y689D02*
X322Y689D01*
X327Y689D02*
X358Y689D01*
X372Y689D02*
X374Y689D01*
X460Y689D02*
X462Y689D01*
X464Y689D02*
X467Y689D01*
X478Y689D02*
X481Y689D01*
X492Y689D02*
X495Y689D01*
X522Y689D02*
X524Y689D01*
X610Y689D02*
X612Y689D01*
X619Y689D02*
X626Y689D01*
X672Y689D02*
X674Y689D01*
X760Y689D02*
X765Y689D01*
X776Y689D02*
X779Y689D01*
X790Y689D02*
X794Y689D01*
X1029Y689D02*
X1036Y689D01*
X0Y688D02*
X7Y688D01*
X233Y688D02*
X235Y688D01*
X320Y688D02*
X322Y688D01*
X327Y688D02*
X358Y688D01*
X372Y688D02*
X374Y688D01*
X460Y688D02*
X462Y688D01*
X464Y688D02*
X467Y688D01*
X478Y688D02*
X481Y688D01*
X492Y688D02*
X495Y688D01*
X522Y688D02*
X524Y688D01*
X610Y688D02*
X612Y688D01*
X619Y688D02*
X626Y688D01*
X672Y688D02*
X674Y688D01*
X760Y688D02*
X765Y688D01*
X776Y688D02*
X779Y688D01*
X790Y688D02*
X794Y688D01*
X1029Y688D02*
X1036Y688D01*
X0Y687D02*
X7Y687D01*
X233Y687D02*
X235Y687D01*
X320Y687D02*
X322Y687D01*
X327Y687D02*
X330Y687D01*
X355Y687D02*
X358Y687D01*
X372Y687D02*
X374Y687D01*
X460Y687D02*
X462Y687D01*
X464Y687D02*
X467Y687D01*
X478Y687D02*
X481Y687D01*
X492Y687D02*
X495Y687D01*
X522Y687D02*
X524Y687D01*
X610Y687D02*
X612Y687D01*
X619Y687D02*
X626Y687D01*
X672Y687D02*
X674Y687D01*
X760Y687D02*
X765Y687D01*
X776Y687D02*
X779Y687D01*
X790Y687D02*
X794Y687D01*
X1029Y687D02*
X1036Y687D01*
X0Y686D02*
X7Y686D01*
X233Y686D02*
X235Y686D01*
X320Y686D02*
X322Y686D01*
X327Y686D02*
X330Y686D01*
X355Y686D02*
X358Y686D01*
X372Y686D02*
X374Y686D01*
X460Y686D02*
X462Y686D01*
X464Y686D02*
X467Y686D01*
X478Y686D02*
X481Y686D01*
X492Y686D02*
X495Y686D01*
X522Y686D02*
X524Y686D01*
X610Y686D02*
X612Y686D01*
X619Y686D02*
X626Y686D01*
X672Y686D02*
X674Y686D01*
X760Y686D02*
X765Y686D01*
X776Y686D02*
X779Y686D01*
X790Y686D02*
X794Y686D01*
X1029Y686D02*
X1036Y686D01*
X0Y685D02*
X7Y685D01*
X233Y685D02*
X235Y685D01*
X320Y685D02*
X322Y685D01*
X327Y685D02*
X330Y685D01*
X355Y685D02*
X358Y685D01*
X372Y685D02*
X374Y685D01*
X460Y685D02*
X462Y685D01*
X464Y685D02*
X467Y685D01*
X478Y685D02*
X481Y685D01*
X492Y685D02*
X495Y685D01*
X522Y685D02*
X524Y685D01*
X610Y685D02*
X612Y685D01*
X620Y685D02*
X626Y685D01*
X672Y685D02*
X674Y685D01*
X760Y685D02*
X779Y685D01*
X790Y685D02*
X794Y685D01*
X1029Y685D02*
X1036Y685D01*
X0Y684D02*
X7Y684D01*
X233Y684D02*
X235Y684D01*
X320Y684D02*
X322Y684D01*
X327Y684D02*
X330Y684D01*
X355Y684D02*
X358Y684D01*
X372Y684D02*
X374Y684D01*
X460Y684D02*
X462Y684D01*
X464Y684D02*
X467Y684D01*
X478Y684D02*
X481Y684D01*
X492Y684D02*
X495Y684D01*
X522Y684D02*
X524Y684D01*
X610Y684D02*
X612Y684D01*
X672Y684D02*
X674Y684D01*
X760Y684D02*
X779Y684D01*
X790Y684D02*
X794Y684D01*
X1029Y684D02*
X1036Y684D01*
X0Y683D02*
X7Y683D01*
X233Y683D02*
X235Y683D01*
X320Y683D02*
X322Y683D01*
X327Y683D02*
X330Y683D01*
X355Y683D02*
X358Y683D01*
X372Y683D02*
X374Y683D01*
X460Y683D02*
X462Y683D01*
X464Y683D02*
X467Y683D01*
X478Y683D02*
X481Y683D01*
X492Y683D02*
X495Y683D01*
X522Y683D02*
X524Y683D01*
X610Y683D02*
X612Y683D01*
X672Y683D02*
X674Y683D01*
X760Y683D02*
X779Y683D01*
X790Y683D02*
X794Y683D01*
X1029Y683D02*
X1036Y683D01*
X0Y682D02*
X7Y682D01*
X233Y682D02*
X235Y682D01*
X320Y682D02*
X322Y682D01*
X327Y682D02*
X330Y682D01*
X355Y682D02*
X358Y682D01*
X372Y682D02*
X374Y682D01*
X460Y682D02*
X462Y682D01*
X464Y682D02*
X467Y682D01*
X478Y682D02*
X495Y682D01*
X522Y682D02*
X524Y682D01*
X610Y682D02*
X612Y682D01*
X672Y682D02*
X674Y682D01*
X760Y682D02*
X762Y682D01*
X764Y682D02*
X778Y682D01*
X791Y682D02*
X793Y682D01*
X1029Y682D02*
X1036Y682D01*
X0Y681D02*
X7Y681D01*
X233Y681D02*
X235Y681D01*
X320Y681D02*
X322Y681D01*
X327Y681D02*
X330Y681D01*
X355Y681D02*
X358Y681D01*
X372Y681D02*
X374Y681D01*
X460Y681D02*
X462Y681D01*
X464Y681D02*
X467Y681D01*
X478Y681D02*
X495Y681D01*
X522Y681D02*
X524Y681D01*
X610Y681D02*
X612Y681D01*
X672Y681D02*
X674Y681D01*
X760Y681D02*
X762Y681D01*
X766Y681D02*
X776Y681D01*
X792Y681D02*
X792Y681D01*
X1029Y681D02*
X1036Y681D01*
X0Y680D02*
X7Y680D01*
X233Y680D02*
X235Y680D01*
X320Y680D02*
X322Y680D01*
X327Y680D02*
X330Y680D01*
X355Y680D02*
X358Y680D01*
X372Y680D02*
X374Y680D01*
X460Y680D02*
X462Y680D01*
X464Y680D02*
X467Y680D01*
X479Y680D02*
X494Y680D01*
X522Y680D02*
X524Y680D01*
X610Y680D02*
X612Y680D01*
X672Y680D02*
X674Y680D01*
X760Y680D02*
X762Y680D01*
X1029Y680D02*
X1036Y680D01*
X0Y679D02*
X7Y679D01*
X233Y679D02*
X235Y679D01*
X320Y679D02*
X322Y679D01*
X327Y679D02*
X330Y679D01*
X355Y679D02*
X358Y679D01*
X372Y679D02*
X374Y679D01*
X460Y679D02*
X462Y679D01*
X464Y679D02*
X466Y679D01*
X480Y679D02*
X493Y679D01*
X522Y679D02*
X524Y679D01*
X610Y679D02*
X612Y679D01*
X672Y679D02*
X674Y679D01*
X760Y679D02*
X762Y679D01*
X1029Y679D02*
X1036Y679D01*
X0Y678D02*
X7Y678D01*
X233Y678D02*
X235Y678D01*
X320Y678D02*
X322Y678D01*
X327Y678D02*
X330Y678D01*
X355Y678D02*
X358Y678D01*
X372Y678D02*
X374Y678D01*
X460Y678D02*
X462Y678D01*
X522Y678D02*
X524Y678D01*
X610Y678D02*
X612Y678D01*
X672Y678D02*
X674Y678D01*
X760Y678D02*
X762Y678D01*
X1029Y678D02*
X1036Y678D01*
X0Y677D02*
X7Y677D01*
X233Y677D02*
X235Y677D01*
X320Y677D02*
X322Y677D01*
X327Y677D02*
X330Y677D01*
X355Y677D02*
X358Y677D01*
X372Y677D02*
X374Y677D01*
X460Y677D02*
X462Y677D01*
X522Y677D02*
X524Y677D01*
X610Y677D02*
X612Y677D01*
X672Y677D02*
X674Y677D01*
X760Y677D02*
X762Y677D01*
X1029Y677D02*
X1036Y677D01*
X0Y676D02*
X7Y676D01*
X233Y676D02*
X235Y676D01*
X320Y676D02*
X322Y676D01*
X327Y676D02*
X330Y676D01*
X355Y676D02*
X358Y676D01*
X372Y676D02*
X374Y676D01*
X460Y676D02*
X462Y676D01*
X522Y676D02*
X524Y676D01*
X610Y676D02*
X612Y676D01*
X672Y676D02*
X674Y676D01*
X760Y676D02*
X762Y676D01*
X1029Y676D02*
X1036Y676D01*
X0Y675D02*
X7Y675D01*
X233Y675D02*
X235Y675D01*
X320Y675D02*
X322Y675D01*
X327Y675D02*
X358Y675D01*
X372Y675D02*
X374Y675D01*
X460Y675D02*
X462Y675D01*
X522Y675D02*
X524Y675D01*
X610Y675D02*
X612Y675D01*
X672Y675D02*
X674Y675D01*
X760Y675D02*
X762Y675D01*
X1029Y675D02*
X1036Y675D01*
X0Y674D02*
X7Y674D01*
X233Y674D02*
X235Y674D01*
X320Y674D02*
X322Y674D01*
X327Y674D02*
X358Y674D01*
X372Y674D02*
X374Y674D01*
X460Y674D02*
X462Y674D01*
X522Y674D02*
X524Y674D01*
X610Y674D02*
X612Y674D01*
X672Y674D02*
X674Y674D01*
X760Y674D02*
X762Y674D01*
X1029Y674D02*
X1036Y674D01*
X0Y673D02*
X7Y673D01*
X233Y673D02*
X235Y673D01*
X320Y673D02*
X322Y673D01*
X327Y673D02*
X357Y673D01*
X372Y673D02*
X374Y673D01*
X460Y673D02*
X462Y673D01*
X522Y673D02*
X524Y673D01*
X610Y673D02*
X612Y673D01*
X672Y673D02*
X674Y673D01*
X760Y673D02*
X762Y673D01*
X1029Y673D02*
X1036Y673D01*
X0Y672D02*
X7Y672D01*
X233Y672D02*
X235Y672D01*
X320Y672D02*
X322Y672D01*
X328Y672D02*
X356Y672D01*
X372Y672D02*
X374Y672D01*
X460Y672D02*
X462Y672D01*
X522Y672D02*
X524Y672D01*
X610Y672D02*
X612Y672D01*
X672Y672D02*
X674Y672D01*
X760Y672D02*
X762Y672D01*
X1029Y672D02*
X1036Y672D01*
X0Y671D02*
X7Y671D01*
X233Y671D02*
X235Y671D01*
X320Y671D02*
X322Y671D01*
X372Y671D02*
X374Y671D01*
X460Y671D02*
X462Y671D01*
X522Y671D02*
X524Y671D01*
X610Y671D02*
X612Y671D01*
X672Y671D02*
X674Y671D01*
X760Y671D02*
X793Y671D01*
X1029Y671D02*
X1036Y671D01*
X0Y670D02*
X7Y670D01*
X233Y670D02*
X235Y670D01*
X320Y670D02*
X322Y670D01*
X372Y670D02*
X374Y670D01*
X460Y670D02*
X462Y670D01*
X522Y670D02*
X524Y670D01*
X610Y670D02*
X612Y670D01*
X672Y670D02*
X674Y670D01*
X760Y670D02*
X793Y670D01*
X1029Y670D02*
X1036Y670D01*
X0Y669D02*
X7Y669D01*
X233Y669D02*
X235Y669D01*
X320Y669D02*
X322Y669D01*
X372Y669D02*
X374Y669D01*
X460Y669D02*
X462Y669D01*
X522Y669D02*
X524Y669D01*
X610Y669D02*
X612Y669D01*
X672Y669D02*
X674Y669D01*
X760Y669D02*
X793Y669D01*
X1029Y669D02*
X1036Y669D01*
X0Y668D02*
X7Y668D01*
X233Y668D02*
X235Y668D01*
X320Y668D02*
X322Y668D01*
X372Y668D02*
X374Y668D01*
X460Y668D02*
X462Y668D01*
X466Y668D02*
X494Y668D01*
X522Y668D02*
X524Y668D01*
X610Y668D02*
X612Y668D01*
X616Y668D02*
X629Y668D01*
X672Y668D02*
X674Y668D01*
X760Y668D02*
X793Y668D01*
X1029Y668D02*
X1036Y668D01*
X0Y667D02*
X7Y667D01*
X233Y667D02*
X235Y667D01*
X320Y667D02*
X322Y667D01*
X372Y667D02*
X374Y667D01*
X460Y667D02*
X462Y667D01*
X465Y667D02*
X495Y667D01*
X522Y667D02*
X524Y667D01*
X610Y667D02*
X612Y667D01*
X615Y667D02*
X630Y667D01*
X672Y667D02*
X674Y667D01*
X760Y667D02*
X762Y667D01*
X771Y667D02*
X775Y667D01*
X1029Y667D02*
X1036Y667D01*
X0Y666D02*
X7Y666D01*
X233Y666D02*
X235Y666D01*
X320Y666D02*
X322Y666D01*
X372Y666D02*
X374Y666D01*
X460Y666D02*
X462Y666D01*
X464Y666D02*
X495Y666D01*
X522Y666D02*
X524Y666D01*
X610Y666D02*
X612Y666D01*
X614Y666D02*
X631Y666D01*
X672Y666D02*
X674Y666D01*
X760Y666D02*
X762Y666D01*
X771Y666D02*
X776Y666D01*
X1029Y666D02*
X1036Y666D01*
X0Y665D02*
X7Y665D01*
X233Y665D02*
X235Y665D01*
X320Y665D02*
X322Y665D01*
X372Y665D02*
X374Y665D01*
X460Y665D02*
X462Y665D01*
X464Y665D02*
X495Y665D01*
X522Y665D02*
X524Y665D01*
X610Y665D02*
X612Y665D01*
X614Y665D02*
X631Y665D01*
X672Y665D02*
X674Y665D01*
X760Y665D02*
X762Y665D01*
X772Y665D02*
X777Y665D01*
X1029Y665D02*
X1036Y665D01*
X0Y664D02*
X7Y664D01*
X233Y664D02*
X235Y664D01*
X320Y664D02*
X322Y664D01*
X372Y664D02*
X374Y664D01*
X460Y664D02*
X462Y664D01*
X464Y664D02*
X467Y664D01*
X492Y664D02*
X495Y664D01*
X522Y664D02*
X524Y664D01*
X610Y664D02*
X612Y664D01*
X614Y664D02*
X617Y664D01*
X628Y664D02*
X644Y664D01*
X672Y664D02*
X674Y664D01*
X760Y664D02*
X762Y664D01*
X771Y664D02*
X778Y664D01*
X1029Y664D02*
X1036Y664D01*
X0Y663D02*
X7Y663D01*
X233Y663D02*
X235Y663D01*
X320Y663D02*
X345Y663D01*
X372Y663D02*
X374Y663D01*
X460Y663D02*
X462Y663D01*
X464Y663D02*
X467Y663D01*
X492Y663D02*
X495Y663D01*
X522Y663D02*
X524Y663D01*
X610Y663D02*
X612Y663D01*
X614Y663D02*
X617Y663D01*
X628Y663D02*
X645Y663D01*
X672Y663D02*
X674Y663D01*
X760Y663D02*
X762Y663D01*
X770Y663D02*
X779Y663D01*
X1029Y663D02*
X1036Y663D01*
X0Y662D02*
X7Y662D01*
X233Y662D02*
X235Y662D01*
X320Y662D02*
X346Y662D01*
X372Y662D02*
X374Y662D01*
X460Y662D02*
X462Y662D01*
X464Y662D02*
X467Y662D01*
X492Y662D02*
X495Y662D01*
X522Y662D02*
X524Y662D01*
X610Y662D02*
X612Y662D01*
X614Y662D02*
X617Y662D01*
X628Y662D02*
X645Y662D01*
X672Y662D02*
X674Y662D01*
X760Y662D02*
X762Y662D01*
X769Y662D02*
X779Y662D01*
X1029Y662D02*
X1036Y662D01*
X0Y661D02*
X7Y661D01*
X233Y661D02*
X235Y661D01*
X320Y661D02*
X346Y661D01*
X372Y661D02*
X374Y661D01*
X460Y661D02*
X462Y661D01*
X464Y661D02*
X467Y661D01*
X492Y661D02*
X495Y661D01*
X522Y661D02*
X524Y661D01*
X610Y661D02*
X612Y661D01*
X614Y661D02*
X617Y661D01*
X628Y661D02*
X645Y661D01*
X672Y661D02*
X674Y661D01*
X760Y661D02*
X762Y661D01*
X768Y661D02*
X773Y661D01*
X776Y661D02*
X780Y661D01*
X1029Y661D02*
X1036Y661D01*
X0Y660D02*
X7Y660D01*
X233Y660D02*
X235Y660D01*
X320Y660D02*
X346Y660D01*
X372Y660D02*
X374Y660D01*
X460Y660D02*
X462Y660D01*
X464Y660D02*
X467Y660D01*
X492Y660D02*
X495Y660D01*
X522Y660D02*
X524Y660D01*
X610Y660D02*
X612Y660D01*
X614Y660D02*
X617Y660D01*
X628Y660D02*
X631Y660D01*
X642Y660D02*
X645Y660D01*
X672Y660D02*
X674Y660D01*
X760Y660D02*
X762Y660D01*
X767Y660D02*
X772Y660D01*
X777Y660D02*
X781Y660D01*
X1029Y660D02*
X1036Y660D01*
X0Y659D02*
X7Y659D01*
X233Y659D02*
X235Y659D01*
X320Y659D02*
X322Y659D01*
X327Y659D02*
X330Y659D01*
X372Y659D02*
X374Y659D01*
X460Y659D02*
X462Y659D01*
X464Y659D02*
X467Y659D01*
X492Y659D02*
X495Y659D01*
X522Y659D02*
X524Y659D01*
X610Y659D02*
X612Y659D01*
X614Y659D02*
X617Y659D01*
X628Y659D02*
X631Y659D01*
X642Y659D02*
X645Y659D01*
X672Y659D02*
X674Y659D01*
X760Y659D02*
X762Y659D01*
X767Y659D02*
X771Y659D01*
X777Y659D02*
X782Y659D01*
X1029Y659D02*
X1036Y659D01*
X0Y658D02*
X7Y658D01*
X233Y658D02*
X235Y658D01*
X320Y658D02*
X322Y658D01*
X327Y658D02*
X329Y658D01*
X372Y658D02*
X374Y658D01*
X460Y658D02*
X462Y658D01*
X464Y658D02*
X467Y658D01*
X492Y658D02*
X495Y658D01*
X522Y658D02*
X524Y658D01*
X610Y658D02*
X612Y658D01*
X614Y658D02*
X617Y658D01*
X628Y658D02*
X631Y658D01*
X642Y658D02*
X645Y658D01*
X672Y658D02*
X674Y658D01*
X760Y658D02*
X762Y658D01*
X766Y658D02*
X770Y658D01*
X778Y658D02*
X783Y658D01*
X1029Y658D02*
X1036Y658D01*
X0Y657D02*
X7Y657D01*
X233Y657D02*
X235Y657D01*
X320Y657D02*
X322Y657D01*
X326Y657D02*
X328Y657D01*
X372Y657D02*
X374Y657D01*
X460Y657D02*
X462Y657D01*
X464Y657D02*
X467Y657D01*
X492Y657D02*
X495Y657D01*
X522Y657D02*
X524Y657D01*
X610Y657D02*
X612Y657D01*
X614Y657D02*
X617Y657D01*
X628Y657D02*
X631Y657D01*
X642Y657D02*
X645Y657D01*
X672Y657D02*
X674Y657D01*
X760Y657D02*
X762Y657D01*
X765Y657D02*
X769Y657D01*
X779Y657D02*
X784Y657D01*
X1029Y657D02*
X1036Y657D01*
X0Y656D02*
X7Y656D01*
X233Y656D02*
X235Y656D01*
X320Y656D02*
X322Y656D01*
X326Y656D02*
X328Y656D01*
X372Y656D02*
X374Y656D01*
X460Y656D02*
X462Y656D01*
X464Y656D02*
X467Y656D01*
X492Y656D02*
X495Y656D01*
X522Y656D02*
X524Y656D01*
X610Y656D02*
X612Y656D01*
X614Y656D02*
X617Y656D01*
X628Y656D02*
X645Y656D01*
X672Y656D02*
X674Y656D01*
X760Y656D02*
X762Y656D01*
X764Y656D02*
X769Y656D01*
X780Y656D02*
X784Y656D01*
X1029Y656D02*
X1036Y656D01*
X0Y655D02*
X7Y655D01*
X233Y655D02*
X235Y655D01*
X320Y655D02*
X322Y655D01*
X326Y655D02*
X328Y655D01*
X372Y655D02*
X374Y655D01*
X460Y655D02*
X462Y655D01*
X464Y655D02*
X467Y655D01*
X492Y655D02*
X495Y655D01*
X522Y655D02*
X524Y655D01*
X610Y655D02*
X612Y655D01*
X614Y655D02*
X617Y655D01*
X628Y655D02*
X645Y655D01*
X672Y655D02*
X674Y655D01*
X760Y655D02*
X768Y655D01*
X781Y655D02*
X785Y655D01*
X1029Y655D02*
X1036Y655D01*
X0Y654D02*
X7Y654D01*
X233Y654D02*
X235Y654D01*
X320Y654D02*
X322Y654D01*
X326Y654D02*
X328Y654D01*
X372Y654D02*
X374Y654D01*
X460Y654D02*
X462Y654D01*
X464Y654D02*
X467Y654D01*
X492Y654D02*
X495Y654D01*
X522Y654D02*
X524Y654D01*
X610Y654D02*
X612Y654D01*
X614Y654D02*
X617Y654D01*
X628Y654D02*
X645Y654D01*
X672Y654D02*
X674Y654D01*
X760Y654D02*
X767Y654D01*
X782Y654D02*
X784Y654D01*
X1029Y654D02*
X1036Y654D01*
X0Y653D02*
X7Y653D01*
X233Y653D02*
X235Y653D01*
X320Y653D02*
X322Y653D01*
X327Y653D02*
X328Y653D01*
X372Y653D02*
X374Y653D01*
X460Y653D02*
X462Y653D01*
X464Y653D02*
X467Y653D01*
X492Y653D02*
X495Y653D01*
X522Y653D02*
X524Y653D01*
X610Y653D02*
X612Y653D01*
X614Y653D02*
X617Y653D01*
X628Y653D02*
X645Y653D01*
X672Y653D02*
X674Y653D01*
X760Y653D02*
X766Y653D01*
X783Y653D02*
X783Y653D01*
X1029Y653D02*
X1036Y653D01*
X0Y652D02*
X7Y652D01*
X233Y652D02*
X235Y652D01*
X320Y652D02*
X322Y652D01*
X327Y652D02*
X329Y652D01*
X372Y652D02*
X374Y652D01*
X460Y652D02*
X462Y652D01*
X464Y652D02*
X495Y652D01*
X522Y652D02*
X524Y652D01*
X610Y652D02*
X612Y652D01*
X614Y652D02*
X632Y652D01*
X672Y652D02*
X674Y652D01*
X760Y652D02*
X765Y652D01*
X1029Y652D02*
X1036Y652D01*
X0Y651D02*
X7Y651D01*
X233Y651D02*
X235Y651D01*
X320Y651D02*
X322Y651D01*
X328Y651D02*
X330Y651D01*
X372Y651D02*
X374Y651D01*
X460Y651D02*
X462Y651D01*
X464Y651D02*
X495Y651D01*
X522Y651D02*
X524Y651D01*
X610Y651D02*
X612Y651D01*
X614Y651D02*
X631Y651D01*
X672Y651D02*
X674Y651D01*
X760Y651D02*
X764Y651D01*
X1029Y651D02*
X1036Y651D01*
X0Y650D02*
X7Y650D01*
X233Y650D02*
X235Y650D01*
X320Y650D02*
X322Y650D01*
X329Y650D02*
X331Y650D01*
X372Y650D02*
X374Y650D01*
X460Y650D02*
X462Y650D01*
X465Y650D02*
X494Y650D01*
X522Y650D02*
X524Y650D01*
X610Y650D02*
X612Y650D01*
X615Y650D02*
X631Y650D01*
X672Y650D02*
X674Y650D01*
X760Y650D02*
X762Y650D01*
X1029Y650D02*
X1036Y650D01*
X0Y649D02*
X7Y649D01*
X233Y649D02*
X235Y649D01*
X320Y649D02*
X322Y649D01*
X330Y649D02*
X346Y649D01*
X372Y649D02*
X374Y649D01*
X460Y649D02*
X462Y649D01*
X466Y649D02*
X493Y649D01*
X522Y649D02*
X524Y649D01*
X610Y649D02*
X612Y649D01*
X615Y649D02*
X630Y649D01*
X672Y649D02*
X674Y649D01*
X760Y649D02*
X762Y649D01*
X1029Y649D02*
X1036Y649D01*
X0Y648D02*
X7Y648D01*
X233Y648D02*
X235Y648D01*
X320Y648D02*
X322Y648D01*
X327Y648D02*
X346Y648D01*
X372Y648D02*
X374Y648D01*
X460Y648D02*
X462Y648D01*
X522Y648D02*
X524Y648D01*
X610Y648D02*
X612Y648D01*
X617Y648D02*
X628Y648D01*
X672Y648D02*
X674Y648D01*
X760Y648D02*
X762Y648D01*
X1029Y648D02*
X1036Y648D01*
X0Y647D02*
X7Y647D01*
X233Y647D02*
X235Y647D01*
X320Y647D02*
X322Y647D01*
X326Y647D02*
X346Y647D01*
X372Y647D02*
X374Y647D01*
X460Y647D02*
X462Y647D01*
X522Y647D02*
X524Y647D01*
X610Y647D02*
X612Y647D01*
X672Y647D02*
X674Y647D01*
X760Y647D02*
X762Y647D01*
X1029Y647D02*
X1036Y647D01*
X0Y646D02*
X7Y646D01*
X233Y646D02*
X235Y646D01*
X320Y646D02*
X322Y646D01*
X326Y646D02*
X346Y646D01*
X372Y646D02*
X374Y646D01*
X460Y646D02*
X462Y646D01*
X522Y646D02*
X524Y646D01*
X610Y646D02*
X612Y646D01*
X672Y646D02*
X674Y646D01*
X760Y646D02*
X762Y646D01*
X1029Y646D02*
X1036Y646D01*
X0Y645D02*
X7Y645D01*
X233Y645D02*
X235Y645D01*
X320Y645D02*
X322Y645D01*
X326Y645D02*
X328Y645D01*
X372Y645D02*
X374Y645D01*
X460Y645D02*
X462Y645D01*
X522Y645D02*
X524Y645D01*
X610Y645D02*
X612Y645D01*
X672Y645D02*
X674Y645D01*
X760Y645D02*
X762Y645D01*
X1029Y645D02*
X1036Y645D01*
X0Y644D02*
X7Y644D01*
X233Y644D02*
X235Y644D01*
X320Y644D02*
X322Y644D01*
X326Y644D02*
X328Y644D01*
X372Y644D02*
X374Y644D01*
X460Y644D02*
X462Y644D01*
X522Y644D02*
X524Y644D01*
X610Y644D02*
X612Y644D01*
X672Y644D02*
X674Y644D01*
X760Y644D02*
X764Y644D01*
X774Y644D02*
X778Y644D01*
X1029Y644D02*
X1036Y644D01*
X0Y643D02*
X7Y643D01*
X233Y643D02*
X235Y643D01*
X320Y643D02*
X322Y643D01*
X372Y643D02*
X374Y643D01*
X460Y643D02*
X462Y643D01*
X522Y643D02*
X524Y643D01*
X610Y643D02*
X612Y643D01*
X672Y643D02*
X674Y643D01*
X760Y643D02*
X764Y643D01*
X771Y643D02*
X782Y643D01*
X1029Y643D02*
X1036Y643D01*
X0Y642D02*
X7Y642D01*
X233Y642D02*
X235Y642D01*
X320Y642D02*
X322Y642D01*
X372Y642D02*
X374Y642D01*
X460Y642D02*
X462Y642D01*
X522Y642D02*
X524Y642D01*
X610Y642D02*
X612Y642D01*
X672Y642D02*
X674Y642D01*
X760Y642D02*
X764Y642D01*
X768Y642D02*
X784Y642D01*
X1029Y642D02*
X1036Y642D01*
X0Y641D02*
X7Y641D01*
X233Y641D02*
X235Y641D01*
X320Y641D02*
X322Y641D01*
X372Y641D02*
X374Y641D01*
X460Y641D02*
X462Y641D01*
X464Y641D02*
X466Y641D01*
X474Y641D02*
X482Y641D01*
X522Y641D02*
X524Y641D01*
X610Y641D02*
X612Y641D01*
X672Y641D02*
X674Y641D01*
X760Y641D02*
X764Y641D01*
X767Y641D02*
X785Y641D01*
X1029Y641D02*
X1036Y641D01*
X0Y640D02*
X7Y640D01*
X233Y640D02*
X235Y640D01*
X320Y640D02*
X322Y640D01*
X372Y640D02*
X374Y640D01*
X460Y640D02*
X462Y640D01*
X464Y640D02*
X466Y640D01*
X471Y640D02*
X485Y640D01*
X522Y640D02*
X524Y640D01*
X610Y640D02*
X612Y640D01*
X672Y640D02*
X674Y640D01*
X760Y640D02*
X764Y640D01*
X766Y640D02*
X771Y640D01*
X781Y640D02*
X786Y640D01*
X1029Y640D02*
X1036Y640D01*
X0Y639D02*
X7Y639D01*
X233Y639D02*
X235Y639D01*
X320Y639D02*
X322Y639D01*
X372Y639D02*
X374Y639D01*
X460Y639D02*
X462Y639D01*
X464Y639D02*
X466Y639D01*
X470Y639D02*
X486Y639D01*
X522Y639D02*
X524Y639D01*
X610Y639D02*
X612Y639D01*
X672Y639D02*
X674Y639D01*
X760Y639D02*
X768Y639D01*
X783Y639D02*
X787Y639D01*
X1029Y639D02*
X1036Y639D01*
X0Y638D02*
X7Y638D01*
X233Y638D02*
X235Y638D01*
X320Y638D02*
X322Y638D01*
X372Y638D02*
X374Y638D01*
X460Y638D02*
X462Y638D01*
X464Y638D02*
X466Y638D01*
X468Y638D02*
X488Y638D01*
X522Y638D02*
X524Y638D01*
X610Y638D02*
X612Y638D01*
X615Y638D02*
X645Y638D01*
X672Y638D02*
X674Y638D01*
X760Y638D02*
X766Y638D01*
X785Y638D02*
X788Y638D01*
X1029Y638D02*
X1036Y638D01*
X0Y637D02*
X7Y637D01*
X233Y637D02*
X235Y637D01*
X320Y637D02*
X322Y637D01*
X372Y637D02*
X374Y637D01*
X460Y637D02*
X462Y637D01*
X464Y637D02*
X472Y637D01*
X484Y637D02*
X489Y637D01*
X522Y637D02*
X524Y637D01*
X610Y637D02*
X612Y637D01*
X614Y637D02*
X645Y637D01*
X672Y637D02*
X674Y637D01*
X760Y637D02*
X765Y637D01*
X786Y637D02*
X788Y637D01*
X1029Y637D02*
X1036Y637D01*
X0Y636D02*
X7Y636D01*
X233Y636D02*
X235Y636D01*
X320Y636D02*
X322Y636D01*
X327Y636D02*
X358Y636D01*
X372Y636D02*
X374Y636D01*
X460Y636D02*
X462Y636D01*
X464Y636D02*
X469Y636D01*
X486Y636D02*
X489Y636D01*
X522Y636D02*
X524Y636D01*
X610Y636D02*
X612Y636D01*
X614Y636D02*
X645Y636D01*
X672Y636D02*
X674Y636D01*
X760Y636D02*
X764Y636D01*
X786Y636D02*
X789Y636D01*
X1029Y636D02*
X1036Y636D01*
X0Y635D02*
X7Y635D01*
X233Y635D02*
X235Y635D01*
X320Y635D02*
X322Y635D01*
X327Y635D02*
X358Y635D01*
X372Y635D02*
X374Y635D01*
X460Y635D02*
X462Y635D01*
X464Y635D02*
X468Y635D01*
X487Y635D02*
X490Y635D01*
X522Y635D02*
X524Y635D01*
X610Y635D02*
X612Y635D01*
X614Y635D02*
X645Y635D01*
X672Y635D02*
X674Y635D01*
X760Y635D02*
X762Y635D01*
X787Y635D02*
X789Y635D01*
X1029Y635D02*
X1036Y635D01*
X0Y634D02*
X7Y634D01*
X233Y634D02*
X235Y634D01*
X320Y634D02*
X322Y634D01*
X327Y634D02*
X358Y634D01*
X372Y634D02*
X374Y634D01*
X460Y634D02*
X462Y634D01*
X464Y634D02*
X466Y634D01*
X488Y634D02*
X490Y634D01*
X522Y634D02*
X524Y634D01*
X610Y634D02*
X612Y634D01*
X622Y634D02*
X627Y634D01*
X672Y634D02*
X674Y634D01*
X760Y634D02*
X762Y634D01*
X787Y634D02*
X789Y634D01*
X1029Y634D02*
X1036Y634D01*
X0Y633D02*
X7Y633D01*
X233Y633D02*
X235Y633D01*
X320Y633D02*
X322Y633D01*
X328Y633D02*
X358Y633D01*
X372Y633D02*
X374Y633D01*
X460Y633D02*
X462Y633D01*
X488Y633D02*
X490Y633D01*
X522Y633D02*
X524Y633D01*
X610Y633D02*
X612Y633D01*
X623Y633D02*
X628Y633D01*
X672Y633D02*
X674Y633D01*
X760Y633D02*
X762Y633D01*
X787Y633D02*
X789Y633D01*
X1029Y633D02*
X1036Y633D01*
X0Y632D02*
X7Y632D01*
X233Y632D02*
X235Y632D01*
X320Y632D02*
X322Y632D01*
X344Y632D02*
X347Y632D01*
X355Y632D02*
X358Y632D01*
X372Y632D02*
X374Y632D01*
X460Y632D02*
X462Y632D01*
X489Y632D02*
X491Y632D01*
X522Y632D02*
X524Y632D01*
X610Y632D02*
X612Y632D01*
X624Y632D02*
X629Y632D01*
X672Y632D02*
X674Y632D01*
X760Y632D02*
X762Y632D01*
X787Y632D02*
X789Y632D01*
X1029Y632D02*
X1036Y632D01*
X0Y631D02*
X7Y631D01*
X233Y631D02*
X235Y631D01*
X320Y631D02*
X322Y631D01*
X344Y631D02*
X347Y631D01*
X355Y631D02*
X358Y631D01*
X372Y631D02*
X374Y631D01*
X460Y631D02*
X462Y631D01*
X489Y631D02*
X491Y631D01*
X522Y631D02*
X524Y631D01*
X610Y631D02*
X612Y631D01*
X623Y631D02*
X629Y631D01*
X672Y631D02*
X674Y631D01*
X760Y631D02*
X764Y631D01*
X786Y631D02*
X788Y631D01*
X1029Y631D02*
X1036Y631D01*
X0Y630D02*
X7Y630D01*
X233Y630D02*
X235Y630D01*
X320Y630D02*
X322Y630D01*
X344Y630D02*
X347Y630D01*
X355Y630D02*
X358Y630D01*
X372Y630D02*
X374Y630D01*
X460Y630D02*
X462Y630D01*
X489Y630D02*
X491Y630D01*
X522Y630D02*
X524Y630D01*
X610Y630D02*
X612Y630D01*
X622Y630D02*
X630Y630D01*
X672Y630D02*
X674Y630D01*
X760Y630D02*
X765Y630D01*
X785Y630D02*
X788Y630D01*
X1029Y630D02*
X1036Y630D01*
X0Y629D02*
X7Y629D01*
X233Y629D02*
X235Y629D01*
X320Y629D02*
X322Y629D01*
X344Y629D02*
X347Y629D01*
X355Y629D02*
X358Y629D01*
X372Y629D02*
X374Y629D01*
X460Y629D02*
X462Y629D01*
X488Y629D02*
X490Y629D01*
X522Y629D02*
X524Y629D01*
X610Y629D02*
X612Y629D01*
X621Y629D02*
X631Y629D01*
X672Y629D02*
X674Y629D01*
X760Y629D02*
X767Y629D01*
X784Y629D02*
X788Y629D01*
X1029Y629D02*
X1036Y629D01*
X0Y628D02*
X7Y628D01*
X233Y628D02*
X235Y628D01*
X320Y628D02*
X322Y628D01*
X344Y628D02*
X347Y628D01*
X355Y628D02*
X358Y628D01*
X372Y628D02*
X374Y628D01*
X460Y628D02*
X462Y628D01*
X464Y628D02*
X466Y628D01*
X488Y628D02*
X490Y628D01*
X522Y628D02*
X524Y628D01*
X610Y628D02*
X612Y628D01*
X620Y628D02*
X625Y628D01*
X627Y628D02*
X632Y628D01*
X672Y628D02*
X674Y628D01*
X760Y628D02*
X769Y628D01*
X783Y628D02*
X787Y628D01*
X1029Y628D02*
X1036Y628D01*
X0Y627D02*
X7Y627D01*
X233Y627D02*
X235Y627D01*
X320Y627D02*
X322Y627D01*
X344Y627D02*
X347Y627D01*
X355Y627D02*
X358Y627D01*
X372Y627D02*
X374Y627D01*
X460Y627D02*
X462Y627D01*
X464Y627D02*
X468Y627D01*
X487Y627D02*
X490Y627D01*
X522Y627D02*
X524Y627D01*
X610Y627D02*
X612Y627D01*
X619Y627D02*
X624Y627D01*
X628Y627D02*
X633Y627D01*
X672Y627D02*
X674Y627D01*
X760Y627D02*
X764Y627D01*
X766Y627D02*
X773Y627D01*
X779Y627D02*
X786Y627D01*
X1029Y627D02*
X1036Y627D01*
X0Y626D02*
X7Y626D01*
X233Y626D02*
X235Y626D01*
X320Y626D02*
X322Y626D01*
X344Y626D02*
X347Y626D01*
X355Y626D02*
X358Y626D01*
X372Y626D02*
X374Y626D01*
X460Y626D02*
X462Y626D01*
X464Y626D02*
X469Y626D01*
X486Y626D02*
X489Y626D01*
X522Y626D02*
X524Y626D01*
X610Y626D02*
X612Y626D01*
X619Y626D02*
X623Y626D01*
X629Y626D02*
X634Y626D01*
X672Y626D02*
X674Y626D01*
X760Y626D02*
X764Y626D01*
X767Y626D02*
X785Y626D01*
X1029Y626D02*
X1036Y626D01*
X0Y625D02*
X7Y625D01*
X233Y625D02*
X235Y625D01*
X320Y625D02*
X322Y625D01*
X344Y625D02*
X347Y625D01*
X355Y625D02*
X358Y625D01*
X372Y625D02*
X374Y625D01*
X460Y625D02*
X462Y625D01*
X464Y625D02*
X472Y625D01*
X484Y625D02*
X489Y625D01*
X522Y625D02*
X524Y625D01*
X610Y625D02*
X612Y625D01*
X618Y625D02*
X622Y625D01*
X630Y625D02*
X635Y625D01*
X672Y625D02*
X674Y625D01*
X760Y625D02*
X764Y625D01*
X769Y625D02*
X784Y625D01*
X1029Y625D02*
X1036Y625D01*
X0Y624D02*
X7Y624D01*
X233Y624D02*
X322Y624D01*
X344Y624D02*
X347Y624D01*
X355Y624D02*
X358Y624D01*
X372Y624D02*
X462Y624D01*
X464Y624D02*
X466Y624D01*
X468Y624D02*
X488Y624D01*
X522Y624D02*
X612Y624D01*
X617Y624D02*
X621Y624D01*
X631Y624D02*
X635Y624D01*
X672Y624D02*
X764Y624D01*
X772Y624D02*
X781Y624D01*
X1029Y624D02*
X1036Y624D01*
X0Y623D02*
X7Y623D01*
X233Y623D02*
X322Y623D01*
X344Y623D02*
X347Y623D01*
X355Y623D02*
X358Y623D01*
X372Y623D02*
X462Y623D01*
X464Y623D02*
X466Y623D01*
X470Y623D02*
X486Y623D01*
X522Y623D02*
X612Y623D01*
X616Y623D02*
X621Y623D01*
X632Y623D02*
X636Y623D01*
X672Y623D02*
X764Y623D01*
X1029Y623D02*
X1036Y623D01*
X0Y622D02*
X7Y622D01*
X233Y622D02*
X322Y622D01*
X344Y622D02*
X347Y622D01*
X355Y622D02*
X358Y622D01*
X373Y622D02*
X461Y622D01*
X464Y622D02*
X466Y622D01*
X471Y622D02*
X485Y622D01*
X522Y622D02*
X612Y622D01*
X615Y622D02*
X620Y622D01*
X633Y622D02*
X637Y622D01*
X673Y622D02*
X761Y622D01*
X1029Y622D02*
X1036Y622D01*
X0Y621D02*
X7Y621D01*
X345Y621D02*
X347Y621D01*
X355Y621D02*
X358Y621D01*
X464Y621D02*
X466Y621D01*
X474Y621D02*
X482Y621D01*
X614Y621D02*
X619Y621D01*
X633Y621D02*
X636Y621D01*
X1029Y621D02*
X1036Y621D01*
X0Y620D02*
X7Y620D01*
X355Y620D02*
X358Y620D01*
X614Y620D02*
X618Y620D01*
X635Y620D02*
X635Y620D01*
X1029Y620D02*
X1036Y620D01*
X0Y619D02*
X7Y619D01*
X355Y619D02*
X358Y619D01*
X614Y619D02*
X617Y619D01*
X1029Y619D02*
X1036Y619D01*
X0Y618D02*
X7Y618D01*
X355Y618D02*
X358Y618D01*
X615Y618D02*
X616Y618D01*
X1029Y618D02*
X1036Y618D01*
X0Y617D02*
X7Y617D01*
X355Y617D02*
X358Y617D01*
X1029Y617D02*
X1036Y617D01*
X0Y616D02*
X7Y616D01*
X1029Y616D02*
X1036Y616D01*
X0Y615D02*
X7Y615D01*
X1029Y615D02*
X1036Y615D01*
X0Y614D02*
X7Y614D01*
X1029Y614D02*
X1036Y614D01*
X0Y613D02*
X7Y613D01*
X1029Y613D02*
X1036Y613D01*
X0Y612D02*
X7Y612D01*
X1029Y612D02*
X1036Y612D01*
X0Y611D02*
X7Y611D01*
X614Y611D02*
X616Y611D01*
X627Y611D02*
X628Y611D01*
X1029Y611D02*
X1036Y611D01*
X0Y610D02*
X7Y610D01*
X614Y610D02*
X616Y610D01*
X623Y610D02*
X634Y610D01*
X1029Y610D02*
X1036Y610D01*
X0Y609D02*
X7Y609D01*
X614Y609D02*
X616Y609D01*
X620Y609D02*
X636Y609D01*
X1029Y609D02*
X1036Y609D01*
X0Y608D02*
X7Y608D01*
X614Y608D02*
X616Y608D01*
X619Y608D02*
X637Y608D01*
X1029Y608D02*
X1036Y608D01*
X0Y607D02*
X7Y607D01*
X614Y607D02*
X616Y607D01*
X618Y607D02*
X623Y607D01*
X632Y607D02*
X638Y607D01*
X1029Y607D02*
X1036Y607D01*
X0Y606D02*
X7Y606D01*
X614Y606D02*
X620Y606D01*
X635Y606D02*
X639Y606D01*
X1029Y606D02*
X1036Y606D01*
X0Y605D02*
X7Y605D01*
X614Y605D02*
X618Y605D01*
X637Y605D02*
X640Y605D01*
X1029Y605D02*
X1036Y605D01*
X0Y604D02*
X7Y604D01*
X614Y604D02*
X617Y604D01*
X638Y604D02*
X640Y604D01*
X1029Y604D02*
X1036Y604D01*
X0Y603D02*
X7Y603D01*
X614Y603D02*
X616Y603D01*
X638Y603D02*
X640Y603D01*
X1029Y603D02*
X1036Y603D01*
X0Y602D02*
X7Y602D01*
X638Y602D02*
X641Y602D01*
X1029Y602D02*
X1036Y602D01*
X0Y601D02*
X7Y601D01*
X639Y601D02*
X641Y601D01*
X1029Y601D02*
X1036Y601D01*
X0Y600D02*
X7Y600D01*
X639Y600D02*
X641Y600D01*
X1029Y600D02*
X1036Y600D01*
X0Y599D02*
X7Y599D01*
X638Y599D02*
X641Y599D01*
X1029Y599D02*
X1036Y599D01*
X0Y598D02*
X7Y598D01*
X614Y598D02*
X616Y598D01*
X638Y598D02*
X640Y598D01*
X1029Y598D02*
X1036Y598D01*
X0Y597D02*
X7Y597D01*
X614Y597D02*
X617Y597D01*
X637Y597D02*
X640Y597D01*
X1029Y597D02*
X1036Y597D01*
X0Y596D02*
X7Y596D01*
X614Y596D02*
X619Y596D01*
X636Y596D02*
X640Y596D01*
X1029Y596D02*
X1036Y596D01*
X0Y595D02*
X7Y595D01*
X614Y595D02*
X620Y595D01*
X635Y595D02*
X639Y595D01*
X1029Y595D02*
X1036Y595D01*
X0Y594D02*
X7Y594D01*
X614Y594D02*
X616Y594D01*
X618Y594D02*
X624Y594D01*
X632Y594D02*
X638Y594D01*
X1029Y594D02*
X1036Y594D01*
X0Y593D02*
X7Y593D01*
X614Y593D02*
X616Y593D01*
X619Y593D02*
X637Y593D01*
X1029Y593D02*
X1036Y593D01*
X0Y592D02*
X7Y592D01*
X614Y592D02*
X616Y592D01*
X621Y592D02*
X636Y592D01*
X1029Y592D02*
X1036Y592D01*
X0Y591D02*
X7Y591D01*
X614Y591D02*
X616Y591D01*
X623Y591D02*
X633Y591D01*
X1029Y591D02*
X1036Y591D01*
X0Y590D02*
X7Y590D01*
X614Y590D02*
X616Y590D01*
X1029Y590D02*
X1036Y590D01*
X0Y589D02*
X7Y589D01*
X1029Y589D02*
X1036Y589D01*
X0Y588D02*
X7Y588D01*
X1029Y588D02*
X1036Y588D01*
X0Y587D02*
X7Y587D01*
X1029Y587D02*
X1036Y587D01*
X0Y586D02*
X7Y586D01*
X763Y586D02*
X764Y586D01*
X791Y586D02*
X793Y586D01*
X1029Y586D02*
X1036Y586D01*
X0Y585D02*
X7Y585D01*
X762Y585D02*
X765Y585D01*
X790Y585D02*
X793Y585D01*
X1029Y585D02*
X1036Y585D01*
X0Y584D02*
X7Y584D01*
X762Y584D02*
X765Y584D01*
X790Y584D02*
X794Y584D01*
X1029Y584D02*
X1036Y584D01*
X0Y583D02*
X7Y583D01*
X464Y583D02*
X466Y583D01*
X493Y583D02*
X495Y583D01*
X762Y583D02*
X765Y583D01*
X790Y583D02*
X794Y583D01*
X1029Y583D02*
X1036Y583D01*
X0Y582D02*
X7Y582D01*
X464Y582D02*
X467Y582D01*
X492Y582D02*
X495Y582D01*
X762Y582D02*
X765Y582D01*
X790Y582D02*
X794Y582D01*
X1029Y582D02*
X1036Y582D01*
X0Y581D02*
X7Y581D01*
X464Y581D02*
X467Y581D01*
X492Y581D02*
X495Y581D01*
X762Y581D02*
X765Y581D01*
X790Y581D02*
X794Y581D01*
X1029Y581D02*
X1036Y581D01*
X0Y580D02*
X7Y580D01*
X464Y580D02*
X467Y580D01*
X492Y580D02*
X495Y580D01*
X762Y580D02*
X765Y580D01*
X790Y580D02*
X794Y580D01*
X1029Y580D02*
X1036Y580D01*
X0Y579D02*
X7Y579D01*
X464Y579D02*
X467Y579D01*
X492Y579D02*
X495Y579D01*
X762Y579D02*
X765Y579D01*
X790Y579D02*
X794Y579D01*
X1029Y579D02*
X1036Y579D01*
X0Y578D02*
X7Y578D01*
X464Y578D02*
X467Y578D01*
X492Y578D02*
X495Y578D01*
X762Y578D02*
X794Y578D01*
X1029Y578D02*
X1036Y578D01*
X0Y577D02*
X7Y577D01*
X464Y577D02*
X467Y577D01*
X492Y577D02*
X495Y577D01*
X762Y577D02*
X794Y577D01*
X1029Y577D02*
X1036Y577D01*
X0Y576D02*
X7Y576D01*
X464Y576D02*
X467Y576D01*
X492Y576D02*
X495Y576D01*
X762Y576D02*
X794Y576D01*
X1029Y576D02*
X1036Y576D01*
X0Y575D02*
X7Y575D01*
X464Y575D02*
X495Y575D01*
X762Y575D02*
X794Y575D01*
X1029Y575D02*
X1036Y575D01*
X0Y574D02*
X7Y574D01*
X464Y574D02*
X495Y574D01*
X762Y574D02*
X793Y574D01*
X1029Y574D02*
X1036Y574D01*
X0Y573D02*
X7Y573D01*
X464Y573D02*
X495Y573D01*
X762Y573D02*
X765Y573D01*
X1029Y573D02*
X1036Y573D01*
X0Y572D02*
X7Y572D01*
X464Y572D02*
X495Y572D01*
X762Y572D02*
X765Y572D01*
X1029Y572D02*
X1036Y572D01*
X0Y571D02*
X7Y571D01*
X464Y571D02*
X467Y571D01*
X762Y571D02*
X765Y571D01*
X1029Y571D02*
X1036Y571D01*
X0Y570D02*
X7Y570D01*
X464Y570D02*
X467Y570D01*
X762Y570D02*
X766Y570D01*
X1029Y570D02*
X1036Y570D01*
X0Y569D02*
X7Y569D01*
X464Y569D02*
X467Y569D01*
X762Y569D02*
X775Y569D01*
X1029Y569D02*
X1036Y569D01*
X0Y568D02*
X7Y568D01*
X464Y568D02*
X467Y568D01*
X762Y568D02*
X776Y568D01*
X1029Y568D02*
X1036Y568D01*
X0Y567D02*
X7Y567D01*
X464Y567D02*
X476Y567D01*
X762Y567D02*
X776Y567D01*
X1029Y567D02*
X1036Y567D01*
X0Y566D02*
X7Y566D01*
X464Y566D02*
X477Y566D01*
X763Y566D02*
X775Y566D01*
X1029Y566D02*
X1036Y566D01*
X0Y565D02*
X7Y565D01*
X464Y565D02*
X478Y565D01*
X1029Y565D02*
X1036Y565D01*
X0Y564D02*
X7Y564D01*
X464Y564D02*
X477Y564D01*
X1029Y564D02*
X1036Y564D01*
X0Y563D02*
X7Y563D01*
X466Y563D02*
X476Y563D01*
X1029Y563D02*
X1036Y563D01*
X0Y562D02*
X7Y562D01*
X1029Y562D02*
X1036Y562D01*
X0Y561D02*
X7Y561D01*
X1029Y561D02*
X1036Y561D01*
X0Y560D02*
X7Y560D01*
X1029Y560D02*
X1036Y560D01*
X0Y559D02*
X7Y559D01*
X1029Y559D02*
X1036Y559D01*
X0Y558D02*
X7Y558D01*
X1029Y558D02*
X1036Y558D01*
X0Y557D02*
X7Y557D01*
X1029Y557D02*
X1036Y557D01*
X0Y556D02*
X7Y556D01*
X767Y556D02*
X768Y556D01*
X788Y556D02*
X792Y556D01*
X1029Y556D02*
X1036Y556D01*
X0Y555D02*
X7Y555D01*
X766Y555D02*
X769Y555D01*
X787Y555D02*
X793Y555D01*
X1029Y555D02*
X1036Y555D01*
X0Y554D02*
X7Y554D01*
X766Y554D02*
X770Y554D01*
X787Y554D02*
X794Y554D01*
X1029Y554D02*
X1036Y554D01*
X0Y553D02*
X7Y553D01*
X468Y553D02*
X470Y553D01*
X489Y553D02*
X495Y553D01*
X615Y553D02*
X616Y553D01*
X643Y553D02*
X644Y553D01*
X766Y553D02*
X772Y553D01*
X787Y553D02*
X794Y553D01*
X1029Y553D02*
X1036Y553D01*
X0Y552D02*
X7Y552D01*
X468Y552D02*
X471Y552D01*
X489Y552D02*
X495Y552D01*
X614Y552D02*
X617Y552D01*
X642Y552D02*
X645Y552D01*
X767Y552D02*
X773Y552D01*
X787Y552D02*
X794Y552D01*
X1029Y552D02*
X1036Y552D01*
X0Y551D02*
X7Y551D01*
X468Y551D02*
X473Y551D01*
X489Y551D02*
X495Y551D01*
X614Y551D02*
X617Y551D01*
X642Y551D02*
X645Y551D01*
X768Y551D02*
X774Y551D01*
X787Y551D02*
X794Y551D01*
X1029Y551D02*
X1036Y551D01*
X0Y550D02*
X7Y550D01*
X468Y550D02*
X474Y550D01*
X489Y550D02*
X495Y550D01*
X614Y550D02*
X617Y550D01*
X642Y550D02*
X645Y550D01*
X770Y550D02*
X775Y550D01*
X787Y550D02*
X794Y550D01*
X1029Y550D02*
X1036Y550D01*
X0Y549D02*
X7Y549D01*
X469Y549D02*
X475Y549D01*
X489Y549D02*
X495Y549D01*
X614Y549D02*
X617Y549D01*
X642Y549D02*
X645Y549D01*
X771Y549D02*
X777Y549D01*
X787Y549D02*
X793Y549D01*
X1029Y549D02*
X1036Y549D01*
X0Y548D02*
X7Y548D01*
X471Y548D02*
X477Y548D01*
X489Y548D02*
X495Y548D01*
X614Y548D02*
X617Y548D01*
X642Y548D02*
X645Y548D01*
X772Y548D02*
X778Y548D01*
X789Y548D02*
X792Y548D01*
X1029Y548D02*
X1036Y548D01*
X0Y547D02*
X7Y547D01*
X472Y547D02*
X478Y547D01*
X489Y547D02*
X495Y547D01*
X614Y547D02*
X617Y547D01*
X642Y547D02*
X645Y547D01*
X773Y547D02*
X779Y547D01*
X1029Y547D02*
X1036Y547D01*
X0Y546D02*
X7Y546D01*
X473Y546D02*
X479Y546D01*
X489Y546D02*
X495Y546D01*
X614Y546D02*
X617Y546D01*
X642Y546D02*
X645Y546D01*
X775Y546D02*
X781Y546D01*
X1029Y546D02*
X1036Y546D01*
X0Y545D02*
X7Y545D01*
X474Y545D02*
X480Y545D01*
X614Y545D02*
X645Y545D01*
X776Y545D02*
X782Y545D01*
X1029Y545D02*
X1036Y545D01*
X0Y544D02*
X7Y544D01*
X476Y544D02*
X482Y544D01*
X614Y544D02*
X645Y544D01*
X777Y544D02*
X783Y544D01*
X1029Y544D02*
X1036Y544D01*
X0Y543D02*
X7Y543D01*
X477Y543D02*
X483Y543D01*
X614Y543D02*
X645Y543D01*
X762Y543D02*
X768Y543D01*
X779Y543D02*
X784Y543D01*
X1029Y543D02*
X1036Y543D01*
X0Y542D02*
X7Y542D01*
X478Y542D02*
X484Y542D01*
X614Y542D02*
X645Y542D01*
X762Y542D02*
X769Y542D01*
X780Y542D02*
X786Y542D01*
X1029Y542D02*
X1036Y542D01*
X0Y541D02*
X7Y541D01*
X465Y541D02*
X469Y541D01*
X480Y541D02*
X486Y541D01*
X614Y541D02*
X645Y541D01*
X762Y541D02*
X769Y541D01*
X781Y541D02*
X787Y541D01*
X1029Y541D02*
X1036Y541D01*
X0Y540D02*
X7Y540D01*
X464Y540D02*
X470Y540D01*
X481Y540D02*
X487Y540D01*
X614Y540D02*
X617Y540D01*
X762Y540D02*
X769Y540D01*
X782Y540D02*
X788Y540D01*
X1029Y540D02*
X1036Y540D01*
X0Y539D02*
X7Y539D01*
X464Y539D02*
X471Y539D01*
X482Y539D02*
X488Y539D01*
X614Y539D02*
X617Y539D01*
X762Y539D02*
X769Y539D01*
X784Y539D02*
X789Y539D01*
X1029Y539D02*
X1036Y539D01*
X0Y538D02*
X7Y538D01*
X464Y538D02*
X471Y538D01*
X483Y538D02*
X489Y538D01*
X614Y538D02*
X617Y538D01*
X762Y538D02*
X769Y538D01*
X785Y538D02*
X790Y538D01*
X1029Y538D02*
X1036Y538D01*
X0Y537D02*
X7Y537D01*
X464Y537D02*
X471Y537D01*
X485Y537D02*
X491Y537D01*
X614Y537D02*
X617Y537D01*
X762Y537D02*
X769Y537D01*
X786Y537D02*
X790Y537D01*
X1029Y537D02*
X1036Y537D01*
X0Y536D02*
X7Y536D01*
X464Y536D02*
X471Y536D01*
X486Y536D02*
X492Y536D01*
X614Y536D02*
X627Y536D01*
X763Y536D02*
X768Y536D01*
X788Y536D02*
X789Y536D01*
X1029Y536D02*
X1036Y536D01*
X0Y535D02*
X7Y535D01*
X464Y535D02*
X471Y535D01*
X487Y535D02*
X492Y535D01*
X614Y535D02*
X628Y535D01*
X1029Y535D02*
X1036Y535D01*
X0Y534D02*
X7Y534D01*
X464Y534D02*
X470Y534D01*
X489Y534D02*
X492Y534D01*
X614Y534D02*
X628Y534D01*
X1029Y534D02*
X1036Y534D01*
X0Y533D02*
X7Y533D01*
X465Y533D02*
X469Y533D01*
X490Y533D02*
X490Y533D01*
X615Y533D02*
X627Y533D01*
X1029Y533D02*
X1036Y533D01*
X0Y532D02*
X7Y532D01*
X1029Y532D02*
X1036Y532D01*
X0Y531D02*
X7Y531D01*
X1029Y531D02*
X1036Y531D01*
X0Y530D02*
X7Y530D01*
X1029Y530D02*
X1036Y530D01*
X0Y529D02*
X7Y529D01*
X1029Y529D02*
X1036Y529D01*
X0Y528D02*
X7Y528D01*
X1029Y528D02*
X1036Y528D01*
X0Y527D02*
X7Y527D01*
X1029Y527D02*
X1036Y527D01*
X0Y526D02*
X7Y526D01*
X1029Y526D02*
X1036Y526D01*
X0Y525D02*
X7Y525D01*
X1029Y525D02*
X1036Y525D01*
X0Y524D02*
X7Y524D01*
X1029Y524D02*
X1036Y524D01*
X0Y523D02*
X7Y523D01*
X619Y523D02*
X619Y523D01*
X640Y523D02*
X644Y523D01*
X1029Y523D02*
X1036Y523D01*
X0Y522D02*
X7Y522D01*
X618Y522D02*
X621Y522D01*
X639Y522D02*
X645Y522D01*
X1029Y522D02*
X1036Y522D01*
X0Y521D02*
X7Y521D01*
X618Y521D02*
X622Y521D01*
X639Y521D02*
X645Y521D01*
X1029Y521D02*
X1036Y521D01*
X0Y520D02*
X7Y520D01*
X618Y520D02*
X623Y520D01*
X639Y520D02*
X645Y520D01*
X1029Y520D02*
X1036Y520D01*
X0Y519D02*
X7Y519D01*
X619Y519D02*
X625Y519D01*
X639Y519D02*
X645Y519D01*
X1029Y519D02*
X1036Y519D01*
X0Y518D02*
X7Y518D01*
X620Y518D02*
X626Y518D01*
X639Y518D02*
X645Y518D01*
X1029Y518D02*
X1036Y518D01*
X0Y517D02*
X7Y517D01*
X621Y517D02*
X627Y517D01*
X639Y517D02*
X645Y517D01*
X1029Y517D02*
X1036Y517D01*
X0Y516D02*
X7Y516D01*
X623Y516D02*
X629Y516D01*
X639Y516D02*
X645Y516D01*
X1029Y516D02*
X1036Y516D01*
X0Y515D02*
X7Y515D01*
X624Y515D02*
X630Y515D01*
X640Y515D02*
X644Y515D01*
X1029Y515D02*
X1036Y515D01*
X0Y514D02*
X7Y514D01*
X625Y514D02*
X631Y514D01*
X1029Y514D02*
X1036Y514D01*
X0Y513D02*
X7Y513D01*
X627Y513D02*
X632Y513D01*
X1029Y513D02*
X1036Y513D01*
X0Y512D02*
X7Y512D01*
X628Y512D02*
X634Y512D01*
X1029Y512D02*
X1036Y512D01*
X0Y511D02*
X7Y511D01*
X629Y511D02*
X635Y511D01*
X1029Y511D02*
X1036Y511D01*
X0Y510D02*
X7Y510D01*
X614Y510D02*
X620Y510D01*
X630Y510D02*
X636Y510D01*
X1029Y510D02*
X1036Y510D01*
X0Y509D02*
X7Y509D01*
X614Y509D02*
X621Y509D01*
X632Y509D02*
X638Y509D01*
X1029Y509D02*
X1036Y509D01*
X0Y508D02*
X7Y508D01*
X614Y508D02*
X621Y508D01*
X633Y508D02*
X639Y508D01*
X1029Y508D02*
X1036Y508D01*
X0Y507D02*
X7Y507D01*
X614Y507D02*
X621Y507D01*
X634Y507D02*
X640Y507D01*
X1029Y507D02*
X1036Y507D01*
X0Y506D02*
X7Y506D01*
X614Y506D02*
X621Y506D01*
X636Y506D02*
X641Y506D01*
X1029Y506D02*
X1036Y506D01*
X0Y505D02*
X7Y505D01*
X614Y505D02*
X621Y505D01*
X637Y505D02*
X642Y505D01*
X1029Y505D02*
X1036Y505D01*
X0Y504D02*
X7Y504D01*
X614Y504D02*
X621Y504D01*
X638Y504D02*
X642Y504D01*
X1029Y504D02*
X1036Y504D01*
X0Y503D02*
X7Y503D01*
X615Y503D02*
X620Y503D01*
X639Y503D02*
X641Y503D01*
X1029Y503D02*
X1036Y503D01*
X0Y502D02*
X7Y502D01*
X1029Y502D02*
X1036Y502D01*
X0Y501D02*
X7Y501D01*
X1029Y501D02*
X1036Y501D01*
X0Y500D02*
X7Y500D01*
X1029Y500D02*
X1036Y500D01*
X0Y499D02*
X7Y499D01*
X1029Y499D02*
X1036Y499D01*
X0Y498D02*
X7Y498D01*
X1029Y498D02*
X1036Y498D01*
X0Y497D02*
X7Y497D01*
X1029Y497D02*
X1036Y497D01*
X0Y496D02*
X7Y496D01*
X1029Y496D02*
X1036Y496D01*
X0Y495D02*
X7Y495D01*
X1029Y495D02*
X1036Y495D01*
X0Y494D02*
X7Y494D01*
X1029Y494D02*
X1036Y494D01*
X0Y493D02*
X7Y493D01*
X1029Y493D02*
X1036Y493D01*
X0Y492D02*
X7Y492D01*
X1029Y492D02*
X1036Y492D01*
X0Y491D02*
X7Y491D01*
X1029Y491D02*
X1036Y491D01*
X0Y490D02*
X7Y490D01*
X1029Y490D02*
X1036Y490D01*
X0Y489D02*
X7Y489D01*
X1029Y489D02*
X1036Y489D01*
X0Y488D02*
X7Y488D01*
X1029Y488D02*
X1036Y488D01*
X0Y487D02*
X7Y487D01*
X1029Y487D02*
X1036Y487D01*
X0Y486D02*
X7Y486D01*
X1029Y486D02*
X1036Y486D01*
X0Y485D02*
X7Y485D01*
X1029Y485D02*
X1036Y485D01*
X0Y484D02*
X7Y484D01*
X1029Y484D02*
X1036Y484D01*
X0Y483D02*
X7Y483D01*
X1029Y483D02*
X1036Y483D01*
X0Y482D02*
X7Y482D01*
X1029Y482D02*
X1036Y482D01*
X0Y481D02*
X7Y481D01*
X1029Y481D02*
X1036Y481D01*
X0Y480D02*
X7Y480D01*
X1029Y480D02*
X1036Y480D01*
X0Y479D02*
X7Y479D01*
X1029Y479D02*
X1036Y479D01*
X0Y478D02*
X7Y478D01*
X1029Y478D02*
X1036Y478D01*
X0Y477D02*
X7Y477D01*
X1029Y477D02*
X1036Y477D01*
X0Y476D02*
X7Y476D01*
X1029Y476D02*
X1036Y476D01*
X0Y475D02*
X7Y475D01*
X1029Y475D02*
X1036Y475D01*
X0Y474D02*
X7Y474D01*
X1029Y474D02*
X1036Y474D01*
X0Y473D02*
X7Y473D01*
X1029Y473D02*
X1036Y473D01*
X0Y472D02*
X7Y472D01*
X1029Y472D02*
X1036Y472D01*
X0Y471D02*
X7Y471D01*
X1029Y471D02*
X1036Y471D01*
X0Y470D02*
X7Y470D01*
X1029Y470D02*
X1036Y470D01*
X0Y469D02*
X7Y469D01*
X1029Y469D02*
X1036Y469D01*
X0Y468D02*
X7Y468D01*
X1029Y468D02*
X1036Y468D01*
X0Y467D02*
X7Y467D01*
X1029Y467D02*
X1036Y467D01*
X0Y466D02*
X7Y466D01*
X1029Y466D02*
X1036Y466D01*
X0Y465D02*
X7Y465D01*
X1029Y465D02*
X1036Y465D01*
X0Y464D02*
X7Y464D01*
X1029Y464D02*
X1036Y464D01*
X0Y463D02*
X7Y463D01*
X1029Y463D02*
X1036Y463D01*
X0Y462D02*
X7Y462D01*
X1029Y462D02*
X1036Y462D01*
X0Y461D02*
X7Y461D01*
X1029Y461D02*
X1036Y461D01*
X0Y460D02*
X7Y460D01*
X1029Y460D02*
X1036Y460D01*
X0Y459D02*
X7Y459D01*
X1029Y459D02*
X1036Y459D01*
X0Y458D02*
X7Y458D01*
X1029Y458D02*
X1036Y458D01*
X0Y457D02*
X7Y457D01*
X1029Y457D02*
X1036Y457D01*
X0Y456D02*
X7Y456D01*
X1029Y456D02*
X1036Y456D01*
X0Y455D02*
X7Y455D01*
X1029Y455D02*
X1036Y455D01*
X0Y454D02*
X7Y454D01*
X1029Y454D02*
X1036Y454D01*
X0Y453D02*
X7Y453D01*
X1029Y453D02*
X1036Y453D01*
X0Y452D02*
X7Y452D01*
X1029Y452D02*
X1036Y452D01*
X0Y451D02*
X7Y451D01*
X1029Y451D02*
X1036Y451D01*
X0Y450D02*
X7Y450D01*
X1029Y450D02*
X1036Y450D01*
X0Y449D02*
X7Y449D01*
X1029Y449D02*
X1036Y449D01*
X0Y448D02*
X7Y448D01*
X1029Y448D02*
X1036Y448D01*
X0Y447D02*
X7Y447D01*
X1029Y447D02*
X1036Y447D01*
X0Y446D02*
X7Y446D01*
X1029Y446D02*
X1036Y446D01*
X0Y445D02*
X7Y445D01*
X1029Y445D02*
X1036Y445D01*
X0Y444D02*
X7Y444D01*
X1029Y444D02*
X1036Y444D01*
X0Y443D02*
X7Y443D01*
X1029Y443D02*
X1036Y443D01*
X0Y442D02*
X7Y442D01*
X1029Y442D02*
X1036Y442D01*
X0Y441D02*
X7Y441D01*
X1029Y441D02*
X1036Y441D01*
X0Y440D02*
X7Y440D01*
X1029Y440D02*
X1036Y440D01*
X0Y439D02*
X7Y439D01*
X1029Y439D02*
X1036Y439D01*
X0Y438D02*
X7Y438D01*
X1029Y438D02*
X1036Y438D01*
X0Y437D02*
X7Y437D01*
X1029Y437D02*
X1036Y437D01*
X0Y436D02*
X7Y436D01*
X1029Y436D02*
X1036Y436D01*
X0Y435D02*
X7Y435D01*
X1029Y435D02*
X1036Y435D01*
X0Y434D02*
X7Y434D01*
X1029Y434D02*
X1036Y434D01*
X0Y433D02*
X7Y433D01*
X1029Y433D02*
X1036Y433D01*
X0Y432D02*
X7Y432D01*
X1029Y432D02*
X1036Y432D01*
X0Y431D02*
X7Y431D01*
X1029Y431D02*
X1036Y431D01*
X0Y430D02*
X7Y430D01*
X1029Y430D02*
X1036Y430D01*
X0Y429D02*
X7Y429D01*
X1029Y429D02*
X1036Y429D01*
X0Y428D02*
X7Y428D01*
X1029Y428D02*
X1036Y428D01*
X0Y427D02*
X7Y427D01*
X1029Y427D02*
X1036Y427D01*
X0Y426D02*
X7Y426D01*
X1029Y426D02*
X1036Y426D01*
X0Y425D02*
X7Y425D01*
X1029Y425D02*
X1036Y425D01*
X0Y424D02*
X7Y424D01*
X1029Y424D02*
X1036Y424D01*
X0Y423D02*
X7Y423D01*
X1029Y423D02*
X1036Y423D01*
X0Y422D02*
X7Y422D01*
X1029Y422D02*
X1036Y422D01*
X0Y421D02*
X7Y421D01*
X1029Y421D02*
X1036Y421D01*
X0Y420D02*
X7Y420D01*
X1029Y420D02*
X1036Y420D01*
X0Y419D02*
X7Y419D01*
X1029Y419D02*
X1036Y419D01*
X0Y418D02*
X7Y418D01*
X1029Y418D02*
X1036Y418D01*
X0Y417D02*
X7Y417D01*
X1029Y417D02*
X1036Y417D01*
X0Y416D02*
X7Y416D01*
X1029Y416D02*
X1036Y416D01*
X0Y415D02*
X7Y415D01*
X1029Y415D02*
X1036Y415D01*
X0Y414D02*
X7Y414D01*
X1029Y414D02*
X1036Y414D01*
X0Y413D02*
X7Y413D01*
X1029Y413D02*
X1036Y413D01*
X0Y412D02*
X7Y412D01*
X1029Y412D02*
X1036Y412D01*
X0Y411D02*
X7Y411D01*
X1029Y411D02*
X1036Y411D01*
X0Y410D02*
X7Y410D01*
X1029Y410D02*
X1036Y410D01*
X0Y409D02*
X7Y409D01*
X1029Y409D02*
X1036Y409D01*
X0Y408D02*
X7Y408D01*
X1029Y408D02*
X1036Y408D01*
X0Y407D02*
X7Y407D01*
X1029Y407D02*
X1036Y407D01*
X0Y406D02*
X7Y406D01*
X1029Y406D02*
X1036Y406D01*
X0Y405D02*
X7Y405D01*
X1029Y405D02*
X1036Y405D01*
X0Y404D02*
X7Y404D01*
X1029Y404D02*
X1036Y404D01*
X0Y403D02*
X7Y403D01*
X1029Y403D02*
X1036Y403D01*
X0Y402D02*
X7Y402D01*
X1029Y402D02*
X1036Y402D01*
X0Y401D02*
X7Y401D01*
X1029Y401D02*
X1036Y401D01*
X0Y400D02*
X7Y400D01*
X1029Y400D02*
X1036Y400D01*
X0Y399D02*
X7Y399D01*
X1029Y399D02*
X1036Y399D01*
X0Y398D02*
X7Y398D01*
X1029Y398D02*
X1036Y398D01*
X0Y397D02*
X7Y397D01*
X1029Y397D02*
X1036Y397D01*
X0Y396D02*
X7Y396D01*
X1029Y396D02*
X1036Y396D01*
X0Y395D02*
X7Y395D01*
X1029Y395D02*
X1036Y395D01*
X0Y394D02*
X7Y394D01*
X1029Y394D02*
X1036Y394D01*
X0Y393D02*
X7Y393D01*
X1029Y393D02*
X1036Y393D01*
X0Y392D02*
X7Y392D01*
X1029Y392D02*
X1036Y392D01*
X0Y391D02*
X7Y391D01*
X1029Y391D02*
X1036Y391D01*
X0Y390D02*
X7Y390D01*
X1029Y390D02*
X1036Y390D01*
X0Y389D02*
X7Y389D01*
X1029Y389D02*
X1036Y389D01*
X0Y388D02*
X7Y388D01*
X1029Y388D02*
X1036Y388D01*
X0Y387D02*
X7Y387D01*
X1029Y387D02*
X1036Y387D01*
X0Y386D02*
X7Y386D01*
X1029Y386D02*
X1036Y386D01*
X0Y385D02*
X7Y385D01*
X1029Y385D02*
X1036Y385D01*
X0Y384D02*
X7Y384D01*
X1029Y384D02*
X1036Y384D01*
X0Y383D02*
X7Y383D01*
X1029Y383D02*
X1036Y383D01*
X0Y382D02*
X7Y382D01*
X1029Y382D02*
X1036Y382D01*
X0Y381D02*
X7Y381D01*
X1029Y381D02*
X1036Y381D01*
X0Y380D02*
X7Y380D01*
X1029Y380D02*
X1036Y380D01*
X0Y379D02*
X7Y379D01*
X1029Y379D02*
X1036Y379D01*
X0Y378D02*
X7Y378D01*
X1029Y378D02*
X1036Y378D01*
X0Y377D02*
X7Y377D01*
X1029Y377D02*
X1036Y377D01*
X0Y376D02*
X7Y376D01*
X1029Y376D02*
X1036Y376D01*
X0Y375D02*
X7Y375D01*
X1029Y375D02*
X1036Y375D01*
X0Y374D02*
X7Y374D01*
X1029Y374D02*
X1036Y374D01*
X0Y373D02*
X7Y373D01*
X1029Y373D02*
X1036Y373D01*
X0Y372D02*
X7Y372D01*
X1029Y372D02*
X1036Y372D01*
X0Y371D02*
X7Y371D01*
X1029Y371D02*
X1036Y371D01*
X0Y370D02*
X7Y370D01*
X1029Y370D02*
X1036Y370D01*
X0Y369D02*
X7Y369D01*
X1029Y369D02*
X1036Y369D01*
X0Y368D02*
X7Y368D01*
X1029Y368D02*
X1036Y368D01*
X0Y367D02*
X7Y367D01*
X1029Y367D02*
X1036Y367D01*
X0Y366D02*
X7Y366D01*
X1029Y366D02*
X1036Y366D01*
X0Y365D02*
X7Y365D01*
X1029Y365D02*
X1036Y365D01*
X0Y364D02*
X7Y364D01*
X1029Y364D02*
X1036Y364D01*
X0Y363D02*
X7Y363D01*
X1029Y363D02*
X1036Y363D01*
X0Y362D02*
X7Y362D01*
X1029Y362D02*
X1036Y362D01*
X0Y361D02*
X7Y361D01*
X1029Y361D02*
X1036Y361D01*
X0Y360D02*
X7Y360D01*
X1029Y360D02*
X1036Y360D01*
X0Y359D02*
X7Y359D01*
X1029Y359D02*
X1036Y359D01*
X0Y358D02*
X7Y358D01*
X1029Y358D02*
X1036Y358D01*
X0Y357D02*
X7Y357D01*
X1029Y357D02*
X1036Y357D01*
X0Y356D02*
X7Y356D01*
X1029Y356D02*
X1036Y356D01*
X0Y355D02*
X7Y355D01*
X1029Y355D02*
X1036Y355D01*
X0Y354D02*
X7Y354D01*
X1029Y354D02*
X1036Y354D01*
X0Y353D02*
X7Y353D01*
X1029Y353D02*
X1036Y353D01*
X0Y352D02*
X7Y352D01*
X1029Y352D02*
X1036Y352D01*
X0Y351D02*
X7Y351D01*
X1029Y351D02*
X1036Y351D01*
X0Y350D02*
X7Y350D01*
X1029Y350D02*
X1036Y350D01*
X0Y349D02*
X7Y349D01*
X1029Y349D02*
X1036Y349D01*
X0Y348D02*
X7Y348D01*
X1029Y348D02*
X1036Y348D01*
X0Y347D02*
X7Y347D01*
X1029Y347D02*
X1036Y347D01*
X0Y346D02*
X7Y346D01*
X1029Y346D02*
X1036Y346D01*
X0Y345D02*
X7Y345D01*
X1029Y345D02*
X1036Y345D01*
X0Y344D02*
X7Y344D01*
X1029Y344D02*
X1036Y344D01*
X0Y343D02*
X7Y343D01*
X1029Y343D02*
X1036Y343D01*
X0Y342D02*
X7Y342D01*
X1029Y342D02*
X1036Y342D01*
X0Y341D02*
X7Y341D01*
X1029Y341D02*
X1036Y341D01*
X0Y340D02*
X7Y340D01*
X1029Y340D02*
X1036Y340D01*
X0Y339D02*
X7Y339D01*
X1029Y339D02*
X1036Y339D01*
X0Y338D02*
X7Y338D01*
X1029Y338D02*
X1036Y338D01*
X0Y337D02*
X7Y337D01*
X1029Y337D02*
X1036Y337D01*
X0Y336D02*
X7Y336D01*
X1029Y336D02*
X1036Y336D01*
X0Y335D02*
X7Y335D01*
X1029Y335D02*
X1036Y335D01*
X0Y334D02*
X7Y334D01*
X1029Y334D02*
X1036Y334D01*
X0Y333D02*
X7Y333D01*
X1029Y333D02*
X1036Y333D01*
X0Y332D02*
X7Y332D01*
X1029Y332D02*
X1036Y332D01*
X0Y331D02*
X7Y331D01*
X1029Y331D02*
X1036Y331D01*
X0Y330D02*
X7Y330D01*
X1029Y330D02*
X1036Y330D01*
X0Y329D02*
X7Y329D01*
X1029Y329D02*
X1036Y329D01*
X0Y328D02*
X7Y328D01*
X1029Y328D02*
X1036Y328D01*
X0Y327D02*
X7Y327D01*
X1029Y327D02*
X1036Y327D01*
X0Y326D02*
X7Y326D01*
X1029Y326D02*
X1036Y326D01*
X0Y325D02*
X7Y325D01*
X1029Y325D02*
X1036Y325D01*
X0Y324D02*
X7Y324D01*
X1029Y324D02*
X1036Y324D01*
X0Y323D02*
X7Y323D01*
X1029Y323D02*
X1036Y323D01*
X0Y322D02*
X7Y322D01*
X1029Y322D02*
X1036Y322D01*
X0Y321D02*
X7Y321D01*
X1029Y321D02*
X1036Y321D01*
X0Y320D02*
X7Y320D01*
X1029Y320D02*
X1036Y320D01*
X0Y319D02*
X7Y319D01*
X1029Y319D02*
X1036Y319D01*
X0Y318D02*
X7Y318D01*
X1029Y318D02*
X1036Y318D01*
X0Y317D02*
X7Y317D01*
X1029Y317D02*
X1036Y317D01*
X0Y316D02*
X7Y316D01*
X1029Y316D02*
X1036Y316D01*
X0Y315D02*
X7Y315D01*
X1029Y315D02*
X1036Y315D01*
X0Y314D02*
X7Y314D01*
X1029Y314D02*
X1036Y314D01*
X0Y313D02*
X7Y313D01*
X1029Y313D02*
X1036Y313D01*
X0Y312D02*
X7Y312D01*
X1029Y312D02*
X1036Y312D01*
X0Y311D02*
X7Y311D01*
X1029Y311D02*
X1036Y311D01*
X0Y310D02*
X7Y310D01*
X1029Y310D02*
X1036Y310D01*
X0Y309D02*
X7Y309D01*
X1029Y309D02*
X1036Y309D01*
X0Y308D02*
X7Y308D01*
X1029Y308D02*
X1036Y308D01*
X0Y307D02*
X7Y307D01*
X1029Y307D02*
X1036Y307D01*
X0Y306D02*
X7Y306D01*
X1029Y306D02*
X1036Y306D01*
X0Y305D02*
X7Y305D01*
X1029Y305D02*
X1036Y305D01*
X0Y304D02*
X7Y304D01*
X1029Y304D02*
X1036Y304D01*
X0Y303D02*
X7Y303D01*
X1029Y303D02*
X1036Y303D01*
X0Y302D02*
X7Y302D01*
X1029Y302D02*
X1036Y302D01*
X0Y301D02*
X7Y301D01*
X1029Y301D02*
X1036Y301D01*
X0Y300D02*
X7Y300D01*
X1029Y300D02*
X1036Y300D01*
X0Y299D02*
X7Y299D01*
X1029Y299D02*
X1036Y299D01*
X0Y298D02*
X7Y298D01*
X1029Y298D02*
X1036Y298D01*
X0Y297D02*
X7Y297D01*
X1029Y297D02*
X1036Y297D01*
X0Y296D02*
X7Y296D01*
X1029Y296D02*
X1036Y296D01*
X0Y295D02*
X7Y295D01*
X1029Y295D02*
X1036Y295D01*
X0Y294D02*
X7Y294D01*
X1029Y294D02*
X1036Y294D01*
X0Y293D02*
X7Y293D01*
X1029Y293D02*
X1036Y293D01*
X0Y292D02*
X7Y292D01*
X1029Y292D02*
X1036Y292D01*
X0Y291D02*
X7Y291D01*
X1029Y291D02*
X1036Y291D01*
X0Y290D02*
X7Y290D01*
X1029Y290D02*
X1036Y290D01*
X0Y289D02*
X7Y289D01*
X1029Y289D02*
X1036Y289D01*
X0Y288D02*
X7Y288D01*
X1029Y288D02*
X1036Y288D01*
X0Y287D02*
X7Y287D01*
X1029Y287D02*
X1036Y287D01*
X0Y286D02*
X7Y286D01*
X1029Y286D02*
X1036Y286D01*
X0Y285D02*
X7Y285D01*
X1029Y285D02*
X1036Y285D01*
X0Y284D02*
X7Y284D01*
X1029Y284D02*
X1036Y284D01*
X0Y283D02*
X7Y283D01*
X1029Y283D02*
X1036Y283D01*
X0Y282D02*
X7Y282D01*
X1029Y282D02*
X1036Y282D01*
X0Y281D02*
X7Y281D01*
X1029Y281D02*
X1036Y281D01*
X0Y280D02*
X7Y280D01*
X1029Y280D02*
X1036Y280D01*
X0Y279D02*
X7Y279D01*
X1029Y279D02*
X1036Y279D01*
X0Y278D02*
X7Y278D01*
X1029Y278D02*
X1036Y278D01*
X0Y277D02*
X7Y277D01*
X1029Y277D02*
X1036Y277D01*
X0Y276D02*
X7Y276D01*
X1029Y276D02*
X1036Y276D01*
X0Y275D02*
X7Y275D01*
X1029Y275D02*
X1036Y275D01*
X0Y274D02*
X7Y274D01*
X1029Y274D02*
X1036Y274D01*
X0Y273D02*
X7Y273D01*
X1029Y273D02*
X1036Y273D01*
X0Y272D02*
X7Y272D01*
X1029Y272D02*
X1036Y272D01*
X0Y271D02*
X7Y271D01*
X1029Y271D02*
X1036Y271D01*
X0Y270D02*
X7Y270D01*
X1029Y270D02*
X1036Y270D01*
X0Y269D02*
X7Y269D01*
X1029Y269D02*
X1036Y269D01*
X0Y268D02*
X7Y268D01*
X1029Y268D02*
X1036Y268D01*
X0Y267D02*
X7Y267D01*
X1029Y267D02*
X1036Y267D01*
X0Y266D02*
X7Y266D01*
X1029Y266D02*
X1036Y266D01*
X0Y265D02*
X7Y265D01*
X1029Y265D02*
X1036Y265D01*
X0Y264D02*
X7Y264D01*
X1029Y264D02*
X1036Y264D01*
X0Y263D02*
X7Y263D01*
X1029Y263D02*
X1036Y263D01*
X0Y262D02*
X7Y262D01*
X1029Y262D02*
X1036Y262D01*
X0Y261D02*
X7Y261D01*
X1029Y261D02*
X1036Y261D01*
X0Y260D02*
X7Y260D01*
X1029Y260D02*
X1036Y260D01*
X0Y259D02*
X7Y259D01*
X1029Y259D02*
X1036Y259D01*
X0Y258D02*
X7Y258D01*
X1029Y258D02*
X1036Y258D01*
X0Y257D02*
X7Y257D01*
X1029Y257D02*
X1036Y257D01*
X0Y256D02*
X7Y256D01*
X1029Y256D02*
X1036Y256D01*
X0Y255D02*
X7Y255D01*
X1029Y255D02*
X1036Y255D01*
X0Y254D02*
X7Y254D01*
X1029Y254D02*
X1036Y254D01*
X0Y253D02*
X7Y253D01*
X1029Y253D02*
X1036Y253D01*
X0Y252D02*
X7Y252D01*
X1029Y252D02*
X1036Y252D01*
X0Y251D02*
X7Y251D01*
X1029Y251D02*
X1036Y251D01*
X0Y250D02*
X7Y250D01*
X1029Y250D02*
X1036Y250D01*
X0Y249D02*
X7Y249D01*
X1029Y249D02*
X1036Y249D01*
X0Y248D02*
X7Y248D01*
X1029Y248D02*
X1036Y248D01*
X0Y247D02*
X7Y247D01*
X1029Y247D02*
X1036Y247D01*
X0Y246D02*
X7Y246D01*
X1029Y246D02*
X1036Y246D01*
X0Y245D02*
X7Y245D01*
X1029Y245D02*
X1036Y245D01*
X0Y244D02*
X7Y244D01*
X1029Y244D02*
X1036Y244D01*
X0Y243D02*
X7Y243D01*
X1029Y243D02*
X1036Y243D01*
X0Y242D02*
X7Y242D01*
X1029Y242D02*
X1036Y242D01*
X0Y241D02*
X7Y241D01*
X1029Y241D02*
X1036Y241D01*
X0Y240D02*
X7Y240D01*
X1029Y240D02*
X1036Y240D01*
X0Y239D02*
X7Y239D01*
X1029Y239D02*
X1036Y239D01*
X0Y238D02*
X7Y238D01*
X1029Y238D02*
X1036Y238D01*
X0Y237D02*
X7Y237D01*
X1029Y237D02*
X1036Y237D01*
X0Y236D02*
X7Y236D01*
X1029Y236D02*
X1036Y236D01*
X0Y235D02*
X7Y235D01*
X1029Y235D02*
X1036Y235D01*
X0Y234D02*
X7Y234D01*
X1029Y234D02*
X1036Y234D01*
X0Y233D02*
X7Y233D01*
X1029Y233D02*
X1036Y233D01*
X0Y232D02*
X7Y232D01*
X1029Y232D02*
X1036Y232D01*
X0Y231D02*
X7Y231D01*
X1029Y231D02*
X1036Y231D01*
X0Y230D02*
X7Y230D01*
X1029Y230D02*
X1036Y230D01*
X0Y229D02*
X7Y229D01*
X1029Y229D02*
X1036Y229D01*
X0Y228D02*
X7Y228D01*
X1029Y228D02*
X1036Y228D01*
X0Y227D02*
X7Y227D01*
X1029Y227D02*
X1036Y227D01*
X0Y226D02*
X7Y226D01*
X1029Y226D02*
X1036Y226D01*
X0Y225D02*
X7Y225D01*
X1029Y225D02*
X1036Y225D01*
X0Y224D02*
X7Y224D01*
X1029Y224D02*
X1036Y224D01*
X0Y223D02*
X7Y223D01*
X1029Y223D02*
X1036Y223D01*
X0Y222D02*
X7Y222D01*
X1029Y222D02*
X1036Y222D01*
X0Y221D02*
X7Y221D01*
X1029Y221D02*
X1036Y221D01*
X0Y220D02*
X7Y220D01*
X1029Y220D02*
X1036Y220D01*
X0Y219D02*
X7Y219D01*
X1029Y219D02*
X1036Y219D01*
X0Y218D02*
X7Y218D01*
X1029Y218D02*
X1036Y218D01*
X0Y217D02*
X7Y217D01*
X1029Y217D02*
X1036Y217D01*
X0Y216D02*
X7Y216D01*
X1029Y216D02*
X1036Y216D01*
X0Y215D02*
X7Y215D01*
X1029Y215D02*
X1036Y215D01*
X0Y214D02*
X7Y214D01*
X1029Y214D02*
X1036Y214D01*
X0Y213D02*
X7Y213D01*
X1029Y213D02*
X1036Y213D01*
X0Y212D02*
X7Y212D01*
X1029Y212D02*
X1036Y212D01*
X0Y211D02*
X7Y211D01*
X1029Y211D02*
X1036Y211D01*
X0Y210D02*
X7Y210D01*
X1029Y210D02*
X1036Y210D01*
X0Y209D02*
X7Y209D01*
X1029Y209D02*
X1036Y209D01*
X0Y208D02*
X7Y208D01*
X1029Y208D02*
X1036Y208D01*
X0Y207D02*
X7Y207D01*
X1029Y207D02*
X1036Y207D01*
X0Y206D02*
X7Y206D01*
X1029Y206D02*
X1036Y206D01*
X0Y205D02*
X7Y205D01*
X1029Y205D02*
X1036Y205D01*
X0Y204D02*
X7Y204D01*
X1029Y204D02*
X1036Y204D01*
X0Y203D02*
X7Y203D01*
X1029Y203D02*
X1036Y203D01*
X0Y202D02*
X7Y202D01*
X1029Y202D02*
X1036Y202D01*
X0Y201D02*
X7Y201D01*
X1029Y201D02*
X1036Y201D01*
X0Y200D02*
X7Y200D01*
X1029Y200D02*
X1036Y200D01*
X0Y199D02*
X7Y199D01*
X1029Y199D02*
X1036Y199D01*
X0Y198D02*
X7Y198D01*
X1029Y198D02*
X1036Y198D01*
X0Y197D02*
X7Y197D01*
X1029Y197D02*
X1036Y197D01*
X0Y196D02*
X7Y196D01*
X1029Y196D02*
X1036Y196D01*
X0Y195D02*
X7Y195D01*
X1029Y195D02*
X1036Y195D01*
X0Y194D02*
X7Y194D01*
X1029Y194D02*
X1036Y194D01*
X0Y193D02*
X7Y193D01*
X1029Y193D02*
X1036Y193D01*
X0Y192D02*
X7Y192D01*
X1029Y192D02*
X1036Y192D01*
X0Y191D02*
X7Y191D01*
X1029Y191D02*
X1036Y191D01*
X0Y190D02*
X7Y190D01*
X1029Y190D02*
X1036Y190D01*
X0Y189D02*
X7Y189D01*
X1029Y189D02*
X1036Y189D01*
X0Y188D02*
X7Y188D01*
X1029Y188D02*
X1036Y188D01*
X0Y187D02*
X7Y187D01*
X1029Y187D02*
X1036Y187D01*
X0Y186D02*
X7Y186D01*
X1029Y186D02*
X1036Y186D01*
X0Y185D02*
X7Y185D01*
X1029Y185D02*
X1036Y185D01*
X0Y184D02*
X7Y184D01*
X1029Y184D02*
X1036Y184D01*
X0Y183D02*
X7Y183D01*
X1029Y183D02*
X1036Y183D01*
X0Y182D02*
X7Y182D01*
X1029Y182D02*
X1036Y182D01*
X0Y181D02*
X7Y181D01*
X1029Y181D02*
X1036Y181D01*
X0Y180D02*
X7Y180D01*
X1029Y180D02*
X1036Y180D01*
X0Y179D02*
X7Y179D01*
X1029Y179D02*
X1036Y179D01*
X0Y178D02*
X7Y178D01*
X1029Y178D02*
X1036Y178D01*
X0Y177D02*
X7Y177D01*
X1029Y177D02*
X1036Y177D01*
X0Y176D02*
X7Y176D01*
X1029Y176D02*
X1036Y176D01*
X0Y175D02*
X7Y175D01*
X1029Y175D02*
X1036Y175D01*
X0Y174D02*
X7Y174D01*
X1029Y174D02*
X1036Y174D01*
X0Y173D02*
X7Y173D01*
X1029Y173D02*
X1036Y173D01*
X0Y172D02*
X7Y172D01*
X1029Y172D02*
X1036Y172D01*
X0Y171D02*
X7Y171D01*
X1029Y171D02*
X1036Y171D01*
X0Y170D02*
X7Y170D01*
X1029Y170D02*
X1036Y170D01*
X0Y169D02*
X7Y169D01*
X1029Y169D02*
X1036Y169D01*
X0Y168D02*
X7Y168D01*
X1029Y168D02*
X1036Y168D01*
X0Y167D02*
X7Y167D01*
X1029Y167D02*
X1036Y167D01*
X0Y166D02*
X7Y166D01*
X1029Y166D02*
X1036Y166D01*
X0Y165D02*
X7Y165D01*
X1029Y165D02*
X1036Y165D01*
X0Y164D02*
X7Y164D01*
X1029Y164D02*
X1036Y164D01*
X0Y163D02*
X7Y163D01*
X1029Y163D02*
X1036Y163D01*
X0Y162D02*
X7Y162D01*
X1029Y162D02*
X1036Y162D01*
X0Y161D02*
X7Y161D01*
X1029Y161D02*
X1036Y161D01*
X0Y160D02*
X7Y160D01*
X1029Y160D02*
X1036Y160D01*
X0Y159D02*
X7Y159D01*
X1029Y159D02*
X1036Y159D01*
X0Y158D02*
X7Y158D01*
X1029Y158D02*
X1036Y158D01*
X0Y157D02*
X7Y157D01*
X1029Y157D02*
X1036Y157D01*
X0Y156D02*
X7Y156D01*
X1029Y156D02*
X1036Y156D01*
X0Y155D02*
X7Y155D01*
X1029Y155D02*
X1036Y155D01*
X0Y154D02*
X7Y154D01*
X1029Y154D02*
X1036Y154D01*
X0Y153D02*
X7Y153D01*
X1029Y153D02*
X1036Y153D01*
X0Y152D02*
X7Y152D01*
X1029Y152D02*
X1036Y152D01*
X0Y151D02*
X7Y151D01*
X1029Y151D02*
X1036Y151D01*
X0Y150D02*
X7Y150D01*
X1029Y150D02*
X1036Y150D01*
X0Y149D02*
X7Y149D01*
X1029Y149D02*
X1036Y149D01*
X0Y148D02*
X7Y148D01*
X1029Y148D02*
X1036Y148D01*
X0Y147D02*
X7Y147D01*
X1029Y147D02*
X1036Y147D01*
X0Y146D02*
X7Y146D01*
X1029Y146D02*
X1036Y146D01*
X0Y145D02*
X7Y145D01*
X1029Y145D02*
X1036Y145D01*
X0Y144D02*
X7Y144D01*
X1029Y144D02*
X1036Y144D01*
X0Y143D02*
X7Y143D01*
X1029Y143D02*
X1036Y143D01*
X0Y142D02*
X7Y142D01*
X1029Y142D02*
X1036Y142D01*
X0Y141D02*
X7Y141D01*
X1029Y141D02*
X1036Y141D01*
X0Y140D02*
X7Y140D01*
X1029Y140D02*
X1036Y140D01*
X0Y139D02*
X7Y139D01*
X1029Y139D02*
X1036Y139D01*
X0Y138D02*
X7Y138D01*
X1029Y138D02*
X1036Y138D01*
X0Y137D02*
X7Y137D01*
X1029Y137D02*
X1036Y137D01*
X0Y136D02*
X7Y136D01*
X1029Y136D02*
X1036Y136D01*
X0Y135D02*
X7Y135D01*
X1029Y135D02*
X1036Y135D01*
X0Y134D02*
X7Y134D01*
X1029Y134D02*
X1036Y134D01*
X0Y133D02*
X7Y133D01*
X1029Y133D02*
X1036Y133D01*
X0Y132D02*
X7Y132D01*
X1029Y132D02*
X1036Y132D01*
X0Y131D02*
X7Y131D01*
X1029Y131D02*
X1036Y131D01*
X0Y130D02*
X7Y130D01*
X1029Y130D02*
X1036Y130D01*
X0Y129D02*
X7Y129D01*
X1029Y129D02*
X1036Y129D01*
X0Y128D02*
X7Y128D01*
X1029Y128D02*
X1036Y128D01*
X0Y127D02*
X7Y127D01*
X1029Y127D02*
X1036Y127D01*
X0Y126D02*
X7Y126D01*
X1029Y126D02*
X1036Y126D01*
X0Y125D02*
X7Y125D01*
X1029Y125D02*
X1036Y125D01*
X0Y124D02*
X7Y124D01*
X1029Y124D02*
X1036Y124D01*
X0Y123D02*
X7Y123D01*
X1029Y123D02*
X1036Y123D01*
X0Y122D02*
X7Y122D01*
X1029Y122D02*
X1036Y122D01*
X0Y121D02*
X7Y121D01*
X1029Y121D02*
X1036Y121D01*
X0Y120D02*
X7Y120D01*
X1029Y120D02*
X1036Y120D01*
X0Y119D02*
X7Y119D01*
X1029Y119D02*
X1036Y119D01*
X0Y118D02*
X7Y118D01*
X1029Y118D02*
X1036Y118D01*
X0Y117D02*
X7Y117D01*
X1029Y117D02*
X1036Y117D01*
X0Y116D02*
X7Y116D01*
X1029Y116D02*
X1036Y116D01*
X0Y115D02*
X7Y115D01*
X1029Y115D02*
X1036Y115D01*
X0Y114D02*
X7Y114D01*
X1029Y114D02*
X1036Y114D01*
X0Y113D02*
X7Y113D01*
X1029Y113D02*
X1036Y113D01*
X0Y112D02*
X7Y112D01*
X1029Y112D02*
X1036Y112D01*
X0Y111D02*
X7Y111D01*
X1029Y111D02*
X1036Y111D01*
X0Y110D02*
X7Y110D01*
X1029Y110D02*
X1036Y110D01*
X0Y109D02*
X7Y109D01*
X1029Y109D02*
X1036Y109D01*
X0Y108D02*
X7Y108D01*
X1029Y108D02*
X1036Y108D01*
X0Y107D02*
X7Y107D01*
X1029Y107D02*
X1036Y107D01*
X0Y106D02*
X7Y106D01*
X1029Y106D02*
X1036Y106D01*
X0Y105D02*
X7Y105D01*
X1029Y105D02*
X1036Y105D01*
X0Y104D02*
X7Y104D01*
X1029Y104D02*
X1036Y104D01*
X0Y103D02*
X7Y103D01*
X1029Y103D02*
X1036Y103D01*
X0Y102D02*
X7Y102D01*
X1029Y102D02*
X1036Y102D01*
X0Y101D02*
X7Y101D01*
X1029Y101D02*
X1036Y101D01*
X0Y100D02*
X7Y100D01*
X1029Y100D02*
X1036Y100D01*
X0Y99D02*
X7Y99D01*
X1029Y99D02*
X1036Y99D01*
X0Y98D02*
X7Y98D01*
X1029Y98D02*
X1036Y98D01*
X0Y97D02*
X7Y97D01*
X1029Y97D02*
X1036Y97D01*
X0Y96D02*
X7Y96D01*
X1029Y96D02*
X1036Y96D01*
X0Y95D02*
X7Y95D01*
X1029Y95D02*
X1036Y95D01*
X0Y94D02*
X7Y94D01*
X1029Y94D02*
X1036Y94D01*
X0Y93D02*
X7Y93D01*
X1029Y93D02*
X1036Y93D01*
X0Y92D02*
X7Y92D01*
X1029Y92D02*
X1036Y92D01*
X0Y91D02*
X7Y91D01*
X1029Y91D02*
X1036Y91D01*
X0Y90D02*
X7Y90D01*
X1029Y90D02*
X1036Y90D01*
X0Y89D02*
X7Y89D01*
X1029Y89D02*
X1036Y89D01*
X0Y88D02*
X7Y88D01*
X1029Y88D02*
X1036Y88D01*
X0Y87D02*
X7Y87D01*
X1029Y87D02*
X1036Y87D01*
X0Y86D02*
X7Y86D01*
X1029Y86D02*
X1036Y86D01*
X0Y85D02*
X7Y85D01*
X1029Y85D02*
X1036Y85D01*
X0Y84D02*
X7Y84D01*
X1029Y84D02*
X1036Y84D01*
X0Y83D02*
X7Y83D01*
X1029Y83D02*
X1036Y83D01*
X0Y82D02*
X7Y82D01*
X1029Y82D02*
X1036Y82D01*
X0Y81D02*
X7Y81D01*
X1029Y81D02*
X1036Y81D01*
X0Y80D02*
X7Y80D01*
X1029Y80D02*
X1036Y80D01*
X0Y79D02*
X7Y79D01*
X1029Y79D02*
X1036Y79D01*
X0Y78D02*
X7Y78D01*
X1029Y78D02*
X1036Y78D01*
X0Y77D02*
X7Y77D01*
X1029Y77D02*
X1036Y77D01*
X0Y76D02*
X7Y76D01*
X1029Y76D02*
X1036Y76D01*
X0Y75D02*
X7Y75D01*
X1029Y75D02*
X1036Y75D01*
X0Y74D02*
X7Y74D01*
X1029Y74D02*
X1036Y74D01*
X0Y73D02*
X7Y73D01*
X1029Y73D02*
X1036Y73D01*
X0Y72D02*
X7Y72D01*
X1029Y72D02*
X1036Y72D01*
X0Y71D02*
X7Y71D01*
X1029Y71D02*
X1036Y71D01*
X0Y70D02*
X7Y70D01*
X115Y70D02*
X115Y70D01*
X1029Y70D02*
X1036Y70D01*
X0Y69D02*
X7Y69D01*
X114Y69D02*
X116Y69D01*
X1029Y69D02*
X1036Y69D01*
X0Y68D02*
X7Y68D01*
X113Y68D02*
X117Y68D01*
X1029Y68D02*
X1036Y68D01*
X0Y67D02*
X7Y67D01*
X112Y67D02*
X118Y67D01*
X1029Y67D02*
X1036Y67D01*
X0Y66D02*
X7Y66D01*
X111Y66D02*
X117Y66D01*
X1029Y66D02*
X1036Y66D01*
X0Y65D02*
X7Y65D01*
X110Y65D02*
X116Y65D01*
X1029Y65D02*
X1036Y65D01*
X0Y64D02*
X7Y64D01*
X109Y64D02*
X115Y64D01*
X1029Y64D02*
X1036Y64D01*
X0Y63D02*
X7Y63D01*
X108Y63D02*
X114Y63D01*
X1029Y63D02*
X1036Y63D01*
X0Y62D02*
X7Y62D01*
X107Y62D02*
X113Y62D01*
X1029Y62D02*
X1036Y62D01*
X0Y61D02*
X7Y61D01*
X106Y61D02*
X112Y61D01*
X1029Y61D02*
X1036Y61D01*
X0Y60D02*
X7Y60D01*
X105Y60D02*
X111Y60D01*
X1029Y60D02*
X1036Y60D01*
X0Y59D02*
X7Y59D01*
X104Y59D02*
X110Y59D01*
X1029Y59D02*
X1036Y59D01*
X0Y58D02*
X7Y58D01*
X103Y58D02*
X109Y58D01*
X1029Y58D02*
X1036Y58D01*
X0Y57D02*
X7Y57D01*
X102Y57D02*
X108Y57D01*
X1029Y57D02*
X1036Y57D01*
X0Y56D02*
X7Y56D01*
X102Y56D02*
X107Y56D01*
X1029Y56D02*
X1036Y56D01*
X0Y55D02*
X7Y55D01*
X101Y55D02*
X106Y55D01*
X1029Y55D02*
X1036Y55D01*
X0Y54D02*
X7Y54D01*
X100Y54D02*
X105Y54D01*
X1029Y54D02*
X1036Y54D01*
X0Y53D02*
X7Y53D01*
X99Y53D02*
X104Y53D01*
X1029Y53D02*
X1036Y53D01*
X0Y52D02*
X7Y52D01*
X98Y52D02*
X103Y52D01*
X1029Y52D02*
X1036Y52D01*
X0Y51D02*
X7Y51D01*
X97Y51D02*
X102Y51D01*
X1029Y51D02*
X1036Y51D01*
X0Y50D02*
X7Y50D01*
X96Y50D02*
X101Y50D01*
X1029Y50D02*
X1036Y50D01*
X0Y49D02*
X7Y49D01*
X94Y49D02*
X100Y49D01*
X1029Y49D02*
X1036Y49D01*
X0Y48D02*
X7Y48D01*
X93Y48D02*
X99Y48D01*
X1029Y48D02*
X1036Y48D01*
X0Y47D02*
X7Y47D01*
X92Y47D02*
X98Y47D01*
X1029Y47D02*
X1036Y47D01*
X0Y46D02*
X7Y46D01*
X91Y46D02*
X97Y46D01*
X1029Y46D02*
X1036Y46D01*
X0Y45D02*
X7Y45D01*
X90Y45D02*
X96Y45D01*
X1029Y45D02*
X1036Y45D01*
X0Y44D02*
X7Y44D01*
X89Y44D02*
X95Y44D01*
X1029Y44D02*
X1036Y44D01*
X0Y43D02*
X7Y43D01*
X88Y43D02*
X94Y43D01*
X1029Y43D02*
X1036Y43D01*
X0Y42D02*
X7Y42D01*
X87Y42D02*
X93Y42D01*
X1029Y42D02*
X1036Y42D01*
X0Y41D02*
X7Y41D01*
X86Y41D02*
X92Y41D01*
X1029Y41D02*
X1036Y41D01*
X0Y40D02*
X7Y40D01*
X85Y40D02*
X91Y40D01*
X1029Y40D02*
X1036Y40D01*
X0Y39D02*
X7Y39D01*
X84Y39D02*
X90Y39D01*
X1029Y39D02*
X1036Y39D01*
X0Y38D02*
X7Y38D01*
X83Y38D02*
X89Y38D01*
X1029Y38D02*
X1036Y38D01*
X0Y37D02*
X7Y37D01*
X82Y37D02*
X88Y37D01*
X1029Y37D02*
X1036Y37D01*
X0Y36D02*
X7Y36D01*
X81Y36D02*
X87Y36D01*
X1029Y36D02*
X1036Y36D01*
X0Y35D02*
X7Y35D01*
X82Y35D02*
X86Y35D01*
X1029Y35D02*
X1036Y35D01*
X0Y34D02*
X7Y34D01*
X83Y34D02*
X85Y34D01*
X1029Y34D02*
X1036Y34D01*
X0Y33D02*
X7Y33D01*
X84Y33D02*
X84Y33D01*
X1029Y33D02*
X1036Y33D01*
X0Y32D02*
X7Y32D01*
X1029Y32D02*
X1036Y32D01*
X0Y31D02*
X7Y31D01*
X1029Y31D02*
X1036Y31D01*
X0Y30D02*
X7Y30D01*
X1029Y30D02*
X1036Y30D01*
X0Y29D02*
X7Y29D01*
X1029Y29D02*
X1036Y29D01*
X0Y28D02*
X7Y28D01*
X1029Y28D02*
X1036Y28D01*
X0Y27D02*
X7Y27D01*
X1029Y27D02*
X1036Y27D01*
X0Y26D02*
X7Y26D01*
X1029Y26D02*
X1036Y26D01*
X0Y25D02*
X7Y25D01*
X1029Y25D02*
X1036Y25D01*
X0Y24D02*
X7Y24D01*
X1029Y24D02*
X1036Y24D01*
X0Y23D02*
X7Y23D01*
X1029Y23D02*
X1036Y23D01*
X0Y22D02*
X7Y22D01*
X1029Y22D02*
X1036Y22D01*
X0Y21D02*
X7Y21D01*
X1029Y21D02*
X1036Y21D01*
X0Y20D02*
X7Y20D01*
X1029Y20D02*
X1036Y20D01*
X0Y19D02*
X7Y19D01*
X1029Y19D02*
X1036Y19D01*
X0Y18D02*
X7Y18D01*
X1029Y18D02*
X1036Y18D01*
X0Y17D02*
X7Y17D01*
X1029Y17D02*
X1036Y17D01*
X0Y16D02*
X7Y16D01*
X1029Y16D02*
X1036Y16D01*
X0Y15D02*
X7Y15D01*
X1029Y15D02*
X1036Y15D01*
X0Y14D02*
X7Y14D01*
X1029Y14D02*
X1036Y14D01*
X0Y13D02*
X7Y13D01*
X1029Y13D02*
X1036Y13D01*
X0Y12D02*
X7Y12D01*
X1029Y12D02*
X1036Y12D01*
X0Y11D02*
X7Y11D01*
X1029Y11D02*
X1036Y11D01*
X0Y10D02*
X7Y10D01*
X1029Y10D02*
X1036Y10D01*
X0Y9D02*
X1036Y9D01*
X0Y8D02*
X1036Y8D01*
X0Y7D02*
X1036Y7D01*
X0Y6D02*
X1036Y6D01*
X0Y5D02*
X1036Y5D01*
X0Y4D02*
X1036Y4D01*
X0Y3D02*
X1036Y3D01*
X0Y2D02*
X1036Y2D01*
D02*
G04 End of Silk1*
M02*