G04 MADE WITH FRITZING*
G04 WWW.FRITZING.ORG*
G04 DOUBLE SIDED*
G04 HOLES PLATED*
G04 CONTOUR ON CENTER OF CONTOUR VECTOR*
%ASAXBY*%
%FSLAX23Y23*%
%MOIN*%
%OFA0B0*%
%SFA1.0B1.0*%
%ADD10C,0.074000*%
%ADD11C,0.078000*%
%ADD12R,0.074803X0.062992*%
%ADD13C,0.024000*%
%ADD14R,0.001000X0.001000*%
%LNCOPPER1*%
G90*
G70*
G54D10*
X418Y382D03*
X518Y382D03*
X618Y382D03*
X418Y382D03*
X518Y382D03*
X618Y382D03*
G54D11*
X368Y183D03*
X468Y183D03*
X568Y183D03*
X668Y183D03*
X68Y82D03*
X68Y182D03*
X68Y282D03*
X68Y382D03*
X68Y482D03*
X68Y582D03*
X68Y682D03*
X68Y782D03*
X968Y782D03*
X968Y682D03*
X968Y582D03*
X968Y482D03*
X968Y382D03*
X968Y282D03*
X968Y182D03*
X968Y82D03*
G54D12*
X718Y660D03*
X718Y782D03*
X568Y659D03*
X568Y782D03*
X418Y782D03*
X418Y660D03*
X278Y782D03*
X278Y660D03*
G54D13*
X868Y682D02*
X768Y782D01*
D02*
X938Y682D02*
X868Y682D01*
D02*
X768Y782D02*
X750Y782D01*
D02*
X668Y782D02*
X686Y782D01*
D02*
X600Y674D02*
X617Y683D01*
D02*
X617Y683D02*
X668Y782D01*
D02*
X450Y782D02*
X536Y782D01*
D02*
X418Y634D02*
X418Y582D01*
D02*
X418Y582D02*
X517Y483D01*
D02*
X517Y483D02*
X518Y413D01*
D02*
X668Y232D02*
X668Y213D01*
D02*
X618Y333D02*
X668Y232D01*
D02*
X618Y352D02*
X618Y333D01*
D02*
X718Y632D02*
X718Y634D01*
D02*
X718Y82D02*
X767Y132D01*
D02*
X518Y83D02*
X718Y82D01*
D02*
X767Y132D02*
X768Y582D01*
D02*
X768Y582D02*
X718Y632D01*
D02*
X481Y156D02*
X518Y83D01*
D02*
X568Y232D02*
X568Y213D01*
D02*
X518Y333D02*
X568Y232D01*
D02*
X518Y352D02*
X518Y333D01*
D02*
X386Y660D02*
X310Y660D01*
D02*
X368Y383D02*
X387Y383D01*
D02*
X167Y732D02*
X167Y383D01*
D02*
X167Y383D02*
X368Y383D01*
D02*
X218Y782D02*
X167Y732D01*
D02*
X246Y782D02*
X218Y782D01*
D02*
X118Y83D02*
X98Y83D01*
D02*
X167Y383D02*
X167Y132D01*
D02*
X387Y382D02*
X167Y383D01*
D02*
X167Y132D02*
X118Y83D01*
G54D14*
X381Y420D02*
X454Y420D01*
X381Y419D02*
X454Y419D01*
X381Y418D02*
X454Y418D01*
X381Y417D02*
X454Y417D01*
X381Y416D02*
X454Y416D01*
X381Y415D02*
X454Y415D01*
X381Y414D02*
X454Y414D01*
X381Y413D02*
X454Y413D01*
X381Y412D02*
X454Y412D01*
X381Y411D02*
X454Y411D01*
X381Y410D02*
X454Y410D01*
X381Y409D02*
X454Y409D01*
X381Y408D02*
X454Y408D01*
X381Y407D02*
X454Y407D01*
X381Y406D02*
X454Y406D01*
X381Y405D02*
X454Y405D01*
X381Y404D02*
X454Y404D01*
X381Y403D02*
X414Y403D01*
X420Y403D02*
X454Y403D01*
X381Y402D02*
X410Y402D01*
X424Y402D02*
X454Y402D01*
X381Y401D02*
X408Y401D01*
X426Y401D02*
X454Y401D01*
X381Y400D02*
X406Y400D01*
X428Y400D02*
X454Y400D01*
X381Y399D02*
X404Y399D01*
X430Y399D02*
X454Y399D01*
X381Y398D02*
X403Y398D01*
X431Y398D02*
X454Y398D01*
X381Y397D02*
X402Y397D01*
X432Y397D02*
X454Y397D01*
X381Y396D02*
X401Y396D01*
X433Y396D02*
X454Y396D01*
X381Y395D02*
X401Y395D01*
X433Y395D02*
X454Y395D01*
X381Y394D02*
X400Y394D01*
X434Y394D02*
X454Y394D01*
X381Y393D02*
X399Y393D01*
X435Y393D02*
X454Y393D01*
X381Y392D02*
X399Y392D01*
X435Y392D02*
X454Y392D01*
X381Y391D02*
X398Y391D01*
X436Y391D02*
X454Y391D01*
X381Y390D02*
X398Y390D01*
X436Y390D02*
X454Y390D01*
X381Y389D02*
X398Y389D01*
X436Y389D02*
X454Y389D01*
X381Y388D02*
X397Y388D01*
X437Y388D02*
X454Y388D01*
X381Y387D02*
X397Y387D01*
X437Y387D02*
X454Y387D01*
X381Y386D02*
X397Y386D01*
X437Y386D02*
X454Y386D01*
X381Y385D02*
X397Y385D01*
X437Y385D02*
X454Y385D01*
X381Y384D02*
X397Y384D01*
X437Y384D02*
X454Y384D01*
X381Y383D02*
X397Y383D01*
X437Y383D02*
X454Y383D01*
X381Y382D02*
X397Y382D01*
X437Y382D02*
X454Y382D01*
X381Y381D02*
X397Y381D01*
X437Y381D02*
X454Y381D01*
X381Y380D02*
X397Y380D01*
X437Y380D02*
X454Y380D01*
X381Y379D02*
X397Y379D01*
X437Y379D02*
X454Y379D01*
X381Y378D02*
X398Y378D01*
X436Y378D02*
X454Y378D01*
X381Y377D02*
X398Y377D01*
X436Y377D02*
X454Y377D01*
X381Y376D02*
X398Y376D01*
X436Y376D02*
X454Y376D01*
X381Y375D02*
X399Y375D01*
X435Y375D02*
X454Y375D01*
X381Y374D02*
X399Y374D01*
X435Y374D02*
X454Y374D01*
X381Y373D02*
X400Y373D01*
X434Y373D02*
X454Y373D01*
X381Y372D02*
X401Y372D01*
X433Y372D02*
X454Y372D01*
X381Y371D02*
X402Y371D01*
X433Y371D02*
X454Y371D01*
X381Y370D02*
X402Y370D01*
X432Y370D02*
X454Y370D01*
X381Y369D02*
X403Y369D01*
X431Y369D02*
X454Y369D01*
X381Y368D02*
X405Y368D01*
X429Y368D02*
X454Y368D01*
X381Y367D02*
X406Y367D01*
X428Y367D02*
X454Y367D01*
X381Y366D02*
X408Y366D01*
X426Y366D02*
X454Y366D01*
X381Y365D02*
X410Y365D01*
X424Y365D02*
X454Y365D01*
X381Y364D02*
X416Y364D01*
X418Y364D02*
X454Y364D01*
X381Y363D02*
X454Y363D01*
X381Y362D02*
X454Y362D01*
X381Y361D02*
X454Y361D01*
X381Y360D02*
X454Y360D01*
X381Y359D02*
X454Y359D01*
X381Y358D02*
X454Y358D01*
X381Y357D02*
X454Y357D01*
X381Y356D02*
X454Y356D01*
X381Y355D02*
X454Y355D01*
X381Y354D02*
X454Y354D01*
X381Y353D02*
X454Y353D01*
X381Y352D02*
X454Y352D01*
X381Y351D02*
X454Y351D01*
X381Y350D02*
X454Y350D01*
X381Y349D02*
X454Y349D01*
X381Y348D02*
X454Y348D01*
X381Y347D02*
X453Y347D01*
D02*
G04 End of Copper1*
M02*