; NON-PLATED HOLES START AT T1
; THROUGH (PLATED) HOLES START AT T100
M48
INCH
T100C0.038000
T101C0.039370
%
T100
X000677Y001823
X000677Y007823
X000677Y003823
X000677Y002823
X009677Y002823
X006679Y001825
X000677Y006823
X009677Y000823
X009677Y003823
X005679Y001825
X009677Y001823
X000677Y000823
X003679Y001825
X009677Y005823
X004679Y001825
X000677Y005823
X009677Y004823
X009677Y007823
X009677Y006823
X000677Y004823
T101
X005177Y003823
X004177Y003823
X006177Y003823
T00
M30
