G04 MADE WITH FRITZING*
G04 WWW.FRITZING.ORG*
G04 DOUBLE SIDED*
G04 HOLES PLATED*
G04 CONTOUR ON CENTER OF CONTOUR VECTOR*
%ASAXBY*%
%FSLAX23Y23*%
%MOIN*%
%OFA0B0*%
%SFA1.0B1.0*%
%ADD10C,0.084000*%
%ADD11C,0.088000*%
%ADD12R,0.001000X0.001000*%
%LNMASK0*%
G90*
G70*
G54D10*
X418Y382D03*
X518Y382D03*
X618Y382D03*
G54D11*
X368Y183D03*
X468Y183D03*
X568Y183D03*
X668Y183D03*
X68Y82D03*
X68Y182D03*
X68Y282D03*
X68Y382D03*
X68Y482D03*
X68Y582D03*
X68Y682D03*
X68Y782D03*
X968Y782D03*
X968Y682D03*
X968Y582D03*
X968Y482D03*
X968Y382D03*
X968Y282D03*
X968Y182D03*
X968Y82D03*
G54D12*
X376Y425D02*
X459Y425D01*
X376Y424D02*
X459Y424D01*
X376Y423D02*
X459Y423D01*
X376Y422D02*
X459Y422D01*
X376Y421D02*
X459Y421D01*
X376Y420D02*
X459Y420D01*
X376Y419D02*
X459Y419D01*
X376Y418D02*
X459Y418D01*
X376Y417D02*
X459Y417D01*
X376Y416D02*
X459Y416D01*
X376Y415D02*
X459Y415D01*
X376Y414D02*
X459Y414D01*
X376Y413D02*
X459Y413D01*
X376Y412D02*
X459Y412D01*
X376Y411D02*
X459Y411D01*
X376Y410D02*
X459Y410D01*
X376Y409D02*
X459Y409D01*
X376Y408D02*
X459Y408D01*
X376Y407D02*
X459Y407D01*
X376Y406D02*
X459Y406D01*
X376Y405D02*
X459Y405D01*
X376Y404D02*
X459Y404D01*
X376Y403D02*
X459Y403D01*
X376Y402D02*
X459Y402D01*
X376Y401D02*
X459Y401D01*
X376Y400D02*
X459Y400D01*
X376Y399D02*
X459Y399D01*
X376Y398D02*
X414Y398D01*
X420Y398D02*
X459Y398D01*
X376Y397D02*
X410Y397D01*
X424Y397D02*
X459Y397D01*
X376Y396D02*
X409Y396D01*
X425Y396D02*
X459Y396D01*
X376Y395D02*
X407Y395D01*
X427Y395D02*
X459Y395D01*
X376Y394D02*
X406Y394D01*
X428Y394D02*
X459Y394D01*
X376Y393D02*
X405Y393D01*
X429Y393D02*
X459Y393D01*
X376Y392D02*
X404Y392D01*
X430Y392D02*
X459Y392D01*
X376Y391D02*
X404Y391D01*
X430Y391D02*
X459Y391D01*
X376Y390D02*
X403Y390D01*
X431Y390D02*
X459Y390D01*
X376Y389D02*
X403Y389D01*
X431Y389D02*
X459Y389D01*
X376Y388D02*
X403Y388D01*
X432Y388D02*
X459Y388D01*
X376Y387D02*
X402Y387D01*
X432Y387D02*
X459Y387D01*
X376Y386D02*
X402Y386D01*
X432Y386D02*
X459Y386D01*
X376Y385D02*
X402Y385D01*
X432Y385D02*
X459Y385D01*
X376Y384D02*
X402Y384D01*
X432Y384D02*
X459Y384D01*
X376Y383D02*
X402Y383D01*
X432Y383D02*
X459Y383D01*
X376Y382D02*
X402Y382D01*
X432Y382D02*
X459Y382D01*
X376Y381D02*
X402Y381D01*
X432Y381D02*
X459Y381D01*
X376Y380D02*
X402Y380D01*
X432Y380D02*
X459Y380D01*
X376Y379D02*
X403Y379D01*
X431Y379D02*
X459Y379D01*
X376Y378D02*
X403Y378D01*
X431Y378D02*
X459Y378D01*
X376Y377D02*
X403Y377D01*
X431Y377D02*
X459Y377D01*
X376Y376D02*
X404Y376D01*
X430Y376D02*
X459Y376D01*
X376Y375D02*
X405Y375D01*
X429Y375D02*
X459Y375D01*
X376Y374D02*
X405Y374D01*
X429Y374D02*
X459Y374D01*
X376Y373D02*
X406Y373D01*
X428Y373D02*
X459Y373D01*
X376Y372D02*
X408Y372D01*
X426Y372D02*
X459Y372D01*
X376Y371D02*
X409Y371D01*
X425Y371D02*
X459Y371D01*
X376Y370D02*
X411Y370D01*
X423Y370D02*
X459Y370D01*
X376Y369D02*
X415Y369D01*
X419Y369D02*
X459Y369D01*
X376Y368D02*
X459Y368D01*
X376Y367D02*
X459Y367D01*
X376Y366D02*
X459Y366D01*
X376Y365D02*
X459Y365D01*
X376Y364D02*
X459Y364D01*
X376Y363D02*
X459Y363D01*
X376Y362D02*
X459Y362D01*
X376Y361D02*
X459Y361D01*
X376Y360D02*
X459Y360D01*
X376Y359D02*
X459Y359D01*
X376Y358D02*
X459Y358D01*
X376Y357D02*
X459Y357D01*
X376Y356D02*
X459Y356D01*
X376Y355D02*
X459Y355D01*
X376Y354D02*
X459Y354D01*
X376Y353D02*
X459Y353D01*
X376Y352D02*
X459Y352D01*
X376Y351D02*
X459Y351D01*
X376Y350D02*
X459Y350D01*
X376Y349D02*
X459Y349D01*
X376Y348D02*
X459Y348D01*
X376Y347D02*
X459Y347D01*
X376Y346D02*
X459Y346D01*
X376Y345D02*
X459Y345D01*
X376Y344D02*
X459Y344D01*
X376Y343D02*
X459Y343D01*
X376Y342D02*
X458Y342D01*
D02*
G04 End of Mask0*
M02*