G04 MADE WITH FRITZING*
G04 WWW.FRITZING.ORG*
G04 DOUBLE SIDED*
G04 HOLES PLATED*
G04 CONTOUR ON CENTER OF CONTOUR VECTOR*
%ASAXBY*%
%FSLAX23Y23*%
%MOIN*%
%OFA0B0*%
%SFA1.0B1.0*%
%ADD10R,1.037470X0.855630X1.021470X0.839630*%
%ADD11C,0.008000*%
%ADD12R,0.001000X0.001000*%
%LNSILK0*%
G90*
G70*
G54D11*
X4Y852D02*
X1033Y852D01*
X1033Y4D01*
X4Y4D01*
X4Y852D01*
D02*
G54D12*
X776Y812D02*
X807Y812D01*
X831Y812D02*
X850Y812D01*
X880Y812D02*
X904Y812D01*
X775Y811D02*
X808Y811D01*
X828Y811D02*
X852Y811D01*
X877Y811D02*
X904Y811D01*
X775Y810D02*
X808Y810D01*
X827Y810D02*
X853Y810D01*
X876Y810D02*
X904Y810D01*
X775Y809D02*
X808Y809D01*
X826Y809D02*
X854Y809D01*
X875Y809D02*
X904Y809D01*
X138Y808D02*
X142Y808D01*
X165Y808D02*
X168Y808D01*
X185Y808D02*
X217Y808D01*
X775Y808D02*
X808Y808D01*
X825Y808D02*
X855Y808D01*
X874Y808D02*
X904Y808D01*
X137Y807D02*
X142Y807D01*
X164Y807D02*
X169Y807D01*
X185Y807D02*
X217Y807D01*
X775Y807D02*
X808Y807D01*
X824Y807D02*
X855Y807D01*
X873Y807D02*
X904Y807D01*
X137Y806D02*
X143Y806D01*
X163Y806D02*
X169Y806D01*
X185Y806D02*
X217Y806D01*
X775Y806D02*
X808Y806D01*
X824Y806D02*
X856Y806D01*
X872Y806D02*
X904Y806D01*
X137Y805D02*
X144Y805D01*
X162Y805D02*
X169Y805D01*
X185Y805D02*
X217Y805D01*
X775Y805D02*
X781Y805D01*
X789Y805D02*
X794Y805D01*
X802Y805D02*
X808Y805D01*
X824Y805D02*
X830Y805D01*
X850Y805D02*
X856Y805D01*
X872Y805D02*
X879Y805D01*
X898Y805D02*
X904Y805D01*
X137Y804D02*
X144Y804D01*
X162Y804D02*
X169Y804D01*
X185Y804D02*
X217Y804D01*
X775Y804D02*
X781Y804D01*
X789Y804D02*
X794Y804D01*
X802Y804D02*
X808Y804D01*
X824Y804D02*
X829Y804D01*
X850Y804D02*
X856Y804D01*
X872Y804D02*
X878Y804D01*
X898Y804D02*
X904Y804D01*
X138Y803D02*
X145Y803D01*
X161Y803D02*
X168Y803D01*
X185Y803D02*
X217Y803D01*
X775Y803D02*
X781Y803D01*
X789Y803D02*
X794Y803D01*
X802Y803D02*
X808Y803D01*
X824Y803D02*
X829Y803D01*
X849Y803D02*
X855Y803D01*
X872Y803D02*
X878Y803D01*
X898Y803D02*
X904Y803D01*
X138Y802D02*
X145Y802D01*
X161Y802D02*
X168Y802D01*
X185Y802D02*
X191Y802D01*
X198Y802D02*
X204Y802D01*
X211Y802D02*
X217Y802D01*
X776Y802D02*
X781Y802D01*
X789Y802D02*
X794Y802D01*
X802Y802D02*
X807Y802D01*
X824Y802D02*
X829Y802D01*
X848Y802D02*
X855Y802D01*
X872Y802D02*
X877Y802D01*
X898Y802D02*
X904Y802D01*
X139Y801D02*
X146Y801D01*
X160Y801D02*
X167Y801D01*
X185Y801D02*
X191Y801D01*
X198Y801D02*
X204Y801D01*
X211Y801D02*
X217Y801D01*
X776Y801D02*
X780Y801D01*
X789Y801D02*
X794Y801D01*
X803Y801D02*
X807Y801D01*
X824Y801D02*
X828Y801D01*
X847Y801D02*
X855Y801D01*
X872Y801D02*
X877Y801D01*
X898Y801D02*
X904Y801D01*
X140Y800D02*
X146Y800D01*
X160Y800D02*
X166Y800D01*
X185Y800D02*
X191Y800D01*
X198Y800D02*
X204Y800D01*
X212Y800D02*
X217Y800D01*
X778Y800D02*
X779Y800D01*
X789Y800D02*
X794Y800D01*
X804Y800D02*
X805Y800D01*
X826Y800D02*
X827Y800D01*
X847Y800D02*
X854Y800D01*
X872Y800D02*
X877Y800D01*
X898Y800D02*
X904Y800D01*
X140Y799D02*
X147Y799D01*
X159Y799D02*
X166Y799D01*
X185Y799D02*
X191Y799D01*
X198Y799D02*
X204Y799D01*
X212Y799D02*
X217Y799D01*
X789Y799D02*
X794Y799D01*
X846Y799D02*
X853Y799D01*
X872Y799D02*
X877Y799D01*
X898Y799D02*
X904Y799D01*
X141Y798D02*
X148Y798D01*
X158Y798D02*
X165Y798D01*
X186Y798D02*
X190Y798D01*
X198Y798D02*
X204Y798D01*
X212Y798D02*
X217Y798D01*
X789Y798D02*
X794Y798D01*
X845Y798D02*
X853Y798D01*
X872Y798D02*
X878Y798D01*
X898Y798D02*
X904Y798D01*
X141Y797D02*
X148Y797D01*
X158Y797D02*
X165Y797D01*
X187Y797D02*
X189Y797D01*
X198Y797D02*
X204Y797D01*
X213Y797D02*
X215Y797D01*
X789Y797D02*
X794Y797D01*
X844Y797D02*
X852Y797D01*
X872Y797D02*
X878Y797D01*
X898Y797D02*
X904Y797D01*
X142Y796D02*
X149Y796D01*
X157Y796D02*
X164Y796D01*
X198Y796D02*
X204Y796D01*
X789Y796D02*
X794Y796D01*
X843Y796D02*
X851Y796D01*
X872Y796D02*
X879Y796D01*
X898Y796D02*
X904Y796D01*
X143Y795D02*
X149Y795D01*
X157Y795D02*
X163Y795D01*
X198Y795D02*
X204Y795D01*
X789Y795D02*
X794Y795D01*
X843Y795D02*
X850Y795D01*
X872Y795D02*
X904Y795D01*
X143Y794D02*
X150Y794D01*
X156Y794D02*
X163Y794D01*
X198Y794D02*
X204Y794D01*
X789Y794D02*
X794Y794D01*
X842Y794D02*
X850Y794D01*
X873Y794D02*
X904Y794D01*
X144Y793D02*
X151Y793D01*
X155Y793D02*
X162Y793D01*
X198Y793D02*
X204Y793D01*
X789Y793D02*
X794Y793D01*
X841Y793D02*
X849Y793D01*
X873Y793D02*
X904Y793D01*
X144Y792D02*
X151Y792D01*
X155Y792D02*
X162Y792D01*
X198Y792D02*
X204Y792D01*
X789Y792D02*
X794Y792D01*
X840Y792D02*
X848Y792D01*
X874Y792D02*
X904Y792D01*
X145Y791D02*
X152Y791D01*
X154Y791D02*
X161Y791D01*
X198Y791D02*
X204Y791D01*
X789Y791D02*
X794Y791D01*
X840Y791D02*
X847Y791D01*
X875Y791D02*
X904Y791D01*
X145Y790D02*
X161Y790D01*
X198Y790D02*
X204Y790D01*
X789Y790D02*
X794Y790D01*
X839Y790D02*
X846Y790D01*
X877Y790D02*
X904Y790D01*
X146Y789D02*
X160Y789D01*
X198Y789D02*
X204Y789D01*
X789Y789D02*
X794Y789D01*
X838Y789D02*
X846Y789D01*
X879Y789D02*
X904Y789D01*
X147Y788D02*
X159Y788D01*
X198Y788D02*
X204Y788D01*
X789Y788D02*
X794Y788D01*
X837Y788D02*
X845Y788D01*
X885Y788D02*
X892Y788D01*
X898Y788D02*
X904Y788D01*
X147Y787D02*
X159Y787D01*
X198Y787D02*
X204Y787D01*
X789Y787D02*
X794Y787D01*
X837Y787D02*
X844Y787D01*
X885Y787D02*
X892Y787D01*
X898Y787D02*
X904Y787D01*
X148Y786D02*
X158Y786D01*
X198Y786D02*
X204Y786D01*
X789Y786D02*
X794Y786D01*
X836Y786D02*
X843Y786D01*
X884Y786D02*
X891Y786D01*
X898Y786D02*
X904Y786D01*
X148Y785D02*
X158Y785D01*
X198Y785D02*
X204Y785D01*
X789Y785D02*
X794Y785D01*
X835Y785D02*
X843Y785D01*
X884Y785D02*
X890Y785D01*
X898Y785D02*
X904Y785D01*
X149Y784D02*
X157Y784D01*
X198Y784D02*
X204Y784D01*
X789Y784D02*
X794Y784D01*
X834Y784D02*
X842Y784D01*
X883Y784D02*
X890Y784D01*
X898Y784D02*
X904Y784D01*
X149Y783D02*
X157Y783D01*
X198Y783D02*
X204Y783D01*
X789Y783D02*
X794Y783D01*
X833Y783D02*
X841Y783D01*
X882Y783D02*
X889Y783D01*
X898Y783D02*
X904Y783D01*
X149Y782D02*
X157Y782D01*
X198Y782D02*
X204Y782D01*
X789Y782D02*
X794Y782D01*
X833Y782D02*
X840Y782D01*
X882Y782D02*
X889Y782D01*
X898Y782D02*
X904Y782D01*
X148Y781D02*
X158Y781D01*
X198Y781D02*
X204Y781D01*
X789Y781D02*
X794Y781D01*
X832Y781D02*
X839Y781D01*
X881Y781D02*
X888Y781D01*
X898Y781D02*
X904Y781D01*
X148Y780D02*
X158Y780D01*
X198Y780D02*
X204Y780D01*
X789Y780D02*
X794Y780D01*
X831Y780D02*
X839Y780D01*
X881Y780D02*
X888Y780D01*
X898Y780D02*
X904Y780D01*
X147Y779D02*
X159Y779D01*
X198Y779D02*
X204Y779D01*
X789Y779D02*
X794Y779D01*
X830Y779D02*
X838Y779D01*
X880Y779D02*
X887Y779D01*
X898Y779D02*
X904Y779D01*
X147Y778D02*
X159Y778D01*
X198Y778D02*
X204Y778D01*
X789Y778D02*
X794Y778D01*
X830Y778D02*
X837Y778D01*
X880Y778D02*
X886Y778D01*
X898Y778D02*
X904Y778D01*
X146Y777D02*
X160Y777D01*
X198Y777D02*
X204Y777D01*
X789Y777D02*
X794Y777D01*
X829Y777D02*
X836Y777D01*
X879Y777D02*
X886Y777D01*
X898Y777D02*
X904Y777D01*
X146Y776D02*
X160Y776D01*
X198Y776D02*
X204Y776D01*
X789Y776D02*
X794Y776D01*
X828Y776D02*
X836Y776D01*
X878Y776D02*
X885Y776D01*
X898Y776D02*
X904Y776D01*
X145Y775D02*
X152Y775D01*
X154Y775D02*
X161Y775D01*
X198Y775D02*
X204Y775D01*
X789Y775D02*
X794Y775D01*
X827Y775D02*
X835Y775D01*
X878Y775D02*
X885Y775D01*
X898Y775D02*
X904Y775D01*
X144Y774D02*
X151Y774D01*
X155Y774D02*
X162Y774D01*
X198Y774D02*
X204Y774D01*
X789Y774D02*
X794Y774D01*
X826Y774D02*
X834Y774D01*
X877Y774D02*
X884Y774D01*
X898Y774D02*
X904Y774D01*
X144Y773D02*
X151Y773D01*
X155Y773D02*
X162Y773D01*
X198Y773D02*
X204Y773D01*
X789Y773D02*
X794Y773D01*
X826Y773D02*
X833Y773D01*
X877Y773D02*
X883Y773D01*
X898Y773D02*
X904Y773D01*
X143Y772D02*
X150Y772D01*
X156Y772D02*
X163Y772D01*
X198Y772D02*
X204Y772D01*
X789Y772D02*
X794Y772D01*
X825Y772D02*
X832Y772D01*
X851Y772D02*
X854Y772D01*
X876Y772D02*
X883Y772D01*
X898Y772D02*
X904Y772D01*
X143Y771D02*
X149Y771D01*
X157Y771D02*
X163Y771D01*
X198Y771D02*
X204Y771D01*
X789Y771D02*
X794Y771D01*
X824Y771D02*
X832Y771D01*
X851Y771D02*
X855Y771D01*
X875Y771D02*
X882Y771D01*
X898Y771D02*
X904Y771D01*
X142Y770D02*
X149Y770D01*
X157Y770D02*
X164Y770D01*
X198Y770D02*
X204Y770D01*
X789Y770D02*
X794Y770D01*
X824Y770D02*
X831Y770D01*
X850Y770D02*
X856Y770D01*
X875Y770D02*
X882Y770D01*
X898Y770D02*
X904Y770D01*
X141Y769D02*
X148Y769D01*
X158Y769D02*
X165Y769D01*
X198Y769D02*
X204Y769D01*
X789Y769D02*
X794Y769D01*
X824Y769D02*
X830Y769D01*
X850Y769D02*
X856Y769D01*
X874Y769D02*
X881Y769D01*
X898Y769D02*
X904Y769D01*
X141Y768D02*
X148Y768D01*
X158Y768D02*
X165Y768D01*
X198Y768D02*
X204Y768D01*
X789Y768D02*
X794Y768D01*
X824Y768D02*
X829Y768D01*
X850Y768D02*
X856Y768D01*
X874Y768D02*
X881Y768D01*
X898Y768D02*
X904Y768D01*
X140Y767D02*
X147Y767D01*
X159Y767D02*
X166Y767D01*
X198Y767D02*
X204Y767D01*
X789Y767D02*
X794Y767D01*
X824Y767D02*
X830Y767D01*
X848Y767D02*
X855Y767D01*
X873Y767D02*
X880Y767D01*
X898Y767D02*
X904Y767D01*
X140Y766D02*
X146Y766D01*
X159Y766D02*
X166Y766D01*
X198Y766D02*
X204Y766D01*
X789Y766D02*
X794Y766D01*
X824Y766D02*
X855Y766D01*
X873Y766D02*
X879Y766D01*
X898Y766D02*
X904Y766D01*
X139Y765D02*
X146Y765D01*
X160Y765D02*
X167Y765D01*
X198Y765D02*
X204Y765D01*
X789Y765D02*
X794Y765D01*
X824Y765D02*
X855Y765D01*
X872Y765D02*
X879Y765D01*
X898Y765D02*
X904Y765D01*
X138Y764D02*
X145Y764D01*
X161Y764D02*
X168Y764D01*
X198Y764D02*
X204Y764D01*
X789Y764D02*
X794Y764D01*
X825Y764D02*
X854Y764D01*
X872Y764D02*
X878Y764D01*
X898Y764D02*
X904Y764D01*
X138Y763D02*
X145Y763D01*
X161Y763D02*
X168Y763D01*
X198Y763D02*
X204Y763D01*
X789Y763D02*
X794Y763D01*
X825Y763D02*
X853Y763D01*
X872Y763D02*
X878Y763D01*
X898Y763D02*
X904Y763D01*
X137Y762D02*
X144Y762D01*
X162Y762D02*
X169Y762D01*
X198Y762D02*
X204Y762D01*
X789Y762D02*
X794Y762D01*
X826Y762D02*
X852Y762D01*
X872Y762D02*
X877Y762D01*
X899Y762D02*
X903Y762D01*
X137Y761D02*
X144Y761D01*
X162Y761D02*
X169Y761D01*
X198Y761D02*
X204Y761D01*
X790Y761D02*
X793Y761D01*
X828Y761D02*
X850Y761D01*
X873Y761D02*
X876Y761D01*
X899Y761D02*
X903Y761D01*
X137Y760D02*
X143Y760D01*
X163Y760D02*
X169Y760D01*
X198Y760D02*
X204Y760D01*
X137Y759D02*
X142Y759D01*
X164Y759D02*
X169Y759D01*
X199Y759D02*
X204Y759D01*
X138Y758D02*
X142Y758D01*
X164Y758D02*
X168Y758D01*
X199Y758D02*
X203Y758D01*
X828Y712D02*
X849Y712D01*
X886Y712D02*
X887Y712D01*
X826Y711D02*
X851Y711D01*
X885Y711D02*
X889Y711D01*
X824Y710D02*
X853Y710D01*
X884Y710D02*
X889Y710D01*
X824Y709D02*
X853Y709D01*
X884Y709D02*
X890Y709D01*
X139Y708D02*
X142Y708D01*
X165Y708D02*
X169Y708D01*
X192Y708D02*
X218Y708D01*
X823Y708D02*
X854Y708D01*
X883Y708D02*
X890Y708D01*
X138Y707D02*
X143Y707D01*
X164Y707D02*
X169Y707D01*
X190Y707D02*
X218Y707D01*
X823Y707D02*
X854Y707D01*
X883Y707D02*
X890Y707D01*
X138Y706D02*
X144Y706D01*
X164Y706D02*
X170Y706D01*
X189Y706D02*
X218Y706D01*
X822Y706D02*
X855Y706D01*
X883Y706D02*
X891Y706D01*
X138Y705D02*
X144Y705D01*
X163Y705D02*
X170Y705D01*
X188Y705D02*
X218Y705D01*
X822Y705D02*
X828Y705D01*
X849Y705D02*
X855Y705D01*
X883Y705D02*
X891Y705D01*
X138Y704D02*
X145Y704D01*
X163Y704D02*
X169Y704D01*
X187Y704D02*
X218Y704D01*
X822Y704D02*
X828Y704D01*
X849Y704D02*
X855Y704D01*
X882Y704D02*
X891Y704D01*
X139Y703D02*
X145Y703D01*
X162Y703D02*
X169Y703D01*
X187Y703D02*
X218Y703D01*
X822Y703D02*
X828Y703D01*
X849Y703D02*
X855Y703D01*
X882Y703D02*
X891Y703D01*
X139Y702D02*
X146Y702D01*
X162Y702D02*
X168Y702D01*
X186Y702D02*
X194Y702D01*
X212Y702D02*
X218Y702D01*
X822Y702D02*
X828Y702D01*
X849Y702D02*
X855Y702D01*
X882Y702D02*
X892Y702D01*
X140Y701D02*
X147Y701D01*
X161Y701D02*
X168Y701D01*
X186Y701D02*
X193Y701D01*
X212Y701D02*
X218Y701D01*
X822Y701D02*
X828Y701D01*
X849Y701D02*
X855Y701D01*
X881Y701D02*
X892Y701D01*
X140Y700D02*
X147Y700D01*
X160Y700D02*
X167Y700D01*
X186Y700D02*
X192Y700D01*
X212Y700D02*
X218Y700D01*
X822Y700D02*
X828Y700D01*
X849Y700D02*
X855Y700D01*
X881Y700D02*
X892Y700D01*
X141Y699D02*
X148Y699D01*
X160Y699D02*
X167Y699D01*
X186Y699D02*
X192Y699D01*
X212Y699D02*
X218Y699D01*
X822Y699D02*
X828Y699D01*
X849Y699D02*
X855Y699D01*
X881Y699D02*
X893Y699D01*
X142Y698D02*
X148Y698D01*
X159Y698D02*
X166Y698D01*
X186Y698D02*
X192Y698D01*
X212Y698D02*
X218Y698D01*
X822Y698D02*
X828Y698D01*
X849Y698D02*
X855Y698D01*
X881Y698D02*
X893Y698D01*
X142Y697D02*
X149Y697D01*
X159Y697D02*
X165Y697D01*
X186Y697D02*
X192Y697D01*
X212Y697D02*
X218Y697D01*
X822Y697D02*
X828Y697D01*
X849Y697D02*
X855Y697D01*
X880Y697D02*
X893Y697D01*
X143Y696D02*
X150Y696D01*
X158Y696D02*
X165Y696D01*
X186Y696D02*
X192Y696D01*
X212Y696D02*
X218Y696D01*
X822Y696D02*
X828Y696D01*
X849Y696D02*
X855Y696D01*
X880Y696D02*
X893Y696D01*
X143Y695D02*
X150Y695D01*
X157Y695D02*
X164Y695D01*
X186Y695D02*
X192Y695D01*
X212Y695D02*
X218Y695D01*
X822Y695D02*
X828Y695D01*
X849Y695D02*
X855Y695D01*
X880Y695D02*
X886Y695D01*
X888Y695D02*
X894Y695D01*
X144Y694D02*
X151Y694D01*
X157Y694D02*
X164Y694D01*
X186Y694D02*
X192Y694D01*
X212Y694D02*
X218Y694D01*
X822Y694D02*
X828Y694D01*
X849Y694D02*
X855Y694D01*
X879Y694D02*
X885Y694D01*
X888Y694D02*
X894Y694D01*
X144Y693D02*
X151Y693D01*
X156Y693D02*
X163Y693D01*
X186Y693D02*
X193Y693D01*
X212Y693D02*
X218Y693D01*
X822Y693D02*
X828Y693D01*
X849Y693D02*
X855Y693D01*
X879Y693D02*
X885Y693D01*
X888Y693D02*
X894Y693D01*
X145Y692D02*
X152Y692D01*
X156Y692D02*
X163Y692D01*
X186Y692D02*
X194Y692D01*
X212Y692D02*
X218Y692D01*
X822Y692D02*
X828Y692D01*
X849Y692D02*
X855Y692D01*
X879Y692D02*
X885Y692D01*
X889Y692D02*
X895Y692D01*
X146Y691D02*
X152Y691D01*
X155Y691D02*
X162Y691D01*
X187Y691D02*
X218Y691D01*
X822Y691D02*
X828Y691D01*
X849Y691D02*
X855Y691D01*
X878Y691D02*
X885Y691D01*
X889Y691D02*
X895Y691D01*
X146Y690D02*
X161Y690D01*
X187Y690D02*
X218Y690D01*
X822Y690D02*
X828Y690D01*
X849Y690D02*
X855Y690D01*
X878Y690D02*
X884Y690D01*
X889Y690D02*
X895Y690D01*
X147Y689D02*
X161Y689D01*
X188Y689D02*
X218Y689D01*
X822Y689D02*
X828Y689D01*
X849Y689D02*
X855Y689D01*
X878Y689D02*
X884Y689D01*
X889Y689D02*
X895Y689D01*
X147Y688D02*
X160Y688D01*
X189Y688D02*
X218Y688D01*
X822Y688D02*
X828Y688D01*
X849Y688D02*
X855Y688D01*
X878Y688D02*
X884Y688D01*
X890Y688D02*
X896Y688D01*
X148Y687D02*
X160Y687D01*
X190Y687D02*
X218Y687D01*
X822Y687D02*
X828Y687D01*
X849Y687D02*
X855Y687D01*
X877Y687D02*
X883Y687D01*
X890Y687D02*
X896Y687D01*
X149Y686D02*
X159Y686D01*
X192Y686D02*
X218Y686D01*
X822Y686D02*
X828Y686D01*
X849Y686D02*
X855Y686D01*
X877Y686D02*
X883Y686D01*
X890Y686D02*
X896Y686D01*
X149Y685D02*
X158Y685D01*
X199Y685D02*
X207Y685D01*
X212Y685D02*
X218Y685D01*
X822Y685D02*
X828Y685D01*
X849Y685D02*
X855Y685D01*
X877Y685D02*
X883Y685D01*
X891Y685D02*
X897Y685D01*
X150Y684D02*
X158Y684D01*
X199Y684D02*
X206Y684D01*
X212Y684D02*
X218Y684D01*
X822Y684D02*
X828Y684D01*
X849Y684D02*
X855Y684D01*
X876Y684D02*
X882Y684D01*
X891Y684D02*
X897Y684D01*
X150Y683D02*
X157Y683D01*
X199Y683D02*
X205Y683D01*
X212Y683D02*
X218Y683D01*
X822Y683D02*
X828Y683D01*
X849Y683D02*
X855Y683D01*
X876Y683D02*
X882Y683D01*
X891Y683D02*
X897Y683D01*
X150Y682D02*
X158Y682D01*
X198Y682D02*
X205Y682D01*
X212Y682D02*
X218Y682D01*
X822Y682D02*
X828Y682D01*
X849Y682D02*
X855Y682D01*
X876Y682D02*
X882Y682D01*
X892Y682D02*
X898Y682D01*
X149Y681D02*
X158Y681D01*
X197Y681D02*
X204Y681D01*
X212Y681D02*
X218Y681D01*
X822Y681D02*
X828Y681D01*
X849Y681D02*
X855Y681D01*
X876Y681D02*
X882Y681D01*
X892Y681D02*
X898Y681D01*
X149Y680D02*
X159Y680D01*
X197Y680D02*
X204Y680D01*
X212Y680D02*
X218Y680D01*
X822Y680D02*
X828Y680D01*
X849Y680D02*
X855Y680D01*
X875Y680D02*
X881Y680D01*
X892Y680D02*
X898Y680D01*
X148Y679D02*
X159Y679D01*
X196Y679D02*
X203Y679D01*
X212Y679D02*
X218Y679D01*
X822Y679D02*
X828Y679D01*
X849Y679D02*
X855Y679D01*
X875Y679D02*
X881Y679D01*
X892Y679D02*
X898Y679D01*
X148Y678D02*
X160Y678D01*
X196Y678D02*
X202Y678D01*
X212Y678D02*
X218Y678D01*
X822Y678D02*
X828Y678D01*
X849Y678D02*
X855Y678D01*
X875Y678D02*
X899Y678D01*
X147Y677D02*
X161Y677D01*
X195Y677D02*
X202Y677D01*
X212Y677D02*
X218Y677D01*
X822Y677D02*
X828Y677D01*
X849Y677D02*
X855Y677D01*
X874Y677D02*
X899Y677D01*
X146Y676D02*
X161Y676D01*
X194Y676D02*
X201Y676D01*
X212Y676D02*
X218Y676D01*
X822Y676D02*
X828Y676D01*
X849Y676D02*
X855Y676D01*
X874Y676D02*
X899Y676D01*
X146Y675D02*
X153Y675D01*
X155Y675D02*
X162Y675D01*
X194Y675D02*
X201Y675D01*
X212Y675D02*
X218Y675D01*
X822Y675D02*
X828Y675D01*
X849Y675D02*
X855Y675D01*
X874Y675D02*
X900Y675D01*
X145Y674D02*
X152Y674D01*
X156Y674D02*
X162Y674D01*
X193Y674D02*
X200Y674D01*
X212Y674D02*
X218Y674D01*
X822Y674D02*
X828Y674D01*
X849Y674D02*
X855Y674D01*
X874Y674D02*
X900Y674D01*
X145Y673D02*
X151Y673D01*
X156Y673D02*
X163Y673D01*
X193Y673D02*
X200Y673D01*
X212Y673D02*
X218Y673D01*
X822Y673D02*
X828Y673D01*
X849Y673D02*
X855Y673D01*
X873Y673D02*
X900Y673D01*
X144Y672D02*
X151Y672D01*
X157Y672D02*
X164Y672D01*
X192Y672D02*
X199Y672D01*
X212Y672D02*
X218Y672D01*
X822Y672D02*
X828Y672D01*
X849Y672D02*
X855Y672D01*
X873Y672D02*
X900Y672D01*
X143Y671D02*
X150Y671D01*
X157Y671D02*
X164Y671D01*
X192Y671D02*
X198Y671D01*
X212Y671D02*
X218Y671D01*
X822Y671D02*
X828Y671D01*
X849Y671D02*
X855Y671D01*
X873Y671D02*
X879Y671D01*
X895Y671D02*
X901Y671D01*
X143Y670D02*
X150Y670D01*
X158Y670D02*
X165Y670D01*
X191Y670D02*
X198Y670D01*
X212Y670D02*
X218Y670D01*
X822Y670D02*
X828Y670D01*
X849Y670D02*
X855Y670D01*
X872Y670D02*
X878Y670D01*
X895Y670D02*
X901Y670D01*
X142Y669D02*
X149Y669D01*
X158Y669D02*
X165Y669D01*
X190Y669D02*
X197Y669D01*
X212Y669D02*
X218Y669D01*
X822Y669D02*
X828Y669D01*
X849Y669D02*
X855Y669D01*
X872Y669D02*
X878Y669D01*
X895Y669D02*
X901Y669D01*
X142Y668D02*
X148Y668D01*
X159Y668D02*
X166Y668D01*
X190Y668D02*
X197Y668D01*
X212Y668D02*
X218Y668D01*
X822Y668D02*
X828Y668D01*
X849Y668D02*
X855Y668D01*
X872Y668D02*
X878Y668D01*
X896Y668D02*
X902Y668D01*
X141Y667D02*
X148Y667D01*
X160Y667D02*
X166Y667D01*
X189Y667D02*
X196Y667D01*
X212Y667D02*
X218Y667D01*
X822Y667D02*
X829Y667D01*
X848Y667D02*
X855Y667D01*
X871Y667D02*
X877Y667D01*
X896Y667D02*
X902Y667D01*
X140Y666D02*
X147Y666D01*
X160Y666D02*
X167Y666D01*
X189Y666D02*
X195Y666D01*
X212Y666D02*
X218Y666D01*
X823Y666D02*
X855Y666D01*
X871Y666D02*
X877Y666D01*
X896Y666D02*
X902Y666D01*
X140Y665D02*
X147Y665D01*
X161Y665D02*
X168Y665D01*
X188Y665D02*
X195Y665D01*
X212Y665D02*
X218Y665D01*
X823Y665D02*
X854Y665D01*
X871Y665D02*
X877Y665D01*
X897Y665D02*
X903Y665D01*
X139Y664D02*
X146Y664D01*
X161Y664D02*
X168Y664D01*
X187Y664D02*
X194Y664D01*
X212Y664D02*
X218Y664D01*
X823Y664D02*
X854Y664D01*
X871Y664D02*
X877Y664D01*
X897Y664D02*
X903Y664D01*
X139Y663D02*
X146Y663D01*
X162Y663D02*
X169Y663D01*
X187Y663D02*
X194Y663D01*
X212Y663D02*
X218Y663D01*
X824Y663D02*
X853Y663D01*
X871Y663D02*
X876Y663D01*
X897Y663D02*
X903Y663D01*
X138Y662D02*
X145Y662D01*
X163Y662D02*
X169Y662D01*
X186Y662D02*
X193Y662D01*
X212Y662D02*
X218Y662D01*
X825Y662D02*
X852Y662D01*
X871Y662D02*
X876Y662D01*
X898Y662D02*
X902Y662D01*
X138Y661D02*
X144Y661D01*
X163Y661D02*
X170Y661D01*
X186Y661D02*
X193Y661D01*
X212Y661D02*
X218Y661D01*
X826Y661D02*
X851Y661D01*
X872Y661D02*
X875Y661D01*
X898Y661D02*
X902Y661D01*
X138Y660D02*
X144Y660D01*
X164Y660D02*
X170Y660D01*
X186Y660D02*
X192Y660D01*
X212Y660D02*
X218Y660D01*
X138Y659D02*
X143Y659D01*
X164Y659D02*
X170Y659D01*
X186Y659D02*
X191Y659D01*
X213Y659D02*
X218Y659D01*
X139Y658D02*
X142Y658D01*
X165Y658D02*
X169Y658D01*
X187Y658D02*
X191Y658D01*
X213Y658D02*
X217Y658D01*
X141Y657D02*
X141Y657D01*
X167Y657D02*
X167Y657D01*
X189Y657D02*
X189Y657D01*
X215Y657D02*
X215Y657D01*
X828Y610D02*
X851Y610D01*
X886Y610D02*
X902Y610D01*
X150Y609D02*
X167Y609D01*
X199Y609D02*
X216Y609D01*
X826Y609D02*
X853Y609D01*
X884Y609D02*
X903Y609D01*
X150Y608D02*
X168Y608D01*
X197Y608D02*
X217Y608D01*
X825Y608D02*
X854Y608D01*
X882Y608D02*
X903Y608D01*
X150Y607D02*
X169Y607D01*
X196Y607D02*
X217Y607D01*
X824Y607D02*
X854Y607D01*
X881Y607D02*
X903Y607D01*
X150Y606D02*
X169Y606D01*
X195Y606D02*
X217Y606D01*
X824Y606D02*
X855Y606D01*
X881Y606D02*
X903Y606D01*
X150Y605D02*
X169Y605D01*
X194Y605D02*
X217Y605D01*
X823Y605D02*
X855Y605D01*
X880Y605D02*
X903Y605D01*
X150Y604D02*
X168Y604D01*
X194Y604D02*
X216Y604D01*
X823Y604D02*
X855Y604D01*
X879Y604D02*
X901Y604D01*
X150Y603D02*
X167Y603D01*
X193Y603D02*
X215Y603D01*
X823Y603D02*
X829Y603D01*
X850Y603D02*
X855Y603D01*
X879Y603D02*
X886Y603D01*
X891Y603D02*
X897Y603D01*
X150Y602D02*
X156Y602D01*
X193Y602D02*
X199Y602D01*
X205Y602D02*
X211Y602D01*
X823Y602D02*
X829Y602D01*
X850Y602D02*
X855Y602D01*
X878Y602D02*
X885Y602D01*
X891Y602D02*
X897Y602D01*
X150Y601D02*
X156Y601D01*
X192Y601D02*
X199Y601D01*
X205Y601D02*
X211Y601D01*
X823Y601D02*
X829Y601D01*
X850Y601D02*
X855Y601D01*
X878Y601D02*
X884Y601D01*
X891Y601D02*
X897Y601D01*
X150Y600D02*
X156Y600D01*
X192Y600D02*
X198Y600D01*
X205Y600D02*
X211Y600D01*
X823Y600D02*
X829Y600D01*
X850Y600D02*
X855Y600D01*
X877Y600D02*
X884Y600D01*
X891Y600D02*
X897Y600D01*
X150Y599D02*
X156Y599D01*
X191Y599D02*
X198Y599D01*
X205Y599D02*
X211Y599D01*
X823Y599D02*
X829Y599D01*
X850Y599D02*
X855Y599D01*
X877Y599D02*
X883Y599D01*
X891Y599D02*
X897Y599D01*
X150Y598D02*
X156Y598D01*
X191Y598D02*
X197Y598D01*
X205Y598D02*
X211Y598D01*
X823Y598D02*
X829Y598D01*
X850Y598D02*
X855Y598D01*
X876Y598D02*
X883Y598D01*
X891Y598D02*
X897Y598D01*
X150Y597D02*
X156Y597D01*
X190Y597D02*
X197Y597D01*
X205Y597D02*
X211Y597D01*
X823Y597D02*
X829Y597D01*
X850Y597D02*
X855Y597D01*
X876Y597D02*
X882Y597D01*
X891Y597D02*
X897Y597D01*
X150Y596D02*
X156Y596D01*
X190Y596D02*
X196Y596D01*
X205Y596D02*
X211Y596D01*
X823Y596D02*
X829Y596D01*
X850Y596D02*
X855Y596D01*
X875Y596D02*
X882Y596D01*
X891Y596D02*
X897Y596D01*
X150Y595D02*
X156Y595D01*
X189Y595D02*
X196Y595D01*
X205Y595D02*
X211Y595D01*
X823Y595D02*
X829Y595D01*
X850Y595D02*
X855Y595D01*
X875Y595D02*
X881Y595D01*
X891Y595D02*
X897Y595D01*
X150Y594D02*
X156Y594D01*
X189Y594D02*
X195Y594D01*
X205Y594D02*
X211Y594D01*
X823Y594D02*
X829Y594D01*
X850Y594D02*
X855Y594D01*
X874Y594D02*
X881Y594D01*
X891Y594D02*
X897Y594D01*
X150Y593D02*
X156Y593D01*
X188Y593D02*
X195Y593D01*
X205Y593D02*
X211Y593D01*
X823Y593D02*
X829Y593D01*
X850Y593D02*
X855Y593D01*
X874Y593D02*
X880Y593D01*
X891Y593D02*
X897Y593D01*
X150Y592D02*
X156Y592D01*
X188Y592D02*
X194Y592D01*
X205Y592D02*
X211Y592D01*
X823Y592D02*
X829Y592D01*
X850Y592D02*
X855Y592D01*
X873Y592D02*
X880Y592D01*
X891Y592D02*
X897Y592D01*
X150Y591D02*
X156Y591D01*
X187Y591D02*
X194Y591D01*
X205Y591D02*
X211Y591D01*
X823Y591D02*
X829Y591D01*
X850Y591D02*
X855Y591D01*
X873Y591D02*
X879Y591D01*
X891Y591D02*
X897Y591D01*
X150Y590D02*
X156Y590D01*
X187Y590D02*
X193Y590D01*
X205Y590D02*
X211Y590D01*
X823Y590D02*
X829Y590D01*
X850Y590D02*
X855Y590D01*
X873Y590D02*
X879Y590D01*
X891Y590D02*
X897Y590D01*
X150Y589D02*
X156Y589D01*
X186Y589D02*
X193Y589D01*
X205Y589D02*
X211Y589D01*
X823Y589D02*
X829Y589D01*
X850Y589D02*
X855Y589D01*
X872Y589D02*
X878Y589D01*
X891Y589D02*
X897Y589D01*
X150Y588D02*
X156Y588D01*
X186Y588D02*
X192Y588D01*
X205Y588D02*
X211Y588D01*
X823Y588D02*
X829Y588D01*
X850Y588D02*
X855Y588D01*
X872Y588D02*
X878Y588D01*
X891Y588D02*
X897Y588D01*
X150Y587D02*
X156Y587D01*
X185Y587D02*
X192Y587D01*
X205Y587D02*
X211Y587D01*
X823Y587D02*
X829Y587D01*
X850Y587D02*
X855Y587D01*
X872Y587D02*
X877Y587D01*
X891Y587D02*
X897Y587D01*
X150Y586D02*
X156Y586D01*
X185Y586D02*
X191Y586D01*
X205Y586D02*
X211Y586D01*
X823Y586D02*
X829Y586D01*
X850Y586D02*
X855Y586D01*
X872Y586D02*
X877Y586D01*
X891Y586D02*
X897Y586D01*
X150Y585D02*
X156Y585D01*
X185Y585D02*
X191Y585D01*
X205Y585D02*
X211Y585D01*
X823Y585D02*
X829Y585D01*
X850Y585D02*
X855Y585D01*
X871Y585D02*
X877Y585D01*
X891Y585D02*
X897Y585D01*
X150Y584D02*
X156Y584D01*
X185Y584D02*
X191Y584D01*
X205Y584D02*
X211Y584D01*
X823Y584D02*
X829Y584D01*
X850Y584D02*
X855Y584D01*
X871Y584D02*
X877Y584D01*
X891Y584D02*
X897Y584D01*
X150Y583D02*
X156Y583D01*
X185Y583D02*
X191Y583D01*
X205Y583D02*
X211Y583D01*
X823Y583D02*
X829Y583D01*
X850Y583D02*
X855Y583D01*
X872Y583D02*
X877Y583D01*
X891Y583D02*
X897Y583D01*
X150Y582D02*
X156Y582D01*
X185Y582D02*
X191Y582D01*
X205Y582D02*
X211Y582D01*
X823Y582D02*
X829Y582D01*
X850Y582D02*
X855Y582D01*
X872Y582D02*
X878Y582D01*
X891Y582D02*
X897Y582D01*
X139Y581D02*
X141Y581D01*
X150Y581D02*
X156Y581D01*
X185Y581D02*
X191Y581D01*
X205Y581D02*
X211Y581D01*
X823Y581D02*
X829Y581D01*
X850Y581D02*
X855Y581D01*
X872Y581D02*
X878Y581D01*
X891Y581D02*
X897Y581D01*
X138Y580D02*
X142Y580D01*
X150Y580D02*
X156Y580D01*
X186Y580D02*
X192Y580D01*
X205Y580D02*
X211Y580D01*
X823Y580D02*
X829Y580D01*
X850Y580D02*
X855Y580D01*
X872Y580D02*
X878Y580D01*
X891Y580D02*
X897Y580D01*
X137Y579D02*
X142Y579D01*
X150Y579D02*
X156Y579D01*
X186Y579D02*
X192Y579D01*
X205Y579D02*
X211Y579D01*
X823Y579D02*
X829Y579D01*
X850Y579D02*
X855Y579D01*
X873Y579D02*
X879Y579D01*
X891Y579D02*
X897Y579D01*
X137Y578D02*
X143Y578D01*
X150Y578D02*
X156Y578D01*
X186Y578D02*
X193Y578D01*
X205Y578D02*
X211Y578D01*
X823Y578D02*
X829Y578D01*
X850Y578D02*
X855Y578D01*
X873Y578D02*
X879Y578D01*
X891Y578D02*
X897Y578D01*
X137Y577D02*
X143Y577D01*
X150Y577D02*
X156Y577D01*
X187Y577D02*
X193Y577D01*
X205Y577D02*
X211Y577D01*
X823Y577D02*
X829Y577D01*
X850Y577D02*
X855Y577D01*
X873Y577D02*
X880Y577D01*
X891Y577D02*
X897Y577D01*
X137Y576D02*
X143Y576D01*
X150Y576D02*
X156Y576D01*
X187Y576D02*
X194Y576D01*
X205Y576D02*
X211Y576D01*
X823Y576D02*
X829Y576D01*
X850Y576D02*
X855Y576D01*
X874Y576D02*
X880Y576D01*
X891Y576D02*
X897Y576D01*
X137Y575D02*
X143Y575D01*
X150Y575D02*
X156Y575D01*
X188Y575D02*
X194Y575D01*
X205Y575D02*
X211Y575D01*
X823Y575D02*
X829Y575D01*
X850Y575D02*
X855Y575D01*
X874Y575D02*
X881Y575D01*
X891Y575D02*
X897Y575D01*
X137Y574D02*
X143Y574D01*
X150Y574D02*
X156Y574D01*
X188Y574D02*
X195Y574D01*
X205Y574D02*
X211Y574D01*
X823Y574D02*
X829Y574D01*
X850Y574D02*
X855Y574D01*
X875Y574D02*
X881Y574D01*
X891Y574D02*
X897Y574D01*
X137Y573D02*
X143Y573D01*
X150Y573D02*
X156Y573D01*
X189Y573D02*
X195Y573D01*
X205Y573D02*
X211Y573D01*
X823Y573D02*
X829Y573D01*
X850Y573D02*
X855Y573D01*
X875Y573D02*
X882Y573D01*
X891Y573D02*
X897Y573D01*
X137Y572D02*
X143Y572D01*
X150Y572D02*
X156Y572D01*
X189Y572D02*
X196Y572D01*
X205Y572D02*
X211Y572D01*
X823Y572D02*
X829Y572D01*
X850Y572D02*
X855Y572D01*
X876Y572D02*
X882Y572D01*
X891Y572D02*
X897Y572D01*
X137Y571D02*
X143Y571D01*
X150Y571D02*
X156Y571D01*
X190Y571D02*
X196Y571D01*
X205Y571D02*
X211Y571D01*
X823Y571D02*
X829Y571D01*
X850Y571D02*
X855Y571D01*
X876Y571D02*
X883Y571D01*
X891Y571D02*
X897Y571D01*
X137Y570D02*
X143Y570D01*
X150Y570D02*
X156Y570D01*
X190Y570D02*
X197Y570D01*
X205Y570D02*
X211Y570D01*
X823Y570D02*
X829Y570D01*
X850Y570D02*
X855Y570D01*
X877Y570D02*
X883Y570D01*
X891Y570D02*
X897Y570D01*
X137Y569D02*
X143Y569D01*
X150Y569D02*
X156Y569D01*
X191Y569D02*
X197Y569D01*
X205Y569D02*
X211Y569D01*
X823Y569D02*
X829Y569D01*
X850Y569D02*
X855Y569D01*
X877Y569D02*
X884Y569D01*
X891Y569D02*
X897Y569D01*
X137Y568D02*
X143Y568D01*
X150Y568D02*
X156Y568D01*
X191Y568D02*
X198Y568D01*
X205Y568D02*
X211Y568D01*
X823Y568D02*
X829Y568D01*
X850Y568D02*
X855Y568D01*
X878Y568D02*
X884Y568D01*
X891Y568D02*
X897Y568D01*
X137Y567D02*
X143Y567D01*
X150Y567D02*
X156Y567D01*
X192Y567D02*
X198Y567D01*
X205Y567D02*
X211Y567D01*
X823Y567D02*
X829Y567D01*
X850Y567D02*
X855Y567D01*
X878Y567D02*
X885Y567D01*
X891Y567D02*
X897Y567D01*
X137Y566D02*
X143Y566D01*
X150Y566D02*
X156Y566D01*
X192Y566D02*
X199Y566D01*
X205Y566D02*
X211Y566D01*
X823Y566D02*
X829Y566D01*
X850Y566D02*
X855Y566D01*
X879Y566D02*
X886Y566D01*
X891Y566D02*
X897Y566D01*
X137Y565D02*
X143Y565D01*
X150Y565D02*
X156Y565D01*
X192Y565D02*
X200Y565D01*
X205Y565D02*
X211Y565D01*
X823Y565D02*
X855Y565D01*
X879Y565D02*
X901Y565D01*
X137Y564D02*
X167Y564D01*
X193Y564D02*
X215Y564D01*
X823Y564D02*
X855Y564D01*
X880Y564D02*
X903Y564D01*
X137Y563D02*
X168Y563D01*
X194Y563D02*
X216Y563D01*
X824Y563D02*
X855Y563D01*
X880Y563D02*
X903Y563D01*
X137Y562D02*
X169Y562D01*
X194Y562D02*
X217Y562D01*
X824Y562D02*
X854Y562D01*
X881Y562D02*
X903Y562D01*
X137Y561D02*
X169Y561D01*
X195Y561D02*
X217Y561D01*
X825Y561D02*
X854Y561D01*
X882Y561D02*
X903Y561D01*
X137Y560D02*
X169Y560D01*
X196Y560D02*
X217Y560D01*
X826Y560D02*
X853Y560D01*
X884Y560D02*
X903Y560D01*
X138Y559D02*
X168Y559D01*
X197Y559D02*
X217Y559D01*
X828Y559D02*
X851Y559D01*
X886Y559D02*
X902Y559D01*
X139Y558D02*
X167Y558D01*
X200Y558D02*
X215Y558D01*
X825Y511D02*
X848Y511D01*
X887Y511D02*
X900Y511D01*
X823Y510D02*
X848Y510D01*
X884Y510D02*
X902Y510D01*
X141Y509D02*
X168Y509D01*
X199Y509D02*
X216Y509D01*
X823Y509D02*
X848Y509D01*
X882Y509D02*
X902Y509D01*
X140Y508D02*
X169Y508D01*
X197Y508D02*
X217Y508D01*
X822Y508D02*
X848Y508D01*
X881Y508D02*
X903Y508D01*
X139Y507D02*
X169Y507D01*
X196Y507D02*
X218Y507D01*
X823Y507D02*
X848Y507D01*
X880Y507D02*
X903Y507D01*
X138Y506D02*
X169Y506D01*
X195Y506D02*
X218Y506D01*
X823Y506D02*
X848Y506D01*
X879Y506D02*
X902Y506D01*
X138Y505D02*
X169Y505D01*
X194Y505D02*
X217Y505D01*
X824Y505D02*
X848Y505D01*
X879Y505D02*
X901Y505D01*
X137Y504D02*
X168Y504D01*
X194Y504D02*
X216Y504D01*
X842Y504D02*
X848Y504D01*
X878Y504D02*
X885Y504D01*
X890Y504D02*
X896Y504D01*
X137Y503D02*
X143Y503D01*
X193Y503D02*
X201Y503D01*
X205Y503D02*
X211Y503D01*
X842Y503D02*
X848Y503D01*
X878Y503D02*
X884Y503D01*
X890Y503D02*
X896Y503D01*
X137Y502D02*
X143Y502D01*
X193Y502D02*
X200Y502D01*
X205Y502D02*
X211Y502D01*
X842Y502D02*
X848Y502D01*
X877Y502D02*
X884Y502D01*
X890Y502D02*
X896Y502D01*
X137Y501D02*
X143Y501D01*
X192Y501D02*
X199Y501D01*
X205Y501D02*
X211Y501D01*
X842Y501D02*
X848Y501D01*
X877Y501D02*
X883Y501D01*
X890Y501D02*
X896Y501D01*
X137Y500D02*
X143Y500D01*
X192Y500D02*
X198Y500D01*
X205Y500D02*
X211Y500D01*
X842Y500D02*
X848Y500D01*
X876Y500D02*
X883Y500D01*
X890Y500D02*
X896Y500D01*
X137Y499D02*
X143Y499D01*
X191Y499D02*
X198Y499D01*
X205Y499D02*
X211Y499D01*
X842Y499D02*
X848Y499D01*
X876Y499D02*
X882Y499D01*
X890Y499D02*
X896Y499D01*
X137Y498D02*
X143Y498D01*
X191Y498D02*
X197Y498D01*
X205Y498D02*
X211Y498D01*
X842Y498D02*
X848Y498D01*
X875Y498D02*
X882Y498D01*
X890Y498D02*
X896Y498D01*
X137Y497D02*
X143Y497D01*
X190Y497D02*
X197Y497D01*
X205Y497D02*
X211Y497D01*
X842Y497D02*
X848Y497D01*
X875Y497D02*
X881Y497D01*
X890Y497D02*
X896Y497D01*
X137Y496D02*
X143Y496D01*
X190Y496D02*
X196Y496D01*
X205Y496D02*
X211Y496D01*
X842Y496D02*
X848Y496D01*
X874Y496D02*
X881Y496D01*
X890Y496D02*
X896Y496D01*
X137Y495D02*
X143Y495D01*
X189Y495D02*
X196Y495D01*
X205Y495D02*
X211Y495D01*
X842Y495D02*
X848Y495D01*
X874Y495D02*
X880Y495D01*
X890Y495D02*
X896Y495D01*
X137Y494D02*
X143Y494D01*
X189Y494D02*
X195Y494D01*
X205Y494D02*
X211Y494D01*
X842Y494D02*
X848Y494D01*
X873Y494D02*
X880Y494D01*
X890Y494D02*
X896Y494D01*
X137Y493D02*
X143Y493D01*
X188Y493D02*
X195Y493D01*
X205Y493D02*
X211Y493D01*
X842Y493D02*
X848Y493D01*
X873Y493D02*
X879Y493D01*
X890Y493D02*
X896Y493D01*
X137Y492D02*
X143Y492D01*
X188Y492D02*
X194Y492D01*
X205Y492D02*
X211Y492D01*
X842Y492D02*
X848Y492D01*
X872Y492D02*
X879Y492D01*
X890Y492D02*
X896Y492D01*
X137Y491D02*
X143Y491D01*
X187Y491D02*
X194Y491D01*
X205Y491D02*
X211Y491D01*
X842Y491D02*
X848Y491D01*
X872Y491D02*
X878Y491D01*
X890Y491D02*
X896Y491D01*
X137Y490D02*
X143Y490D01*
X187Y490D02*
X193Y490D01*
X205Y490D02*
X211Y490D01*
X842Y490D02*
X848Y490D01*
X871Y490D02*
X878Y490D01*
X890Y490D02*
X896Y490D01*
X137Y489D02*
X143Y489D01*
X186Y489D02*
X193Y489D01*
X205Y489D02*
X211Y489D01*
X842Y489D02*
X848Y489D01*
X871Y489D02*
X877Y489D01*
X890Y489D02*
X896Y489D01*
X137Y488D02*
X143Y488D01*
X186Y488D02*
X192Y488D01*
X205Y488D02*
X211Y488D01*
X827Y488D02*
X848Y488D01*
X871Y488D02*
X877Y488D01*
X890Y488D02*
X896Y488D01*
X137Y487D02*
X164Y487D01*
X186Y487D02*
X192Y487D01*
X205Y487D02*
X211Y487D01*
X825Y487D02*
X848Y487D01*
X871Y487D02*
X877Y487D01*
X890Y487D02*
X896Y487D01*
X137Y486D02*
X166Y486D01*
X186Y486D02*
X191Y486D01*
X205Y486D02*
X211Y486D01*
X824Y486D02*
X848Y486D01*
X871Y486D02*
X876Y486D01*
X890Y486D02*
X896Y486D01*
X138Y485D02*
X168Y485D01*
X186Y485D02*
X191Y485D01*
X205Y485D02*
X211Y485D01*
X823Y485D02*
X848Y485D01*
X871Y485D02*
X876Y485D01*
X890Y485D02*
X896Y485D01*
X138Y484D02*
X168Y484D01*
X185Y484D02*
X191Y484D01*
X205Y484D02*
X211Y484D01*
X823Y484D02*
X848Y484D01*
X871Y484D02*
X876Y484D01*
X890Y484D02*
X896Y484D01*
X139Y483D02*
X169Y483D01*
X186Y483D02*
X191Y483D01*
X205Y483D02*
X211Y483D01*
X823Y483D02*
X848Y483D01*
X871Y483D02*
X877Y483D01*
X890Y483D02*
X896Y483D01*
X140Y482D02*
X169Y482D01*
X186Y482D02*
X191Y482D01*
X205Y482D02*
X211Y482D01*
X373Y482D02*
X395Y482D01*
X428Y482D02*
X444Y482D01*
X467Y482D02*
X482Y482D01*
X503Y482D02*
X531Y482D01*
X559Y482D02*
X575Y482D01*
X592Y482D02*
X608Y482D01*
X639Y482D02*
X660Y482D01*
X822Y482D02*
X848Y482D01*
X871Y482D02*
X877Y482D01*
X890Y482D02*
X896Y482D01*
X142Y481D02*
X169Y481D01*
X186Y481D02*
X192Y481D01*
X205Y481D02*
X211Y481D01*
X372Y481D02*
X395Y481D01*
X428Y481D02*
X445Y481D01*
X466Y481D02*
X482Y481D01*
X503Y481D02*
X532Y481D01*
X558Y481D02*
X576Y481D01*
X591Y481D02*
X610Y481D01*
X638Y481D02*
X661Y481D01*
X822Y481D02*
X828Y481D01*
X871Y481D02*
X877Y481D01*
X890Y481D02*
X896Y481D01*
X164Y480D02*
X169Y480D01*
X186Y480D02*
X192Y480D01*
X205Y480D02*
X211Y480D01*
X372Y480D02*
X395Y480D01*
X428Y480D02*
X445Y480D01*
X466Y480D02*
X483Y480D01*
X503Y480D02*
X532Y480D01*
X556Y480D02*
X576Y480D01*
X591Y480D02*
X611Y480D01*
X637Y480D02*
X662Y480D01*
X822Y480D02*
X828Y480D01*
X872Y480D02*
X878Y480D01*
X890Y480D02*
X896Y480D01*
X164Y479D02*
X169Y479D01*
X186Y479D02*
X193Y479D01*
X205Y479D02*
X211Y479D01*
X372Y479D02*
X395Y479D01*
X428Y479D02*
X445Y479D01*
X466Y479D02*
X483Y479D01*
X503Y479D02*
X532Y479D01*
X556Y479D02*
X576Y479D01*
X591Y479D02*
X612Y479D01*
X636Y479D02*
X663Y479D01*
X822Y479D02*
X828Y479D01*
X872Y479D02*
X878Y479D01*
X890Y479D02*
X896Y479D01*
X164Y478D02*
X169Y478D01*
X187Y478D02*
X193Y478D01*
X205Y478D02*
X211Y478D01*
X373Y478D02*
X395Y478D01*
X428Y478D02*
X444Y478D01*
X466Y478D02*
X483Y478D01*
X503Y478D02*
X532Y478D01*
X555Y478D02*
X576Y478D01*
X591Y478D02*
X612Y478D01*
X635Y478D02*
X663Y478D01*
X822Y478D02*
X828Y478D01*
X872Y478D02*
X879Y478D01*
X890Y478D02*
X896Y478D01*
X164Y477D02*
X169Y477D01*
X187Y477D02*
X194Y477D01*
X205Y477D02*
X211Y477D01*
X374Y477D02*
X395Y477D01*
X428Y477D02*
X443Y477D01*
X466Y477D02*
X483Y477D01*
X503Y477D02*
X532Y477D01*
X554Y477D02*
X574Y477D01*
X593Y477D02*
X613Y477D01*
X635Y477D02*
X664Y477D01*
X822Y477D02*
X828Y477D01*
X873Y477D02*
X879Y477D01*
X890Y477D02*
X896Y477D01*
X164Y476D02*
X169Y476D01*
X188Y476D02*
X194Y476D01*
X205Y476D02*
X211Y476D01*
X390Y476D02*
X395Y476D01*
X428Y476D02*
X433Y476D01*
X466Y476D02*
X471Y476D01*
X478Y476D02*
X483Y476D01*
X503Y476D02*
X508Y476D01*
X528Y476D02*
X532Y476D01*
X554Y476D02*
X560Y476D01*
X565Y476D02*
X570Y476D01*
X607Y476D02*
X613Y476D01*
X635Y476D02*
X640Y476D01*
X659Y476D02*
X664Y476D01*
X822Y476D02*
X828Y476D01*
X873Y476D02*
X880Y476D01*
X890Y476D02*
X896Y476D01*
X164Y475D02*
X169Y475D01*
X188Y475D02*
X195Y475D01*
X205Y475D02*
X211Y475D01*
X390Y475D02*
X395Y475D01*
X428Y475D02*
X433Y475D01*
X466Y475D02*
X471Y475D01*
X478Y475D02*
X483Y475D01*
X503Y475D02*
X508Y475D01*
X528Y475D02*
X531Y475D01*
X553Y475D02*
X559Y475D01*
X565Y475D02*
X570Y475D01*
X608Y475D02*
X614Y475D01*
X635Y475D02*
X640Y475D01*
X658Y475D02*
X664Y475D01*
X822Y475D02*
X828Y475D01*
X874Y475D02*
X880Y475D01*
X890Y475D02*
X896Y475D01*
X164Y474D02*
X169Y474D01*
X189Y474D02*
X195Y474D01*
X205Y474D02*
X211Y474D01*
X390Y474D02*
X395Y474D01*
X428Y474D02*
X433Y474D01*
X466Y474D02*
X471Y474D01*
X478Y474D02*
X483Y474D01*
X503Y474D02*
X508Y474D01*
X553Y474D02*
X559Y474D01*
X565Y474D02*
X570Y474D01*
X608Y474D02*
X614Y474D01*
X635Y474D02*
X640Y474D01*
X657Y474D02*
X663Y474D01*
X822Y474D02*
X828Y474D01*
X874Y474D02*
X881Y474D01*
X890Y474D02*
X896Y474D01*
X164Y473D02*
X169Y473D01*
X189Y473D02*
X196Y473D01*
X205Y473D02*
X211Y473D01*
X390Y473D02*
X395Y473D01*
X428Y473D02*
X433Y473D01*
X466Y473D02*
X471Y473D01*
X478Y473D02*
X483Y473D01*
X503Y473D02*
X508Y473D01*
X552Y473D02*
X558Y473D01*
X565Y473D02*
X570Y473D01*
X609Y473D02*
X615Y473D01*
X635Y473D02*
X639Y473D01*
X657Y473D02*
X663Y473D01*
X822Y473D02*
X828Y473D01*
X875Y473D02*
X881Y473D01*
X890Y473D02*
X896Y473D01*
X164Y472D02*
X169Y472D01*
X190Y472D02*
X196Y472D01*
X205Y472D02*
X211Y472D01*
X390Y472D02*
X395Y472D01*
X428Y472D02*
X433Y472D01*
X466Y472D02*
X471Y472D01*
X478Y472D02*
X483Y472D01*
X503Y472D02*
X508Y472D01*
X552Y472D02*
X558Y472D01*
X565Y472D02*
X570Y472D01*
X609Y472D02*
X615Y472D01*
X636Y472D02*
X638Y472D01*
X656Y472D02*
X662Y472D01*
X822Y472D02*
X828Y472D01*
X875Y472D02*
X882Y472D01*
X890Y472D02*
X896Y472D01*
X164Y471D02*
X169Y471D01*
X190Y471D02*
X197Y471D01*
X205Y471D02*
X211Y471D01*
X390Y471D02*
X395Y471D01*
X428Y471D02*
X433Y471D01*
X466Y471D02*
X471Y471D01*
X478Y471D02*
X483Y471D01*
X503Y471D02*
X508Y471D01*
X551Y471D02*
X557Y471D01*
X565Y471D02*
X570Y471D01*
X610Y471D02*
X616Y471D01*
X655Y471D02*
X662Y471D01*
X822Y471D02*
X828Y471D01*
X876Y471D02*
X882Y471D01*
X890Y471D02*
X896Y471D01*
X164Y470D02*
X169Y470D01*
X191Y470D02*
X197Y470D01*
X205Y470D02*
X211Y470D01*
X390Y470D02*
X395Y470D01*
X428Y470D02*
X433Y470D01*
X466Y470D02*
X471Y470D01*
X478Y470D02*
X483Y470D01*
X503Y470D02*
X508Y470D01*
X551Y470D02*
X557Y470D01*
X565Y470D02*
X570Y470D01*
X610Y470D02*
X616Y470D01*
X654Y470D02*
X661Y470D01*
X822Y470D02*
X828Y470D01*
X876Y470D02*
X883Y470D01*
X890Y470D02*
X896Y470D01*
X164Y469D02*
X169Y469D01*
X191Y469D02*
X198Y469D01*
X205Y469D02*
X211Y469D01*
X390Y469D02*
X395Y469D01*
X428Y469D02*
X433Y469D01*
X466Y469D02*
X471Y469D01*
X478Y469D02*
X483Y469D01*
X503Y469D02*
X508Y469D01*
X550Y469D02*
X556Y469D01*
X565Y469D02*
X570Y469D01*
X611Y469D02*
X617Y469D01*
X653Y469D02*
X660Y469D01*
X822Y469D02*
X828Y469D01*
X877Y469D02*
X883Y469D01*
X890Y469D02*
X896Y469D01*
X164Y468D02*
X169Y468D01*
X192Y468D02*
X198Y468D01*
X205Y468D02*
X211Y468D01*
X390Y468D02*
X395Y468D01*
X428Y468D02*
X433Y468D01*
X466Y468D02*
X471Y468D01*
X478Y468D02*
X483Y468D01*
X503Y468D02*
X508Y468D01*
X550Y468D02*
X556Y468D01*
X565Y468D02*
X570Y468D01*
X611Y468D02*
X617Y468D01*
X653Y468D02*
X659Y468D01*
X822Y468D02*
X828Y468D01*
X850Y468D02*
X853Y468D01*
X877Y468D02*
X884Y468D01*
X890Y468D02*
X896Y468D01*
X164Y467D02*
X169Y467D01*
X192Y467D02*
X199Y467D01*
X205Y467D02*
X211Y467D01*
X390Y467D02*
X395Y467D01*
X428Y467D02*
X433Y467D01*
X466Y467D02*
X471Y467D01*
X478Y467D02*
X483Y467D01*
X503Y467D02*
X508Y467D01*
X549Y467D02*
X555Y467D01*
X565Y467D02*
X570Y467D01*
X612Y467D02*
X618Y467D01*
X652Y467D02*
X659Y467D01*
X822Y467D02*
X828Y467D01*
X847Y467D02*
X854Y467D01*
X878Y467D02*
X885Y467D01*
X890Y467D02*
X896Y467D01*
X164Y466D02*
X169Y466D01*
X193Y466D02*
X199Y466D01*
X205Y466D02*
X211Y466D01*
X390Y466D02*
X395Y466D01*
X428Y466D02*
X433Y466D01*
X466Y466D02*
X471Y466D01*
X478Y466D02*
X483Y466D01*
X503Y466D02*
X508Y466D01*
X549Y466D02*
X555Y466D01*
X565Y466D02*
X570Y466D01*
X612Y466D02*
X618Y466D01*
X651Y466D02*
X658Y466D01*
X822Y466D02*
X829Y466D01*
X845Y466D02*
X854Y466D01*
X878Y466D02*
X887Y466D01*
X890Y466D02*
X897Y466D01*
X164Y465D02*
X169Y465D01*
X193Y465D02*
X200Y465D01*
X205Y465D02*
X211Y465D01*
X390Y465D02*
X395Y465D01*
X428Y465D02*
X433Y465D01*
X466Y465D02*
X471Y465D01*
X478Y465D02*
X483Y465D01*
X503Y465D02*
X509Y465D01*
X548Y465D02*
X554Y465D01*
X565Y465D02*
X570Y465D01*
X613Y465D02*
X619Y465D01*
X650Y465D02*
X657Y465D01*
X823Y465D02*
X855Y465D01*
X879Y465D02*
X902Y465D01*
X139Y464D02*
X169Y464D01*
X194Y464D02*
X216Y464D01*
X390Y464D02*
X395Y464D01*
X428Y464D02*
X433Y464D01*
X466Y464D02*
X471Y464D01*
X478Y464D02*
X483Y464D01*
X503Y464D02*
X510Y464D01*
X548Y464D02*
X554Y464D01*
X565Y464D02*
X570Y464D01*
X613Y464D02*
X619Y464D01*
X650Y464D02*
X656Y464D01*
X823Y464D02*
X854Y464D01*
X879Y464D02*
X902Y464D01*
X138Y463D02*
X169Y463D01*
X194Y463D02*
X217Y463D01*
X390Y463D02*
X395Y463D01*
X428Y463D02*
X433Y463D01*
X466Y463D02*
X471Y463D01*
X478Y463D02*
X483Y463D01*
X504Y463D02*
X512Y463D01*
X548Y463D02*
X553Y463D01*
X565Y463D02*
X570Y463D01*
X614Y463D02*
X619Y463D01*
X649Y463D02*
X656Y463D01*
X823Y463D02*
X854Y463D01*
X880Y463D02*
X903Y463D01*
X137Y462D02*
X169Y462D01*
X195Y462D02*
X217Y462D01*
X376Y462D02*
X395Y462D01*
X428Y462D02*
X433Y462D01*
X464Y462D02*
X484Y462D01*
X504Y462D02*
X513Y462D01*
X547Y462D02*
X553Y462D01*
X565Y462D02*
X570Y462D01*
X614Y462D02*
X620Y462D01*
X648Y462D02*
X655Y462D01*
X824Y462D02*
X852Y462D01*
X881Y462D02*
X903Y462D01*
X137Y461D02*
X169Y461D01*
X196Y461D02*
X218Y461D01*
X375Y461D02*
X395Y461D01*
X428Y461D02*
X433Y461D01*
X462Y461D02*
X486Y461D01*
X505Y461D02*
X514Y461D01*
X547Y461D02*
X552Y461D01*
X565Y461D02*
X570Y461D01*
X615Y461D02*
X620Y461D01*
X647Y461D02*
X654Y461D01*
X825Y461D02*
X850Y461D01*
X882Y461D02*
X902Y461D01*
X138Y460D02*
X169Y460D01*
X197Y460D02*
X217Y460D01*
X373Y460D02*
X395Y460D01*
X428Y460D02*
X433Y460D01*
X461Y460D02*
X487Y460D01*
X507Y460D02*
X515Y460D01*
X547Y460D02*
X552Y460D01*
X565Y460D02*
X570Y460D01*
X615Y460D02*
X620Y460D01*
X646Y460D02*
X653Y460D01*
X826Y460D02*
X847Y460D01*
X884Y460D02*
X901Y460D01*
X138Y459D02*
X169Y459D01*
X199Y459D02*
X217Y459D01*
X373Y459D02*
X395Y459D01*
X428Y459D02*
X433Y459D01*
X460Y459D02*
X488Y459D01*
X508Y459D02*
X516Y459D01*
X547Y459D02*
X552Y459D01*
X565Y459D02*
X570Y459D01*
X615Y459D02*
X620Y459D01*
X646Y459D02*
X652Y459D01*
X140Y458D02*
X169Y458D01*
X202Y458D02*
X215Y458D01*
X372Y458D02*
X395Y458D01*
X428Y458D02*
X433Y458D01*
X460Y458D02*
X488Y458D01*
X509Y458D02*
X517Y458D01*
X547Y458D02*
X552Y458D01*
X565Y458D02*
X570Y458D01*
X615Y458D02*
X620Y458D01*
X645Y458D02*
X652Y458D01*
X372Y457D02*
X395Y457D01*
X418Y457D02*
X419Y457D01*
X428Y457D02*
X433Y457D01*
X460Y457D02*
X489Y457D01*
X510Y457D02*
X519Y457D01*
X547Y457D02*
X553Y457D01*
X565Y457D02*
X570Y457D01*
X614Y457D02*
X620Y457D01*
X644Y457D02*
X651Y457D01*
X372Y456D02*
X377Y456D01*
X416Y456D02*
X420Y456D01*
X428Y456D02*
X433Y456D01*
X459Y456D02*
X465Y456D01*
X483Y456D02*
X489Y456D01*
X511Y456D02*
X520Y456D01*
X547Y456D02*
X553Y456D01*
X565Y456D02*
X570Y456D01*
X614Y456D02*
X620Y456D01*
X643Y456D02*
X650Y456D01*
X372Y455D02*
X377Y455D01*
X416Y455D02*
X421Y455D01*
X428Y455D02*
X433Y455D01*
X459Y455D02*
X465Y455D01*
X484Y455D02*
X489Y455D01*
X513Y455D02*
X520Y455D01*
X548Y455D02*
X553Y455D01*
X565Y455D02*
X570Y455D01*
X614Y455D02*
X619Y455D01*
X643Y455D02*
X649Y455D01*
X372Y454D02*
X377Y454D01*
X416Y454D02*
X421Y454D01*
X428Y454D02*
X433Y454D01*
X459Y454D02*
X465Y454D01*
X484Y454D02*
X489Y454D01*
X514Y454D02*
X520Y454D01*
X548Y454D02*
X554Y454D01*
X565Y454D02*
X570Y454D01*
X613Y454D02*
X619Y454D01*
X642Y454D02*
X649Y454D01*
X372Y453D02*
X377Y453D01*
X416Y453D02*
X421Y453D01*
X428Y453D02*
X433Y453D01*
X459Y453D02*
X465Y453D01*
X484Y453D02*
X489Y453D01*
X515Y453D02*
X520Y453D01*
X549Y453D02*
X554Y453D01*
X565Y453D02*
X570Y453D01*
X613Y453D02*
X618Y453D01*
X641Y453D02*
X648Y453D01*
X372Y452D02*
X377Y452D01*
X416Y452D02*
X421Y452D01*
X428Y452D02*
X433Y452D01*
X459Y452D02*
X465Y452D01*
X484Y452D02*
X489Y452D01*
X515Y452D02*
X520Y452D01*
X549Y452D02*
X555Y452D01*
X565Y452D02*
X570Y452D01*
X612Y452D02*
X618Y452D01*
X640Y452D02*
X647Y452D01*
X372Y451D02*
X377Y451D01*
X416Y451D02*
X421Y451D01*
X428Y451D02*
X433Y451D01*
X459Y451D02*
X465Y451D01*
X484Y451D02*
X489Y451D01*
X515Y451D02*
X520Y451D01*
X549Y451D02*
X555Y451D01*
X565Y451D02*
X570Y451D01*
X612Y451D02*
X618Y451D01*
X639Y451D02*
X646Y451D01*
X372Y450D02*
X377Y450D01*
X416Y450D02*
X421Y450D01*
X428Y450D02*
X433Y450D01*
X459Y450D02*
X465Y450D01*
X484Y450D02*
X489Y450D01*
X515Y450D02*
X520Y450D01*
X550Y450D02*
X556Y450D01*
X565Y450D02*
X570Y450D01*
X611Y450D02*
X617Y450D01*
X639Y450D02*
X646Y450D01*
X372Y449D02*
X377Y449D01*
X416Y449D02*
X421Y449D01*
X428Y449D02*
X433Y449D01*
X459Y449D02*
X465Y449D01*
X484Y449D02*
X489Y449D01*
X515Y449D02*
X520Y449D01*
X550Y449D02*
X556Y449D01*
X565Y449D02*
X570Y449D01*
X611Y449D02*
X616Y449D01*
X638Y449D02*
X645Y449D01*
X372Y448D02*
X377Y448D01*
X416Y448D02*
X421Y448D01*
X428Y448D02*
X433Y448D01*
X459Y448D02*
X465Y448D01*
X484Y448D02*
X489Y448D01*
X515Y448D02*
X520Y448D01*
X551Y448D02*
X557Y448D01*
X565Y448D02*
X570Y448D01*
X610Y448D02*
X616Y448D01*
X637Y448D02*
X644Y448D01*
X372Y447D02*
X377Y447D01*
X416Y447D02*
X421Y447D01*
X428Y447D02*
X433Y447D01*
X459Y447D02*
X465Y447D01*
X484Y447D02*
X489Y447D01*
X515Y447D02*
X520Y447D01*
X551Y447D02*
X557Y447D01*
X565Y447D02*
X570Y447D01*
X610Y447D02*
X615Y447D01*
X636Y447D02*
X643Y447D01*
X372Y446D02*
X377Y446D01*
X416Y446D02*
X421Y446D01*
X428Y446D02*
X433Y446D01*
X459Y446D02*
X465Y446D01*
X484Y446D02*
X489Y446D01*
X515Y446D02*
X520Y446D01*
X552Y446D02*
X558Y446D01*
X565Y446D02*
X570Y446D01*
X609Y446D02*
X615Y446D01*
X636Y446D02*
X642Y446D01*
X660Y446D02*
X663Y446D01*
X372Y445D02*
X377Y445D01*
X416Y445D02*
X421Y445D01*
X428Y445D02*
X433Y445D01*
X459Y445D02*
X465Y445D01*
X484Y445D02*
X489Y445D01*
X515Y445D02*
X520Y445D01*
X552Y445D02*
X558Y445D01*
X565Y445D02*
X570Y445D01*
X609Y445D02*
X614Y445D01*
X635Y445D02*
X642Y445D01*
X659Y445D02*
X663Y445D01*
X372Y444D02*
X377Y444D01*
X398Y444D02*
X399Y444D01*
X416Y444D02*
X421Y444D01*
X428Y444D02*
X433Y444D01*
X459Y444D02*
X465Y444D01*
X484Y444D02*
X489Y444D01*
X515Y444D02*
X520Y444D01*
X553Y444D02*
X559Y444D01*
X565Y444D02*
X570Y444D01*
X608Y444D02*
X614Y444D01*
X635Y444D02*
X641Y444D01*
X659Y444D02*
X664Y444D01*
X372Y443D02*
X377Y443D01*
X395Y443D02*
X400Y443D01*
X416Y443D02*
X421Y443D01*
X428Y443D02*
X433Y443D01*
X459Y443D02*
X465Y443D01*
X484Y443D02*
X489Y443D01*
X515Y443D02*
X520Y443D01*
X553Y443D02*
X560Y443D01*
X565Y443D02*
X570Y443D01*
X607Y443D02*
X613Y443D01*
X635Y443D02*
X640Y443D01*
X658Y443D02*
X664Y443D01*
X372Y442D02*
X377Y442D01*
X393Y442D02*
X401Y442D01*
X416Y442D02*
X421Y442D01*
X428Y442D02*
X433Y442D01*
X459Y442D02*
X465Y442D01*
X483Y442D02*
X489Y442D01*
X515Y442D02*
X520Y442D01*
X554Y442D02*
X561Y442D01*
X565Y442D02*
X570Y442D01*
X606Y442D02*
X613Y442D01*
X635Y442D02*
X640Y442D01*
X658Y442D02*
X664Y442D01*
X372Y441D02*
X401Y441D01*
X416Y441D02*
X444Y441D01*
X460Y441D02*
X489Y441D01*
X515Y441D02*
X520Y441D01*
X554Y441D02*
X575Y441D01*
X592Y441D02*
X612Y441D01*
X635Y441D02*
X663Y441D01*
X372Y440D02*
X401Y440D01*
X416Y440D02*
X444Y440D01*
X460Y440D02*
X488Y440D01*
X515Y440D02*
X520Y440D01*
X555Y440D02*
X576Y440D01*
X591Y440D02*
X612Y440D01*
X635Y440D02*
X663Y440D01*
X373Y439D02*
X400Y439D01*
X416Y439D02*
X445Y439D01*
X460Y439D02*
X488Y439D01*
X515Y439D02*
X520Y439D01*
X556Y439D02*
X576Y439D01*
X591Y439D02*
X611Y439D01*
X636Y439D02*
X662Y439D01*
X373Y438D02*
X399Y438D01*
X416Y438D02*
X445Y438D01*
X461Y438D02*
X487Y438D01*
X515Y438D02*
X520Y438D01*
X557Y438D02*
X576Y438D01*
X591Y438D02*
X610Y438D01*
X636Y438D02*
X661Y438D01*
X374Y437D02*
X396Y437D01*
X416Y437D02*
X444Y437D01*
X462Y437D02*
X486Y437D01*
X516Y437D02*
X520Y437D01*
X558Y437D02*
X576Y437D01*
X591Y437D02*
X609Y437D01*
X637Y437D02*
X660Y437D01*
X376Y436D02*
X394Y436D01*
X417Y436D02*
X443Y436D01*
X463Y436D02*
X485Y436D01*
X517Y436D02*
X519Y436D01*
X560Y436D02*
X575Y436D01*
X592Y436D02*
X607Y436D01*
X639Y436D02*
X658Y436D01*
X846Y411D02*
X853Y411D01*
X883Y411D02*
X901Y411D01*
X845Y410D02*
X853Y410D01*
X882Y410D02*
X902Y410D01*
X141Y409D02*
X167Y409D01*
X199Y409D02*
X216Y409D01*
X845Y409D02*
X854Y409D01*
X880Y409D02*
X902Y409D01*
X139Y408D02*
X168Y408D01*
X197Y408D02*
X217Y408D01*
X845Y408D02*
X854Y408D01*
X879Y408D02*
X902Y408D01*
X138Y407D02*
X169Y407D01*
X196Y407D02*
X217Y407D01*
X845Y407D02*
X854Y407D01*
X879Y407D02*
X902Y407D01*
X138Y406D02*
X169Y406D01*
X195Y406D02*
X217Y406D01*
X846Y406D02*
X854Y406D01*
X878Y406D02*
X901Y406D01*
X137Y405D02*
X169Y405D01*
X194Y405D02*
X217Y405D01*
X848Y405D02*
X854Y405D01*
X878Y405D02*
X885Y405D01*
X889Y405D02*
X896Y405D01*
X137Y404D02*
X168Y404D01*
X193Y404D02*
X216Y404D01*
X848Y404D02*
X854Y404D01*
X877Y404D02*
X884Y404D01*
X890Y404D02*
X895Y404D01*
X137Y403D02*
X166Y403D01*
X193Y403D02*
X214Y403D01*
X848Y403D02*
X854Y403D01*
X877Y403D02*
X883Y403D01*
X890Y403D02*
X895Y403D01*
X137Y402D02*
X142Y402D01*
X192Y402D02*
X199Y402D01*
X205Y402D02*
X210Y402D01*
X848Y402D02*
X854Y402D01*
X876Y402D02*
X883Y402D01*
X890Y402D02*
X895Y402D01*
X137Y401D02*
X142Y401D01*
X192Y401D02*
X198Y401D01*
X205Y401D02*
X210Y401D01*
X848Y401D02*
X854Y401D01*
X876Y401D02*
X882Y401D01*
X890Y401D02*
X895Y401D01*
X137Y400D02*
X142Y400D01*
X191Y400D02*
X198Y400D01*
X205Y400D02*
X210Y400D01*
X848Y400D02*
X854Y400D01*
X875Y400D02*
X882Y400D01*
X890Y400D02*
X895Y400D01*
X137Y399D02*
X142Y399D01*
X191Y399D02*
X197Y399D01*
X205Y399D02*
X210Y399D01*
X848Y399D02*
X854Y399D01*
X875Y399D02*
X881Y399D01*
X890Y399D02*
X895Y399D01*
X137Y398D02*
X142Y398D01*
X190Y398D02*
X197Y398D01*
X205Y398D02*
X210Y398D01*
X848Y398D02*
X854Y398D01*
X874Y398D02*
X881Y398D01*
X890Y398D02*
X895Y398D01*
X137Y397D02*
X142Y397D01*
X190Y397D02*
X196Y397D01*
X205Y397D02*
X210Y397D01*
X848Y397D02*
X854Y397D01*
X874Y397D02*
X880Y397D01*
X890Y397D02*
X895Y397D01*
X137Y396D02*
X142Y396D01*
X189Y396D02*
X196Y396D01*
X205Y396D02*
X210Y396D01*
X848Y396D02*
X854Y396D01*
X873Y396D02*
X880Y396D01*
X890Y396D02*
X895Y396D01*
X137Y395D02*
X142Y395D01*
X189Y395D02*
X195Y395D01*
X205Y395D02*
X210Y395D01*
X848Y395D02*
X854Y395D01*
X873Y395D02*
X879Y395D01*
X890Y395D02*
X895Y395D01*
X137Y394D02*
X142Y394D01*
X188Y394D02*
X195Y394D01*
X205Y394D02*
X210Y394D01*
X848Y394D02*
X854Y394D01*
X872Y394D02*
X879Y394D01*
X890Y394D02*
X895Y394D01*
X137Y393D02*
X142Y393D01*
X188Y393D02*
X194Y393D01*
X205Y393D02*
X210Y393D01*
X848Y393D02*
X854Y393D01*
X872Y393D02*
X878Y393D01*
X890Y393D02*
X895Y393D01*
X137Y392D02*
X142Y392D01*
X187Y392D02*
X194Y392D01*
X205Y392D02*
X210Y392D01*
X848Y392D02*
X854Y392D01*
X871Y392D02*
X878Y392D01*
X890Y392D02*
X895Y392D01*
X137Y391D02*
X142Y391D01*
X187Y391D02*
X193Y391D01*
X205Y391D02*
X210Y391D01*
X848Y391D02*
X854Y391D01*
X871Y391D02*
X877Y391D01*
X890Y391D02*
X895Y391D01*
X137Y390D02*
X143Y390D01*
X186Y390D02*
X193Y390D01*
X205Y390D02*
X210Y390D01*
X848Y390D02*
X854Y390D01*
X870Y390D02*
X877Y390D01*
X890Y390D02*
X895Y390D01*
X137Y389D02*
X143Y389D01*
X186Y389D02*
X192Y389D01*
X205Y389D02*
X210Y389D01*
X848Y389D02*
X854Y389D01*
X870Y389D02*
X876Y389D01*
X890Y389D02*
X895Y389D01*
X137Y388D02*
X144Y388D01*
X186Y388D02*
X192Y388D01*
X205Y388D02*
X210Y388D01*
X848Y388D02*
X854Y388D01*
X870Y388D02*
X876Y388D01*
X890Y388D02*
X895Y388D01*
X137Y387D02*
X159Y387D01*
X185Y387D02*
X191Y387D01*
X205Y387D02*
X210Y387D01*
X848Y387D02*
X854Y387D01*
X870Y387D02*
X876Y387D01*
X890Y387D02*
X895Y387D01*
X138Y386D02*
X161Y386D01*
X185Y386D02*
X191Y386D01*
X205Y386D02*
X210Y386D01*
X848Y386D02*
X854Y386D01*
X870Y386D02*
X876Y386D01*
X890Y386D02*
X895Y386D01*
X138Y385D02*
X162Y385D01*
X185Y385D02*
X191Y385D01*
X205Y385D02*
X210Y385D01*
X848Y385D02*
X854Y385D01*
X870Y385D02*
X876Y385D01*
X890Y385D02*
X895Y385D01*
X139Y384D02*
X162Y384D01*
X185Y384D02*
X191Y384D01*
X205Y384D02*
X210Y384D01*
X848Y384D02*
X854Y384D01*
X870Y384D02*
X876Y384D01*
X890Y384D02*
X895Y384D01*
X139Y383D02*
X162Y383D01*
X185Y383D02*
X191Y383D01*
X205Y383D02*
X210Y383D01*
X823Y383D02*
X854Y383D01*
X870Y383D02*
X876Y383D01*
X890Y383D02*
X895Y383D01*
X138Y382D02*
X162Y382D01*
X185Y382D02*
X191Y382D01*
X205Y382D02*
X210Y382D01*
X822Y382D02*
X854Y382D01*
X870Y382D02*
X876Y382D01*
X890Y382D02*
X895Y382D01*
X138Y381D02*
X161Y381D01*
X185Y381D02*
X191Y381D01*
X205Y381D02*
X210Y381D01*
X822Y381D02*
X854Y381D01*
X871Y381D02*
X877Y381D01*
X890Y381D02*
X895Y381D01*
X137Y380D02*
X145Y380D01*
X185Y380D02*
X191Y380D01*
X205Y380D02*
X210Y380D01*
X822Y380D02*
X854Y380D01*
X871Y380D02*
X877Y380D01*
X890Y380D02*
X895Y380D01*
X137Y379D02*
X143Y379D01*
X186Y379D02*
X192Y379D01*
X205Y379D02*
X210Y379D01*
X822Y379D02*
X854Y379D01*
X871Y379D02*
X878Y379D01*
X890Y379D02*
X895Y379D01*
X137Y378D02*
X143Y378D01*
X186Y378D02*
X192Y378D01*
X205Y378D02*
X210Y378D01*
X822Y378D02*
X854Y378D01*
X872Y378D02*
X878Y378D01*
X890Y378D02*
X895Y378D01*
X137Y377D02*
X142Y377D01*
X186Y377D02*
X193Y377D01*
X205Y377D02*
X210Y377D01*
X822Y377D02*
X854Y377D01*
X872Y377D02*
X879Y377D01*
X890Y377D02*
X895Y377D01*
X137Y376D02*
X142Y376D01*
X187Y376D02*
X193Y376D01*
X205Y376D02*
X210Y376D01*
X822Y376D02*
X827Y376D01*
X848Y376D02*
X854Y376D01*
X873Y376D02*
X880Y376D01*
X890Y376D02*
X895Y376D01*
X137Y375D02*
X142Y375D01*
X187Y375D02*
X194Y375D01*
X205Y375D02*
X210Y375D01*
X822Y375D02*
X827Y375D01*
X848Y375D02*
X854Y375D01*
X873Y375D02*
X880Y375D01*
X890Y375D02*
X895Y375D01*
X137Y374D02*
X142Y374D01*
X188Y374D02*
X194Y374D01*
X205Y374D02*
X210Y374D01*
X822Y374D02*
X827Y374D01*
X848Y374D02*
X854Y374D01*
X874Y374D02*
X881Y374D01*
X890Y374D02*
X895Y374D01*
X137Y373D02*
X142Y373D01*
X188Y373D02*
X195Y373D01*
X205Y373D02*
X210Y373D01*
X822Y373D02*
X827Y373D01*
X848Y373D02*
X854Y373D01*
X874Y373D02*
X881Y373D01*
X890Y373D02*
X895Y373D01*
X137Y372D02*
X142Y372D01*
X189Y372D02*
X196Y372D01*
X205Y372D02*
X210Y372D01*
X822Y372D02*
X827Y372D01*
X848Y372D02*
X854Y372D01*
X875Y372D02*
X882Y372D01*
X890Y372D02*
X895Y372D01*
X137Y371D02*
X142Y371D01*
X189Y371D02*
X196Y371D01*
X205Y371D02*
X210Y371D01*
X822Y371D02*
X827Y371D01*
X848Y371D02*
X854Y371D01*
X875Y371D02*
X882Y371D01*
X890Y371D02*
X895Y371D01*
X137Y370D02*
X142Y370D01*
X190Y370D02*
X197Y370D01*
X205Y370D02*
X210Y370D01*
X822Y370D02*
X827Y370D01*
X848Y370D02*
X854Y370D01*
X876Y370D02*
X883Y370D01*
X890Y370D02*
X895Y370D01*
X137Y369D02*
X142Y369D01*
X190Y369D02*
X197Y369D01*
X205Y369D02*
X210Y369D01*
X822Y369D02*
X827Y369D01*
X848Y369D02*
X854Y369D01*
X876Y369D02*
X883Y369D01*
X890Y369D02*
X895Y369D01*
X137Y368D02*
X142Y368D01*
X191Y368D02*
X198Y368D01*
X205Y368D02*
X210Y368D01*
X822Y368D02*
X827Y368D01*
X848Y368D02*
X854Y368D01*
X877Y368D02*
X884Y368D01*
X890Y368D02*
X895Y368D01*
X137Y367D02*
X142Y367D01*
X191Y367D02*
X198Y367D01*
X205Y367D02*
X210Y367D01*
X822Y367D02*
X827Y367D01*
X848Y367D02*
X854Y367D01*
X877Y367D02*
X885Y367D01*
X890Y367D02*
X895Y367D01*
X137Y366D02*
X142Y366D01*
X192Y366D02*
X199Y366D01*
X205Y366D02*
X210Y366D01*
X822Y366D02*
X854Y366D01*
X878Y366D02*
X900Y366D01*
X137Y365D02*
X142Y365D01*
X192Y365D02*
X199Y365D01*
X205Y365D02*
X210Y365D01*
X822Y365D02*
X854Y365D01*
X878Y365D02*
X901Y365D01*
X137Y364D02*
X167Y364D01*
X193Y364D02*
X215Y364D01*
X822Y364D02*
X854Y364D01*
X879Y364D02*
X902Y364D01*
X137Y363D02*
X168Y363D01*
X193Y363D02*
X216Y363D01*
X822Y363D02*
X854Y363D01*
X880Y363D02*
X902Y363D01*
X137Y362D02*
X169Y362D01*
X194Y362D02*
X217Y362D01*
X822Y362D02*
X854Y362D01*
X881Y362D02*
X902Y362D01*
X138Y361D02*
X169Y361D01*
X195Y361D02*
X217Y361D01*
X823Y361D02*
X853Y361D01*
X883Y361D02*
X901Y361D01*
X139Y360D02*
X169Y360D01*
X196Y360D02*
X217Y360D01*
X825Y360D02*
X851Y360D01*
X887Y360D02*
X899Y360D01*
X140Y359D02*
X168Y359D01*
X197Y359D02*
X216Y359D01*
X142Y358D02*
X167Y358D01*
X200Y358D02*
X215Y358D01*
X608Y342D02*
X611Y342D01*
X623Y342D02*
X629Y342D01*
X642Y342D02*
X642Y342D01*
X660Y342D02*
X660Y342D01*
X684Y342D02*
X684Y342D01*
X369Y341D02*
X371Y341D01*
X384Y341D02*
X389Y341D01*
X402Y341D02*
X421Y341D01*
X487Y341D02*
X498Y341D01*
X511Y341D02*
X512Y341D01*
X526Y341D02*
X531Y341D01*
X544Y341D02*
X553Y341D01*
X608Y341D02*
X629Y341D01*
X641Y341D02*
X644Y341D01*
X659Y341D02*
X662Y341D01*
X681Y341D02*
X687Y341D01*
X368Y340D02*
X371Y340D01*
X384Y340D02*
X389Y340D01*
X401Y340D02*
X422Y340D01*
X485Y340D02*
X499Y340D01*
X510Y340D02*
X513Y340D01*
X526Y340D02*
X531Y340D01*
X543Y340D02*
X555Y340D01*
X608Y340D02*
X629Y340D01*
X641Y340D02*
X644Y340D01*
X658Y340D02*
X662Y340D01*
X680Y340D02*
X688Y340D01*
X368Y339D02*
X372Y339D01*
X383Y339D02*
X389Y339D01*
X401Y339D02*
X422Y339D01*
X484Y339D02*
X499Y339D01*
X510Y339D02*
X514Y339D01*
X525Y339D02*
X531Y339D01*
X543Y339D02*
X556Y339D01*
X608Y339D02*
X629Y339D01*
X641Y339D02*
X644Y339D01*
X658Y339D02*
X662Y339D01*
X679Y339D02*
X688Y339D01*
X368Y338D02*
X372Y338D01*
X383Y338D02*
X389Y338D01*
X401Y338D02*
X422Y338D01*
X484Y338D02*
X499Y338D01*
X510Y338D02*
X514Y338D01*
X525Y338D02*
X531Y338D01*
X543Y338D02*
X556Y338D01*
X608Y338D02*
X629Y338D01*
X641Y338D02*
X644Y338D01*
X658Y338D02*
X662Y338D01*
X679Y338D02*
X689Y338D01*
X368Y337D02*
X372Y337D01*
X383Y337D02*
X389Y337D01*
X402Y337D02*
X420Y337D01*
X483Y337D02*
X498Y337D01*
X510Y337D02*
X514Y337D01*
X525Y337D02*
X531Y337D01*
X544Y337D02*
X557Y337D01*
X608Y337D02*
X612Y337D01*
X617Y337D02*
X621Y337D01*
X626Y337D02*
X629Y337D01*
X641Y337D02*
X644Y337D01*
X658Y337D02*
X662Y337D01*
X678Y337D02*
X682Y337D01*
X685Y337D02*
X689Y337D01*
X368Y336D02*
X372Y336D01*
X382Y336D02*
X389Y336D01*
X410Y336D02*
X413Y336D01*
X482Y336D02*
X487Y336D01*
X491Y336D02*
X494Y336D01*
X510Y336D02*
X514Y336D01*
X524Y336D02*
X531Y336D01*
X553Y336D02*
X558Y336D01*
X608Y336D02*
X612Y336D01*
X617Y336D02*
X621Y336D01*
X626Y336D02*
X629Y336D01*
X641Y336D02*
X644Y336D01*
X658Y336D02*
X662Y336D01*
X678Y336D02*
X682Y336D01*
X686Y336D02*
X690Y336D01*
X368Y335D02*
X372Y335D01*
X382Y335D02*
X389Y335D01*
X410Y335D02*
X413Y335D01*
X482Y335D02*
X486Y335D01*
X491Y335D02*
X494Y335D01*
X510Y335D02*
X514Y335D01*
X524Y335D02*
X531Y335D01*
X554Y335D02*
X559Y335D01*
X608Y335D02*
X611Y335D01*
X617Y335D02*
X621Y335D01*
X626Y335D02*
X629Y335D01*
X641Y335D02*
X644Y335D01*
X658Y335D02*
X662Y335D01*
X677Y335D02*
X681Y335D01*
X686Y335D02*
X690Y335D01*
X368Y334D02*
X372Y334D01*
X381Y334D02*
X389Y334D01*
X410Y334D02*
X413Y334D01*
X481Y334D02*
X486Y334D01*
X491Y334D02*
X494Y334D01*
X510Y334D02*
X514Y334D01*
X523Y334D02*
X531Y334D01*
X555Y334D02*
X560Y334D01*
X609Y334D02*
X610Y334D01*
X617Y334D02*
X621Y334D01*
X627Y334D02*
X628Y334D01*
X641Y334D02*
X644Y334D01*
X658Y334D02*
X662Y334D01*
X677Y334D02*
X681Y334D01*
X687Y334D02*
X691Y334D01*
X368Y333D02*
X372Y333D01*
X381Y333D02*
X389Y333D01*
X410Y333D02*
X413Y333D01*
X481Y333D02*
X485Y333D01*
X491Y333D02*
X494Y333D01*
X510Y333D02*
X514Y333D01*
X523Y333D02*
X531Y333D01*
X556Y333D02*
X560Y333D01*
X617Y333D02*
X621Y333D01*
X641Y333D02*
X644Y333D01*
X658Y333D02*
X662Y333D01*
X676Y333D02*
X680Y333D01*
X687Y333D02*
X691Y333D01*
X368Y332D02*
X372Y332D01*
X380Y332D02*
X384Y332D01*
X386Y332D02*
X389Y332D01*
X410Y332D02*
X413Y332D01*
X480Y332D02*
X485Y332D01*
X491Y332D02*
X494Y332D01*
X510Y332D02*
X514Y332D01*
X522Y332D02*
X526Y332D01*
X528Y332D02*
X531Y332D01*
X556Y332D02*
X561Y332D01*
X617Y332D02*
X621Y332D01*
X641Y332D02*
X644Y332D01*
X658Y332D02*
X662Y332D01*
X676Y332D02*
X680Y332D01*
X688Y332D02*
X692Y332D01*
X368Y331D02*
X372Y331D01*
X380Y331D02*
X384Y331D01*
X386Y331D02*
X389Y331D01*
X410Y331D02*
X413Y331D01*
X480Y331D02*
X484Y331D01*
X491Y331D02*
X494Y331D01*
X510Y331D02*
X514Y331D01*
X522Y331D02*
X526Y331D01*
X528Y331D02*
X531Y331D01*
X557Y331D02*
X562Y331D01*
X617Y331D02*
X621Y331D01*
X641Y331D02*
X644Y331D01*
X658Y331D02*
X662Y331D01*
X675Y331D02*
X679Y331D01*
X688Y331D02*
X692Y331D01*
X368Y330D02*
X372Y330D01*
X379Y330D02*
X383Y330D01*
X386Y330D02*
X389Y330D01*
X410Y330D02*
X413Y330D01*
X479Y330D02*
X484Y330D01*
X491Y330D02*
X494Y330D01*
X510Y330D02*
X514Y330D01*
X521Y330D02*
X525Y330D01*
X528Y330D02*
X531Y330D01*
X558Y330D02*
X562Y330D01*
X617Y330D02*
X621Y330D01*
X641Y330D02*
X644Y330D01*
X658Y330D02*
X662Y330D01*
X675Y330D02*
X679Y330D01*
X689Y330D02*
X693Y330D01*
X368Y329D02*
X372Y329D01*
X379Y329D02*
X383Y329D01*
X386Y329D02*
X389Y329D01*
X410Y329D02*
X413Y329D01*
X479Y329D02*
X483Y329D01*
X491Y329D02*
X494Y329D01*
X510Y329D02*
X514Y329D01*
X521Y329D02*
X525Y329D01*
X528Y329D02*
X531Y329D01*
X559Y329D02*
X563Y329D01*
X617Y329D02*
X621Y329D01*
X641Y329D02*
X644Y329D01*
X658Y329D02*
X662Y329D01*
X674Y329D02*
X678Y329D01*
X689Y329D02*
X693Y329D01*
X368Y328D02*
X372Y328D01*
X379Y328D02*
X383Y328D01*
X386Y328D02*
X389Y328D01*
X410Y328D02*
X413Y328D01*
X479Y328D02*
X483Y328D01*
X491Y328D02*
X494Y328D01*
X510Y328D02*
X514Y328D01*
X521Y328D02*
X525Y328D01*
X528Y328D02*
X531Y328D01*
X559Y328D02*
X563Y328D01*
X617Y328D02*
X621Y328D01*
X641Y328D02*
X644Y328D01*
X658Y328D02*
X662Y328D01*
X674Y328D02*
X678Y328D01*
X690Y328D02*
X694Y328D01*
X368Y327D02*
X372Y327D01*
X378Y327D02*
X382Y327D01*
X386Y327D02*
X389Y327D01*
X410Y327D02*
X413Y327D01*
X478Y327D02*
X482Y327D01*
X491Y327D02*
X494Y327D01*
X510Y327D02*
X514Y327D01*
X520Y327D02*
X524Y327D01*
X528Y327D02*
X531Y327D01*
X560Y327D02*
X564Y327D01*
X617Y327D02*
X621Y327D01*
X641Y327D02*
X644Y327D01*
X658Y327D02*
X662Y327D01*
X673Y327D02*
X677Y327D01*
X690Y327D02*
X694Y327D01*
X368Y326D02*
X372Y326D01*
X378Y326D02*
X382Y326D01*
X386Y326D02*
X389Y326D01*
X410Y326D02*
X413Y326D01*
X478Y326D02*
X482Y326D01*
X491Y326D02*
X494Y326D01*
X510Y326D02*
X514Y326D01*
X520Y326D02*
X524Y326D01*
X528Y326D02*
X531Y326D01*
X560Y326D02*
X564Y326D01*
X617Y326D02*
X621Y326D01*
X641Y326D02*
X644Y326D01*
X658Y326D02*
X662Y326D01*
X673Y326D02*
X677Y326D01*
X691Y326D02*
X694Y326D01*
X368Y325D02*
X372Y325D01*
X377Y325D02*
X381Y325D01*
X386Y325D02*
X389Y325D01*
X410Y325D02*
X413Y325D01*
X478Y325D02*
X481Y325D01*
X491Y325D02*
X494Y325D01*
X510Y325D02*
X514Y325D01*
X519Y325D02*
X523Y325D01*
X528Y325D02*
X531Y325D01*
X560Y325D02*
X564Y325D01*
X617Y325D02*
X621Y325D01*
X641Y325D02*
X644Y325D01*
X658Y325D02*
X662Y325D01*
X673Y325D02*
X677Y325D01*
X691Y325D02*
X694Y325D01*
X368Y324D02*
X372Y324D01*
X377Y324D02*
X381Y324D01*
X386Y324D02*
X389Y324D01*
X410Y324D02*
X413Y324D01*
X478Y324D02*
X481Y324D01*
X491Y324D02*
X494Y324D01*
X510Y324D02*
X514Y324D01*
X519Y324D02*
X523Y324D01*
X528Y324D02*
X531Y324D01*
X560Y324D02*
X564Y324D01*
X617Y324D02*
X621Y324D01*
X641Y324D02*
X644Y324D01*
X658Y324D02*
X662Y324D01*
X673Y324D02*
X677Y324D01*
X691Y324D02*
X694Y324D01*
X368Y323D02*
X372Y323D01*
X376Y323D02*
X380Y323D01*
X386Y323D02*
X389Y323D01*
X410Y323D02*
X413Y323D01*
X478Y323D02*
X481Y323D01*
X491Y323D02*
X494Y323D01*
X510Y323D02*
X514Y323D01*
X518Y323D02*
X522Y323D01*
X528Y323D02*
X531Y323D01*
X560Y323D02*
X564Y323D01*
X617Y323D02*
X621Y323D01*
X641Y323D02*
X644Y323D01*
X658Y323D02*
X662Y323D01*
X673Y323D02*
X677Y323D01*
X691Y323D02*
X694Y323D01*
X368Y322D02*
X372Y322D01*
X376Y322D02*
X380Y322D01*
X386Y322D02*
X389Y322D01*
X410Y322D02*
X413Y322D01*
X478Y322D02*
X481Y322D01*
X491Y322D02*
X494Y322D01*
X510Y322D02*
X514Y322D01*
X518Y322D02*
X522Y322D01*
X528Y322D02*
X531Y322D01*
X543Y322D02*
X551Y322D01*
X560Y322D02*
X564Y322D01*
X617Y322D02*
X621Y322D01*
X641Y322D02*
X644Y322D01*
X658Y322D02*
X662Y322D01*
X673Y322D02*
X677Y322D01*
X690Y322D02*
X694Y322D01*
X368Y321D02*
X372Y321D01*
X376Y321D02*
X380Y321D01*
X386Y321D02*
X389Y321D01*
X410Y321D02*
X413Y321D01*
X478Y321D02*
X482Y321D01*
X491Y321D02*
X494Y321D01*
X510Y321D02*
X514Y321D01*
X518Y321D02*
X522Y321D01*
X528Y321D02*
X531Y321D01*
X543Y321D02*
X552Y321D01*
X560Y321D02*
X564Y321D01*
X617Y321D02*
X621Y321D01*
X641Y321D02*
X644Y321D01*
X658Y321D02*
X662Y321D01*
X674Y321D02*
X678Y321D01*
X690Y321D02*
X694Y321D01*
X368Y320D02*
X372Y320D01*
X375Y320D02*
X379Y320D01*
X386Y320D02*
X389Y320D01*
X410Y320D02*
X413Y320D01*
X478Y320D02*
X482Y320D01*
X491Y320D02*
X494Y320D01*
X510Y320D02*
X514Y320D01*
X517Y320D02*
X521Y320D01*
X528Y320D02*
X531Y320D01*
X543Y320D02*
X553Y320D01*
X560Y320D02*
X564Y320D01*
X617Y320D02*
X621Y320D01*
X641Y320D02*
X644Y320D01*
X658Y320D02*
X662Y320D01*
X674Y320D02*
X678Y320D01*
X689Y320D02*
X693Y320D01*
X368Y319D02*
X372Y319D01*
X375Y319D02*
X379Y319D01*
X386Y319D02*
X389Y319D01*
X410Y319D02*
X413Y319D01*
X479Y319D02*
X483Y319D01*
X491Y319D02*
X494Y319D01*
X510Y319D02*
X514Y319D01*
X517Y319D02*
X521Y319D01*
X528Y319D02*
X531Y319D01*
X543Y319D02*
X552Y319D01*
X560Y319D02*
X564Y319D01*
X617Y319D02*
X621Y319D01*
X641Y319D02*
X644Y319D01*
X658Y319D02*
X662Y319D01*
X675Y319D02*
X679Y319D01*
X689Y319D02*
X693Y319D01*
X368Y318D02*
X372Y318D01*
X374Y318D02*
X378Y318D01*
X386Y318D02*
X389Y318D01*
X410Y318D02*
X413Y318D01*
X479Y318D02*
X483Y318D01*
X491Y318D02*
X494Y318D01*
X510Y318D02*
X514Y318D01*
X516Y318D02*
X520Y318D01*
X528Y318D02*
X531Y318D01*
X543Y318D02*
X551Y318D01*
X560Y318D02*
X564Y318D01*
X617Y318D02*
X621Y318D01*
X641Y318D02*
X644Y318D01*
X658Y318D02*
X662Y318D01*
X675Y318D02*
X679Y318D01*
X688Y318D02*
X692Y318D01*
X368Y317D02*
X372Y317D01*
X374Y317D02*
X378Y317D01*
X386Y317D02*
X389Y317D01*
X410Y317D02*
X413Y317D01*
X480Y317D02*
X484Y317D01*
X491Y317D02*
X494Y317D01*
X510Y317D02*
X514Y317D01*
X516Y317D02*
X520Y317D01*
X528Y317D02*
X531Y317D01*
X543Y317D02*
X546Y317D01*
X560Y317D02*
X564Y317D01*
X617Y317D02*
X621Y317D01*
X641Y317D02*
X644Y317D01*
X658Y317D02*
X662Y317D01*
X676Y317D02*
X680Y317D01*
X688Y317D02*
X692Y317D01*
X368Y316D02*
X377Y316D01*
X386Y316D02*
X389Y316D01*
X410Y316D02*
X413Y316D01*
X480Y316D02*
X484Y316D01*
X491Y316D02*
X494Y316D01*
X510Y316D02*
X519Y316D01*
X528Y316D02*
X531Y316D01*
X543Y316D02*
X546Y316D01*
X560Y316D02*
X564Y316D01*
X617Y316D02*
X621Y316D01*
X641Y316D02*
X644Y316D01*
X658Y316D02*
X662Y316D01*
X676Y316D02*
X680Y316D01*
X687Y316D02*
X691Y316D01*
X368Y315D02*
X377Y315D01*
X386Y315D02*
X389Y315D01*
X410Y315D02*
X413Y315D01*
X481Y315D02*
X485Y315D01*
X491Y315D02*
X494Y315D01*
X510Y315D02*
X519Y315D01*
X528Y315D02*
X531Y315D01*
X543Y315D02*
X546Y315D01*
X560Y315D02*
X564Y315D01*
X617Y315D02*
X621Y315D01*
X641Y315D02*
X644Y315D01*
X658Y315D02*
X662Y315D01*
X677Y315D02*
X681Y315D01*
X687Y315D02*
X691Y315D01*
X368Y314D02*
X376Y314D01*
X386Y314D02*
X389Y314D01*
X410Y314D02*
X413Y314D01*
X481Y314D02*
X485Y314D01*
X491Y314D02*
X494Y314D01*
X510Y314D02*
X518Y314D01*
X528Y314D02*
X531Y314D01*
X543Y314D02*
X546Y314D01*
X560Y314D02*
X564Y314D01*
X617Y314D02*
X621Y314D01*
X641Y314D02*
X644Y314D01*
X658Y314D02*
X662Y314D01*
X677Y314D02*
X681Y314D01*
X686Y314D02*
X690Y314D01*
X368Y313D02*
X376Y313D01*
X386Y313D02*
X389Y313D01*
X410Y313D02*
X413Y313D01*
X482Y313D02*
X486Y313D01*
X491Y313D02*
X494Y313D01*
X510Y313D02*
X518Y313D01*
X528Y313D02*
X531Y313D01*
X543Y313D02*
X546Y313D01*
X560Y313D02*
X564Y313D01*
X617Y313D02*
X621Y313D01*
X641Y313D02*
X644Y313D01*
X658Y313D02*
X662Y313D01*
X678Y313D02*
X682Y313D01*
X686Y313D02*
X690Y313D01*
X368Y312D02*
X376Y312D01*
X386Y312D02*
X389Y312D01*
X410Y312D02*
X413Y312D01*
X482Y312D02*
X486Y312D01*
X491Y312D02*
X494Y312D01*
X510Y312D02*
X518Y312D01*
X528Y312D02*
X531Y312D01*
X543Y312D02*
X546Y312D01*
X560Y312D02*
X564Y312D01*
X617Y312D02*
X621Y312D01*
X641Y312D02*
X645Y312D01*
X657Y312D02*
X662Y312D01*
X678Y312D02*
X682Y312D01*
X685Y312D02*
X689Y312D01*
X368Y311D02*
X375Y311D01*
X386Y311D02*
X389Y311D01*
X409Y311D02*
X413Y311D01*
X483Y311D02*
X488Y311D01*
X491Y311D02*
X495Y311D01*
X510Y311D02*
X517Y311D01*
X528Y311D02*
X531Y311D01*
X543Y311D02*
X548Y311D01*
X559Y311D02*
X564Y311D01*
X617Y311D02*
X621Y311D01*
X641Y311D02*
X661Y311D01*
X679Y311D02*
X689Y311D01*
X821Y311D02*
X852Y311D01*
X883Y311D02*
X900Y311D01*
X368Y310D02*
X375Y310D01*
X386Y310D02*
X389Y310D01*
X401Y310D02*
X421Y310D01*
X483Y310D02*
X498Y310D01*
X510Y310D02*
X517Y310D01*
X528Y310D02*
X531Y310D01*
X543Y310D02*
X563Y310D01*
X617Y310D02*
X621Y310D01*
X642Y310D02*
X661Y310D01*
X679Y310D02*
X688Y310D01*
X821Y310D02*
X853Y310D01*
X881Y310D02*
X901Y310D01*
X163Y309D02*
X167Y309D01*
X199Y309D02*
X216Y309D01*
X368Y309D02*
X374Y309D01*
X386Y309D02*
X389Y309D01*
X401Y309D02*
X422Y309D01*
X484Y309D02*
X499Y309D01*
X510Y309D02*
X516Y309D01*
X528Y309D02*
X531Y309D01*
X544Y309D02*
X563Y309D01*
X617Y309D02*
X620Y309D01*
X643Y309D02*
X660Y309D01*
X680Y309D02*
X688Y309D01*
X821Y309D02*
X853Y309D01*
X880Y309D02*
X901Y309D01*
X163Y308D02*
X167Y308D01*
X197Y308D02*
X217Y308D01*
X368Y308D02*
X374Y308D01*
X386Y308D02*
X389Y308D01*
X401Y308D02*
X422Y308D01*
X485Y308D02*
X499Y308D01*
X510Y308D02*
X516Y308D01*
X528Y308D02*
X531Y308D01*
X545Y308D02*
X562Y308D01*
X617Y308D02*
X620Y308D01*
X644Y308D02*
X659Y308D01*
X681Y308D02*
X686Y308D01*
X821Y308D02*
X853Y308D01*
X879Y308D02*
X901Y308D01*
X162Y307D02*
X168Y307D01*
X196Y307D02*
X218Y307D01*
X368Y307D02*
X373Y307D01*
X387Y307D02*
X389Y307D01*
X401Y307D02*
X421Y307D01*
X486Y307D02*
X498Y307D01*
X510Y307D02*
X515Y307D01*
X529Y307D02*
X531Y307D01*
X546Y307D02*
X560Y307D01*
X821Y307D02*
X853Y307D01*
X878Y307D02*
X901Y307D01*
X162Y306D02*
X168Y306D01*
X195Y306D02*
X218Y306D01*
X821Y306D02*
X853Y306D01*
X877Y306D02*
X900Y306D01*
X162Y305D02*
X168Y305D01*
X194Y305D02*
X217Y305D01*
X821Y305D02*
X827Y305D01*
X847Y305D02*
X853Y305D01*
X877Y305D02*
X885Y305D01*
X888Y305D02*
X895Y305D01*
X145Y304D02*
X146Y304D01*
X162Y304D02*
X168Y304D01*
X194Y304D02*
X216Y304D01*
X821Y304D02*
X827Y304D01*
X848Y304D02*
X853Y304D01*
X876Y304D02*
X883Y304D01*
X889Y304D02*
X895Y304D01*
X143Y303D02*
X147Y303D01*
X162Y303D02*
X168Y303D01*
X193Y303D02*
X201Y303D01*
X205Y303D02*
X211Y303D01*
X821Y303D02*
X827Y303D01*
X849Y303D02*
X852Y303D01*
X876Y303D02*
X882Y303D01*
X889Y303D02*
X895Y303D01*
X143Y302D02*
X148Y302D01*
X162Y302D02*
X168Y302D01*
X193Y302D02*
X200Y302D01*
X205Y302D02*
X211Y302D01*
X821Y302D02*
X827Y302D01*
X875Y302D02*
X882Y302D01*
X889Y302D02*
X895Y302D01*
X142Y301D02*
X148Y301D01*
X162Y301D02*
X168Y301D01*
X192Y301D02*
X199Y301D01*
X205Y301D02*
X211Y301D01*
X821Y301D02*
X827Y301D01*
X875Y301D02*
X881Y301D01*
X889Y301D02*
X895Y301D01*
X142Y300D02*
X148Y300D01*
X162Y300D02*
X168Y300D01*
X192Y300D02*
X198Y300D01*
X205Y300D02*
X211Y300D01*
X821Y300D02*
X827Y300D01*
X874Y300D02*
X881Y300D01*
X889Y300D02*
X895Y300D01*
X142Y299D02*
X148Y299D01*
X162Y299D02*
X168Y299D01*
X191Y299D02*
X198Y299D01*
X205Y299D02*
X211Y299D01*
X821Y299D02*
X827Y299D01*
X874Y299D02*
X880Y299D01*
X889Y299D02*
X895Y299D01*
X142Y298D02*
X148Y298D01*
X162Y298D02*
X168Y298D01*
X191Y298D02*
X197Y298D01*
X205Y298D02*
X211Y298D01*
X821Y298D02*
X827Y298D01*
X873Y298D02*
X880Y298D01*
X889Y298D02*
X895Y298D01*
X142Y297D02*
X148Y297D01*
X162Y297D02*
X168Y297D01*
X190Y297D02*
X197Y297D01*
X205Y297D02*
X211Y297D01*
X821Y297D02*
X827Y297D01*
X873Y297D02*
X879Y297D01*
X889Y297D02*
X895Y297D01*
X142Y296D02*
X148Y296D01*
X162Y296D02*
X168Y296D01*
X190Y296D02*
X196Y296D01*
X205Y296D02*
X211Y296D01*
X821Y296D02*
X827Y296D01*
X872Y296D02*
X879Y296D01*
X889Y296D02*
X895Y296D01*
X142Y295D02*
X148Y295D01*
X162Y295D02*
X168Y295D01*
X189Y295D02*
X196Y295D01*
X205Y295D02*
X211Y295D01*
X821Y295D02*
X827Y295D01*
X872Y295D02*
X878Y295D01*
X889Y295D02*
X895Y295D01*
X142Y294D02*
X148Y294D01*
X162Y294D02*
X168Y294D01*
X189Y294D02*
X195Y294D01*
X205Y294D02*
X211Y294D01*
X821Y294D02*
X827Y294D01*
X871Y294D02*
X878Y294D01*
X889Y294D02*
X895Y294D01*
X142Y293D02*
X148Y293D01*
X162Y293D02*
X168Y293D01*
X188Y293D02*
X195Y293D01*
X205Y293D02*
X211Y293D01*
X821Y293D02*
X827Y293D01*
X871Y293D02*
X877Y293D01*
X889Y293D02*
X895Y293D01*
X142Y292D02*
X148Y292D01*
X162Y292D02*
X168Y292D01*
X188Y292D02*
X194Y292D01*
X205Y292D02*
X211Y292D01*
X821Y292D02*
X828Y292D01*
X870Y292D02*
X877Y292D01*
X889Y292D02*
X895Y292D01*
X142Y291D02*
X148Y291D01*
X162Y291D02*
X168Y291D01*
X187Y291D02*
X194Y291D01*
X205Y291D02*
X211Y291D01*
X821Y291D02*
X829Y291D01*
X870Y291D02*
X876Y291D01*
X889Y291D02*
X895Y291D01*
X142Y290D02*
X148Y290D01*
X162Y290D02*
X168Y290D01*
X187Y290D02*
X193Y290D01*
X205Y290D02*
X211Y290D01*
X821Y290D02*
X830Y290D01*
X870Y290D02*
X876Y290D01*
X889Y290D02*
X895Y290D01*
X142Y289D02*
X148Y289D01*
X162Y289D02*
X168Y289D01*
X186Y289D02*
X193Y289D01*
X205Y289D02*
X211Y289D01*
X822Y289D02*
X831Y289D01*
X869Y289D02*
X875Y289D01*
X889Y289D02*
X895Y289D01*
X142Y288D02*
X148Y288D01*
X162Y288D02*
X168Y288D01*
X186Y288D02*
X192Y288D01*
X205Y288D02*
X211Y288D01*
X823Y288D02*
X832Y288D01*
X869Y288D02*
X875Y288D01*
X889Y288D02*
X895Y288D01*
X142Y287D02*
X148Y287D01*
X162Y287D02*
X168Y287D01*
X186Y287D02*
X192Y287D01*
X205Y287D02*
X211Y287D01*
X824Y287D02*
X834Y287D01*
X869Y287D02*
X875Y287D01*
X889Y287D02*
X895Y287D01*
X142Y286D02*
X148Y286D01*
X162Y286D02*
X168Y286D01*
X186Y286D02*
X191Y286D01*
X205Y286D02*
X211Y286D01*
X825Y286D02*
X835Y286D01*
X869Y286D02*
X875Y286D01*
X889Y286D02*
X895Y286D01*
X142Y285D02*
X148Y285D01*
X162Y285D02*
X168Y285D01*
X186Y285D02*
X191Y285D01*
X205Y285D02*
X211Y285D01*
X827Y285D02*
X836Y285D01*
X869Y285D02*
X875Y285D01*
X889Y285D02*
X895Y285D01*
X142Y284D02*
X148Y284D01*
X162Y284D02*
X168Y284D01*
X185Y284D02*
X191Y284D01*
X205Y284D02*
X211Y284D01*
X332Y284D02*
X335Y284D01*
X352Y284D02*
X374Y284D01*
X401Y284D02*
X424Y284D01*
X442Y284D02*
X463Y284D01*
X486Y284D02*
X507Y284D01*
X530Y284D02*
X553Y284D01*
X571Y284D02*
X586Y284D01*
X615Y284D02*
X641Y284D01*
X669Y284D02*
X685Y284D01*
X828Y284D02*
X837Y284D01*
X869Y284D02*
X875Y284D01*
X889Y284D02*
X895Y284D01*
X142Y283D02*
X148Y283D01*
X162Y283D02*
X168Y283D01*
X186Y283D02*
X191Y283D01*
X205Y283D02*
X211Y283D01*
X331Y283D02*
X336Y283D01*
X351Y283D02*
X374Y283D01*
X399Y283D02*
X424Y283D01*
X440Y283D02*
X465Y283D01*
X484Y283D02*
X509Y283D01*
X528Y283D02*
X554Y283D01*
X570Y283D02*
X588Y283D01*
X614Y283D02*
X642Y283D01*
X669Y283D02*
X686Y283D01*
X829Y283D02*
X838Y283D01*
X869Y283D02*
X875Y283D01*
X889Y283D02*
X895Y283D01*
X142Y282D02*
X148Y282D01*
X162Y282D02*
X168Y282D01*
X186Y282D02*
X191Y282D01*
X205Y282D02*
X211Y282D01*
X331Y282D02*
X336Y282D01*
X351Y282D02*
X374Y282D01*
X397Y282D02*
X424Y282D01*
X440Y282D02*
X466Y282D01*
X483Y282D02*
X510Y282D01*
X527Y282D02*
X555Y282D01*
X570Y282D02*
X589Y282D01*
X613Y282D02*
X642Y282D01*
X669Y282D02*
X686Y282D01*
X830Y282D02*
X839Y282D01*
X870Y282D02*
X876Y282D01*
X889Y282D02*
X895Y282D01*
X140Y281D02*
X168Y281D01*
X186Y281D02*
X192Y281D01*
X205Y281D02*
X211Y281D01*
X331Y281D02*
X336Y281D01*
X351Y281D02*
X374Y281D01*
X396Y281D02*
X424Y281D01*
X439Y281D02*
X467Y281D01*
X483Y281D02*
X510Y281D01*
X526Y281D02*
X555Y281D01*
X570Y281D02*
X590Y281D01*
X613Y281D02*
X642Y281D01*
X669Y281D02*
X686Y281D01*
X831Y281D02*
X840Y281D01*
X870Y281D02*
X876Y281D01*
X889Y281D02*
X895Y281D01*
X140Y280D02*
X168Y280D01*
X186Y280D02*
X192Y280D01*
X205Y280D02*
X211Y280D01*
X331Y280D02*
X336Y280D01*
X351Y280D02*
X374Y280D01*
X396Y280D02*
X424Y280D01*
X438Y280D02*
X467Y280D01*
X482Y280D02*
X511Y280D01*
X526Y280D02*
X554Y280D01*
X570Y280D02*
X591Y280D01*
X613Y280D02*
X642Y280D01*
X669Y280D02*
X686Y280D01*
X832Y280D02*
X840Y280D01*
X870Y280D02*
X877Y280D01*
X889Y280D02*
X895Y280D01*
X139Y279D02*
X168Y279D01*
X186Y279D02*
X193Y279D01*
X205Y279D02*
X211Y279D01*
X331Y279D02*
X336Y279D01*
X352Y279D02*
X374Y279D01*
X395Y279D02*
X424Y279D01*
X438Y279D02*
X467Y279D01*
X482Y279D02*
X511Y279D01*
X526Y279D02*
X554Y279D01*
X571Y279D02*
X591Y279D01*
X613Y279D02*
X642Y279D01*
X669Y279D02*
X685Y279D01*
X834Y279D02*
X840Y279D01*
X871Y279D02*
X877Y279D01*
X889Y279D02*
X895Y279D01*
X139Y278D02*
X168Y278D01*
X187Y278D02*
X193Y278D01*
X205Y278D02*
X211Y278D01*
X331Y278D02*
X336Y278D01*
X369Y278D02*
X374Y278D01*
X395Y278D02*
X401Y278D01*
X418Y278D02*
X424Y278D01*
X438Y278D02*
X443Y278D01*
X462Y278D02*
X467Y278D01*
X482Y278D02*
X487Y278D01*
X506Y278D02*
X511Y278D01*
X526Y278D02*
X531Y278D01*
X585Y278D02*
X592Y278D01*
X613Y278D02*
X618Y278D01*
X637Y278D02*
X642Y278D01*
X669Y278D02*
X674Y278D01*
X834Y278D02*
X840Y278D01*
X871Y278D02*
X878Y278D01*
X889Y278D02*
X895Y278D01*
X139Y277D02*
X168Y277D01*
X187Y277D02*
X194Y277D01*
X205Y277D02*
X211Y277D01*
X331Y277D02*
X336Y277D01*
X369Y277D02*
X374Y277D01*
X395Y277D02*
X400Y277D01*
X418Y277D02*
X424Y277D01*
X438Y277D02*
X443Y277D01*
X462Y277D02*
X467Y277D01*
X482Y277D02*
X487Y277D01*
X506Y277D02*
X511Y277D01*
X526Y277D02*
X531Y277D01*
X586Y277D02*
X592Y277D01*
X613Y277D02*
X618Y277D01*
X637Y277D02*
X642Y277D01*
X669Y277D02*
X674Y277D01*
X834Y277D02*
X840Y277D01*
X872Y277D02*
X878Y277D01*
X889Y277D02*
X895Y277D01*
X140Y276D02*
X168Y276D01*
X188Y276D02*
X194Y276D01*
X205Y276D02*
X211Y276D01*
X331Y276D02*
X336Y276D01*
X369Y276D02*
X374Y276D01*
X394Y276D02*
X400Y276D01*
X418Y276D02*
X424Y276D01*
X438Y276D02*
X443Y276D01*
X462Y276D02*
X467Y276D01*
X482Y276D02*
X487Y276D01*
X506Y276D02*
X511Y276D01*
X526Y276D02*
X531Y276D01*
X587Y276D02*
X593Y276D01*
X613Y276D02*
X618Y276D01*
X637Y276D02*
X642Y276D01*
X669Y276D02*
X674Y276D01*
X834Y276D02*
X840Y276D01*
X872Y276D02*
X879Y276D01*
X889Y276D02*
X895Y276D01*
X142Y275D02*
X168Y275D01*
X188Y275D02*
X195Y275D01*
X205Y275D02*
X211Y275D01*
X331Y275D02*
X336Y275D01*
X369Y275D02*
X374Y275D01*
X394Y275D02*
X400Y275D01*
X418Y275D02*
X424Y275D01*
X438Y275D02*
X443Y275D01*
X462Y275D02*
X467Y275D01*
X482Y275D02*
X487Y275D01*
X506Y275D02*
X511Y275D01*
X526Y275D02*
X531Y275D01*
X587Y275D02*
X593Y275D01*
X613Y275D02*
X618Y275D01*
X637Y275D02*
X642Y275D01*
X669Y275D02*
X674Y275D01*
X834Y275D02*
X840Y275D01*
X873Y275D02*
X879Y275D01*
X889Y275D02*
X895Y275D01*
X142Y274D02*
X148Y274D01*
X189Y274D02*
X195Y274D01*
X205Y274D02*
X211Y274D01*
X331Y274D02*
X336Y274D01*
X369Y274D02*
X374Y274D01*
X394Y274D02*
X400Y274D01*
X418Y274D02*
X424Y274D01*
X438Y274D02*
X443Y274D01*
X462Y274D02*
X467Y274D01*
X482Y274D02*
X487Y274D01*
X506Y274D02*
X511Y274D01*
X526Y274D02*
X531Y274D01*
X588Y274D02*
X594Y274D01*
X613Y274D02*
X618Y274D01*
X637Y274D02*
X642Y274D01*
X669Y274D02*
X674Y274D01*
X834Y274D02*
X840Y274D01*
X873Y274D02*
X880Y274D01*
X889Y274D02*
X895Y274D01*
X142Y273D02*
X148Y273D01*
X189Y273D02*
X196Y273D01*
X205Y273D02*
X211Y273D01*
X331Y273D02*
X336Y273D01*
X369Y273D02*
X374Y273D01*
X394Y273D02*
X400Y273D01*
X418Y273D02*
X424Y273D01*
X438Y273D02*
X443Y273D01*
X462Y273D02*
X467Y273D01*
X482Y273D02*
X487Y273D01*
X506Y273D02*
X511Y273D01*
X526Y273D02*
X531Y273D01*
X588Y273D02*
X594Y273D01*
X613Y273D02*
X618Y273D01*
X637Y273D02*
X642Y273D01*
X669Y273D02*
X674Y273D01*
X834Y273D02*
X840Y273D01*
X874Y273D02*
X880Y273D01*
X889Y273D02*
X895Y273D01*
X142Y272D02*
X148Y272D01*
X190Y272D02*
X196Y272D01*
X205Y272D02*
X211Y272D01*
X331Y272D02*
X336Y272D01*
X369Y272D02*
X374Y272D01*
X394Y272D02*
X400Y272D01*
X418Y272D02*
X424Y272D01*
X438Y272D02*
X443Y272D01*
X462Y272D02*
X467Y272D01*
X482Y272D02*
X487Y272D01*
X506Y272D02*
X511Y272D01*
X526Y272D02*
X531Y272D01*
X589Y272D02*
X595Y272D01*
X613Y272D02*
X618Y272D01*
X637Y272D02*
X642Y272D01*
X669Y272D02*
X674Y272D01*
X834Y272D02*
X840Y272D01*
X874Y272D02*
X881Y272D01*
X889Y272D02*
X895Y272D01*
X142Y271D02*
X148Y271D01*
X190Y271D02*
X197Y271D01*
X205Y271D02*
X211Y271D01*
X311Y271D02*
X314Y271D01*
X331Y271D02*
X336Y271D01*
X369Y271D02*
X374Y271D01*
X394Y271D02*
X400Y271D01*
X418Y271D02*
X424Y271D01*
X438Y271D02*
X443Y271D01*
X462Y271D02*
X467Y271D01*
X482Y271D02*
X487Y271D01*
X506Y271D02*
X511Y271D01*
X526Y271D02*
X531Y271D01*
X589Y271D02*
X595Y271D01*
X613Y271D02*
X618Y271D01*
X637Y271D02*
X642Y271D01*
X669Y271D02*
X674Y271D01*
X834Y271D02*
X840Y271D01*
X875Y271D02*
X881Y271D01*
X889Y271D02*
X895Y271D01*
X142Y270D02*
X148Y270D01*
X191Y270D02*
X197Y270D01*
X205Y270D02*
X211Y270D01*
X310Y270D02*
X315Y270D01*
X331Y270D02*
X336Y270D01*
X369Y270D02*
X374Y270D01*
X394Y270D02*
X400Y270D01*
X418Y270D02*
X424Y270D01*
X438Y270D02*
X443Y270D01*
X462Y270D02*
X467Y270D01*
X482Y270D02*
X487Y270D01*
X506Y270D02*
X511Y270D01*
X526Y270D02*
X531Y270D01*
X590Y270D02*
X596Y270D01*
X613Y270D02*
X618Y270D01*
X637Y270D02*
X642Y270D01*
X669Y270D02*
X674Y270D01*
X834Y270D02*
X840Y270D01*
X875Y270D02*
X882Y270D01*
X889Y270D02*
X895Y270D01*
X142Y269D02*
X148Y269D01*
X191Y269D02*
X198Y269D01*
X205Y269D02*
X211Y269D01*
X310Y269D02*
X316Y269D01*
X331Y269D02*
X336Y269D01*
X369Y269D02*
X374Y269D01*
X394Y269D02*
X400Y269D01*
X418Y269D02*
X424Y269D01*
X438Y269D02*
X443Y269D01*
X462Y269D02*
X467Y269D01*
X482Y269D02*
X487Y269D01*
X506Y269D02*
X511Y269D01*
X526Y269D02*
X531Y269D01*
X590Y269D02*
X596Y269D01*
X613Y269D02*
X642Y269D01*
X669Y269D02*
X674Y269D01*
X834Y269D02*
X840Y269D01*
X876Y269D02*
X882Y269D01*
X889Y269D02*
X895Y269D01*
X142Y268D02*
X148Y268D01*
X192Y268D02*
X198Y268D01*
X205Y268D02*
X211Y268D01*
X310Y268D02*
X317Y268D01*
X331Y268D02*
X336Y268D01*
X369Y268D02*
X374Y268D01*
X394Y268D02*
X400Y268D01*
X418Y268D02*
X424Y268D01*
X438Y268D02*
X443Y268D01*
X462Y268D02*
X467Y268D01*
X482Y268D02*
X487Y268D01*
X506Y268D02*
X511Y268D01*
X526Y268D02*
X531Y268D01*
X591Y268D02*
X597Y268D01*
X613Y268D02*
X642Y268D01*
X669Y268D02*
X674Y268D01*
X834Y268D02*
X840Y268D01*
X876Y268D02*
X883Y268D01*
X889Y268D02*
X895Y268D01*
X142Y267D02*
X148Y267D01*
X192Y267D02*
X199Y267D01*
X205Y267D02*
X211Y267D01*
X310Y267D02*
X319Y267D01*
X331Y267D02*
X336Y267D01*
X369Y267D02*
X374Y267D01*
X394Y267D02*
X400Y267D01*
X418Y267D02*
X424Y267D01*
X438Y267D02*
X443Y267D01*
X462Y267D02*
X467Y267D01*
X482Y267D02*
X487Y267D01*
X506Y267D02*
X511Y267D01*
X526Y267D02*
X531Y267D01*
X591Y267D02*
X597Y267D01*
X613Y267D02*
X642Y267D01*
X669Y267D02*
X674Y267D01*
X834Y267D02*
X840Y267D01*
X877Y267D02*
X884Y267D01*
X889Y267D02*
X895Y267D01*
X142Y266D02*
X148Y266D01*
X193Y266D02*
X199Y266D01*
X205Y266D02*
X211Y266D01*
X311Y266D02*
X320Y266D01*
X331Y266D02*
X336Y266D01*
X369Y266D02*
X374Y266D01*
X394Y266D02*
X400Y266D01*
X418Y266D02*
X424Y266D01*
X438Y266D02*
X443Y266D01*
X462Y266D02*
X467Y266D01*
X482Y266D02*
X487Y266D01*
X506Y266D02*
X511Y266D01*
X526Y266D02*
X531Y266D01*
X592Y266D02*
X598Y266D01*
X613Y266D02*
X642Y266D01*
X669Y266D02*
X674Y266D01*
X834Y266D02*
X840Y266D01*
X877Y266D02*
X900Y266D01*
X142Y265D02*
X148Y265D01*
X193Y265D02*
X200Y265D01*
X205Y265D02*
X211Y265D01*
X312Y265D02*
X321Y265D01*
X331Y265D02*
X336Y265D01*
X369Y265D02*
X374Y265D01*
X394Y265D02*
X400Y265D01*
X418Y265D02*
X424Y265D01*
X438Y265D02*
X443Y265D01*
X462Y265D02*
X467Y265D01*
X482Y265D02*
X487Y265D01*
X506Y265D02*
X511Y265D01*
X526Y265D02*
X531Y265D01*
X592Y265D02*
X598Y265D01*
X613Y265D02*
X642Y265D01*
X669Y265D02*
X674Y265D01*
X834Y265D02*
X840Y265D01*
X878Y265D02*
X901Y265D01*
X142Y264D02*
X148Y264D01*
X194Y264D02*
X216Y264D01*
X314Y264D02*
X322Y264D01*
X331Y264D02*
X336Y264D01*
X368Y264D02*
X374Y264D01*
X394Y264D02*
X400Y264D01*
X418Y264D02*
X424Y264D01*
X438Y264D02*
X443Y264D01*
X462Y264D02*
X467Y264D01*
X482Y264D02*
X487Y264D01*
X506Y264D02*
X511Y264D01*
X526Y264D02*
X531Y264D01*
X593Y264D02*
X598Y264D01*
X613Y264D02*
X642Y264D01*
X669Y264D02*
X674Y264D01*
X834Y264D02*
X840Y264D01*
X878Y264D02*
X901Y264D01*
X142Y263D02*
X148Y263D01*
X194Y263D02*
X217Y263D01*
X315Y263D02*
X323Y263D01*
X331Y263D02*
X336Y263D01*
X354Y263D02*
X374Y263D01*
X395Y263D02*
X400Y263D01*
X418Y263D02*
X424Y263D01*
X438Y263D02*
X443Y263D01*
X462Y263D02*
X467Y263D01*
X482Y263D02*
X487Y263D01*
X506Y263D02*
X511Y263D01*
X526Y263D02*
X552Y263D01*
X593Y263D02*
X598Y263D01*
X613Y263D02*
X640Y263D01*
X669Y263D02*
X674Y263D01*
X834Y263D02*
X840Y263D01*
X879Y263D02*
X901Y263D01*
X142Y262D02*
X148Y262D01*
X195Y262D02*
X218Y262D01*
X316Y262D02*
X324Y262D01*
X331Y262D02*
X336Y262D01*
X352Y262D02*
X374Y262D01*
X395Y262D02*
X401Y262D01*
X418Y262D02*
X424Y262D01*
X438Y262D02*
X443Y262D01*
X462Y262D02*
X467Y262D01*
X482Y262D02*
X487Y262D01*
X506Y262D02*
X511Y262D01*
X526Y262D02*
X553Y262D01*
X593Y262D02*
X598Y262D01*
X613Y262D02*
X618Y262D01*
X669Y262D02*
X674Y262D01*
X834Y262D02*
X840Y262D01*
X880Y262D02*
X901Y262D01*
X142Y261D02*
X148Y261D01*
X196Y261D02*
X218Y261D01*
X317Y261D02*
X326Y261D01*
X331Y261D02*
X336Y261D01*
X352Y261D02*
X374Y261D01*
X395Y261D02*
X424Y261D01*
X438Y261D02*
X443Y261D01*
X462Y261D02*
X467Y261D01*
X482Y261D02*
X487Y261D01*
X506Y261D02*
X511Y261D01*
X527Y261D02*
X554Y261D01*
X593Y261D02*
X599Y261D01*
X613Y261D02*
X618Y261D01*
X669Y261D02*
X674Y261D01*
X835Y261D02*
X839Y261D01*
X882Y261D02*
X900Y261D01*
X143Y260D02*
X148Y260D01*
X197Y260D02*
X217Y260D01*
X318Y260D02*
X327Y260D01*
X331Y260D02*
X336Y260D01*
X351Y260D02*
X374Y260D01*
X396Y260D02*
X424Y260D01*
X438Y260D02*
X443Y260D01*
X462Y260D02*
X467Y260D01*
X482Y260D02*
X487Y260D01*
X506Y260D02*
X511Y260D01*
X527Y260D02*
X554Y260D01*
X593Y260D02*
X599Y260D01*
X613Y260D02*
X618Y260D01*
X669Y260D02*
X674Y260D01*
X837Y260D02*
X837Y260D01*
X885Y260D02*
X899Y260D01*
X143Y259D02*
X147Y259D01*
X199Y259D02*
X217Y259D01*
X319Y259D02*
X328Y259D01*
X331Y259D02*
X336Y259D01*
X351Y259D02*
X374Y259D01*
X396Y259D02*
X424Y259D01*
X438Y259D02*
X443Y259D01*
X462Y259D02*
X467Y259D01*
X482Y259D02*
X487Y259D01*
X506Y259D02*
X511Y259D01*
X528Y259D02*
X555Y259D01*
X593Y259D02*
X598Y259D01*
X613Y259D02*
X618Y259D01*
X669Y259D02*
X674Y259D01*
X203Y258D02*
X214Y258D01*
X321Y258D02*
X329Y258D01*
X331Y258D02*
X336Y258D01*
X351Y258D02*
X373Y258D01*
X397Y258D02*
X424Y258D01*
X438Y258D02*
X443Y258D01*
X462Y258D02*
X467Y258D01*
X482Y258D02*
X487Y258D01*
X506Y258D02*
X511Y258D01*
X531Y258D02*
X555Y258D01*
X593Y258D02*
X598Y258D01*
X613Y258D02*
X618Y258D01*
X658Y258D02*
X661Y258D01*
X669Y258D02*
X674Y258D01*
X322Y257D02*
X336Y257D01*
X351Y257D02*
X356Y257D01*
X398Y257D02*
X424Y257D01*
X438Y257D02*
X443Y257D01*
X462Y257D02*
X467Y257D01*
X482Y257D02*
X487Y257D01*
X506Y257D02*
X511Y257D01*
X550Y257D02*
X555Y257D01*
X593Y257D02*
X598Y257D01*
X613Y257D02*
X618Y257D01*
X657Y257D02*
X662Y257D01*
X669Y257D02*
X674Y257D01*
X323Y256D02*
X336Y256D01*
X351Y256D02*
X356Y256D01*
X400Y256D02*
X424Y256D01*
X438Y256D02*
X443Y256D01*
X462Y256D02*
X467Y256D01*
X482Y256D02*
X487Y256D01*
X506Y256D02*
X511Y256D01*
X550Y256D02*
X555Y256D01*
X592Y256D02*
X598Y256D01*
X613Y256D02*
X618Y256D01*
X657Y256D02*
X662Y256D01*
X669Y256D02*
X674Y256D01*
X322Y255D02*
X336Y255D01*
X351Y255D02*
X356Y255D01*
X418Y255D02*
X424Y255D01*
X438Y255D02*
X443Y255D01*
X462Y255D02*
X467Y255D01*
X482Y255D02*
X487Y255D01*
X506Y255D02*
X511Y255D01*
X550Y255D02*
X555Y255D01*
X591Y255D02*
X597Y255D01*
X613Y255D02*
X618Y255D01*
X657Y255D02*
X662Y255D01*
X669Y255D02*
X674Y255D01*
X321Y254D02*
X336Y254D01*
X351Y254D02*
X356Y254D01*
X418Y254D02*
X424Y254D01*
X438Y254D02*
X443Y254D01*
X462Y254D02*
X467Y254D01*
X482Y254D02*
X487Y254D01*
X506Y254D02*
X511Y254D01*
X550Y254D02*
X555Y254D01*
X591Y254D02*
X597Y254D01*
X613Y254D02*
X618Y254D01*
X657Y254D02*
X662Y254D01*
X669Y254D02*
X674Y254D01*
X320Y253D02*
X336Y253D01*
X351Y253D02*
X356Y253D01*
X418Y253D02*
X424Y253D01*
X438Y253D02*
X443Y253D01*
X462Y253D02*
X467Y253D01*
X482Y253D02*
X487Y253D01*
X506Y253D02*
X511Y253D01*
X550Y253D02*
X555Y253D01*
X590Y253D02*
X596Y253D01*
X613Y253D02*
X618Y253D01*
X657Y253D02*
X662Y253D01*
X669Y253D02*
X674Y253D01*
X319Y252D02*
X336Y252D01*
X351Y252D02*
X356Y252D01*
X418Y252D02*
X424Y252D01*
X438Y252D02*
X443Y252D01*
X462Y252D02*
X467Y252D01*
X482Y252D02*
X487Y252D01*
X506Y252D02*
X511Y252D01*
X550Y252D02*
X555Y252D01*
X590Y252D02*
X596Y252D01*
X613Y252D02*
X618Y252D01*
X657Y252D02*
X662Y252D01*
X669Y252D02*
X674Y252D01*
X318Y251D02*
X326Y251D01*
X329Y251D02*
X336Y251D01*
X351Y251D02*
X356Y251D01*
X418Y251D02*
X424Y251D01*
X438Y251D02*
X443Y251D01*
X462Y251D02*
X467Y251D01*
X482Y251D02*
X487Y251D01*
X506Y251D02*
X511Y251D01*
X550Y251D02*
X555Y251D01*
X589Y251D02*
X595Y251D01*
X613Y251D02*
X618Y251D01*
X657Y251D02*
X662Y251D01*
X669Y251D02*
X674Y251D01*
X317Y250D02*
X325Y250D01*
X330Y250D02*
X336Y250D01*
X351Y250D02*
X356Y250D01*
X418Y250D02*
X424Y250D01*
X438Y250D02*
X443Y250D01*
X462Y250D02*
X467Y250D01*
X482Y250D02*
X487Y250D01*
X506Y250D02*
X511Y250D01*
X550Y250D02*
X555Y250D01*
X589Y250D02*
X595Y250D01*
X613Y250D02*
X618Y250D01*
X657Y250D02*
X662Y250D01*
X669Y250D02*
X674Y250D01*
X315Y249D02*
X324Y249D01*
X331Y249D02*
X336Y249D01*
X351Y249D02*
X356Y249D01*
X418Y249D02*
X424Y249D01*
X438Y249D02*
X443Y249D01*
X462Y249D02*
X467Y249D01*
X482Y249D02*
X487Y249D01*
X506Y249D02*
X511Y249D01*
X550Y249D02*
X555Y249D01*
X588Y249D02*
X594Y249D01*
X613Y249D02*
X618Y249D01*
X657Y249D02*
X662Y249D01*
X669Y249D02*
X674Y249D01*
X314Y248D02*
X323Y248D01*
X331Y248D02*
X336Y248D01*
X351Y248D02*
X356Y248D01*
X418Y248D02*
X424Y248D01*
X438Y248D02*
X443Y248D01*
X462Y248D02*
X467Y248D01*
X482Y248D02*
X487Y248D01*
X506Y248D02*
X511Y248D01*
X550Y248D02*
X555Y248D01*
X588Y248D02*
X594Y248D01*
X613Y248D02*
X618Y248D01*
X657Y248D02*
X662Y248D01*
X669Y248D02*
X674Y248D01*
X313Y247D02*
X321Y247D01*
X331Y247D02*
X336Y247D01*
X351Y247D02*
X356Y247D01*
X418Y247D02*
X424Y247D01*
X438Y247D02*
X443Y247D01*
X462Y247D02*
X467Y247D01*
X482Y247D02*
X487Y247D01*
X506Y247D02*
X511Y247D01*
X550Y247D02*
X555Y247D01*
X587Y247D02*
X593Y247D01*
X613Y247D02*
X618Y247D01*
X657Y247D02*
X662Y247D01*
X669Y247D02*
X674Y247D01*
X312Y246D02*
X320Y246D01*
X331Y246D02*
X336Y246D01*
X351Y246D02*
X356Y246D01*
X418Y246D02*
X424Y246D01*
X438Y246D02*
X443Y246D01*
X462Y246D02*
X467Y246D01*
X482Y246D02*
X487Y246D01*
X506Y246D02*
X511Y246D01*
X550Y246D02*
X555Y246D01*
X587Y246D02*
X593Y246D01*
X613Y246D02*
X618Y246D01*
X657Y246D02*
X662Y246D01*
X669Y246D02*
X674Y246D01*
X311Y245D02*
X319Y245D01*
X331Y245D02*
X336Y245D01*
X351Y245D02*
X356Y245D01*
X375Y245D02*
X379Y245D01*
X418Y245D02*
X424Y245D01*
X438Y245D02*
X443Y245D01*
X462Y245D02*
X467Y245D01*
X482Y245D02*
X487Y245D01*
X506Y245D02*
X511Y245D01*
X550Y245D02*
X555Y245D01*
X586Y245D02*
X592Y245D01*
X613Y245D02*
X618Y245D01*
X657Y245D02*
X662Y245D01*
X669Y245D02*
X674Y245D01*
X309Y244D02*
X318Y244D01*
X331Y244D02*
X336Y244D01*
X351Y244D02*
X356Y244D01*
X373Y244D02*
X380Y244D01*
X418Y244D02*
X424Y244D01*
X438Y244D02*
X443Y244D01*
X462Y244D02*
X467Y244D01*
X482Y244D02*
X487Y244D01*
X506Y244D02*
X511Y244D01*
X550Y244D02*
X555Y244D01*
X586Y244D02*
X592Y244D01*
X613Y244D02*
X618Y244D01*
X657Y244D02*
X662Y244D01*
X669Y244D02*
X674Y244D01*
X308Y243D02*
X317Y243D01*
X331Y243D02*
X336Y243D01*
X351Y243D02*
X380Y243D01*
X418Y243D02*
X424Y243D01*
X438Y243D02*
X467Y243D01*
X482Y243D02*
X511Y243D01*
X527Y243D02*
X555Y243D01*
X571Y243D02*
X591Y243D01*
X613Y243D02*
X620Y243D01*
X657Y243D02*
X685Y243D01*
X307Y242D02*
X316Y242D01*
X331Y242D02*
X336Y242D01*
X351Y242D02*
X380Y242D01*
X418Y242D02*
X424Y242D01*
X438Y242D02*
X467Y242D01*
X482Y242D02*
X511Y242D01*
X526Y242D02*
X555Y242D01*
X570Y242D02*
X591Y242D01*
X613Y242D02*
X621Y242D01*
X657Y242D02*
X686Y242D01*
X307Y241D02*
X314Y241D01*
X331Y241D02*
X336Y241D01*
X351Y241D02*
X379Y241D01*
X418Y241D02*
X424Y241D01*
X439Y241D02*
X467Y241D01*
X482Y241D02*
X511Y241D01*
X526Y241D02*
X555Y241D01*
X570Y241D02*
X590Y241D01*
X613Y241D02*
X621Y241D01*
X657Y241D02*
X686Y241D01*
X307Y240D02*
X313Y240D01*
X331Y240D02*
X336Y240D01*
X352Y240D02*
X378Y240D01*
X418Y240D02*
X423Y240D01*
X439Y240D02*
X466Y240D01*
X483Y240D02*
X510Y240D01*
X526Y240D02*
X555Y240D01*
X570Y240D02*
X589Y240D01*
X613Y240D02*
X621Y240D01*
X657Y240D02*
X686Y240D01*
X307Y239D02*
X312Y239D01*
X331Y239D02*
X336Y239D01*
X353Y239D02*
X376Y239D01*
X419Y239D02*
X423Y239D01*
X440Y239D02*
X465Y239D01*
X484Y239D02*
X509Y239D01*
X526Y239D02*
X555Y239D01*
X570Y239D02*
X588Y239D01*
X614Y239D02*
X621Y239D01*
X657Y239D02*
X686Y239D01*
X308Y238D02*
X311Y238D01*
X332Y238D02*
X335Y238D01*
X354Y238D02*
X373Y238D01*
X420Y238D02*
X422Y238D01*
X442Y238D02*
X464Y238D01*
X485Y238D02*
X508Y238D01*
X527Y238D02*
X555Y238D01*
X571Y238D02*
X586Y238D01*
X614Y238D02*
X620Y238D01*
X658Y238D02*
X685Y238D01*
X831Y211D02*
X847Y211D01*
X885Y211D02*
X901Y211D01*
X830Y210D02*
X847Y210D01*
X883Y210D02*
X902Y210D01*
X829Y209D02*
X848Y209D01*
X881Y209D02*
X903Y209D01*
X829Y208D02*
X848Y208D01*
X880Y208D02*
X903Y208D01*
X152Y207D02*
X169Y207D01*
X188Y207D02*
X191Y207D01*
X211Y207D02*
X219Y207D01*
X236Y207D02*
X251Y207D01*
X829Y207D02*
X848Y207D01*
X880Y207D02*
X902Y207D01*
X150Y206D02*
X170Y206D01*
X187Y206D02*
X192Y206D01*
X210Y206D02*
X219Y206D01*
X235Y206D02*
X253Y206D01*
X829Y206D02*
X848Y206D01*
X879Y206D02*
X902Y206D01*
X149Y205D02*
X171Y205D01*
X187Y205D02*
X192Y205D01*
X210Y205D02*
X219Y205D01*
X235Y205D02*
X254Y205D01*
X829Y205D02*
X848Y205D01*
X878Y205D02*
X900Y205D01*
X148Y204D02*
X171Y204D01*
X187Y204D02*
X192Y204D01*
X209Y204D02*
X219Y204D01*
X235Y204D02*
X255Y204D01*
X829Y204D02*
X835Y204D01*
X842Y204D02*
X848Y204D01*
X878Y204D02*
X885Y204D01*
X890Y204D02*
X896Y204D01*
X148Y203D02*
X170Y203D01*
X187Y203D02*
X192Y203D01*
X209Y203D02*
X219Y203D01*
X235Y203D02*
X256Y203D01*
X829Y203D02*
X835Y203D01*
X842Y203D02*
X848Y203D01*
X877Y203D02*
X884Y203D01*
X890Y203D02*
X896Y203D01*
X147Y202D02*
X170Y202D01*
X187Y202D02*
X192Y202D01*
X208Y202D02*
X219Y202D01*
X236Y202D02*
X257Y202D01*
X829Y202D02*
X835Y202D01*
X842Y202D02*
X848Y202D01*
X877Y202D02*
X884Y202D01*
X890Y202D02*
X896Y202D01*
X146Y201D02*
X167Y201D01*
X187Y201D02*
X192Y201D01*
X208Y201D02*
X219Y201D01*
X239Y201D02*
X257Y201D01*
X829Y201D02*
X835Y201D01*
X842Y201D02*
X848Y201D01*
X876Y201D02*
X883Y201D01*
X890Y201D02*
X896Y201D01*
X146Y200D02*
X153Y200D01*
X158Y200D02*
X164Y200D01*
X187Y200D02*
X192Y200D01*
X208Y200D02*
X219Y200D01*
X250Y200D02*
X258Y200D01*
X829Y200D02*
X835Y200D01*
X842Y200D02*
X848Y200D01*
X876Y200D02*
X883Y200D01*
X890Y200D02*
X896Y200D01*
X145Y199D02*
X152Y199D01*
X158Y199D02*
X164Y199D01*
X187Y199D02*
X192Y199D01*
X207Y199D02*
X219Y199D01*
X251Y199D02*
X259Y199D01*
X829Y199D02*
X835Y199D01*
X842Y199D02*
X848Y199D01*
X875Y199D02*
X882Y199D01*
X890Y199D02*
X896Y199D01*
X145Y198D02*
X151Y198D01*
X158Y198D02*
X164Y198D01*
X187Y198D02*
X192Y198D01*
X207Y198D02*
X219Y198D01*
X252Y198D02*
X260Y198D01*
X829Y198D02*
X835Y198D01*
X842Y198D02*
X848Y198D01*
X875Y198D02*
X882Y198D01*
X890Y198D02*
X896Y198D01*
X144Y197D02*
X151Y197D01*
X158Y197D02*
X164Y197D01*
X187Y197D02*
X192Y197D01*
X206Y197D02*
X219Y197D01*
X253Y197D02*
X260Y197D01*
X829Y197D02*
X835Y197D01*
X842Y197D02*
X848Y197D01*
X874Y197D02*
X881Y197D01*
X890Y197D02*
X896Y197D01*
X144Y196D02*
X150Y196D01*
X158Y196D02*
X164Y196D01*
X187Y196D02*
X192Y196D01*
X206Y196D02*
X219Y196D01*
X254Y196D02*
X261Y196D01*
X829Y196D02*
X835Y196D01*
X842Y196D02*
X848Y196D01*
X874Y196D02*
X881Y196D01*
X890Y196D02*
X896Y196D01*
X143Y195D02*
X150Y195D01*
X158Y195D02*
X164Y195D01*
X187Y195D02*
X192Y195D01*
X205Y195D02*
X219Y195D01*
X254Y195D02*
X262Y195D01*
X829Y195D02*
X835Y195D01*
X842Y195D02*
X848Y195D01*
X873Y195D02*
X880Y195D01*
X890Y195D02*
X896Y195D01*
X143Y194D02*
X149Y194D01*
X158Y194D02*
X164Y194D01*
X187Y194D02*
X192Y194D01*
X205Y194D02*
X211Y194D01*
X213Y194D02*
X219Y194D01*
X255Y194D02*
X263Y194D01*
X829Y194D02*
X835Y194D01*
X842Y194D02*
X848Y194D01*
X873Y194D02*
X879Y194D01*
X890Y194D02*
X896Y194D01*
X142Y193D02*
X149Y193D01*
X158Y193D02*
X164Y193D01*
X187Y193D02*
X192Y193D01*
X204Y193D02*
X211Y193D01*
X213Y193D02*
X219Y193D01*
X256Y193D02*
X263Y193D01*
X829Y193D02*
X835Y193D01*
X842Y193D02*
X848Y193D01*
X872Y193D02*
X879Y193D01*
X890Y193D02*
X896Y193D01*
X142Y192D02*
X148Y192D01*
X158Y192D02*
X164Y192D01*
X187Y192D02*
X192Y192D01*
X204Y192D02*
X210Y192D01*
X213Y192D02*
X219Y192D01*
X257Y192D02*
X264Y192D01*
X829Y192D02*
X835Y192D01*
X842Y192D02*
X848Y192D01*
X872Y192D02*
X878Y192D01*
X890Y192D02*
X896Y192D01*
X141Y191D02*
X148Y191D01*
X158Y191D02*
X164Y191D01*
X187Y191D02*
X192Y191D01*
X204Y191D02*
X210Y191D01*
X213Y191D02*
X219Y191D01*
X258Y191D02*
X265Y191D01*
X829Y191D02*
X835Y191D01*
X842Y191D02*
X848Y191D01*
X872Y191D02*
X878Y191D01*
X890Y191D02*
X896Y191D01*
X141Y190D02*
X147Y190D01*
X158Y190D02*
X164Y190D01*
X187Y190D02*
X192Y190D01*
X203Y190D02*
X210Y190D01*
X213Y190D02*
X219Y190D01*
X258Y190D02*
X265Y190D01*
X829Y190D02*
X835Y190D01*
X842Y190D02*
X848Y190D01*
X871Y190D02*
X877Y190D01*
X890Y190D02*
X896Y190D01*
X140Y189D02*
X147Y189D01*
X158Y189D02*
X164Y189D01*
X187Y189D02*
X192Y189D01*
X203Y189D02*
X209Y189D01*
X213Y189D02*
X219Y189D01*
X259Y189D02*
X266Y189D01*
X828Y189D02*
X849Y189D01*
X871Y189D02*
X877Y189D01*
X890Y189D02*
X896Y189D01*
X140Y188D02*
X146Y188D01*
X158Y188D02*
X164Y188D01*
X187Y188D02*
X192Y188D01*
X202Y188D02*
X209Y188D01*
X213Y188D02*
X219Y188D01*
X260Y188D02*
X266Y188D01*
X826Y188D02*
X851Y188D01*
X871Y188D02*
X877Y188D01*
X890Y188D02*
X896Y188D01*
X140Y187D02*
X146Y187D01*
X158Y187D02*
X164Y187D01*
X187Y187D02*
X192Y187D01*
X202Y187D02*
X208Y187D01*
X213Y187D02*
X219Y187D01*
X260Y187D02*
X267Y187D01*
X824Y187D02*
X853Y187D01*
X871Y187D02*
X876Y187D01*
X890Y187D02*
X896Y187D01*
X139Y186D02*
X145Y186D01*
X158Y186D02*
X164Y186D01*
X187Y186D02*
X192Y186D01*
X201Y186D02*
X208Y186D01*
X213Y186D02*
X219Y186D01*
X261Y186D02*
X267Y186D01*
X824Y186D02*
X853Y186D01*
X871Y186D02*
X876Y186D01*
X890Y186D02*
X896Y186D01*
X139Y185D02*
X145Y185D01*
X158Y185D02*
X164Y185D01*
X187Y185D02*
X192Y185D01*
X201Y185D02*
X207Y185D01*
X213Y185D02*
X219Y185D01*
X261Y185D02*
X267Y185D01*
X823Y185D02*
X854Y185D01*
X871Y185D02*
X876Y185D01*
X890Y185D02*
X896Y185D01*
X139Y184D02*
X145Y184D01*
X158Y184D02*
X164Y184D01*
X187Y184D02*
X192Y184D01*
X201Y184D02*
X207Y184D01*
X213Y184D02*
X219Y184D01*
X261Y184D02*
X267Y184D01*
X823Y184D02*
X854Y184D01*
X871Y184D02*
X877Y184D01*
X890Y184D02*
X896Y184D01*
X139Y183D02*
X144Y183D01*
X158Y183D02*
X164Y183D01*
X187Y183D02*
X192Y183D01*
X200Y183D02*
X206Y183D01*
X213Y183D02*
X219Y183D01*
X261Y183D02*
X267Y183D01*
X822Y183D02*
X855Y183D01*
X871Y183D02*
X877Y183D01*
X890Y183D02*
X896Y183D01*
X139Y182D02*
X144Y182D01*
X158Y182D02*
X164Y182D01*
X187Y182D02*
X192Y182D01*
X200Y182D02*
X206Y182D01*
X213Y182D02*
X219Y182D01*
X261Y182D02*
X267Y182D01*
X822Y182D02*
X828Y182D01*
X849Y182D02*
X855Y182D01*
X871Y182D02*
X877Y182D01*
X890Y182D02*
X896Y182D01*
X139Y181D02*
X144Y181D01*
X158Y181D02*
X164Y181D01*
X187Y181D02*
X192Y181D01*
X199Y181D02*
X206Y181D01*
X213Y181D02*
X219Y181D01*
X261Y181D02*
X267Y181D01*
X822Y181D02*
X828Y181D01*
X849Y181D02*
X855Y181D01*
X871Y181D02*
X878Y181D01*
X890Y181D02*
X896Y181D01*
X139Y180D02*
X144Y180D01*
X158Y180D02*
X164Y180D01*
X187Y180D02*
X192Y180D01*
X199Y180D02*
X205Y180D01*
X213Y180D02*
X219Y180D01*
X261Y180D02*
X267Y180D01*
X822Y180D02*
X828Y180D01*
X849Y180D02*
X855Y180D01*
X872Y180D02*
X878Y180D01*
X890Y180D02*
X896Y180D01*
X139Y179D02*
X145Y179D01*
X158Y179D02*
X164Y179D01*
X187Y179D02*
X192Y179D01*
X198Y179D02*
X205Y179D01*
X213Y179D02*
X219Y179D01*
X235Y179D02*
X249Y179D01*
X261Y179D02*
X267Y179D01*
X822Y179D02*
X828Y179D01*
X849Y179D02*
X855Y179D01*
X872Y179D02*
X879Y179D01*
X890Y179D02*
X896Y179D01*
X139Y178D02*
X145Y178D01*
X158Y178D02*
X164Y178D01*
X187Y178D02*
X192Y178D01*
X198Y178D02*
X204Y178D01*
X213Y178D02*
X219Y178D01*
X235Y178D02*
X250Y178D01*
X261Y178D02*
X267Y178D01*
X822Y178D02*
X828Y178D01*
X849Y178D02*
X855Y178D01*
X873Y178D02*
X879Y178D01*
X890Y178D02*
X896Y178D01*
X139Y177D02*
X146Y177D01*
X158Y177D02*
X164Y177D01*
X187Y177D02*
X192Y177D01*
X197Y177D02*
X204Y177D01*
X213Y177D02*
X219Y177D01*
X235Y177D02*
X250Y177D01*
X261Y177D02*
X267Y177D01*
X822Y177D02*
X828Y177D01*
X849Y177D02*
X855Y177D01*
X873Y177D02*
X880Y177D01*
X890Y177D02*
X896Y177D01*
X140Y176D02*
X146Y176D01*
X158Y176D02*
X164Y176D01*
X187Y176D02*
X192Y176D01*
X197Y176D02*
X203Y176D01*
X213Y176D02*
X219Y176D01*
X235Y176D02*
X250Y176D01*
X261Y176D02*
X267Y176D01*
X822Y176D02*
X828Y176D01*
X849Y176D02*
X855Y176D01*
X874Y176D02*
X880Y176D01*
X890Y176D02*
X896Y176D01*
X140Y175D02*
X147Y175D01*
X158Y175D02*
X164Y175D01*
X187Y175D02*
X192Y175D01*
X197Y175D02*
X203Y175D01*
X213Y175D02*
X219Y175D01*
X235Y175D02*
X250Y175D01*
X261Y175D02*
X267Y175D01*
X822Y175D02*
X828Y175D01*
X849Y175D02*
X855Y175D01*
X874Y175D02*
X881Y175D01*
X890Y175D02*
X896Y175D01*
X141Y174D02*
X147Y174D01*
X158Y174D02*
X164Y174D01*
X187Y174D02*
X192Y174D01*
X196Y174D02*
X203Y174D01*
X213Y174D02*
X219Y174D01*
X235Y174D02*
X250Y174D01*
X261Y174D02*
X267Y174D01*
X822Y174D02*
X828Y174D01*
X849Y174D02*
X855Y174D01*
X875Y174D02*
X881Y174D01*
X890Y174D02*
X896Y174D01*
X141Y173D02*
X148Y173D01*
X158Y173D02*
X164Y173D01*
X187Y173D02*
X192Y173D01*
X196Y173D02*
X202Y173D01*
X213Y173D02*
X219Y173D01*
X235Y173D02*
X248Y173D01*
X261Y173D02*
X267Y173D01*
X822Y173D02*
X828Y173D01*
X849Y173D02*
X855Y173D01*
X875Y173D02*
X882Y173D01*
X890Y173D02*
X896Y173D01*
X142Y172D02*
X148Y172D01*
X158Y172D02*
X164Y172D01*
X187Y172D02*
X192Y172D01*
X195Y172D02*
X202Y172D01*
X213Y172D02*
X219Y172D01*
X235Y172D02*
X241Y172D01*
X261Y172D02*
X267Y172D01*
X822Y172D02*
X828Y172D01*
X849Y172D02*
X855Y172D01*
X876Y172D02*
X882Y172D01*
X890Y172D02*
X896Y172D01*
X142Y171D02*
X149Y171D01*
X158Y171D02*
X164Y171D01*
X187Y171D02*
X192Y171D01*
X195Y171D02*
X201Y171D01*
X213Y171D02*
X219Y171D01*
X235Y171D02*
X241Y171D01*
X261Y171D02*
X267Y171D01*
X822Y171D02*
X828Y171D01*
X849Y171D02*
X855Y171D01*
X876Y171D02*
X883Y171D01*
X890Y171D02*
X896Y171D01*
X143Y170D02*
X149Y170D01*
X158Y170D02*
X164Y170D01*
X187Y170D02*
X192Y170D01*
X194Y170D02*
X201Y170D01*
X213Y170D02*
X219Y170D01*
X235Y170D02*
X241Y170D01*
X261Y170D02*
X267Y170D01*
X822Y170D02*
X828Y170D01*
X849Y170D02*
X855Y170D01*
X877Y170D02*
X883Y170D01*
X890Y170D02*
X896Y170D01*
X143Y169D02*
X150Y169D01*
X158Y169D02*
X164Y169D01*
X187Y169D02*
X192Y169D01*
X194Y169D02*
X200Y169D01*
X213Y169D02*
X219Y169D01*
X235Y169D02*
X241Y169D01*
X261Y169D02*
X267Y169D01*
X822Y169D02*
X828Y169D01*
X849Y169D02*
X855Y169D01*
X877Y169D02*
X884Y169D01*
X890Y169D02*
X896Y169D01*
X144Y168D02*
X150Y168D01*
X158Y168D02*
X164Y168D01*
X187Y168D02*
X200Y168D01*
X213Y168D02*
X219Y168D01*
X235Y168D02*
X241Y168D01*
X261Y168D02*
X267Y168D01*
X822Y168D02*
X828Y168D01*
X849Y168D02*
X855Y168D01*
X878Y168D02*
X884Y168D01*
X890Y168D02*
X896Y168D01*
X144Y167D02*
X151Y167D01*
X158Y167D02*
X164Y167D01*
X187Y167D02*
X199Y167D01*
X213Y167D02*
X219Y167D01*
X235Y167D02*
X241Y167D01*
X261Y167D02*
X267Y167D01*
X822Y167D02*
X828Y167D01*
X849Y167D02*
X855Y167D01*
X878Y167D02*
X885Y167D01*
X890Y167D02*
X896Y167D01*
X145Y166D02*
X151Y166D01*
X158Y166D02*
X164Y166D01*
X187Y166D02*
X199Y166D01*
X213Y166D02*
X219Y166D01*
X235Y166D02*
X241Y166D01*
X261Y166D02*
X267Y166D01*
X822Y166D02*
X855Y166D01*
X879Y166D02*
X901Y166D01*
X145Y165D02*
X152Y165D01*
X158Y165D02*
X164Y165D01*
X187Y165D02*
X199Y165D01*
X213Y165D02*
X219Y165D01*
X235Y165D02*
X241Y165D01*
X261Y165D02*
X267Y165D01*
X823Y165D02*
X854Y165D01*
X879Y165D02*
X902Y165D01*
X146Y164D02*
X152Y164D01*
X158Y164D02*
X164Y164D01*
X187Y164D02*
X198Y164D01*
X213Y164D02*
X219Y164D01*
X235Y164D02*
X241Y164D01*
X261Y164D02*
X267Y164D01*
X823Y164D02*
X854Y164D01*
X880Y164D02*
X903Y164D01*
X146Y163D02*
X153Y163D01*
X158Y163D02*
X164Y163D01*
X187Y163D02*
X198Y163D01*
X213Y163D02*
X219Y163D01*
X235Y163D02*
X242Y163D01*
X259Y163D02*
X267Y163D01*
X824Y163D02*
X853Y163D01*
X881Y163D02*
X903Y163D01*
X147Y162D02*
X169Y162D01*
X187Y162D02*
X197Y162D01*
X213Y162D02*
X219Y162D01*
X236Y162D02*
X266Y162D01*
X824Y162D02*
X853Y162D01*
X882Y162D02*
X903Y162D01*
X147Y161D02*
X170Y161D01*
X187Y161D02*
X197Y161D01*
X213Y161D02*
X219Y161D01*
X236Y161D02*
X266Y161D01*
X826Y161D02*
X852Y161D01*
X883Y161D02*
X902Y161D01*
X148Y160D02*
X170Y160D01*
X187Y160D02*
X196Y160D01*
X213Y160D02*
X219Y160D01*
X237Y160D02*
X265Y160D01*
X827Y160D02*
X850Y160D01*
X886Y160D02*
X901Y160D01*
X148Y159D02*
X171Y159D01*
X187Y159D02*
X196Y159D01*
X213Y159D02*
X219Y159D01*
X238Y159D02*
X264Y159D01*
X150Y158D02*
X170Y158D01*
X187Y158D02*
X196Y158D01*
X213Y158D02*
X219Y158D01*
X239Y158D02*
X263Y158D01*
X151Y157D02*
X170Y157D01*
X187Y157D02*
X195Y157D01*
X214Y157D02*
X218Y157D01*
X240Y157D02*
X262Y157D01*
X154Y156D02*
X168Y156D01*
X187Y156D02*
X195Y156D01*
X215Y156D02*
X216Y156D01*
X243Y156D02*
X259Y156D01*
X357Y133D02*
X374Y133D01*
X355Y132D02*
X375Y132D01*
X353Y131D02*
X376Y131D01*
X563Y131D02*
X581Y131D01*
X352Y130D02*
X377Y130D01*
X562Y130D02*
X582Y130D01*
X351Y129D02*
X358Y129D01*
X372Y129D02*
X377Y129D01*
X560Y129D02*
X583Y129D01*
X349Y128D02*
X356Y128D01*
X374Y128D02*
X378Y128D01*
X559Y128D02*
X584Y128D01*
X348Y127D02*
X354Y127D01*
X374Y127D02*
X378Y127D01*
X558Y127D02*
X565Y127D01*
X580Y127D02*
X584Y127D01*
X347Y126D02*
X353Y126D01*
X374Y126D02*
X378Y126D01*
X556Y126D02*
X563Y126D01*
X581Y126D02*
X585Y126D01*
X346Y125D02*
X352Y125D01*
X374Y125D02*
X378Y125D01*
X555Y125D02*
X561Y125D01*
X581Y125D02*
X585Y125D01*
X345Y124D02*
X351Y124D01*
X374Y124D02*
X378Y124D01*
X554Y124D02*
X560Y124D01*
X581Y124D02*
X585Y124D01*
X344Y123D02*
X349Y123D01*
X374Y123D02*
X378Y123D01*
X553Y123D02*
X559Y123D01*
X581Y123D02*
X585Y123D01*
X344Y122D02*
X348Y122D01*
X364Y122D02*
X365Y122D01*
X374Y122D02*
X378Y122D01*
X456Y122D02*
X459Y122D01*
X480Y122D02*
X483Y122D01*
X552Y122D02*
X558Y122D01*
X581Y122D02*
X585Y122D01*
X344Y121D02*
X347Y121D01*
X363Y121D02*
X366Y121D01*
X374Y121D02*
X378Y121D01*
X454Y121D02*
X460Y121D01*
X479Y121D02*
X484Y121D01*
X551Y121D02*
X556Y121D01*
X581Y121D02*
X585Y121D01*
X344Y120D02*
X347Y120D01*
X363Y120D02*
X366Y120D01*
X374Y120D02*
X378Y120D01*
X453Y120D02*
X462Y120D01*
X479Y120D02*
X485Y120D01*
X551Y120D02*
X555Y120D01*
X571Y120D02*
X572Y120D01*
X581Y120D02*
X585Y120D01*
X657Y120D02*
X668Y120D01*
X344Y119D02*
X347Y119D01*
X363Y119D02*
X366Y119D01*
X374Y119D02*
X378Y119D01*
X453Y119D02*
X463Y119D01*
X480Y119D02*
X486Y119D01*
X551Y119D02*
X554Y119D01*
X570Y119D02*
X573Y119D01*
X581Y119D02*
X585Y119D01*
X656Y119D02*
X670Y119D01*
X344Y118D02*
X347Y118D01*
X363Y118D02*
X366Y118D01*
X374Y118D02*
X378Y118D01*
X453Y118D02*
X464Y118D01*
X481Y118D02*
X486Y118D01*
X551Y118D02*
X554Y118D01*
X570Y118D02*
X573Y118D01*
X581Y118D02*
X585Y118D01*
X656Y118D02*
X673Y118D01*
X344Y117D02*
X347Y117D01*
X363Y117D02*
X366Y117D01*
X374Y117D02*
X378Y117D01*
X453Y117D02*
X456Y117D01*
X459Y117D02*
X466Y117D01*
X483Y117D02*
X487Y117D01*
X551Y117D02*
X554Y117D01*
X570Y117D02*
X573Y117D01*
X581Y117D02*
X585Y117D01*
X657Y117D02*
X675Y117D01*
X344Y116D02*
X347Y116D01*
X363Y116D02*
X366Y116D01*
X373Y116D02*
X377Y116D01*
X453Y116D02*
X456Y116D01*
X460Y116D02*
X467Y116D01*
X483Y116D02*
X487Y116D01*
X551Y116D02*
X554Y116D01*
X570Y116D02*
X573Y116D01*
X581Y116D02*
X585Y116D01*
X666Y116D02*
X678Y116D01*
X344Y115D02*
X347Y115D01*
X363Y115D02*
X377Y115D01*
X453Y115D02*
X456Y115D01*
X462Y115D02*
X468Y115D01*
X483Y115D02*
X487Y115D01*
X551Y115D02*
X554Y115D01*
X570Y115D02*
X573Y115D01*
X581Y115D02*
X585Y115D01*
X669Y115D02*
X681Y115D01*
X344Y114D02*
X347Y114D01*
X363Y114D02*
X376Y114D01*
X453Y114D02*
X456Y114D01*
X463Y114D02*
X469Y114D01*
X483Y114D02*
X487Y114D01*
X551Y114D02*
X554Y114D01*
X570Y114D02*
X574Y114D01*
X580Y114D02*
X584Y114D01*
X672Y114D02*
X683Y114D01*
X344Y113D02*
X347Y113D01*
X363Y113D02*
X375Y113D01*
X453Y113D02*
X456Y113D01*
X464Y113D02*
X471Y113D01*
X483Y113D02*
X487Y113D01*
X551Y113D02*
X554Y113D01*
X570Y113D02*
X584Y113D01*
X674Y113D02*
X686Y113D01*
X344Y112D02*
X347Y112D01*
X363Y112D02*
X374Y112D01*
X453Y112D02*
X456Y112D01*
X465Y112D02*
X472Y112D01*
X483Y112D02*
X487Y112D01*
X551Y112D02*
X554Y112D01*
X570Y112D02*
X583Y112D01*
X677Y112D02*
X688Y112D01*
X453Y111D02*
X456Y111D01*
X467Y111D02*
X473Y111D01*
X483Y111D02*
X487Y111D01*
X551Y111D02*
X554Y111D01*
X570Y111D02*
X582Y111D01*
X679Y111D02*
X690Y111D01*
X780Y111D02*
X807Y111D01*
X826Y111D02*
X828Y111D01*
X852Y111D02*
X855Y111D01*
X877Y111D02*
X903Y111D01*
X141Y110D02*
X141Y110D01*
X168Y110D02*
X168Y110D01*
X190Y110D02*
X212Y110D01*
X453Y110D02*
X456Y110D01*
X468Y110D02*
X475Y110D01*
X483Y110D02*
X487Y110D01*
X551Y110D02*
X553Y110D01*
X570Y110D02*
X581Y110D01*
X682Y110D02*
X690Y110D01*
X779Y110D02*
X808Y110D01*
X825Y110D02*
X829Y110D01*
X851Y110D02*
X856Y110D01*
X875Y110D02*
X904Y110D01*
X139Y109D02*
X143Y109D01*
X166Y109D02*
X170Y109D01*
X188Y109D02*
X212Y109D01*
X453Y109D02*
X456Y109D01*
X469Y109D02*
X476Y109D01*
X483Y109D02*
X487Y109D01*
X681Y109D02*
X690Y109D01*
X778Y109D02*
X808Y109D01*
X824Y109D02*
X830Y109D01*
X851Y109D02*
X856Y109D01*
X874Y109D02*
X904Y109D01*
X139Y108D02*
X144Y108D01*
X165Y108D02*
X170Y108D01*
X187Y108D02*
X212Y108D01*
X453Y108D02*
X456Y108D01*
X471Y108D02*
X477Y108D01*
X483Y108D02*
X487Y108D01*
X678Y108D02*
X689Y108D01*
X777Y108D02*
X808Y108D01*
X824Y108D02*
X830Y108D01*
X851Y108D02*
X856Y108D01*
X873Y108D02*
X904Y108D01*
X139Y107D02*
X144Y107D01*
X165Y107D02*
X171Y107D01*
X187Y107D02*
X212Y107D01*
X453Y107D02*
X456Y107D01*
X472Y107D02*
X478Y107D01*
X483Y107D02*
X487Y107D01*
X676Y107D02*
X687Y107D01*
X776Y107D02*
X808Y107D01*
X824Y107D02*
X830Y107D01*
X851Y107D02*
X856Y107D01*
X873Y107D02*
X904Y107D01*
X138Y106D02*
X144Y106D01*
X165Y106D02*
X171Y106D01*
X187Y106D02*
X212Y106D01*
X453Y106D02*
X456Y106D01*
X473Y106D02*
X480Y106D01*
X483Y106D02*
X487Y106D01*
X673Y106D02*
X685Y106D01*
X776Y106D02*
X807Y106D01*
X824Y106D02*
X830Y106D01*
X851Y106D02*
X856Y106D01*
X872Y106D02*
X904Y106D01*
X138Y105D02*
X144Y105D01*
X165Y105D02*
X171Y105D01*
X187Y105D02*
X212Y105D01*
X453Y105D02*
X457Y105D01*
X474Y105D02*
X481Y105D01*
X483Y105D02*
X487Y105D01*
X671Y105D02*
X682Y105D01*
X776Y105D02*
X806Y105D01*
X824Y105D02*
X830Y105D01*
X851Y105D02*
X856Y105D01*
X872Y105D02*
X902Y105D01*
X138Y104D02*
X144Y104D01*
X165Y104D02*
X171Y104D01*
X188Y104D02*
X212Y104D01*
X453Y104D02*
X459Y104D01*
X476Y104D02*
X486Y104D01*
X668Y104D02*
X680Y104D01*
X776Y104D02*
X782Y104D01*
X824Y104D02*
X830Y104D01*
X851Y104D02*
X856Y104D01*
X872Y104D02*
X878Y104D01*
X138Y103D02*
X144Y103D01*
X165Y103D02*
X171Y103D01*
X206Y103D02*
X212Y103D01*
X454Y103D02*
X460Y103D01*
X477Y103D02*
X486Y103D01*
X659Y103D02*
X677Y103D01*
X776Y103D02*
X782Y103D01*
X824Y103D02*
X830Y103D01*
X851Y103D02*
X856Y103D01*
X872Y103D02*
X878Y103D01*
X138Y102D02*
X144Y102D01*
X165Y102D02*
X171Y102D01*
X206Y102D02*
X212Y102D01*
X454Y102D02*
X460Y102D01*
X478Y102D02*
X485Y102D01*
X657Y102D02*
X675Y102D01*
X776Y102D02*
X782Y102D01*
X824Y102D02*
X830Y102D01*
X851Y102D02*
X856Y102D01*
X872Y102D02*
X878Y102D01*
X138Y101D02*
X144Y101D01*
X165Y101D02*
X171Y101D01*
X206Y101D02*
X212Y101D01*
X344Y101D02*
X376Y101D01*
X456Y101D02*
X459Y101D01*
X480Y101D02*
X484Y101D01*
X656Y101D02*
X672Y101D01*
X776Y101D02*
X782Y101D01*
X824Y101D02*
X830Y101D01*
X851Y101D02*
X856Y101D01*
X872Y101D02*
X878Y101D01*
X138Y100D02*
X144Y100D01*
X165Y100D02*
X171Y100D01*
X206Y100D02*
X212Y100D01*
X344Y100D02*
X377Y100D01*
X656Y100D02*
X669Y100D01*
X776Y100D02*
X782Y100D01*
X824Y100D02*
X830Y100D01*
X851Y100D02*
X856Y100D01*
X872Y100D02*
X878Y100D01*
X138Y99D02*
X144Y99D01*
X165Y99D02*
X171Y99D01*
X206Y99D02*
X212Y99D01*
X344Y99D02*
X378Y99D01*
X551Y99D02*
X583Y99D01*
X657Y99D02*
X667Y99D01*
X776Y99D02*
X782Y99D01*
X824Y99D02*
X830Y99D01*
X851Y99D02*
X856Y99D01*
X872Y99D02*
X878Y99D01*
X138Y98D02*
X144Y98D01*
X165Y98D02*
X171Y98D01*
X206Y98D02*
X212Y98D01*
X344Y98D02*
X378Y98D01*
X551Y98D02*
X584Y98D01*
X776Y98D02*
X782Y98D01*
X824Y98D02*
X830Y98D01*
X851Y98D02*
X856Y98D01*
X872Y98D02*
X878Y98D01*
X138Y97D02*
X144Y97D01*
X165Y97D02*
X171Y97D01*
X206Y97D02*
X212Y97D01*
X344Y97D02*
X377Y97D01*
X551Y97D02*
X585Y97D01*
X776Y97D02*
X782Y97D01*
X824Y97D02*
X830Y97D01*
X850Y97D02*
X856Y97D01*
X872Y97D02*
X878Y97D01*
X138Y96D02*
X144Y96D01*
X165Y96D02*
X171Y96D01*
X206Y96D02*
X212Y96D01*
X344Y96D02*
X352Y96D01*
X551Y96D02*
X584Y96D01*
X776Y96D02*
X782Y96D01*
X824Y96D02*
X831Y96D01*
X850Y96D02*
X856Y96D01*
X872Y96D02*
X878Y96D01*
X138Y95D02*
X145Y95D01*
X164Y95D02*
X171Y95D01*
X206Y95D02*
X212Y95D01*
X344Y95D02*
X354Y95D01*
X551Y95D02*
X584Y95D01*
X776Y95D02*
X782Y95D01*
X825Y95D02*
X831Y95D01*
X850Y95D02*
X856Y95D01*
X872Y95D02*
X878Y95D01*
X139Y94D02*
X145Y94D01*
X164Y94D02*
X170Y94D01*
X206Y94D02*
X212Y94D01*
X346Y94D02*
X357Y94D01*
X551Y94D02*
X559Y94D01*
X776Y94D02*
X782Y94D01*
X825Y94D02*
X831Y94D01*
X849Y94D02*
X856Y94D01*
X872Y94D02*
X878Y94D01*
X139Y93D02*
X145Y93D01*
X164Y93D02*
X170Y93D01*
X206Y93D02*
X212Y93D01*
X349Y93D02*
X359Y93D01*
X551Y93D02*
X562Y93D01*
X776Y93D02*
X782Y93D01*
X825Y93D02*
X832Y93D01*
X849Y93D02*
X855Y93D01*
X872Y93D02*
X878Y93D01*
X140Y92D02*
X146Y92D01*
X163Y92D02*
X170Y92D01*
X206Y92D02*
X212Y92D01*
X351Y92D02*
X361Y92D01*
X553Y92D02*
X564Y92D01*
X776Y92D02*
X782Y92D01*
X826Y92D02*
X832Y92D01*
X848Y92D02*
X855Y92D01*
X872Y92D02*
X878Y92D01*
X140Y91D02*
X146Y91D01*
X163Y91D02*
X169Y91D01*
X206Y91D02*
X212Y91D01*
X353Y91D02*
X364Y91D01*
X556Y91D02*
X566Y91D01*
X776Y91D02*
X782Y91D01*
X826Y91D02*
X832Y91D01*
X848Y91D02*
X854Y91D01*
X872Y91D02*
X878Y91D01*
X140Y90D02*
X147Y90D01*
X163Y90D02*
X169Y90D01*
X206Y90D02*
X212Y90D01*
X355Y90D02*
X366Y90D01*
X558Y90D02*
X568Y90D01*
X776Y90D02*
X783Y90D01*
X827Y90D02*
X833Y90D01*
X848Y90D02*
X854Y90D01*
X873Y90D02*
X879Y90D01*
X141Y89D02*
X147Y89D01*
X162Y89D02*
X168Y89D01*
X206Y89D02*
X212Y89D01*
X358Y89D02*
X368Y89D01*
X468Y89D02*
X471Y89D01*
X560Y89D02*
X571Y89D01*
X777Y89D02*
X785Y89D01*
X827Y89D02*
X833Y89D01*
X847Y89D02*
X854Y89D01*
X873Y89D02*
X882Y89D01*
X141Y88D02*
X147Y88D01*
X162Y88D02*
X168Y88D01*
X206Y88D02*
X212Y88D01*
X360Y88D02*
X370Y88D01*
X468Y88D02*
X471Y88D01*
X563Y88D02*
X573Y88D01*
X673Y88D02*
X674Y88D01*
X777Y88D02*
X801Y88D01*
X827Y88D02*
X834Y88D01*
X847Y88D02*
X853Y88D01*
X873Y88D02*
X897Y88D01*
X141Y87D02*
X148Y87D01*
X161Y87D02*
X168Y87D01*
X191Y87D02*
X212Y87D01*
X362Y87D02*
X373Y87D01*
X468Y87D02*
X471Y87D01*
X565Y87D02*
X575Y87D01*
X672Y87D02*
X675Y87D01*
X778Y87D02*
X801Y87D01*
X828Y87D02*
X834Y87D01*
X847Y87D02*
X853Y87D01*
X874Y87D02*
X898Y87D01*
X142Y86D02*
X148Y86D01*
X161Y86D02*
X167Y86D01*
X189Y86D02*
X212Y86D01*
X365Y86D02*
X375Y86D01*
X468Y86D02*
X471Y86D01*
X567Y86D02*
X578Y86D01*
X671Y86D02*
X675Y86D01*
X778Y86D02*
X802Y86D01*
X828Y86D02*
X834Y86D01*
X846Y86D02*
X852Y86D01*
X875Y86D02*
X898Y86D01*
X142Y85D02*
X149Y85D01*
X161Y85D02*
X167Y85D01*
X188Y85D02*
X212Y85D01*
X367Y85D02*
X377Y85D01*
X468Y85D02*
X471Y85D01*
X569Y85D02*
X580Y85D01*
X671Y85D02*
X675Y85D01*
X778Y85D02*
X802Y85D01*
X829Y85D02*
X835Y85D01*
X846Y85D02*
X852Y85D01*
X875Y85D02*
X898Y85D01*
X143Y84D02*
X149Y84D01*
X160Y84D02*
X166Y84D01*
X188Y84D02*
X212Y84D01*
X369Y84D02*
X378Y84D01*
X468Y84D02*
X471Y84D01*
X572Y84D02*
X582Y84D01*
X671Y84D02*
X675Y84D01*
X778Y84D02*
X801Y84D01*
X829Y84D02*
X835Y84D01*
X845Y84D02*
X852Y84D01*
X874Y84D02*
X897Y84D01*
X143Y83D02*
X149Y83D01*
X160Y83D02*
X166Y83D01*
X187Y83D02*
X212Y83D01*
X345Y83D02*
X378Y83D01*
X468Y83D02*
X471Y83D01*
X574Y83D02*
X584Y83D01*
X671Y83D02*
X675Y83D01*
X777Y83D02*
X800Y83D01*
X829Y83D02*
X836Y83D01*
X845Y83D02*
X851Y83D01*
X873Y83D02*
X897Y83D01*
X143Y82D02*
X150Y82D01*
X159Y82D02*
X166Y82D01*
X187Y82D02*
X212Y82D01*
X344Y82D02*
X378Y82D01*
X468Y82D02*
X471Y82D01*
X576Y82D02*
X585Y82D01*
X671Y82D02*
X675Y82D01*
X777Y82D02*
X784Y82D01*
X830Y82D02*
X836Y82D01*
X845Y82D02*
X851Y82D01*
X873Y82D02*
X880Y82D01*
X144Y81D02*
X150Y81D01*
X159Y81D02*
X165Y81D01*
X187Y81D02*
X212Y81D01*
X344Y81D02*
X378Y81D01*
X461Y81D02*
X478Y81D01*
X552Y81D02*
X585Y81D01*
X671Y81D02*
X675Y81D01*
X776Y81D02*
X783Y81D01*
X830Y81D02*
X836Y81D01*
X844Y81D02*
X850Y81D01*
X873Y81D02*
X879Y81D01*
X144Y80D02*
X150Y80D01*
X159Y80D02*
X165Y80D01*
X187Y80D02*
X192Y80D01*
X344Y80D02*
X378Y80D01*
X459Y80D02*
X480Y80D01*
X551Y80D02*
X585Y80D01*
X671Y80D02*
X675Y80D01*
X776Y80D02*
X782Y80D01*
X831Y80D02*
X837Y80D01*
X844Y80D02*
X850Y80D01*
X872Y80D02*
X878Y80D01*
X145Y79D02*
X151Y79D01*
X158Y79D02*
X165Y79D01*
X187Y79D02*
X192Y79D01*
X345Y79D02*
X378Y79D01*
X459Y79D02*
X480Y79D01*
X551Y79D02*
X585Y79D01*
X664Y79D02*
X683Y79D01*
X776Y79D02*
X782Y79D01*
X831Y79D02*
X837Y79D01*
X843Y79D02*
X850Y79D01*
X872Y79D02*
X878Y79D01*
X145Y78D02*
X151Y78D01*
X158Y78D02*
X164Y78D01*
X187Y78D02*
X192Y78D01*
X459Y78D02*
X480Y78D01*
X551Y78D02*
X585Y78D01*
X663Y78D02*
X684Y78D01*
X776Y78D02*
X782Y78D01*
X831Y78D02*
X838Y78D01*
X843Y78D02*
X849Y78D01*
X872Y78D02*
X878Y78D01*
X145Y77D02*
X152Y77D01*
X157Y77D02*
X164Y77D01*
X187Y77D02*
X192Y77D01*
X460Y77D02*
X479Y77D01*
X552Y77D02*
X585Y77D01*
X663Y77D02*
X684Y77D01*
X776Y77D02*
X782Y77D01*
X832Y77D02*
X838Y77D01*
X843Y77D02*
X849Y77D01*
X872Y77D02*
X878Y77D01*
X146Y76D02*
X152Y76D01*
X157Y76D02*
X163Y76D01*
X187Y76D02*
X192Y76D01*
X468Y76D02*
X471Y76D01*
X663Y76D02*
X684Y76D01*
X776Y76D02*
X782Y76D01*
X832Y76D02*
X838Y76D01*
X842Y76D02*
X849Y76D01*
X872Y76D02*
X878Y76D01*
X146Y75D02*
X152Y75D01*
X157Y75D02*
X163Y75D01*
X187Y75D02*
X192Y75D01*
X468Y75D02*
X471Y75D01*
X664Y75D02*
X682Y75D01*
X776Y75D02*
X782Y75D01*
X832Y75D02*
X839Y75D01*
X842Y75D02*
X848Y75D01*
X872Y75D02*
X878Y75D01*
X147Y74D02*
X153Y74D01*
X156Y74D02*
X163Y74D01*
X187Y74D02*
X192Y74D01*
X468Y74D02*
X471Y74D01*
X671Y74D02*
X675Y74D01*
X776Y74D02*
X782Y74D01*
X833Y74D02*
X839Y74D01*
X841Y74D02*
X848Y74D01*
X872Y74D02*
X878Y74D01*
X147Y73D02*
X153Y73D01*
X156Y73D02*
X162Y73D01*
X187Y73D02*
X192Y73D01*
X468Y73D02*
X471Y73D01*
X671Y73D02*
X675Y73D01*
X776Y73D02*
X782Y73D01*
X833Y73D02*
X847Y73D01*
X872Y73D02*
X878Y73D01*
X147Y72D02*
X162Y72D01*
X187Y72D02*
X192Y72D01*
X468Y72D02*
X471Y72D01*
X671Y72D02*
X675Y72D01*
X776Y72D02*
X782Y72D01*
X834Y72D02*
X847Y72D01*
X872Y72D02*
X878Y72D01*
X148Y71D02*
X161Y71D01*
X187Y71D02*
X192Y71D01*
X468Y71D02*
X471Y71D01*
X671Y71D02*
X675Y71D01*
X776Y71D02*
X782Y71D01*
X834Y71D02*
X847Y71D01*
X872Y71D02*
X878Y71D01*
X148Y70D02*
X161Y70D01*
X187Y70D02*
X192Y70D01*
X468Y70D02*
X471Y70D01*
X671Y70D02*
X675Y70D01*
X776Y70D02*
X782Y70D01*
X834Y70D02*
X846Y70D01*
X872Y70D02*
X878Y70D01*
X149Y69D02*
X161Y69D01*
X187Y69D02*
X192Y69D01*
X468Y69D02*
X471Y69D01*
X671Y69D02*
X675Y69D01*
X776Y69D02*
X782Y69D01*
X835Y69D02*
X846Y69D01*
X872Y69D02*
X878Y69D01*
X149Y68D02*
X160Y68D01*
X187Y68D02*
X192Y68D01*
X344Y68D02*
X346Y68D01*
X375Y68D02*
X377Y68D01*
X469Y68D02*
X470Y68D01*
X671Y68D02*
X675Y68D01*
X776Y68D02*
X782Y68D01*
X835Y68D02*
X845Y68D01*
X872Y68D02*
X878Y68D01*
X149Y67D02*
X160Y67D01*
X187Y67D02*
X192Y67D01*
X214Y67D02*
X217Y67D01*
X344Y67D02*
X347Y67D01*
X374Y67D02*
X378Y67D01*
X672Y67D02*
X675Y67D01*
X776Y67D02*
X782Y67D01*
X836Y67D02*
X845Y67D01*
X872Y67D02*
X878Y67D01*
X150Y66D02*
X159Y66D01*
X187Y66D02*
X192Y66D01*
X212Y66D02*
X218Y66D01*
X344Y66D02*
X347Y66D01*
X374Y66D02*
X378Y66D01*
X551Y66D02*
X554Y66D01*
X582Y66D02*
X584Y66D01*
X776Y66D02*
X806Y66D01*
X836Y66D02*
X845Y66D01*
X872Y66D02*
X903Y66D01*
X150Y65D02*
X159Y65D01*
X187Y65D02*
X193Y65D01*
X209Y65D02*
X219Y65D01*
X344Y65D02*
X347Y65D01*
X374Y65D02*
X378Y65D01*
X551Y65D02*
X554Y65D01*
X581Y65D02*
X585Y65D01*
X776Y65D02*
X807Y65D01*
X836Y65D02*
X844Y65D01*
X872Y65D02*
X904Y65D01*
X150Y64D02*
X159Y64D01*
X187Y64D02*
X219Y64D01*
X344Y64D02*
X378Y64D01*
X551Y64D02*
X554Y64D01*
X581Y64D02*
X585Y64D01*
X776Y64D02*
X808Y64D01*
X837Y64D02*
X844Y64D01*
X873Y64D02*
X904Y64D01*
X151Y63D02*
X158Y63D01*
X187Y63D02*
X219Y63D01*
X344Y63D02*
X378Y63D01*
X551Y63D02*
X554Y63D01*
X581Y63D02*
X585Y63D01*
X777Y63D02*
X808Y63D01*
X837Y63D02*
X843Y63D01*
X873Y63D02*
X904Y63D01*
X151Y62D02*
X158Y62D01*
X187Y62D02*
X218Y62D01*
X344Y62D02*
X378Y62D01*
X551Y62D02*
X585Y62D01*
X778Y62D02*
X808Y62D01*
X838Y62D02*
X843Y62D01*
X874Y62D02*
X904Y62D01*
X152Y61D02*
X158Y61D01*
X188Y61D02*
X216Y61D01*
X344Y61D02*
X378Y61D01*
X551Y61D02*
X585Y61D01*
X779Y61D02*
X808Y61D01*
X838Y61D02*
X843Y61D01*
X875Y61D02*
X904Y61D01*
X152Y60D02*
X157Y60D01*
X189Y60D02*
X214Y60D01*
X344Y60D02*
X378Y60D01*
X551Y60D02*
X585Y60D01*
X781Y60D02*
X806Y60D01*
X839Y60D02*
X841Y60D01*
X877Y60D02*
X903Y60D01*
X153Y59D02*
X156Y59D01*
X190Y59D02*
X212Y59D01*
X344Y59D02*
X347Y59D01*
X374Y59D02*
X378Y59D01*
X551Y59D02*
X585Y59D01*
X344Y58D02*
X347Y58D01*
X374Y58D02*
X378Y58D01*
X551Y58D02*
X585Y58D01*
X344Y57D02*
X348Y57D01*
X374Y57D02*
X378Y57D01*
X551Y57D02*
X554Y57D01*
X581Y57D02*
X585Y57D01*
X344Y56D02*
X349Y56D01*
X373Y56D02*
X377Y56D01*
X551Y56D02*
X554Y56D01*
X581Y56D02*
X585Y56D01*
X345Y55D02*
X351Y55D01*
X371Y55D02*
X377Y55D01*
X551Y55D02*
X555Y55D01*
X581Y55D02*
X585Y55D01*
X345Y54D02*
X353Y54D01*
X369Y54D02*
X376Y54D01*
X551Y54D02*
X556Y54D01*
X580Y54D02*
X584Y54D01*
X346Y53D02*
X355Y53D01*
X367Y53D02*
X376Y53D01*
X552Y53D02*
X558Y53D01*
X578Y53D02*
X584Y53D01*
X347Y52D02*
X357Y52D01*
X365Y52D02*
X374Y52D01*
X552Y52D02*
X560Y52D01*
X576Y52D02*
X583Y52D01*
X349Y51D02*
X359Y51D01*
X362Y51D02*
X372Y51D01*
X553Y51D02*
X562Y51D01*
X574Y51D02*
X582Y51D01*
X351Y50D02*
X370Y50D01*
X555Y50D02*
X564Y50D01*
X572Y50D02*
X581Y50D01*
X353Y49D02*
X368Y49D01*
X557Y49D02*
X566Y49D01*
X569Y49D02*
X579Y49D01*
X355Y48D02*
X366Y48D01*
X559Y48D02*
X577Y48D01*
X358Y47D02*
X364Y47D01*
X560Y47D02*
X575Y47D01*
X562Y46D02*
X573Y46D01*
X565Y45D02*
X571Y45D01*
D02*
G04 End of Silk0*
M02*