G04 MADE WITH FRITZING*
G04 WWW.FRITZING.ORG*
G04 DOUBLE SIDED*
G04 HOLES PLATED*
G04 CONTOUR ON CENTER OF CONTOUR VECTOR*
%ASAXBY*%
%FSLAX23Y23*%
%MOIN*%
%OFA0B0*%
%SFA1.0B1.0*%
%ADD10C,0.010000*%
%ADD11C,0.008000*%
%ADD12R,0.001000X0.001000*%
%LNSILK1*%
G90*
G70*
G54D10*
X18Y823D02*
X18Y23D01*
D02*
X18Y23D02*
X118Y23D01*
D02*
X118Y23D02*
X118Y823D01*
D02*
X118Y823D02*
X18Y823D01*
D02*
X918Y823D02*
X918Y23D01*
D02*
X918Y23D02*
X1018Y23D01*
D02*
X1018Y23D02*
X1018Y823D01*
D02*
X1018Y823D02*
X918Y823D01*
G54D11*
D02*
X601Y178D02*
X601Y155D01*
D02*
X601Y155D02*
X632Y155D01*
D02*
X601Y241D02*
X601Y265D01*
D02*
X601Y265D02*
X632Y265D01*
G54D10*
D02*
X318Y423D02*
X718Y423D01*
D02*
X718Y423D02*
X718Y523D01*
D02*
X718Y523D02*
X318Y523D01*
D02*
X318Y523D02*
X318Y423D01*
G54D12*
X0Y845D02*
X1035Y845D01*
X0Y844D02*
X1035Y844D01*
X0Y843D02*
X1035Y843D01*
X0Y842D02*
X1035Y842D01*
X0Y841D02*
X1035Y841D01*
X0Y840D02*
X1035Y840D01*
X0Y839D02*
X1035Y839D01*
X0Y838D02*
X1035Y838D01*
X0Y837D02*
X7Y837D01*
X1028Y837D02*
X1035Y837D01*
X0Y836D02*
X7Y836D01*
X1028Y836D02*
X1035Y836D01*
X0Y835D02*
X7Y835D01*
X1028Y835D02*
X1035Y835D01*
X0Y834D02*
X7Y834D01*
X1028Y834D02*
X1035Y834D01*
X0Y833D02*
X7Y833D01*
X1028Y833D02*
X1035Y833D01*
X0Y832D02*
X7Y832D01*
X1028Y832D02*
X1035Y832D01*
X0Y831D02*
X7Y831D01*
X1028Y831D02*
X1035Y831D01*
X0Y830D02*
X7Y830D01*
X1028Y830D02*
X1035Y830D01*
X0Y829D02*
X7Y829D01*
X320Y829D02*
X332Y829D01*
X417Y829D02*
X450Y829D01*
X471Y829D02*
X493Y829D01*
X521Y829D02*
X544Y829D01*
X626Y829D02*
X642Y829D01*
X772Y829D02*
X787Y829D01*
X872Y829D02*
X888Y829D01*
X1028Y829D02*
X1035Y829D01*
X0Y828D02*
X7Y828D01*
X318Y828D02*
X336Y828D01*
X368Y828D02*
X371Y828D01*
X395Y828D02*
X399Y828D01*
X417Y828D02*
X450Y828D01*
X468Y828D02*
X497Y828D01*
X518Y828D02*
X547Y828D01*
X569Y828D02*
X572Y828D01*
X622Y828D02*
X646Y828D01*
X719Y828D02*
X723Y828D01*
X747Y828D02*
X750Y828D01*
X769Y828D02*
X788Y828D01*
X870Y828D02*
X888Y828D01*
X1028Y828D02*
X1035Y828D01*
X0Y827D02*
X7Y827D01*
X317Y827D02*
X338Y827D01*
X367Y827D02*
X372Y827D01*
X395Y827D02*
X400Y827D01*
X417Y827D02*
X450Y827D01*
X467Y827D02*
X498Y827D01*
X518Y827D02*
X549Y827D01*
X568Y827D02*
X573Y827D01*
X620Y827D02*
X647Y827D01*
X718Y827D02*
X724Y827D01*
X746Y827D02*
X751Y827D01*
X769Y827D02*
X788Y827D01*
X869Y827D02*
X888Y827D01*
X1028Y827D02*
X1035Y827D01*
X0Y826D02*
X7Y826D01*
X316Y826D02*
X339Y826D01*
X367Y826D02*
X373Y826D01*
X394Y826D02*
X400Y826D01*
X417Y826D02*
X450Y826D01*
X467Y826D02*
X499Y826D01*
X517Y826D02*
X549Y826D01*
X567Y826D02*
X573Y826D01*
X619Y826D02*
X649Y826D01*
X718Y826D02*
X724Y826D01*
X746Y826D02*
X751Y826D01*
X768Y826D02*
X788Y826D01*
X869Y826D02*
X888Y826D01*
X1028Y826D02*
X1035Y826D01*
X0Y825D02*
X7Y825D01*
X51Y825D02*
X51Y825D01*
X317Y825D02*
X340Y825D01*
X367Y825D02*
X373Y825D01*
X394Y825D02*
X400Y825D01*
X417Y825D02*
X450Y825D01*
X467Y825D02*
X500Y825D01*
X517Y825D02*
X550Y825D01*
X567Y825D02*
X573Y825D01*
X619Y825D02*
X649Y825D01*
X718Y825D02*
X724Y825D01*
X746Y825D02*
X752Y825D01*
X768Y825D02*
X788Y825D01*
X869Y825D02*
X888Y825D01*
X951Y825D02*
X951Y825D01*
X1028Y825D02*
X1035Y825D01*
X0Y824D02*
X7Y824D01*
X50Y824D02*
X52Y824D01*
X317Y824D02*
X341Y824D01*
X367Y824D02*
X373Y824D01*
X394Y824D02*
X400Y824D01*
X417Y824D02*
X450Y824D01*
X467Y824D02*
X500Y824D01*
X518Y824D02*
X550Y824D01*
X567Y824D02*
X573Y824D01*
X618Y824D02*
X650Y824D01*
X718Y824D02*
X724Y824D01*
X746Y824D02*
X752Y824D01*
X769Y824D02*
X788Y824D01*
X869Y824D02*
X888Y824D01*
X950Y824D02*
X952Y824D01*
X1028Y824D02*
X1035Y824D01*
X0Y823D02*
X7Y823D01*
X49Y823D02*
X53Y823D01*
X318Y823D02*
X341Y823D01*
X367Y823D02*
X373Y823D01*
X394Y823D02*
X400Y823D01*
X417Y823D02*
X450Y823D01*
X468Y823D02*
X500Y823D01*
X518Y823D02*
X551Y823D01*
X567Y823D02*
X573Y823D01*
X618Y823D02*
X651Y823D01*
X718Y823D02*
X724Y823D01*
X746Y823D02*
X752Y823D01*
X769Y823D02*
X788Y823D01*
X870Y823D02*
X888Y823D01*
X949Y823D02*
X953Y823D01*
X1028Y823D02*
X1035Y823D01*
X0Y822D02*
X7Y822D01*
X48Y822D02*
X54Y822D01*
X320Y822D02*
X342Y822D01*
X367Y822D02*
X373Y822D01*
X394Y822D02*
X400Y822D01*
X417Y822D02*
X450Y822D01*
X471Y822D02*
X501Y822D01*
X521Y822D02*
X551Y822D01*
X567Y822D02*
X573Y822D01*
X618Y822D02*
X651Y822D01*
X718Y822D02*
X724Y822D01*
X746Y822D02*
X752Y822D01*
X772Y822D02*
X788Y822D01*
X872Y822D02*
X888Y822D01*
X948Y822D02*
X954Y822D01*
X1028Y822D02*
X1035Y822D01*
X0Y821D02*
X7Y821D01*
X47Y821D02*
X53Y821D01*
X323Y821D02*
X329Y821D01*
X335Y821D02*
X342Y821D01*
X367Y821D02*
X373Y821D01*
X394Y821D02*
X400Y821D01*
X417Y821D02*
X423Y821D01*
X431Y821D02*
X437Y821D01*
X444Y821D02*
X450Y821D01*
X495Y821D02*
X501Y821D01*
X545Y821D02*
X551Y821D01*
X567Y821D02*
X573Y821D01*
X618Y821D02*
X624Y821D01*
X645Y821D02*
X651Y821D01*
X718Y821D02*
X724Y821D01*
X746Y821D02*
X752Y821D01*
X782Y821D02*
X788Y821D01*
X882Y821D02*
X888Y821D01*
X947Y821D02*
X953Y821D01*
X1028Y821D02*
X1035Y821D01*
X0Y820D02*
X7Y820D01*
X46Y820D02*
X52Y820D01*
X323Y820D02*
X329Y820D01*
X336Y820D02*
X343Y820D01*
X367Y820D02*
X373Y820D01*
X394Y820D02*
X400Y820D01*
X417Y820D02*
X423Y820D01*
X431Y820D02*
X437Y820D01*
X444Y820D02*
X450Y820D01*
X495Y820D02*
X501Y820D01*
X545Y820D02*
X551Y820D01*
X567Y820D02*
X573Y820D01*
X618Y820D02*
X624Y820D01*
X645Y820D02*
X651Y820D01*
X718Y820D02*
X724Y820D01*
X746Y820D02*
X752Y820D01*
X782Y820D02*
X788Y820D01*
X882Y820D02*
X888Y820D01*
X946Y820D02*
X952Y820D01*
X1028Y820D02*
X1035Y820D01*
X0Y819D02*
X7Y819D01*
X45Y819D02*
X51Y819D01*
X323Y819D02*
X329Y819D01*
X336Y819D02*
X343Y819D01*
X367Y819D02*
X373Y819D01*
X394Y819D02*
X400Y819D01*
X417Y819D02*
X423Y819D01*
X431Y819D02*
X437Y819D01*
X444Y819D02*
X450Y819D01*
X495Y819D02*
X501Y819D01*
X545Y819D02*
X551Y819D01*
X567Y819D02*
X573Y819D01*
X618Y819D02*
X625Y819D01*
X645Y819D02*
X651Y819D01*
X718Y819D02*
X724Y819D01*
X746Y819D02*
X752Y819D01*
X782Y819D02*
X788Y819D01*
X882Y819D02*
X888Y819D01*
X945Y819D02*
X951Y819D01*
X1028Y819D02*
X1035Y819D01*
X0Y818D02*
X7Y818D01*
X44Y818D02*
X50Y818D01*
X323Y818D02*
X329Y818D01*
X337Y818D02*
X344Y818D01*
X367Y818D02*
X373Y818D01*
X394Y818D02*
X400Y818D01*
X417Y818D02*
X422Y818D01*
X431Y818D02*
X437Y818D01*
X445Y818D02*
X450Y818D01*
X495Y818D02*
X501Y818D01*
X545Y818D02*
X551Y818D01*
X567Y818D02*
X573Y818D01*
X618Y818D02*
X626Y818D01*
X646Y818D02*
X651Y818D01*
X718Y818D02*
X724Y818D01*
X746Y818D02*
X752Y818D01*
X782Y818D02*
X788Y818D01*
X882Y818D02*
X888Y818D01*
X944Y818D02*
X950Y818D01*
X1028Y818D02*
X1035Y818D01*
X0Y817D02*
X7Y817D01*
X43Y817D02*
X49Y817D01*
X323Y817D02*
X329Y817D01*
X337Y817D02*
X344Y817D01*
X367Y817D02*
X373Y817D01*
X394Y817D02*
X400Y817D01*
X418Y817D02*
X422Y817D01*
X431Y817D02*
X437Y817D01*
X446Y817D02*
X449Y817D01*
X495Y817D02*
X501Y817D01*
X545Y817D02*
X551Y817D01*
X567Y817D02*
X573Y817D01*
X619Y817D02*
X627Y817D01*
X646Y817D02*
X650Y817D01*
X718Y817D02*
X724Y817D01*
X746Y817D02*
X752Y817D01*
X782Y817D02*
X788Y817D01*
X882Y817D02*
X888Y817D01*
X943Y817D02*
X949Y817D01*
X1028Y817D02*
X1035Y817D01*
X0Y816D02*
X7Y816D01*
X42Y816D02*
X48Y816D01*
X323Y816D02*
X329Y816D01*
X338Y816D02*
X345Y816D01*
X367Y816D02*
X373Y816D01*
X394Y816D02*
X400Y816D01*
X431Y816D02*
X437Y816D01*
X495Y816D02*
X501Y816D01*
X545Y816D02*
X551Y816D01*
X567Y816D02*
X573Y816D01*
X619Y816D02*
X627Y816D01*
X718Y816D02*
X724Y816D01*
X746Y816D02*
X752Y816D01*
X782Y816D02*
X788Y816D01*
X882Y816D02*
X888Y816D01*
X942Y816D02*
X948Y816D01*
X1028Y816D02*
X1035Y816D01*
X0Y815D02*
X7Y815D01*
X41Y815D02*
X47Y815D01*
X323Y815D02*
X329Y815D01*
X338Y815D02*
X345Y815D01*
X367Y815D02*
X373Y815D01*
X394Y815D02*
X400Y815D01*
X431Y815D02*
X437Y815D01*
X495Y815D02*
X501Y815D01*
X545Y815D02*
X551Y815D01*
X567Y815D02*
X573Y815D01*
X620Y815D02*
X628Y815D01*
X718Y815D02*
X724Y815D01*
X746Y815D02*
X752Y815D01*
X782Y815D02*
X788Y815D01*
X882Y815D02*
X888Y815D01*
X941Y815D02*
X947Y815D01*
X1028Y815D02*
X1035Y815D01*
X0Y814D02*
X7Y814D01*
X40Y814D02*
X46Y814D01*
X323Y814D02*
X329Y814D01*
X339Y814D02*
X346Y814D01*
X367Y814D02*
X373Y814D01*
X394Y814D02*
X400Y814D01*
X431Y814D02*
X437Y814D01*
X495Y814D02*
X501Y814D01*
X545Y814D02*
X551Y814D01*
X567Y814D02*
X573Y814D01*
X621Y814D02*
X629Y814D01*
X718Y814D02*
X724Y814D01*
X745Y814D02*
X752Y814D01*
X782Y814D02*
X788Y814D01*
X882Y814D02*
X888Y814D01*
X940Y814D02*
X946Y814D01*
X1028Y814D02*
X1035Y814D01*
X0Y813D02*
X7Y813D01*
X39Y813D02*
X45Y813D01*
X323Y813D02*
X329Y813D01*
X339Y813D02*
X346Y813D01*
X367Y813D02*
X373Y813D01*
X394Y813D02*
X400Y813D01*
X431Y813D02*
X437Y813D01*
X495Y813D02*
X501Y813D01*
X545Y813D02*
X551Y813D01*
X567Y813D02*
X573Y813D01*
X622Y813D02*
X630Y813D01*
X718Y813D02*
X725Y813D01*
X745Y813D02*
X752Y813D01*
X782Y813D02*
X788Y813D01*
X882Y813D02*
X888Y813D01*
X939Y813D02*
X945Y813D01*
X1028Y813D02*
X1035Y813D01*
X0Y812D02*
X7Y812D01*
X38Y812D02*
X44Y812D01*
X323Y812D02*
X329Y812D01*
X340Y812D02*
X347Y812D01*
X367Y812D02*
X373Y812D01*
X394Y812D02*
X400Y812D01*
X431Y812D02*
X437Y812D01*
X495Y812D02*
X501Y812D01*
X545Y812D02*
X551Y812D01*
X567Y812D02*
X573Y812D01*
X622Y812D02*
X630Y812D01*
X718Y812D02*
X725Y812D01*
X745Y812D02*
X751Y812D01*
X782Y812D02*
X788Y812D01*
X882Y812D02*
X888Y812D01*
X938Y812D02*
X944Y812D01*
X1028Y812D02*
X1035Y812D01*
X0Y811D02*
X7Y811D01*
X37Y811D02*
X43Y811D01*
X323Y811D02*
X329Y811D01*
X340Y811D02*
X347Y811D01*
X367Y811D02*
X373Y811D01*
X394Y811D02*
X400Y811D01*
X431Y811D02*
X437Y811D01*
X495Y811D02*
X501Y811D01*
X545Y811D02*
X551Y811D01*
X567Y811D02*
X573Y811D01*
X623Y811D02*
X631Y811D01*
X719Y811D02*
X725Y811D01*
X744Y811D02*
X751Y811D01*
X782Y811D02*
X788Y811D01*
X882Y811D02*
X888Y811D01*
X937Y811D02*
X943Y811D01*
X1028Y811D02*
X1035Y811D01*
X0Y810D02*
X7Y810D01*
X36Y810D02*
X42Y810D01*
X323Y810D02*
X329Y810D01*
X341Y810D02*
X348Y810D01*
X367Y810D02*
X373Y810D01*
X394Y810D02*
X400Y810D01*
X431Y810D02*
X437Y810D01*
X495Y810D02*
X501Y810D01*
X545Y810D02*
X551Y810D01*
X567Y810D02*
X573Y810D01*
X624Y810D02*
X632Y810D01*
X719Y810D02*
X726Y810D01*
X744Y810D02*
X750Y810D01*
X782Y810D02*
X788Y810D01*
X882Y810D02*
X888Y810D01*
X936Y810D02*
X942Y810D01*
X1028Y810D02*
X1035Y810D01*
X0Y809D02*
X7Y809D01*
X35Y809D02*
X41Y809D01*
X323Y809D02*
X329Y809D01*
X341Y809D02*
X348Y809D01*
X367Y809D02*
X373Y809D01*
X394Y809D02*
X400Y809D01*
X431Y809D02*
X437Y809D01*
X495Y809D02*
X501Y809D01*
X545Y809D02*
X551Y809D01*
X567Y809D02*
X573Y809D01*
X625Y809D02*
X633Y809D01*
X720Y809D02*
X726Y809D01*
X743Y809D02*
X750Y809D01*
X782Y809D02*
X788Y809D01*
X882Y809D02*
X888Y809D01*
X935Y809D02*
X941Y809D01*
X1028Y809D02*
X1035Y809D01*
X0Y808D02*
X7Y808D01*
X34Y808D02*
X40Y808D01*
X323Y808D02*
X329Y808D01*
X342Y808D02*
X349Y808D01*
X367Y808D02*
X373Y808D01*
X394Y808D02*
X400Y808D01*
X431Y808D02*
X437Y808D01*
X495Y808D02*
X501Y808D01*
X545Y808D02*
X551Y808D01*
X567Y808D02*
X573Y808D01*
X626Y808D02*
X634Y808D01*
X720Y808D02*
X726Y808D01*
X743Y808D02*
X750Y808D01*
X782Y808D02*
X788Y808D01*
X882Y808D02*
X888Y808D01*
X934Y808D02*
X939Y808D01*
X1028Y808D02*
X1035Y808D01*
X0Y807D02*
X7Y807D01*
X33Y807D02*
X38Y807D01*
X323Y807D02*
X329Y807D01*
X342Y807D02*
X349Y807D01*
X367Y807D02*
X373Y807D01*
X394Y807D02*
X400Y807D01*
X431Y807D02*
X437Y807D01*
X495Y807D02*
X501Y807D01*
X545Y807D02*
X551Y807D01*
X567Y807D02*
X573Y807D01*
X626Y807D02*
X634Y807D01*
X720Y807D02*
X727Y807D01*
X743Y807D02*
X749Y807D01*
X782Y807D02*
X788Y807D01*
X882Y807D02*
X888Y807D01*
X933Y807D02*
X938Y807D01*
X1028Y807D02*
X1035Y807D01*
X0Y806D02*
X7Y806D01*
X32Y806D02*
X37Y806D01*
X323Y806D02*
X329Y806D01*
X343Y806D02*
X349Y806D01*
X367Y806D02*
X373Y806D01*
X394Y806D02*
X400Y806D01*
X431Y806D02*
X437Y806D01*
X495Y806D02*
X501Y806D01*
X545Y806D02*
X551Y806D01*
X567Y806D02*
X573Y806D01*
X627Y806D02*
X635Y806D01*
X721Y806D02*
X727Y806D01*
X742Y806D02*
X749Y806D01*
X782Y806D02*
X788Y806D01*
X882Y806D02*
X888Y806D01*
X932Y806D02*
X937Y806D01*
X1028Y806D02*
X1035Y806D01*
X0Y805D02*
X7Y805D01*
X31Y805D02*
X36Y805D01*
X323Y805D02*
X329Y805D01*
X343Y805D02*
X350Y805D01*
X367Y805D02*
X400Y805D01*
X431Y805D02*
X437Y805D01*
X472Y805D02*
X501Y805D01*
X522Y805D02*
X551Y805D01*
X567Y805D02*
X573Y805D01*
X628Y805D02*
X636Y805D01*
X721Y805D02*
X728Y805D01*
X742Y805D02*
X748Y805D01*
X782Y805D02*
X788Y805D01*
X882Y805D02*
X888Y805D01*
X931Y805D02*
X936Y805D01*
X1028Y805D02*
X1035Y805D01*
X0Y804D02*
X7Y804D01*
X30Y804D02*
X35Y804D01*
X323Y804D02*
X329Y804D01*
X344Y804D02*
X350Y804D01*
X367Y804D02*
X400Y804D01*
X431Y804D02*
X437Y804D01*
X470Y804D02*
X500Y804D01*
X520Y804D02*
X551Y804D01*
X567Y804D02*
X573Y804D01*
X629Y804D02*
X637Y804D01*
X721Y804D02*
X728Y804D01*
X741Y804D02*
X748Y804D01*
X782Y804D02*
X788Y804D01*
X882Y804D02*
X888Y804D01*
X930Y804D02*
X935Y804D01*
X1028Y804D02*
X1035Y804D01*
X0Y803D02*
X7Y803D01*
X29Y803D02*
X34Y803D01*
X323Y803D02*
X329Y803D01*
X344Y803D02*
X350Y803D01*
X367Y803D02*
X400Y803D01*
X431Y803D02*
X437Y803D01*
X469Y803D02*
X500Y803D01*
X519Y803D02*
X550Y803D01*
X567Y803D02*
X573Y803D01*
X629Y803D02*
X637Y803D01*
X722Y803D02*
X728Y803D01*
X741Y803D02*
X748Y803D01*
X782Y803D02*
X788Y803D01*
X882Y803D02*
X888Y803D01*
X929Y803D02*
X934Y803D01*
X1028Y803D02*
X1035Y803D01*
X0Y802D02*
X7Y802D01*
X28Y802D02*
X33Y802D01*
X323Y802D02*
X329Y802D01*
X344Y802D02*
X350Y802D01*
X367Y802D02*
X400Y802D01*
X431Y802D02*
X437Y802D01*
X468Y802D02*
X500Y802D01*
X518Y802D02*
X550Y802D01*
X567Y802D02*
X573Y802D01*
X630Y802D02*
X638Y802D01*
X722Y802D02*
X729Y802D01*
X741Y802D02*
X747Y802D01*
X782Y802D02*
X788Y802D01*
X882Y802D02*
X888Y802D01*
X928Y802D02*
X933Y802D01*
X1028Y802D02*
X1035Y802D01*
X0Y801D02*
X7Y801D01*
X27Y801D02*
X33Y801D01*
X323Y801D02*
X329Y801D01*
X344Y801D02*
X350Y801D01*
X367Y801D02*
X400Y801D01*
X431Y801D02*
X437Y801D01*
X467Y801D02*
X499Y801D01*
X518Y801D02*
X549Y801D01*
X567Y801D02*
X573Y801D01*
X631Y801D02*
X639Y801D01*
X723Y801D02*
X729Y801D01*
X740Y801D02*
X747Y801D01*
X782Y801D02*
X788Y801D01*
X882Y801D02*
X888Y801D01*
X927Y801D02*
X933Y801D01*
X1028Y801D02*
X1035Y801D01*
X0Y800D02*
X7Y800D01*
X26Y800D02*
X32Y800D01*
X323Y800D02*
X329Y800D01*
X344Y800D02*
X350Y800D01*
X367Y800D02*
X400Y800D01*
X431Y800D02*
X437Y800D01*
X467Y800D02*
X498Y800D01*
X517Y800D02*
X548Y800D01*
X567Y800D02*
X573Y800D01*
X632Y800D02*
X640Y800D01*
X723Y800D02*
X730Y800D01*
X740Y800D02*
X746Y800D01*
X782Y800D02*
X788Y800D01*
X882Y800D02*
X888Y800D01*
X926Y800D02*
X932Y800D01*
X1028Y800D02*
X1035Y800D01*
X0Y799D02*
X7Y799D01*
X25Y799D02*
X31Y799D01*
X323Y799D02*
X329Y799D01*
X343Y799D02*
X350Y799D01*
X367Y799D02*
X400Y799D01*
X431Y799D02*
X437Y799D01*
X467Y799D02*
X496Y799D01*
X517Y799D02*
X546Y799D01*
X567Y799D02*
X573Y799D01*
X633Y799D02*
X641Y799D01*
X723Y799D02*
X730Y799D01*
X740Y799D02*
X746Y799D01*
X782Y799D02*
X788Y799D01*
X797Y799D02*
X800Y799D01*
X882Y799D02*
X888Y799D01*
X898Y799D02*
X900Y799D01*
X925Y799D02*
X931Y799D01*
X1028Y799D02*
X1035Y799D01*
X0Y798D02*
X7Y798D01*
X24Y798D02*
X30Y798D01*
X323Y798D02*
X329Y798D01*
X343Y798D02*
X349Y798D01*
X367Y798D02*
X373Y798D01*
X394Y798D02*
X400Y798D01*
X431Y798D02*
X437Y798D01*
X467Y798D02*
X473Y798D01*
X517Y798D02*
X523Y798D01*
X567Y798D02*
X573Y798D01*
X633Y798D02*
X641Y798D01*
X724Y798D02*
X730Y798D01*
X739Y798D02*
X746Y798D01*
X782Y798D02*
X788Y798D01*
X796Y798D02*
X801Y798D01*
X882Y798D02*
X888Y798D01*
X897Y798D02*
X901Y798D01*
X924Y798D02*
X930Y798D01*
X1028Y798D02*
X1035Y798D01*
X0Y797D02*
X7Y797D01*
X23Y797D02*
X29Y797D01*
X323Y797D02*
X329Y797D01*
X343Y797D02*
X349Y797D01*
X367Y797D02*
X373Y797D01*
X394Y797D02*
X400Y797D01*
X431Y797D02*
X437Y797D01*
X467Y797D02*
X473Y797D01*
X517Y797D02*
X523Y797D01*
X567Y797D02*
X573Y797D01*
X634Y797D02*
X642Y797D01*
X724Y797D02*
X731Y797D01*
X739Y797D02*
X745Y797D01*
X782Y797D02*
X788Y797D01*
X796Y797D02*
X802Y797D01*
X882Y797D02*
X888Y797D01*
X896Y797D02*
X902Y797D01*
X923Y797D02*
X929Y797D01*
X1028Y797D02*
X1035Y797D01*
X0Y796D02*
X7Y796D01*
X22Y796D02*
X28Y796D01*
X323Y796D02*
X329Y796D01*
X342Y796D02*
X349Y796D01*
X367Y796D02*
X373Y796D01*
X394Y796D02*
X400Y796D01*
X431Y796D02*
X437Y796D01*
X467Y796D02*
X473Y796D01*
X517Y796D02*
X523Y796D01*
X567Y796D02*
X573Y796D01*
X635Y796D02*
X643Y796D01*
X725Y796D02*
X731Y796D01*
X738Y796D02*
X745Y796D01*
X782Y796D02*
X788Y796D01*
X796Y796D02*
X802Y796D01*
X830Y796D02*
X840Y796D01*
X882Y796D02*
X888Y796D01*
X896Y796D02*
X902Y796D01*
X922Y796D02*
X928Y796D01*
X1028Y796D02*
X1035Y796D01*
X0Y795D02*
X7Y795D01*
X21Y795D02*
X27Y795D01*
X323Y795D02*
X329Y795D01*
X342Y795D02*
X348Y795D01*
X367Y795D02*
X373Y795D01*
X394Y795D02*
X400Y795D01*
X431Y795D02*
X437Y795D01*
X467Y795D02*
X473Y795D01*
X517Y795D02*
X523Y795D01*
X567Y795D02*
X573Y795D01*
X636Y795D02*
X644Y795D01*
X725Y795D02*
X732Y795D01*
X738Y795D02*
X745Y795D01*
X782Y795D02*
X788Y795D01*
X796Y795D02*
X802Y795D01*
X829Y795D02*
X841Y795D01*
X882Y795D02*
X888Y795D01*
X896Y795D02*
X902Y795D01*
X921Y795D02*
X927Y795D01*
X1028Y795D02*
X1035Y795D01*
X0Y794D02*
X7Y794D01*
X20Y794D02*
X26Y794D01*
X323Y794D02*
X329Y794D01*
X341Y794D02*
X348Y794D01*
X367Y794D02*
X373Y794D01*
X394Y794D02*
X400Y794D01*
X431Y794D02*
X437Y794D01*
X467Y794D02*
X473Y794D01*
X517Y794D02*
X523Y794D01*
X567Y794D02*
X573Y794D01*
X636Y794D02*
X644Y794D01*
X725Y794D02*
X732Y794D01*
X738Y794D02*
X744Y794D01*
X782Y794D02*
X788Y794D01*
X796Y794D02*
X802Y794D01*
X829Y794D02*
X841Y794D01*
X882Y794D02*
X888Y794D01*
X896Y794D02*
X902Y794D01*
X920Y794D02*
X926Y794D01*
X1028Y794D02*
X1035Y794D01*
X0Y793D02*
X7Y793D01*
X19Y793D02*
X25Y793D01*
X323Y793D02*
X329Y793D01*
X340Y793D02*
X347Y793D01*
X367Y793D02*
X373Y793D01*
X394Y793D02*
X400Y793D01*
X431Y793D02*
X437Y793D01*
X467Y793D02*
X473Y793D01*
X517Y793D02*
X523Y793D01*
X567Y793D02*
X573Y793D01*
X637Y793D02*
X645Y793D01*
X726Y793D02*
X732Y793D01*
X737Y793D02*
X744Y793D01*
X782Y793D02*
X788Y793D01*
X796Y793D02*
X802Y793D01*
X829Y793D02*
X842Y793D01*
X882Y793D02*
X888Y793D01*
X896Y793D02*
X902Y793D01*
X919Y793D02*
X925Y793D01*
X1028Y793D02*
X1035Y793D01*
X0Y792D02*
X7Y792D01*
X18Y792D02*
X24Y792D01*
X323Y792D02*
X329Y792D01*
X340Y792D02*
X347Y792D01*
X367Y792D02*
X373Y792D01*
X394Y792D02*
X400Y792D01*
X431Y792D02*
X437Y792D01*
X467Y792D02*
X473Y792D01*
X517Y792D02*
X523Y792D01*
X567Y792D02*
X573Y792D01*
X638Y792D02*
X646Y792D01*
X726Y792D02*
X733Y792D01*
X737Y792D02*
X743Y792D01*
X782Y792D02*
X788Y792D01*
X796Y792D02*
X802Y792D01*
X829Y792D02*
X842Y792D01*
X882Y792D02*
X888Y792D01*
X896Y792D02*
X902Y792D01*
X918Y792D02*
X924Y792D01*
X1028Y792D02*
X1035Y792D01*
X0Y791D02*
X7Y791D01*
X17Y791D02*
X23Y791D01*
X323Y791D02*
X329Y791D01*
X339Y791D02*
X346Y791D01*
X367Y791D02*
X373Y791D01*
X394Y791D02*
X400Y791D01*
X431Y791D02*
X437Y791D01*
X467Y791D02*
X473Y791D01*
X517Y791D02*
X523Y791D01*
X567Y791D02*
X573Y791D01*
X639Y791D02*
X647Y791D01*
X727Y791D02*
X733Y791D01*
X736Y791D02*
X743Y791D01*
X782Y791D02*
X788Y791D01*
X796Y791D02*
X802Y791D01*
X829Y791D02*
X842Y791D01*
X882Y791D02*
X888Y791D01*
X896Y791D02*
X902Y791D01*
X917Y791D02*
X923Y791D01*
X1028Y791D02*
X1035Y791D01*
X0Y790D02*
X7Y790D01*
X17Y790D02*
X22Y790D01*
X323Y790D02*
X329Y790D01*
X339Y790D02*
X346Y790D01*
X367Y790D02*
X373Y790D01*
X394Y790D02*
X400Y790D01*
X431Y790D02*
X437Y790D01*
X467Y790D02*
X473Y790D01*
X517Y790D02*
X523Y790D01*
X567Y790D02*
X573Y790D01*
X640Y790D02*
X648Y790D01*
X727Y790D02*
X734Y790D01*
X736Y790D02*
X743Y790D01*
X782Y790D02*
X788Y790D01*
X796Y790D02*
X802Y790D01*
X829Y790D02*
X842Y790D01*
X882Y790D02*
X888Y790D01*
X896Y790D02*
X902Y790D01*
X917Y790D02*
X922Y790D01*
X1028Y790D02*
X1035Y790D01*
X0Y789D02*
X7Y789D01*
X18Y789D02*
X21Y789D01*
X323Y789D02*
X329Y789D01*
X338Y789D02*
X345Y789D01*
X367Y789D02*
X373Y789D01*
X394Y789D02*
X400Y789D01*
X431Y789D02*
X437Y789D01*
X467Y789D02*
X473Y789D01*
X517Y789D02*
X523Y789D01*
X567Y789D02*
X573Y789D01*
X640Y789D02*
X648Y789D01*
X727Y789D02*
X734Y789D01*
X736Y789D02*
X742Y789D01*
X782Y789D02*
X788Y789D01*
X796Y789D02*
X802Y789D01*
X829Y789D02*
X842Y789D01*
X882Y789D02*
X888Y789D01*
X896Y789D02*
X902Y789D01*
X918Y789D02*
X921Y789D01*
X1028Y789D02*
X1035Y789D01*
X0Y788D02*
X7Y788D01*
X19Y788D02*
X20Y788D01*
X323Y788D02*
X329Y788D01*
X338Y788D02*
X345Y788D01*
X367Y788D02*
X373Y788D01*
X394Y788D02*
X400Y788D01*
X431Y788D02*
X437Y788D01*
X467Y788D02*
X473Y788D01*
X517Y788D02*
X523Y788D01*
X567Y788D02*
X573Y788D01*
X641Y788D02*
X649Y788D01*
X728Y788D02*
X742Y788D01*
X782Y788D02*
X788Y788D01*
X796Y788D02*
X802Y788D01*
X829Y788D02*
X842Y788D01*
X882Y788D02*
X888Y788D01*
X896Y788D02*
X902Y788D01*
X919Y788D02*
X920Y788D01*
X1028Y788D02*
X1035Y788D01*
X0Y787D02*
X7Y787D01*
X323Y787D02*
X329Y787D01*
X337Y787D02*
X344Y787D01*
X367Y787D02*
X373Y787D01*
X394Y787D02*
X400Y787D01*
X431Y787D02*
X437Y787D01*
X467Y787D02*
X473Y787D01*
X517Y787D02*
X523Y787D01*
X567Y787D02*
X573Y787D01*
X619Y787D02*
X622Y787D01*
X642Y787D02*
X650Y787D01*
X728Y787D02*
X741Y787D01*
X782Y787D02*
X788Y787D01*
X796Y787D02*
X802Y787D01*
X829Y787D02*
X842Y787D01*
X882Y787D02*
X888Y787D01*
X896Y787D02*
X902Y787D01*
X1028Y787D02*
X1035Y787D01*
X0Y786D02*
X7Y786D01*
X323Y786D02*
X329Y786D01*
X337Y786D02*
X344Y786D01*
X367Y786D02*
X373Y786D01*
X394Y786D02*
X400Y786D01*
X431Y786D02*
X437Y786D01*
X467Y786D02*
X473Y786D01*
X517Y786D02*
X523Y786D01*
X567Y786D02*
X573Y786D01*
X618Y786D02*
X623Y786D01*
X643Y786D02*
X650Y786D01*
X728Y786D02*
X741Y786D01*
X782Y786D02*
X788Y786D01*
X796Y786D02*
X802Y786D01*
X829Y786D02*
X841Y786D01*
X882Y786D02*
X888Y786D01*
X896Y786D02*
X902Y786D01*
X1028Y786D02*
X1035Y786D01*
X0Y785D02*
X7Y785D01*
X323Y785D02*
X329Y785D01*
X336Y785D02*
X343Y785D01*
X367Y785D02*
X373Y785D01*
X394Y785D02*
X400Y785D01*
X431Y785D02*
X437Y785D01*
X467Y785D02*
X473Y785D01*
X517Y785D02*
X523Y785D01*
X567Y785D02*
X573Y785D01*
X618Y785D02*
X623Y785D01*
X643Y785D02*
X651Y785D01*
X729Y785D02*
X741Y785D01*
X782Y785D02*
X788Y785D01*
X796Y785D02*
X802Y785D01*
X830Y785D02*
X841Y785D01*
X882Y785D02*
X888Y785D01*
X896Y785D02*
X902Y785D01*
X1028Y785D02*
X1035Y785D01*
X0Y784D02*
X7Y784D01*
X323Y784D02*
X329Y784D01*
X336Y784D02*
X343Y784D01*
X367Y784D02*
X373Y784D01*
X394Y784D02*
X400Y784D01*
X431Y784D02*
X437Y784D01*
X467Y784D02*
X473Y784D01*
X517Y784D02*
X523Y784D01*
X567Y784D02*
X573Y784D01*
X618Y784D02*
X624Y784D01*
X644Y784D02*
X651Y784D01*
X729Y784D02*
X740Y784D01*
X782Y784D02*
X788Y784D01*
X796Y784D02*
X802Y784D01*
X831Y784D02*
X839Y784D01*
X882Y784D02*
X888Y784D01*
X896Y784D02*
X902Y784D01*
X1028Y784D02*
X1035Y784D01*
X0Y783D02*
X7Y783D01*
X323Y783D02*
X329Y783D01*
X335Y783D02*
X342Y783D01*
X367Y783D02*
X373Y783D01*
X394Y783D02*
X400Y783D01*
X431Y783D02*
X437Y783D01*
X467Y783D02*
X473Y783D01*
X517Y783D02*
X523Y783D01*
X567Y783D02*
X573Y783D01*
X618Y783D02*
X624Y783D01*
X645Y783D02*
X651Y783D01*
X730Y783D02*
X740Y783D01*
X782Y783D02*
X788Y783D01*
X796Y783D02*
X802Y783D01*
X882Y783D02*
X888Y783D01*
X896Y783D02*
X902Y783D01*
X1028Y783D02*
X1035Y783D01*
X0Y782D02*
X7Y782D01*
X323Y782D02*
X330Y782D01*
X334Y782D02*
X342Y782D01*
X367Y782D02*
X373Y782D01*
X394Y782D02*
X400Y782D01*
X431Y782D02*
X437Y782D01*
X467Y782D02*
X473Y782D01*
X517Y782D02*
X524Y782D01*
X567Y782D02*
X574Y782D01*
X618Y782D02*
X625Y782D01*
X644Y782D02*
X651Y782D01*
X730Y782D02*
X739Y782D01*
X782Y782D02*
X788Y782D01*
X795Y782D02*
X802Y782D01*
X882Y782D02*
X889Y782D01*
X896Y782D02*
X902Y782D01*
X1028Y782D02*
X1035Y782D01*
X0Y781D02*
X7Y781D01*
X318Y781D02*
X341Y781D01*
X367Y781D02*
X373Y781D01*
X394Y781D02*
X400Y781D01*
X431Y781D02*
X437Y781D01*
X467Y781D02*
X499Y781D01*
X517Y781D02*
X549Y781D01*
X567Y781D02*
X600Y781D01*
X618Y781D02*
X651Y781D01*
X730Y781D02*
X739Y781D01*
X769Y781D02*
X802Y781D01*
X870Y781D02*
X902Y781D01*
X1028Y781D02*
X1035Y781D01*
X0Y780D02*
X7Y780D01*
X317Y780D02*
X341Y780D01*
X367Y780D02*
X373Y780D01*
X394Y780D02*
X400Y780D01*
X431Y780D02*
X437Y780D01*
X467Y780D02*
X500Y780D01*
X517Y780D02*
X550Y780D01*
X567Y780D02*
X601Y780D01*
X619Y780D02*
X651Y780D01*
X731Y780D02*
X739Y780D01*
X769Y780D02*
X802Y780D01*
X869Y780D02*
X902Y780D01*
X1028Y780D02*
X1035Y780D01*
X0Y779D02*
X7Y779D01*
X317Y779D02*
X340Y779D01*
X367Y779D02*
X373Y779D01*
X394Y779D02*
X400Y779D01*
X431Y779D02*
X437Y779D01*
X467Y779D02*
X500Y779D01*
X517Y779D02*
X551Y779D01*
X567Y779D02*
X601Y779D01*
X619Y779D02*
X650Y779D01*
X731Y779D02*
X738Y779D01*
X768Y779D02*
X802Y779D01*
X869Y779D02*
X902Y779D01*
X1028Y779D02*
X1035Y779D01*
X0Y778D02*
X7Y778D01*
X316Y778D02*
X339Y778D01*
X367Y778D02*
X373Y778D01*
X394Y778D02*
X400Y778D01*
X431Y778D02*
X436Y778D01*
X467Y778D02*
X500Y778D01*
X517Y778D02*
X551Y778D01*
X567Y778D02*
X601Y778D01*
X620Y778D02*
X649Y778D01*
X732Y778D02*
X738Y778D01*
X768Y778D02*
X802Y778D01*
X869Y778D02*
X902Y778D01*
X1028Y778D02*
X1035Y778D01*
X0Y777D02*
X7Y777D01*
X317Y777D02*
X338Y777D01*
X367Y777D02*
X372Y777D01*
X395Y777D02*
X400Y777D01*
X431Y777D02*
X436Y777D01*
X467Y777D02*
X500Y777D01*
X517Y777D02*
X550Y777D01*
X567Y777D02*
X601Y777D01*
X621Y777D02*
X649Y777D01*
X732Y777D02*
X737Y777D01*
X769Y777D02*
X801Y777D01*
X869Y777D02*
X902Y777D01*
X1028Y777D02*
X1035Y777D01*
X0Y776D02*
X7Y776D01*
X317Y776D02*
X336Y776D01*
X368Y776D02*
X372Y776D01*
X395Y776D02*
X399Y776D01*
X432Y776D02*
X435Y776D01*
X467Y776D02*
X500Y776D01*
X517Y776D02*
X550Y776D01*
X567Y776D02*
X600Y776D01*
X623Y776D02*
X647Y776D01*
X733Y776D02*
X737Y776D01*
X769Y776D02*
X801Y776D01*
X870Y776D02*
X901Y776D01*
X1028Y776D02*
X1035Y776D01*
X0Y775D02*
X7Y775D01*
X319Y775D02*
X333Y775D01*
X370Y775D02*
X370Y775D01*
X397Y775D02*
X397Y775D01*
X434Y775D02*
X434Y775D01*
X467Y775D02*
X498Y775D01*
X518Y775D02*
X548Y775D01*
X568Y775D02*
X598Y775D01*
X626Y775D02*
X645Y775D01*
X734Y775D02*
X735Y775D01*
X771Y775D02*
X799Y775D01*
X871Y775D02*
X899Y775D01*
X1028Y775D02*
X1035Y775D01*
X0Y774D02*
X7Y774D01*
X1028Y774D02*
X1035Y774D01*
X0Y773D02*
X7Y773D01*
X1028Y773D02*
X1035Y773D01*
X0Y772D02*
X7Y772D01*
X1028Y772D02*
X1035Y772D01*
X0Y771D02*
X7Y771D01*
X1028Y771D02*
X1035Y771D01*
X0Y770D02*
X7Y770D01*
X1028Y770D02*
X1035Y770D01*
X0Y769D02*
X7Y769D01*
X1028Y769D02*
X1035Y769D01*
X0Y768D02*
X7Y768D01*
X1028Y768D02*
X1035Y768D01*
X0Y767D02*
X7Y767D01*
X1028Y767D02*
X1035Y767D01*
X0Y766D02*
X7Y766D01*
X1028Y766D02*
X1035Y766D01*
X0Y765D02*
X7Y765D01*
X1028Y765D02*
X1035Y765D01*
X0Y764D02*
X7Y764D01*
X1028Y764D02*
X1035Y764D01*
X0Y763D02*
X7Y763D01*
X1028Y763D02*
X1035Y763D01*
X0Y762D02*
X7Y762D01*
X1028Y762D02*
X1035Y762D01*
X0Y761D02*
X7Y761D01*
X1028Y761D02*
X1035Y761D01*
X0Y760D02*
X7Y760D01*
X1028Y760D02*
X1035Y760D01*
X0Y759D02*
X7Y759D01*
X1028Y759D02*
X1035Y759D01*
X0Y758D02*
X7Y758D01*
X1028Y758D02*
X1035Y758D01*
X0Y757D02*
X7Y757D01*
X1028Y757D02*
X1035Y757D01*
X0Y756D02*
X7Y756D01*
X1028Y756D02*
X1035Y756D01*
X0Y755D02*
X7Y755D01*
X1028Y755D02*
X1035Y755D01*
X0Y754D02*
X7Y754D01*
X1028Y754D02*
X1035Y754D01*
X0Y753D02*
X7Y753D01*
X1028Y753D02*
X1035Y753D01*
X0Y752D02*
X7Y752D01*
X1028Y752D02*
X1035Y752D01*
X0Y751D02*
X7Y751D01*
X1028Y751D02*
X1035Y751D01*
X0Y750D02*
X7Y750D01*
X1028Y750D02*
X1035Y750D01*
X0Y749D02*
X7Y749D01*
X1028Y749D02*
X1035Y749D01*
X0Y748D02*
X7Y748D01*
X1028Y748D02*
X1035Y748D01*
X0Y747D02*
X7Y747D01*
X1028Y747D02*
X1035Y747D01*
X0Y746D02*
X7Y746D01*
X1028Y746D02*
X1035Y746D01*
X0Y745D02*
X7Y745D01*
X1028Y745D02*
X1035Y745D01*
X0Y744D02*
X7Y744D01*
X1028Y744D02*
X1035Y744D01*
X0Y743D02*
X7Y743D01*
X1028Y743D02*
X1035Y743D01*
X0Y742D02*
X7Y742D01*
X1028Y742D02*
X1035Y742D01*
X0Y741D02*
X7Y741D01*
X1028Y741D02*
X1035Y741D01*
X0Y740D02*
X7Y740D01*
X1028Y740D02*
X1035Y740D01*
X0Y739D02*
X7Y739D01*
X1028Y739D02*
X1035Y739D01*
X0Y738D02*
X7Y738D01*
X1028Y738D02*
X1035Y738D01*
X0Y737D02*
X7Y737D01*
X1028Y737D02*
X1035Y737D01*
X0Y736D02*
X7Y736D01*
X1028Y736D02*
X1035Y736D01*
X0Y735D02*
X7Y735D01*
X1028Y735D02*
X1035Y735D01*
X0Y734D02*
X7Y734D01*
X1028Y734D02*
X1035Y734D01*
X0Y733D02*
X7Y733D01*
X1028Y733D02*
X1035Y733D01*
X0Y732D02*
X7Y732D01*
X1028Y732D02*
X1035Y732D01*
X0Y731D02*
X7Y731D01*
X1028Y731D02*
X1035Y731D01*
X0Y730D02*
X7Y730D01*
X1028Y730D02*
X1035Y730D01*
X0Y729D02*
X7Y729D01*
X1028Y729D02*
X1035Y729D01*
X0Y728D02*
X7Y728D01*
X1028Y728D02*
X1035Y728D01*
X0Y727D02*
X7Y727D01*
X1028Y727D02*
X1035Y727D01*
X0Y726D02*
X7Y726D01*
X1028Y726D02*
X1035Y726D01*
X0Y725D02*
X7Y725D01*
X1028Y725D02*
X1035Y725D01*
X0Y724D02*
X7Y724D01*
X1028Y724D02*
X1035Y724D01*
X0Y723D02*
X7Y723D01*
X1028Y723D02*
X1035Y723D01*
X0Y722D02*
X7Y722D01*
X1028Y722D02*
X1035Y722D01*
X0Y721D02*
X7Y721D01*
X1028Y721D02*
X1035Y721D01*
X0Y720D02*
X7Y720D01*
X1028Y720D02*
X1035Y720D01*
X0Y719D02*
X7Y719D01*
X1028Y719D02*
X1035Y719D01*
X0Y718D02*
X7Y718D01*
X1028Y718D02*
X1035Y718D01*
X0Y717D02*
X7Y717D01*
X1028Y717D02*
X1035Y717D01*
X0Y716D02*
X7Y716D01*
X1028Y716D02*
X1035Y716D01*
X0Y715D02*
X7Y715D01*
X1028Y715D02*
X1035Y715D01*
X0Y714D02*
X7Y714D01*
X1028Y714D02*
X1035Y714D01*
X0Y713D02*
X7Y713D01*
X1028Y713D02*
X1035Y713D01*
X0Y712D02*
X7Y712D01*
X1028Y712D02*
X1035Y712D01*
X0Y711D02*
X7Y711D01*
X1028Y711D02*
X1035Y711D01*
X0Y710D02*
X7Y710D01*
X324Y710D02*
X334Y710D01*
X346Y710D02*
X356Y710D01*
X407Y710D02*
X417Y710D01*
X438Y710D02*
X452Y710D01*
X491Y710D02*
X509Y710D01*
X1028Y710D02*
X1035Y710D01*
X0Y709D02*
X7Y709D01*
X322Y709D02*
X335Y709D01*
X345Y709D02*
X357Y709D01*
X406Y709D02*
X417Y709D01*
X437Y709D02*
X454Y709D01*
X491Y709D02*
X510Y709D01*
X1028Y709D02*
X1035Y709D01*
X0Y708D02*
X7Y708D01*
X321Y708D02*
X335Y708D01*
X345Y708D02*
X357Y708D01*
X405Y708D02*
X417Y708D01*
X436Y708D02*
X455Y708D01*
X491Y708D02*
X510Y708D01*
X1028Y708D02*
X1035Y708D01*
X0Y707D02*
X7Y707D01*
X320Y707D02*
X334Y707D01*
X346Y707D02*
X357Y707D01*
X406Y707D02*
X417Y707D01*
X436Y707D02*
X455Y707D01*
X491Y707D02*
X510Y707D01*
X1028Y707D02*
X1035Y707D01*
X0Y706D02*
X7Y706D01*
X320Y706D02*
X325Y706D01*
X353Y706D02*
X357Y706D01*
X413Y706D02*
X417Y706D01*
X435Y706D02*
X439Y706D01*
X452Y706D02*
X455Y706D01*
X491Y706D02*
X494Y706D01*
X1028Y706D02*
X1035Y706D01*
X0Y705D02*
X7Y705D01*
X319Y705D02*
X323Y705D01*
X353Y705D02*
X357Y705D01*
X414Y705D02*
X417Y705D01*
X435Y705D02*
X439Y705D01*
X452Y705D02*
X455Y705D01*
X491Y705D02*
X494Y705D01*
X1028Y705D02*
X1035Y705D01*
X0Y704D02*
X7Y704D01*
X319Y704D02*
X323Y704D01*
X353Y704D02*
X357Y704D01*
X414Y704D02*
X417Y704D01*
X435Y704D02*
X439Y704D01*
X452Y704D02*
X455Y704D01*
X491Y704D02*
X494Y704D01*
X1028Y704D02*
X1035Y704D01*
X0Y703D02*
X7Y703D01*
X318Y703D02*
X322Y703D01*
X353Y703D02*
X357Y703D01*
X414Y703D02*
X417Y703D01*
X435Y703D02*
X439Y703D01*
X452Y703D02*
X455Y703D01*
X491Y703D02*
X494Y703D01*
X1028Y703D02*
X1035Y703D01*
X0Y702D02*
X7Y702D01*
X318Y702D02*
X322Y702D01*
X353Y702D02*
X357Y702D01*
X414Y702D02*
X417Y702D01*
X435Y702D02*
X439Y702D01*
X452Y702D02*
X455Y702D01*
X491Y702D02*
X494Y702D01*
X1028Y702D02*
X1035Y702D01*
X0Y701D02*
X7Y701D01*
X317Y701D02*
X321Y701D01*
X353Y701D02*
X357Y701D01*
X414Y701D02*
X417Y701D01*
X435Y701D02*
X439Y701D01*
X452Y701D02*
X455Y701D01*
X491Y701D02*
X494Y701D01*
X1028Y701D02*
X1035Y701D01*
X0Y700D02*
X7Y700D01*
X317Y700D02*
X321Y700D01*
X353Y700D02*
X357Y700D01*
X414Y700D02*
X417Y700D01*
X435Y700D02*
X439Y700D01*
X452Y700D02*
X455Y700D01*
X491Y700D02*
X494Y700D01*
X1028Y700D02*
X1035Y700D01*
X0Y699D02*
X7Y699D01*
X316Y699D02*
X320Y699D01*
X353Y699D02*
X357Y699D01*
X414Y699D02*
X417Y699D01*
X435Y699D02*
X439Y699D01*
X452Y699D02*
X455Y699D01*
X491Y699D02*
X506Y699D01*
X1028Y699D02*
X1035Y699D01*
X0Y698D02*
X7Y698D01*
X316Y698D02*
X320Y698D01*
X353Y698D02*
X357Y698D01*
X414Y698D02*
X417Y698D01*
X435Y698D02*
X439Y698D01*
X452Y698D02*
X455Y698D01*
X465Y698D02*
X466Y698D01*
X479Y698D02*
X480Y698D01*
X491Y698D02*
X506Y698D01*
X1028Y698D02*
X1035Y698D01*
X0Y697D02*
X7Y697D01*
X316Y697D02*
X319Y697D01*
X353Y697D02*
X357Y697D01*
X414Y697D02*
X417Y697D01*
X435Y697D02*
X439Y697D01*
X452Y697D02*
X455Y697D01*
X464Y697D02*
X467Y697D01*
X478Y697D02*
X481Y697D01*
X491Y697D02*
X506Y697D01*
X1028Y697D02*
X1035Y697D01*
X0Y696D02*
X7Y696D01*
X315Y696D02*
X319Y696D01*
X353Y696D02*
X357Y696D01*
X414Y696D02*
X417Y696D01*
X435Y696D02*
X439Y696D01*
X452Y696D02*
X455Y696D01*
X464Y696D02*
X467Y696D01*
X478Y696D02*
X481Y696D01*
X491Y696D02*
X505Y696D01*
X1028Y696D02*
X1035Y696D01*
X0Y695D02*
X7Y695D01*
X315Y695D02*
X318Y695D01*
X353Y695D02*
X357Y695D01*
X414Y695D02*
X417Y695D01*
X435Y695D02*
X439Y695D01*
X452Y695D02*
X455Y695D01*
X464Y695D02*
X467Y695D01*
X478Y695D02*
X481Y695D01*
X491Y695D02*
X494Y695D01*
X1028Y695D02*
X1035Y695D01*
X0Y694D02*
X7Y694D01*
X315Y694D02*
X318Y694D01*
X353Y694D02*
X357Y694D01*
X414Y694D02*
X417Y694D01*
X435Y694D02*
X439Y694D01*
X452Y694D02*
X455Y694D01*
X464Y694D02*
X467Y694D01*
X478Y694D02*
X481Y694D01*
X491Y694D02*
X494Y694D01*
X1028Y694D02*
X1035Y694D01*
X0Y693D02*
X7Y693D01*
X315Y693D02*
X318Y693D01*
X353Y693D02*
X357Y693D01*
X414Y693D02*
X417Y693D01*
X435Y693D02*
X439Y693D01*
X452Y693D02*
X455Y693D01*
X464Y693D02*
X467Y693D01*
X478Y693D02*
X481Y693D01*
X491Y693D02*
X494Y693D01*
X1028Y693D02*
X1035Y693D01*
X0Y692D02*
X7Y692D01*
X315Y692D02*
X319Y692D01*
X353Y692D02*
X357Y692D01*
X362Y692D02*
X364Y692D01*
X414Y692D02*
X417Y692D01*
X423Y692D02*
X424Y692D01*
X435Y692D02*
X439Y692D01*
X452Y692D02*
X455Y692D01*
X464Y692D02*
X467Y692D01*
X478Y692D02*
X481Y692D01*
X491Y692D02*
X494Y692D01*
X1028Y692D02*
X1035Y692D01*
X0Y691D02*
X7Y691D01*
X316Y691D02*
X319Y691D01*
X353Y691D02*
X357Y691D01*
X362Y691D02*
X365Y691D01*
X414Y691D02*
X417Y691D01*
X422Y691D02*
X425Y691D01*
X435Y691D02*
X439Y691D01*
X452Y691D02*
X455Y691D01*
X464Y691D02*
X467Y691D01*
X478Y691D02*
X481Y691D01*
X491Y691D02*
X494Y691D01*
X1028Y691D02*
X1035Y691D01*
X0Y690D02*
X7Y690D01*
X316Y690D02*
X320Y690D01*
X353Y690D02*
X357Y690D01*
X362Y690D02*
X365Y690D01*
X414Y690D02*
X417Y690D01*
X422Y690D02*
X425Y690D01*
X435Y690D02*
X439Y690D01*
X452Y690D02*
X455Y690D01*
X464Y690D02*
X467Y690D01*
X478Y690D02*
X481Y690D01*
X491Y690D02*
X494Y690D01*
X1028Y690D02*
X1035Y690D01*
X0Y689D02*
X7Y689D01*
X316Y689D02*
X320Y689D01*
X353Y689D02*
X357Y689D01*
X362Y689D02*
X365Y689D01*
X414Y689D02*
X417Y689D01*
X422Y689D02*
X425Y689D01*
X435Y689D02*
X439Y689D01*
X452Y689D02*
X455Y689D01*
X464Y689D02*
X467Y689D01*
X478Y689D02*
X481Y689D01*
X491Y689D02*
X494Y689D01*
X1028Y689D02*
X1035Y689D01*
X0Y688D02*
X7Y688D01*
X317Y688D02*
X321Y688D01*
X353Y688D02*
X357Y688D01*
X362Y688D02*
X365Y688D01*
X414Y688D02*
X417Y688D01*
X422Y688D02*
X425Y688D01*
X435Y688D02*
X439Y688D01*
X452Y688D02*
X455Y688D01*
X464Y688D02*
X467Y688D01*
X478Y688D02*
X481Y688D01*
X491Y688D02*
X494Y688D01*
X1028Y688D02*
X1035Y688D01*
X0Y687D02*
X7Y687D01*
X317Y687D02*
X321Y687D01*
X353Y687D02*
X357Y687D01*
X362Y687D02*
X365Y687D01*
X414Y687D02*
X417Y687D01*
X422Y687D02*
X425Y687D01*
X435Y687D02*
X439Y687D01*
X452Y687D02*
X455Y687D01*
X464Y687D02*
X467Y687D01*
X478Y687D02*
X481Y687D01*
X491Y687D02*
X494Y687D01*
X1028Y687D02*
X1035Y687D01*
X0Y686D02*
X7Y686D01*
X318Y686D02*
X322Y686D01*
X353Y686D02*
X357Y686D01*
X362Y686D02*
X365Y686D01*
X414Y686D02*
X417Y686D01*
X422Y686D02*
X425Y686D01*
X435Y686D02*
X439Y686D01*
X452Y686D02*
X455Y686D01*
X464Y686D02*
X467Y686D01*
X478Y686D02*
X480Y686D01*
X491Y686D02*
X494Y686D01*
X1028Y686D02*
X1035Y686D01*
X0Y685D02*
X7Y685D01*
X318Y685D02*
X322Y685D01*
X353Y685D02*
X357Y685D01*
X362Y685D02*
X365Y685D01*
X414Y685D02*
X417Y685D01*
X422Y685D02*
X425Y685D01*
X435Y685D02*
X439Y685D01*
X452Y685D02*
X455Y685D01*
X464Y685D02*
X467Y685D01*
X478Y685D02*
X480Y685D01*
X491Y685D02*
X494Y685D01*
X1028Y685D02*
X1035Y685D01*
X0Y684D02*
X7Y684D01*
X319Y684D02*
X323Y684D01*
X353Y684D02*
X357Y684D01*
X362Y684D02*
X365Y684D01*
X414Y684D02*
X417Y684D01*
X422Y684D02*
X425Y684D01*
X435Y684D02*
X439Y684D01*
X452Y684D02*
X455Y684D01*
X464Y684D02*
X467Y684D01*
X478Y684D02*
X480Y684D01*
X491Y684D02*
X494Y684D01*
X1028Y684D02*
X1035Y684D01*
X0Y683D02*
X7Y683D01*
X319Y683D02*
X323Y683D01*
X353Y683D02*
X357Y683D01*
X362Y683D02*
X365Y683D01*
X414Y683D02*
X417Y683D01*
X422Y683D02*
X425Y683D01*
X435Y683D02*
X439Y683D01*
X452Y683D02*
X455Y683D01*
X464Y683D02*
X467Y683D01*
X477Y683D02*
X480Y683D01*
X491Y683D02*
X494Y683D01*
X1028Y683D02*
X1035Y683D01*
X0Y682D02*
X7Y682D01*
X320Y682D02*
X332Y682D01*
X347Y682D02*
X365Y682D01*
X408Y682D02*
X425Y682D01*
X435Y682D02*
X455Y682D01*
X464Y682D02*
X468Y682D01*
X476Y682D02*
X480Y682D01*
X491Y682D02*
X494Y682D01*
X1028Y682D02*
X1035Y682D01*
X0Y681D02*
X7Y681D01*
X320Y681D02*
X334Y681D01*
X345Y681D02*
X365Y681D01*
X406Y681D02*
X425Y681D01*
X436Y681D02*
X455Y681D01*
X464Y681D02*
X469Y681D01*
X475Y681D02*
X477Y681D01*
X479Y681D02*
X481Y681D01*
X491Y681D02*
X494Y681D01*
X1028Y681D02*
X1035Y681D01*
X0Y680D02*
X7Y680D01*
X321Y680D02*
X335Y680D01*
X345Y680D02*
X365Y680D01*
X405Y680D02*
X425Y680D01*
X436Y680D02*
X455Y680D01*
X464Y680D02*
X476Y680D01*
X479Y680D02*
X482Y680D01*
X491Y680D02*
X494Y680D01*
X1028Y680D02*
X1035Y680D01*
X0Y679D02*
X7Y679D01*
X322Y679D02*
X334Y679D01*
X345Y679D02*
X365Y679D01*
X406Y679D02*
X425Y679D01*
X437Y679D02*
X454Y679D01*
X464Y679D02*
X475Y679D01*
X479Y679D02*
X483Y679D01*
X491Y679D02*
X494Y679D01*
X1028Y679D02*
X1035Y679D01*
X0Y678D02*
X7Y678D01*
X324Y678D02*
X333Y678D01*
X346Y678D02*
X364Y678D01*
X407Y678D02*
X424Y678D01*
X439Y678D02*
X452Y678D01*
X464Y678D02*
X467Y678D01*
X469Y678D02*
X474Y678D01*
X480Y678D02*
X483Y678D01*
X492Y678D02*
X492Y678D01*
X1028Y678D02*
X1035Y678D01*
X0Y677D02*
X7Y677D01*
X464Y677D02*
X467Y677D01*
X1028Y677D02*
X1035Y677D01*
X0Y676D02*
X7Y676D01*
X464Y676D02*
X467Y676D01*
X1028Y676D02*
X1035Y676D01*
X0Y675D02*
X7Y675D01*
X464Y675D02*
X467Y675D01*
X1028Y675D02*
X1035Y675D01*
X0Y674D02*
X7Y674D01*
X464Y674D02*
X467Y674D01*
X1028Y674D02*
X1035Y674D01*
X0Y673D02*
X7Y673D01*
X464Y673D02*
X467Y673D01*
X1028Y673D02*
X1035Y673D01*
X0Y672D02*
X7Y672D01*
X464Y672D02*
X467Y672D01*
X1028Y672D02*
X1035Y672D01*
X0Y671D02*
X7Y671D01*
X464Y671D02*
X467Y671D01*
X1028Y671D02*
X1035Y671D01*
X0Y670D02*
X7Y670D01*
X1028Y670D02*
X1035Y670D01*
X0Y669D02*
X7Y669D01*
X327Y669D02*
X527Y669D01*
X1028Y669D02*
X1035Y669D01*
X0Y668D02*
X7Y668D01*
X327Y668D02*
X527Y668D01*
X1028Y668D02*
X1035Y668D01*
X0Y667D02*
X7Y667D01*
X327Y667D02*
X527Y667D01*
X1028Y667D02*
X1035Y667D01*
X0Y666D02*
X7Y666D01*
X327Y666D02*
X329Y666D01*
X403Y666D02*
X451Y666D01*
X525Y666D02*
X527Y666D01*
X1028Y666D02*
X1035Y666D01*
X0Y665D02*
X7Y665D01*
X327Y665D02*
X329Y665D01*
X525Y665D02*
X527Y665D01*
X1028Y665D02*
X1035Y665D01*
X0Y664D02*
X7Y664D01*
X327Y664D02*
X329Y664D01*
X525Y664D02*
X527Y664D01*
X1028Y664D02*
X1035Y664D01*
X0Y663D02*
X7Y663D01*
X327Y663D02*
X329Y663D01*
X525Y663D02*
X527Y663D01*
X1028Y663D02*
X1035Y663D01*
X0Y662D02*
X7Y662D01*
X327Y662D02*
X329Y662D01*
X525Y662D02*
X527Y662D01*
X1028Y662D02*
X1035Y662D01*
X0Y661D02*
X7Y661D01*
X327Y661D02*
X329Y661D01*
X525Y661D02*
X527Y661D01*
X1028Y661D02*
X1035Y661D01*
X0Y660D02*
X7Y660D01*
X327Y660D02*
X329Y660D01*
X525Y660D02*
X527Y660D01*
X1028Y660D02*
X1035Y660D01*
X0Y659D02*
X7Y659D01*
X327Y659D02*
X329Y659D01*
X525Y659D02*
X527Y659D01*
X1028Y659D02*
X1035Y659D01*
X0Y658D02*
X7Y658D01*
X327Y658D02*
X329Y658D01*
X525Y658D02*
X527Y658D01*
X1028Y658D02*
X1035Y658D01*
X0Y657D02*
X7Y657D01*
X327Y657D02*
X329Y657D01*
X525Y657D02*
X527Y657D01*
X1028Y657D02*
X1035Y657D01*
X0Y656D02*
X7Y656D01*
X327Y656D02*
X329Y656D01*
X525Y656D02*
X527Y656D01*
X1028Y656D02*
X1035Y656D01*
X0Y655D02*
X7Y655D01*
X327Y655D02*
X329Y655D01*
X525Y655D02*
X527Y655D01*
X1028Y655D02*
X1035Y655D01*
X0Y654D02*
X7Y654D01*
X327Y654D02*
X329Y654D01*
X525Y654D02*
X527Y654D01*
X1028Y654D02*
X1035Y654D01*
X0Y653D02*
X7Y653D01*
X327Y653D02*
X329Y653D01*
X525Y653D02*
X527Y653D01*
X1028Y653D02*
X1035Y653D01*
X0Y652D02*
X7Y652D01*
X327Y652D02*
X329Y652D01*
X525Y652D02*
X527Y652D01*
X1028Y652D02*
X1035Y652D01*
X0Y651D02*
X7Y651D01*
X327Y651D02*
X329Y651D01*
X525Y651D02*
X527Y651D01*
X1028Y651D02*
X1035Y651D01*
X0Y650D02*
X7Y650D01*
X327Y650D02*
X329Y650D01*
X525Y650D02*
X527Y650D01*
X1028Y650D02*
X1035Y650D01*
X0Y649D02*
X7Y649D01*
X327Y649D02*
X329Y649D01*
X525Y649D02*
X527Y649D01*
X1028Y649D02*
X1035Y649D01*
X0Y648D02*
X7Y648D01*
X327Y648D02*
X329Y648D01*
X525Y648D02*
X527Y648D01*
X1028Y648D02*
X1035Y648D01*
X0Y647D02*
X7Y647D01*
X327Y647D02*
X329Y647D01*
X525Y647D02*
X527Y647D01*
X1028Y647D02*
X1035Y647D01*
X0Y646D02*
X7Y646D01*
X327Y646D02*
X329Y646D01*
X525Y646D02*
X527Y646D01*
X1028Y646D02*
X1035Y646D01*
X0Y645D02*
X7Y645D01*
X327Y645D02*
X329Y645D01*
X525Y645D02*
X527Y645D01*
X1028Y645D02*
X1035Y645D01*
X0Y644D02*
X7Y644D01*
X327Y644D02*
X329Y644D01*
X525Y644D02*
X527Y644D01*
X1028Y644D02*
X1035Y644D01*
X0Y643D02*
X7Y643D01*
X327Y643D02*
X329Y643D01*
X525Y643D02*
X527Y643D01*
X1028Y643D02*
X1035Y643D01*
X0Y642D02*
X7Y642D01*
X327Y642D02*
X329Y642D01*
X525Y642D02*
X527Y642D01*
X1028Y642D02*
X1035Y642D01*
X0Y641D02*
X7Y641D01*
X327Y641D02*
X329Y641D01*
X525Y641D02*
X527Y641D01*
X1028Y641D02*
X1035Y641D01*
X0Y640D02*
X7Y640D01*
X327Y640D02*
X329Y640D01*
X525Y640D02*
X527Y640D01*
X1028Y640D02*
X1035Y640D01*
X0Y639D02*
X7Y639D01*
X327Y639D02*
X329Y639D01*
X525Y639D02*
X527Y639D01*
X1028Y639D02*
X1035Y639D01*
X0Y638D02*
X7Y638D01*
X327Y638D02*
X329Y638D01*
X525Y638D02*
X527Y638D01*
X1028Y638D02*
X1035Y638D01*
X0Y637D02*
X7Y637D01*
X327Y637D02*
X329Y637D01*
X525Y637D02*
X527Y637D01*
X1028Y637D02*
X1035Y637D01*
X0Y636D02*
X7Y636D01*
X327Y636D02*
X329Y636D01*
X525Y636D02*
X527Y636D01*
X1028Y636D02*
X1035Y636D01*
X0Y635D02*
X7Y635D01*
X327Y635D02*
X329Y635D01*
X525Y635D02*
X527Y635D01*
X1028Y635D02*
X1035Y635D01*
X0Y634D02*
X7Y634D01*
X327Y634D02*
X329Y634D01*
X525Y634D02*
X527Y634D01*
X1028Y634D02*
X1035Y634D01*
X0Y633D02*
X7Y633D01*
X327Y633D02*
X329Y633D01*
X525Y633D02*
X527Y633D01*
X1028Y633D02*
X1035Y633D01*
X0Y632D02*
X7Y632D01*
X327Y632D02*
X329Y632D01*
X525Y632D02*
X527Y632D01*
X1028Y632D02*
X1035Y632D01*
X0Y631D02*
X7Y631D01*
X327Y631D02*
X329Y631D01*
X525Y631D02*
X527Y631D01*
X1028Y631D02*
X1035Y631D01*
X0Y630D02*
X7Y630D01*
X327Y630D02*
X329Y630D01*
X525Y630D02*
X527Y630D01*
X1028Y630D02*
X1035Y630D01*
X0Y629D02*
X7Y629D01*
X327Y629D02*
X329Y629D01*
X525Y629D02*
X527Y629D01*
X1028Y629D02*
X1035Y629D01*
X0Y628D02*
X7Y628D01*
X327Y628D02*
X329Y628D01*
X525Y628D02*
X527Y628D01*
X1028Y628D02*
X1035Y628D01*
X0Y627D02*
X7Y627D01*
X327Y627D02*
X329Y627D01*
X525Y627D02*
X527Y627D01*
X1028Y627D02*
X1035Y627D01*
X0Y626D02*
X7Y626D01*
X327Y626D02*
X329Y626D01*
X525Y626D02*
X527Y626D01*
X1028Y626D02*
X1035Y626D01*
X0Y625D02*
X7Y625D01*
X327Y625D02*
X329Y625D01*
X525Y625D02*
X527Y625D01*
X1028Y625D02*
X1035Y625D01*
X0Y624D02*
X7Y624D01*
X327Y624D02*
X329Y624D01*
X525Y624D02*
X527Y624D01*
X1028Y624D02*
X1035Y624D01*
X0Y623D02*
X7Y623D01*
X327Y623D02*
X329Y623D01*
X525Y623D02*
X527Y623D01*
X1028Y623D02*
X1035Y623D01*
X0Y622D02*
X7Y622D01*
X327Y622D02*
X329Y622D01*
X525Y622D02*
X527Y622D01*
X1028Y622D02*
X1035Y622D01*
X0Y621D02*
X7Y621D01*
X327Y621D02*
X329Y621D01*
X525Y621D02*
X527Y621D01*
X1028Y621D02*
X1035Y621D01*
X0Y620D02*
X7Y620D01*
X327Y620D02*
X329Y620D01*
X525Y620D02*
X527Y620D01*
X1028Y620D02*
X1035Y620D01*
X0Y619D02*
X7Y619D01*
X327Y619D02*
X329Y619D01*
X525Y619D02*
X527Y619D01*
X1028Y619D02*
X1035Y619D01*
X0Y618D02*
X7Y618D01*
X327Y618D02*
X329Y618D01*
X525Y618D02*
X527Y618D01*
X1028Y618D02*
X1035Y618D01*
X0Y617D02*
X7Y617D01*
X327Y617D02*
X329Y617D01*
X525Y617D02*
X527Y617D01*
X1028Y617D02*
X1035Y617D01*
X0Y616D02*
X7Y616D01*
X327Y616D02*
X329Y616D01*
X525Y616D02*
X527Y616D01*
X1028Y616D02*
X1035Y616D01*
X0Y615D02*
X7Y615D01*
X327Y615D02*
X329Y615D01*
X525Y615D02*
X527Y615D01*
X1028Y615D02*
X1035Y615D01*
X0Y614D02*
X7Y614D01*
X327Y614D02*
X329Y614D01*
X525Y614D02*
X527Y614D01*
X1028Y614D02*
X1035Y614D01*
X0Y613D02*
X7Y613D01*
X327Y613D02*
X329Y613D01*
X525Y613D02*
X527Y613D01*
X1028Y613D02*
X1035Y613D01*
X0Y612D02*
X7Y612D01*
X327Y612D02*
X329Y612D01*
X525Y612D02*
X527Y612D01*
X1028Y612D02*
X1035Y612D01*
X0Y611D02*
X7Y611D01*
X327Y611D02*
X329Y611D01*
X525Y611D02*
X527Y611D01*
X1028Y611D02*
X1035Y611D01*
X0Y610D02*
X7Y610D01*
X327Y610D02*
X329Y610D01*
X525Y610D02*
X527Y610D01*
X1028Y610D02*
X1035Y610D01*
X0Y609D02*
X7Y609D01*
X327Y609D02*
X329Y609D01*
X525Y609D02*
X527Y609D01*
X1028Y609D02*
X1035Y609D01*
X0Y608D02*
X7Y608D01*
X327Y608D02*
X329Y608D01*
X525Y608D02*
X527Y608D01*
X1028Y608D02*
X1035Y608D01*
X0Y607D02*
X7Y607D01*
X327Y607D02*
X329Y607D01*
X525Y607D02*
X527Y607D01*
X1028Y607D02*
X1035Y607D01*
X0Y606D02*
X7Y606D01*
X327Y606D02*
X329Y606D01*
X525Y606D02*
X527Y606D01*
X1028Y606D02*
X1035Y606D01*
X0Y605D02*
X7Y605D01*
X327Y605D02*
X329Y605D01*
X525Y605D02*
X527Y605D01*
X1028Y605D02*
X1035Y605D01*
X0Y604D02*
X7Y604D01*
X327Y604D02*
X329Y604D01*
X525Y604D02*
X527Y604D01*
X1028Y604D02*
X1035Y604D01*
X0Y603D02*
X7Y603D01*
X327Y603D02*
X329Y603D01*
X525Y603D02*
X527Y603D01*
X1028Y603D02*
X1035Y603D01*
X0Y602D02*
X7Y602D01*
X327Y602D02*
X329Y602D01*
X525Y602D02*
X527Y602D01*
X1028Y602D02*
X1035Y602D01*
X0Y601D02*
X7Y601D01*
X327Y601D02*
X329Y601D01*
X525Y601D02*
X527Y601D01*
X1028Y601D02*
X1035Y601D01*
X0Y600D02*
X7Y600D01*
X327Y600D02*
X329Y600D01*
X525Y600D02*
X527Y600D01*
X1028Y600D02*
X1035Y600D01*
X0Y599D02*
X7Y599D01*
X327Y599D02*
X329Y599D01*
X525Y599D02*
X527Y599D01*
X1028Y599D02*
X1035Y599D01*
X0Y598D02*
X7Y598D01*
X327Y598D02*
X329Y598D01*
X525Y598D02*
X527Y598D01*
X1028Y598D02*
X1035Y598D01*
X0Y597D02*
X7Y597D01*
X327Y597D02*
X329Y597D01*
X525Y597D02*
X527Y597D01*
X1028Y597D02*
X1035Y597D01*
X0Y596D02*
X7Y596D01*
X327Y596D02*
X329Y596D01*
X525Y596D02*
X527Y596D01*
X1028Y596D02*
X1035Y596D01*
X0Y595D02*
X7Y595D01*
X327Y595D02*
X329Y595D01*
X525Y595D02*
X527Y595D01*
X1028Y595D02*
X1035Y595D01*
X0Y594D02*
X7Y594D01*
X327Y594D02*
X329Y594D01*
X525Y594D02*
X527Y594D01*
X1028Y594D02*
X1035Y594D01*
X0Y593D02*
X7Y593D01*
X327Y593D02*
X329Y593D01*
X525Y593D02*
X527Y593D01*
X1028Y593D02*
X1035Y593D01*
X0Y592D02*
X7Y592D01*
X327Y592D02*
X329Y592D01*
X525Y592D02*
X527Y592D01*
X1028Y592D02*
X1035Y592D01*
X0Y591D02*
X7Y591D01*
X327Y591D02*
X329Y591D01*
X525Y591D02*
X527Y591D01*
X1028Y591D02*
X1035Y591D01*
X0Y590D02*
X7Y590D01*
X327Y590D02*
X329Y590D01*
X525Y590D02*
X527Y590D01*
X1028Y590D02*
X1035Y590D01*
X0Y589D02*
X7Y589D01*
X327Y589D02*
X329Y589D01*
X525Y589D02*
X527Y589D01*
X1028Y589D02*
X1035Y589D01*
X0Y588D02*
X7Y588D01*
X327Y588D02*
X329Y588D01*
X525Y588D02*
X527Y588D01*
X1028Y588D02*
X1035Y588D01*
X0Y587D02*
X7Y587D01*
X327Y587D02*
X329Y587D01*
X525Y587D02*
X527Y587D01*
X1028Y587D02*
X1035Y587D01*
X0Y586D02*
X7Y586D01*
X327Y586D02*
X329Y586D01*
X525Y586D02*
X527Y586D01*
X1028Y586D02*
X1035Y586D01*
X0Y585D02*
X7Y585D01*
X327Y585D02*
X329Y585D01*
X525Y585D02*
X527Y585D01*
X1028Y585D02*
X1035Y585D01*
X0Y584D02*
X7Y584D01*
X327Y584D02*
X329Y584D01*
X525Y584D02*
X527Y584D01*
X1028Y584D02*
X1035Y584D01*
X0Y583D02*
X7Y583D01*
X327Y583D02*
X329Y583D01*
X525Y583D02*
X527Y583D01*
X1028Y583D02*
X1035Y583D01*
X0Y582D02*
X7Y582D01*
X327Y582D02*
X329Y582D01*
X403Y582D02*
X451Y582D01*
X525Y582D02*
X527Y582D01*
X1028Y582D02*
X1035Y582D01*
X0Y581D02*
X7Y581D01*
X327Y581D02*
X527Y581D01*
X1028Y581D02*
X1035Y581D01*
X0Y580D02*
X7Y580D01*
X327Y580D02*
X527Y580D01*
X1028Y580D02*
X1035Y580D01*
X0Y579D02*
X7Y579D01*
X328Y579D02*
X527Y579D01*
X1028Y579D02*
X1035Y579D01*
X0Y578D02*
X7Y578D01*
X1028Y578D02*
X1035Y578D01*
X0Y577D02*
X7Y577D01*
X1028Y577D02*
X1035Y577D01*
X0Y576D02*
X7Y576D01*
X1028Y576D02*
X1035Y576D01*
X0Y575D02*
X7Y575D01*
X1028Y575D02*
X1035Y575D01*
X0Y574D02*
X7Y574D01*
X1028Y574D02*
X1035Y574D01*
X0Y573D02*
X7Y573D01*
X1028Y573D02*
X1035Y573D01*
X0Y572D02*
X7Y572D01*
X1028Y572D02*
X1035Y572D01*
X0Y571D02*
X7Y571D01*
X1028Y571D02*
X1035Y571D01*
X0Y570D02*
X7Y570D01*
X1028Y570D02*
X1035Y570D01*
X0Y569D02*
X7Y569D01*
X1028Y569D02*
X1035Y569D01*
X0Y568D02*
X7Y568D01*
X1028Y568D02*
X1035Y568D01*
X0Y567D02*
X7Y567D01*
X1028Y567D02*
X1035Y567D01*
X0Y566D02*
X7Y566D01*
X1028Y566D02*
X1035Y566D01*
X0Y565D02*
X7Y565D01*
X1028Y565D02*
X1035Y565D01*
X0Y564D02*
X7Y564D01*
X1028Y564D02*
X1035Y564D01*
X0Y563D02*
X7Y563D01*
X1028Y563D02*
X1035Y563D01*
X0Y562D02*
X7Y562D01*
X1028Y562D02*
X1035Y562D01*
X0Y561D02*
X7Y561D01*
X1028Y561D02*
X1035Y561D01*
X0Y560D02*
X7Y560D01*
X1028Y560D02*
X1035Y560D01*
X0Y559D02*
X7Y559D01*
X1028Y559D02*
X1035Y559D01*
X0Y558D02*
X7Y558D01*
X1028Y558D02*
X1035Y558D01*
X0Y557D02*
X7Y557D01*
X1028Y557D02*
X1035Y557D01*
X0Y556D02*
X7Y556D01*
X1028Y556D02*
X1035Y556D01*
X0Y555D02*
X7Y555D01*
X1028Y555D02*
X1035Y555D01*
X0Y554D02*
X7Y554D01*
X1028Y554D02*
X1035Y554D01*
X0Y553D02*
X7Y553D01*
X1028Y553D02*
X1035Y553D01*
X0Y552D02*
X7Y552D01*
X1028Y552D02*
X1035Y552D01*
X0Y551D02*
X7Y551D01*
X1028Y551D02*
X1035Y551D01*
X0Y550D02*
X7Y550D01*
X1028Y550D02*
X1035Y550D01*
X0Y549D02*
X7Y549D01*
X1028Y549D02*
X1035Y549D01*
X0Y548D02*
X7Y548D01*
X1028Y548D02*
X1035Y548D01*
X0Y547D02*
X7Y547D01*
X1028Y547D02*
X1035Y547D01*
X0Y546D02*
X7Y546D01*
X1028Y546D02*
X1035Y546D01*
X0Y545D02*
X7Y545D01*
X1028Y545D02*
X1035Y545D01*
X0Y544D02*
X7Y544D01*
X1028Y544D02*
X1035Y544D01*
X0Y543D02*
X7Y543D01*
X1028Y543D02*
X1035Y543D01*
X0Y542D02*
X7Y542D01*
X1028Y542D02*
X1035Y542D01*
X0Y541D02*
X7Y541D01*
X1028Y541D02*
X1035Y541D01*
X0Y540D02*
X7Y540D01*
X1028Y540D02*
X1035Y540D01*
X0Y539D02*
X7Y539D01*
X1028Y539D02*
X1035Y539D01*
X0Y538D02*
X7Y538D01*
X1028Y538D02*
X1035Y538D01*
X0Y537D02*
X7Y537D01*
X1028Y537D02*
X1035Y537D01*
X0Y536D02*
X7Y536D01*
X1028Y536D02*
X1035Y536D01*
X0Y535D02*
X7Y535D01*
X1028Y535D02*
X1035Y535D01*
X0Y534D02*
X7Y534D01*
X1028Y534D02*
X1035Y534D01*
X0Y533D02*
X7Y533D01*
X1028Y533D02*
X1035Y533D01*
X0Y532D02*
X7Y532D01*
X1028Y532D02*
X1035Y532D01*
X0Y531D02*
X7Y531D01*
X1028Y531D02*
X1035Y531D01*
X0Y530D02*
X7Y530D01*
X1028Y530D02*
X1035Y530D01*
X0Y529D02*
X7Y529D01*
X1028Y529D02*
X1035Y529D01*
X0Y528D02*
X7Y528D01*
X1028Y528D02*
X1035Y528D01*
X0Y527D02*
X7Y527D01*
X1028Y527D02*
X1035Y527D01*
X0Y526D02*
X7Y526D01*
X1028Y526D02*
X1035Y526D01*
X0Y525D02*
X7Y525D01*
X1028Y525D02*
X1035Y525D01*
X0Y524D02*
X7Y524D01*
X1028Y524D02*
X1035Y524D01*
X0Y523D02*
X7Y523D01*
X1028Y523D02*
X1035Y523D01*
X0Y522D02*
X7Y522D01*
X1028Y522D02*
X1035Y522D01*
X0Y521D02*
X7Y521D01*
X1028Y521D02*
X1035Y521D01*
X0Y520D02*
X7Y520D01*
X1028Y520D02*
X1035Y520D01*
X0Y519D02*
X7Y519D01*
X1028Y519D02*
X1035Y519D01*
X0Y518D02*
X7Y518D01*
X1028Y518D02*
X1035Y518D01*
X0Y517D02*
X7Y517D01*
X1028Y517D02*
X1035Y517D01*
X0Y516D02*
X7Y516D01*
X1028Y516D02*
X1035Y516D01*
X0Y515D02*
X7Y515D01*
X1028Y515D02*
X1035Y515D01*
X0Y514D02*
X7Y514D01*
X1028Y514D02*
X1035Y514D01*
X0Y513D02*
X7Y513D01*
X1028Y513D02*
X1035Y513D01*
X0Y512D02*
X7Y512D01*
X1028Y512D02*
X1035Y512D01*
X0Y511D02*
X7Y511D01*
X1028Y511D02*
X1035Y511D01*
X0Y510D02*
X7Y510D01*
X1028Y510D02*
X1035Y510D01*
X0Y509D02*
X7Y509D01*
X1028Y509D02*
X1035Y509D01*
X0Y508D02*
X7Y508D01*
X1028Y508D02*
X1035Y508D01*
X0Y507D02*
X7Y507D01*
X1028Y507D02*
X1035Y507D01*
X0Y506D02*
X7Y506D01*
X1028Y506D02*
X1035Y506D01*
X0Y505D02*
X7Y505D01*
X1028Y505D02*
X1035Y505D01*
X0Y504D02*
X7Y504D01*
X1028Y504D02*
X1035Y504D01*
X0Y503D02*
X7Y503D01*
X1028Y503D02*
X1035Y503D01*
X0Y502D02*
X7Y502D01*
X1028Y502D02*
X1035Y502D01*
X0Y501D02*
X7Y501D01*
X1028Y501D02*
X1035Y501D01*
X0Y500D02*
X7Y500D01*
X1028Y500D02*
X1035Y500D01*
X0Y499D02*
X7Y499D01*
X1028Y499D02*
X1035Y499D01*
X0Y498D02*
X7Y498D01*
X1028Y498D02*
X1035Y498D01*
X0Y497D02*
X7Y497D01*
X1028Y497D02*
X1035Y497D01*
X0Y496D02*
X7Y496D01*
X1028Y496D02*
X1035Y496D01*
X0Y495D02*
X7Y495D01*
X1028Y495D02*
X1035Y495D01*
X0Y494D02*
X7Y494D01*
X1028Y494D02*
X1035Y494D01*
X0Y493D02*
X7Y493D01*
X1028Y493D02*
X1035Y493D01*
X0Y492D02*
X7Y492D01*
X1028Y492D02*
X1035Y492D01*
X0Y491D02*
X7Y491D01*
X1028Y491D02*
X1035Y491D01*
X0Y490D02*
X7Y490D01*
X1028Y490D02*
X1035Y490D01*
X0Y489D02*
X7Y489D01*
X1028Y489D02*
X1035Y489D01*
X0Y488D02*
X7Y488D01*
X1028Y488D02*
X1035Y488D01*
X0Y487D02*
X7Y487D01*
X1028Y487D02*
X1035Y487D01*
X0Y486D02*
X7Y486D01*
X1028Y486D02*
X1035Y486D01*
X0Y485D02*
X7Y485D01*
X1028Y485D02*
X1035Y485D01*
X0Y484D02*
X7Y484D01*
X1028Y484D02*
X1035Y484D01*
X0Y483D02*
X7Y483D01*
X1028Y483D02*
X1035Y483D01*
X0Y482D02*
X7Y482D01*
X1028Y482D02*
X1035Y482D01*
X0Y481D02*
X7Y481D01*
X1028Y481D02*
X1035Y481D01*
X0Y480D02*
X7Y480D01*
X1028Y480D02*
X1035Y480D01*
X0Y479D02*
X7Y479D01*
X1028Y479D02*
X1035Y479D01*
X0Y478D02*
X7Y478D01*
X1028Y478D02*
X1035Y478D01*
X0Y477D02*
X7Y477D01*
X1028Y477D02*
X1035Y477D01*
X0Y476D02*
X7Y476D01*
X1028Y476D02*
X1035Y476D01*
X0Y475D02*
X7Y475D01*
X1028Y475D02*
X1035Y475D01*
X0Y474D02*
X7Y474D01*
X1028Y474D02*
X1035Y474D01*
X0Y473D02*
X7Y473D01*
X1028Y473D02*
X1035Y473D01*
X0Y472D02*
X7Y472D01*
X1028Y472D02*
X1035Y472D01*
X0Y471D02*
X7Y471D01*
X1028Y471D02*
X1035Y471D01*
X0Y470D02*
X7Y470D01*
X1028Y470D02*
X1035Y470D01*
X0Y469D02*
X7Y469D01*
X1028Y469D02*
X1035Y469D01*
X0Y468D02*
X7Y468D01*
X1028Y468D02*
X1035Y468D01*
X0Y467D02*
X7Y467D01*
X1028Y467D02*
X1035Y467D01*
X0Y466D02*
X7Y466D01*
X1028Y466D02*
X1035Y466D01*
X0Y465D02*
X7Y465D01*
X1028Y465D02*
X1035Y465D01*
X0Y464D02*
X7Y464D01*
X1028Y464D02*
X1035Y464D01*
X0Y463D02*
X7Y463D01*
X1028Y463D02*
X1035Y463D01*
X0Y462D02*
X7Y462D01*
X1028Y462D02*
X1035Y462D01*
X0Y461D02*
X7Y461D01*
X1028Y461D02*
X1035Y461D01*
X0Y460D02*
X7Y460D01*
X319Y460D02*
X320Y460D01*
X1028Y460D02*
X1035Y460D01*
X0Y459D02*
X7Y459D01*
X318Y459D02*
X321Y459D01*
X1028Y459D02*
X1035Y459D01*
X0Y458D02*
X7Y458D01*
X317Y458D02*
X322Y458D01*
X1028Y458D02*
X1035Y458D01*
X0Y457D02*
X7Y457D01*
X317Y457D02*
X323Y457D01*
X1028Y457D02*
X1035Y457D01*
X0Y456D02*
X7Y456D01*
X318Y456D02*
X324Y456D01*
X1028Y456D02*
X1035Y456D01*
X0Y455D02*
X7Y455D01*
X319Y455D02*
X325Y455D01*
X1028Y455D02*
X1035Y455D01*
X0Y454D02*
X7Y454D01*
X320Y454D02*
X326Y454D01*
X1028Y454D02*
X1035Y454D01*
X0Y453D02*
X7Y453D01*
X321Y453D02*
X327Y453D01*
X1028Y453D02*
X1035Y453D01*
X0Y452D02*
X7Y452D01*
X322Y452D02*
X328Y452D01*
X1028Y452D02*
X1035Y452D01*
X0Y451D02*
X7Y451D01*
X323Y451D02*
X329Y451D01*
X1028Y451D02*
X1035Y451D01*
X0Y450D02*
X7Y450D01*
X324Y450D02*
X330Y450D01*
X1028Y450D02*
X1035Y450D01*
X0Y449D02*
X7Y449D01*
X325Y449D02*
X331Y449D01*
X1028Y449D02*
X1035Y449D01*
X0Y448D02*
X7Y448D01*
X326Y448D02*
X332Y448D01*
X1028Y448D02*
X1035Y448D01*
X0Y447D02*
X7Y447D01*
X327Y447D02*
X333Y447D01*
X1028Y447D02*
X1035Y447D01*
X0Y446D02*
X7Y446D01*
X328Y446D02*
X334Y446D01*
X1028Y446D02*
X1035Y446D01*
X0Y445D02*
X7Y445D01*
X329Y445D02*
X334Y445D01*
X1028Y445D02*
X1035Y445D01*
X0Y444D02*
X7Y444D01*
X330Y444D02*
X335Y444D01*
X1028Y444D02*
X1035Y444D01*
X0Y443D02*
X7Y443D01*
X331Y443D02*
X336Y443D01*
X1028Y443D02*
X1035Y443D01*
X0Y442D02*
X7Y442D01*
X332Y442D02*
X337Y442D01*
X1028Y442D02*
X1035Y442D01*
X0Y441D02*
X7Y441D01*
X333Y441D02*
X339Y441D01*
X1028Y441D02*
X1035Y441D01*
X0Y440D02*
X7Y440D01*
X334Y440D02*
X340Y440D01*
X1028Y440D02*
X1035Y440D01*
X0Y439D02*
X7Y439D01*
X335Y439D02*
X341Y439D01*
X1028Y439D02*
X1035Y439D01*
X0Y438D02*
X7Y438D01*
X336Y438D02*
X342Y438D01*
X1028Y438D02*
X1035Y438D01*
X0Y437D02*
X7Y437D01*
X337Y437D02*
X343Y437D01*
X1028Y437D02*
X1035Y437D01*
X0Y436D02*
X7Y436D01*
X338Y436D02*
X344Y436D01*
X1028Y436D02*
X1035Y436D01*
X0Y435D02*
X7Y435D01*
X339Y435D02*
X345Y435D01*
X1028Y435D02*
X1035Y435D01*
X0Y434D02*
X7Y434D01*
X340Y434D02*
X346Y434D01*
X1028Y434D02*
X1035Y434D01*
X0Y433D02*
X7Y433D01*
X341Y433D02*
X347Y433D01*
X1028Y433D02*
X1035Y433D01*
X0Y432D02*
X7Y432D01*
X342Y432D02*
X348Y432D01*
X1028Y432D02*
X1035Y432D01*
X0Y431D02*
X7Y431D01*
X343Y431D02*
X349Y431D01*
X1028Y431D02*
X1035Y431D01*
X0Y430D02*
X7Y430D01*
X344Y430D02*
X350Y430D01*
X1028Y430D02*
X1035Y430D01*
X0Y429D02*
X7Y429D01*
X345Y429D02*
X351Y429D01*
X1028Y429D02*
X1035Y429D01*
X0Y428D02*
X7Y428D01*
X346Y428D02*
X352Y428D01*
X1028Y428D02*
X1035Y428D01*
X0Y427D02*
X7Y427D01*
X347Y427D02*
X353Y427D01*
X1028Y427D02*
X1035Y427D01*
X0Y426D02*
X7Y426D01*
X348Y426D02*
X354Y426D01*
X1028Y426D02*
X1035Y426D01*
X0Y425D02*
X7Y425D01*
X349Y425D02*
X353Y425D01*
X1028Y425D02*
X1035Y425D01*
X0Y424D02*
X7Y424D01*
X350Y424D02*
X352Y424D01*
X1028Y424D02*
X1035Y424D01*
X0Y423D02*
X7Y423D01*
X351Y423D02*
X351Y423D01*
X1028Y423D02*
X1035Y423D01*
X0Y422D02*
X7Y422D01*
X1028Y422D02*
X1035Y422D01*
X0Y421D02*
X7Y421D01*
X1028Y421D02*
X1035Y421D01*
X0Y420D02*
X7Y420D01*
X1028Y420D02*
X1035Y420D01*
X0Y419D02*
X7Y419D01*
X1028Y419D02*
X1035Y419D01*
X0Y418D02*
X7Y418D01*
X1028Y418D02*
X1035Y418D01*
X0Y417D02*
X7Y417D01*
X1028Y417D02*
X1035Y417D01*
X0Y416D02*
X7Y416D01*
X1028Y416D02*
X1035Y416D01*
X0Y415D02*
X7Y415D01*
X1028Y415D02*
X1035Y415D01*
X0Y414D02*
X7Y414D01*
X1028Y414D02*
X1035Y414D01*
X0Y413D02*
X7Y413D01*
X1028Y413D02*
X1035Y413D01*
X0Y412D02*
X7Y412D01*
X1028Y412D02*
X1035Y412D01*
X0Y411D02*
X7Y411D01*
X1028Y411D02*
X1035Y411D01*
X0Y410D02*
X7Y410D01*
X1028Y410D02*
X1035Y410D01*
X0Y409D02*
X7Y409D01*
X1028Y409D02*
X1035Y409D01*
X0Y408D02*
X7Y408D01*
X1028Y408D02*
X1035Y408D01*
X0Y407D02*
X7Y407D01*
X1028Y407D02*
X1035Y407D01*
X0Y406D02*
X7Y406D01*
X1028Y406D02*
X1035Y406D01*
X0Y405D02*
X7Y405D01*
X1028Y405D02*
X1035Y405D01*
X0Y404D02*
X7Y404D01*
X1028Y404D02*
X1035Y404D01*
X0Y403D02*
X7Y403D01*
X1028Y403D02*
X1035Y403D01*
X0Y402D02*
X7Y402D01*
X1028Y402D02*
X1035Y402D01*
X0Y401D02*
X7Y401D01*
X1028Y401D02*
X1035Y401D01*
X0Y400D02*
X7Y400D01*
X1028Y400D02*
X1035Y400D01*
X0Y399D02*
X7Y399D01*
X1028Y399D02*
X1035Y399D01*
X0Y398D02*
X7Y398D01*
X1028Y398D02*
X1035Y398D01*
X0Y397D02*
X7Y397D01*
X1028Y397D02*
X1035Y397D01*
X0Y396D02*
X7Y396D01*
X1028Y396D02*
X1035Y396D01*
X0Y395D02*
X7Y395D01*
X1028Y395D02*
X1035Y395D01*
X0Y394D02*
X7Y394D01*
X1028Y394D02*
X1035Y394D01*
X0Y393D02*
X7Y393D01*
X1028Y393D02*
X1035Y393D01*
X0Y392D02*
X7Y392D01*
X1028Y392D02*
X1035Y392D01*
X0Y391D02*
X7Y391D01*
X1028Y391D02*
X1035Y391D01*
X0Y390D02*
X7Y390D01*
X1028Y390D02*
X1035Y390D01*
X0Y389D02*
X7Y389D01*
X1028Y389D02*
X1035Y389D01*
X0Y388D02*
X7Y388D01*
X1028Y388D02*
X1035Y388D01*
X0Y387D02*
X7Y387D01*
X1028Y387D02*
X1035Y387D01*
X0Y386D02*
X7Y386D01*
X1028Y386D02*
X1035Y386D01*
X0Y385D02*
X7Y385D01*
X1028Y385D02*
X1035Y385D01*
X0Y384D02*
X7Y384D01*
X1028Y384D02*
X1035Y384D01*
X0Y383D02*
X7Y383D01*
X1028Y383D02*
X1035Y383D01*
X0Y382D02*
X7Y382D01*
X1028Y382D02*
X1035Y382D01*
X0Y381D02*
X7Y381D01*
X1028Y381D02*
X1035Y381D01*
X0Y380D02*
X7Y380D01*
X1028Y380D02*
X1035Y380D01*
X0Y379D02*
X7Y379D01*
X1028Y379D02*
X1035Y379D01*
X0Y378D02*
X7Y378D01*
X1028Y378D02*
X1035Y378D01*
X0Y377D02*
X7Y377D01*
X1028Y377D02*
X1035Y377D01*
X0Y376D02*
X7Y376D01*
X1028Y376D02*
X1035Y376D01*
X0Y375D02*
X7Y375D01*
X1028Y375D02*
X1035Y375D01*
X0Y374D02*
X7Y374D01*
X1028Y374D02*
X1035Y374D01*
X0Y373D02*
X7Y373D01*
X1028Y373D02*
X1035Y373D01*
X0Y372D02*
X7Y372D01*
X1028Y372D02*
X1035Y372D01*
X0Y371D02*
X7Y371D01*
X1028Y371D02*
X1035Y371D01*
X0Y370D02*
X7Y370D01*
X1028Y370D02*
X1035Y370D01*
X0Y369D02*
X7Y369D01*
X1028Y369D02*
X1035Y369D01*
X0Y368D02*
X7Y368D01*
X1028Y368D02*
X1035Y368D01*
X0Y367D02*
X7Y367D01*
X1028Y367D02*
X1035Y367D01*
X0Y366D02*
X7Y366D01*
X1028Y366D02*
X1035Y366D01*
X0Y365D02*
X7Y365D01*
X1028Y365D02*
X1035Y365D01*
X0Y364D02*
X7Y364D01*
X1028Y364D02*
X1035Y364D01*
X0Y363D02*
X7Y363D01*
X1028Y363D02*
X1035Y363D01*
X0Y362D02*
X7Y362D01*
X1028Y362D02*
X1035Y362D01*
X0Y361D02*
X7Y361D01*
X1028Y361D02*
X1035Y361D01*
X0Y360D02*
X7Y360D01*
X1028Y360D02*
X1035Y360D01*
X0Y359D02*
X7Y359D01*
X1028Y359D02*
X1035Y359D01*
X0Y358D02*
X7Y358D01*
X1028Y358D02*
X1035Y358D01*
X0Y357D02*
X7Y357D01*
X1028Y357D02*
X1035Y357D01*
X0Y356D02*
X7Y356D01*
X1028Y356D02*
X1035Y356D01*
X0Y355D02*
X7Y355D01*
X1028Y355D02*
X1035Y355D01*
X0Y354D02*
X7Y354D01*
X1028Y354D02*
X1035Y354D01*
X0Y353D02*
X7Y353D01*
X1028Y353D02*
X1035Y353D01*
X0Y352D02*
X7Y352D01*
X1028Y352D02*
X1035Y352D01*
X0Y351D02*
X7Y351D01*
X1028Y351D02*
X1035Y351D01*
X0Y350D02*
X7Y350D01*
X1028Y350D02*
X1035Y350D01*
X0Y349D02*
X7Y349D01*
X1028Y349D02*
X1035Y349D01*
X0Y348D02*
X7Y348D01*
X422Y348D02*
X512Y348D01*
X1028Y348D02*
X1035Y348D01*
X0Y347D02*
X7Y347D01*
X422Y347D02*
X512Y347D01*
X1028Y347D02*
X1035Y347D01*
X0Y346D02*
X7Y346D01*
X422Y346D02*
X512Y346D01*
X1028Y346D02*
X1035Y346D01*
X0Y345D02*
X7Y345D01*
X422Y345D02*
X424Y345D01*
X510Y345D02*
X512Y345D01*
X1028Y345D02*
X1035Y345D01*
X0Y344D02*
X7Y344D01*
X422Y344D02*
X424Y344D01*
X510Y344D02*
X512Y344D01*
X1028Y344D02*
X1035Y344D01*
X0Y343D02*
X7Y343D01*
X422Y343D02*
X424Y343D01*
X510Y343D02*
X512Y343D01*
X1028Y343D02*
X1035Y343D01*
X0Y342D02*
X7Y342D01*
X422Y342D02*
X424Y342D01*
X510Y342D02*
X512Y342D01*
X1028Y342D02*
X1035Y342D01*
X0Y341D02*
X7Y341D01*
X422Y341D02*
X424Y341D01*
X510Y341D02*
X512Y341D01*
X1028Y341D02*
X1035Y341D01*
X0Y340D02*
X7Y340D01*
X422Y340D02*
X424Y340D01*
X510Y340D02*
X512Y340D01*
X1028Y340D02*
X1035Y340D01*
X0Y339D02*
X7Y339D01*
X422Y339D02*
X424Y339D01*
X510Y339D02*
X512Y339D01*
X1028Y339D02*
X1035Y339D01*
X0Y338D02*
X7Y338D01*
X422Y338D02*
X424Y338D01*
X510Y338D02*
X512Y338D01*
X1028Y338D02*
X1035Y338D01*
X0Y337D02*
X7Y337D01*
X422Y337D02*
X424Y337D01*
X510Y337D02*
X512Y337D01*
X1028Y337D02*
X1035Y337D01*
X0Y336D02*
X7Y336D01*
X422Y336D02*
X424Y336D01*
X510Y336D02*
X512Y336D01*
X1028Y336D02*
X1035Y336D01*
X0Y335D02*
X7Y335D01*
X422Y335D02*
X424Y335D01*
X510Y335D02*
X512Y335D01*
X1028Y335D02*
X1035Y335D01*
X0Y334D02*
X7Y334D01*
X422Y334D02*
X424Y334D01*
X510Y334D02*
X512Y334D01*
X1028Y334D02*
X1035Y334D01*
X0Y333D02*
X7Y333D01*
X422Y333D02*
X424Y333D01*
X510Y333D02*
X512Y333D01*
X1028Y333D02*
X1035Y333D01*
X0Y332D02*
X7Y332D01*
X422Y332D02*
X424Y332D01*
X510Y332D02*
X512Y332D01*
X1028Y332D02*
X1035Y332D01*
X0Y331D02*
X7Y331D01*
X422Y331D02*
X424Y331D01*
X510Y331D02*
X512Y331D01*
X1028Y331D02*
X1035Y331D01*
X0Y330D02*
X7Y330D01*
X422Y330D02*
X424Y330D01*
X510Y330D02*
X512Y330D01*
X1028Y330D02*
X1035Y330D01*
X0Y329D02*
X7Y329D01*
X422Y329D02*
X424Y329D01*
X510Y329D02*
X512Y329D01*
X1028Y329D02*
X1035Y329D01*
X0Y328D02*
X7Y328D01*
X422Y328D02*
X424Y328D01*
X510Y328D02*
X512Y328D01*
X1028Y328D02*
X1035Y328D01*
X0Y327D02*
X7Y327D01*
X422Y327D02*
X424Y327D01*
X510Y327D02*
X512Y327D01*
X1028Y327D02*
X1035Y327D01*
X0Y326D02*
X7Y326D01*
X422Y326D02*
X424Y326D01*
X510Y326D02*
X512Y326D01*
X1028Y326D02*
X1035Y326D01*
X0Y325D02*
X7Y325D01*
X422Y325D02*
X424Y325D01*
X510Y325D02*
X512Y325D01*
X1028Y325D02*
X1035Y325D01*
X0Y324D02*
X7Y324D01*
X422Y324D02*
X424Y324D01*
X510Y324D02*
X512Y324D01*
X1028Y324D02*
X1035Y324D01*
X0Y323D02*
X7Y323D01*
X422Y323D02*
X424Y323D01*
X510Y323D02*
X512Y323D01*
X1028Y323D02*
X1035Y323D01*
X0Y322D02*
X7Y322D01*
X422Y322D02*
X424Y322D01*
X510Y322D02*
X512Y322D01*
X1028Y322D02*
X1035Y322D01*
X0Y321D02*
X7Y321D01*
X422Y321D02*
X424Y321D01*
X510Y321D02*
X512Y321D01*
X1028Y321D02*
X1035Y321D01*
X0Y320D02*
X7Y320D01*
X422Y320D02*
X424Y320D01*
X510Y320D02*
X512Y320D01*
X1028Y320D02*
X1035Y320D01*
X0Y319D02*
X7Y319D01*
X422Y319D02*
X424Y319D01*
X510Y319D02*
X512Y319D01*
X1028Y319D02*
X1035Y319D01*
X0Y318D02*
X7Y318D01*
X422Y318D02*
X424Y318D01*
X510Y318D02*
X512Y318D01*
X1028Y318D02*
X1035Y318D01*
X0Y317D02*
X7Y317D01*
X422Y317D02*
X424Y317D01*
X510Y317D02*
X512Y317D01*
X554Y317D02*
X567Y317D01*
X588Y317D02*
X599Y317D01*
X618Y317D02*
X629Y317D01*
X646Y317D02*
X656Y317D01*
X676Y317D02*
X691Y317D01*
X710Y317D02*
X719Y317D01*
X1028Y317D02*
X1035Y317D01*
X0Y316D02*
X7Y316D01*
X422Y316D02*
X424Y316D01*
X510Y316D02*
X512Y316D01*
X554Y316D02*
X570Y316D01*
X586Y316D02*
X602Y316D01*
X616Y316D02*
X632Y316D01*
X645Y316D02*
X656Y316D01*
X675Y316D02*
X693Y316D01*
X709Y316D02*
X720Y316D01*
X1028Y316D02*
X1035Y316D01*
X0Y315D02*
X7Y315D01*
X422Y315D02*
X424Y315D01*
X510Y315D02*
X512Y315D01*
X554Y315D02*
X571Y315D01*
X585Y315D02*
X603Y315D01*
X615Y315D02*
X633Y315D01*
X644Y315D02*
X656Y315D01*
X675Y315D02*
X694Y315D01*
X709Y315D02*
X720Y315D01*
X1028Y315D02*
X1035Y315D01*
X0Y314D02*
X7Y314D01*
X422Y314D02*
X424Y314D01*
X510Y314D02*
X512Y314D01*
X554Y314D02*
X572Y314D01*
X584Y314D02*
X603Y314D01*
X615Y314D02*
X633Y314D01*
X645Y314D02*
X656Y314D01*
X675Y314D02*
X694Y314D01*
X709Y314D02*
X720Y314D01*
X1028Y314D02*
X1035Y314D01*
X0Y313D02*
X7Y313D01*
X422Y313D02*
X424Y313D01*
X510Y313D02*
X512Y313D01*
X554Y313D02*
X573Y313D01*
X584Y313D02*
X604Y313D01*
X614Y313D02*
X634Y313D01*
X646Y313D02*
X656Y313D01*
X676Y313D02*
X694Y313D01*
X709Y313D02*
X720Y313D01*
X1028Y313D02*
X1035Y313D01*
X0Y312D02*
X7Y312D01*
X422Y312D02*
X424Y312D01*
X510Y312D02*
X512Y312D01*
X554Y312D02*
X557Y312D01*
X569Y312D02*
X573Y312D01*
X584Y312D02*
X588Y312D01*
X601Y312D02*
X604Y312D01*
X614Y312D02*
X618Y312D01*
X631Y312D02*
X634Y312D01*
X653Y312D02*
X656Y312D01*
X691Y312D02*
X694Y312D01*
X709Y312D02*
X712Y312D01*
X717Y312D02*
X720Y312D01*
X1028Y312D02*
X1035Y312D01*
X0Y311D02*
X7Y311D01*
X422Y311D02*
X424Y311D01*
X510Y311D02*
X512Y311D01*
X554Y311D02*
X557Y311D01*
X570Y311D02*
X573Y311D01*
X584Y311D02*
X588Y311D01*
X601Y311D02*
X604Y311D01*
X615Y311D02*
X618Y311D01*
X631Y311D02*
X634Y311D01*
X653Y311D02*
X656Y311D01*
X691Y311D02*
X694Y311D01*
X709Y311D02*
X712Y311D01*
X717Y311D02*
X720Y311D01*
X1028Y311D02*
X1035Y311D01*
X0Y310D02*
X7Y310D01*
X422Y310D02*
X424Y310D01*
X510Y310D02*
X512Y310D01*
X554Y310D02*
X557Y310D01*
X570Y310D02*
X574Y310D01*
X585Y310D02*
X589Y310D01*
X601Y310D02*
X603Y310D01*
X615Y310D02*
X619Y310D01*
X632Y310D02*
X633Y310D01*
X653Y310D02*
X656Y310D01*
X691Y310D02*
X694Y310D01*
X709Y310D02*
X712Y310D01*
X717Y310D02*
X720Y310D01*
X1028Y310D02*
X1035Y310D01*
X0Y309D02*
X7Y309D01*
X422Y309D02*
X424Y309D01*
X510Y309D02*
X512Y309D01*
X554Y309D02*
X557Y309D01*
X571Y309D02*
X574Y309D01*
X586Y309D02*
X590Y309D01*
X616Y309D02*
X620Y309D01*
X653Y309D02*
X656Y309D01*
X691Y309D02*
X694Y309D01*
X709Y309D02*
X712Y309D01*
X717Y309D02*
X720Y309D01*
X1028Y309D02*
X1035Y309D01*
X0Y308D02*
X7Y308D01*
X422Y308D02*
X424Y308D01*
X510Y308D02*
X512Y308D01*
X554Y308D02*
X557Y308D01*
X571Y308D02*
X574Y308D01*
X586Y308D02*
X591Y308D01*
X616Y308D02*
X621Y308D01*
X653Y308D02*
X656Y308D01*
X691Y308D02*
X694Y308D01*
X709Y308D02*
X712Y308D01*
X717Y308D02*
X720Y308D01*
X1028Y308D02*
X1035Y308D01*
X0Y307D02*
X7Y307D01*
X422Y307D02*
X424Y307D01*
X510Y307D02*
X512Y307D01*
X554Y307D02*
X557Y307D01*
X571Y307D02*
X574Y307D01*
X587Y307D02*
X591Y307D01*
X617Y307D02*
X622Y307D01*
X653Y307D02*
X656Y307D01*
X691Y307D02*
X694Y307D01*
X709Y307D02*
X712Y307D01*
X717Y307D02*
X720Y307D01*
X1028Y307D02*
X1035Y307D01*
X0Y306D02*
X7Y306D01*
X422Y306D02*
X424Y306D01*
X510Y306D02*
X512Y306D01*
X554Y306D02*
X557Y306D01*
X570Y306D02*
X574Y306D01*
X588Y306D02*
X592Y306D01*
X618Y306D02*
X622Y306D01*
X653Y306D02*
X656Y306D01*
X691Y306D02*
X694Y306D01*
X709Y306D02*
X712Y306D01*
X717Y306D02*
X720Y306D01*
X1028Y306D02*
X1035Y306D01*
X0Y305D02*
X7Y305D01*
X422Y305D02*
X424Y305D01*
X510Y305D02*
X512Y305D01*
X554Y305D02*
X557Y305D01*
X570Y305D02*
X573Y305D01*
X589Y305D02*
X593Y305D01*
X619Y305D02*
X623Y305D01*
X653Y305D02*
X656Y305D01*
X691Y305D02*
X694Y305D01*
X709Y305D02*
X712Y305D01*
X717Y305D02*
X720Y305D01*
X1028Y305D02*
X1035Y305D01*
X0Y304D02*
X7Y304D01*
X422Y304D02*
X424Y304D01*
X510Y304D02*
X512Y304D01*
X554Y304D02*
X557Y304D01*
X569Y304D02*
X573Y304D01*
X589Y304D02*
X594Y304D01*
X620Y304D02*
X624Y304D01*
X653Y304D02*
X656Y304D01*
X691Y304D02*
X694Y304D01*
X709Y304D02*
X712Y304D01*
X717Y304D02*
X720Y304D01*
X1028Y304D02*
X1035Y304D01*
X0Y303D02*
X7Y303D01*
X422Y303D02*
X424Y303D01*
X510Y303D02*
X512Y303D01*
X554Y303D02*
X573Y303D01*
X590Y303D02*
X595Y303D01*
X620Y303D02*
X625Y303D01*
X653Y303D02*
X656Y303D01*
X681Y303D02*
X694Y303D01*
X708Y303D02*
X721Y303D01*
X1028Y303D02*
X1035Y303D01*
X0Y302D02*
X7Y302D01*
X422Y302D02*
X424Y302D01*
X510Y302D02*
X512Y302D01*
X554Y302D02*
X572Y302D01*
X591Y302D02*
X595Y302D01*
X621Y302D02*
X625Y302D01*
X653Y302D02*
X656Y302D01*
X679Y302D02*
X693Y302D01*
X706Y302D02*
X723Y302D01*
X1028Y302D02*
X1035Y302D01*
X0Y301D02*
X7Y301D01*
X422Y301D02*
X424Y301D01*
X510Y301D02*
X512Y301D01*
X554Y301D02*
X571Y301D01*
X592Y301D02*
X596Y301D01*
X622Y301D02*
X626Y301D01*
X653Y301D02*
X656Y301D01*
X679Y301D02*
X693Y301D01*
X705Y301D02*
X724Y301D01*
X1028Y301D02*
X1035Y301D01*
X0Y300D02*
X7Y300D01*
X422Y300D02*
X424Y300D01*
X510Y300D02*
X512Y300D01*
X554Y300D02*
X572Y300D01*
X593Y300D02*
X597Y300D01*
X623Y300D02*
X627Y300D01*
X653Y300D02*
X656Y300D01*
X679Y300D02*
X693Y300D01*
X705Y300D02*
X724Y300D01*
X1028Y300D02*
X1035Y300D01*
X0Y299D02*
X7Y299D01*
X422Y299D02*
X424Y299D01*
X510Y299D02*
X512Y299D01*
X554Y299D02*
X573Y299D01*
X593Y299D02*
X598Y299D01*
X623Y299D02*
X628Y299D01*
X653Y299D02*
X656Y299D01*
X662Y299D02*
X663Y299D01*
X680Y299D02*
X694Y299D01*
X705Y299D02*
X724Y299D01*
X1028Y299D02*
X1035Y299D01*
X0Y298D02*
X7Y298D01*
X422Y298D02*
X424Y298D01*
X510Y298D02*
X512Y298D01*
X554Y298D02*
X557Y298D01*
X569Y298D02*
X573Y298D01*
X594Y298D02*
X598Y298D01*
X624Y298D02*
X629Y298D01*
X653Y298D02*
X656Y298D01*
X661Y298D02*
X664Y298D01*
X691Y298D02*
X694Y298D01*
X705Y298D02*
X708Y298D01*
X721Y298D02*
X724Y298D01*
X1028Y298D02*
X1035Y298D01*
X0Y297D02*
X7Y297D01*
X422Y297D02*
X424Y297D01*
X510Y297D02*
X512Y297D01*
X554Y297D02*
X557Y297D01*
X570Y297D02*
X573Y297D01*
X595Y297D02*
X599Y297D01*
X625Y297D02*
X629Y297D01*
X653Y297D02*
X656Y297D01*
X661Y297D02*
X664Y297D01*
X691Y297D02*
X694Y297D01*
X705Y297D02*
X708Y297D01*
X721Y297D02*
X724Y297D01*
X1028Y297D02*
X1035Y297D01*
X0Y296D02*
X7Y296D01*
X422Y296D02*
X424Y296D01*
X510Y296D02*
X512Y296D01*
X554Y296D02*
X557Y296D01*
X570Y296D02*
X574Y296D01*
X596Y296D02*
X600Y296D01*
X626Y296D02*
X630Y296D01*
X653Y296D02*
X656Y296D01*
X661Y296D02*
X664Y296D01*
X691Y296D02*
X694Y296D01*
X705Y296D02*
X708Y296D01*
X721Y296D02*
X724Y296D01*
X1028Y296D02*
X1035Y296D01*
X0Y295D02*
X7Y295D01*
X422Y295D02*
X424Y295D01*
X510Y295D02*
X512Y295D01*
X554Y295D02*
X557Y295D01*
X571Y295D02*
X574Y295D01*
X596Y295D02*
X601Y295D01*
X627Y295D02*
X631Y295D01*
X653Y295D02*
X656Y295D01*
X661Y295D02*
X664Y295D01*
X691Y295D02*
X694Y295D01*
X705Y295D02*
X708Y295D01*
X721Y295D02*
X724Y295D01*
X1028Y295D02*
X1035Y295D01*
X0Y294D02*
X7Y294D01*
X422Y294D02*
X424Y294D01*
X510Y294D02*
X512Y294D01*
X554Y294D02*
X557Y294D01*
X571Y294D02*
X574Y294D01*
X597Y294D02*
X602Y294D01*
X627Y294D02*
X632Y294D01*
X653Y294D02*
X656Y294D01*
X661Y294D02*
X664Y294D01*
X691Y294D02*
X694Y294D01*
X705Y294D02*
X708Y294D01*
X721Y294D02*
X724Y294D01*
X1028Y294D02*
X1035Y294D01*
X0Y293D02*
X7Y293D01*
X422Y293D02*
X424Y293D01*
X510Y293D02*
X512Y293D01*
X554Y293D02*
X557Y293D01*
X571Y293D02*
X574Y293D01*
X598Y293D02*
X602Y293D01*
X628Y293D02*
X632Y293D01*
X653Y293D02*
X656Y293D01*
X661Y293D02*
X664Y293D01*
X691Y293D02*
X694Y293D01*
X705Y293D02*
X708Y293D01*
X721Y293D02*
X724Y293D01*
X1028Y293D02*
X1035Y293D01*
X0Y292D02*
X7Y292D01*
X422Y292D02*
X424Y292D01*
X510Y292D02*
X512Y292D01*
X554Y292D02*
X557Y292D01*
X570Y292D02*
X574Y292D01*
X585Y292D02*
X586Y292D01*
X599Y292D02*
X603Y292D01*
X615Y292D02*
X617Y292D01*
X629Y292D02*
X633Y292D01*
X653Y292D02*
X656Y292D01*
X661Y292D02*
X664Y292D01*
X691Y292D02*
X694Y292D01*
X705Y292D02*
X708Y292D01*
X721Y292D02*
X724Y292D01*
X1028Y292D02*
X1035Y292D01*
X0Y291D02*
X7Y291D01*
X422Y291D02*
X424Y291D01*
X510Y291D02*
X512Y291D01*
X554Y291D02*
X557Y291D01*
X570Y291D02*
X574Y291D01*
X584Y291D02*
X587Y291D01*
X600Y291D02*
X604Y291D01*
X614Y291D02*
X617Y291D01*
X630Y291D02*
X634Y291D01*
X653Y291D02*
X656Y291D01*
X661Y291D02*
X664Y291D01*
X691Y291D02*
X694Y291D01*
X705Y291D02*
X708Y291D01*
X721Y291D02*
X724Y291D01*
X1028Y291D02*
X1035Y291D01*
X0Y290D02*
X7Y290D01*
X422Y290D02*
X424Y290D01*
X510Y290D02*
X512Y290D01*
X554Y290D02*
X557Y290D01*
X569Y290D02*
X573Y290D01*
X584Y290D02*
X588Y290D01*
X600Y290D02*
X604Y290D01*
X614Y290D02*
X618Y290D01*
X630Y290D02*
X634Y290D01*
X653Y290D02*
X656Y290D01*
X661Y290D02*
X664Y290D01*
X691Y290D02*
X694Y290D01*
X705Y290D02*
X708Y290D01*
X721Y290D02*
X724Y290D01*
X1028Y290D02*
X1035Y290D01*
X0Y289D02*
X7Y289D01*
X422Y289D02*
X424Y289D01*
X510Y289D02*
X512Y289D01*
X554Y289D02*
X558Y289D01*
X567Y289D02*
X573Y289D01*
X584Y289D02*
X589Y289D01*
X600Y289D02*
X604Y289D01*
X615Y289D02*
X619Y289D01*
X630Y289D02*
X634Y289D01*
X652Y289D02*
X656Y289D01*
X661Y289D02*
X664Y289D01*
X691Y289D02*
X694Y289D01*
X705Y289D02*
X708Y289D01*
X721Y289D02*
X724Y289D01*
X1028Y289D02*
X1035Y289D01*
X0Y288D02*
X7Y288D01*
X422Y288D02*
X424Y288D01*
X510Y288D02*
X512Y288D01*
X554Y288D02*
X572Y288D01*
X585Y288D02*
X604Y288D01*
X615Y288D02*
X634Y288D01*
X645Y288D02*
X664Y288D01*
X675Y288D02*
X694Y288D01*
X705Y288D02*
X724Y288D01*
X1028Y288D02*
X1035Y288D01*
X0Y287D02*
X7Y287D01*
X422Y287D02*
X424Y287D01*
X510Y287D02*
X512Y287D01*
X554Y287D02*
X571Y287D01*
X585Y287D02*
X603Y287D01*
X616Y287D02*
X633Y287D01*
X644Y287D02*
X664Y287D01*
X675Y287D02*
X694Y287D01*
X705Y287D02*
X724Y287D01*
X1028Y287D02*
X1035Y287D01*
X0Y286D02*
X7Y286D01*
X422Y286D02*
X424Y286D01*
X510Y286D02*
X512Y286D01*
X554Y286D02*
X570Y286D01*
X586Y286D02*
X602Y286D01*
X616Y286D02*
X632Y286D01*
X645Y286D02*
X664Y286D01*
X675Y286D02*
X693Y286D01*
X706Y286D02*
X723Y286D01*
X1028Y286D02*
X1035Y286D01*
X0Y285D02*
X7Y285D01*
X422Y285D02*
X424Y285D01*
X510Y285D02*
X512Y285D01*
X554Y285D02*
X568Y285D01*
X588Y285D02*
X601Y285D01*
X618Y285D02*
X631Y285D01*
X646Y285D02*
X663Y285D01*
X676Y285D02*
X691Y285D01*
X707Y285D02*
X811Y285D01*
X1028Y285D02*
X1035Y285D01*
X0Y284D02*
X7Y284D01*
X422Y284D02*
X424Y284D01*
X510Y284D02*
X512Y284D01*
X722Y284D02*
X812Y284D01*
X1028Y284D02*
X1035Y284D01*
X0Y283D02*
X7Y283D01*
X422Y283D02*
X424Y283D01*
X510Y283D02*
X512Y283D01*
X722Y283D02*
X812Y283D01*
X1028Y283D02*
X1035Y283D01*
X0Y282D02*
X7Y282D01*
X422Y282D02*
X424Y282D01*
X510Y282D02*
X512Y282D01*
X722Y282D02*
X724Y282D01*
X809Y282D02*
X812Y282D01*
X1028Y282D02*
X1035Y282D01*
X0Y281D02*
X7Y281D01*
X422Y281D02*
X424Y281D01*
X510Y281D02*
X512Y281D01*
X722Y281D02*
X724Y281D01*
X810Y281D02*
X812Y281D01*
X1028Y281D02*
X1035Y281D01*
X0Y280D02*
X7Y280D01*
X422Y280D02*
X424Y280D01*
X510Y280D02*
X512Y280D01*
X722Y280D02*
X724Y280D01*
X810Y280D02*
X812Y280D01*
X1028Y280D02*
X1035Y280D01*
X0Y279D02*
X7Y279D01*
X422Y279D02*
X424Y279D01*
X510Y279D02*
X512Y279D01*
X722Y279D02*
X724Y279D01*
X810Y279D02*
X812Y279D01*
X1028Y279D02*
X1035Y279D01*
X0Y278D02*
X7Y278D01*
X422Y278D02*
X424Y278D01*
X510Y278D02*
X512Y278D01*
X722Y278D02*
X724Y278D01*
X810Y278D02*
X812Y278D01*
X1028Y278D02*
X1035Y278D01*
X0Y277D02*
X7Y277D01*
X422Y277D02*
X424Y277D01*
X510Y277D02*
X512Y277D01*
X722Y277D02*
X724Y277D01*
X810Y277D02*
X812Y277D01*
X1028Y277D02*
X1035Y277D01*
X0Y276D02*
X7Y276D01*
X422Y276D02*
X424Y276D01*
X510Y276D02*
X512Y276D01*
X722Y276D02*
X724Y276D01*
X810Y276D02*
X812Y276D01*
X1028Y276D02*
X1035Y276D01*
X0Y275D02*
X7Y275D01*
X422Y275D02*
X424Y275D01*
X510Y275D02*
X512Y275D01*
X722Y275D02*
X724Y275D01*
X810Y275D02*
X812Y275D01*
X1028Y275D02*
X1035Y275D01*
X0Y274D02*
X7Y274D01*
X422Y274D02*
X424Y274D01*
X510Y274D02*
X512Y274D01*
X722Y274D02*
X724Y274D01*
X810Y274D02*
X812Y274D01*
X1028Y274D02*
X1035Y274D01*
X0Y273D02*
X7Y273D01*
X422Y273D02*
X425Y273D01*
X509Y273D02*
X512Y273D01*
X722Y273D02*
X724Y273D01*
X810Y273D02*
X812Y273D01*
X1028Y273D02*
X1035Y273D01*
X0Y272D02*
X7Y272D01*
X422Y272D02*
X425Y272D01*
X509Y272D02*
X512Y272D01*
X722Y272D02*
X724Y272D01*
X810Y272D02*
X812Y272D01*
X1028Y272D02*
X1035Y272D01*
X0Y271D02*
X7Y271D01*
X422Y271D02*
X425Y271D01*
X509Y271D02*
X512Y271D01*
X722Y271D02*
X724Y271D01*
X810Y271D02*
X812Y271D01*
X1028Y271D02*
X1035Y271D01*
X0Y270D02*
X7Y270D01*
X422Y270D02*
X425Y270D01*
X509Y270D02*
X512Y270D01*
X722Y270D02*
X724Y270D01*
X810Y270D02*
X812Y270D01*
X1028Y270D02*
X1035Y270D01*
X0Y269D02*
X7Y269D01*
X422Y269D02*
X425Y269D01*
X509Y269D02*
X512Y269D01*
X722Y269D02*
X724Y269D01*
X810Y269D02*
X812Y269D01*
X1028Y269D02*
X1035Y269D01*
X0Y268D02*
X7Y268D01*
X422Y268D02*
X425Y268D01*
X509Y268D02*
X512Y268D01*
X722Y268D02*
X724Y268D01*
X810Y268D02*
X812Y268D01*
X1028Y268D02*
X1035Y268D01*
X0Y267D02*
X7Y267D01*
X422Y267D02*
X425Y267D01*
X509Y267D02*
X512Y267D01*
X722Y267D02*
X724Y267D01*
X810Y267D02*
X812Y267D01*
X1028Y267D02*
X1035Y267D01*
X0Y266D02*
X7Y266D01*
X422Y266D02*
X425Y266D01*
X509Y266D02*
X512Y266D01*
X722Y266D02*
X724Y266D01*
X810Y266D02*
X812Y266D01*
X1028Y266D02*
X1035Y266D01*
X0Y265D02*
X7Y265D01*
X422Y265D02*
X425Y265D01*
X509Y265D02*
X512Y265D01*
X722Y265D02*
X724Y265D01*
X810Y265D02*
X812Y265D01*
X1028Y265D02*
X1035Y265D01*
X0Y264D02*
X7Y264D01*
X422Y264D02*
X425Y264D01*
X509Y264D02*
X512Y264D01*
X722Y264D02*
X724Y264D01*
X810Y264D02*
X812Y264D01*
X1028Y264D02*
X1035Y264D01*
X0Y263D02*
X7Y263D01*
X422Y263D02*
X425Y263D01*
X509Y263D02*
X512Y263D01*
X722Y263D02*
X724Y263D01*
X810Y263D02*
X812Y263D01*
X1028Y263D02*
X1035Y263D01*
X0Y262D02*
X7Y262D01*
X422Y262D02*
X425Y262D01*
X509Y262D02*
X512Y262D01*
X722Y262D02*
X724Y262D01*
X810Y262D02*
X812Y262D01*
X1028Y262D02*
X1035Y262D01*
X0Y261D02*
X7Y261D01*
X422Y261D02*
X425Y261D01*
X509Y261D02*
X512Y261D01*
X722Y261D02*
X724Y261D01*
X810Y261D02*
X812Y261D01*
X1028Y261D02*
X1035Y261D01*
X0Y260D02*
X7Y260D01*
X422Y260D02*
X425Y260D01*
X509Y260D02*
X512Y260D01*
X722Y260D02*
X724Y260D01*
X810Y260D02*
X812Y260D01*
X1028Y260D02*
X1035Y260D01*
X0Y259D02*
X7Y259D01*
X422Y259D02*
X425Y259D01*
X509Y259D02*
X512Y259D01*
X722Y259D02*
X724Y259D01*
X810Y259D02*
X812Y259D01*
X1028Y259D02*
X1035Y259D01*
X0Y258D02*
X7Y258D01*
X422Y258D02*
X425Y258D01*
X509Y258D02*
X512Y258D01*
X722Y258D02*
X724Y258D01*
X810Y258D02*
X812Y258D01*
X1028Y258D02*
X1035Y258D01*
X0Y257D02*
X7Y257D01*
X422Y257D02*
X425Y257D01*
X509Y257D02*
X512Y257D01*
X722Y257D02*
X724Y257D01*
X810Y257D02*
X812Y257D01*
X1028Y257D02*
X1035Y257D01*
X0Y256D02*
X7Y256D01*
X422Y256D02*
X425Y256D01*
X509Y256D02*
X512Y256D01*
X722Y256D02*
X724Y256D01*
X810Y256D02*
X812Y256D01*
X1028Y256D02*
X1035Y256D01*
X0Y255D02*
X7Y255D01*
X422Y255D02*
X425Y255D01*
X509Y255D02*
X512Y255D01*
X722Y255D02*
X724Y255D01*
X810Y255D02*
X812Y255D01*
X1028Y255D02*
X1035Y255D01*
X0Y254D02*
X7Y254D01*
X422Y254D02*
X425Y254D01*
X509Y254D02*
X512Y254D01*
X722Y254D02*
X724Y254D01*
X810Y254D02*
X812Y254D01*
X1028Y254D02*
X1035Y254D01*
X0Y253D02*
X7Y253D01*
X422Y253D02*
X425Y253D01*
X509Y253D02*
X512Y253D01*
X722Y253D02*
X724Y253D01*
X810Y253D02*
X812Y253D01*
X1028Y253D02*
X1035Y253D01*
X0Y252D02*
X7Y252D01*
X422Y252D02*
X425Y252D01*
X509Y252D02*
X512Y252D01*
X722Y252D02*
X724Y252D01*
X810Y252D02*
X812Y252D01*
X1028Y252D02*
X1035Y252D01*
X0Y251D02*
X7Y251D01*
X422Y251D02*
X425Y251D01*
X509Y251D02*
X512Y251D01*
X722Y251D02*
X724Y251D01*
X810Y251D02*
X812Y251D01*
X1028Y251D02*
X1035Y251D01*
X0Y250D02*
X7Y250D01*
X422Y250D02*
X425Y250D01*
X509Y250D02*
X512Y250D01*
X722Y250D02*
X724Y250D01*
X810Y250D02*
X812Y250D01*
X1028Y250D02*
X1035Y250D01*
X0Y249D02*
X7Y249D01*
X422Y249D02*
X425Y249D01*
X509Y249D02*
X512Y249D01*
X722Y249D02*
X724Y249D01*
X810Y249D02*
X812Y249D01*
X1028Y249D02*
X1035Y249D01*
X0Y248D02*
X7Y248D01*
X422Y248D02*
X425Y248D01*
X509Y248D02*
X512Y248D01*
X722Y248D02*
X724Y248D01*
X810Y248D02*
X812Y248D01*
X1028Y248D02*
X1035Y248D01*
X0Y247D02*
X7Y247D01*
X422Y247D02*
X425Y247D01*
X509Y247D02*
X512Y247D01*
X722Y247D02*
X724Y247D01*
X810Y247D02*
X812Y247D01*
X1028Y247D02*
X1035Y247D01*
X0Y246D02*
X7Y246D01*
X422Y246D02*
X425Y246D01*
X509Y246D02*
X512Y246D01*
X722Y246D02*
X724Y246D01*
X810Y246D02*
X812Y246D01*
X1028Y246D02*
X1035Y246D01*
X0Y245D02*
X7Y245D01*
X422Y245D02*
X425Y245D01*
X509Y245D02*
X512Y245D01*
X722Y245D02*
X724Y245D01*
X810Y245D02*
X812Y245D01*
X1028Y245D02*
X1035Y245D01*
X0Y244D02*
X7Y244D01*
X422Y244D02*
X425Y244D01*
X509Y244D02*
X512Y244D01*
X722Y244D02*
X724Y244D01*
X810Y244D02*
X812Y244D01*
X1028Y244D02*
X1035Y244D01*
X0Y243D02*
X7Y243D01*
X422Y243D02*
X425Y243D01*
X509Y243D02*
X512Y243D01*
X722Y243D02*
X724Y243D01*
X810Y243D02*
X812Y243D01*
X1028Y243D02*
X1035Y243D01*
X0Y242D02*
X7Y242D01*
X422Y242D02*
X425Y242D01*
X509Y242D02*
X512Y242D01*
X722Y242D02*
X724Y242D01*
X810Y242D02*
X812Y242D01*
X1028Y242D02*
X1035Y242D01*
X0Y241D02*
X7Y241D01*
X422Y241D02*
X425Y241D01*
X509Y241D02*
X512Y241D01*
X722Y241D02*
X724Y241D01*
X810Y241D02*
X812Y241D01*
X1028Y241D02*
X1035Y241D01*
X0Y240D02*
X7Y240D01*
X422Y240D02*
X425Y240D01*
X509Y240D02*
X512Y240D01*
X722Y240D02*
X724Y240D01*
X810Y240D02*
X812Y240D01*
X1028Y240D02*
X1035Y240D01*
X0Y239D02*
X7Y239D01*
X422Y239D02*
X425Y239D01*
X509Y239D02*
X512Y239D01*
X722Y239D02*
X724Y239D01*
X810Y239D02*
X812Y239D01*
X1028Y239D02*
X1035Y239D01*
X0Y238D02*
X7Y238D01*
X422Y238D02*
X425Y238D01*
X509Y238D02*
X512Y238D01*
X722Y238D02*
X724Y238D01*
X810Y238D02*
X812Y238D01*
X1028Y238D02*
X1035Y238D01*
X0Y237D02*
X7Y237D01*
X422Y237D02*
X425Y237D01*
X509Y237D02*
X512Y237D01*
X722Y237D02*
X724Y237D01*
X810Y237D02*
X812Y237D01*
X1028Y237D02*
X1035Y237D01*
X0Y236D02*
X7Y236D01*
X422Y236D02*
X425Y236D01*
X509Y236D02*
X512Y236D01*
X722Y236D02*
X724Y236D01*
X810Y236D02*
X812Y236D01*
X1028Y236D02*
X1035Y236D01*
X0Y235D02*
X7Y235D01*
X422Y235D02*
X425Y235D01*
X509Y235D02*
X512Y235D01*
X722Y235D02*
X724Y235D01*
X810Y235D02*
X812Y235D01*
X1028Y235D02*
X1035Y235D01*
X0Y234D02*
X7Y234D01*
X422Y234D02*
X425Y234D01*
X509Y234D02*
X512Y234D01*
X722Y234D02*
X724Y234D01*
X810Y234D02*
X812Y234D01*
X1028Y234D02*
X1035Y234D01*
X0Y233D02*
X7Y233D01*
X422Y233D02*
X425Y233D01*
X509Y233D02*
X512Y233D01*
X722Y233D02*
X724Y233D01*
X810Y233D02*
X812Y233D01*
X1028Y233D02*
X1035Y233D01*
X0Y232D02*
X7Y232D01*
X422Y232D02*
X425Y232D01*
X509Y232D02*
X512Y232D01*
X722Y232D02*
X724Y232D01*
X810Y232D02*
X812Y232D01*
X1028Y232D02*
X1035Y232D01*
X0Y231D02*
X7Y231D01*
X422Y231D02*
X425Y231D01*
X509Y231D02*
X512Y231D01*
X722Y231D02*
X724Y231D01*
X810Y231D02*
X812Y231D01*
X1028Y231D02*
X1035Y231D01*
X0Y230D02*
X7Y230D01*
X422Y230D02*
X425Y230D01*
X509Y230D02*
X512Y230D01*
X722Y230D02*
X724Y230D01*
X810Y230D02*
X812Y230D01*
X1028Y230D02*
X1035Y230D01*
X0Y229D02*
X7Y229D01*
X422Y229D02*
X425Y229D01*
X509Y229D02*
X512Y229D01*
X722Y229D02*
X724Y229D01*
X810Y229D02*
X812Y229D01*
X1028Y229D02*
X1035Y229D01*
X0Y228D02*
X7Y228D01*
X422Y228D02*
X425Y228D01*
X509Y228D02*
X512Y228D01*
X722Y228D02*
X724Y228D01*
X810Y228D02*
X812Y228D01*
X1028Y228D02*
X1035Y228D01*
X0Y227D02*
X7Y227D01*
X422Y227D02*
X425Y227D01*
X509Y227D02*
X512Y227D01*
X722Y227D02*
X724Y227D01*
X810Y227D02*
X812Y227D01*
X1028Y227D02*
X1035Y227D01*
X0Y226D02*
X7Y226D01*
X422Y226D02*
X425Y226D01*
X509Y226D02*
X512Y226D01*
X722Y226D02*
X724Y226D01*
X810Y226D02*
X812Y226D01*
X1028Y226D02*
X1035Y226D01*
X0Y225D02*
X7Y225D01*
X422Y225D02*
X425Y225D01*
X509Y225D02*
X512Y225D01*
X722Y225D02*
X724Y225D01*
X810Y225D02*
X812Y225D01*
X1028Y225D02*
X1035Y225D01*
X0Y224D02*
X7Y224D01*
X422Y224D02*
X424Y224D01*
X509Y224D02*
X512Y224D01*
X722Y224D02*
X724Y224D01*
X810Y224D02*
X812Y224D01*
X1028Y224D02*
X1035Y224D01*
X0Y223D02*
X7Y223D01*
X422Y223D02*
X424Y223D01*
X510Y223D02*
X512Y223D01*
X722Y223D02*
X724Y223D01*
X810Y223D02*
X812Y223D01*
X1028Y223D02*
X1035Y223D01*
X0Y222D02*
X7Y222D01*
X422Y222D02*
X424Y222D01*
X510Y222D02*
X512Y222D01*
X722Y222D02*
X724Y222D01*
X810Y222D02*
X812Y222D01*
X1028Y222D02*
X1035Y222D01*
X0Y221D02*
X7Y221D01*
X422Y221D02*
X424Y221D01*
X510Y221D02*
X512Y221D01*
X722Y221D02*
X724Y221D01*
X810Y221D02*
X812Y221D01*
X1028Y221D02*
X1035Y221D01*
X0Y220D02*
X7Y220D01*
X422Y220D02*
X424Y220D01*
X510Y220D02*
X512Y220D01*
X722Y220D02*
X724Y220D01*
X810Y220D02*
X812Y220D01*
X1028Y220D02*
X1035Y220D01*
X0Y219D02*
X7Y219D01*
X422Y219D02*
X424Y219D01*
X510Y219D02*
X512Y219D01*
X722Y219D02*
X724Y219D01*
X810Y219D02*
X812Y219D01*
X1028Y219D02*
X1035Y219D01*
X0Y218D02*
X7Y218D01*
X422Y218D02*
X424Y218D01*
X510Y218D02*
X512Y218D01*
X722Y218D02*
X724Y218D01*
X810Y218D02*
X812Y218D01*
X1028Y218D02*
X1035Y218D01*
X0Y217D02*
X7Y217D01*
X422Y217D02*
X424Y217D01*
X510Y217D02*
X512Y217D01*
X722Y217D02*
X724Y217D01*
X810Y217D02*
X812Y217D01*
X1028Y217D02*
X1035Y217D01*
X0Y216D02*
X7Y216D01*
X422Y216D02*
X424Y216D01*
X510Y216D02*
X512Y216D01*
X722Y216D02*
X724Y216D01*
X810Y216D02*
X812Y216D01*
X1028Y216D02*
X1035Y216D01*
X0Y215D02*
X7Y215D01*
X422Y215D02*
X424Y215D01*
X510Y215D02*
X512Y215D01*
X722Y215D02*
X724Y215D01*
X810Y215D02*
X812Y215D01*
X1028Y215D02*
X1035Y215D01*
X0Y214D02*
X7Y214D01*
X422Y214D02*
X424Y214D01*
X510Y214D02*
X512Y214D01*
X722Y214D02*
X724Y214D01*
X810Y214D02*
X812Y214D01*
X1028Y214D02*
X1035Y214D01*
X0Y213D02*
X7Y213D01*
X422Y213D02*
X424Y213D01*
X510Y213D02*
X512Y213D01*
X722Y213D02*
X724Y213D01*
X810Y213D02*
X812Y213D01*
X1028Y213D02*
X1035Y213D01*
X0Y212D02*
X7Y212D01*
X422Y212D02*
X424Y212D01*
X510Y212D02*
X512Y212D01*
X722Y212D02*
X724Y212D01*
X810Y212D02*
X812Y212D01*
X1028Y212D02*
X1035Y212D01*
X0Y211D02*
X7Y211D01*
X422Y211D02*
X424Y211D01*
X510Y211D02*
X512Y211D01*
X722Y211D02*
X724Y211D01*
X810Y211D02*
X812Y211D01*
X1028Y211D02*
X1035Y211D01*
X0Y210D02*
X7Y210D01*
X422Y210D02*
X424Y210D01*
X510Y210D02*
X512Y210D01*
X722Y210D02*
X724Y210D01*
X810Y210D02*
X812Y210D01*
X1028Y210D02*
X1035Y210D01*
X0Y209D02*
X7Y209D01*
X422Y209D02*
X424Y209D01*
X510Y209D02*
X512Y209D01*
X722Y209D02*
X725Y209D01*
X809Y209D02*
X812Y209D01*
X1028Y209D02*
X1035Y209D01*
X0Y208D02*
X7Y208D01*
X422Y208D02*
X424Y208D01*
X510Y208D02*
X512Y208D01*
X722Y208D02*
X725Y208D01*
X809Y208D02*
X812Y208D01*
X1028Y208D02*
X1035Y208D01*
X0Y207D02*
X7Y207D01*
X422Y207D02*
X424Y207D01*
X510Y207D02*
X512Y207D01*
X722Y207D02*
X725Y207D01*
X809Y207D02*
X812Y207D01*
X1028Y207D02*
X1035Y207D01*
X0Y206D02*
X7Y206D01*
X422Y206D02*
X424Y206D01*
X510Y206D02*
X512Y206D01*
X722Y206D02*
X725Y206D01*
X809Y206D02*
X812Y206D01*
X1028Y206D02*
X1035Y206D01*
X0Y205D02*
X7Y205D01*
X422Y205D02*
X424Y205D01*
X510Y205D02*
X512Y205D01*
X722Y205D02*
X725Y205D01*
X809Y205D02*
X812Y205D01*
X1028Y205D02*
X1035Y205D01*
X0Y204D02*
X7Y204D01*
X422Y204D02*
X424Y204D01*
X510Y204D02*
X512Y204D01*
X722Y204D02*
X725Y204D01*
X809Y204D02*
X812Y204D01*
X1028Y204D02*
X1035Y204D01*
X0Y203D02*
X7Y203D01*
X422Y203D02*
X424Y203D01*
X510Y203D02*
X512Y203D01*
X722Y203D02*
X725Y203D01*
X809Y203D02*
X812Y203D01*
X1028Y203D02*
X1035Y203D01*
X0Y202D02*
X7Y202D01*
X422Y202D02*
X424Y202D01*
X510Y202D02*
X512Y202D01*
X722Y202D02*
X725Y202D01*
X809Y202D02*
X812Y202D01*
X1028Y202D02*
X1035Y202D01*
X0Y201D02*
X7Y201D01*
X422Y201D02*
X424Y201D01*
X510Y201D02*
X512Y201D01*
X722Y201D02*
X725Y201D01*
X809Y201D02*
X812Y201D01*
X1028Y201D02*
X1035Y201D01*
X0Y200D02*
X7Y200D01*
X422Y200D02*
X424Y200D01*
X510Y200D02*
X512Y200D01*
X722Y200D02*
X725Y200D01*
X809Y200D02*
X812Y200D01*
X1028Y200D02*
X1035Y200D01*
X0Y199D02*
X7Y199D01*
X422Y199D02*
X424Y199D01*
X510Y199D02*
X512Y199D01*
X722Y199D02*
X725Y199D01*
X809Y199D02*
X812Y199D01*
X1028Y199D02*
X1035Y199D01*
X0Y198D02*
X7Y198D01*
X422Y198D02*
X424Y198D01*
X510Y198D02*
X512Y198D01*
X722Y198D02*
X725Y198D01*
X809Y198D02*
X812Y198D01*
X1028Y198D02*
X1035Y198D01*
X0Y197D02*
X7Y197D01*
X422Y197D02*
X424Y197D01*
X510Y197D02*
X512Y197D01*
X722Y197D02*
X725Y197D01*
X809Y197D02*
X812Y197D01*
X1028Y197D02*
X1035Y197D01*
X0Y196D02*
X7Y196D01*
X422Y196D02*
X424Y196D01*
X510Y196D02*
X512Y196D01*
X722Y196D02*
X725Y196D01*
X809Y196D02*
X812Y196D01*
X1028Y196D02*
X1035Y196D01*
X0Y195D02*
X7Y195D01*
X422Y195D02*
X424Y195D01*
X510Y195D02*
X512Y195D01*
X722Y195D02*
X725Y195D01*
X809Y195D02*
X812Y195D01*
X1028Y195D02*
X1035Y195D01*
X0Y194D02*
X7Y194D01*
X422Y194D02*
X424Y194D01*
X510Y194D02*
X512Y194D01*
X722Y194D02*
X725Y194D01*
X809Y194D02*
X812Y194D01*
X1028Y194D02*
X1035Y194D01*
X0Y193D02*
X7Y193D01*
X422Y193D02*
X424Y193D01*
X510Y193D02*
X512Y193D01*
X722Y193D02*
X725Y193D01*
X809Y193D02*
X812Y193D01*
X1028Y193D02*
X1035Y193D01*
X0Y192D02*
X7Y192D01*
X422Y192D02*
X424Y192D01*
X510Y192D02*
X512Y192D01*
X722Y192D02*
X725Y192D01*
X809Y192D02*
X812Y192D01*
X1028Y192D02*
X1035Y192D01*
X0Y191D02*
X7Y191D01*
X422Y191D02*
X424Y191D01*
X510Y191D02*
X512Y191D01*
X722Y191D02*
X725Y191D01*
X809Y191D02*
X812Y191D01*
X1028Y191D02*
X1035Y191D01*
X0Y190D02*
X7Y190D01*
X422Y190D02*
X424Y190D01*
X510Y190D02*
X512Y190D01*
X722Y190D02*
X725Y190D01*
X809Y190D02*
X812Y190D01*
X1028Y190D02*
X1035Y190D01*
X0Y189D02*
X7Y189D01*
X422Y189D02*
X424Y189D01*
X510Y189D02*
X512Y189D01*
X722Y189D02*
X725Y189D01*
X809Y189D02*
X812Y189D01*
X1028Y189D02*
X1035Y189D01*
X0Y188D02*
X7Y188D01*
X422Y188D02*
X424Y188D01*
X510Y188D02*
X512Y188D01*
X722Y188D02*
X725Y188D01*
X809Y188D02*
X812Y188D01*
X1028Y188D02*
X1035Y188D01*
X0Y187D02*
X7Y187D01*
X422Y187D02*
X424Y187D01*
X510Y187D02*
X512Y187D01*
X722Y187D02*
X725Y187D01*
X809Y187D02*
X812Y187D01*
X1028Y187D02*
X1035Y187D01*
X0Y186D02*
X7Y186D01*
X422Y186D02*
X424Y186D01*
X510Y186D02*
X512Y186D01*
X722Y186D02*
X725Y186D01*
X809Y186D02*
X812Y186D01*
X1028Y186D02*
X1035Y186D01*
X0Y185D02*
X7Y185D01*
X422Y185D02*
X424Y185D01*
X510Y185D02*
X512Y185D01*
X722Y185D02*
X725Y185D01*
X809Y185D02*
X812Y185D01*
X1028Y185D02*
X1035Y185D01*
X0Y184D02*
X7Y184D01*
X422Y184D02*
X424Y184D01*
X510Y184D02*
X512Y184D01*
X722Y184D02*
X725Y184D01*
X809Y184D02*
X812Y184D01*
X1028Y184D02*
X1035Y184D01*
X0Y183D02*
X7Y183D01*
X422Y183D02*
X424Y183D01*
X510Y183D02*
X512Y183D01*
X722Y183D02*
X725Y183D01*
X809Y183D02*
X812Y183D01*
X1028Y183D02*
X1035Y183D01*
X0Y182D02*
X7Y182D01*
X422Y182D02*
X424Y182D01*
X510Y182D02*
X512Y182D01*
X722Y182D02*
X725Y182D01*
X809Y182D02*
X812Y182D01*
X1028Y182D02*
X1035Y182D01*
X0Y181D02*
X7Y181D01*
X422Y181D02*
X424Y181D01*
X510Y181D02*
X512Y181D01*
X722Y181D02*
X725Y181D01*
X809Y181D02*
X812Y181D01*
X1028Y181D02*
X1035Y181D01*
X0Y180D02*
X7Y180D01*
X422Y180D02*
X424Y180D01*
X510Y180D02*
X512Y180D01*
X722Y180D02*
X725Y180D01*
X809Y180D02*
X812Y180D01*
X1028Y180D02*
X1035Y180D01*
X0Y179D02*
X7Y179D01*
X422Y179D02*
X424Y179D01*
X510Y179D02*
X512Y179D01*
X722Y179D02*
X725Y179D01*
X809Y179D02*
X812Y179D01*
X1028Y179D02*
X1035Y179D01*
X0Y178D02*
X7Y178D01*
X422Y178D02*
X424Y178D01*
X510Y178D02*
X512Y178D01*
X722Y178D02*
X725Y178D01*
X809Y178D02*
X812Y178D01*
X1028Y178D02*
X1035Y178D01*
X0Y177D02*
X7Y177D01*
X422Y177D02*
X424Y177D01*
X510Y177D02*
X512Y177D01*
X722Y177D02*
X725Y177D01*
X809Y177D02*
X812Y177D01*
X1028Y177D02*
X1035Y177D01*
X0Y176D02*
X7Y176D01*
X422Y176D02*
X424Y176D01*
X510Y176D02*
X512Y176D01*
X722Y176D02*
X725Y176D01*
X809Y176D02*
X812Y176D01*
X1028Y176D02*
X1035Y176D01*
X0Y175D02*
X7Y175D01*
X422Y175D02*
X424Y175D01*
X510Y175D02*
X512Y175D01*
X722Y175D02*
X725Y175D01*
X809Y175D02*
X812Y175D01*
X1028Y175D02*
X1035Y175D01*
X0Y174D02*
X7Y174D01*
X422Y174D02*
X424Y174D01*
X510Y174D02*
X512Y174D01*
X722Y174D02*
X725Y174D01*
X809Y174D02*
X812Y174D01*
X1028Y174D02*
X1035Y174D01*
X0Y173D02*
X7Y173D01*
X422Y173D02*
X424Y173D01*
X510Y173D02*
X512Y173D01*
X722Y173D02*
X725Y173D01*
X809Y173D02*
X812Y173D01*
X1028Y173D02*
X1035Y173D01*
X0Y172D02*
X7Y172D01*
X422Y172D02*
X424Y172D01*
X510Y172D02*
X512Y172D01*
X722Y172D02*
X725Y172D01*
X809Y172D02*
X812Y172D01*
X1028Y172D02*
X1035Y172D01*
X0Y171D02*
X7Y171D01*
X422Y171D02*
X424Y171D01*
X510Y171D02*
X512Y171D01*
X722Y171D02*
X725Y171D01*
X809Y171D02*
X812Y171D01*
X1028Y171D02*
X1035Y171D01*
X0Y170D02*
X7Y170D01*
X422Y170D02*
X424Y170D01*
X510Y170D02*
X512Y170D01*
X722Y170D02*
X725Y170D01*
X809Y170D02*
X812Y170D01*
X1028Y170D02*
X1035Y170D01*
X0Y169D02*
X7Y169D01*
X422Y169D02*
X424Y169D01*
X510Y169D02*
X512Y169D01*
X722Y169D02*
X725Y169D01*
X809Y169D02*
X812Y169D01*
X1028Y169D02*
X1035Y169D01*
X0Y168D02*
X7Y168D01*
X422Y168D02*
X424Y168D01*
X510Y168D02*
X512Y168D01*
X722Y168D02*
X725Y168D01*
X809Y168D02*
X812Y168D01*
X1028Y168D02*
X1035Y168D01*
X0Y167D02*
X7Y167D01*
X422Y167D02*
X424Y167D01*
X510Y167D02*
X512Y167D01*
X722Y167D02*
X725Y167D01*
X809Y167D02*
X812Y167D01*
X1028Y167D02*
X1035Y167D01*
X0Y166D02*
X7Y166D01*
X422Y166D02*
X424Y166D01*
X510Y166D02*
X512Y166D01*
X722Y166D02*
X725Y166D01*
X809Y166D02*
X812Y166D01*
X1028Y166D02*
X1035Y166D01*
X0Y165D02*
X7Y165D01*
X422Y165D02*
X424Y165D01*
X510Y165D02*
X512Y165D01*
X722Y165D02*
X725Y165D01*
X809Y165D02*
X812Y165D01*
X1028Y165D02*
X1035Y165D01*
X0Y164D02*
X7Y164D01*
X422Y164D02*
X424Y164D01*
X510Y164D02*
X512Y164D01*
X722Y164D02*
X725Y164D01*
X809Y164D02*
X812Y164D01*
X1028Y164D02*
X1035Y164D01*
X0Y163D02*
X7Y163D01*
X422Y163D02*
X424Y163D01*
X510Y163D02*
X512Y163D01*
X722Y163D02*
X725Y163D01*
X809Y163D02*
X812Y163D01*
X1028Y163D02*
X1035Y163D01*
X0Y162D02*
X7Y162D01*
X422Y162D02*
X424Y162D01*
X510Y162D02*
X512Y162D01*
X722Y162D02*
X725Y162D01*
X809Y162D02*
X812Y162D01*
X1028Y162D02*
X1035Y162D01*
X0Y161D02*
X7Y161D01*
X422Y161D02*
X424Y161D01*
X510Y161D02*
X512Y161D01*
X722Y161D02*
X725Y161D01*
X809Y161D02*
X812Y161D01*
X1028Y161D02*
X1035Y161D01*
X0Y160D02*
X7Y160D01*
X422Y160D02*
X424Y160D01*
X510Y160D02*
X512Y160D01*
X722Y160D02*
X724Y160D01*
X810Y160D02*
X812Y160D01*
X1028Y160D02*
X1035Y160D01*
X0Y159D02*
X7Y159D01*
X422Y159D02*
X424Y159D01*
X510Y159D02*
X512Y159D01*
X722Y159D02*
X724Y159D01*
X810Y159D02*
X812Y159D01*
X1028Y159D02*
X1035Y159D01*
X0Y158D02*
X7Y158D01*
X422Y158D02*
X424Y158D01*
X510Y158D02*
X512Y158D01*
X722Y158D02*
X724Y158D01*
X810Y158D02*
X812Y158D01*
X1028Y158D02*
X1035Y158D01*
X0Y157D02*
X7Y157D01*
X422Y157D02*
X424Y157D01*
X510Y157D02*
X512Y157D01*
X722Y157D02*
X724Y157D01*
X810Y157D02*
X812Y157D01*
X1028Y157D02*
X1035Y157D01*
X0Y156D02*
X7Y156D01*
X422Y156D02*
X424Y156D01*
X510Y156D02*
X512Y156D01*
X722Y156D02*
X724Y156D01*
X810Y156D02*
X812Y156D01*
X1028Y156D02*
X1035Y156D01*
X0Y155D02*
X7Y155D01*
X422Y155D02*
X424Y155D01*
X510Y155D02*
X512Y155D01*
X722Y155D02*
X724Y155D01*
X810Y155D02*
X812Y155D01*
X1028Y155D02*
X1035Y155D01*
X0Y154D02*
X7Y154D01*
X422Y154D02*
X424Y154D01*
X510Y154D02*
X512Y154D01*
X722Y154D02*
X724Y154D01*
X810Y154D02*
X812Y154D01*
X1028Y154D02*
X1035Y154D01*
X0Y153D02*
X7Y153D01*
X422Y153D02*
X424Y153D01*
X510Y153D02*
X512Y153D01*
X722Y153D02*
X724Y153D01*
X810Y153D02*
X812Y153D01*
X1028Y153D02*
X1035Y153D01*
X0Y152D02*
X7Y152D01*
X422Y152D02*
X424Y152D01*
X510Y152D02*
X512Y152D01*
X722Y152D02*
X724Y152D01*
X810Y152D02*
X812Y152D01*
X1028Y152D02*
X1035Y152D01*
X0Y151D02*
X7Y151D01*
X422Y151D02*
X512Y151D01*
X722Y151D02*
X724Y151D01*
X810Y151D02*
X812Y151D01*
X1028Y151D02*
X1035Y151D01*
X0Y150D02*
X7Y150D01*
X422Y150D02*
X512Y150D01*
X722Y150D02*
X724Y150D01*
X810Y150D02*
X812Y150D01*
X1028Y150D02*
X1035Y150D01*
X0Y149D02*
X7Y149D01*
X422Y149D02*
X512Y149D01*
X722Y149D02*
X724Y149D01*
X810Y149D02*
X812Y149D01*
X1028Y149D02*
X1035Y149D01*
X0Y148D02*
X7Y148D01*
X722Y148D02*
X724Y148D01*
X810Y148D02*
X812Y148D01*
X1028Y148D02*
X1035Y148D01*
X0Y147D02*
X7Y147D01*
X722Y147D02*
X724Y147D01*
X810Y147D02*
X812Y147D01*
X1028Y147D02*
X1035Y147D01*
X0Y146D02*
X7Y146D01*
X722Y146D02*
X724Y146D01*
X810Y146D02*
X812Y146D01*
X1028Y146D02*
X1035Y146D01*
X0Y145D02*
X7Y145D01*
X722Y145D02*
X724Y145D01*
X810Y145D02*
X812Y145D01*
X1028Y145D02*
X1035Y145D01*
X0Y144D02*
X7Y144D01*
X722Y144D02*
X724Y144D01*
X810Y144D02*
X812Y144D01*
X1028Y144D02*
X1035Y144D01*
X0Y143D02*
X7Y143D01*
X722Y143D02*
X724Y143D01*
X810Y143D02*
X812Y143D01*
X1028Y143D02*
X1035Y143D01*
X0Y142D02*
X7Y142D01*
X722Y142D02*
X724Y142D01*
X810Y142D02*
X812Y142D01*
X1028Y142D02*
X1035Y142D01*
X0Y141D02*
X7Y141D01*
X722Y141D02*
X724Y141D01*
X810Y141D02*
X812Y141D01*
X1028Y141D02*
X1035Y141D01*
X0Y140D02*
X7Y140D01*
X722Y140D02*
X724Y140D01*
X810Y140D02*
X812Y140D01*
X1028Y140D02*
X1035Y140D01*
X0Y139D02*
X7Y139D01*
X722Y139D02*
X724Y139D01*
X810Y139D02*
X812Y139D01*
X1028Y139D02*
X1035Y139D01*
X0Y138D02*
X7Y138D01*
X722Y138D02*
X724Y138D01*
X810Y138D02*
X812Y138D01*
X1028Y138D02*
X1035Y138D01*
X0Y137D02*
X7Y137D01*
X363Y137D02*
X378Y137D01*
X394Y137D02*
X410Y137D01*
X454Y137D02*
X465Y137D01*
X486Y137D02*
X501Y137D01*
X515Y137D02*
X516Y137D01*
X722Y137D02*
X724Y137D01*
X810Y137D02*
X812Y137D01*
X1028Y137D02*
X1035Y137D01*
X0Y136D02*
X7Y136D01*
X363Y136D02*
X380Y136D01*
X393Y136D02*
X412Y136D01*
X454Y136D02*
X465Y136D01*
X485Y136D02*
X502Y136D01*
X514Y136D02*
X517Y136D01*
X722Y136D02*
X724Y136D01*
X810Y136D02*
X812Y136D01*
X1028Y136D02*
X1035Y136D01*
X0Y135D02*
X7Y135D01*
X363Y135D02*
X381Y135D01*
X393Y135D02*
X412Y135D01*
X453Y135D02*
X465Y135D01*
X484Y135D02*
X503Y135D01*
X514Y135D02*
X517Y135D01*
X722Y135D02*
X724Y135D01*
X810Y135D02*
X812Y135D01*
X1028Y135D02*
X1035Y135D01*
X0Y134D02*
X7Y134D01*
X363Y134D02*
X382Y134D01*
X394Y134D02*
X413Y134D01*
X454Y134D02*
X465Y134D01*
X484Y134D02*
X503Y134D01*
X514Y134D02*
X517Y134D01*
X722Y134D02*
X724Y134D01*
X810Y134D02*
X812Y134D01*
X1028Y134D02*
X1035Y134D01*
X0Y133D02*
X7Y133D01*
X363Y133D02*
X366Y133D01*
X378Y133D02*
X382Y133D01*
X409Y133D02*
X413Y133D01*
X461Y133D02*
X465Y133D01*
X483Y133D02*
X487Y133D01*
X500Y133D02*
X503Y133D01*
X514Y133D02*
X517Y133D01*
X722Y133D02*
X724Y133D01*
X810Y133D02*
X812Y133D01*
X1028Y133D02*
X1035Y133D01*
X0Y132D02*
X7Y132D01*
X363Y132D02*
X366Y132D01*
X379Y132D02*
X383Y132D01*
X410Y132D02*
X413Y132D01*
X462Y132D02*
X465Y132D01*
X483Y132D02*
X487Y132D01*
X500Y132D02*
X503Y132D01*
X514Y132D02*
X517Y132D01*
X722Y132D02*
X724Y132D01*
X810Y132D02*
X812Y132D01*
X1028Y132D02*
X1035Y132D01*
X0Y131D02*
X7Y131D01*
X363Y131D02*
X366Y131D01*
X379Y131D02*
X383Y131D01*
X410Y131D02*
X413Y131D01*
X462Y131D02*
X465Y131D01*
X483Y131D02*
X487Y131D01*
X500Y131D02*
X503Y131D01*
X514Y131D02*
X517Y131D01*
X722Y131D02*
X724Y131D01*
X810Y131D02*
X812Y131D01*
X1028Y131D02*
X1035Y131D01*
X0Y130D02*
X7Y130D01*
X363Y130D02*
X366Y130D01*
X380Y130D02*
X383Y130D01*
X410Y130D02*
X413Y130D01*
X462Y130D02*
X465Y130D01*
X483Y130D02*
X487Y130D01*
X500Y130D02*
X503Y130D01*
X514Y130D02*
X517Y130D01*
X722Y130D02*
X724Y130D01*
X810Y130D02*
X812Y130D01*
X1028Y130D02*
X1035Y130D01*
X0Y129D02*
X7Y129D01*
X363Y129D02*
X366Y129D01*
X379Y129D02*
X383Y129D01*
X410Y129D02*
X413Y129D01*
X462Y129D02*
X465Y129D01*
X483Y129D02*
X487Y129D01*
X500Y129D02*
X503Y129D01*
X514Y129D02*
X517Y129D01*
X722Y129D02*
X724Y129D01*
X810Y129D02*
X812Y129D01*
X1028Y129D02*
X1035Y129D01*
X0Y128D02*
X7Y128D01*
X363Y128D02*
X366Y128D01*
X379Y128D02*
X383Y128D01*
X410Y128D02*
X413Y128D01*
X462Y128D02*
X465Y128D01*
X483Y128D02*
X487Y128D01*
X500Y128D02*
X503Y128D01*
X514Y128D02*
X517Y128D01*
X529Y128D02*
X530Y128D01*
X722Y128D02*
X724Y128D01*
X810Y128D02*
X812Y128D01*
X1028Y128D02*
X1035Y128D01*
X0Y127D02*
X7Y127D01*
X363Y127D02*
X366Y127D01*
X378Y127D02*
X382Y127D01*
X410Y127D02*
X413Y127D01*
X462Y127D02*
X465Y127D01*
X483Y127D02*
X487Y127D01*
X500Y127D02*
X503Y127D01*
X514Y127D02*
X517Y127D01*
X528Y127D02*
X531Y127D01*
X722Y127D02*
X724Y127D01*
X810Y127D02*
X812Y127D01*
X1028Y127D02*
X1035Y127D01*
X0Y126D02*
X7Y126D01*
X363Y126D02*
X382Y126D01*
X410Y126D02*
X413Y126D01*
X462Y126D02*
X465Y126D01*
X483Y126D02*
X487Y126D01*
X500Y126D02*
X503Y126D01*
X514Y126D02*
X517Y126D01*
X526Y126D02*
X531Y126D01*
X722Y126D02*
X724Y126D01*
X810Y126D02*
X812Y126D01*
X1028Y126D02*
X1035Y126D01*
X0Y125D02*
X7Y125D01*
X363Y125D02*
X381Y125D01*
X410Y125D02*
X413Y125D01*
X462Y125D02*
X465Y125D01*
X483Y125D02*
X487Y125D01*
X500Y125D02*
X503Y125D01*
X514Y125D02*
X517Y125D01*
X525Y125D02*
X531Y125D01*
X722Y125D02*
X724Y125D01*
X810Y125D02*
X812Y125D01*
X1028Y125D02*
X1035Y125D01*
X0Y124D02*
X7Y124D01*
X363Y124D02*
X380Y124D01*
X410Y124D02*
X413Y124D01*
X462Y124D02*
X465Y124D01*
X483Y124D02*
X487Y124D01*
X500Y124D02*
X503Y124D01*
X514Y124D02*
X517Y124D01*
X524Y124D02*
X529Y124D01*
X722Y124D02*
X724Y124D01*
X810Y124D02*
X812Y124D01*
X1028Y124D02*
X1035Y124D01*
X0Y123D02*
X7Y123D01*
X363Y123D02*
X379Y123D01*
X396Y123D02*
X413Y123D01*
X462Y123D02*
X465Y123D01*
X483Y123D02*
X487Y123D01*
X500Y123D02*
X503Y123D01*
X514Y123D02*
X517Y123D01*
X523Y123D02*
X528Y123D01*
X722Y123D02*
X724Y123D01*
X810Y123D02*
X812Y123D01*
X1028Y123D02*
X1035Y123D01*
X0Y122D02*
X7Y122D01*
X363Y122D02*
X366Y122D01*
X370Y122D02*
X374Y122D01*
X394Y122D02*
X413Y122D01*
X462Y122D02*
X465Y122D01*
X483Y122D02*
X487Y122D01*
X500Y122D02*
X503Y122D01*
X514Y122D02*
X517Y122D01*
X522Y122D02*
X527Y122D01*
X722Y122D02*
X724Y122D01*
X810Y122D02*
X812Y122D01*
X1028Y122D02*
X1035Y122D01*
X0Y121D02*
X7Y121D01*
X363Y121D02*
X366Y121D01*
X371Y121D02*
X375Y121D01*
X394Y121D02*
X412Y121D01*
X462Y121D02*
X465Y121D01*
X483Y121D02*
X487Y121D01*
X500Y121D02*
X503Y121D01*
X514Y121D02*
X517Y121D01*
X520Y121D02*
X526Y121D01*
X722Y121D02*
X724Y121D01*
X810Y121D02*
X812Y121D01*
X1028Y121D02*
X1035Y121D01*
X0Y120D02*
X7Y120D01*
X363Y120D02*
X366Y120D01*
X372Y120D02*
X375Y120D01*
X393Y120D02*
X411Y120D01*
X462Y120D02*
X465Y120D01*
X483Y120D02*
X487Y120D01*
X500Y120D02*
X503Y120D01*
X514Y120D02*
X517Y120D01*
X519Y120D02*
X525Y120D01*
X722Y120D02*
X724Y120D01*
X810Y120D02*
X812Y120D01*
X1028Y120D02*
X1035Y120D01*
X0Y119D02*
X7Y119D01*
X363Y119D02*
X366Y119D01*
X372Y119D02*
X376Y119D01*
X393Y119D02*
X397Y119D01*
X462Y119D02*
X465Y119D01*
X470Y119D02*
X472Y119D01*
X483Y119D02*
X487Y119D01*
X500Y119D02*
X503Y119D01*
X514Y119D02*
X524Y119D01*
X722Y119D02*
X724Y119D01*
X810Y119D02*
X812Y119D01*
X1028Y119D02*
X1035Y119D01*
X0Y118D02*
X7Y118D01*
X363Y118D02*
X366Y118D01*
X373Y118D02*
X377Y118D01*
X393Y118D02*
X396Y118D01*
X462Y118D02*
X465Y118D01*
X470Y118D02*
X473Y118D01*
X483Y118D02*
X487Y118D01*
X500Y118D02*
X503Y118D01*
X514Y118D02*
X523Y118D01*
X722Y118D02*
X724Y118D01*
X810Y118D02*
X812Y118D01*
X1028Y118D02*
X1035Y118D01*
X0Y117D02*
X7Y117D01*
X363Y117D02*
X366Y117D01*
X373Y117D02*
X377Y117D01*
X393Y117D02*
X396Y117D01*
X462Y117D02*
X465Y117D01*
X470Y117D02*
X473Y117D01*
X483Y117D02*
X487Y117D01*
X500Y117D02*
X503Y117D01*
X514Y117D02*
X523Y117D01*
X722Y117D02*
X724Y117D01*
X810Y117D02*
X812Y117D01*
X1028Y117D02*
X1035Y117D01*
X0Y116D02*
X7Y116D01*
X363Y116D02*
X366Y116D01*
X374Y116D02*
X378Y116D01*
X393Y116D02*
X396Y116D01*
X462Y116D02*
X465Y116D01*
X470Y116D02*
X473Y116D01*
X483Y116D02*
X487Y116D01*
X500Y116D02*
X503Y116D01*
X514Y116D02*
X524Y116D01*
X722Y116D02*
X724Y116D01*
X810Y116D02*
X812Y116D01*
X1028Y116D02*
X1035Y116D01*
X0Y115D02*
X7Y115D01*
X363Y115D02*
X366Y115D01*
X374Y115D02*
X378Y115D01*
X393Y115D02*
X396Y115D01*
X462Y115D02*
X465Y115D01*
X470Y115D02*
X473Y115D01*
X483Y115D02*
X487Y115D01*
X500Y115D02*
X503Y115D01*
X514Y115D02*
X525Y115D01*
X722Y115D02*
X724Y115D01*
X810Y115D02*
X812Y115D01*
X1028Y115D02*
X1035Y115D01*
X0Y114D02*
X7Y114D01*
X363Y114D02*
X366Y114D01*
X375Y114D02*
X379Y114D01*
X393Y114D02*
X396Y114D01*
X462Y114D02*
X465Y114D01*
X470Y114D02*
X473Y114D01*
X483Y114D02*
X487Y114D01*
X500Y114D02*
X503Y114D01*
X514Y114D02*
X518Y114D01*
X521Y114D02*
X526Y114D01*
X722Y114D02*
X724Y114D01*
X810Y114D02*
X812Y114D01*
X1028Y114D02*
X1035Y114D01*
X0Y113D02*
X7Y113D01*
X363Y113D02*
X366Y113D01*
X376Y113D02*
X380Y113D01*
X393Y113D02*
X396Y113D01*
X462Y113D02*
X465Y113D01*
X470Y113D02*
X473Y113D01*
X483Y113D02*
X487Y113D01*
X500Y113D02*
X503Y113D01*
X514Y113D02*
X517Y113D01*
X522Y113D02*
X527Y113D01*
X722Y113D02*
X724Y113D01*
X810Y113D02*
X812Y113D01*
X1028Y113D02*
X1035Y113D01*
X0Y112D02*
X7Y112D01*
X363Y112D02*
X366Y112D01*
X376Y112D02*
X380Y112D01*
X393Y112D02*
X396Y112D01*
X462Y112D02*
X465Y112D01*
X470Y112D02*
X473Y112D01*
X483Y112D02*
X487Y112D01*
X500Y112D02*
X503Y112D01*
X514Y112D02*
X517Y112D01*
X523Y112D02*
X529Y112D01*
X722Y112D02*
X724Y112D01*
X810Y112D02*
X812Y112D01*
X1028Y112D02*
X1035Y112D01*
X0Y111D02*
X7Y111D01*
X363Y111D02*
X366Y111D01*
X377Y111D02*
X381Y111D01*
X393Y111D02*
X396Y111D01*
X462Y111D02*
X465Y111D01*
X470Y111D02*
X473Y111D01*
X483Y111D02*
X487Y111D01*
X500Y111D02*
X503Y111D01*
X514Y111D02*
X517Y111D01*
X524Y111D02*
X530Y111D01*
X722Y111D02*
X724Y111D01*
X810Y111D02*
X812Y111D01*
X1028Y111D02*
X1035Y111D01*
X0Y110D02*
X7Y110D01*
X363Y110D02*
X366Y110D01*
X377Y110D02*
X381Y110D01*
X393Y110D02*
X396Y110D01*
X462Y110D02*
X465Y110D01*
X470Y110D02*
X473Y110D01*
X483Y110D02*
X487Y110D01*
X500Y110D02*
X503Y110D01*
X514Y110D02*
X517Y110D01*
X525Y110D02*
X531Y110D01*
X722Y110D02*
X724Y110D01*
X810Y110D02*
X812Y110D01*
X1028Y110D02*
X1035Y110D01*
X0Y109D02*
X7Y109D01*
X363Y109D02*
X366Y109D01*
X378Y109D02*
X382Y109D01*
X393Y109D02*
X411Y109D01*
X455Y109D02*
X473Y109D01*
X483Y109D02*
X503Y109D01*
X514Y109D02*
X517Y109D01*
X527Y109D02*
X532Y109D01*
X722Y109D02*
X724Y109D01*
X810Y109D02*
X812Y109D01*
X1028Y109D02*
X1035Y109D01*
X0Y108D02*
X7Y108D01*
X363Y108D02*
X366Y108D01*
X379Y108D02*
X382Y108D01*
X393Y108D02*
X413Y108D01*
X454Y108D02*
X473Y108D01*
X484Y108D02*
X503Y108D01*
X514Y108D02*
X517Y108D01*
X528Y108D02*
X533Y108D01*
X722Y108D02*
X724Y108D01*
X810Y108D02*
X812Y108D01*
X1028Y108D02*
X1035Y108D01*
X0Y107D02*
X7Y107D01*
X363Y107D02*
X366Y107D01*
X379Y107D02*
X383Y107D01*
X393Y107D02*
X413Y107D01*
X453Y107D02*
X473Y107D01*
X484Y107D02*
X503Y107D01*
X514Y107D02*
X517Y107D01*
X529Y107D02*
X533Y107D01*
X722Y107D02*
X724Y107D01*
X810Y107D02*
X812Y107D01*
X1028Y107D02*
X1035Y107D01*
X0Y106D02*
X7Y106D01*
X363Y106D02*
X366Y106D01*
X380Y106D02*
X382Y106D01*
X393Y106D02*
X413Y106D01*
X454Y106D02*
X473Y106D01*
X485Y106D02*
X502Y106D01*
X514Y106D02*
X516Y106D01*
X530Y106D02*
X533Y106D01*
X722Y106D02*
X724Y106D01*
X810Y106D02*
X812Y106D01*
X1028Y106D02*
X1035Y106D01*
X0Y105D02*
X7Y105D01*
X365Y105D02*
X365Y105D01*
X381Y105D02*
X381Y105D01*
X393Y105D02*
X411Y105D01*
X455Y105D02*
X471Y105D01*
X487Y105D02*
X499Y105D01*
X515Y105D02*
X515Y105D01*
X532Y105D02*
X532Y105D01*
X722Y105D02*
X724Y105D01*
X810Y105D02*
X812Y105D01*
X1028Y105D02*
X1035Y105D01*
X0Y104D02*
X7Y104D01*
X722Y104D02*
X724Y104D01*
X810Y104D02*
X812Y104D01*
X1028Y104D02*
X1035Y104D01*
X0Y103D02*
X7Y103D01*
X722Y103D02*
X724Y103D01*
X810Y103D02*
X812Y103D01*
X1028Y103D02*
X1035Y103D01*
X0Y102D02*
X7Y102D01*
X722Y102D02*
X724Y102D01*
X810Y102D02*
X812Y102D01*
X1028Y102D02*
X1035Y102D01*
X0Y101D02*
X7Y101D01*
X722Y101D02*
X724Y101D01*
X810Y101D02*
X812Y101D01*
X1028Y101D02*
X1035Y101D01*
X0Y100D02*
X7Y100D01*
X722Y100D02*
X724Y100D01*
X810Y100D02*
X812Y100D01*
X1028Y100D02*
X1035Y100D01*
X0Y99D02*
X7Y99D01*
X722Y99D02*
X724Y99D01*
X810Y99D02*
X812Y99D01*
X1028Y99D02*
X1035Y99D01*
X0Y98D02*
X7Y98D01*
X722Y98D02*
X724Y98D01*
X810Y98D02*
X812Y98D01*
X1028Y98D02*
X1035Y98D01*
X0Y97D02*
X7Y97D01*
X722Y97D02*
X724Y97D01*
X810Y97D02*
X812Y97D01*
X1028Y97D02*
X1035Y97D01*
X0Y96D02*
X7Y96D01*
X722Y96D02*
X724Y96D01*
X810Y96D02*
X812Y96D01*
X1028Y96D02*
X1035Y96D01*
X0Y95D02*
X7Y95D01*
X722Y95D02*
X724Y95D01*
X810Y95D02*
X812Y95D01*
X1028Y95D02*
X1035Y95D01*
X0Y94D02*
X7Y94D01*
X722Y94D02*
X724Y94D01*
X810Y94D02*
X812Y94D01*
X1028Y94D02*
X1035Y94D01*
X0Y93D02*
X7Y93D01*
X722Y93D02*
X724Y93D01*
X810Y93D02*
X812Y93D01*
X1028Y93D02*
X1035Y93D01*
X0Y92D02*
X7Y92D01*
X722Y92D02*
X724Y92D01*
X810Y92D02*
X812Y92D01*
X1028Y92D02*
X1035Y92D01*
X0Y91D02*
X7Y91D01*
X722Y91D02*
X724Y91D01*
X810Y91D02*
X812Y91D01*
X1028Y91D02*
X1035Y91D01*
X0Y90D02*
X7Y90D01*
X722Y90D02*
X724Y90D01*
X810Y90D02*
X812Y90D01*
X1028Y90D02*
X1035Y90D01*
X0Y89D02*
X7Y89D01*
X722Y89D02*
X724Y89D01*
X810Y89D02*
X812Y89D01*
X1028Y89D02*
X1035Y89D01*
X0Y88D02*
X7Y88D01*
X722Y88D02*
X724Y88D01*
X810Y88D02*
X812Y88D01*
X1028Y88D02*
X1035Y88D01*
X0Y87D02*
X7Y87D01*
X722Y87D02*
X812Y87D01*
X1028Y87D02*
X1035Y87D01*
X0Y86D02*
X7Y86D01*
X722Y86D02*
X812Y86D01*
X1028Y86D02*
X1035Y86D01*
X0Y85D02*
X7Y85D01*
X722Y85D02*
X812Y85D01*
X1028Y85D02*
X1035Y85D01*
X0Y84D02*
X7Y84D01*
X1028Y84D02*
X1035Y84D01*
X0Y83D02*
X7Y83D01*
X1028Y83D02*
X1035Y83D01*
X0Y82D02*
X7Y82D01*
X1028Y82D02*
X1035Y82D01*
X0Y81D02*
X7Y81D01*
X1028Y81D02*
X1035Y81D01*
X0Y80D02*
X7Y80D01*
X1028Y80D02*
X1035Y80D01*
X0Y79D02*
X7Y79D01*
X1028Y79D02*
X1035Y79D01*
X0Y78D02*
X7Y78D01*
X1028Y78D02*
X1035Y78D01*
X0Y77D02*
X7Y77D01*
X1028Y77D02*
X1035Y77D01*
X0Y76D02*
X7Y76D01*
X1028Y76D02*
X1035Y76D01*
X0Y75D02*
X7Y75D01*
X1028Y75D02*
X1035Y75D01*
X0Y74D02*
X7Y74D01*
X708Y74D02*
X724Y74D01*
X739Y74D02*
X750Y74D01*
X799Y74D02*
X810Y74D01*
X831Y74D02*
X846Y74D01*
X859Y74D02*
X861Y74D01*
X1028Y74D02*
X1035Y74D01*
X0Y73D02*
X7Y73D01*
X708Y73D02*
X725Y73D01*
X738Y73D02*
X750Y73D01*
X798Y73D02*
X810Y73D01*
X830Y73D02*
X847Y73D01*
X859Y73D02*
X862Y73D01*
X1028Y73D02*
X1035Y73D01*
X0Y72D02*
X7Y72D01*
X708Y72D02*
X726Y72D01*
X738Y72D02*
X750Y72D01*
X798Y72D02*
X810Y72D01*
X829Y72D02*
X848Y72D01*
X859Y72D02*
X862Y72D01*
X1028Y72D02*
X1035Y72D01*
X0Y71D02*
X7Y71D01*
X708Y71D02*
X727Y71D01*
X739Y71D02*
X750Y71D01*
X799Y71D02*
X810Y71D01*
X829Y71D02*
X848Y71D01*
X859Y71D02*
X862Y71D01*
X1028Y71D02*
X1035Y71D01*
X0Y70D02*
X7Y70D01*
X708Y70D02*
X711Y70D01*
X723Y70D02*
X727Y70D01*
X746Y70D02*
X750Y70D01*
X807Y70D02*
X810Y70D01*
X828Y70D02*
X832Y70D01*
X845Y70D02*
X848Y70D01*
X859Y70D02*
X862Y70D01*
X1028Y70D02*
X1035Y70D01*
X0Y69D02*
X7Y69D01*
X708Y69D02*
X711Y69D01*
X724Y69D02*
X728Y69D01*
X746Y69D02*
X750Y69D01*
X807Y69D02*
X810Y69D01*
X828Y69D02*
X832Y69D01*
X845Y69D02*
X848Y69D01*
X859Y69D02*
X862Y69D01*
X1028Y69D02*
X1035Y69D01*
X0Y68D02*
X7Y68D01*
X708Y68D02*
X711Y68D01*
X725Y68D02*
X728Y68D01*
X746Y68D02*
X750Y68D01*
X807Y68D02*
X810Y68D01*
X828Y68D02*
X832Y68D01*
X845Y68D02*
X848Y68D01*
X859Y68D02*
X862Y68D01*
X1028Y68D02*
X1035Y68D01*
X0Y67D02*
X7Y67D01*
X708Y67D02*
X711Y67D01*
X725Y67D02*
X728Y67D01*
X746Y67D02*
X750Y67D01*
X807Y67D02*
X810Y67D01*
X828Y67D02*
X832Y67D01*
X845Y67D02*
X848Y67D01*
X859Y67D02*
X862Y67D01*
X1028Y67D02*
X1035Y67D01*
X0Y66D02*
X7Y66D01*
X708Y66D02*
X711Y66D01*
X725Y66D02*
X728Y66D01*
X746Y66D02*
X750Y66D01*
X807Y66D02*
X810Y66D01*
X828Y66D02*
X832Y66D01*
X845Y66D02*
X848Y66D01*
X859Y66D02*
X862Y66D01*
X1028Y66D02*
X1035Y66D01*
X0Y65D02*
X7Y65D01*
X708Y65D02*
X711Y65D01*
X724Y65D02*
X728Y65D01*
X746Y65D02*
X750Y65D01*
X807Y65D02*
X810Y65D01*
X828Y65D02*
X832Y65D01*
X845Y65D02*
X848Y65D01*
X859Y65D02*
X862Y65D01*
X874Y65D02*
X876Y65D01*
X1028Y65D02*
X1035Y65D01*
X0Y64D02*
X7Y64D01*
X708Y64D02*
X712Y64D01*
X723Y64D02*
X727Y64D01*
X746Y64D02*
X750Y64D01*
X807Y64D02*
X810Y64D01*
X828Y64D02*
X832Y64D01*
X845Y64D02*
X848Y64D01*
X859Y64D02*
X862Y64D01*
X872Y64D02*
X876Y64D01*
X1028Y64D02*
X1035Y64D01*
X0Y63D02*
X7Y63D01*
X708Y63D02*
X727Y63D01*
X746Y63D02*
X750Y63D01*
X807Y63D02*
X810Y63D01*
X828Y63D02*
X832Y63D01*
X845Y63D02*
X848Y63D01*
X859Y63D02*
X862Y63D01*
X871Y63D02*
X876Y63D01*
X1028Y63D02*
X1035Y63D01*
X0Y62D02*
X7Y62D01*
X708Y62D02*
X726Y62D01*
X746Y62D02*
X750Y62D01*
X807Y62D02*
X810Y62D01*
X828Y62D02*
X832Y62D01*
X845Y62D02*
X848Y62D01*
X859Y62D02*
X862Y62D01*
X870Y62D02*
X875Y62D01*
X1028Y62D02*
X1035Y62D01*
X0Y61D02*
X7Y61D01*
X708Y61D02*
X725Y61D01*
X746Y61D02*
X750Y61D01*
X807Y61D02*
X810Y61D01*
X828Y61D02*
X832Y61D01*
X845Y61D02*
X848Y61D01*
X859Y61D02*
X862Y61D01*
X869Y61D02*
X874Y61D01*
X1028Y61D02*
X1035Y61D01*
X0Y60D02*
X7Y60D01*
X708Y60D02*
X723Y60D01*
X746Y60D02*
X750Y60D01*
X807Y60D02*
X810Y60D01*
X828Y60D02*
X832Y60D01*
X845Y60D02*
X848Y60D01*
X859Y60D02*
X862Y60D01*
X868Y60D02*
X873Y60D01*
X1028Y60D02*
X1035Y60D01*
X0Y59D02*
X7Y59D01*
X708Y59D02*
X711Y59D01*
X716Y59D02*
X719Y59D01*
X746Y59D02*
X750Y59D01*
X807Y59D02*
X810Y59D01*
X828Y59D02*
X832Y59D01*
X845Y59D02*
X848Y59D01*
X859Y59D02*
X862Y59D01*
X867Y59D02*
X872Y59D01*
X1028Y59D02*
X1035Y59D01*
X0Y58D02*
X7Y58D01*
X708Y58D02*
X711Y58D01*
X716Y58D02*
X720Y58D01*
X746Y58D02*
X750Y58D01*
X807Y58D02*
X810Y58D01*
X828Y58D02*
X832Y58D01*
X845Y58D02*
X848Y58D01*
X859Y58D02*
X862Y58D01*
X865Y58D02*
X871Y58D01*
X1028Y58D02*
X1035Y58D01*
X0Y57D02*
X7Y57D01*
X708Y57D02*
X711Y57D01*
X717Y57D02*
X721Y57D01*
X746Y57D02*
X750Y57D01*
X807Y57D02*
X810Y57D01*
X828Y57D02*
X832Y57D01*
X845Y57D02*
X848Y57D01*
X859Y57D02*
X862Y57D01*
X864Y57D02*
X870Y57D01*
X1028Y57D02*
X1035Y57D01*
X0Y56D02*
X7Y56D01*
X708Y56D02*
X711Y56D01*
X717Y56D02*
X721Y56D01*
X746Y56D02*
X750Y56D01*
X755Y56D02*
X757Y56D01*
X807Y56D02*
X810Y56D01*
X815Y56D02*
X818Y56D01*
X828Y56D02*
X832Y56D01*
X845Y56D02*
X848Y56D01*
X859Y56D02*
X868Y56D01*
X1028Y56D02*
X1035Y56D01*
X0Y55D02*
X7Y55D01*
X708Y55D02*
X711Y55D01*
X718Y55D02*
X722Y55D01*
X746Y55D02*
X750Y55D01*
X755Y55D02*
X758Y55D01*
X807Y55D02*
X810Y55D01*
X815Y55D02*
X818Y55D01*
X828Y55D02*
X832Y55D01*
X845Y55D02*
X848Y55D01*
X859Y55D02*
X867Y55D01*
X1028Y55D02*
X1035Y55D01*
X0Y54D02*
X7Y54D01*
X708Y54D02*
X711Y54D01*
X718Y54D02*
X722Y54D01*
X746Y54D02*
X750Y54D01*
X755Y54D02*
X758Y54D01*
X807Y54D02*
X810Y54D01*
X815Y54D02*
X818Y54D01*
X828Y54D02*
X832Y54D01*
X845Y54D02*
X848Y54D01*
X859Y54D02*
X868Y54D01*
X1028Y54D02*
X1035Y54D01*
X0Y53D02*
X7Y53D01*
X708Y53D02*
X711Y53D01*
X719Y53D02*
X723Y53D01*
X746Y53D02*
X750Y53D01*
X755Y53D02*
X758Y53D01*
X807Y53D02*
X810Y53D01*
X815Y53D02*
X818Y53D01*
X828Y53D02*
X832Y53D01*
X845Y53D02*
X848Y53D01*
X859Y53D02*
X869Y53D01*
X1028Y53D02*
X1035Y53D01*
X0Y52D02*
X7Y52D01*
X708Y52D02*
X711Y52D01*
X720Y52D02*
X724Y52D01*
X746Y52D02*
X750Y52D01*
X755Y52D02*
X758Y52D01*
X807Y52D02*
X810Y52D01*
X815Y52D02*
X818Y52D01*
X828Y52D02*
X832Y52D01*
X845Y52D02*
X848Y52D01*
X859Y52D02*
X870Y52D01*
X1028Y52D02*
X1035Y52D01*
X0Y51D02*
X7Y51D01*
X708Y51D02*
X711Y51D01*
X720Y51D02*
X724Y51D01*
X746Y51D02*
X750Y51D01*
X755Y51D02*
X758Y51D01*
X807Y51D02*
X810Y51D01*
X815Y51D02*
X818Y51D01*
X828Y51D02*
X832Y51D01*
X845Y51D02*
X848Y51D01*
X859Y51D02*
X863Y51D01*
X866Y51D02*
X872Y51D01*
X1028Y51D02*
X1035Y51D01*
X0Y50D02*
X7Y50D01*
X708Y50D02*
X711Y50D01*
X721Y50D02*
X725Y50D01*
X746Y50D02*
X750Y50D01*
X755Y50D02*
X758Y50D01*
X807Y50D02*
X810Y50D01*
X815Y50D02*
X818Y50D01*
X828Y50D02*
X832Y50D01*
X845Y50D02*
X848Y50D01*
X859Y50D02*
X862Y50D01*
X867Y50D02*
X873Y50D01*
X1028Y50D02*
X1035Y50D01*
X0Y49D02*
X7Y49D01*
X708Y49D02*
X711Y49D01*
X721Y49D02*
X725Y49D01*
X746Y49D02*
X750Y49D01*
X755Y49D02*
X758Y49D01*
X807Y49D02*
X810Y49D01*
X815Y49D02*
X818Y49D01*
X828Y49D02*
X832Y49D01*
X845Y49D02*
X848Y49D01*
X859Y49D02*
X862Y49D01*
X868Y49D02*
X874Y49D01*
X1028Y49D02*
X1035Y49D01*
X0Y48D02*
X7Y48D01*
X708Y48D02*
X711Y48D01*
X722Y48D02*
X726Y48D01*
X746Y48D02*
X750Y48D01*
X755Y48D02*
X758Y48D01*
X807Y48D02*
X810Y48D01*
X815Y48D02*
X818Y48D01*
X828Y48D02*
X832Y48D01*
X845Y48D02*
X848Y48D01*
X859Y48D02*
X862Y48D01*
X870Y48D02*
X875Y48D01*
X1028Y48D02*
X1035Y48D01*
X0Y47D02*
X7Y47D01*
X708Y47D02*
X711Y47D01*
X723Y47D02*
X726Y47D01*
X746Y47D02*
X750Y47D01*
X755Y47D02*
X758Y47D01*
X807Y47D02*
X810Y47D01*
X815Y47D02*
X818Y47D01*
X828Y47D02*
X832Y47D01*
X845Y47D02*
X848Y47D01*
X859Y47D02*
X862Y47D01*
X871Y47D02*
X876Y47D01*
X1028Y47D02*
X1035Y47D01*
X0Y46D02*
X7Y46D01*
X708Y46D02*
X711Y46D01*
X723Y46D02*
X727Y46D01*
X739Y46D02*
X758Y46D01*
X800Y46D02*
X818Y46D01*
X829Y46D02*
X848Y46D01*
X859Y46D02*
X862Y46D01*
X872Y46D02*
X877Y46D01*
X1028Y46D02*
X1035Y46D01*
X0Y45D02*
X7Y45D01*
X708Y45D02*
X711Y45D01*
X724Y45D02*
X728Y45D01*
X738Y45D02*
X758Y45D01*
X799Y45D02*
X818Y45D01*
X829Y45D02*
X848Y45D01*
X859Y45D02*
X862Y45D01*
X873Y45D02*
X878Y45D01*
X1028Y45D02*
X1035Y45D01*
X0Y44D02*
X7Y44D01*
X708Y44D02*
X711Y44D01*
X724Y44D02*
X728Y44D01*
X738Y44D02*
X758Y44D01*
X798Y44D02*
X818Y44D01*
X829Y44D02*
X847Y44D01*
X859Y44D02*
X862Y44D01*
X874Y44D02*
X878Y44D01*
X1028Y44D02*
X1035Y44D01*
X0Y43D02*
X7Y43D01*
X708Y43D02*
X711Y43D01*
X725Y43D02*
X727Y43D01*
X739Y43D02*
X757Y43D01*
X799Y43D02*
X818Y43D01*
X830Y43D02*
X846Y43D01*
X859Y43D02*
X861Y43D01*
X875Y43D02*
X878Y43D01*
X1028Y43D02*
X1035Y43D01*
X0Y42D02*
X7Y42D01*
X1028Y42D02*
X1035Y42D01*
X0Y41D02*
X7Y41D01*
X1028Y41D02*
X1035Y41D01*
X0Y40D02*
X7Y40D01*
X1028Y40D02*
X1035Y40D01*
X0Y39D02*
X7Y39D01*
X1028Y39D02*
X1035Y39D01*
X0Y38D02*
X7Y38D01*
X1028Y38D02*
X1035Y38D01*
X0Y37D02*
X7Y37D01*
X1028Y37D02*
X1035Y37D01*
X0Y36D02*
X7Y36D01*
X1028Y36D02*
X1035Y36D01*
X0Y35D02*
X7Y35D01*
X1028Y35D02*
X1035Y35D01*
X0Y34D02*
X7Y34D01*
X1028Y34D02*
X1035Y34D01*
X0Y33D02*
X7Y33D01*
X1028Y33D02*
X1035Y33D01*
X0Y32D02*
X7Y32D01*
X1028Y32D02*
X1035Y32D01*
X0Y31D02*
X7Y31D01*
X1028Y31D02*
X1035Y31D01*
X0Y30D02*
X7Y30D01*
X1028Y30D02*
X1035Y30D01*
X0Y29D02*
X7Y29D01*
X1028Y29D02*
X1035Y29D01*
X0Y28D02*
X7Y28D01*
X1028Y28D02*
X1035Y28D01*
X0Y27D02*
X7Y27D01*
X1028Y27D02*
X1035Y27D01*
X0Y26D02*
X7Y26D01*
X1028Y26D02*
X1035Y26D01*
X0Y25D02*
X7Y25D01*
X1028Y25D02*
X1035Y25D01*
X0Y24D02*
X7Y24D01*
X1028Y24D02*
X1035Y24D01*
X0Y23D02*
X7Y23D01*
X1028Y23D02*
X1035Y23D01*
X0Y22D02*
X7Y22D01*
X1028Y22D02*
X1035Y22D01*
X0Y21D02*
X7Y21D01*
X1028Y21D02*
X1035Y21D01*
X0Y20D02*
X7Y20D01*
X1028Y20D02*
X1035Y20D01*
X0Y19D02*
X7Y19D01*
X1028Y19D02*
X1035Y19D01*
X0Y18D02*
X7Y18D01*
X1028Y18D02*
X1035Y18D01*
X0Y17D02*
X7Y17D01*
X1028Y17D02*
X1035Y17D01*
X0Y16D02*
X7Y16D01*
X1028Y16D02*
X1035Y16D01*
X0Y15D02*
X7Y15D01*
X1028Y15D02*
X1035Y15D01*
X0Y14D02*
X7Y14D01*
X1028Y14D02*
X1035Y14D01*
X0Y13D02*
X7Y13D01*
X1028Y13D02*
X1035Y13D01*
X0Y12D02*
X7Y12D01*
X1028Y12D02*
X1035Y12D01*
X0Y11D02*
X7Y11D01*
X1028Y11D02*
X1035Y11D01*
X0Y10D02*
X7Y10D01*
X1028Y10D02*
X1035Y10D01*
X0Y9D02*
X1035Y9D01*
X0Y8D02*
X1035Y8D01*
X0Y7D02*
X1035Y7D01*
X0Y6D02*
X1035Y6D01*
X0Y5D02*
X1035Y5D01*
X0Y4D02*
X1035Y4D01*
X0Y3D02*
X1035Y3D01*
X0Y2D02*
X1035Y2D01*
D02*
G04 End of Silk1*
M02*