; NON-PLATED HOLES START AT T1
; THROUGH (PLATED) HOLES START AT T100
M48
INCH
T1C0.080000
T100C0.039370
T101C0.015748
T102C0.038000
T103C0.035000
%
T1
X007190Y013712
X008990Y013712
T100
X002589Y003206
X006336Y002451
X002589Y002206
X008336Y001451
X002589Y001206
X007589Y009956
X005589Y009956
X006589Y009956
X008336Y003451
T101
X003839Y009456
X002589Y005956
T102
X009839Y003956
X009839Y007956
X000839Y012706
X009839Y005956
X002839Y012706
X000839Y000956
X009839Y000956
X009839Y004956
X000839Y001956
X003839Y012706
X009839Y001956
X000839Y004956
X001839Y012706
X000839Y002956
X000839Y005956
X009839Y002956
X000839Y007956
X000839Y006956
X000839Y003956
X009839Y006956
T103
X003840Y005960
X006840Y006960
X003840Y007960
X006840Y007960
X003840Y004960
X006840Y005960
X006840Y004960
X003840Y006960
T00
M30
