G04 MADE WITH FRITZING*
G04 WWW.FRITZING.ORG*
G04 DOUBLE SIDED*
G04 HOLES PLATED*
G04 CONTOUR ON CENTER OF CONTOUR VECTOR*
%ASAXBY*%
%FSLAX23Y23*%
%MOIN*%
%OFA0B0*%
%SFA1.0B1.0*%
%ADD10C,0.074000*%
%ADD11C,0.039370*%
%ADD12C,0.075000*%
%ADD13C,0.078000*%
%ADD14R,0.062992X0.074803*%
%ADD15R,0.074803X0.062992*%
%ADD16R,0.110236X0.094488*%
%ADD17R,0.075000X0.075000*%
%ADD18C,0.024000*%
%ADD19R,0.001000X0.001000*%
%LNCOPPER1*%
G90*
G70*
G54D10*
X834Y145D03*
X834Y345D03*
X634Y245D03*
X834Y145D03*
X834Y345D03*
X634Y245D03*
G54D11*
X384Y946D03*
X259Y596D03*
G54D12*
X384Y796D03*
X684Y796D03*
X384Y696D03*
X684Y696D03*
X384Y596D03*
X684Y596D03*
X384Y496D03*
X684Y496D03*
G54D10*
X259Y321D03*
X259Y221D03*
X259Y121D03*
X259Y321D03*
X259Y221D03*
X259Y121D03*
G54D13*
X84Y1271D03*
X184Y1271D03*
X284Y1271D03*
X384Y1271D03*
X84Y96D03*
X84Y196D03*
X84Y296D03*
X84Y396D03*
X84Y496D03*
X84Y596D03*
X84Y696D03*
X84Y796D03*
X984Y796D03*
X984Y696D03*
X984Y596D03*
X984Y496D03*
X984Y396D03*
X984Y296D03*
X984Y196D03*
X984Y96D03*
G54D10*
X759Y996D03*
X659Y996D03*
X559Y996D03*
X759Y996D03*
X659Y996D03*
X559Y996D03*
G54D14*
X559Y71D03*
X437Y71D03*
G54D15*
X834Y571D03*
X834Y693D03*
X284Y949D03*
X284Y1071D03*
X259Y696D03*
X259Y818D03*
X184Y1071D03*
X184Y949D03*
X84Y1071D03*
X84Y949D03*
G54D16*
X899Y1147D03*
X899Y1596D03*
X659Y1147D03*
X659Y1596D03*
G54D17*
X384Y796D03*
G54D15*
X384Y1471D03*
X384Y1593D03*
X434Y221D03*
X434Y343D03*
G54D18*
X884Y695D02*
X933Y695D01*
D02*
X783Y695D02*
X735Y695D01*
D02*
X933Y695D02*
X954Y695D01*
D02*
X735Y695D02*
X713Y695D01*
D02*
X184Y1097D02*
X184Y1241D01*
D02*
X84Y1241D02*
X84Y1097D01*
D02*
X802Y694D02*
X783Y695D01*
D02*
X866Y694D02*
X884Y695D01*
D02*
X309Y796D02*
X291Y804D01*
D02*
X159Y721D02*
X159Y845D01*
D02*
X109Y870D02*
X84Y896D01*
D02*
X159Y845D02*
X134Y870D01*
D02*
X134Y870D02*
X109Y870D01*
D02*
X84Y896D02*
X84Y923D01*
D02*
X184Y696D02*
X159Y721D01*
D02*
X284Y695D02*
X259Y696D01*
D02*
X355Y696D02*
X284Y695D01*
D02*
X355Y796D02*
X309Y796D01*
D02*
X227Y696D02*
X184Y696D01*
D02*
X252Y949D02*
X216Y949D01*
D02*
X784Y570D02*
X759Y596D01*
D02*
X759Y596D02*
X713Y596D01*
D02*
X802Y570D02*
X784Y570D01*
D02*
X184Y221D02*
X234Y221D01*
D02*
X158Y196D02*
X184Y221D01*
D02*
X234Y221D02*
X228Y221D01*
D02*
X114Y196D02*
X158Y196D01*
D02*
X184Y121D02*
X234Y121D01*
D02*
X234Y121D02*
X228Y121D01*
D02*
X158Y95D02*
X184Y121D01*
D02*
X114Y95D02*
X158Y95D01*
D02*
X434Y345D02*
X434Y343D01*
D02*
X409Y320D02*
X434Y345D01*
D02*
X290Y320D02*
X409Y320D01*
D02*
X534Y771D02*
X509Y796D01*
D02*
X534Y521D02*
X534Y771D01*
D02*
X509Y796D02*
X413Y796D01*
D02*
X408Y221D02*
X434Y221D01*
D02*
X290Y221D02*
X408Y221D01*
D02*
X899Y1596D02*
X898Y1596D01*
D02*
X898Y1596D02*
X708Y1596D01*
D02*
X560Y495D02*
X534Y521D01*
D02*
X655Y496D02*
X560Y495D01*
D02*
X284Y1241D02*
X284Y1097D01*
D02*
X278Y596D02*
X355Y596D01*
D02*
X309Y945D02*
X284Y949D01*
D02*
X365Y946D02*
X309Y945D01*
D02*
X560Y120D02*
X559Y102D01*
D02*
X634Y196D02*
X584Y146D01*
D02*
X584Y146D02*
X560Y120D01*
D02*
X634Y214D02*
X634Y196D01*
D02*
X434Y71D02*
X434Y195D01*
D02*
X437Y71D02*
X434Y71D01*
D02*
X834Y376D02*
X834Y545D01*
D02*
X884Y1120D02*
X899Y1147D01*
D02*
X884Y1021D02*
X884Y1120D01*
D02*
X790Y996D02*
X859Y996D01*
D02*
X859Y996D02*
X884Y1021D01*
D02*
X284Y1301D02*
X284Y1570D01*
D02*
X308Y1595D02*
X609Y1596D01*
D02*
X284Y1570D02*
X308Y1595D01*
D02*
X384Y1595D02*
X609Y1595D01*
D02*
X384Y1593D02*
X384Y1595D01*
D02*
X384Y1301D02*
X384Y1445D01*
G54D19*
X722Y1033D02*
X795Y1033D01*
X722Y1032D02*
X795Y1032D01*
X722Y1031D02*
X795Y1031D01*
X722Y1030D02*
X795Y1030D01*
X722Y1029D02*
X795Y1029D01*
X722Y1028D02*
X795Y1028D01*
X722Y1027D02*
X795Y1027D01*
X722Y1026D02*
X795Y1026D01*
X722Y1025D02*
X795Y1025D01*
X722Y1024D02*
X795Y1024D01*
X722Y1023D02*
X795Y1023D01*
X722Y1022D02*
X795Y1022D01*
X722Y1021D02*
X795Y1021D01*
X722Y1020D02*
X795Y1020D01*
X722Y1019D02*
X795Y1019D01*
X722Y1018D02*
X795Y1018D01*
X722Y1017D02*
X795Y1017D01*
X722Y1016D02*
X756Y1016D01*
X761Y1016D02*
X795Y1016D01*
X722Y1015D02*
X751Y1015D01*
X765Y1015D02*
X795Y1015D01*
X722Y1014D02*
X749Y1014D01*
X768Y1014D02*
X795Y1014D01*
X722Y1013D02*
X747Y1013D01*
X769Y1013D02*
X795Y1013D01*
X722Y1012D02*
X746Y1012D01*
X771Y1012D02*
X795Y1012D01*
X722Y1011D02*
X745Y1011D01*
X772Y1011D02*
X795Y1011D01*
X722Y1010D02*
X744Y1010D01*
X773Y1010D02*
X795Y1010D01*
X722Y1009D02*
X743Y1009D01*
X774Y1009D02*
X795Y1009D01*
X722Y1008D02*
X742Y1008D01*
X775Y1008D02*
X795Y1008D01*
X722Y1007D02*
X741Y1007D01*
X775Y1007D02*
X795Y1007D01*
X722Y1006D02*
X741Y1006D01*
X776Y1006D02*
X795Y1006D01*
X722Y1005D02*
X740Y1005D01*
X776Y1005D02*
X795Y1005D01*
X722Y1004D02*
X740Y1004D01*
X777Y1004D02*
X795Y1004D01*
X722Y1003D02*
X739Y1003D01*
X777Y1003D02*
X795Y1003D01*
X722Y1002D02*
X739Y1002D01*
X778Y1002D02*
X795Y1002D01*
X722Y1001D02*
X739Y1001D01*
X778Y1001D02*
X795Y1001D01*
X722Y1000D02*
X738Y1000D01*
X778Y1000D02*
X795Y1000D01*
X722Y999D02*
X738Y999D01*
X778Y999D02*
X795Y999D01*
X722Y998D02*
X738Y998D01*
X778Y998D02*
X795Y998D01*
X722Y997D02*
X738Y997D01*
X778Y997D02*
X795Y997D01*
X722Y996D02*
X738Y996D01*
X778Y996D02*
X795Y996D01*
X722Y995D02*
X738Y995D01*
X778Y995D02*
X795Y995D01*
X722Y994D02*
X738Y994D01*
X778Y994D02*
X795Y994D01*
X722Y993D02*
X738Y993D01*
X778Y993D02*
X795Y993D01*
X722Y992D02*
X739Y992D01*
X778Y992D02*
X795Y992D01*
X722Y991D02*
X739Y991D01*
X778Y991D02*
X795Y991D01*
X722Y990D02*
X739Y990D01*
X777Y990D02*
X795Y990D01*
X722Y989D02*
X740Y989D01*
X777Y989D02*
X795Y989D01*
X722Y988D02*
X740Y988D01*
X776Y988D02*
X795Y988D01*
X722Y987D02*
X741Y987D01*
X776Y987D02*
X795Y987D01*
X722Y986D02*
X741Y986D01*
X775Y986D02*
X795Y986D01*
X722Y985D02*
X742Y985D01*
X775Y985D02*
X795Y985D01*
X722Y984D02*
X743Y984D01*
X774Y984D02*
X795Y984D01*
X722Y983D02*
X744Y983D01*
X773Y983D02*
X795Y983D01*
X722Y982D02*
X745Y982D01*
X772Y982D02*
X795Y982D01*
X722Y981D02*
X746Y981D01*
X771Y981D02*
X795Y981D01*
X722Y980D02*
X747Y980D01*
X769Y980D02*
X795Y980D01*
X722Y979D02*
X749Y979D01*
X768Y979D02*
X795Y979D01*
X722Y978D02*
X751Y978D01*
X765Y978D02*
X795Y978D01*
X722Y977D02*
X756Y977D01*
X760Y977D02*
X795Y977D01*
X722Y976D02*
X795Y976D01*
X722Y975D02*
X795Y975D01*
X722Y974D02*
X795Y974D01*
X722Y973D02*
X795Y973D01*
X722Y972D02*
X795Y972D01*
X722Y971D02*
X795Y971D01*
X722Y970D02*
X795Y970D01*
X722Y969D02*
X795Y969D01*
X722Y968D02*
X795Y968D01*
X722Y967D02*
X795Y967D01*
X722Y966D02*
X795Y966D01*
X722Y965D02*
X795Y965D01*
X722Y964D02*
X795Y964D01*
X722Y963D02*
X795Y963D01*
X722Y962D02*
X795Y962D01*
X722Y961D02*
X795Y961D01*
X722Y960D02*
X795Y960D01*
X222Y358D02*
X295Y358D01*
X222Y357D02*
X295Y357D01*
X222Y356D02*
X295Y356D01*
X222Y355D02*
X295Y355D01*
X222Y354D02*
X295Y354D01*
X222Y353D02*
X295Y353D01*
X222Y352D02*
X295Y352D01*
X222Y351D02*
X295Y351D01*
X222Y350D02*
X295Y350D01*
X222Y349D02*
X295Y349D01*
X222Y348D02*
X295Y348D01*
X222Y347D02*
X295Y347D01*
X222Y346D02*
X295Y346D01*
X222Y345D02*
X295Y345D01*
X222Y344D02*
X295Y344D01*
X222Y343D02*
X295Y343D01*
X222Y342D02*
X295Y342D01*
X222Y341D02*
X253Y341D01*
X263Y341D02*
X295Y341D01*
X222Y340D02*
X250Y340D01*
X267Y340D02*
X295Y340D01*
X222Y339D02*
X248Y339D01*
X269Y339D02*
X295Y339D01*
X222Y338D02*
X247Y338D01*
X270Y338D02*
X295Y338D01*
X222Y337D02*
X245Y337D01*
X271Y337D02*
X295Y337D01*
X222Y336D02*
X244Y336D01*
X273Y336D02*
X295Y336D01*
X222Y335D02*
X243Y335D01*
X273Y335D02*
X295Y335D01*
X222Y334D02*
X242Y334D01*
X274Y334D02*
X295Y334D01*
X222Y333D02*
X242Y333D01*
X275Y333D02*
X295Y333D01*
X222Y332D02*
X241Y332D01*
X276Y332D02*
X295Y332D01*
X222Y331D02*
X241Y331D01*
X276Y331D02*
X295Y331D01*
X222Y330D02*
X240Y330D01*
X277Y330D02*
X295Y330D01*
X222Y329D02*
X240Y329D01*
X277Y329D02*
X295Y329D01*
X222Y328D02*
X239Y328D01*
X278Y328D02*
X295Y328D01*
X222Y327D02*
X239Y327D01*
X278Y327D02*
X295Y327D01*
X222Y326D02*
X239Y326D01*
X278Y326D02*
X295Y326D01*
X222Y325D02*
X239Y325D01*
X278Y325D02*
X295Y325D01*
X222Y324D02*
X238Y324D01*
X278Y324D02*
X295Y324D01*
X222Y323D02*
X238Y323D01*
X278Y323D02*
X295Y323D01*
X222Y322D02*
X238Y322D01*
X279Y322D02*
X295Y322D01*
X222Y321D02*
X238Y321D01*
X278Y321D02*
X295Y321D01*
X222Y320D02*
X238Y320D01*
X278Y320D02*
X295Y320D01*
X222Y319D02*
X238Y319D01*
X278Y319D02*
X295Y319D01*
X222Y318D02*
X239Y318D01*
X278Y318D02*
X295Y318D01*
X222Y317D02*
X239Y317D01*
X278Y317D02*
X295Y317D01*
X222Y316D02*
X239Y316D01*
X278Y316D02*
X295Y316D01*
X222Y315D02*
X240Y315D01*
X277Y315D02*
X295Y315D01*
X222Y314D02*
X240Y314D01*
X277Y314D02*
X295Y314D01*
X222Y313D02*
X240Y313D01*
X276Y313D02*
X295Y313D01*
X222Y312D02*
X241Y312D01*
X276Y312D02*
X295Y312D01*
X222Y311D02*
X242Y311D01*
X275Y311D02*
X295Y311D01*
X222Y310D02*
X242Y310D01*
X274Y310D02*
X295Y310D01*
X222Y309D02*
X243Y309D01*
X274Y309D02*
X295Y309D01*
X222Y308D02*
X244Y308D01*
X273Y308D02*
X295Y308D01*
X222Y307D02*
X245Y307D01*
X272Y307D02*
X295Y307D01*
X222Y306D02*
X246Y306D01*
X270Y306D02*
X295Y306D01*
X222Y305D02*
X248Y305D01*
X269Y305D02*
X295Y305D01*
X222Y304D02*
X250Y304D01*
X267Y304D02*
X295Y304D01*
X222Y303D02*
X253Y303D01*
X264Y303D02*
X295Y303D01*
X222Y302D02*
X295Y302D01*
X222Y301D02*
X295Y301D01*
X222Y300D02*
X295Y300D01*
X222Y299D02*
X295Y299D01*
X222Y298D02*
X295Y298D01*
X222Y297D02*
X295Y297D01*
X222Y296D02*
X295Y296D01*
X222Y295D02*
X295Y295D01*
X222Y294D02*
X295Y294D01*
X222Y293D02*
X295Y293D01*
X222Y292D02*
X295Y292D01*
X222Y291D02*
X295Y291D01*
X222Y290D02*
X295Y290D01*
X222Y289D02*
X295Y289D01*
X222Y288D02*
X295Y288D01*
X222Y287D02*
X295Y287D01*
X222Y286D02*
X295Y286D01*
X222Y285D02*
X294Y285D01*
D02*
G04 End of Copper1*
M02*