; NON-PLATED HOLES START AT T1
; THROUGH (PLATED) HOLES START AT T100
M48
INCH
T100C0.118000
T101C0.015748
T102C0.039370
T103C0.038000
T104C0.040000
T105C0.035000
%
T100
X008643Y015120
X008643Y012757
X006792Y013939
T101
X003792Y009439
X002542Y005938
T102
X006292Y009939
X002542Y002189
X005292Y009939
X002542Y003189
X002542Y001189
X007292Y009939
T103
X009792Y002939
X009792Y006939
X000792Y007939
X009792Y001939
X009792Y003939
X003792Y012689
X000792Y005939
X009792Y004939
X000792Y004939
X000792Y002939
X009792Y007939
X002792Y012689
X000792Y000939
X009792Y005939
X009792Y000939
X000792Y001939
X001792Y012689
X000792Y012689
X000792Y003939
X000792Y006939
T104
X006042Y002689
X007042Y002689
X008042Y002689
T105
X003794Y006943
X003794Y004943
X006794Y004943
X006794Y005943
X006794Y006943
X006794Y007943
X003794Y005943
X003794Y007943
T00
M30
