G04 MADE WITH FRITZING*
G04 WWW.FRITZING.ORG*
G04 DOUBLE SIDED*
G04 HOLES PLATED*
G04 CONTOUR ON CENTER OF CONTOUR VECTOR*
%ASAXBY*%
%FSLAX23Y23*%
%MOIN*%
%OFA0B0*%
%SFA1.0B1.0*%
%ADD10C,0.074000*%
%ADD11C,0.078740*%
%ADD12C,0.039370*%
%ADD13C,0.075000*%
%ADD14C,0.078000*%
%ADD15R,0.062992X0.074803*%
%ADD16R,0.074803X0.062992*%
%ADD17R,0.075000X0.075000*%
%ADD18C,0.024000*%
%ADD19R,0.001000X0.001000*%
%LNCOPPER1*%
G90*
G70*
G54D10*
X604Y269D03*
X704Y269D03*
X804Y269D03*
X604Y269D03*
X704Y269D03*
X804Y269D03*
G54D11*
X954Y1219D03*
X954Y1467D03*
X757Y1337D03*
X954Y1219D03*
X954Y1467D03*
X757Y1337D03*
G54D12*
X379Y944D03*
X254Y594D03*
G54D13*
X379Y794D03*
X679Y794D03*
X379Y694D03*
X679Y694D03*
X379Y594D03*
X679Y594D03*
X379Y494D03*
X679Y494D03*
G54D10*
X729Y994D03*
X629Y994D03*
X529Y994D03*
X729Y994D03*
X629Y994D03*
X529Y994D03*
X254Y319D03*
X254Y219D03*
X254Y119D03*
X254Y319D03*
X254Y219D03*
X254Y119D03*
G54D14*
X79Y1269D03*
X179Y1269D03*
X279Y1269D03*
X379Y1269D03*
X79Y94D03*
X79Y194D03*
X79Y294D03*
X79Y394D03*
X79Y494D03*
X79Y594D03*
X79Y694D03*
X79Y794D03*
X979Y794D03*
X979Y694D03*
X979Y594D03*
X979Y494D03*
X979Y394D03*
X979Y294D03*
X979Y194D03*
X979Y94D03*
G54D15*
X554Y69D03*
X432Y69D03*
G54D16*
X829Y569D03*
X829Y691D03*
X279Y947D03*
X279Y1069D03*
X254Y694D03*
X254Y816D03*
X179Y1069D03*
X179Y947D03*
X79Y1069D03*
X79Y947D03*
G54D17*
X379Y794D03*
G54D16*
X529Y1269D03*
X529Y1147D03*
X429Y219D03*
X429Y341D03*
G54D18*
X409Y1269D02*
X497Y1269D01*
D02*
X880Y1469D02*
X923Y1468D01*
D02*
X779Y1368D02*
X880Y1469D01*
D02*
X775Y1362D02*
X779Y1368D01*
D02*
X555Y145D02*
X605Y194D01*
D02*
X829Y345D02*
X805Y318D01*
D02*
X829Y518D02*
X829Y345D01*
D02*
X805Y318D02*
X805Y300D01*
D02*
X605Y194D02*
X604Y238D01*
D02*
X555Y118D02*
X555Y145D01*
D02*
X555Y101D02*
X555Y118D01*
D02*
X635Y269D02*
X673Y269D01*
D02*
X829Y543D02*
X829Y518D01*
D02*
X629Y1194D02*
X737Y1314D01*
D02*
X629Y1143D02*
X629Y1194D01*
D02*
X629Y1143D02*
X561Y1146D01*
D02*
X629Y1025D02*
X629Y1143D01*
D02*
X561Y1146D02*
X629Y1143D01*
D02*
X880Y693D02*
X928Y693D01*
D02*
X779Y693D02*
X730Y693D01*
D02*
X929Y693D02*
X949Y693D01*
D02*
X730Y693D02*
X708Y694D01*
D02*
X179Y1095D02*
X179Y1239D01*
D02*
X79Y1239D02*
X79Y1095D01*
D02*
X797Y692D02*
X779Y693D01*
D02*
X861Y692D02*
X880Y693D01*
D02*
X305Y794D02*
X286Y802D01*
D02*
X154Y719D02*
X154Y844D01*
D02*
X104Y869D02*
X79Y894D01*
D02*
X154Y844D02*
X130Y869D01*
D02*
X130Y869D02*
X104Y869D01*
D02*
X79Y894D02*
X79Y921D01*
D02*
X179Y694D02*
X154Y719D01*
D02*
X279Y693D02*
X254Y694D01*
D02*
X351Y694D02*
X279Y693D01*
D02*
X351Y794D02*
X305Y794D01*
D02*
X222Y694D02*
X179Y694D01*
D02*
X247Y947D02*
X211Y947D01*
D02*
X780Y568D02*
X754Y594D01*
D02*
X754Y594D02*
X708Y594D01*
D02*
X797Y569D02*
X780Y568D01*
D02*
X179Y219D02*
X230Y219D01*
D02*
X154Y194D02*
X179Y219D01*
D02*
X230Y219D02*
X223Y220D01*
D02*
X109Y194D02*
X154Y194D01*
D02*
X179Y119D02*
X230Y119D01*
D02*
X230Y119D02*
X223Y120D01*
D02*
X154Y94D02*
X179Y119D01*
D02*
X109Y94D02*
X154Y94D01*
D02*
X429Y344D02*
X429Y341D01*
D02*
X404Y318D02*
X429Y344D01*
D02*
X285Y319D02*
X404Y318D01*
D02*
X529Y769D02*
X504Y794D01*
D02*
X529Y519D02*
X529Y769D01*
D02*
X504Y794D02*
X408Y794D01*
D02*
X404Y219D02*
X429Y219D01*
D02*
X285Y219D02*
X404Y219D01*
D02*
X555Y494D02*
X529Y519D01*
D02*
X651Y494D02*
X555Y494D01*
D02*
X279Y1239D02*
X279Y1095D01*
D02*
X273Y594D02*
X351Y594D01*
D02*
X304Y944D02*
X279Y947D01*
D02*
X360Y944D02*
X304Y944D01*
D02*
X429Y69D02*
X429Y193D01*
D02*
X432Y69D02*
X429Y69D01*
D02*
X880Y1219D02*
X779Y1219D01*
D02*
X729Y1169D02*
X729Y1044D01*
D02*
X923Y1219D02*
X880Y1219D01*
D02*
X779Y1219D02*
X729Y1169D01*
D02*
X729Y1044D02*
X729Y1025D01*
G54D19*
X908Y1506D02*
X998Y1506D01*
X904Y1505D02*
X1003Y1505D01*
X901Y1504D02*
X1006Y1504D01*
X898Y1503D02*
X1008Y1503D01*
X896Y1502D02*
X1010Y1502D01*
X894Y1501D02*
X1012Y1501D01*
X893Y1500D02*
X1014Y1500D01*
X891Y1499D02*
X1015Y1499D01*
X890Y1498D02*
X1016Y1498D01*
X889Y1497D02*
X1018Y1497D01*
X888Y1496D02*
X1019Y1496D01*
X887Y1495D02*
X1020Y1495D01*
X886Y1494D02*
X1021Y1494D01*
X885Y1493D02*
X1022Y1493D01*
X884Y1492D02*
X1023Y1492D01*
X883Y1491D02*
X1023Y1491D01*
X882Y1490D02*
X1024Y1490D01*
X882Y1489D02*
X1025Y1489D01*
X881Y1488D02*
X1025Y1488D01*
X880Y1487D02*
X1026Y1487D01*
X880Y1486D02*
X947Y1486D01*
X959Y1486D02*
X1027Y1486D01*
X879Y1485D02*
X944Y1485D01*
X962Y1485D02*
X1027Y1485D01*
X879Y1484D02*
X943Y1484D01*
X964Y1484D02*
X1028Y1484D01*
X878Y1483D02*
X941Y1483D01*
X965Y1483D02*
X1028Y1483D01*
X878Y1482D02*
X940Y1482D01*
X966Y1482D02*
X1028Y1482D01*
X878Y1481D02*
X939Y1481D01*
X968Y1481D02*
X1029Y1481D01*
X877Y1480D02*
X938Y1480D01*
X968Y1480D02*
X1029Y1480D01*
X877Y1479D02*
X937Y1479D01*
X969Y1479D02*
X1030Y1479D01*
X877Y1478D02*
X936Y1478D01*
X970Y1478D02*
X1030Y1478D01*
X876Y1477D02*
X936Y1477D01*
X971Y1477D02*
X1030Y1477D01*
X876Y1476D02*
X935Y1476D01*
X971Y1476D02*
X1030Y1476D01*
X876Y1475D02*
X935Y1475D01*
X972Y1475D02*
X1031Y1475D01*
X876Y1474D02*
X934Y1474D01*
X972Y1474D02*
X1031Y1474D01*
X875Y1473D02*
X934Y1473D01*
X972Y1473D02*
X1031Y1473D01*
X875Y1472D02*
X934Y1472D01*
X973Y1472D02*
X1031Y1472D01*
X875Y1471D02*
X933Y1471D01*
X973Y1471D02*
X1031Y1471D01*
X875Y1470D02*
X933Y1470D01*
X973Y1470D02*
X1031Y1470D01*
X875Y1469D02*
X933Y1469D01*
X973Y1469D02*
X1031Y1469D01*
X875Y1468D02*
X933Y1468D01*
X973Y1468D02*
X1031Y1468D01*
X875Y1467D02*
X933Y1467D01*
X973Y1467D02*
X1031Y1467D01*
X875Y1466D02*
X933Y1466D01*
X973Y1466D02*
X1031Y1466D01*
X875Y1465D02*
X933Y1465D01*
X973Y1465D02*
X1031Y1465D01*
X875Y1464D02*
X933Y1464D01*
X973Y1464D02*
X1031Y1464D01*
X875Y1463D02*
X933Y1463D01*
X973Y1463D02*
X1031Y1463D01*
X875Y1462D02*
X934Y1462D01*
X973Y1462D02*
X1031Y1462D01*
X875Y1461D02*
X934Y1461D01*
X972Y1461D02*
X1031Y1461D01*
X876Y1460D02*
X934Y1460D01*
X972Y1460D02*
X1031Y1460D01*
X876Y1459D02*
X935Y1459D01*
X972Y1459D02*
X1030Y1459D01*
X876Y1458D02*
X935Y1458D01*
X971Y1458D02*
X1030Y1458D01*
X876Y1457D02*
X936Y1457D01*
X970Y1457D02*
X1030Y1457D01*
X877Y1456D02*
X936Y1456D01*
X970Y1456D02*
X1030Y1456D01*
X877Y1455D02*
X937Y1455D01*
X969Y1455D02*
X1029Y1455D01*
X877Y1454D02*
X938Y1454D01*
X968Y1454D02*
X1029Y1454D01*
X878Y1453D02*
X939Y1453D01*
X967Y1453D02*
X1029Y1453D01*
X878Y1452D02*
X940Y1452D01*
X966Y1452D02*
X1028Y1452D01*
X878Y1451D02*
X941Y1451D01*
X965Y1451D02*
X1028Y1451D01*
X879Y1450D02*
X943Y1450D01*
X963Y1450D02*
X1027Y1450D01*
X879Y1449D02*
X945Y1449D01*
X961Y1449D02*
X1027Y1449D01*
X880Y1448D02*
X948Y1448D01*
X958Y1448D02*
X1026Y1448D01*
X881Y1447D02*
X1026Y1447D01*
X881Y1446D02*
X1025Y1446D01*
X882Y1445D02*
X1025Y1445D01*
X883Y1444D02*
X1024Y1444D01*
X883Y1443D02*
X1023Y1443D01*
X884Y1442D02*
X1022Y1442D01*
X885Y1441D02*
X1021Y1441D01*
X886Y1440D02*
X1020Y1440D01*
X887Y1439D02*
X1019Y1439D01*
X888Y1438D02*
X1018Y1438D01*
X889Y1437D02*
X1017Y1437D01*
X890Y1436D02*
X1016Y1436D01*
X892Y1435D02*
X1015Y1435D01*
X893Y1434D02*
X1013Y1434D01*
X895Y1433D02*
X1011Y1433D01*
X897Y1432D02*
X1010Y1432D01*
X899Y1431D02*
X1008Y1431D01*
X901Y1430D02*
X1005Y1430D01*
X905Y1429D02*
X1001Y1429D01*
X910Y1428D02*
X996Y1428D01*
X748Y1415D02*
X765Y1415D01*
X745Y1414D02*
X768Y1414D01*
X742Y1413D02*
X771Y1413D01*
X740Y1412D02*
X773Y1412D01*
X738Y1411D02*
X775Y1411D01*
X736Y1410D02*
X777Y1410D01*
X735Y1409D02*
X778Y1409D01*
X733Y1408D02*
X780Y1408D01*
X732Y1407D02*
X781Y1407D01*
X731Y1406D02*
X782Y1406D01*
X730Y1405D02*
X783Y1405D01*
X729Y1404D02*
X784Y1404D01*
X728Y1403D02*
X785Y1403D01*
X727Y1402D02*
X786Y1402D01*
X726Y1401D02*
X787Y1401D01*
X725Y1400D02*
X788Y1400D01*
X725Y1399D02*
X788Y1399D01*
X724Y1398D02*
X789Y1398D01*
X723Y1397D02*
X790Y1397D01*
X723Y1396D02*
X790Y1396D01*
X722Y1395D02*
X791Y1395D01*
X722Y1394D02*
X791Y1394D01*
X721Y1393D02*
X792Y1393D01*
X721Y1392D02*
X792Y1392D01*
X720Y1391D02*
X793Y1391D01*
X720Y1390D02*
X793Y1390D01*
X720Y1389D02*
X793Y1389D01*
X719Y1388D02*
X794Y1388D01*
X719Y1387D02*
X794Y1387D01*
X719Y1386D02*
X794Y1386D01*
X718Y1385D02*
X794Y1385D01*
X718Y1384D02*
X795Y1384D01*
X718Y1383D02*
X795Y1383D01*
X718Y1382D02*
X795Y1382D01*
X718Y1381D02*
X795Y1381D01*
X718Y1380D02*
X795Y1380D01*
X718Y1379D02*
X795Y1379D01*
X718Y1378D02*
X795Y1378D01*
X718Y1377D02*
X795Y1377D01*
X718Y1376D02*
X795Y1376D01*
X718Y1375D02*
X795Y1375D01*
X718Y1374D02*
X795Y1374D01*
X718Y1373D02*
X795Y1373D01*
X718Y1372D02*
X795Y1372D01*
X718Y1371D02*
X795Y1371D01*
X718Y1370D02*
X795Y1370D01*
X718Y1369D02*
X795Y1369D01*
X718Y1368D02*
X795Y1368D01*
X718Y1367D02*
X795Y1367D01*
X718Y1366D02*
X795Y1366D01*
X718Y1365D02*
X795Y1365D01*
X718Y1364D02*
X795Y1364D01*
X718Y1363D02*
X795Y1363D01*
X718Y1362D02*
X795Y1362D01*
X718Y1361D02*
X795Y1361D01*
X718Y1360D02*
X795Y1360D01*
X718Y1359D02*
X795Y1359D01*
X718Y1358D02*
X795Y1358D01*
X718Y1357D02*
X795Y1357D01*
X718Y1356D02*
X750Y1356D01*
X763Y1356D02*
X795Y1356D01*
X718Y1355D02*
X748Y1355D01*
X765Y1355D02*
X795Y1355D01*
X718Y1354D02*
X746Y1354D01*
X767Y1354D02*
X795Y1354D01*
X718Y1353D02*
X744Y1353D01*
X769Y1353D02*
X795Y1353D01*
X718Y1352D02*
X743Y1352D01*
X770Y1352D02*
X795Y1352D01*
X718Y1351D02*
X742Y1351D01*
X771Y1351D02*
X795Y1351D01*
X718Y1350D02*
X741Y1350D01*
X772Y1350D02*
X795Y1350D01*
X718Y1349D02*
X740Y1349D01*
X773Y1349D02*
X795Y1349D01*
X718Y1348D02*
X739Y1348D01*
X773Y1348D02*
X795Y1348D01*
X718Y1347D02*
X739Y1347D01*
X774Y1347D02*
X795Y1347D01*
X718Y1346D02*
X738Y1346D01*
X774Y1346D02*
X795Y1346D01*
X718Y1345D02*
X738Y1345D01*
X775Y1345D02*
X795Y1345D01*
X718Y1344D02*
X738Y1344D01*
X775Y1344D02*
X795Y1344D01*
X718Y1343D02*
X737Y1343D01*
X776Y1343D02*
X795Y1343D01*
X718Y1342D02*
X737Y1342D01*
X776Y1342D02*
X795Y1342D01*
X718Y1341D02*
X737Y1341D01*
X776Y1341D02*
X795Y1341D01*
X718Y1340D02*
X737Y1340D01*
X776Y1340D02*
X795Y1340D01*
X718Y1339D02*
X736Y1339D01*
X776Y1339D02*
X795Y1339D01*
X718Y1338D02*
X736Y1338D01*
X777Y1338D02*
X795Y1338D01*
X718Y1337D02*
X736Y1337D01*
X777Y1337D02*
X795Y1337D01*
X718Y1336D02*
X736Y1336D01*
X776Y1336D02*
X795Y1336D01*
X718Y1335D02*
X736Y1335D01*
X776Y1335D02*
X795Y1335D01*
X718Y1334D02*
X737Y1334D01*
X776Y1334D02*
X795Y1334D01*
X718Y1333D02*
X737Y1333D01*
X776Y1333D02*
X795Y1333D01*
X718Y1332D02*
X737Y1332D01*
X776Y1332D02*
X795Y1332D01*
X718Y1331D02*
X737Y1331D01*
X775Y1331D02*
X795Y1331D01*
X718Y1330D02*
X738Y1330D01*
X775Y1330D02*
X795Y1330D01*
X718Y1329D02*
X738Y1329D01*
X775Y1329D02*
X795Y1329D01*
X718Y1328D02*
X739Y1328D01*
X774Y1328D02*
X795Y1328D01*
X718Y1327D02*
X739Y1327D01*
X774Y1327D02*
X795Y1327D01*
X718Y1326D02*
X740Y1326D01*
X773Y1326D02*
X795Y1326D01*
X718Y1325D02*
X741Y1325D01*
X772Y1325D02*
X795Y1325D01*
X718Y1324D02*
X741Y1324D01*
X771Y1324D02*
X795Y1324D01*
X718Y1323D02*
X742Y1323D01*
X770Y1323D02*
X795Y1323D01*
X718Y1322D02*
X744Y1322D01*
X769Y1322D02*
X795Y1322D01*
X718Y1321D02*
X745Y1321D01*
X768Y1321D02*
X795Y1321D01*
X718Y1320D02*
X747Y1320D01*
X766Y1320D02*
X795Y1320D01*
X718Y1319D02*
X749Y1319D01*
X764Y1319D02*
X795Y1319D01*
X718Y1318D02*
X752Y1318D01*
X761Y1318D02*
X795Y1318D01*
X718Y1317D02*
X795Y1317D01*
X718Y1316D02*
X795Y1316D01*
X718Y1315D02*
X795Y1315D01*
X718Y1314D02*
X795Y1314D01*
X718Y1313D02*
X795Y1313D01*
X718Y1312D02*
X795Y1312D01*
X718Y1311D02*
X795Y1311D01*
X718Y1310D02*
X795Y1310D01*
X718Y1309D02*
X795Y1309D01*
X718Y1308D02*
X795Y1308D01*
X718Y1307D02*
X795Y1307D01*
X718Y1306D02*
X795Y1306D01*
X718Y1305D02*
X795Y1305D01*
X718Y1304D02*
X795Y1304D01*
X718Y1303D02*
X795Y1303D01*
X718Y1302D02*
X795Y1302D01*
X718Y1301D02*
X795Y1301D01*
X718Y1300D02*
X795Y1300D01*
X718Y1299D02*
X795Y1299D01*
X718Y1298D02*
X795Y1298D01*
X718Y1297D02*
X795Y1297D01*
X718Y1296D02*
X795Y1296D01*
X718Y1295D02*
X795Y1295D01*
X718Y1294D02*
X795Y1294D01*
X718Y1293D02*
X795Y1293D01*
X718Y1292D02*
X795Y1292D01*
X718Y1291D02*
X795Y1291D01*
X718Y1290D02*
X794Y1290D01*
X719Y1289D02*
X794Y1289D01*
X719Y1288D02*
X794Y1288D01*
X719Y1287D02*
X794Y1287D01*
X719Y1286D02*
X793Y1286D01*
X720Y1285D02*
X793Y1285D01*
X720Y1284D02*
X793Y1284D01*
X721Y1283D02*
X792Y1283D01*
X721Y1282D02*
X792Y1282D01*
X721Y1281D02*
X791Y1281D01*
X722Y1280D02*
X791Y1280D01*
X722Y1279D02*
X790Y1279D01*
X723Y1278D02*
X790Y1278D01*
X724Y1277D02*
X789Y1277D01*
X724Y1276D02*
X789Y1276D01*
X725Y1275D02*
X788Y1275D01*
X726Y1274D02*
X787Y1274D01*
X726Y1273D02*
X786Y1273D01*
X727Y1272D02*
X786Y1272D01*
X728Y1271D02*
X785Y1271D01*
X729Y1270D02*
X784Y1270D01*
X730Y1269D02*
X783Y1269D01*
X731Y1268D02*
X781Y1268D01*
X733Y1267D02*
X780Y1267D01*
X734Y1266D02*
X779Y1266D01*
X735Y1265D02*
X778Y1265D01*
X737Y1264D02*
X776Y1264D01*
X739Y1263D02*
X774Y1263D01*
X741Y1262D02*
X772Y1262D01*
X743Y1261D02*
X770Y1261D01*
X746Y1260D02*
X766Y1260D01*
X751Y1259D02*
X762Y1259D01*
X908Y1258D02*
X998Y1258D01*
X904Y1257D02*
X1003Y1257D01*
X900Y1256D02*
X1006Y1256D01*
X898Y1255D02*
X1008Y1255D01*
X896Y1254D02*
X1010Y1254D01*
X894Y1253D02*
X1012Y1253D01*
X893Y1252D02*
X1014Y1252D01*
X891Y1251D02*
X1015Y1251D01*
X890Y1250D02*
X1016Y1250D01*
X889Y1249D02*
X1018Y1249D01*
X888Y1248D02*
X1019Y1248D01*
X887Y1247D02*
X1020Y1247D01*
X886Y1246D02*
X1021Y1246D01*
X885Y1245D02*
X1022Y1245D01*
X884Y1244D02*
X1023Y1244D01*
X883Y1243D02*
X1023Y1243D01*
X882Y1242D02*
X1024Y1242D01*
X882Y1241D02*
X1025Y1241D01*
X881Y1240D02*
X1025Y1240D01*
X880Y1239D02*
X1026Y1239D01*
X880Y1238D02*
X947Y1238D01*
X959Y1238D02*
X1027Y1238D01*
X879Y1237D02*
X944Y1237D01*
X962Y1237D02*
X1027Y1237D01*
X879Y1236D02*
X943Y1236D01*
X964Y1236D02*
X1028Y1236D01*
X878Y1235D02*
X941Y1235D01*
X965Y1235D02*
X1028Y1235D01*
X878Y1234D02*
X940Y1234D01*
X966Y1234D02*
X1028Y1234D01*
X878Y1233D02*
X939Y1233D01*
X968Y1233D02*
X1029Y1233D01*
X877Y1232D02*
X938Y1232D01*
X968Y1232D02*
X1029Y1232D01*
X877Y1231D02*
X937Y1231D01*
X969Y1231D02*
X1030Y1231D01*
X877Y1230D02*
X936Y1230D01*
X970Y1230D02*
X1030Y1230D01*
X876Y1229D02*
X936Y1229D01*
X971Y1229D02*
X1030Y1229D01*
X876Y1228D02*
X935Y1228D01*
X971Y1228D02*
X1030Y1228D01*
X876Y1227D02*
X935Y1227D01*
X972Y1227D02*
X1031Y1227D01*
X876Y1226D02*
X934Y1226D01*
X972Y1226D02*
X1031Y1226D01*
X875Y1225D02*
X934Y1225D01*
X972Y1225D02*
X1031Y1225D01*
X875Y1224D02*
X934Y1224D01*
X973Y1224D02*
X1031Y1224D01*
X875Y1223D02*
X933Y1223D01*
X973Y1223D02*
X1031Y1223D01*
X875Y1222D02*
X933Y1222D01*
X973Y1222D02*
X1031Y1222D01*
X875Y1221D02*
X933Y1221D01*
X973Y1221D02*
X1031Y1221D01*
X875Y1220D02*
X933Y1220D01*
X973Y1220D02*
X1031Y1220D01*
X875Y1219D02*
X933Y1219D01*
X973Y1219D02*
X1031Y1219D01*
X875Y1218D02*
X933Y1218D01*
X973Y1218D02*
X1031Y1218D01*
X875Y1217D02*
X933Y1217D01*
X973Y1217D02*
X1031Y1217D01*
X875Y1216D02*
X933Y1216D01*
X973Y1216D02*
X1031Y1216D01*
X875Y1215D02*
X933Y1215D01*
X973Y1215D02*
X1031Y1215D01*
X875Y1214D02*
X934Y1214D01*
X973Y1214D02*
X1031Y1214D01*
X875Y1213D02*
X934Y1213D01*
X972Y1213D02*
X1031Y1213D01*
X876Y1212D02*
X934Y1212D01*
X972Y1212D02*
X1031Y1212D01*
X876Y1211D02*
X935Y1211D01*
X971Y1211D02*
X1030Y1211D01*
X876Y1210D02*
X935Y1210D01*
X971Y1210D02*
X1030Y1210D01*
X876Y1209D02*
X936Y1209D01*
X970Y1209D02*
X1030Y1209D01*
X877Y1208D02*
X937Y1208D01*
X970Y1208D02*
X1030Y1208D01*
X877Y1207D02*
X937Y1207D01*
X969Y1207D02*
X1029Y1207D01*
X877Y1206D02*
X938Y1206D01*
X968Y1206D02*
X1029Y1206D01*
X878Y1205D02*
X939Y1205D01*
X967Y1205D02*
X1029Y1205D01*
X878Y1204D02*
X940Y1204D01*
X966Y1204D02*
X1028Y1204D01*
X878Y1203D02*
X942Y1203D01*
X965Y1203D02*
X1028Y1203D01*
X879Y1202D02*
X943Y1202D01*
X963Y1202D02*
X1027Y1202D01*
X879Y1201D02*
X945Y1201D01*
X961Y1201D02*
X1027Y1201D01*
X880Y1200D02*
X948Y1200D01*
X958Y1200D02*
X1026Y1200D01*
X881Y1199D02*
X1026Y1199D01*
X881Y1198D02*
X1025Y1198D01*
X882Y1197D02*
X1024Y1197D01*
X883Y1196D02*
X1024Y1196D01*
X883Y1195D02*
X1023Y1195D01*
X884Y1194D02*
X1022Y1194D01*
X885Y1193D02*
X1021Y1193D01*
X886Y1192D02*
X1020Y1192D01*
X887Y1191D02*
X1019Y1191D01*
X888Y1190D02*
X1018Y1190D01*
X889Y1189D02*
X1017Y1189D01*
X890Y1188D02*
X1016Y1188D01*
X892Y1187D02*
X1015Y1187D01*
X893Y1186D02*
X1013Y1186D01*
X895Y1185D02*
X1011Y1185D01*
X897Y1184D02*
X1010Y1184D01*
X899Y1183D02*
X1008Y1183D01*
X901Y1182D02*
X1005Y1182D01*
X905Y1181D02*
X1001Y1181D01*
X911Y1180D02*
X996Y1180D01*
X692Y1031D02*
X765Y1031D01*
X692Y1030D02*
X765Y1030D01*
X692Y1029D02*
X765Y1029D01*
X692Y1028D02*
X765Y1028D01*
X692Y1027D02*
X765Y1027D01*
X692Y1026D02*
X765Y1026D01*
X692Y1025D02*
X765Y1025D01*
X692Y1024D02*
X765Y1024D01*
X692Y1023D02*
X765Y1023D01*
X692Y1022D02*
X765Y1022D01*
X692Y1021D02*
X765Y1021D01*
X692Y1020D02*
X765Y1020D01*
X692Y1019D02*
X765Y1019D01*
X692Y1018D02*
X765Y1018D01*
X692Y1017D02*
X765Y1017D01*
X692Y1016D02*
X765Y1016D01*
X692Y1015D02*
X765Y1015D01*
X692Y1014D02*
X765Y1014D01*
X692Y1013D02*
X722Y1013D01*
X734Y1013D02*
X765Y1013D01*
X692Y1012D02*
X719Y1012D01*
X737Y1012D02*
X765Y1012D01*
X692Y1011D02*
X718Y1011D01*
X739Y1011D02*
X765Y1011D01*
X692Y1010D02*
X716Y1010D01*
X740Y1010D02*
X765Y1010D01*
X692Y1009D02*
X715Y1009D01*
X742Y1009D02*
X765Y1009D01*
X692Y1008D02*
X714Y1008D01*
X743Y1008D02*
X765Y1008D01*
X692Y1007D02*
X713Y1007D01*
X744Y1007D02*
X765Y1007D01*
X692Y1006D02*
X712Y1006D01*
X744Y1006D02*
X765Y1006D01*
X692Y1005D02*
X711Y1005D01*
X745Y1005D02*
X765Y1005D01*
X692Y1004D02*
X711Y1004D01*
X746Y1004D02*
X765Y1004D01*
X692Y1003D02*
X710Y1003D01*
X746Y1003D02*
X765Y1003D01*
X692Y1002D02*
X710Y1002D01*
X747Y1002D02*
X765Y1002D01*
X692Y1001D02*
X709Y1001D01*
X747Y1001D02*
X765Y1001D01*
X692Y1000D02*
X709Y1000D01*
X748Y1000D02*
X765Y1000D01*
X692Y999D02*
X709Y999D01*
X748Y999D02*
X765Y999D01*
X692Y998D02*
X709Y998D01*
X748Y998D02*
X765Y998D01*
X692Y997D02*
X708Y997D01*
X748Y997D02*
X765Y997D01*
X692Y996D02*
X708Y996D01*
X748Y996D02*
X765Y996D01*
X692Y995D02*
X708Y995D01*
X748Y995D02*
X765Y995D01*
X692Y994D02*
X708Y994D01*
X748Y994D02*
X765Y994D01*
X692Y993D02*
X708Y993D01*
X748Y993D02*
X765Y993D01*
X692Y992D02*
X708Y992D01*
X748Y992D02*
X765Y992D01*
X692Y991D02*
X708Y991D01*
X748Y991D02*
X765Y991D01*
X692Y990D02*
X709Y990D01*
X748Y990D02*
X765Y990D01*
X692Y989D02*
X709Y989D01*
X748Y989D02*
X765Y989D01*
X692Y988D02*
X709Y988D01*
X747Y988D02*
X765Y988D01*
X692Y987D02*
X710Y987D01*
X747Y987D02*
X765Y987D01*
X692Y986D02*
X710Y986D01*
X747Y986D02*
X765Y986D01*
X692Y985D02*
X711Y985D01*
X746Y985D02*
X765Y985D01*
X692Y984D02*
X711Y984D01*
X746Y984D02*
X765Y984D01*
X692Y983D02*
X712Y983D01*
X745Y983D02*
X765Y983D01*
X692Y982D02*
X712Y982D01*
X744Y982D02*
X765Y982D01*
X692Y981D02*
X713Y981D01*
X743Y981D02*
X765Y981D01*
X692Y980D02*
X714Y980D01*
X742Y980D02*
X765Y980D01*
X692Y979D02*
X715Y979D01*
X741Y979D02*
X765Y979D01*
X692Y978D02*
X717Y978D01*
X740Y978D02*
X765Y978D01*
X692Y977D02*
X718Y977D01*
X738Y977D02*
X765Y977D01*
X692Y976D02*
X720Y976D01*
X736Y976D02*
X765Y976D01*
X692Y975D02*
X724Y975D01*
X733Y975D02*
X765Y975D01*
X692Y974D02*
X765Y974D01*
X692Y973D02*
X765Y973D01*
X692Y972D02*
X765Y972D01*
X692Y971D02*
X765Y971D01*
X692Y970D02*
X765Y970D01*
X692Y969D02*
X765Y969D01*
X692Y968D02*
X765Y968D01*
X692Y967D02*
X765Y967D01*
X692Y966D02*
X765Y966D01*
X692Y965D02*
X765Y965D01*
X692Y964D02*
X765Y964D01*
X692Y963D02*
X765Y963D01*
X692Y962D02*
X765Y962D01*
X692Y961D02*
X765Y961D01*
X692Y960D02*
X765Y960D01*
X692Y959D02*
X765Y959D01*
X692Y958D02*
X765Y958D01*
X217Y356D02*
X290Y356D01*
X217Y355D02*
X290Y355D01*
X217Y354D02*
X290Y354D01*
X217Y353D02*
X290Y353D01*
X217Y352D02*
X290Y352D01*
X217Y351D02*
X290Y351D01*
X217Y350D02*
X290Y350D01*
X217Y349D02*
X290Y349D01*
X217Y348D02*
X290Y348D01*
X217Y347D02*
X290Y347D01*
X217Y346D02*
X290Y346D01*
X217Y345D02*
X290Y345D01*
X217Y344D02*
X290Y344D01*
X217Y343D02*
X290Y343D01*
X217Y342D02*
X290Y342D01*
X217Y341D02*
X290Y341D01*
X217Y340D02*
X290Y340D01*
X217Y339D02*
X290Y339D01*
X217Y338D02*
X247Y338D01*
X260Y338D02*
X290Y338D01*
X217Y337D02*
X245Y337D01*
X263Y337D02*
X290Y337D01*
X217Y336D02*
X243Y336D01*
X265Y336D02*
X290Y336D01*
X217Y335D02*
X241Y335D01*
X266Y335D02*
X290Y335D01*
X217Y334D02*
X240Y334D01*
X267Y334D02*
X290Y334D01*
X217Y333D02*
X239Y333D01*
X268Y333D02*
X290Y333D01*
X217Y332D02*
X238Y332D01*
X269Y332D02*
X290Y332D01*
X217Y331D02*
X237Y331D01*
X270Y331D02*
X290Y331D01*
X217Y330D02*
X237Y330D01*
X271Y330D02*
X290Y330D01*
X217Y329D02*
X236Y329D01*
X271Y329D02*
X290Y329D01*
X217Y328D02*
X236Y328D01*
X272Y328D02*
X290Y328D01*
X217Y327D02*
X235Y327D01*
X272Y327D02*
X290Y327D01*
X217Y326D02*
X235Y326D01*
X273Y326D02*
X290Y326D01*
X217Y325D02*
X234Y325D01*
X273Y325D02*
X290Y325D01*
X217Y324D02*
X234Y324D01*
X273Y324D02*
X290Y324D01*
X217Y323D02*
X234Y323D01*
X273Y323D02*
X290Y323D01*
X217Y322D02*
X234Y322D01*
X274Y322D02*
X290Y322D01*
X217Y321D02*
X234Y321D01*
X274Y321D02*
X290Y321D01*
X217Y320D02*
X234Y320D01*
X274Y320D02*
X290Y320D01*
X217Y319D02*
X233Y319D01*
X274Y319D02*
X290Y319D01*
X217Y318D02*
X234Y318D01*
X274Y318D02*
X290Y318D01*
X217Y317D02*
X234Y317D01*
X274Y317D02*
X290Y317D01*
X217Y316D02*
X234Y316D01*
X273Y316D02*
X290Y316D01*
X217Y315D02*
X234Y315D01*
X273Y315D02*
X290Y315D01*
X217Y314D02*
X234Y314D01*
X273Y314D02*
X290Y314D01*
X217Y313D02*
X235Y313D01*
X273Y313D02*
X290Y313D01*
X217Y312D02*
X235Y312D01*
X272Y312D02*
X290Y312D01*
X217Y311D02*
X235Y311D01*
X272Y311D02*
X290Y311D01*
X217Y310D02*
X236Y310D01*
X271Y310D02*
X290Y310D01*
X217Y309D02*
X236Y309D01*
X271Y309D02*
X290Y309D01*
X217Y308D02*
X237Y308D01*
X270Y308D02*
X290Y308D01*
X217Y307D02*
X238Y307D01*
X269Y307D02*
X290Y307D01*
X217Y306D02*
X239Y306D01*
X268Y306D02*
X290Y306D01*
X567Y306D02*
X640Y306D01*
X217Y305D02*
X240Y305D01*
X267Y305D02*
X290Y305D01*
X567Y305D02*
X640Y305D01*
X217Y304D02*
X241Y304D01*
X266Y304D02*
X290Y304D01*
X567Y304D02*
X640Y304D01*
X217Y303D02*
X242Y303D01*
X265Y303D02*
X290Y303D01*
X567Y303D02*
X640Y303D01*
X217Y302D02*
X244Y302D01*
X263Y302D02*
X290Y302D01*
X567Y302D02*
X640Y302D01*
X217Y301D02*
X246Y301D01*
X261Y301D02*
X290Y301D01*
X567Y301D02*
X640Y301D01*
X217Y300D02*
X250Y300D01*
X257Y300D02*
X290Y300D01*
X567Y300D02*
X640Y300D01*
X217Y299D02*
X290Y299D01*
X567Y299D02*
X640Y299D01*
X217Y298D02*
X290Y298D01*
X567Y298D02*
X640Y298D01*
X217Y297D02*
X290Y297D01*
X567Y297D02*
X640Y297D01*
X217Y296D02*
X290Y296D01*
X567Y296D02*
X640Y296D01*
X217Y295D02*
X290Y295D01*
X567Y295D02*
X640Y295D01*
X217Y294D02*
X290Y294D01*
X567Y294D02*
X640Y294D01*
X217Y293D02*
X290Y293D01*
X567Y293D02*
X640Y293D01*
X217Y292D02*
X290Y292D01*
X567Y292D02*
X640Y292D01*
X217Y291D02*
X290Y291D01*
X567Y291D02*
X640Y291D01*
X217Y290D02*
X290Y290D01*
X567Y290D02*
X640Y290D01*
X217Y289D02*
X290Y289D01*
X567Y289D02*
X599Y289D01*
X607Y289D02*
X640Y289D01*
X217Y288D02*
X290Y288D01*
X567Y288D02*
X596Y288D01*
X611Y288D02*
X640Y288D01*
X217Y287D02*
X290Y287D01*
X567Y287D02*
X594Y287D01*
X613Y287D02*
X640Y287D01*
X217Y286D02*
X290Y286D01*
X567Y286D02*
X592Y286D01*
X615Y286D02*
X640Y286D01*
X217Y285D02*
X290Y285D01*
X567Y285D02*
X591Y285D01*
X616Y285D02*
X640Y285D01*
X217Y284D02*
X290Y284D01*
X567Y284D02*
X589Y284D01*
X617Y284D02*
X640Y284D01*
X217Y283D02*
X290Y283D01*
X567Y283D02*
X588Y283D01*
X618Y283D02*
X640Y283D01*
X567Y282D02*
X588Y282D01*
X619Y282D02*
X640Y282D01*
X567Y281D02*
X587Y281D01*
X620Y281D02*
X640Y281D01*
X567Y280D02*
X586Y280D01*
X621Y280D02*
X640Y280D01*
X567Y279D02*
X585Y279D01*
X621Y279D02*
X640Y279D01*
X567Y278D02*
X585Y278D01*
X622Y278D02*
X640Y278D01*
X567Y277D02*
X584Y277D01*
X622Y277D02*
X640Y277D01*
X567Y276D02*
X584Y276D01*
X623Y276D02*
X640Y276D01*
X567Y275D02*
X584Y275D01*
X623Y275D02*
X640Y275D01*
X567Y274D02*
X583Y274D01*
X623Y274D02*
X640Y274D01*
X567Y273D02*
X583Y273D01*
X624Y273D02*
X640Y273D01*
X567Y272D02*
X583Y272D01*
X624Y272D02*
X640Y272D01*
X567Y271D02*
X583Y271D01*
X624Y271D02*
X640Y271D01*
X567Y270D02*
X583Y270D01*
X624Y270D02*
X640Y270D01*
X567Y269D02*
X583Y269D01*
X624Y269D02*
X640Y269D01*
X567Y268D02*
X583Y268D01*
X624Y268D02*
X640Y268D01*
X567Y267D02*
X583Y267D01*
X624Y267D02*
X640Y267D01*
X567Y266D02*
X583Y266D01*
X624Y266D02*
X640Y266D01*
X567Y265D02*
X583Y265D01*
X623Y265D02*
X640Y265D01*
X567Y264D02*
X584Y264D01*
X623Y264D02*
X640Y264D01*
X567Y263D02*
X584Y263D01*
X623Y263D02*
X640Y263D01*
X567Y262D02*
X584Y262D01*
X622Y262D02*
X640Y262D01*
X567Y261D02*
X585Y261D01*
X622Y261D02*
X640Y261D01*
X567Y260D02*
X585Y260D01*
X621Y260D02*
X640Y260D01*
X567Y259D02*
X586Y259D01*
X621Y259D02*
X640Y259D01*
X567Y258D02*
X586Y258D01*
X620Y258D02*
X640Y258D01*
X567Y257D02*
X587Y257D01*
X619Y257D02*
X640Y257D01*
X567Y256D02*
X588Y256D01*
X619Y256D02*
X640Y256D01*
X567Y255D02*
X589Y255D01*
X618Y255D02*
X640Y255D01*
X567Y254D02*
X590Y254D01*
X617Y254D02*
X640Y254D01*
X567Y253D02*
X591Y253D01*
X615Y253D02*
X640Y253D01*
X567Y252D02*
X593Y252D01*
X614Y252D02*
X640Y252D01*
X567Y251D02*
X595Y251D01*
X612Y251D02*
X640Y251D01*
X567Y250D02*
X598Y250D01*
X609Y250D02*
X640Y250D01*
X567Y249D02*
X640Y249D01*
X567Y248D02*
X640Y248D01*
X567Y247D02*
X640Y247D01*
X567Y246D02*
X640Y246D01*
X567Y245D02*
X640Y245D01*
X567Y244D02*
X640Y244D01*
X567Y243D02*
X640Y243D01*
X567Y242D02*
X640Y242D01*
X567Y241D02*
X640Y241D01*
X567Y240D02*
X640Y240D01*
X567Y239D02*
X640Y239D01*
X567Y238D02*
X640Y238D01*
X567Y237D02*
X640Y237D01*
X567Y236D02*
X640Y236D01*
X567Y235D02*
X640Y235D01*
X567Y234D02*
X640Y234D01*
X567Y233D02*
X640Y233D01*
D02*
G04 End of Copper1*
M02*