G04 MADE WITH FRITZING*
G04 WWW.FRITZING.ORG*
G04 DOUBLE SIDED*
G04 HOLES PLATED*
G04 CONTOUR ON CENTER OF CONTOUR VECTOR*
%ASAXBY*%
%FSLAX23Y23*%
%MOIN*%
%OFA0B0*%
%SFA1.0B1.0*%
%ADD10C,0.084000*%
%ADD11C,0.088740*%
%ADD12C,0.049370*%
%ADD13C,0.085000*%
%ADD14C,0.088000*%
%ADD15R,0.116299X0.069055*%
%ADD16R,0.085000X0.085000*%
%ADD17R,0.001000X0.001000*%
%LNMASK0*%
G90*
G70*
G54D10*
X604Y269D03*
X704Y269D03*
X804Y269D03*
G54D11*
X954Y1219D03*
X954Y1467D03*
X757Y1337D03*
G54D12*
X379Y944D03*
X254Y594D03*
G54D13*
X379Y794D03*
X679Y794D03*
X379Y694D03*
X679Y694D03*
X379Y594D03*
X679Y594D03*
X379Y494D03*
X679Y494D03*
G54D10*
X729Y994D03*
X629Y994D03*
X529Y994D03*
X254Y319D03*
X254Y219D03*
X254Y119D03*
G54D14*
X79Y1269D03*
X179Y1269D03*
X279Y1269D03*
X379Y1269D03*
X79Y94D03*
X79Y194D03*
X79Y294D03*
X79Y394D03*
X79Y494D03*
X79Y594D03*
X79Y694D03*
X79Y794D03*
X979Y794D03*
X979Y694D03*
X979Y594D03*
X979Y494D03*
X979Y394D03*
X979Y294D03*
X979Y194D03*
X979Y94D03*
G54D15*
X954Y1116D03*
X954Y919D03*
G54D16*
X379Y794D03*
G54D17*
X908Y1511D02*
X998Y1511D01*
X903Y1510D02*
X1003Y1510D01*
X900Y1509D02*
X1006Y1509D01*
X897Y1508D02*
X1009Y1508D01*
X895Y1507D02*
X1011Y1507D01*
X893Y1506D02*
X1013Y1506D01*
X891Y1505D02*
X1015Y1505D01*
X890Y1504D02*
X1017Y1504D01*
X888Y1503D02*
X1018Y1503D01*
X887Y1502D02*
X1019Y1502D01*
X886Y1501D02*
X1021Y1501D01*
X885Y1500D02*
X1022Y1500D01*
X883Y1499D02*
X1023Y1499D01*
X882Y1498D02*
X1024Y1498D01*
X882Y1497D02*
X1025Y1497D01*
X881Y1496D02*
X1026Y1496D01*
X880Y1495D02*
X1026Y1495D01*
X879Y1494D02*
X1027Y1494D01*
X878Y1493D02*
X1028Y1493D01*
X878Y1492D02*
X1029Y1492D01*
X877Y1491D02*
X1029Y1491D01*
X876Y1490D02*
X1030Y1490D01*
X876Y1489D02*
X1030Y1489D01*
X875Y1488D02*
X1031Y1488D01*
X875Y1487D02*
X1032Y1487D01*
X874Y1486D02*
X1032Y1486D01*
X874Y1485D02*
X1032Y1485D01*
X873Y1484D02*
X1033Y1484D01*
X873Y1483D02*
X1033Y1483D01*
X873Y1482D02*
X1034Y1482D01*
X872Y1481D02*
X948Y1481D01*
X959Y1481D02*
X1034Y1481D01*
X872Y1480D02*
X946Y1480D01*
X961Y1480D02*
X1034Y1480D01*
X872Y1479D02*
X944Y1479D01*
X962Y1479D02*
X1035Y1479D01*
X871Y1478D02*
X943Y1478D01*
X963Y1478D02*
X1035Y1478D01*
X871Y1477D02*
X942Y1477D01*
X964Y1477D02*
X1035Y1477D01*
X871Y1476D02*
X941Y1476D01*
X965Y1476D02*
X1035Y1476D01*
X871Y1475D02*
X940Y1475D01*
X966Y1475D02*
X1036Y1475D01*
X871Y1474D02*
X940Y1474D01*
X967Y1474D02*
X1036Y1474D01*
X870Y1473D02*
X939Y1473D01*
X967Y1473D02*
X1036Y1473D01*
X870Y1472D02*
X939Y1472D01*
X968Y1472D02*
X1036Y1472D01*
X870Y1471D02*
X938Y1471D01*
X968Y1471D02*
X1036Y1471D01*
X870Y1470D02*
X938Y1470D01*
X968Y1470D02*
X1036Y1470D01*
X870Y1469D02*
X938Y1469D01*
X968Y1469D02*
X1036Y1469D01*
X870Y1468D02*
X938Y1468D01*
X968Y1468D02*
X1036Y1468D01*
X870Y1467D02*
X938Y1467D01*
X968Y1467D02*
X1036Y1467D01*
X870Y1466D02*
X938Y1466D01*
X968Y1466D02*
X1036Y1466D01*
X870Y1465D02*
X938Y1465D01*
X968Y1465D02*
X1036Y1465D01*
X870Y1464D02*
X938Y1464D01*
X968Y1464D02*
X1036Y1464D01*
X870Y1463D02*
X939Y1463D01*
X968Y1463D02*
X1036Y1463D01*
X870Y1462D02*
X939Y1462D01*
X967Y1462D02*
X1036Y1462D01*
X870Y1461D02*
X939Y1461D01*
X967Y1461D02*
X1036Y1461D01*
X871Y1460D02*
X940Y1460D01*
X966Y1460D02*
X1036Y1460D01*
X871Y1459D02*
X940Y1459D01*
X966Y1459D02*
X1036Y1459D01*
X871Y1458D02*
X941Y1458D01*
X965Y1458D02*
X1035Y1458D01*
X871Y1457D02*
X942Y1457D01*
X964Y1457D02*
X1035Y1457D01*
X872Y1456D02*
X943Y1456D01*
X963Y1456D02*
X1035Y1456D01*
X872Y1455D02*
X944Y1455D01*
X962Y1455D02*
X1035Y1455D01*
X872Y1454D02*
X946Y1454D01*
X960Y1454D02*
X1034Y1454D01*
X872Y1453D02*
X949Y1453D01*
X958Y1453D02*
X1034Y1453D01*
X873Y1452D02*
X1034Y1452D01*
X873Y1451D02*
X1033Y1451D01*
X874Y1450D02*
X1033Y1450D01*
X874Y1449D02*
X1032Y1449D01*
X874Y1448D02*
X1032Y1448D01*
X875Y1447D02*
X1031Y1447D01*
X875Y1446D02*
X1031Y1446D01*
X876Y1445D02*
X1030Y1445D01*
X877Y1444D02*
X1030Y1444D01*
X877Y1443D02*
X1029Y1443D01*
X878Y1442D02*
X1028Y1442D01*
X879Y1441D02*
X1028Y1441D01*
X879Y1440D02*
X1027Y1440D01*
X880Y1439D02*
X1026Y1439D01*
X881Y1438D02*
X1025Y1438D01*
X882Y1437D02*
X1024Y1437D01*
X883Y1436D02*
X1024Y1436D01*
X884Y1435D02*
X1022Y1435D01*
X885Y1434D02*
X1021Y1434D01*
X886Y1433D02*
X1020Y1433D01*
X887Y1432D02*
X1019Y1432D01*
X889Y1431D02*
X1018Y1431D01*
X890Y1430D02*
X1016Y1430D01*
X892Y1429D02*
X1014Y1429D01*
X894Y1428D02*
X1013Y1428D01*
X896Y1427D02*
X1011Y1427D01*
X898Y1426D02*
X1008Y1426D01*
X901Y1425D02*
X1006Y1425D01*
X904Y1424D02*
X1002Y1424D01*
X911Y1423D02*
X996Y1423D01*
X748Y1420D02*
X765Y1420D01*
X744Y1419D02*
X769Y1419D01*
X741Y1418D02*
X772Y1418D01*
X739Y1417D02*
X774Y1417D01*
X737Y1416D02*
X776Y1416D01*
X735Y1415D02*
X778Y1415D01*
X733Y1414D02*
X780Y1414D01*
X732Y1413D02*
X781Y1413D01*
X730Y1412D02*
X783Y1412D01*
X729Y1411D02*
X784Y1411D01*
X728Y1410D02*
X785Y1410D01*
X727Y1409D02*
X786Y1409D01*
X726Y1408D02*
X787Y1408D01*
X725Y1407D02*
X788Y1407D01*
X724Y1406D02*
X789Y1406D01*
X723Y1405D02*
X790Y1405D01*
X722Y1404D02*
X791Y1404D01*
X721Y1403D02*
X791Y1403D01*
X721Y1402D02*
X792Y1402D01*
X720Y1401D02*
X793Y1401D01*
X719Y1400D02*
X793Y1400D01*
X719Y1399D02*
X794Y1399D01*
X718Y1398D02*
X795Y1398D01*
X718Y1397D02*
X795Y1397D01*
X717Y1396D02*
X796Y1396D01*
X717Y1395D02*
X796Y1395D01*
X716Y1394D02*
X797Y1394D01*
X716Y1393D02*
X797Y1393D01*
X715Y1392D02*
X797Y1392D01*
X715Y1391D02*
X798Y1391D01*
X715Y1390D02*
X798Y1390D01*
X714Y1389D02*
X798Y1389D01*
X714Y1388D02*
X799Y1388D01*
X714Y1387D02*
X799Y1387D01*
X714Y1386D02*
X799Y1386D01*
X713Y1385D02*
X799Y1385D01*
X713Y1384D02*
X800Y1384D01*
X713Y1383D02*
X800Y1383D01*
X713Y1382D02*
X800Y1382D01*
X713Y1381D02*
X800Y1381D01*
X713Y1380D02*
X800Y1380D01*
X713Y1379D02*
X800Y1379D01*
X713Y1378D02*
X800Y1378D01*
X713Y1377D02*
X800Y1377D01*
X713Y1376D02*
X800Y1376D01*
X713Y1375D02*
X800Y1375D01*
X713Y1374D02*
X800Y1374D01*
X713Y1373D02*
X800Y1373D01*
X713Y1372D02*
X800Y1372D01*
X713Y1371D02*
X800Y1371D01*
X713Y1370D02*
X800Y1370D01*
X713Y1369D02*
X800Y1369D01*
X713Y1368D02*
X800Y1368D01*
X713Y1367D02*
X800Y1367D01*
X713Y1366D02*
X800Y1366D01*
X713Y1365D02*
X800Y1365D01*
X713Y1364D02*
X800Y1364D01*
X713Y1363D02*
X800Y1363D01*
X713Y1362D02*
X800Y1362D01*
X713Y1361D02*
X800Y1361D01*
X713Y1360D02*
X800Y1360D01*
X713Y1359D02*
X800Y1359D01*
X713Y1358D02*
X800Y1358D01*
X713Y1357D02*
X800Y1357D01*
X713Y1356D02*
X800Y1356D01*
X713Y1355D02*
X800Y1355D01*
X713Y1354D02*
X800Y1354D01*
X713Y1353D02*
X800Y1353D01*
X713Y1352D02*
X800Y1352D01*
X713Y1351D02*
X751Y1351D01*
X762Y1351D02*
X800Y1351D01*
X713Y1350D02*
X749Y1350D01*
X764Y1350D02*
X800Y1350D01*
X713Y1349D02*
X747Y1349D01*
X766Y1349D02*
X800Y1349D01*
X713Y1348D02*
X746Y1348D01*
X767Y1348D02*
X800Y1348D01*
X713Y1347D02*
X745Y1347D01*
X768Y1347D02*
X800Y1347D01*
X713Y1346D02*
X744Y1346D01*
X769Y1346D02*
X800Y1346D01*
X713Y1345D02*
X743Y1345D01*
X769Y1345D02*
X800Y1345D01*
X713Y1344D02*
X743Y1344D01*
X770Y1344D02*
X800Y1344D01*
X713Y1343D02*
X742Y1343D01*
X771Y1343D02*
X800Y1343D01*
X713Y1342D02*
X742Y1342D01*
X771Y1342D02*
X800Y1342D01*
X713Y1341D02*
X742Y1341D01*
X771Y1341D02*
X800Y1341D01*
X713Y1340D02*
X741Y1340D01*
X771Y1340D02*
X800Y1340D01*
X713Y1339D02*
X741Y1339D01*
X771Y1339D02*
X800Y1339D01*
X713Y1338D02*
X741Y1338D01*
X772Y1338D02*
X800Y1338D01*
X713Y1337D02*
X741Y1337D01*
X772Y1337D02*
X800Y1337D01*
X713Y1336D02*
X741Y1336D01*
X771Y1336D02*
X800Y1336D01*
X713Y1335D02*
X741Y1335D01*
X771Y1335D02*
X800Y1335D01*
X713Y1334D02*
X742Y1334D01*
X771Y1334D02*
X800Y1334D01*
X713Y1333D02*
X742Y1333D01*
X771Y1333D02*
X800Y1333D01*
X713Y1332D02*
X742Y1332D01*
X771Y1332D02*
X800Y1332D01*
X713Y1331D02*
X743Y1331D01*
X770Y1331D02*
X800Y1331D01*
X713Y1330D02*
X743Y1330D01*
X770Y1330D02*
X800Y1330D01*
X713Y1329D02*
X744Y1329D01*
X769Y1329D02*
X800Y1329D01*
X713Y1328D02*
X745Y1328D01*
X768Y1328D02*
X800Y1328D01*
X713Y1327D02*
X745Y1327D01*
X767Y1327D02*
X800Y1327D01*
X713Y1326D02*
X747Y1326D01*
X766Y1326D02*
X800Y1326D01*
X713Y1325D02*
X748Y1325D01*
X765Y1325D02*
X800Y1325D01*
X713Y1324D02*
X750Y1324D01*
X763Y1324D02*
X800Y1324D01*
X713Y1323D02*
X752Y1323D01*
X760Y1323D02*
X800Y1323D01*
X713Y1322D02*
X800Y1322D01*
X713Y1321D02*
X800Y1321D01*
X713Y1320D02*
X800Y1320D01*
X713Y1319D02*
X800Y1319D01*
X713Y1318D02*
X800Y1318D01*
X713Y1317D02*
X800Y1317D01*
X713Y1316D02*
X800Y1316D01*
X713Y1315D02*
X800Y1315D01*
X713Y1314D02*
X800Y1314D01*
X713Y1313D02*
X800Y1313D01*
X713Y1312D02*
X800Y1312D01*
X713Y1311D02*
X800Y1311D01*
X713Y1310D02*
X800Y1310D01*
X713Y1309D02*
X800Y1309D01*
X713Y1308D02*
X800Y1308D01*
X713Y1307D02*
X800Y1307D01*
X713Y1306D02*
X800Y1306D01*
X713Y1305D02*
X800Y1305D01*
X713Y1304D02*
X800Y1304D01*
X713Y1303D02*
X800Y1303D01*
X713Y1302D02*
X800Y1302D01*
X713Y1301D02*
X800Y1301D01*
X713Y1300D02*
X800Y1300D01*
X713Y1299D02*
X800Y1299D01*
X713Y1298D02*
X800Y1298D01*
X713Y1297D02*
X800Y1297D01*
X713Y1296D02*
X800Y1296D01*
X713Y1295D02*
X800Y1295D01*
X713Y1294D02*
X800Y1294D01*
X713Y1293D02*
X800Y1293D01*
X713Y1292D02*
X800Y1292D01*
X713Y1291D02*
X800Y1291D01*
X713Y1290D02*
X799Y1290D01*
X714Y1289D02*
X799Y1289D01*
X714Y1288D02*
X799Y1288D01*
X714Y1287D02*
X799Y1287D01*
X714Y1286D02*
X799Y1286D01*
X715Y1285D02*
X798Y1285D01*
X715Y1284D02*
X798Y1284D01*
X715Y1283D02*
X798Y1283D01*
X716Y1282D02*
X797Y1282D01*
X716Y1281D02*
X797Y1281D01*
X716Y1280D02*
X796Y1280D01*
X717Y1279D02*
X796Y1279D01*
X717Y1278D02*
X795Y1278D01*
X718Y1277D02*
X795Y1277D01*
X718Y1276D02*
X794Y1276D01*
X719Y1275D02*
X794Y1275D01*
X720Y1274D02*
X793Y1274D01*
X720Y1273D02*
X793Y1273D01*
X721Y1272D02*
X792Y1272D01*
X722Y1271D02*
X791Y1271D01*
X723Y1270D02*
X790Y1270D01*
X723Y1269D02*
X790Y1269D01*
X724Y1268D02*
X789Y1268D01*
X725Y1267D02*
X788Y1267D01*
X726Y1266D02*
X787Y1266D01*
X727Y1265D02*
X786Y1265D01*
X728Y1264D02*
X784Y1264D01*
X730Y1263D02*
X783Y1263D01*
X908Y1263D02*
X998Y1263D01*
X731Y1262D02*
X782Y1262D01*
X903Y1262D02*
X1003Y1262D01*
X732Y1261D02*
X780Y1261D01*
X900Y1261D02*
X1006Y1261D01*
X734Y1260D02*
X779Y1260D01*
X897Y1260D02*
X1009Y1260D01*
X736Y1259D02*
X777Y1259D01*
X895Y1259D02*
X1011Y1259D01*
X738Y1258D02*
X775Y1258D01*
X893Y1258D02*
X1013Y1258D01*
X740Y1257D02*
X773Y1257D01*
X891Y1257D02*
X1015Y1257D01*
X743Y1256D02*
X770Y1256D01*
X890Y1256D02*
X1017Y1256D01*
X746Y1255D02*
X767Y1255D01*
X888Y1255D02*
X1018Y1255D01*
X751Y1254D02*
X762Y1254D01*
X887Y1254D02*
X1019Y1254D01*
X886Y1253D02*
X1021Y1253D01*
X885Y1252D02*
X1022Y1252D01*
X883Y1251D02*
X1023Y1251D01*
X882Y1250D02*
X1024Y1250D01*
X882Y1249D02*
X1025Y1249D01*
X881Y1248D02*
X1026Y1248D01*
X880Y1247D02*
X1026Y1247D01*
X879Y1246D02*
X1027Y1246D01*
X878Y1245D02*
X1028Y1245D01*
X878Y1244D02*
X1029Y1244D01*
X877Y1243D02*
X1029Y1243D01*
X876Y1242D02*
X1030Y1242D01*
X876Y1241D02*
X1030Y1241D01*
X875Y1240D02*
X1031Y1240D01*
X875Y1239D02*
X1032Y1239D01*
X874Y1238D02*
X1032Y1238D01*
X874Y1237D02*
X1032Y1237D01*
X873Y1236D02*
X1033Y1236D01*
X873Y1235D02*
X1033Y1235D01*
X873Y1234D02*
X1034Y1234D01*
X872Y1233D02*
X948Y1233D01*
X959Y1233D02*
X1034Y1233D01*
X872Y1232D02*
X945Y1232D01*
X961Y1232D02*
X1034Y1232D01*
X872Y1231D02*
X944Y1231D01*
X962Y1231D02*
X1035Y1231D01*
X871Y1230D02*
X943Y1230D01*
X964Y1230D02*
X1035Y1230D01*
X871Y1229D02*
X942Y1229D01*
X965Y1229D02*
X1035Y1229D01*
X871Y1228D02*
X941Y1228D01*
X965Y1228D02*
X1035Y1228D01*
X871Y1227D02*
X940Y1227D01*
X966Y1227D02*
X1036Y1227D01*
X871Y1226D02*
X940Y1226D01*
X967Y1226D02*
X1036Y1226D01*
X870Y1225D02*
X939Y1225D01*
X967Y1225D02*
X1036Y1225D01*
X870Y1224D02*
X939Y1224D01*
X968Y1224D02*
X1036Y1224D01*
X870Y1223D02*
X938Y1223D01*
X968Y1223D02*
X1036Y1223D01*
X870Y1222D02*
X938Y1222D01*
X968Y1222D02*
X1036Y1222D01*
X870Y1221D02*
X938Y1221D01*
X968Y1221D02*
X1036Y1221D01*
X870Y1220D02*
X938Y1220D01*
X968Y1220D02*
X1036Y1220D01*
X870Y1219D02*
X938Y1219D01*
X968Y1219D02*
X1036Y1219D01*
X870Y1218D02*
X938Y1218D01*
X968Y1218D02*
X1036Y1218D01*
X870Y1217D02*
X938Y1217D01*
X968Y1217D02*
X1036Y1217D01*
X870Y1216D02*
X938Y1216D01*
X968Y1216D02*
X1036Y1216D01*
X870Y1215D02*
X939Y1215D01*
X968Y1215D02*
X1036Y1215D01*
X870Y1214D02*
X939Y1214D01*
X967Y1214D02*
X1036Y1214D01*
X870Y1213D02*
X939Y1213D01*
X967Y1213D02*
X1036Y1213D01*
X871Y1212D02*
X940Y1212D01*
X966Y1212D02*
X1036Y1212D01*
X871Y1211D02*
X940Y1211D01*
X966Y1211D02*
X1036Y1211D01*
X871Y1210D02*
X941Y1210D01*
X965Y1210D02*
X1035Y1210D01*
X871Y1209D02*
X942Y1209D01*
X964Y1209D02*
X1035Y1209D01*
X872Y1208D02*
X943Y1208D01*
X963Y1208D02*
X1035Y1208D01*
X872Y1207D02*
X944Y1207D01*
X962Y1207D02*
X1035Y1207D01*
X872Y1206D02*
X946Y1206D01*
X960Y1206D02*
X1034Y1206D01*
X872Y1205D02*
X949Y1205D01*
X957Y1205D02*
X1034Y1205D01*
X873Y1204D02*
X1034Y1204D01*
X873Y1203D02*
X1033Y1203D01*
X874Y1202D02*
X1033Y1202D01*
X874Y1201D02*
X1032Y1201D01*
X874Y1200D02*
X1032Y1200D01*
X875Y1199D02*
X1031Y1199D01*
X875Y1198D02*
X1031Y1198D01*
X876Y1197D02*
X1030Y1197D01*
X877Y1196D02*
X1030Y1196D01*
X877Y1195D02*
X1029Y1195D01*
X878Y1194D02*
X1028Y1194D01*
X879Y1193D02*
X1028Y1193D01*
X879Y1192D02*
X1027Y1192D01*
X880Y1191D02*
X1026Y1191D01*
X881Y1190D02*
X1025Y1190D01*
X882Y1189D02*
X1024Y1189D01*
X883Y1188D02*
X1024Y1188D01*
X884Y1187D02*
X1022Y1187D01*
X885Y1186D02*
X1021Y1186D01*
X886Y1185D02*
X1020Y1185D01*
X887Y1184D02*
X1019Y1184D01*
X889Y1183D02*
X1018Y1183D01*
X890Y1182D02*
X1016Y1182D01*
X892Y1181D02*
X1014Y1181D01*
X894Y1180D02*
X1013Y1180D01*
X896Y1179D02*
X1011Y1179D01*
X898Y1178D02*
X1008Y1178D01*
X901Y1177D02*
X1005Y1177D01*
X905Y1176D02*
X1002Y1176D01*
X911Y1175D02*
X995Y1175D01*
X687Y1036D02*
X770Y1036D01*
X687Y1035D02*
X770Y1035D01*
X687Y1034D02*
X770Y1034D01*
X687Y1033D02*
X770Y1033D01*
X687Y1032D02*
X770Y1032D01*
X687Y1031D02*
X770Y1031D01*
X687Y1030D02*
X770Y1030D01*
X687Y1029D02*
X770Y1029D01*
X687Y1028D02*
X770Y1028D01*
X687Y1027D02*
X770Y1027D01*
X687Y1026D02*
X770Y1026D01*
X687Y1025D02*
X770Y1025D01*
X687Y1024D02*
X770Y1024D01*
X687Y1023D02*
X770Y1023D01*
X687Y1022D02*
X770Y1022D01*
X687Y1021D02*
X770Y1021D01*
X687Y1020D02*
X770Y1020D01*
X687Y1019D02*
X770Y1019D01*
X687Y1018D02*
X770Y1018D01*
X687Y1017D02*
X770Y1017D01*
X687Y1016D02*
X770Y1016D01*
X687Y1015D02*
X770Y1015D01*
X687Y1014D02*
X770Y1014D01*
X687Y1013D02*
X770Y1013D01*
X687Y1012D02*
X770Y1012D01*
X687Y1011D02*
X770Y1011D01*
X687Y1010D02*
X770Y1010D01*
X687Y1009D02*
X770Y1009D01*
X687Y1008D02*
X723Y1008D01*
X734Y1008D02*
X770Y1008D01*
X687Y1007D02*
X721Y1007D01*
X736Y1007D02*
X770Y1007D01*
X687Y1006D02*
X719Y1006D01*
X738Y1006D02*
X770Y1006D01*
X687Y1005D02*
X718Y1005D01*
X739Y1005D02*
X770Y1005D01*
X687Y1004D02*
X717Y1004D01*
X740Y1004D02*
X770Y1004D01*
X687Y1003D02*
X716Y1003D01*
X741Y1003D02*
X770Y1003D01*
X687Y1002D02*
X715Y1002D01*
X741Y1002D02*
X770Y1002D01*
X687Y1001D02*
X715Y1001D01*
X742Y1001D02*
X770Y1001D01*
X687Y1000D02*
X714Y1000D01*
X742Y1000D02*
X770Y1000D01*
X687Y999D02*
X714Y999D01*
X743Y999D02*
X770Y999D01*
X687Y998D02*
X714Y998D01*
X743Y998D02*
X770Y998D01*
X687Y997D02*
X713Y997D01*
X743Y997D02*
X770Y997D01*
X687Y996D02*
X713Y996D01*
X743Y996D02*
X770Y996D01*
X687Y995D02*
X713Y995D01*
X743Y995D02*
X770Y995D01*
X687Y994D02*
X713Y994D01*
X743Y994D02*
X770Y994D01*
X687Y993D02*
X713Y993D01*
X743Y993D02*
X770Y993D01*
X687Y992D02*
X713Y992D01*
X743Y992D02*
X770Y992D01*
X687Y991D02*
X713Y991D01*
X743Y991D02*
X770Y991D01*
X687Y990D02*
X714Y990D01*
X743Y990D02*
X770Y990D01*
X687Y989D02*
X714Y989D01*
X743Y989D02*
X770Y989D01*
X687Y988D02*
X714Y988D01*
X742Y988D02*
X770Y988D01*
X687Y987D02*
X715Y987D01*
X742Y987D02*
X770Y987D01*
X687Y986D02*
X716Y986D01*
X741Y986D02*
X770Y986D01*
X687Y985D02*
X716Y985D01*
X740Y985D02*
X770Y985D01*
X687Y984D02*
X717Y984D01*
X739Y984D02*
X770Y984D01*
X687Y983D02*
X718Y983D01*
X738Y983D02*
X770Y983D01*
X687Y982D02*
X720Y982D01*
X737Y982D02*
X770Y982D01*
X687Y981D02*
X721Y981D01*
X735Y981D02*
X770Y981D01*
X687Y980D02*
X724Y980D01*
X733Y980D02*
X770Y980D01*
X687Y979D02*
X770Y979D01*
X687Y978D02*
X770Y978D01*
X687Y977D02*
X770Y977D01*
X687Y976D02*
X770Y976D01*
X687Y975D02*
X770Y975D01*
X687Y974D02*
X770Y974D01*
X687Y973D02*
X770Y973D01*
X687Y972D02*
X770Y972D01*
X687Y971D02*
X770Y971D01*
X687Y970D02*
X770Y970D01*
X687Y969D02*
X770Y969D01*
X687Y968D02*
X770Y968D01*
X687Y967D02*
X770Y967D01*
X687Y966D02*
X770Y966D01*
X687Y965D02*
X770Y965D01*
X687Y964D02*
X770Y964D01*
X687Y963D02*
X770Y963D01*
X687Y962D02*
X770Y962D01*
X687Y961D02*
X770Y961D01*
X687Y960D02*
X770Y960D01*
X687Y959D02*
X770Y959D01*
X687Y958D02*
X770Y958D01*
X687Y957D02*
X770Y957D01*
X687Y956D02*
X770Y956D01*
X687Y955D02*
X770Y955D01*
X687Y954D02*
X770Y954D01*
X687Y953D02*
X770Y953D01*
X212Y361D02*
X295Y361D01*
X212Y360D02*
X295Y360D01*
X212Y359D02*
X295Y359D01*
X212Y358D02*
X295Y358D01*
X212Y357D02*
X295Y357D01*
X212Y356D02*
X295Y356D01*
X212Y355D02*
X295Y355D01*
X212Y354D02*
X295Y354D01*
X212Y353D02*
X295Y353D01*
X212Y352D02*
X295Y352D01*
X212Y351D02*
X295Y351D01*
X212Y350D02*
X295Y350D01*
X212Y349D02*
X295Y349D01*
X212Y348D02*
X295Y348D01*
X212Y347D02*
X295Y347D01*
X212Y346D02*
X295Y346D01*
X212Y345D02*
X295Y345D01*
X212Y344D02*
X295Y344D01*
X212Y343D02*
X295Y343D01*
X212Y342D02*
X295Y342D01*
X212Y341D02*
X295Y341D01*
X212Y340D02*
X295Y340D01*
X212Y339D02*
X295Y339D01*
X212Y338D02*
X295Y338D01*
X212Y337D02*
X295Y337D01*
X212Y336D02*
X295Y336D01*
X212Y335D02*
X295Y335D01*
X212Y334D02*
X295Y334D01*
X212Y333D02*
X248Y333D01*
X260Y333D02*
X295Y333D01*
X212Y332D02*
X246Y332D01*
X262Y332D02*
X295Y332D01*
X212Y331D02*
X244Y331D01*
X263Y331D02*
X295Y331D01*
X212Y330D02*
X243Y330D01*
X264Y330D02*
X295Y330D01*
X212Y329D02*
X242Y329D01*
X265Y329D02*
X295Y329D01*
X212Y328D02*
X241Y328D01*
X266Y328D02*
X295Y328D01*
X212Y327D02*
X241Y327D01*
X267Y327D02*
X295Y327D01*
X212Y326D02*
X240Y326D01*
X267Y326D02*
X295Y326D01*
X212Y325D02*
X239Y325D01*
X268Y325D02*
X295Y325D01*
X212Y324D02*
X239Y324D01*
X268Y324D02*
X295Y324D01*
X212Y323D02*
X239Y323D01*
X268Y323D02*
X295Y323D01*
X212Y322D02*
X239Y322D01*
X269Y322D02*
X295Y322D01*
X212Y321D02*
X239Y321D01*
X269Y321D02*
X295Y321D01*
X212Y320D02*
X238Y320D01*
X269Y320D02*
X295Y320D01*
X212Y319D02*
X238Y319D01*
X269Y319D02*
X295Y319D01*
X212Y318D02*
X239Y318D01*
X269Y318D02*
X295Y318D01*
X212Y317D02*
X239Y317D01*
X269Y317D02*
X295Y317D01*
X212Y316D02*
X239Y316D01*
X268Y316D02*
X295Y316D01*
X212Y315D02*
X239Y315D01*
X268Y315D02*
X295Y315D01*
X212Y314D02*
X239Y314D01*
X268Y314D02*
X295Y314D01*
X212Y313D02*
X240Y313D01*
X267Y313D02*
X295Y313D01*
X212Y312D02*
X240Y312D01*
X267Y312D02*
X295Y312D01*
X212Y311D02*
X241Y311D01*
X266Y311D02*
X295Y311D01*
X562Y311D02*
X645Y311D01*
X212Y310D02*
X242Y310D01*
X265Y310D02*
X295Y310D01*
X562Y310D02*
X645Y310D01*
X212Y309D02*
X243Y309D01*
X264Y309D02*
X295Y309D01*
X562Y309D02*
X645Y309D01*
X212Y308D02*
X244Y308D01*
X263Y308D02*
X295Y308D01*
X562Y308D02*
X645Y308D01*
X212Y307D02*
X245Y307D01*
X262Y307D02*
X295Y307D01*
X562Y307D02*
X645Y307D01*
X212Y306D02*
X247Y306D01*
X260Y306D02*
X295Y306D01*
X562Y306D02*
X645Y306D01*
X212Y305D02*
X250Y305D01*
X257Y305D02*
X295Y305D01*
X562Y305D02*
X645Y305D01*
X212Y304D02*
X295Y304D01*
X562Y304D02*
X645Y304D01*
X212Y303D02*
X295Y303D01*
X562Y303D02*
X645Y303D01*
X212Y302D02*
X295Y302D01*
X562Y302D02*
X645Y302D01*
X212Y301D02*
X295Y301D01*
X562Y301D02*
X645Y301D01*
X212Y300D02*
X295Y300D01*
X562Y300D02*
X645Y300D01*
X212Y299D02*
X295Y299D01*
X562Y299D02*
X645Y299D01*
X212Y298D02*
X295Y298D01*
X562Y298D02*
X645Y298D01*
X212Y297D02*
X295Y297D01*
X562Y297D02*
X645Y297D01*
X212Y296D02*
X295Y296D01*
X562Y296D02*
X645Y296D01*
X212Y295D02*
X295Y295D01*
X562Y295D02*
X645Y295D01*
X212Y294D02*
X295Y294D01*
X562Y294D02*
X645Y294D01*
X212Y293D02*
X295Y293D01*
X562Y293D02*
X645Y293D01*
X212Y292D02*
X295Y292D01*
X562Y292D02*
X645Y292D01*
X212Y291D02*
X295Y291D01*
X562Y291D02*
X645Y291D01*
X212Y290D02*
X295Y290D01*
X562Y290D02*
X645Y290D01*
X212Y289D02*
X295Y289D01*
X562Y289D02*
X645Y289D01*
X212Y288D02*
X295Y288D01*
X562Y288D02*
X645Y288D01*
X212Y287D02*
X295Y287D01*
X562Y287D02*
X645Y287D01*
X212Y286D02*
X295Y286D01*
X562Y286D02*
X645Y286D01*
X212Y285D02*
X295Y285D01*
X562Y285D02*
X645Y285D01*
X212Y284D02*
X295Y284D01*
X562Y284D02*
X599Y284D01*
X607Y284D02*
X645Y284D01*
X212Y283D02*
X295Y283D01*
X562Y283D02*
X597Y283D01*
X610Y283D02*
X645Y283D01*
X212Y282D02*
X295Y282D01*
X562Y282D02*
X595Y282D01*
X612Y282D02*
X645Y282D01*
X212Y281D02*
X295Y281D01*
X562Y281D02*
X593Y281D01*
X613Y281D02*
X645Y281D01*
X212Y280D02*
X295Y280D01*
X562Y280D02*
X592Y280D01*
X614Y280D02*
X645Y280D01*
X212Y279D02*
X295Y279D01*
X562Y279D02*
X591Y279D01*
X615Y279D02*
X645Y279D01*
X212Y278D02*
X295Y278D01*
X562Y278D02*
X591Y278D01*
X616Y278D02*
X645Y278D01*
X562Y277D02*
X590Y277D01*
X617Y277D02*
X645Y277D01*
X562Y276D02*
X589Y276D01*
X617Y276D02*
X645Y276D01*
X562Y275D02*
X589Y275D01*
X618Y275D02*
X645Y275D01*
X562Y274D02*
X589Y274D01*
X618Y274D02*
X645Y274D01*
X562Y273D02*
X588Y273D01*
X618Y273D02*
X645Y273D01*
X562Y272D02*
X588Y272D01*
X619Y272D02*
X645Y272D01*
X562Y271D02*
X588Y271D01*
X619Y271D02*
X645Y271D01*
X562Y270D02*
X588Y270D01*
X619Y270D02*
X645Y270D01*
X562Y269D02*
X588Y269D01*
X619Y269D02*
X645Y269D01*
X562Y268D02*
X588Y268D01*
X619Y268D02*
X645Y268D01*
X562Y267D02*
X588Y267D01*
X619Y267D02*
X645Y267D01*
X562Y266D02*
X588Y266D01*
X619Y266D02*
X645Y266D01*
X562Y265D02*
X589Y265D01*
X618Y265D02*
X645Y265D01*
X562Y264D02*
X589Y264D01*
X618Y264D02*
X645Y264D01*
X562Y263D02*
X589Y263D01*
X618Y263D02*
X645Y263D01*
X562Y262D02*
X590Y262D01*
X617Y262D02*
X645Y262D01*
X562Y261D02*
X590Y261D01*
X616Y261D02*
X645Y261D01*
X562Y260D02*
X591Y260D01*
X616Y260D02*
X645Y260D01*
X562Y259D02*
X592Y259D01*
X615Y259D02*
X645Y259D01*
X562Y258D02*
X593Y258D01*
X614Y258D02*
X645Y258D01*
X562Y257D02*
X594Y257D01*
X612Y257D02*
X645Y257D01*
X562Y256D02*
X596Y256D01*
X611Y256D02*
X645Y256D01*
X562Y255D02*
X599Y255D01*
X608Y255D02*
X645Y255D01*
X562Y254D02*
X645Y254D01*
X562Y253D02*
X645Y253D01*
X562Y252D02*
X645Y252D01*
X562Y251D02*
X645Y251D01*
X562Y250D02*
X645Y250D01*
X562Y249D02*
X645Y249D01*
X562Y248D02*
X645Y248D01*
X562Y247D02*
X645Y247D01*
X562Y246D02*
X645Y246D01*
X562Y245D02*
X645Y245D01*
X562Y244D02*
X645Y244D01*
X562Y243D02*
X645Y243D01*
X562Y242D02*
X645Y242D01*
X562Y241D02*
X645Y241D01*
X562Y240D02*
X645Y240D01*
X562Y239D02*
X645Y239D01*
X562Y238D02*
X645Y238D01*
X562Y237D02*
X645Y237D01*
X562Y236D02*
X645Y236D01*
X562Y235D02*
X645Y235D01*
X562Y234D02*
X645Y234D01*
X562Y233D02*
X645Y233D01*
X562Y232D02*
X645Y232D01*
X562Y231D02*
X645Y231D01*
X562Y230D02*
X645Y230D01*
X562Y229D02*
X645Y229D01*
X562Y228D02*
X645Y228D01*
D02*
G04 End of Mask0*
M02*