G04 MADE WITH FRITZING*
G04 WWW.FRITZING.ORG*
G04 DOUBLE SIDED*
G04 HOLES PLATED*
G04 CONTOUR ON CENTER OF CONTOUR VECTOR*
%ASAXBY*%
%FSLAX23Y23*%
%MOIN*%
%OFA0B0*%
%SFA1.0B1.0*%
%ADD10R,1.061650X1.594490X1.045650X1.578490*%
%ADD11C,0.008000*%
%ADD12R,0.001000X0.001000*%
%LNSILK0*%
G90*
G70*
G54D11*
X4Y1590D02*
X1058Y1590D01*
X1058Y4D01*
X4Y4D01*
X4Y1590D01*
D02*
G54D12*
X787Y823D02*
X819Y823D01*
X843Y823D02*
X860Y823D01*
X892Y823D02*
X915Y823D01*
X787Y822D02*
X819Y822D01*
X840Y822D02*
X863Y822D01*
X889Y822D02*
X915Y822D01*
X787Y821D02*
X819Y821D01*
X838Y821D02*
X865Y821D01*
X887Y821D02*
X915Y821D01*
X787Y820D02*
X819Y820D01*
X837Y820D02*
X866Y820D01*
X886Y820D02*
X915Y820D01*
X150Y819D02*
X153Y819D01*
X176Y819D02*
X179Y819D01*
X197Y819D02*
X229Y819D01*
X787Y819D02*
X819Y819D01*
X836Y819D02*
X866Y819D01*
X885Y819D02*
X915Y819D01*
X149Y818D02*
X154Y818D01*
X175Y818D02*
X180Y818D01*
X197Y818D02*
X229Y818D01*
X787Y818D02*
X819Y818D01*
X836Y818D02*
X867Y818D01*
X884Y818D02*
X915Y818D01*
X149Y817D02*
X154Y817D01*
X175Y817D02*
X180Y817D01*
X197Y817D02*
X229Y817D01*
X787Y817D02*
X819Y817D01*
X835Y817D02*
X867Y817D01*
X884Y817D02*
X915Y817D01*
X149Y816D02*
X155Y816D01*
X174Y816D02*
X180Y816D01*
X197Y816D02*
X229Y816D01*
X787Y816D02*
X793Y816D01*
X800Y816D02*
X806Y816D01*
X813Y816D02*
X819Y816D01*
X835Y816D02*
X842Y816D01*
X861Y816D02*
X867Y816D01*
X884Y816D02*
X891Y816D01*
X909Y816D02*
X915Y816D01*
X149Y815D02*
X156Y815D01*
X173Y815D02*
X180Y815D01*
X197Y815D02*
X229Y815D01*
X787Y815D02*
X793Y815D01*
X800Y815D02*
X806Y815D01*
X813Y815D02*
X819Y815D01*
X835Y815D02*
X841Y815D01*
X861Y815D02*
X867Y815D01*
X883Y815D02*
X890Y815D01*
X910Y815D02*
X915Y815D01*
X149Y814D02*
X156Y814D01*
X173Y814D02*
X180Y814D01*
X197Y814D02*
X229Y814D01*
X787Y814D02*
X793Y814D01*
X800Y814D02*
X806Y814D01*
X813Y814D02*
X819Y814D01*
X835Y814D02*
X841Y814D01*
X860Y814D02*
X867Y814D01*
X883Y814D02*
X889Y814D01*
X910Y814D02*
X915Y814D01*
X150Y813D02*
X157Y813D01*
X172Y813D02*
X179Y813D01*
X197Y813D02*
X203Y813D01*
X209Y813D02*
X216Y813D01*
X223Y813D02*
X229Y813D01*
X787Y813D02*
X792Y813D01*
X800Y813D02*
X806Y813D01*
X813Y813D02*
X819Y813D01*
X835Y813D02*
X840Y813D01*
X860Y813D02*
X867Y813D01*
X883Y813D02*
X889Y813D01*
X910Y813D02*
X915Y813D01*
X151Y812D02*
X157Y812D01*
X172Y812D02*
X179Y812D01*
X197Y812D02*
X202Y812D01*
X210Y812D02*
X216Y812D01*
X223Y812D02*
X229Y812D01*
X788Y812D02*
X792Y812D01*
X800Y812D02*
X806Y812D01*
X814Y812D02*
X818Y812D01*
X836Y812D02*
X840Y812D01*
X859Y812D02*
X866Y812D01*
X883Y812D02*
X889Y812D01*
X910Y812D02*
X915Y812D01*
X151Y811D02*
X158Y811D01*
X171Y811D02*
X178Y811D01*
X197Y811D02*
X202Y811D01*
X210Y811D02*
X216Y811D01*
X223Y811D02*
X229Y811D01*
X789Y811D02*
X790Y811D01*
X800Y811D02*
X806Y811D01*
X815Y811D02*
X817Y811D01*
X837Y811D02*
X839Y811D01*
X858Y811D02*
X866Y811D01*
X883Y811D02*
X889Y811D01*
X910Y811D02*
X915Y811D01*
X152Y810D02*
X159Y810D01*
X171Y810D02*
X177Y810D01*
X197Y810D02*
X202Y810D01*
X210Y810D02*
X216Y810D01*
X223Y810D02*
X229Y810D01*
X800Y810D02*
X806Y810D01*
X857Y810D02*
X865Y810D01*
X883Y810D02*
X889Y810D01*
X910Y810D02*
X915Y810D01*
X152Y809D02*
X159Y809D01*
X170Y809D02*
X177Y809D01*
X197Y809D02*
X202Y809D01*
X210Y809D02*
X216Y809D01*
X224Y809D02*
X228Y809D01*
X800Y809D02*
X806Y809D01*
X857Y809D02*
X864Y809D01*
X883Y809D02*
X889Y809D01*
X910Y809D02*
X915Y809D01*
X153Y808D02*
X160Y808D01*
X169Y808D02*
X176Y808D01*
X198Y808D02*
X201Y808D01*
X210Y808D02*
X216Y808D01*
X225Y808D02*
X227Y808D01*
X800Y808D02*
X806Y808D01*
X856Y808D02*
X863Y808D01*
X883Y808D02*
X889Y808D01*
X910Y808D02*
X915Y808D01*
X153Y807D02*
X160Y807D01*
X169Y807D02*
X176Y807D01*
X210Y807D02*
X216Y807D01*
X800Y807D02*
X806Y807D01*
X855Y807D02*
X863Y807D01*
X883Y807D02*
X890Y807D01*
X910Y807D02*
X915Y807D01*
X154Y806D02*
X161Y806D01*
X168Y806D02*
X175Y806D01*
X210Y806D02*
X216Y806D01*
X800Y806D02*
X806Y806D01*
X854Y806D02*
X862Y806D01*
X884Y806D02*
X915Y806D01*
X155Y805D02*
X161Y805D01*
X168Y805D02*
X174Y805D01*
X210Y805D02*
X216Y805D01*
X800Y805D02*
X806Y805D01*
X853Y805D02*
X861Y805D01*
X884Y805D02*
X915Y805D01*
X155Y804D02*
X162Y804D01*
X167Y804D02*
X174Y804D01*
X210Y804D02*
X216Y804D01*
X800Y804D02*
X806Y804D01*
X853Y804D02*
X860Y804D01*
X885Y804D02*
X915Y804D01*
X156Y803D02*
X163Y803D01*
X166Y803D02*
X173Y803D01*
X210Y803D02*
X216Y803D01*
X800Y803D02*
X806Y803D01*
X852Y803D02*
X860Y803D01*
X886Y803D02*
X915Y803D01*
X156Y802D02*
X163Y802D01*
X166Y802D02*
X173Y802D01*
X210Y802D02*
X216Y802D01*
X800Y802D02*
X806Y802D01*
X851Y802D02*
X859Y802D01*
X887Y802D02*
X915Y802D01*
X157Y801D02*
X172Y801D01*
X210Y801D02*
X216Y801D01*
X800Y801D02*
X806Y801D01*
X850Y801D02*
X858Y801D01*
X888Y801D02*
X915Y801D01*
X158Y800D02*
X172Y800D01*
X210Y800D02*
X216Y800D01*
X800Y800D02*
X806Y800D01*
X850Y800D02*
X857Y800D01*
X890Y800D02*
X915Y800D01*
X158Y799D02*
X171Y799D01*
X210Y799D02*
X216Y799D01*
X800Y799D02*
X806Y799D01*
X849Y799D02*
X856Y799D01*
X897Y799D02*
X904Y799D01*
X909Y799D02*
X915Y799D01*
X159Y798D02*
X170Y798D01*
X210Y798D02*
X216Y798D01*
X800Y798D02*
X806Y798D01*
X848Y798D02*
X856Y798D01*
X896Y798D02*
X903Y798D01*
X910Y798D02*
X915Y798D01*
X159Y797D02*
X170Y797D01*
X210Y797D02*
X216Y797D01*
X800Y797D02*
X806Y797D01*
X847Y797D02*
X855Y797D01*
X896Y797D02*
X903Y797D01*
X910Y797D02*
X915Y797D01*
X160Y796D02*
X169Y796D01*
X210Y796D02*
X216Y796D01*
X800Y796D02*
X806Y796D01*
X846Y796D02*
X854Y796D01*
X895Y796D02*
X902Y796D01*
X910Y796D02*
X915Y796D01*
X160Y795D02*
X169Y795D01*
X210Y795D02*
X216Y795D01*
X800Y795D02*
X806Y795D01*
X846Y795D02*
X853Y795D01*
X895Y795D02*
X901Y795D01*
X910Y795D02*
X915Y795D01*
X161Y794D02*
X168Y794D01*
X210Y794D02*
X216Y794D01*
X800Y794D02*
X806Y794D01*
X845Y794D02*
X853Y794D01*
X894Y794D02*
X901Y794D01*
X910Y794D02*
X915Y794D01*
X161Y793D02*
X168Y793D01*
X210Y793D02*
X216Y793D01*
X800Y793D02*
X806Y793D01*
X844Y793D02*
X852Y793D01*
X893Y793D02*
X900Y793D01*
X910Y793D02*
X915Y793D01*
X160Y792D02*
X169Y792D01*
X210Y792D02*
X216Y792D01*
X800Y792D02*
X806Y792D01*
X843Y792D02*
X851Y792D01*
X893Y792D02*
X900Y792D01*
X910Y792D02*
X915Y792D01*
X159Y791D02*
X170Y791D01*
X210Y791D02*
X216Y791D01*
X800Y791D02*
X806Y791D01*
X843Y791D02*
X850Y791D01*
X892Y791D02*
X899Y791D01*
X910Y791D02*
X915Y791D01*
X159Y790D02*
X170Y790D01*
X210Y790D02*
X216Y790D01*
X800Y790D02*
X806Y790D01*
X842Y790D02*
X849Y790D01*
X892Y790D02*
X898Y790D01*
X910Y790D02*
X915Y790D01*
X158Y789D02*
X171Y789D01*
X210Y789D02*
X216Y789D01*
X800Y789D02*
X806Y789D01*
X841Y789D02*
X849Y789D01*
X891Y789D02*
X898Y789D01*
X910Y789D02*
X915Y789D01*
X158Y788D02*
X171Y788D01*
X210Y788D02*
X216Y788D01*
X800Y788D02*
X806Y788D01*
X840Y788D02*
X848Y788D01*
X890Y788D02*
X897Y788D01*
X910Y788D02*
X915Y788D01*
X157Y787D02*
X172Y787D01*
X210Y787D02*
X216Y787D01*
X800Y787D02*
X806Y787D01*
X839Y787D02*
X847Y787D01*
X890Y787D02*
X897Y787D01*
X910Y787D02*
X915Y787D01*
X157Y786D02*
X163Y786D01*
X166Y786D02*
X173Y786D01*
X210Y786D02*
X216Y786D01*
X800Y786D02*
X806Y786D01*
X839Y786D02*
X846Y786D01*
X889Y786D02*
X896Y786D01*
X910Y786D02*
X915Y786D01*
X156Y785D02*
X163Y785D01*
X166Y785D02*
X173Y785D01*
X210Y785D02*
X216Y785D01*
X800Y785D02*
X806Y785D01*
X838Y785D02*
X846Y785D01*
X889Y785D02*
X896Y785D01*
X910Y785D02*
X915Y785D01*
X155Y784D02*
X162Y784D01*
X167Y784D02*
X174Y784D01*
X210Y784D02*
X216Y784D01*
X800Y784D02*
X806Y784D01*
X837Y784D02*
X845Y784D01*
X888Y784D02*
X895Y784D01*
X910Y784D02*
X915Y784D01*
X155Y783D02*
X162Y783D01*
X167Y783D02*
X174Y783D01*
X210Y783D02*
X216Y783D01*
X800Y783D02*
X806Y783D01*
X836Y783D02*
X844Y783D01*
X863Y783D02*
X865Y783D01*
X888Y783D02*
X894Y783D01*
X910Y783D02*
X915Y783D01*
X154Y782D02*
X161Y782D01*
X168Y782D02*
X175Y782D01*
X210Y782D02*
X216Y782D01*
X800Y782D02*
X806Y782D01*
X836Y782D02*
X843Y782D01*
X862Y782D02*
X866Y782D01*
X887Y782D02*
X894Y782D01*
X910Y782D02*
X915Y782D01*
X154Y781D02*
X160Y781D01*
X169Y781D02*
X175Y781D01*
X210Y781D02*
X216Y781D01*
X800Y781D02*
X806Y781D01*
X835Y781D02*
X842Y781D01*
X862Y781D02*
X867Y781D01*
X886Y781D02*
X893Y781D01*
X910Y781D02*
X915Y781D01*
X153Y780D02*
X160Y780D01*
X169Y780D02*
X176Y780D01*
X210Y780D02*
X216Y780D01*
X800Y780D02*
X806Y780D01*
X835Y780D02*
X842Y780D01*
X861Y780D02*
X867Y780D01*
X886Y780D02*
X893Y780D01*
X910Y780D02*
X915Y780D01*
X152Y779D02*
X159Y779D01*
X170Y779D02*
X177Y779D01*
X210Y779D02*
X216Y779D01*
X800Y779D02*
X806Y779D01*
X835Y779D02*
X841Y779D01*
X861Y779D02*
X867Y779D01*
X885Y779D02*
X892Y779D01*
X910Y779D02*
X915Y779D01*
X152Y778D02*
X159Y778D01*
X170Y778D02*
X177Y778D01*
X210Y778D02*
X216Y778D01*
X800Y778D02*
X806Y778D01*
X835Y778D02*
X841Y778D01*
X860Y778D02*
X867Y778D01*
X885Y778D02*
X891Y778D01*
X910Y778D02*
X915Y778D01*
X151Y777D02*
X158Y777D01*
X171Y777D02*
X178Y777D01*
X210Y777D02*
X216Y777D01*
X800Y777D02*
X806Y777D01*
X835Y777D02*
X867Y777D01*
X884Y777D02*
X891Y777D01*
X910Y777D02*
X915Y777D01*
X151Y776D02*
X158Y776D01*
X172Y776D02*
X178Y776D01*
X210Y776D02*
X216Y776D01*
X800Y776D02*
X806Y776D01*
X836Y776D02*
X866Y776D01*
X884Y776D02*
X890Y776D01*
X910Y776D02*
X915Y776D01*
X150Y775D02*
X157Y775D01*
X172Y775D02*
X179Y775D01*
X210Y775D02*
X216Y775D01*
X800Y775D02*
X806Y775D01*
X836Y775D02*
X865Y775D01*
X883Y775D02*
X890Y775D01*
X910Y775D02*
X915Y775D01*
X150Y774D02*
X156Y774D01*
X173Y774D02*
X180Y774D01*
X210Y774D02*
X216Y774D01*
X800Y774D02*
X806Y774D01*
X837Y774D02*
X865Y774D01*
X883Y774D02*
X889Y774D01*
X910Y774D02*
X915Y774D01*
X149Y773D02*
X156Y773D01*
X173Y773D02*
X180Y773D01*
X210Y773D02*
X216Y773D01*
X800Y773D02*
X805Y773D01*
X838Y773D02*
X863Y773D01*
X884Y773D02*
X889Y773D01*
X910Y773D02*
X915Y773D01*
X149Y772D02*
X155Y772D01*
X174Y772D02*
X180Y772D01*
X210Y772D02*
X216Y772D01*
X801Y772D02*
X805Y772D01*
X839Y772D02*
X862Y772D01*
X884Y772D02*
X888Y772D01*
X911Y772D02*
X914Y772D01*
X148Y771D02*
X155Y771D01*
X174Y771D02*
X181Y771D01*
X210Y771D02*
X215Y771D01*
X149Y770D02*
X154Y770D01*
X175Y770D02*
X180Y770D01*
X210Y770D02*
X215Y770D01*
X149Y769D02*
X153Y769D01*
X176Y769D02*
X180Y769D01*
X211Y769D02*
X215Y769D01*
X151Y768D02*
X152Y768D01*
X177Y768D02*
X178Y768D01*
X213Y768D02*
X213Y768D01*
X841Y723D02*
X859Y723D01*
X837Y722D02*
X863Y722D01*
X896Y722D02*
X900Y722D01*
X836Y721D02*
X864Y721D01*
X896Y721D02*
X901Y721D01*
X835Y720D02*
X865Y720D01*
X895Y720D02*
X901Y720D01*
X151Y719D02*
X154Y719D01*
X177Y719D02*
X180Y719D01*
X204Y719D02*
X230Y719D01*
X835Y719D02*
X865Y719D01*
X895Y719D02*
X901Y719D01*
X150Y718D02*
X155Y718D01*
X176Y718D02*
X181Y718D01*
X202Y718D02*
X230Y718D01*
X834Y718D02*
X866Y718D01*
X895Y718D02*
X902Y718D01*
X149Y717D02*
X155Y717D01*
X176Y717D02*
X181Y717D01*
X201Y717D02*
X230Y717D01*
X834Y717D02*
X866Y717D01*
X894Y717D02*
X902Y717D01*
X149Y716D02*
X156Y716D01*
X175Y716D02*
X181Y716D01*
X200Y716D02*
X230Y716D01*
X834Y716D02*
X840Y716D01*
X860Y716D02*
X866Y716D01*
X894Y716D02*
X902Y716D01*
X150Y715D02*
X156Y715D01*
X174Y715D02*
X181Y715D01*
X199Y715D02*
X230Y715D01*
X834Y715D02*
X840Y715D01*
X860Y715D02*
X866Y715D01*
X894Y715D02*
X902Y715D01*
X150Y714D02*
X157Y714D01*
X174Y714D02*
X181Y714D01*
X198Y714D02*
X230Y714D01*
X834Y714D02*
X840Y714D01*
X860Y714D02*
X866Y714D01*
X893Y714D02*
X903Y714D01*
X151Y713D02*
X157Y713D01*
X173Y713D02*
X180Y713D01*
X198Y713D02*
X230Y713D01*
X834Y713D02*
X840Y713D01*
X860Y713D02*
X866Y713D01*
X893Y713D02*
X903Y713D01*
X151Y712D02*
X158Y712D01*
X173Y712D02*
X179Y712D01*
X198Y712D02*
X204Y712D01*
X224Y712D02*
X230Y712D01*
X834Y712D02*
X840Y712D01*
X860Y712D02*
X866Y712D01*
X893Y712D02*
X903Y712D01*
X152Y711D02*
X159Y711D01*
X172Y711D02*
X179Y711D01*
X197Y711D02*
X203Y711D01*
X224Y711D02*
X230Y711D01*
X834Y711D02*
X840Y711D01*
X860Y711D02*
X866Y711D01*
X893Y711D02*
X904Y711D01*
X152Y710D02*
X159Y710D01*
X171Y710D02*
X178Y710D01*
X197Y710D02*
X203Y710D01*
X224Y710D02*
X230Y710D01*
X834Y710D02*
X840Y710D01*
X860Y710D02*
X866Y710D01*
X892Y710D02*
X904Y710D01*
X153Y709D02*
X160Y709D01*
X171Y709D02*
X178Y709D01*
X197Y709D02*
X203Y709D01*
X224Y709D02*
X230Y709D01*
X834Y709D02*
X840Y709D01*
X860Y709D02*
X866Y709D01*
X892Y709D02*
X904Y709D01*
X154Y708D02*
X160Y708D01*
X170Y708D02*
X177Y708D01*
X197Y708D02*
X203Y708D01*
X224Y708D02*
X230Y708D01*
X834Y708D02*
X840Y708D01*
X860Y708D02*
X866Y708D01*
X892Y708D02*
X905Y708D01*
X154Y707D02*
X161Y707D01*
X170Y707D02*
X176Y707D01*
X197Y707D02*
X203Y707D01*
X224Y707D02*
X230Y707D01*
X834Y707D02*
X840Y707D01*
X860Y707D02*
X866Y707D01*
X891Y707D02*
X905Y707D01*
X155Y706D02*
X162Y706D01*
X169Y706D02*
X176Y706D01*
X197Y706D02*
X203Y706D01*
X224Y706D02*
X230Y706D01*
X834Y706D02*
X840Y706D01*
X860Y706D02*
X866Y706D01*
X891Y706D02*
X897Y706D01*
X899Y706D02*
X905Y706D01*
X155Y705D02*
X162Y705D01*
X168Y705D02*
X175Y705D01*
X197Y705D02*
X203Y705D01*
X224Y705D02*
X230Y705D01*
X834Y705D02*
X840Y705D01*
X860Y705D02*
X866Y705D01*
X891Y705D02*
X897Y705D01*
X899Y705D02*
X905Y705D01*
X156Y704D02*
X163Y704D01*
X168Y704D02*
X175Y704D01*
X198Y704D02*
X204Y704D01*
X224Y704D02*
X230Y704D01*
X834Y704D02*
X840Y704D01*
X860Y704D02*
X866Y704D01*
X891Y704D02*
X897Y704D01*
X900Y704D02*
X906Y704D01*
X156Y703D02*
X163Y703D01*
X167Y703D02*
X174Y703D01*
X198Y703D02*
X205Y703D01*
X224Y703D02*
X230Y703D01*
X834Y703D02*
X840Y703D01*
X860Y703D02*
X866Y703D01*
X890Y703D02*
X896Y703D01*
X900Y703D02*
X906Y703D01*
X157Y702D02*
X164Y702D01*
X167Y702D02*
X174Y702D01*
X198Y702D02*
X230Y702D01*
X834Y702D02*
X840Y702D01*
X860Y702D02*
X866Y702D01*
X890Y702D02*
X896Y702D01*
X900Y702D02*
X906Y702D01*
X158Y701D02*
X164Y701D01*
X166Y701D02*
X173Y701D01*
X199Y701D02*
X230Y701D01*
X834Y701D02*
X840Y701D01*
X860Y701D02*
X866Y701D01*
X890Y701D02*
X896Y701D01*
X901Y701D02*
X907Y701D01*
X158Y700D02*
X172Y700D01*
X200Y700D02*
X230Y700D01*
X834Y700D02*
X840Y700D01*
X860Y700D02*
X866Y700D01*
X889Y700D02*
X895Y700D01*
X901Y700D02*
X907Y700D01*
X159Y699D02*
X172Y699D01*
X200Y699D02*
X230Y699D01*
X834Y699D02*
X840Y699D01*
X860Y699D02*
X866Y699D01*
X889Y699D02*
X895Y699D01*
X901Y699D02*
X907Y699D01*
X159Y698D02*
X171Y698D01*
X202Y698D02*
X230Y698D01*
X834Y698D02*
X840Y698D01*
X860Y698D02*
X866Y698D01*
X889Y698D02*
X895Y698D01*
X901Y698D02*
X907Y698D01*
X160Y697D02*
X171Y697D01*
X203Y697D02*
X230Y697D01*
X834Y697D02*
X840Y697D01*
X860Y697D02*
X866Y697D01*
X888Y697D02*
X894Y697D01*
X902Y697D02*
X908Y697D01*
X161Y696D02*
X170Y696D01*
X207Y696D02*
X230Y696D01*
X834Y696D02*
X840Y696D01*
X860Y696D02*
X866Y696D01*
X888Y696D02*
X894Y696D01*
X902Y696D02*
X908Y696D01*
X161Y695D02*
X169Y695D01*
X211Y695D02*
X218Y695D01*
X224Y695D02*
X230Y695D01*
X834Y695D02*
X840Y695D01*
X860Y695D02*
X866Y695D01*
X888Y695D02*
X894Y695D01*
X902Y695D02*
X908Y695D01*
X162Y694D02*
X169Y694D01*
X210Y694D02*
X217Y694D01*
X224Y694D02*
X230Y694D01*
X834Y694D02*
X840Y694D01*
X860Y694D02*
X866Y694D01*
X888Y694D02*
X894Y694D01*
X903Y694D02*
X909Y694D01*
X161Y693D02*
X169Y693D01*
X210Y693D02*
X216Y693D01*
X224Y693D02*
X230Y693D01*
X834Y693D02*
X840Y693D01*
X860Y693D02*
X866Y693D01*
X887Y693D02*
X893Y693D01*
X903Y693D02*
X909Y693D01*
X161Y692D02*
X170Y692D01*
X209Y692D02*
X216Y692D01*
X224Y692D02*
X230Y692D01*
X834Y692D02*
X840Y692D01*
X860Y692D02*
X866Y692D01*
X887Y692D02*
X893Y692D01*
X903Y692D02*
X909Y692D01*
X160Y691D02*
X170Y691D01*
X208Y691D02*
X215Y691D01*
X224Y691D02*
X230Y691D01*
X834Y691D02*
X840Y691D01*
X860Y691D02*
X866Y691D01*
X887Y691D02*
X893Y691D01*
X903Y691D02*
X909Y691D01*
X160Y690D02*
X171Y690D01*
X208Y690D02*
X215Y690D01*
X224Y690D02*
X230Y690D01*
X834Y690D02*
X840Y690D01*
X860Y690D02*
X866Y690D01*
X886Y690D02*
X892Y690D01*
X904Y690D02*
X910Y690D01*
X159Y689D02*
X171Y689D01*
X207Y689D02*
X214Y689D01*
X224Y689D02*
X230Y689D01*
X834Y689D02*
X840Y689D01*
X860Y689D02*
X866Y689D01*
X886Y689D02*
X910Y689D01*
X159Y688D02*
X172Y688D01*
X207Y688D02*
X214Y688D01*
X224Y688D02*
X230Y688D01*
X834Y688D02*
X840Y688D01*
X860Y688D02*
X866Y688D01*
X886Y688D02*
X910Y688D01*
X158Y687D02*
X173Y687D01*
X206Y687D02*
X213Y687D01*
X224Y687D02*
X230Y687D01*
X834Y687D02*
X840Y687D01*
X860Y687D02*
X866Y687D01*
X886Y687D02*
X911Y687D01*
X157Y686D02*
X164Y686D01*
X166Y686D02*
X173Y686D01*
X206Y686D02*
X212Y686D01*
X224Y686D02*
X230Y686D01*
X834Y686D02*
X840Y686D01*
X860Y686D02*
X866Y686D01*
X885Y686D02*
X911Y686D01*
X157Y685D02*
X164Y685D01*
X167Y685D02*
X174Y685D01*
X205Y685D02*
X212Y685D01*
X224Y685D02*
X230Y685D01*
X834Y685D02*
X840Y685D01*
X860Y685D02*
X866Y685D01*
X885Y685D02*
X911Y685D01*
X156Y684D02*
X163Y684D01*
X168Y684D02*
X174Y684D01*
X204Y684D02*
X211Y684D01*
X224Y684D02*
X230Y684D01*
X834Y684D02*
X840Y684D01*
X860Y684D02*
X866Y684D01*
X885Y684D02*
X912Y684D01*
X156Y683D02*
X162Y683D01*
X168Y683D02*
X175Y683D01*
X204Y683D02*
X211Y683D01*
X224Y683D02*
X230Y683D01*
X834Y683D02*
X840Y683D01*
X860Y683D02*
X866Y683D01*
X884Y683D02*
X912Y683D01*
X155Y682D02*
X162Y682D01*
X169Y682D02*
X176Y682D01*
X203Y682D02*
X210Y682D01*
X224Y682D02*
X230Y682D01*
X834Y682D02*
X840Y682D01*
X860Y682D02*
X866Y682D01*
X884Y682D02*
X890Y682D01*
X906Y682D02*
X912Y682D01*
X154Y681D02*
X161Y681D01*
X169Y681D02*
X176Y681D01*
X203Y681D02*
X209Y681D01*
X224Y681D02*
X230Y681D01*
X834Y681D02*
X840Y681D01*
X860Y681D02*
X866Y681D01*
X884Y681D02*
X890Y681D01*
X906Y681D02*
X912Y681D01*
X154Y680D02*
X161Y680D01*
X170Y680D02*
X177Y680D01*
X202Y680D02*
X209Y680D01*
X224Y680D02*
X230Y680D01*
X834Y680D02*
X840Y680D01*
X860Y680D02*
X866Y680D01*
X884Y680D02*
X889Y680D01*
X907Y680D02*
X913Y680D01*
X153Y679D02*
X160Y679D01*
X170Y679D02*
X177Y679D01*
X201Y679D02*
X208Y679D01*
X224Y679D02*
X230Y679D01*
X834Y679D02*
X840Y679D01*
X860Y679D02*
X866Y679D01*
X883Y679D02*
X889Y679D01*
X907Y679D02*
X913Y679D01*
X153Y678D02*
X160Y678D01*
X171Y678D02*
X178Y678D01*
X201Y678D02*
X208Y678D01*
X224Y678D02*
X230Y678D01*
X834Y678D02*
X840Y678D01*
X860Y678D02*
X866Y678D01*
X883Y678D02*
X889Y678D01*
X907Y678D02*
X913Y678D01*
X152Y677D02*
X159Y677D01*
X172Y677D02*
X179Y677D01*
X200Y677D02*
X207Y677D01*
X224Y677D02*
X230Y677D01*
X834Y677D02*
X866Y677D01*
X883Y677D02*
X889Y677D01*
X908Y677D02*
X914Y677D01*
X152Y676D02*
X158Y676D01*
X172Y676D02*
X179Y676D01*
X200Y676D02*
X207Y676D01*
X224Y676D02*
X230Y676D01*
X834Y676D02*
X866Y676D01*
X882Y676D02*
X888Y676D01*
X908Y676D02*
X914Y676D01*
X151Y675D02*
X158Y675D01*
X173Y675D02*
X180Y675D01*
X199Y675D02*
X206Y675D01*
X224Y675D02*
X230Y675D01*
X835Y675D02*
X865Y675D01*
X882Y675D02*
X888Y675D01*
X908Y675D02*
X914Y675D01*
X150Y674D02*
X157Y674D01*
X173Y674D02*
X180Y674D01*
X199Y674D02*
X205Y674D01*
X224Y674D02*
X230Y674D01*
X835Y674D02*
X865Y674D01*
X882Y674D02*
X888Y674D01*
X908Y674D02*
X914Y674D01*
X150Y673D02*
X157Y673D01*
X174Y673D02*
X181Y673D01*
X198Y673D02*
X205Y673D01*
X224Y673D02*
X230Y673D01*
X836Y673D02*
X864Y673D01*
X882Y673D02*
X887Y673D01*
X909Y673D02*
X914Y673D01*
X149Y672D02*
X156Y672D01*
X175Y672D02*
X181Y672D01*
X198Y672D02*
X204Y672D01*
X224Y672D02*
X230Y672D01*
X837Y672D02*
X862Y672D01*
X883Y672D02*
X887Y672D01*
X910Y672D02*
X913Y672D01*
X149Y671D02*
X155Y671D01*
X175Y671D02*
X181Y671D01*
X197Y671D02*
X204Y671D01*
X224Y671D02*
X229Y671D01*
X149Y670D02*
X155Y670D01*
X176Y670D02*
X181Y670D01*
X198Y670D02*
X203Y670D01*
X224Y670D02*
X229Y670D01*
X150Y669D02*
X154Y669D01*
X177Y669D02*
X181Y669D01*
X198Y669D02*
X202Y669D01*
X225Y669D02*
X229Y669D01*
X151Y668D02*
X153Y668D01*
X178Y668D02*
X179Y668D01*
X200Y668D02*
X201Y668D01*
X226Y668D02*
X227Y668D01*
X839Y621D02*
X862Y621D01*
X898Y621D02*
X913Y621D01*
X162Y620D02*
X179Y620D01*
X212Y620D02*
X227Y620D01*
X838Y620D02*
X864Y620D01*
X895Y620D02*
X914Y620D01*
X162Y619D02*
X180Y619D01*
X209Y619D02*
X228Y619D01*
X836Y619D02*
X865Y619D01*
X894Y619D02*
X915Y619D01*
X162Y618D02*
X180Y618D01*
X208Y618D02*
X229Y618D01*
X836Y618D02*
X866Y618D01*
X893Y618D02*
X915Y618D01*
X162Y617D02*
X181Y617D01*
X207Y617D02*
X229Y617D01*
X835Y617D02*
X866Y617D01*
X892Y617D02*
X915Y617D01*
X162Y616D02*
X180Y616D01*
X206Y616D02*
X229Y616D01*
X835Y616D02*
X867Y616D01*
X891Y616D02*
X914Y616D01*
X162Y615D02*
X180Y615D01*
X205Y615D02*
X228Y615D01*
X835Y615D02*
X867Y615D01*
X891Y615D02*
X913Y615D01*
X162Y614D02*
X179Y614D01*
X205Y614D02*
X227Y614D01*
X835Y614D02*
X840Y614D01*
X861Y614D02*
X867Y614D01*
X890Y614D02*
X897Y614D01*
X903Y614D02*
X908Y614D01*
X162Y613D02*
X167Y613D01*
X204Y613D02*
X211Y613D01*
X216Y613D02*
X222Y613D01*
X835Y613D02*
X840Y613D01*
X861Y613D02*
X867Y613D01*
X890Y613D02*
X897Y613D01*
X903Y613D02*
X908Y613D01*
X162Y612D02*
X167Y612D01*
X204Y612D02*
X210Y612D01*
X216Y612D02*
X222Y612D01*
X835Y612D02*
X840Y612D01*
X861Y612D02*
X867Y612D01*
X889Y612D02*
X896Y612D01*
X903Y612D02*
X908Y612D01*
X162Y611D02*
X167Y611D01*
X203Y611D02*
X210Y611D01*
X216Y611D02*
X222Y611D01*
X835Y611D02*
X840Y611D01*
X861Y611D02*
X867Y611D01*
X889Y611D02*
X895Y611D01*
X903Y611D02*
X908Y611D01*
X162Y610D02*
X167Y610D01*
X203Y610D02*
X209Y610D01*
X216Y610D02*
X222Y610D01*
X835Y610D02*
X840Y610D01*
X861Y610D02*
X867Y610D01*
X888Y610D02*
X895Y610D01*
X903Y610D02*
X908Y610D01*
X162Y609D02*
X167Y609D01*
X202Y609D02*
X209Y609D01*
X216Y609D02*
X222Y609D01*
X835Y609D02*
X840Y609D01*
X861Y609D02*
X867Y609D01*
X888Y609D02*
X894Y609D01*
X903Y609D02*
X908Y609D01*
X162Y608D02*
X167Y608D01*
X202Y608D02*
X208Y608D01*
X216Y608D02*
X222Y608D01*
X835Y608D02*
X840Y608D01*
X861Y608D02*
X867Y608D01*
X887Y608D02*
X894Y608D01*
X903Y608D02*
X908Y608D01*
X162Y607D02*
X167Y607D01*
X201Y607D02*
X208Y607D01*
X216Y607D02*
X222Y607D01*
X835Y607D02*
X840Y607D01*
X861Y607D02*
X867Y607D01*
X887Y607D02*
X893Y607D01*
X903Y607D02*
X908Y607D01*
X162Y606D02*
X167Y606D01*
X201Y606D02*
X207Y606D01*
X216Y606D02*
X222Y606D01*
X835Y606D02*
X840Y606D01*
X861Y606D02*
X867Y606D01*
X886Y606D02*
X893Y606D01*
X903Y606D02*
X908Y606D01*
X162Y605D02*
X167Y605D01*
X200Y605D02*
X207Y605D01*
X216Y605D02*
X222Y605D01*
X835Y605D02*
X840Y605D01*
X861Y605D02*
X867Y605D01*
X886Y605D02*
X892Y605D01*
X903Y605D02*
X908Y605D01*
X162Y604D02*
X167Y604D01*
X200Y604D02*
X206Y604D01*
X216Y604D02*
X222Y604D01*
X835Y604D02*
X840Y604D01*
X861Y604D02*
X867Y604D01*
X885Y604D02*
X892Y604D01*
X903Y604D02*
X908Y604D01*
X162Y603D02*
X167Y603D01*
X199Y603D02*
X206Y603D01*
X216Y603D02*
X222Y603D01*
X835Y603D02*
X840Y603D01*
X861Y603D02*
X867Y603D01*
X885Y603D02*
X891Y603D01*
X903Y603D02*
X908Y603D01*
X162Y602D02*
X167Y602D01*
X199Y602D02*
X205Y602D01*
X216Y602D02*
X222Y602D01*
X835Y602D02*
X840Y602D01*
X861Y602D02*
X867Y602D01*
X884Y602D02*
X891Y602D01*
X903Y602D02*
X908Y602D01*
X162Y601D02*
X167Y601D01*
X198Y601D02*
X205Y601D01*
X216Y601D02*
X222Y601D01*
X835Y601D02*
X840Y601D01*
X861Y601D02*
X867Y601D01*
X884Y601D02*
X890Y601D01*
X903Y601D02*
X908Y601D01*
X162Y600D02*
X167Y600D01*
X198Y600D02*
X204Y600D01*
X216Y600D02*
X222Y600D01*
X835Y600D02*
X840Y600D01*
X861Y600D02*
X867Y600D01*
X884Y600D02*
X890Y600D01*
X903Y600D02*
X908Y600D01*
X162Y599D02*
X167Y599D01*
X197Y599D02*
X204Y599D01*
X216Y599D02*
X222Y599D01*
X835Y599D02*
X840Y599D01*
X861Y599D02*
X867Y599D01*
X883Y599D02*
X889Y599D01*
X903Y599D02*
X908Y599D01*
X162Y598D02*
X167Y598D01*
X197Y598D02*
X203Y598D01*
X216Y598D02*
X222Y598D01*
X835Y598D02*
X840Y598D01*
X861Y598D02*
X867Y598D01*
X883Y598D02*
X889Y598D01*
X903Y598D02*
X908Y598D01*
X162Y597D02*
X167Y597D01*
X197Y597D02*
X203Y597D01*
X216Y597D02*
X222Y597D01*
X835Y597D02*
X840Y597D01*
X861Y597D02*
X867Y597D01*
X883Y597D02*
X889Y597D01*
X903Y597D02*
X908Y597D01*
X162Y596D02*
X167Y596D01*
X197Y596D02*
X202Y596D01*
X216Y596D02*
X222Y596D01*
X835Y596D02*
X840Y596D01*
X861Y596D02*
X867Y596D01*
X883Y596D02*
X889Y596D01*
X903Y596D02*
X908Y596D01*
X162Y595D02*
X167Y595D01*
X197Y595D02*
X202Y595D01*
X216Y595D02*
X222Y595D01*
X835Y595D02*
X840Y595D01*
X861Y595D02*
X867Y595D01*
X883Y595D02*
X889Y595D01*
X903Y595D02*
X908Y595D01*
X162Y594D02*
X167Y594D01*
X197Y594D02*
X202Y594D01*
X216Y594D02*
X222Y594D01*
X835Y594D02*
X840Y594D01*
X861Y594D02*
X867Y594D01*
X883Y594D02*
X889Y594D01*
X903Y594D02*
X908Y594D01*
X162Y593D02*
X167Y593D01*
X197Y593D02*
X202Y593D01*
X216Y593D02*
X222Y593D01*
X835Y593D02*
X840Y593D01*
X861Y593D02*
X867Y593D01*
X883Y593D02*
X889Y593D01*
X903Y593D02*
X908Y593D01*
X151Y592D02*
X151Y592D01*
X162Y592D02*
X167Y592D01*
X197Y592D02*
X203Y592D01*
X216Y592D02*
X222Y592D01*
X835Y592D02*
X840Y592D01*
X861Y592D02*
X867Y592D01*
X883Y592D02*
X889Y592D01*
X903Y592D02*
X908Y592D01*
X149Y591D02*
X153Y591D01*
X162Y591D02*
X167Y591D01*
X197Y591D02*
X203Y591D01*
X216Y591D02*
X222Y591D01*
X835Y591D02*
X840Y591D01*
X861Y591D02*
X867Y591D01*
X884Y591D02*
X890Y591D01*
X903Y591D02*
X908Y591D01*
X149Y590D02*
X154Y590D01*
X162Y590D02*
X167Y590D01*
X197Y590D02*
X203Y590D01*
X216Y590D02*
X222Y590D01*
X835Y590D02*
X840Y590D01*
X861Y590D02*
X867Y590D01*
X884Y590D02*
X890Y590D01*
X903Y590D02*
X908Y590D01*
X148Y589D02*
X154Y589D01*
X162Y589D02*
X167Y589D01*
X198Y589D02*
X204Y589D01*
X216Y589D02*
X222Y589D01*
X835Y589D02*
X840Y589D01*
X861Y589D02*
X867Y589D01*
X884Y589D02*
X891Y589D01*
X903Y589D02*
X908Y589D01*
X148Y588D02*
X154Y588D01*
X162Y588D02*
X167Y588D01*
X198Y588D02*
X204Y588D01*
X216Y588D02*
X222Y588D01*
X835Y588D02*
X840Y588D01*
X861Y588D02*
X867Y588D01*
X885Y588D02*
X891Y588D01*
X903Y588D02*
X908Y588D01*
X148Y587D02*
X154Y587D01*
X162Y587D02*
X167Y587D01*
X198Y587D02*
X205Y587D01*
X216Y587D02*
X222Y587D01*
X835Y587D02*
X840Y587D01*
X861Y587D02*
X867Y587D01*
X885Y587D02*
X892Y587D01*
X903Y587D02*
X908Y587D01*
X148Y586D02*
X154Y586D01*
X162Y586D02*
X167Y586D01*
X199Y586D02*
X205Y586D01*
X216Y586D02*
X222Y586D01*
X835Y586D02*
X840Y586D01*
X861Y586D02*
X867Y586D01*
X886Y586D02*
X892Y586D01*
X903Y586D02*
X908Y586D01*
X148Y585D02*
X154Y585D01*
X162Y585D02*
X167Y585D01*
X199Y585D02*
X206Y585D01*
X216Y585D02*
X222Y585D01*
X835Y585D02*
X840Y585D01*
X861Y585D02*
X867Y585D01*
X886Y585D02*
X893Y585D01*
X903Y585D02*
X908Y585D01*
X148Y584D02*
X154Y584D01*
X162Y584D02*
X167Y584D01*
X200Y584D02*
X207Y584D01*
X216Y584D02*
X222Y584D01*
X835Y584D02*
X840Y584D01*
X861Y584D02*
X867Y584D01*
X887Y584D02*
X893Y584D01*
X903Y584D02*
X908Y584D01*
X148Y583D02*
X154Y583D01*
X162Y583D02*
X167Y583D01*
X200Y583D02*
X207Y583D01*
X216Y583D02*
X222Y583D01*
X835Y583D02*
X840Y583D01*
X861Y583D02*
X867Y583D01*
X887Y583D02*
X894Y583D01*
X903Y583D02*
X908Y583D01*
X148Y582D02*
X154Y582D01*
X162Y582D02*
X167Y582D01*
X201Y582D02*
X208Y582D01*
X216Y582D02*
X222Y582D01*
X835Y582D02*
X840Y582D01*
X861Y582D02*
X867Y582D01*
X888Y582D02*
X894Y582D01*
X903Y582D02*
X908Y582D01*
X148Y581D02*
X154Y581D01*
X162Y581D02*
X167Y581D01*
X201Y581D02*
X208Y581D01*
X216Y581D02*
X222Y581D01*
X835Y581D02*
X840Y581D01*
X861Y581D02*
X867Y581D01*
X888Y581D02*
X895Y581D01*
X903Y581D02*
X908Y581D01*
X148Y580D02*
X154Y580D01*
X162Y580D02*
X167Y580D01*
X202Y580D02*
X209Y580D01*
X216Y580D02*
X222Y580D01*
X835Y580D02*
X840Y580D01*
X861Y580D02*
X867Y580D01*
X889Y580D02*
X895Y580D01*
X903Y580D02*
X908Y580D01*
X148Y579D02*
X154Y579D01*
X162Y579D02*
X167Y579D01*
X202Y579D02*
X209Y579D01*
X216Y579D02*
X222Y579D01*
X835Y579D02*
X840Y579D01*
X861Y579D02*
X867Y579D01*
X889Y579D02*
X896Y579D01*
X903Y579D02*
X908Y579D01*
X148Y578D02*
X154Y578D01*
X162Y578D02*
X167Y578D01*
X203Y578D02*
X210Y578D01*
X216Y578D02*
X222Y578D01*
X835Y578D02*
X840Y578D01*
X861Y578D02*
X867Y578D01*
X890Y578D02*
X896Y578D01*
X903Y578D02*
X908Y578D01*
X148Y577D02*
X154Y577D01*
X162Y577D02*
X167Y577D01*
X203Y577D02*
X210Y577D01*
X216Y577D02*
X222Y577D01*
X835Y577D02*
X840Y577D01*
X861Y577D02*
X867Y577D01*
X890Y577D02*
X897Y577D01*
X903Y577D02*
X908Y577D01*
X148Y576D02*
X154Y576D01*
X162Y576D02*
X167Y576D01*
X204Y576D02*
X211Y576D01*
X216Y576D02*
X222Y576D01*
X835Y576D02*
X867Y576D01*
X891Y576D02*
X912Y576D01*
X148Y575D02*
X178Y575D01*
X204Y575D02*
X226Y575D01*
X835Y575D02*
X867Y575D01*
X891Y575D02*
X914Y575D01*
X148Y574D02*
X180Y574D01*
X205Y574D02*
X228Y574D01*
X835Y574D02*
X866Y574D01*
X892Y574D02*
X915Y574D01*
X148Y573D02*
X180Y573D01*
X206Y573D02*
X228Y573D01*
X835Y573D02*
X866Y573D01*
X892Y573D02*
X915Y573D01*
X148Y572D02*
X181Y572D01*
X206Y572D02*
X229Y572D01*
X836Y572D02*
X865Y572D01*
X893Y572D02*
X915Y572D01*
X149Y571D02*
X180Y571D01*
X207Y571D02*
X229Y571D01*
X837Y571D02*
X864Y571D01*
X895Y571D02*
X914Y571D01*
X149Y570D02*
X180Y570D01*
X208Y570D02*
X228Y570D01*
X839Y570D02*
X863Y570D01*
X897Y570D02*
X913Y570D01*
X150Y569D02*
X179Y569D01*
X211Y569D02*
X227Y569D01*
X835Y521D02*
X859Y521D01*
X895Y521D02*
X913Y521D01*
X153Y520D02*
X179Y520D01*
X211Y520D02*
X228Y520D01*
X834Y520D02*
X859Y520D01*
X894Y520D02*
X914Y520D01*
X151Y519D02*
X180Y519D01*
X209Y519D02*
X229Y519D01*
X834Y519D02*
X859Y519D01*
X892Y519D02*
X914Y519D01*
X150Y518D02*
X181Y518D01*
X208Y518D02*
X229Y518D01*
X834Y518D02*
X859Y518D01*
X892Y518D02*
X914Y518D01*
X150Y517D02*
X181Y517D01*
X207Y517D02*
X229Y517D01*
X834Y517D02*
X859Y517D01*
X891Y517D02*
X914Y517D01*
X149Y516D02*
X181Y516D01*
X206Y516D02*
X229Y516D01*
X835Y516D02*
X859Y516D01*
X890Y516D02*
X913Y516D01*
X149Y515D02*
X180Y515D01*
X205Y515D02*
X228Y515D01*
X854Y515D02*
X859Y515D01*
X890Y515D02*
X897Y515D01*
X902Y515D02*
X908Y515D01*
X149Y514D02*
X178Y514D01*
X205Y514D02*
X226Y514D01*
X854Y514D02*
X859Y514D01*
X889Y514D02*
X896Y514D01*
X902Y514D02*
X908Y514D01*
X149Y513D02*
X155Y513D01*
X204Y513D02*
X211Y513D01*
X217Y513D02*
X223Y513D01*
X854Y513D02*
X859Y513D01*
X889Y513D02*
X895Y513D01*
X902Y513D02*
X908Y513D01*
X149Y512D02*
X155Y512D01*
X204Y512D02*
X211Y512D01*
X217Y512D02*
X223Y512D01*
X854Y512D02*
X859Y512D01*
X888Y512D02*
X895Y512D01*
X902Y512D02*
X908Y512D01*
X149Y511D02*
X155Y511D01*
X203Y511D02*
X210Y511D01*
X217Y511D02*
X223Y511D01*
X854Y511D02*
X859Y511D01*
X888Y511D02*
X894Y511D01*
X902Y511D02*
X908Y511D01*
X149Y510D02*
X155Y510D01*
X203Y510D02*
X209Y510D01*
X217Y510D02*
X223Y510D01*
X854Y510D02*
X859Y510D01*
X887Y510D02*
X894Y510D01*
X902Y510D02*
X908Y510D01*
X149Y509D02*
X155Y509D01*
X202Y509D02*
X209Y509D01*
X217Y509D02*
X223Y509D01*
X854Y509D02*
X859Y509D01*
X887Y509D02*
X893Y509D01*
X902Y509D02*
X908Y509D01*
X149Y508D02*
X155Y508D01*
X202Y508D02*
X208Y508D01*
X217Y508D02*
X223Y508D01*
X854Y508D02*
X859Y508D01*
X886Y508D02*
X893Y508D01*
X902Y508D02*
X908Y508D01*
X149Y507D02*
X155Y507D01*
X201Y507D02*
X208Y507D01*
X217Y507D02*
X223Y507D01*
X854Y507D02*
X859Y507D01*
X886Y507D02*
X892Y507D01*
X902Y507D02*
X908Y507D01*
X149Y506D02*
X155Y506D01*
X201Y506D02*
X207Y506D01*
X217Y506D02*
X223Y506D01*
X854Y506D02*
X859Y506D01*
X885Y506D02*
X892Y506D01*
X902Y506D02*
X908Y506D01*
X149Y505D02*
X155Y505D01*
X200Y505D02*
X207Y505D01*
X217Y505D02*
X223Y505D01*
X854Y505D02*
X859Y505D01*
X885Y505D02*
X891Y505D01*
X902Y505D02*
X908Y505D01*
X149Y504D02*
X155Y504D01*
X200Y504D02*
X206Y504D01*
X217Y504D02*
X223Y504D01*
X854Y504D02*
X859Y504D01*
X884Y504D02*
X891Y504D01*
X902Y504D02*
X908Y504D01*
X149Y503D02*
X155Y503D01*
X199Y503D02*
X206Y503D01*
X217Y503D02*
X223Y503D01*
X854Y503D02*
X859Y503D01*
X884Y503D02*
X890Y503D01*
X902Y503D02*
X908Y503D01*
X149Y502D02*
X155Y502D01*
X199Y502D02*
X205Y502D01*
X217Y502D02*
X223Y502D01*
X854Y502D02*
X859Y502D01*
X883Y502D02*
X890Y502D01*
X902Y502D02*
X908Y502D01*
X149Y501D02*
X155Y501D01*
X198Y501D02*
X205Y501D01*
X217Y501D02*
X223Y501D01*
X854Y501D02*
X859Y501D01*
X883Y501D02*
X889Y501D01*
X902Y501D02*
X908Y501D01*
X149Y500D02*
X155Y500D01*
X198Y500D02*
X204Y500D01*
X217Y500D02*
X223Y500D01*
X854Y500D02*
X859Y500D01*
X883Y500D02*
X889Y500D01*
X902Y500D02*
X908Y500D01*
X149Y499D02*
X155Y499D01*
X198Y499D02*
X204Y499D01*
X217Y499D02*
X223Y499D01*
X839Y499D02*
X859Y499D01*
X882Y499D02*
X888Y499D01*
X902Y499D02*
X908Y499D01*
X149Y498D02*
X155Y498D01*
X197Y498D02*
X203Y498D01*
X217Y498D02*
X223Y498D01*
X837Y498D02*
X859Y498D01*
X882Y498D02*
X888Y498D01*
X902Y498D02*
X908Y498D01*
X149Y497D02*
X178Y497D01*
X197Y497D02*
X203Y497D01*
X217Y497D02*
X223Y497D01*
X836Y497D02*
X859Y497D01*
X882Y497D02*
X888Y497D01*
X902Y497D02*
X908Y497D01*
X149Y496D02*
X179Y496D01*
X197Y496D02*
X203Y496D01*
X217Y496D02*
X223Y496D01*
X835Y496D02*
X859Y496D01*
X882Y496D02*
X888Y496D01*
X902Y496D02*
X908Y496D01*
X150Y495D02*
X180Y495D01*
X197Y495D02*
X203Y495D01*
X217Y495D02*
X223Y495D01*
X834Y495D02*
X859Y495D01*
X882Y495D02*
X888Y495D01*
X902Y495D02*
X908Y495D01*
X150Y494D02*
X180Y494D01*
X197Y494D02*
X203Y494D01*
X217Y494D02*
X223Y494D01*
X834Y494D02*
X859Y494D01*
X882Y494D02*
X888Y494D01*
X902Y494D02*
X908Y494D01*
X151Y493D02*
X181Y493D01*
X197Y493D02*
X203Y493D01*
X217Y493D02*
X223Y493D01*
X834Y493D02*
X859Y493D01*
X882Y493D02*
X888Y493D01*
X902Y493D02*
X908Y493D01*
X153Y492D02*
X181Y492D01*
X197Y492D02*
X203Y492D01*
X217Y492D02*
X223Y492D01*
X834Y492D02*
X840Y492D01*
X883Y492D02*
X889Y492D01*
X902Y492D02*
X908Y492D01*
X175Y491D02*
X181Y491D01*
X197Y491D02*
X204Y491D01*
X217Y491D02*
X223Y491D01*
X834Y491D02*
X840Y491D01*
X883Y491D02*
X889Y491D01*
X902Y491D02*
X908Y491D01*
X175Y490D02*
X181Y490D01*
X198Y490D02*
X204Y490D01*
X217Y490D02*
X223Y490D01*
X834Y490D02*
X840Y490D01*
X883Y490D02*
X890Y490D01*
X902Y490D02*
X908Y490D01*
X175Y489D02*
X181Y489D01*
X198Y489D02*
X205Y489D01*
X217Y489D02*
X223Y489D01*
X834Y489D02*
X840Y489D01*
X884Y489D02*
X890Y489D01*
X902Y489D02*
X908Y489D01*
X175Y488D02*
X181Y488D01*
X199Y488D02*
X205Y488D01*
X217Y488D02*
X223Y488D01*
X834Y488D02*
X840Y488D01*
X884Y488D02*
X891Y488D01*
X902Y488D02*
X908Y488D01*
X175Y487D02*
X181Y487D01*
X199Y487D02*
X206Y487D01*
X217Y487D02*
X223Y487D01*
X834Y487D02*
X840Y487D01*
X885Y487D02*
X891Y487D01*
X902Y487D02*
X908Y487D01*
X175Y486D02*
X181Y486D01*
X200Y486D02*
X206Y486D01*
X217Y486D02*
X223Y486D01*
X834Y486D02*
X840Y486D01*
X885Y486D02*
X892Y486D01*
X902Y486D02*
X908Y486D01*
X175Y485D02*
X181Y485D01*
X200Y485D02*
X207Y485D01*
X217Y485D02*
X223Y485D01*
X834Y485D02*
X840Y485D01*
X886Y485D02*
X892Y485D01*
X902Y485D02*
X908Y485D01*
X175Y484D02*
X181Y484D01*
X201Y484D02*
X207Y484D01*
X217Y484D02*
X223Y484D01*
X834Y484D02*
X840Y484D01*
X886Y484D02*
X893Y484D01*
X902Y484D02*
X908Y484D01*
X175Y483D02*
X181Y483D01*
X201Y483D02*
X208Y483D01*
X217Y483D02*
X223Y483D01*
X834Y483D02*
X840Y483D01*
X887Y483D02*
X893Y483D01*
X902Y483D02*
X908Y483D01*
X175Y482D02*
X181Y482D01*
X202Y482D02*
X208Y482D01*
X217Y482D02*
X223Y482D01*
X834Y482D02*
X840Y482D01*
X887Y482D02*
X894Y482D01*
X902Y482D02*
X908Y482D01*
X175Y481D02*
X181Y481D01*
X202Y481D02*
X209Y481D01*
X217Y481D02*
X223Y481D01*
X834Y481D02*
X840Y481D01*
X888Y481D02*
X894Y481D01*
X902Y481D02*
X908Y481D01*
X175Y480D02*
X181Y480D01*
X202Y480D02*
X209Y480D01*
X217Y480D02*
X223Y480D01*
X834Y480D02*
X840Y480D01*
X888Y480D02*
X895Y480D01*
X902Y480D02*
X908Y480D01*
X175Y479D02*
X181Y479D01*
X203Y479D02*
X210Y479D01*
X217Y479D02*
X223Y479D01*
X834Y479D02*
X840Y479D01*
X862Y479D02*
X864Y479D01*
X889Y479D02*
X895Y479D01*
X902Y479D02*
X908Y479D01*
X175Y478D02*
X181Y478D01*
X203Y478D02*
X210Y478D01*
X217Y478D02*
X223Y478D01*
X834Y478D02*
X840Y478D01*
X859Y478D02*
X865Y478D01*
X889Y478D02*
X896Y478D01*
X902Y478D02*
X908Y478D01*
X175Y477D02*
X181Y477D01*
X204Y477D02*
X211Y477D01*
X217Y477D02*
X223Y477D01*
X834Y477D02*
X840Y477D01*
X857Y477D02*
X866Y477D01*
X890Y477D02*
X897Y477D01*
X902Y477D02*
X908Y477D01*
X175Y476D02*
X181Y476D01*
X204Y476D02*
X212Y476D01*
X217Y476D02*
X223Y476D01*
X834Y476D02*
X866Y476D01*
X890Y476D02*
X913Y476D01*
X151Y475D02*
X181Y475D01*
X205Y475D02*
X227Y475D01*
X834Y475D02*
X866Y475D01*
X891Y475D02*
X914Y475D01*
X150Y474D02*
X181Y474D01*
X206Y474D02*
X228Y474D01*
X834Y474D02*
X865Y474D01*
X891Y474D02*
X914Y474D01*
X149Y473D02*
X181Y473D01*
X206Y473D02*
X229Y473D01*
X835Y473D02*
X864Y473D01*
X892Y473D02*
X914Y473D01*
X149Y472D02*
X181Y472D01*
X207Y472D02*
X229Y472D01*
X836Y472D02*
X862Y472D01*
X893Y472D02*
X914Y472D01*
X149Y471D02*
X181Y471D01*
X208Y471D02*
X229Y471D01*
X837Y471D02*
X860Y471D01*
X895Y471D02*
X913Y471D01*
X150Y470D02*
X181Y470D01*
X209Y470D02*
X228Y470D01*
X841Y470D02*
X855Y470D01*
X899Y470D02*
X911Y470D01*
X151Y469D02*
X181Y469D01*
X212Y469D02*
X227Y469D01*
X858Y422D02*
X864Y422D01*
X895Y422D02*
X912Y422D01*
X857Y421D02*
X865Y421D01*
X893Y421D02*
X913Y421D01*
X153Y420D02*
X178Y420D01*
X211Y420D02*
X227Y420D01*
X856Y420D02*
X865Y420D01*
X892Y420D02*
X913Y420D01*
X151Y419D02*
X180Y419D01*
X209Y419D02*
X228Y419D01*
X856Y419D02*
X865Y419D01*
X891Y419D02*
X913Y419D01*
X150Y418D02*
X180Y418D01*
X208Y418D02*
X228Y418D01*
X857Y418D02*
X865Y418D01*
X890Y418D02*
X913Y418D01*
X149Y417D02*
X180Y417D01*
X206Y417D02*
X229Y417D01*
X857Y417D02*
X865Y417D01*
X890Y417D02*
X912Y417D01*
X149Y416D02*
X180Y416D01*
X206Y416D02*
X228Y416D01*
X859Y416D02*
X865Y416D01*
X889Y416D02*
X911Y416D01*
X148Y415D02*
X180Y415D01*
X205Y415D02*
X228Y415D01*
X860Y415D02*
X865Y415D01*
X889Y415D02*
X896Y415D01*
X901Y415D02*
X907Y415D01*
X148Y414D02*
X178Y414D01*
X204Y414D02*
X227Y414D01*
X860Y414D02*
X865Y414D01*
X888Y414D02*
X895Y414D01*
X901Y414D02*
X907Y414D01*
X148Y413D02*
X154Y413D01*
X204Y413D02*
X211Y413D01*
X216Y413D02*
X222Y413D01*
X860Y413D02*
X865Y413D01*
X888Y413D02*
X894Y413D01*
X901Y413D02*
X907Y413D01*
X148Y412D02*
X154Y412D01*
X203Y412D02*
X210Y412D01*
X216Y412D02*
X222Y412D01*
X860Y412D02*
X865Y412D01*
X887Y412D02*
X894Y412D01*
X901Y412D02*
X907Y412D01*
X148Y411D02*
X154Y411D01*
X203Y411D02*
X210Y411D01*
X216Y411D02*
X222Y411D01*
X860Y411D02*
X865Y411D01*
X887Y411D02*
X893Y411D01*
X901Y411D02*
X907Y411D01*
X148Y410D02*
X154Y410D01*
X202Y410D02*
X209Y410D01*
X216Y410D02*
X222Y410D01*
X860Y410D02*
X865Y410D01*
X886Y410D02*
X893Y410D01*
X901Y410D02*
X907Y410D01*
X148Y409D02*
X154Y409D01*
X202Y409D02*
X209Y409D01*
X216Y409D02*
X222Y409D01*
X860Y409D02*
X865Y409D01*
X886Y409D02*
X892Y409D01*
X901Y409D02*
X907Y409D01*
X148Y408D02*
X154Y408D01*
X201Y408D02*
X208Y408D01*
X216Y408D02*
X222Y408D01*
X860Y408D02*
X865Y408D01*
X885Y408D02*
X892Y408D01*
X901Y408D02*
X907Y408D01*
X148Y407D02*
X154Y407D01*
X201Y407D02*
X208Y407D01*
X216Y407D02*
X222Y407D01*
X860Y407D02*
X865Y407D01*
X885Y407D02*
X891Y407D01*
X901Y407D02*
X907Y407D01*
X148Y406D02*
X154Y406D01*
X200Y406D02*
X207Y406D01*
X216Y406D02*
X222Y406D01*
X860Y406D02*
X865Y406D01*
X884Y406D02*
X891Y406D01*
X901Y406D02*
X907Y406D01*
X148Y405D02*
X154Y405D01*
X200Y405D02*
X206Y405D01*
X216Y405D02*
X222Y405D01*
X860Y405D02*
X865Y405D01*
X884Y405D02*
X890Y405D01*
X901Y405D02*
X907Y405D01*
X148Y404D02*
X154Y404D01*
X199Y404D02*
X206Y404D01*
X216Y404D02*
X222Y404D01*
X860Y404D02*
X865Y404D01*
X883Y404D02*
X890Y404D01*
X901Y404D02*
X907Y404D01*
X148Y403D02*
X154Y403D01*
X199Y403D02*
X205Y403D01*
X216Y403D02*
X222Y403D01*
X860Y403D02*
X865Y403D01*
X883Y403D02*
X889Y403D01*
X901Y403D02*
X907Y403D01*
X148Y402D02*
X154Y402D01*
X198Y402D02*
X205Y402D01*
X216Y402D02*
X222Y402D01*
X860Y402D02*
X865Y402D01*
X882Y402D02*
X889Y402D01*
X901Y402D02*
X907Y402D01*
X148Y401D02*
X154Y401D01*
X198Y401D02*
X204Y401D01*
X216Y401D02*
X222Y401D01*
X860Y401D02*
X865Y401D01*
X882Y401D02*
X888Y401D01*
X901Y401D02*
X907Y401D01*
X148Y400D02*
X154Y400D01*
X198Y400D02*
X204Y400D01*
X216Y400D02*
X222Y400D01*
X860Y400D02*
X865Y400D01*
X882Y400D02*
X888Y400D01*
X901Y400D02*
X907Y400D01*
X149Y399D02*
X155Y399D01*
X197Y399D02*
X203Y399D01*
X216Y399D02*
X222Y399D01*
X860Y399D02*
X865Y399D01*
X881Y399D02*
X887Y399D01*
X901Y399D02*
X907Y399D01*
X149Y398D02*
X156Y398D01*
X197Y398D02*
X203Y398D01*
X216Y398D02*
X222Y398D01*
X860Y398D02*
X865Y398D01*
X881Y398D02*
X887Y398D01*
X901Y398D02*
X907Y398D01*
X149Y397D02*
X173Y397D01*
X197Y397D02*
X203Y397D01*
X216Y397D02*
X222Y397D01*
X860Y397D02*
X865Y397D01*
X881Y397D02*
X887Y397D01*
X901Y397D02*
X907Y397D01*
X150Y396D02*
X173Y396D01*
X197Y396D02*
X202Y396D01*
X216Y396D02*
X222Y396D01*
X860Y396D02*
X865Y396D01*
X881Y396D02*
X887Y396D01*
X901Y396D02*
X907Y396D01*
X150Y395D02*
X174Y395D01*
X196Y395D02*
X202Y395D01*
X216Y395D02*
X222Y395D01*
X860Y395D02*
X865Y395D01*
X881Y395D02*
X887Y395D01*
X901Y395D02*
X907Y395D01*
X151Y394D02*
X174Y394D01*
X196Y394D02*
X202Y394D01*
X216Y394D02*
X222Y394D01*
X835Y394D02*
X865Y394D01*
X882Y394D02*
X887Y394D01*
X901Y394D02*
X907Y394D01*
X150Y393D02*
X173Y393D01*
X197Y393D02*
X202Y393D01*
X216Y393D02*
X222Y393D01*
X834Y393D02*
X865Y393D01*
X882Y393D02*
X888Y393D01*
X901Y393D02*
X907Y393D01*
X149Y392D02*
X173Y392D01*
X197Y392D02*
X203Y392D01*
X216Y392D02*
X222Y392D01*
X833Y392D02*
X865Y392D01*
X882Y392D02*
X888Y392D01*
X901Y392D02*
X907Y392D01*
X149Y391D02*
X157Y391D01*
X197Y391D02*
X203Y391D01*
X216Y391D02*
X222Y391D01*
X833Y391D02*
X865Y391D01*
X882Y391D02*
X889Y391D01*
X901Y391D02*
X907Y391D01*
X149Y390D02*
X155Y390D01*
X197Y390D02*
X203Y390D01*
X216Y390D02*
X222Y390D01*
X833Y390D02*
X865Y390D01*
X883Y390D02*
X889Y390D01*
X901Y390D02*
X907Y390D01*
X148Y389D02*
X154Y389D01*
X198Y389D02*
X204Y389D01*
X216Y389D02*
X222Y389D01*
X833Y389D02*
X865Y389D01*
X883Y389D02*
X890Y389D01*
X901Y389D02*
X907Y389D01*
X148Y388D02*
X154Y388D01*
X198Y388D02*
X204Y388D01*
X216Y388D02*
X222Y388D01*
X833Y388D02*
X865Y388D01*
X884Y388D02*
X890Y388D01*
X901Y388D02*
X907Y388D01*
X148Y387D02*
X154Y387D01*
X198Y387D02*
X205Y387D01*
X216Y387D02*
X222Y387D01*
X833Y387D02*
X839Y387D01*
X860Y387D02*
X865Y387D01*
X884Y387D02*
X891Y387D01*
X901Y387D02*
X907Y387D01*
X148Y386D02*
X154Y386D01*
X199Y386D02*
X205Y386D01*
X216Y386D02*
X222Y386D01*
X833Y386D02*
X839Y386D01*
X860Y386D02*
X865Y386D01*
X885Y386D02*
X891Y386D01*
X901Y386D02*
X907Y386D01*
X148Y385D02*
X154Y385D01*
X199Y385D02*
X206Y385D01*
X216Y385D02*
X222Y385D01*
X833Y385D02*
X839Y385D01*
X860Y385D02*
X865Y385D01*
X885Y385D02*
X892Y385D01*
X901Y385D02*
X907Y385D01*
X148Y384D02*
X154Y384D01*
X200Y384D02*
X206Y384D01*
X216Y384D02*
X222Y384D01*
X833Y384D02*
X839Y384D01*
X860Y384D02*
X865Y384D01*
X886Y384D02*
X892Y384D01*
X901Y384D02*
X907Y384D01*
X148Y383D02*
X154Y383D01*
X200Y383D02*
X207Y383D01*
X216Y383D02*
X222Y383D01*
X833Y383D02*
X839Y383D01*
X860Y383D02*
X865Y383D01*
X886Y383D02*
X893Y383D01*
X901Y383D02*
X907Y383D01*
X148Y382D02*
X154Y382D01*
X201Y382D02*
X207Y382D01*
X216Y382D02*
X222Y382D01*
X833Y382D02*
X839Y382D01*
X860Y382D02*
X865Y382D01*
X887Y382D02*
X893Y382D01*
X901Y382D02*
X907Y382D01*
X148Y381D02*
X154Y381D01*
X201Y381D02*
X208Y381D01*
X216Y381D02*
X222Y381D01*
X833Y381D02*
X839Y381D01*
X860Y381D02*
X865Y381D01*
X887Y381D02*
X894Y381D01*
X901Y381D02*
X907Y381D01*
X148Y380D02*
X154Y380D01*
X202Y380D02*
X208Y380D01*
X216Y380D02*
X222Y380D01*
X833Y380D02*
X839Y380D01*
X860Y380D02*
X865Y380D01*
X888Y380D02*
X894Y380D01*
X901Y380D02*
X907Y380D01*
X148Y379D02*
X154Y379D01*
X202Y379D02*
X209Y379D01*
X216Y379D02*
X222Y379D01*
X833Y379D02*
X839Y379D01*
X860Y379D02*
X865Y379D01*
X888Y379D02*
X895Y379D01*
X901Y379D02*
X907Y379D01*
X148Y378D02*
X154Y378D01*
X203Y378D02*
X209Y378D01*
X216Y378D02*
X222Y378D01*
X833Y378D02*
X839Y378D01*
X860Y378D02*
X865Y378D01*
X889Y378D02*
X896Y378D01*
X901Y378D02*
X907Y378D01*
X148Y377D02*
X154Y377D01*
X203Y377D02*
X210Y377D01*
X216Y377D02*
X222Y377D01*
X833Y377D02*
X865Y377D01*
X889Y377D02*
X911Y377D01*
X148Y376D02*
X154Y376D01*
X204Y376D02*
X211Y376D01*
X216Y376D02*
X222Y376D01*
X833Y376D02*
X865Y376D01*
X890Y376D02*
X913Y376D01*
X148Y375D02*
X178Y375D01*
X204Y375D02*
X226Y375D01*
X833Y375D02*
X865Y375D01*
X890Y375D02*
X913Y375D01*
X148Y374D02*
X179Y374D01*
X205Y374D02*
X228Y374D01*
X833Y374D02*
X865Y374D01*
X891Y374D02*
X913Y374D01*
X149Y373D02*
X180Y373D01*
X205Y373D02*
X228Y373D01*
X833Y373D02*
X865Y373D01*
X892Y373D02*
X913Y373D01*
X149Y372D02*
X180Y372D01*
X206Y372D02*
X229Y372D01*
X834Y372D02*
X865Y372D01*
X894Y372D02*
X913Y372D01*
X150Y371D02*
X180Y371D01*
X207Y371D02*
X228Y371D01*
X835Y371D02*
X863Y371D01*
X896Y371D02*
X911Y371D01*
X151Y370D02*
X180Y370D01*
X208Y370D02*
X228Y370D01*
X152Y369D02*
X179Y369D01*
X211Y369D02*
X227Y369D01*
X832Y322D02*
X863Y322D01*
X895Y322D02*
X911Y322D01*
X832Y321D02*
X864Y321D01*
X893Y321D02*
X912Y321D01*
X175Y320D02*
X178Y320D01*
X211Y320D02*
X211Y320D01*
X832Y320D02*
X864Y320D01*
X892Y320D02*
X912Y320D01*
X174Y319D02*
X179Y319D01*
X209Y319D02*
X211Y319D01*
X832Y319D02*
X864Y319D01*
X890Y319D02*
X913Y319D01*
X174Y318D02*
X179Y318D01*
X208Y318D02*
X211Y318D01*
X832Y318D02*
X864Y318D01*
X890Y318D02*
X912Y318D01*
X174Y317D02*
X179Y317D01*
X207Y317D02*
X211Y317D01*
X832Y317D02*
X864Y317D01*
X889Y317D02*
X912Y317D01*
X174Y316D02*
X179Y316D01*
X206Y316D02*
X211Y316D01*
X832Y316D02*
X864Y316D01*
X888Y316D02*
X911Y316D01*
X174Y315D02*
X179Y315D01*
X205Y315D02*
X211Y315D01*
X832Y315D02*
X838Y315D01*
X859Y315D02*
X864Y315D01*
X888Y315D02*
X895Y315D01*
X900Y315D02*
X906Y315D01*
X155Y314D02*
X158Y314D01*
X174Y314D02*
X179Y314D01*
X205Y314D02*
X211Y314D01*
X832Y314D02*
X838Y314D01*
X860Y314D02*
X864Y314D01*
X887Y314D02*
X894Y314D01*
X900Y314D02*
X906Y314D01*
X154Y313D02*
X159Y313D01*
X174Y313D02*
X179Y313D01*
X204Y313D02*
X211Y313D01*
X832Y313D02*
X838Y313D01*
X862Y313D02*
X862Y313D01*
X887Y313D02*
X894Y313D01*
X900Y313D02*
X906Y313D01*
X154Y312D02*
X159Y312D01*
X174Y312D02*
X179Y312D01*
X204Y312D02*
X211Y312D01*
X832Y312D02*
X838Y312D01*
X886Y312D02*
X893Y312D01*
X900Y312D02*
X906Y312D01*
X154Y311D02*
X160Y311D01*
X174Y311D02*
X179Y311D01*
X203Y311D02*
X210Y311D01*
X832Y311D02*
X838Y311D01*
X886Y311D02*
X893Y311D01*
X900Y311D02*
X906Y311D01*
X154Y310D02*
X160Y310D01*
X174Y310D02*
X179Y310D01*
X203Y310D02*
X209Y310D01*
X832Y310D02*
X838Y310D01*
X885Y310D02*
X892Y310D01*
X900Y310D02*
X906Y310D01*
X154Y309D02*
X160Y309D01*
X174Y309D02*
X179Y309D01*
X202Y309D02*
X209Y309D01*
X832Y309D02*
X838Y309D01*
X885Y309D02*
X891Y309D01*
X900Y309D02*
X906Y309D01*
X154Y308D02*
X160Y308D01*
X174Y308D02*
X179Y308D01*
X202Y308D02*
X208Y308D01*
X832Y308D02*
X838Y308D01*
X884Y308D02*
X891Y308D01*
X900Y308D02*
X906Y308D01*
X154Y307D02*
X160Y307D01*
X174Y307D02*
X179Y307D01*
X201Y307D02*
X208Y307D01*
X832Y307D02*
X838Y307D01*
X884Y307D02*
X890Y307D01*
X900Y307D02*
X906Y307D01*
X154Y306D02*
X160Y306D01*
X174Y306D02*
X179Y306D01*
X201Y306D02*
X207Y306D01*
X832Y306D02*
X838Y306D01*
X883Y306D02*
X890Y306D01*
X900Y306D02*
X906Y306D01*
X154Y305D02*
X160Y305D01*
X174Y305D02*
X179Y305D01*
X200Y305D02*
X207Y305D01*
X832Y305D02*
X838Y305D01*
X883Y305D02*
X889Y305D01*
X900Y305D02*
X906Y305D01*
X154Y304D02*
X160Y304D01*
X174Y304D02*
X179Y304D01*
X200Y304D02*
X206Y304D01*
X832Y304D02*
X838Y304D01*
X882Y304D02*
X889Y304D01*
X900Y304D02*
X906Y304D01*
X154Y303D02*
X160Y303D01*
X174Y303D02*
X179Y303D01*
X199Y303D02*
X206Y303D01*
X832Y303D02*
X839Y303D01*
X882Y303D02*
X888Y303D01*
X900Y303D02*
X906Y303D01*
X154Y302D02*
X160Y302D01*
X174Y302D02*
X179Y302D01*
X199Y302D02*
X205Y302D01*
X832Y302D02*
X840Y302D01*
X882Y302D02*
X888Y302D01*
X900Y302D02*
X906Y302D01*
X154Y301D02*
X160Y301D01*
X174Y301D02*
X179Y301D01*
X198Y301D02*
X205Y301D01*
X833Y301D02*
X841Y301D01*
X881Y301D02*
X887Y301D01*
X900Y301D02*
X906Y301D01*
X154Y300D02*
X160Y300D01*
X174Y300D02*
X179Y300D01*
X198Y300D02*
X204Y300D01*
X833Y300D02*
X842Y300D01*
X881Y300D02*
X887Y300D01*
X900Y300D02*
X906Y300D01*
X154Y299D02*
X160Y299D01*
X174Y299D02*
X179Y299D01*
X198Y299D02*
X204Y299D01*
X834Y299D02*
X843Y299D01*
X881Y299D02*
X887Y299D01*
X900Y299D02*
X906Y299D01*
X154Y298D02*
X160Y298D01*
X174Y298D02*
X179Y298D01*
X197Y298D02*
X203Y298D01*
X835Y298D02*
X845Y298D01*
X881Y298D02*
X886Y298D01*
X900Y298D02*
X906Y298D01*
X154Y297D02*
X160Y297D01*
X174Y297D02*
X179Y297D01*
X197Y297D02*
X203Y297D01*
X836Y297D02*
X846Y297D01*
X880Y297D02*
X886Y297D01*
X900Y297D02*
X906Y297D01*
X154Y296D02*
X160Y296D01*
X174Y296D02*
X179Y296D01*
X197Y296D02*
X203Y296D01*
X838Y296D02*
X847Y296D01*
X880Y296D02*
X886Y296D01*
X900Y296D02*
X906Y296D01*
X154Y295D02*
X160Y295D01*
X174Y295D02*
X179Y295D01*
X197Y295D02*
X203Y295D01*
X839Y295D02*
X848Y295D01*
X881Y295D02*
X886Y295D01*
X900Y295D02*
X906Y295D01*
X154Y294D02*
X160Y294D01*
X174Y294D02*
X179Y294D01*
X197Y294D02*
X203Y294D01*
X840Y294D02*
X849Y294D01*
X881Y294D02*
X887Y294D01*
X900Y294D02*
X906Y294D01*
X154Y293D02*
X160Y293D01*
X174Y293D02*
X179Y293D01*
X197Y293D02*
X203Y293D01*
X841Y293D02*
X850Y293D01*
X881Y293D02*
X887Y293D01*
X900Y293D02*
X906Y293D01*
X153Y292D02*
X179Y292D01*
X197Y292D02*
X203Y292D01*
X842Y292D02*
X851Y292D01*
X881Y292D02*
X887Y292D01*
X900Y292D02*
X906Y292D01*
X151Y291D02*
X179Y291D01*
X197Y291D02*
X204Y291D01*
X844Y291D02*
X851Y291D01*
X882Y291D02*
X888Y291D01*
X900Y291D02*
X906Y291D01*
X151Y290D02*
X179Y290D01*
X198Y290D02*
X204Y290D01*
X845Y290D02*
X851Y290D01*
X882Y290D02*
X888Y290D01*
X900Y290D02*
X906Y290D01*
X151Y289D02*
X179Y289D01*
X198Y289D02*
X205Y289D01*
X846Y289D02*
X851Y289D01*
X882Y289D02*
X889Y289D01*
X900Y289D02*
X906Y289D01*
X151Y288D02*
X179Y288D01*
X199Y288D02*
X205Y288D01*
X846Y288D02*
X851Y288D01*
X883Y288D02*
X889Y288D01*
X900Y288D02*
X906Y288D01*
X151Y287D02*
X179Y287D01*
X199Y287D02*
X206Y287D01*
X846Y287D02*
X851Y287D01*
X883Y287D02*
X890Y287D01*
X900Y287D02*
X906Y287D01*
X152Y286D02*
X179Y286D01*
X199Y286D02*
X206Y286D01*
X846Y286D02*
X851Y286D01*
X884Y286D02*
X890Y286D01*
X900Y286D02*
X906Y286D01*
X154Y285D02*
X160Y285D01*
X200Y285D02*
X207Y285D01*
X846Y285D02*
X851Y285D01*
X884Y285D02*
X891Y285D01*
X900Y285D02*
X906Y285D01*
X154Y284D02*
X160Y284D01*
X200Y284D02*
X207Y284D01*
X846Y284D02*
X851Y284D01*
X885Y284D02*
X891Y284D01*
X900Y284D02*
X906Y284D01*
X154Y283D02*
X160Y283D01*
X201Y283D02*
X208Y283D01*
X846Y283D02*
X851Y283D01*
X885Y283D02*
X892Y283D01*
X900Y283D02*
X906Y283D01*
X154Y282D02*
X160Y282D01*
X201Y282D02*
X208Y282D01*
X846Y282D02*
X851Y282D01*
X886Y282D02*
X892Y282D01*
X900Y282D02*
X906Y282D01*
X154Y281D02*
X160Y281D01*
X202Y281D02*
X209Y281D01*
X846Y281D02*
X851Y281D01*
X886Y281D02*
X893Y281D01*
X900Y281D02*
X906Y281D01*
X154Y280D02*
X160Y280D01*
X202Y280D02*
X209Y280D01*
X846Y280D02*
X851Y280D01*
X887Y280D02*
X893Y280D01*
X900Y280D02*
X906Y280D01*
X154Y279D02*
X160Y279D01*
X203Y279D02*
X210Y279D01*
X846Y279D02*
X851Y279D01*
X887Y279D02*
X894Y279D01*
X900Y279D02*
X906Y279D01*
X154Y278D02*
X160Y278D01*
X203Y278D02*
X210Y278D01*
X846Y278D02*
X851Y278D01*
X888Y278D02*
X895Y278D01*
X900Y278D02*
X906Y278D01*
X154Y277D02*
X160Y277D01*
X204Y277D02*
X211Y277D01*
X217Y277D02*
X223Y277D01*
X846Y277D02*
X851Y277D01*
X888Y277D02*
X910Y277D01*
X154Y276D02*
X160Y276D01*
X204Y276D02*
X211Y276D01*
X217Y276D02*
X223Y276D01*
X846Y276D02*
X851Y276D01*
X889Y276D02*
X912Y276D01*
X154Y275D02*
X160Y275D01*
X205Y275D02*
X227Y275D01*
X846Y275D02*
X851Y275D01*
X889Y275D02*
X912Y275D01*
X154Y274D02*
X160Y274D01*
X205Y274D02*
X228Y274D01*
X846Y274D02*
X851Y274D01*
X890Y274D02*
X913Y274D01*
X154Y273D02*
X160Y273D01*
X206Y273D02*
X229Y273D01*
X846Y273D02*
X851Y273D01*
X891Y273D02*
X912Y273D01*
X154Y272D02*
X160Y272D01*
X207Y272D02*
X229Y272D01*
X846Y272D02*
X851Y272D01*
X893Y272D02*
X912Y272D01*
X154Y271D02*
X159Y271D01*
X208Y271D02*
X229Y271D01*
X847Y271D02*
X850Y271D01*
X895Y271D02*
X911Y271D01*
X155Y270D02*
X159Y270D01*
X209Y270D02*
X228Y270D01*
X156Y269D02*
X158Y269D01*
X212Y269D02*
X227Y269D01*
X843Y222D02*
X857Y222D01*
X897Y222D02*
X912Y222D01*
X841Y221D02*
X859Y221D01*
X895Y221D02*
X913Y221D01*
X841Y220D02*
X859Y220D01*
X893Y220D02*
X914Y220D01*
X841Y219D02*
X859Y219D01*
X892Y219D02*
X914Y219D01*
X165Y218D02*
X180Y218D01*
X200Y218D02*
X202Y218D01*
X841Y218D02*
X859Y218D01*
X891Y218D02*
X914Y218D01*
X163Y217D02*
X181Y217D01*
X199Y217D02*
X203Y217D01*
X841Y217D02*
X859Y217D01*
X891Y217D02*
X913Y217D01*
X161Y216D02*
X182Y216D01*
X198Y216D02*
X204Y216D01*
X841Y216D02*
X859Y216D01*
X890Y216D02*
X912Y216D01*
X160Y215D02*
X182Y215D01*
X198Y215D02*
X204Y215D01*
X841Y215D02*
X846Y215D01*
X854Y215D02*
X859Y215D01*
X890Y215D02*
X897Y215D01*
X902Y215D02*
X908Y215D01*
X159Y214D02*
X182Y214D01*
X198Y214D02*
X204Y214D01*
X841Y214D02*
X846Y214D01*
X854Y214D02*
X859Y214D01*
X889Y214D02*
X896Y214D01*
X902Y214D02*
X908Y214D01*
X159Y213D02*
X181Y213D01*
X198Y213D02*
X204Y213D01*
X841Y213D02*
X846Y213D01*
X854Y213D02*
X859Y213D01*
X889Y213D02*
X895Y213D01*
X902Y213D02*
X908Y213D01*
X158Y212D02*
X180Y212D01*
X198Y212D02*
X204Y212D01*
X841Y212D02*
X846Y212D01*
X854Y212D02*
X859Y212D01*
X888Y212D02*
X895Y212D01*
X902Y212D02*
X908Y212D01*
X158Y211D02*
X165Y211D01*
X170Y211D02*
X176Y211D01*
X198Y211D02*
X204Y211D01*
X841Y211D02*
X846Y211D01*
X854Y211D02*
X859Y211D01*
X888Y211D02*
X894Y211D01*
X902Y211D02*
X908Y211D01*
X157Y210D02*
X164Y210D01*
X170Y210D02*
X176Y210D01*
X198Y210D02*
X204Y210D01*
X841Y210D02*
X846Y210D01*
X854Y210D02*
X859Y210D01*
X887Y210D02*
X894Y210D01*
X902Y210D02*
X908Y210D01*
X157Y209D02*
X163Y209D01*
X170Y209D02*
X176Y209D01*
X198Y209D02*
X204Y209D01*
X841Y209D02*
X846Y209D01*
X854Y209D02*
X859Y209D01*
X887Y209D02*
X893Y209D01*
X902Y209D02*
X908Y209D01*
X156Y208D02*
X163Y208D01*
X170Y208D02*
X176Y208D01*
X198Y208D02*
X204Y208D01*
X841Y208D02*
X846Y208D01*
X854Y208D02*
X859Y208D01*
X886Y208D02*
X893Y208D01*
X902Y208D02*
X908Y208D01*
X156Y207D02*
X162Y207D01*
X170Y207D02*
X176Y207D01*
X198Y207D02*
X204Y207D01*
X841Y207D02*
X846Y207D01*
X854Y207D02*
X859Y207D01*
X886Y207D02*
X892Y207D01*
X902Y207D02*
X908Y207D01*
X155Y206D02*
X162Y206D01*
X170Y206D02*
X176Y206D01*
X198Y206D02*
X204Y206D01*
X841Y206D02*
X846Y206D01*
X854Y206D02*
X859Y206D01*
X885Y206D02*
X892Y206D01*
X902Y206D02*
X908Y206D01*
X155Y205D02*
X161Y205D01*
X170Y205D02*
X176Y205D01*
X198Y205D02*
X204Y205D01*
X841Y205D02*
X846Y205D01*
X854Y205D02*
X859Y205D01*
X885Y205D02*
X891Y205D01*
X902Y205D02*
X908Y205D01*
X154Y204D02*
X161Y204D01*
X170Y204D02*
X176Y204D01*
X198Y204D02*
X204Y204D01*
X841Y204D02*
X846Y204D01*
X854Y204D02*
X859Y204D01*
X884Y204D02*
X891Y204D01*
X902Y204D02*
X908Y204D01*
X154Y203D02*
X160Y203D01*
X170Y203D02*
X176Y203D01*
X198Y203D02*
X204Y203D01*
X841Y203D02*
X846Y203D01*
X854Y203D02*
X859Y203D01*
X884Y203D02*
X890Y203D01*
X902Y203D02*
X908Y203D01*
X153Y202D02*
X160Y202D01*
X170Y202D02*
X176Y202D01*
X198Y202D02*
X204Y202D01*
X215Y202D02*
X215Y202D01*
X841Y202D02*
X846Y202D01*
X854Y202D02*
X859Y202D01*
X883Y202D02*
X890Y202D01*
X902Y202D02*
X908Y202D01*
X153Y201D02*
X159Y201D01*
X170Y201D02*
X176Y201D01*
X198Y201D02*
X204Y201D01*
X215Y201D02*
X215Y201D01*
X841Y201D02*
X846Y201D01*
X854Y201D02*
X859Y201D01*
X883Y201D02*
X889Y201D01*
X902Y201D02*
X908Y201D01*
X152Y200D02*
X159Y200D01*
X170Y200D02*
X176Y200D01*
X198Y200D02*
X204Y200D01*
X214Y200D02*
X216Y200D01*
X840Y200D02*
X846Y200D01*
X854Y200D02*
X859Y200D01*
X883Y200D02*
X889Y200D01*
X902Y200D02*
X908Y200D01*
X152Y199D02*
X158Y199D01*
X170Y199D02*
X176Y199D01*
X198Y199D02*
X204Y199D01*
X214Y199D02*
X216Y199D01*
X838Y199D02*
X862Y199D01*
X882Y199D02*
X888Y199D01*
X902Y199D02*
X908Y199D01*
X151Y198D02*
X158Y198D01*
X170Y198D02*
X176Y198D01*
X198Y198D02*
X204Y198D01*
X214Y198D02*
X217Y198D01*
X836Y198D02*
X864Y198D01*
X882Y198D02*
X888Y198D01*
X902Y198D02*
X908Y198D01*
X151Y197D02*
X157Y197D01*
X170Y197D02*
X176Y197D01*
X198Y197D02*
X204Y197D01*
X213Y197D02*
X218Y197D01*
X835Y197D02*
X865Y197D01*
X882Y197D02*
X888Y197D01*
X902Y197D02*
X908Y197D01*
X151Y196D02*
X157Y196D01*
X170Y196D02*
X176Y196D01*
X198Y196D02*
X204Y196D01*
X213Y196D02*
X218Y196D01*
X835Y196D02*
X865Y196D01*
X882Y196D02*
X888Y196D01*
X902Y196D02*
X908Y196D01*
X150Y195D02*
X156Y195D01*
X170Y195D02*
X176Y195D01*
X198Y195D02*
X204Y195D01*
X212Y195D02*
X219Y195D01*
X834Y195D02*
X866Y195D01*
X882Y195D02*
X888Y195D01*
X902Y195D02*
X908Y195D01*
X150Y194D02*
X156Y194D01*
X170Y194D02*
X176Y194D01*
X198Y194D02*
X204Y194D01*
X212Y194D02*
X218Y194D01*
X834Y194D02*
X866Y194D01*
X882Y194D02*
X888Y194D01*
X902Y194D02*
X908Y194D01*
X150Y193D02*
X156Y193D01*
X170Y193D02*
X176Y193D01*
X198Y193D02*
X204Y193D01*
X211Y193D02*
X218Y193D01*
X834Y193D02*
X866Y193D01*
X882Y193D02*
X888Y193D01*
X902Y193D02*
X908Y193D01*
X150Y192D02*
X156Y192D01*
X170Y192D02*
X176Y192D01*
X198Y192D02*
X204Y192D01*
X211Y192D02*
X217Y192D01*
X834Y192D02*
X840Y192D01*
X860Y192D02*
X866Y192D01*
X883Y192D02*
X889Y192D01*
X902Y192D02*
X908Y192D01*
X150Y191D02*
X156Y191D01*
X170Y191D02*
X176Y191D01*
X198Y191D02*
X204Y191D01*
X210Y191D02*
X217Y191D01*
X834Y191D02*
X840Y191D01*
X860Y191D02*
X866Y191D01*
X883Y191D02*
X889Y191D01*
X902Y191D02*
X908Y191D01*
X150Y190D02*
X156Y190D01*
X170Y190D02*
X176Y190D01*
X198Y190D02*
X204Y190D01*
X210Y190D02*
X216Y190D01*
X834Y190D02*
X840Y190D01*
X860Y190D02*
X866Y190D01*
X883Y190D02*
X890Y190D01*
X902Y190D02*
X908Y190D01*
X150Y189D02*
X157Y189D01*
X170Y189D02*
X176Y189D01*
X198Y189D02*
X204Y189D01*
X210Y189D02*
X216Y189D01*
X834Y189D02*
X840Y189D01*
X860Y189D02*
X866Y189D01*
X884Y189D02*
X890Y189D01*
X902Y189D02*
X908Y189D01*
X151Y188D02*
X157Y188D01*
X170Y188D02*
X176Y188D01*
X198Y188D02*
X204Y188D01*
X209Y188D02*
X216Y188D01*
X225Y188D02*
X225Y188D01*
X834Y188D02*
X840Y188D01*
X860Y188D02*
X866Y188D01*
X884Y188D02*
X891Y188D01*
X902Y188D02*
X908Y188D01*
X151Y187D02*
X157Y187D01*
X170Y187D02*
X176Y187D01*
X198Y187D02*
X204Y187D01*
X209Y187D02*
X215Y187D01*
X225Y187D02*
X226Y187D01*
X834Y187D02*
X840Y187D01*
X860Y187D02*
X866Y187D01*
X885Y187D02*
X891Y187D01*
X902Y187D02*
X908Y187D01*
X151Y186D02*
X158Y186D01*
X170Y186D02*
X176Y186D01*
X198Y186D02*
X204Y186D01*
X208Y186D02*
X215Y186D01*
X225Y186D02*
X228Y186D01*
X834Y186D02*
X840Y186D01*
X860Y186D02*
X866Y186D01*
X885Y186D02*
X892Y186D01*
X902Y186D02*
X908Y186D01*
X152Y185D02*
X158Y185D01*
X170Y185D02*
X176Y185D01*
X198Y185D02*
X204Y185D01*
X208Y185D02*
X214Y185D01*
X225Y185D02*
X229Y185D01*
X278Y185D02*
X278Y185D01*
X834Y185D02*
X840Y185D01*
X860Y185D02*
X866Y185D01*
X886Y185D02*
X892Y185D01*
X902Y185D02*
X908Y185D01*
X152Y184D02*
X159Y184D01*
X170Y184D02*
X176Y184D01*
X198Y184D02*
X204Y184D01*
X207Y184D02*
X214Y184D01*
X225Y184D02*
X230Y184D01*
X277Y184D02*
X278Y184D01*
X834Y184D02*
X840Y184D01*
X860Y184D02*
X866Y184D01*
X886Y184D02*
X893Y184D01*
X902Y184D02*
X908Y184D01*
X153Y183D02*
X159Y183D01*
X170Y183D02*
X176Y183D01*
X198Y183D02*
X204Y183D01*
X207Y183D02*
X213Y183D01*
X225Y183D02*
X230Y183D01*
X275Y183D02*
X278Y183D01*
X834Y183D02*
X840Y183D01*
X860Y183D02*
X866Y183D01*
X887Y183D02*
X893Y183D01*
X902Y183D02*
X908Y183D01*
X153Y182D02*
X160Y182D01*
X170Y182D02*
X176Y182D01*
X198Y182D02*
X204Y182D01*
X207Y182D02*
X213Y182D01*
X225Y182D02*
X230Y182D01*
X273Y182D02*
X278Y182D01*
X834Y182D02*
X840Y182D01*
X860Y182D02*
X866Y182D01*
X887Y182D02*
X894Y182D01*
X902Y182D02*
X908Y182D01*
X154Y181D02*
X160Y181D01*
X170Y181D02*
X176Y181D01*
X198Y181D02*
X204Y181D01*
X206Y181D02*
X212Y181D01*
X225Y181D02*
X230Y181D01*
X273Y181D02*
X278Y181D01*
X834Y181D02*
X840Y181D01*
X860Y181D02*
X866Y181D01*
X888Y181D02*
X894Y181D01*
X902Y181D02*
X908Y181D01*
X154Y180D02*
X161Y180D01*
X170Y180D02*
X176Y180D01*
X198Y180D02*
X204Y180D01*
X206Y180D02*
X212Y180D01*
X225Y180D02*
X230Y180D01*
X273Y180D02*
X278Y180D01*
X834Y180D02*
X840Y180D01*
X860Y180D02*
X866Y180D01*
X888Y180D02*
X895Y180D01*
X902Y180D02*
X908Y180D01*
X155Y179D02*
X162Y179D01*
X170Y179D02*
X176Y179D01*
X198Y179D02*
X212Y179D01*
X225Y179D02*
X230Y179D01*
X273Y179D02*
X278Y179D01*
X834Y179D02*
X840Y179D01*
X860Y179D02*
X866Y179D01*
X889Y179D02*
X895Y179D01*
X902Y179D02*
X908Y179D01*
X155Y178D02*
X162Y178D01*
X170Y178D02*
X176Y178D01*
X198Y178D02*
X211Y178D01*
X225Y178D02*
X230Y178D01*
X246Y178D02*
X246Y178D01*
X273Y178D02*
X278Y178D01*
X834Y178D02*
X840Y178D01*
X860Y178D02*
X866Y178D01*
X889Y178D02*
X896Y178D01*
X902Y178D02*
X908Y178D01*
X156Y177D02*
X163Y177D01*
X170Y177D02*
X176Y177D01*
X198Y177D02*
X211Y177D01*
X225Y177D02*
X230Y177D01*
X246Y177D02*
X252Y177D01*
X273Y177D02*
X278Y177D01*
X834Y177D02*
X866Y177D01*
X890Y177D02*
X911Y177D01*
X156Y176D02*
X163Y176D01*
X170Y176D02*
X176Y176D01*
X198Y176D02*
X210Y176D01*
X225Y176D02*
X230Y176D01*
X246Y176D02*
X252Y176D01*
X273Y176D02*
X278Y176D01*
X834Y176D02*
X866Y176D01*
X890Y176D02*
X913Y176D01*
X157Y175D02*
X164Y175D01*
X170Y175D02*
X176Y175D01*
X198Y175D02*
X210Y175D01*
X225Y175D02*
X230Y175D01*
X246Y175D02*
X252Y175D01*
X272Y175D02*
X278Y175D01*
X834Y175D02*
X866Y175D01*
X891Y175D02*
X914Y175D01*
X157Y174D02*
X164Y174D01*
X170Y174D02*
X176Y174D01*
X198Y174D02*
X209Y174D01*
X225Y174D02*
X230Y174D01*
X247Y174D02*
X253Y174D01*
X271Y174D02*
X278Y174D01*
X835Y174D02*
X865Y174D01*
X892Y174D02*
X914Y174D01*
X158Y173D02*
X180Y173D01*
X198Y173D02*
X209Y173D01*
X225Y173D02*
X230Y173D01*
X247Y173D02*
X278Y173D01*
X835Y173D02*
X864Y173D01*
X893Y173D02*
X914Y173D01*
X158Y172D02*
X181Y172D01*
X198Y172D02*
X209Y172D01*
X225Y172D02*
X230Y172D01*
X247Y172D02*
X277Y172D01*
X836Y172D02*
X864Y172D01*
X894Y172D02*
X914Y172D01*
X159Y171D02*
X182Y171D01*
X198Y171D02*
X208Y171D01*
X225Y171D02*
X230Y171D01*
X248Y171D02*
X277Y171D01*
X838Y171D02*
X862Y171D01*
X896Y171D02*
X913Y171D01*
X160Y170D02*
X182Y170D01*
X198Y170D02*
X208Y170D01*
X225Y170D02*
X230Y170D01*
X249Y170D02*
X276Y170D01*
X161Y169D02*
X182Y169D01*
X198Y169D02*
X207Y169D01*
X225Y169D02*
X230Y169D01*
X250Y169D02*
X275Y169D01*
X162Y168D02*
X182Y168D01*
X198Y168D02*
X207Y168D01*
X225Y168D02*
X230Y168D01*
X251Y168D02*
X274Y168D01*
X164Y167D02*
X181Y167D01*
X198Y167D02*
X206Y167D01*
X226Y167D02*
X229Y167D01*
X253Y167D02*
X272Y167D01*
X793Y122D02*
X817Y122D01*
X838Y122D02*
X839Y122D01*
X865Y122D02*
X865Y122D01*
X889Y122D02*
X913Y122D01*
X791Y121D02*
X819Y121D01*
X837Y121D02*
X840Y121D01*
X863Y121D02*
X867Y121D01*
X887Y121D02*
X915Y121D01*
X151Y120D02*
X154Y120D01*
X178Y120D02*
X181Y120D01*
X200Y120D02*
X211Y120D01*
X789Y120D02*
X819Y120D01*
X836Y120D02*
X841Y120D01*
X862Y120D02*
X868Y120D01*
X886Y120D02*
X916Y120D01*
X151Y119D02*
X155Y119D01*
X177Y119D02*
X182Y119D01*
X199Y119D02*
X211Y119D01*
X789Y119D02*
X820Y119D01*
X836Y119D02*
X841Y119D01*
X862Y119D02*
X868Y119D01*
X885Y119D02*
X916Y119D01*
X150Y118D02*
X156Y118D01*
X177Y118D02*
X182Y118D01*
X198Y118D02*
X211Y118D01*
X788Y118D02*
X819Y118D01*
X836Y118D02*
X841Y118D01*
X862Y118D02*
X868Y118D01*
X884Y118D02*
X916Y118D01*
X150Y117D02*
X156Y117D01*
X176Y117D02*
X182Y117D01*
X198Y117D02*
X211Y117D01*
X788Y117D02*
X819Y117D01*
X836Y117D02*
X841Y117D01*
X862Y117D02*
X868Y117D01*
X884Y117D02*
X915Y117D01*
X150Y116D02*
X156Y116D01*
X176Y116D02*
X182Y116D01*
X198Y116D02*
X211Y116D01*
X788Y116D02*
X818Y116D01*
X836Y116D02*
X841Y116D01*
X862Y116D02*
X868Y116D01*
X884Y116D02*
X914Y116D01*
X150Y115D02*
X156Y115D01*
X176Y115D02*
X182Y115D01*
X199Y115D02*
X211Y115D01*
X787Y115D02*
X793Y115D01*
X836Y115D02*
X841Y115D01*
X862Y115D02*
X868Y115D01*
X884Y115D02*
X890Y115D01*
X150Y114D02*
X156Y114D01*
X176Y114D02*
X182Y114D01*
X201Y114D02*
X212Y114D01*
X787Y114D02*
X793Y114D01*
X836Y114D02*
X841Y114D01*
X862Y114D02*
X868Y114D01*
X884Y114D02*
X889Y114D01*
X150Y113D02*
X156Y113D01*
X176Y113D02*
X182Y113D01*
X787Y113D02*
X793Y113D01*
X836Y113D02*
X841Y113D01*
X862Y113D02*
X868Y113D01*
X884Y113D02*
X889Y113D01*
X150Y112D02*
X156Y112D01*
X176Y112D02*
X182Y112D01*
X787Y112D02*
X793Y112D01*
X836Y112D02*
X841Y112D01*
X862Y112D02*
X868Y112D01*
X884Y112D02*
X889Y112D01*
X150Y111D02*
X156Y111D01*
X176Y111D02*
X182Y111D01*
X787Y111D02*
X793Y111D01*
X836Y111D02*
X841Y111D01*
X862Y111D02*
X868Y111D01*
X884Y111D02*
X889Y111D01*
X150Y110D02*
X156Y110D01*
X176Y110D02*
X182Y110D01*
X787Y110D02*
X793Y110D01*
X836Y110D02*
X841Y110D01*
X862Y110D02*
X868Y110D01*
X884Y110D02*
X889Y110D01*
X150Y109D02*
X156Y109D01*
X176Y109D02*
X182Y109D01*
X787Y109D02*
X793Y109D01*
X836Y109D02*
X841Y109D01*
X862Y109D02*
X868Y109D01*
X884Y109D02*
X889Y109D01*
X150Y108D02*
X156Y108D01*
X176Y108D02*
X182Y108D01*
X787Y108D02*
X793Y108D01*
X836Y108D02*
X841Y108D01*
X862Y108D02*
X868Y108D01*
X884Y108D02*
X889Y108D01*
X150Y107D02*
X156Y107D01*
X176Y107D02*
X182Y107D01*
X787Y107D02*
X793Y107D01*
X836Y107D02*
X842Y107D01*
X862Y107D02*
X868Y107D01*
X884Y107D02*
X889Y107D01*
X150Y106D02*
X156Y106D01*
X176Y106D02*
X182Y106D01*
X787Y106D02*
X793Y106D01*
X836Y106D02*
X842Y106D01*
X861Y106D02*
X867Y106D01*
X884Y106D02*
X889Y106D01*
X150Y105D02*
X156Y105D01*
X176Y105D02*
X182Y105D01*
X787Y105D02*
X793Y105D01*
X836Y105D02*
X843Y105D01*
X861Y105D02*
X867Y105D01*
X884Y105D02*
X889Y105D01*
X151Y104D02*
X157Y104D01*
X175Y104D02*
X182Y104D01*
X787Y104D02*
X793Y104D01*
X837Y104D02*
X843Y104D01*
X860Y104D02*
X867Y104D01*
X884Y104D02*
X889Y104D01*
X151Y103D02*
X157Y103D01*
X175Y103D02*
X181Y103D01*
X787Y103D02*
X793Y103D01*
X837Y103D02*
X843Y103D01*
X860Y103D02*
X866Y103D01*
X884Y103D02*
X889Y103D01*
X151Y102D02*
X158Y102D01*
X175Y102D02*
X181Y102D01*
X788Y102D02*
X793Y102D01*
X837Y102D02*
X844Y102D01*
X860Y102D02*
X866Y102D01*
X884Y102D02*
X890Y102D01*
X152Y101D02*
X158Y101D01*
X174Y101D02*
X181Y101D01*
X788Y101D02*
X794Y101D01*
X838Y101D02*
X844Y101D01*
X859Y101D02*
X866Y101D01*
X884Y101D02*
X890Y101D01*
X152Y100D02*
X158Y100D01*
X174Y100D02*
X180Y100D01*
X788Y100D02*
X795Y100D01*
X838Y100D02*
X845Y100D01*
X859Y100D02*
X865Y100D01*
X884Y100D02*
X891Y100D01*
X152Y99D02*
X159Y99D01*
X173Y99D02*
X180Y99D01*
X788Y99D02*
X811Y99D01*
X839Y99D02*
X845Y99D01*
X858Y99D02*
X865Y99D01*
X885Y99D02*
X908Y99D01*
X153Y98D02*
X159Y98D01*
X173Y98D02*
X179Y98D01*
X204Y98D02*
X217Y98D01*
X789Y98D02*
X812Y98D01*
X839Y98D02*
X845Y98D01*
X858Y98D02*
X864Y98D01*
X885Y98D02*
X909Y98D01*
X153Y97D02*
X159Y97D01*
X173Y97D02*
X179Y97D01*
X201Y97D02*
X218Y97D01*
X789Y97D02*
X813Y97D01*
X839Y97D02*
X846Y97D01*
X858Y97D02*
X864Y97D01*
X886Y97D02*
X909Y97D01*
X154Y96D02*
X160Y96D01*
X172Y96D02*
X179Y96D01*
X200Y96D02*
X218Y96D01*
X790Y96D02*
X813Y96D01*
X840Y96D02*
X846Y96D01*
X857Y96D02*
X864Y96D01*
X886Y96D02*
X909Y96D01*
X154Y95D02*
X160Y95D01*
X172Y95D02*
X178Y95D01*
X199Y95D02*
X219Y95D01*
X789Y95D02*
X813Y95D01*
X840Y95D02*
X846Y95D01*
X857Y95D02*
X863Y95D01*
X886Y95D02*
X909Y95D01*
X154Y94D02*
X161Y94D01*
X171Y94D02*
X178Y94D01*
X199Y94D02*
X220Y94D01*
X789Y94D02*
X812Y94D01*
X841Y94D02*
X847Y94D01*
X857Y94D02*
X863Y94D01*
X885Y94D02*
X908Y94D01*
X155Y93D02*
X161Y93D01*
X171Y93D02*
X177Y93D01*
X198Y93D02*
X221Y93D01*
X788Y93D02*
X811Y93D01*
X841Y93D02*
X847Y93D01*
X856Y93D02*
X862Y93D01*
X884Y93D02*
X907Y93D01*
X155Y92D02*
X161Y92D01*
X171Y92D02*
X177Y92D01*
X198Y92D02*
X221Y92D01*
X788Y92D02*
X795Y92D01*
X841Y92D02*
X848Y92D01*
X856Y92D02*
X862Y92D01*
X884Y92D02*
X891Y92D01*
X156Y91D02*
X162Y91D01*
X170Y91D02*
X177Y91D01*
X198Y91D02*
X204Y91D01*
X788Y91D02*
X794Y91D01*
X842Y91D02*
X848Y91D01*
X855Y91D02*
X862Y91D01*
X884Y91D02*
X890Y91D01*
X156Y90D02*
X162Y90D01*
X170Y90D02*
X176Y90D01*
X198Y90D02*
X204Y90D01*
X788Y90D02*
X793Y90D01*
X842Y90D02*
X848Y90D01*
X855Y90D02*
X861Y90D01*
X884Y90D02*
X890Y90D01*
X156Y89D02*
X163Y89D01*
X170Y89D02*
X176Y89D01*
X198Y89D02*
X204Y89D01*
X787Y89D02*
X793Y89D01*
X843Y89D02*
X849Y89D01*
X855Y89D02*
X861Y89D01*
X884Y89D02*
X889Y89D01*
X157Y88D02*
X163Y88D01*
X169Y88D02*
X175Y88D01*
X198Y88D02*
X204Y88D01*
X787Y88D02*
X793Y88D01*
X843Y88D02*
X849Y88D01*
X854Y88D02*
X860Y88D01*
X884Y88D02*
X889Y88D01*
X157Y87D02*
X163Y87D01*
X169Y87D02*
X175Y87D01*
X198Y87D02*
X204Y87D01*
X787Y87D02*
X793Y87D01*
X843Y87D02*
X850Y87D01*
X854Y87D02*
X860Y87D01*
X884Y87D02*
X889Y87D01*
X158Y86D02*
X164Y86D01*
X168Y86D02*
X175Y86D01*
X198Y86D02*
X204Y86D01*
X787Y86D02*
X793Y86D01*
X844Y86D02*
X850Y86D01*
X853Y86D02*
X860Y86D01*
X884Y86D02*
X889Y86D01*
X158Y85D02*
X164Y85D01*
X168Y85D02*
X174Y85D01*
X198Y85D02*
X204Y85D01*
X787Y85D02*
X793Y85D01*
X844Y85D02*
X850Y85D01*
X853Y85D02*
X859Y85D01*
X884Y85D02*
X889Y85D01*
X158Y84D02*
X165Y84D01*
X168Y84D02*
X174Y84D01*
X198Y84D02*
X204Y84D01*
X787Y84D02*
X793Y84D01*
X845Y84D02*
X851Y84D01*
X853Y84D02*
X859Y84D01*
X884Y84D02*
X889Y84D01*
X159Y83D02*
X165Y83D01*
X167Y83D02*
X174Y83D01*
X198Y83D02*
X204Y83D01*
X787Y83D02*
X793Y83D01*
X845Y83D02*
X859Y83D01*
X884Y83D02*
X889Y83D01*
X159Y82D02*
X173Y82D01*
X198Y82D02*
X204Y82D01*
X787Y82D02*
X793Y82D01*
X845Y82D02*
X858Y82D01*
X884Y82D02*
X889Y82D01*
X159Y81D02*
X173Y81D01*
X198Y81D02*
X204Y81D01*
X787Y81D02*
X793Y81D01*
X846Y81D02*
X858Y81D01*
X884Y81D02*
X889Y81D01*
X160Y80D02*
X172Y80D01*
X198Y80D02*
X204Y80D01*
X787Y80D02*
X793Y80D01*
X846Y80D02*
X857Y80D01*
X884Y80D02*
X889Y80D01*
X160Y79D02*
X172Y79D01*
X198Y79D02*
X204Y79D01*
X787Y79D02*
X793Y79D01*
X846Y79D02*
X857Y79D01*
X884Y79D02*
X889Y79D01*
X161Y78D02*
X172Y78D01*
X198Y78D02*
X204Y78D01*
X227Y78D02*
X228Y78D01*
X787Y78D02*
X793Y78D01*
X847Y78D02*
X857Y78D01*
X884Y78D02*
X889Y78D01*
X161Y77D02*
X171Y77D01*
X198Y77D02*
X204Y77D01*
X224Y77D02*
X230Y77D01*
X787Y77D02*
X794Y77D01*
X847Y77D02*
X856Y77D01*
X884Y77D02*
X890Y77D01*
X161Y76D02*
X171Y76D01*
X198Y76D02*
X204Y76D01*
X222Y76D02*
X230Y76D01*
X788Y76D02*
X818Y76D01*
X848Y76D02*
X856Y76D01*
X884Y76D02*
X915Y76D01*
X162Y75D02*
X170Y75D01*
X198Y75D02*
X230Y75D01*
X788Y75D02*
X819Y75D01*
X848Y75D02*
X855Y75D01*
X884Y75D02*
X916Y75D01*
X162Y74D02*
X170Y74D01*
X198Y74D02*
X230Y74D01*
X788Y74D02*
X820Y74D01*
X848Y74D02*
X855Y74D01*
X885Y74D02*
X916Y74D01*
X163Y73D02*
X170Y73D01*
X199Y73D02*
X230Y73D01*
X789Y73D02*
X820Y73D01*
X849Y73D02*
X855Y73D01*
X885Y73D02*
X916Y73D01*
X163Y72D02*
X169Y72D01*
X199Y72D02*
X229Y72D01*
X790Y72D02*
X819Y72D01*
X849Y72D02*
X854Y72D01*
X886Y72D02*
X915Y72D01*
X163Y71D02*
X169Y71D01*
X200Y71D02*
X227Y71D01*
X791Y71D02*
X818Y71D01*
X850Y71D02*
X853Y71D01*
X888Y71D02*
X915Y71D01*
X164Y70D02*
X168Y70D01*
X201Y70D02*
X224Y70D01*
X165Y69D02*
X167Y69D01*
X203Y69D02*
X221Y69D01*
D02*
G04 End of Silk0*
M02*