; NON-PLATED HOLES START AT T1
; THROUGH (PLATED) HOLES START AT T100
M48
INCH
T1C0.080000
T100C0.015748
T101C0.038000
T102C0.039370
T103C0.035000
%
T1
X007204Y011426
X009004Y011426
T100
X003746Y009425
X002746Y005925
T101
X009746Y002925
X003746Y012675
X000746Y007925
X009746Y000925
X009746Y003925
X000746Y006925
X009746Y001925
X002746Y012675
X000746Y002925
X009746Y005925
X000746Y003925
X009746Y004925
X001746Y012675
X009746Y007925
X000746Y012675
X000746Y004925
X009746Y006925
X000746Y000925
X000746Y005925
X000746Y001925
T102
X008246Y003425
X008246Y001425
X002496Y001175
X006246Y002425
X002496Y003175
X002496Y002175
T103
X006747Y005929
X003747Y006929
X006747Y006929
X003747Y005929
X006747Y007929
X003747Y007929
X006747Y004929
X003747Y004929
T00
M30
