G04 MADE WITH FRITZING*
G04 WWW.FRITZING.ORG*
G04 DOUBLE SIDED*
G04 HOLES PLATED*
G04 CONTOUR ON CENTER OF CONTOUR VECTOR*
%ASAXBY*%
%FSLAX23Y23*%
%MOIN*%
%OFA0B0*%
%SFA1.0B1.0*%
%ADD10C,0.074000*%
%ADD11C,0.039370*%
%ADD12C,0.075000*%
%ADD13C,0.078000*%
%ADD14C,0.170000*%
%ADD15R,0.062992X0.074803*%
%ADD16R,0.074803X0.062992*%
%ADD17R,0.075000X0.075000*%
%ADD18C,0.024000*%
%ADD19R,0.001000X0.001000*%
%LNCOPPER1*%
G90*
G70*
G54D10*
X604Y269D03*
X704Y269D03*
X804Y269D03*
X604Y269D03*
X704Y269D03*
X804Y269D03*
G54D11*
X379Y944D03*
X254Y594D03*
G54D12*
X379Y794D03*
X679Y794D03*
X379Y694D03*
X679Y694D03*
X379Y594D03*
X679Y594D03*
X379Y494D03*
X679Y494D03*
G54D10*
X729Y994D03*
X629Y994D03*
X529Y994D03*
X729Y994D03*
X629Y994D03*
X529Y994D03*
X254Y319D03*
X254Y219D03*
X254Y119D03*
X254Y319D03*
X254Y219D03*
X254Y119D03*
G54D13*
X79Y1269D03*
X179Y1269D03*
X279Y1269D03*
X379Y1269D03*
X79Y94D03*
X79Y194D03*
X79Y294D03*
X79Y394D03*
X79Y494D03*
X79Y594D03*
X79Y694D03*
X79Y794D03*
X979Y794D03*
X979Y694D03*
X979Y594D03*
X979Y494D03*
X979Y394D03*
X979Y294D03*
X979Y194D03*
X979Y94D03*
G54D14*
X864Y1276D03*
X864Y1512D03*
X679Y1394D03*
X864Y1276D03*
X864Y1512D03*
X679Y1394D03*
G54D15*
X554Y69D03*
X432Y69D03*
G54D16*
X829Y569D03*
X829Y691D03*
X279Y947D03*
X279Y1069D03*
X254Y694D03*
X254Y816D03*
X179Y1069D03*
X179Y947D03*
X79Y1069D03*
X79Y947D03*
G54D17*
X379Y794D03*
G54D16*
X529Y1269D03*
X529Y1147D03*
X429Y219D03*
X429Y341D03*
G54D18*
X409Y1269D02*
X497Y1269D01*
D02*
X805Y1474D02*
X738Y1432D01*
D02*
X555Y145D02*
X605Y194D01*
D02*
X829Y345D02*
X805Y318D01*
D02*
X829Y518D02*
X829Y345D01*
D02*
X805Y318D02*
X805Y300D01*
D02*
X605Y194D02*
X604Y238D01*
D02*
X555Y118D02*
X555Y145D01*
D02*
X555Y101D02*
X555Y118D01*
D02*
X635Y269D02*
X673Y269D01*
D02*
X829Y543D02*
X829Y518D01*
D02*
X680Y1344D02*
X680Y1394D01*
D02*
X680Y1394D02*
X805Y1474D01*
D02*
X629Y1143D02*
X680Y1344D01*
D02*
X629Y1143D02*
X561Y1146D01*
D02*
X629Y1025D02*
X629Y1143D01*
D02*
X561Y1146D02*
X629Y1143D01*
D02*
X880Y693D02*
X928Y693D01*
D02*
X779Y693D02*
X730Y693D01*
D02*
X929Y693D02*
X949Y693D01*
D02*
X730Y693D02*
X708Y694D01*
D02*
X179Y1095D02*
X179Y1239D01*
D02*
X79Y1239D02*
X79Y1095D01*
D02*
X797Y692D02*
X779Y693D01*
D02*
X861Y692D02*
X880Y693D01*
D02*
X305Y794D02*
X286Y802D01*
D02*
X154Y719D02*
X154Y844D01*
D02*
X104Y869D02*
X79Y894D01*
D02*
X154Y844D02*
X130Y869D01*
D02*
X130Y869D02*
X104Y869D01*
D02*
X79Y894D02*
X79Y921D01*
D02*
X179Y694D02*
X154Y719D01*
D02*
X279Y693D02*
X254Y694D01*
D02*
X351Y694D02*
X279Y693D01*
D02*
X351Y794D02*
X305Y794D01*
D02*
X222Y694D02*
X179Y694D01*
D02*
X247Y947D02*
X211Y947D01*
D02*
X780Y568D02*
X754Y594D01*
D02*
X754Y594D02*
X708Y594D01*
D02*
X797Y569D02*
X780Y568D01*
D02*
X179Y219D02*
X230Y219D01*
D02*
X154Y194D02*
X179Y219D01*
D02*
X230Y219D02*
X223Y220D01*
D02*
X109Y194D02*
X154Y194D01*
D02*
X179Y119D02*
X230Y119D01*
D02*
X230Y119D02*
X223Y120D01*
D02*
X154Y94D02*
X179Y119D01*
D02*
X109Y94D02*
X154Y94D01*
D02*
X429Y344D02*
X429Y341D01*
D02*
X404Y318D02*
X429Y344D01*
D02*
X285Y319D02*
X404Y318D01*
D02*
X529Y769D02*
X504Y794D01*
D02*
X529Y519D02*
X529Y769D01*
D02*
X504Y794D02*
X408Y794D01*
D02*
X404Y219D02*
X429Y219D01*
D02*
X285Y219D02*
X404Y219D01*
D02*
X555Y494D02*
X529Y519D01*
D02*
X651Y494D02*
X555Y494D01*
D02*
X279Y1239D02*
X279Y1095D01*
D02*
X273Y594D02*
X351Y594D01*
D02*
X304Y944D02*
X279Y947D01*
D02*
X360Y944D02*
X304Y944D01*
D02*
X429Y69D02*
X429Y193D01*
D02*
X432Y69D02*
X429Y69D01*
D02*
X729Y1169D02*
X729Y1044D01*
D02*
X729Y1044D02*
X729Y1025D01*
D02*
X809Y1232D02*
X729Y1169D01*
G54D19*
X692Y1031D02*
X765Y1031D01*
X692Y1030D02*
X765Y1030D01*
X692Y1029D02*
X765Y1029D01*
X692Y1028D02*
X765Y1028D01*
X692Y1027D02*
X765Y1027D01*
X692Y1026D02*
X765Y1026D01*
X692Y1025D02*
X765Y1025D01*
X692Y1024D02*
X765Y1024D01*
X692Y1023D02*
X765Y1023D01*
X692Y1022D02*
X765Y1022D01*
X692Y1021D02*
X765Y1021D01*
X692Y1020D02*
X765Y1020D01*
X692Y1019D02*
X765Y1019D01*
X692Y1018D02*
X765Y1018D01*
X692Y1017D02*
X765Y1017D01*
X692Y1016D02*
X765Y1016D01*
X692Y1015D02*
X765Y1015D01*
X692Y1014D02*
X765Y1014D01*
X692Y1013D02*
X722Y1013D01*
X734Y1013D02*
X765Y1013D01*
X692Y1012D02*
X719Y1012D01*
X737Y1012D02*
X765Y1012D01*
X692Y1011D02*
X718Y1011D01*
X739Y1011D02*
X765Y1011D01*
X692Y1010D02*
X716Y1010D01*
X740Y1010D02*
X765Y1010D01*
X692Y1009D02*
X715Y1009D01*
X742Y1009D02*
X765Y1009D01*
X692Y1008D02*
X714Y1008D01*
X743Y1008D02*
X765Y1008D01*
X692Y1007D02*
X713Y1007D01*
X744Y1007D02*
X765Y1007D01*
X692Y1006D02*
X712Y1006D01*
X744Y1006D02*
X765Y1006D01*
X692Y1005D02*
X711Y1005D01*
X745Y1005D02*
X765Y1005D01*
X692Y1004D02*
X711Y1004D01*
X746Y1004D02*
X765Y1004D01*
X692Y1003D02*
X710Y1003D01*
X746Y1003D02*
X765Y1003D01*
X692Y1002D02*
X710Y1002D01*
X747Y1002D02*
X765Y1002D01*
X692Y1001D02*
X709Y1001D01*
X747Y1001D02*
X765Y1001D01*
X692Y1000D02*
X709Y1000D01*
X748Y1000D02*
X765Y1000D01*
X692Y999D02*
X709Y999D01*
X748Y999D02*
X765Y999D01*
X692Y998D02*
X709Y998D01*
X748Y998D02*
X765Y998D01*
X692Y997D02*
X708Y997D01*
X748Y997D02*
X765Y997D01*
X692Y996D02*
X708Y996D01*
X748Y996D02*
X765Y996D01*
X692Y995D02*
X708Y995D01*
X748Y995D02*
X765Y995D01*
X692Y994D02*
X708Y994D01*
X748Y994D02*
X765Y994D01*
X692Y993D02*
X708Y993D01*
X748Y993D02*
X765Y993D01*
X692Y992D02*
X708Y992D01*
X748Y992D02*
X765Y992D01*
X692Y991D02*
X708Y991D01*
X748Y991D02*
X765Y991D01*
X692Y990D02*
X709Y990D01*
X748Y990D02*
X765Y990D01*
X692Y989D02*
X709Y989D01*
X748Y989D02*
X765Y989D01*
X692Y988D02*
X709Y988D01*
X747Y988D02*
X765Y988D01*
X692Y987D02*
X710Y987D01*
X747Y987D02*
X765Y987D01*
X692Y986D02*
X710Y986D01*
X747Y986D02*
X765Y986D01*
X692Y985D02*
X711Y985D01*
X746Y985D02*
X765Y985D01*
X692Y984D02*
X711Y984D01*
X746Y984D02*
X765Y984D01*
X692Y983D02*
X712Y983D01*
X745Y983D02*
X765Y983D01*
X692Y982D02*
X712Y982D01*
X744Y982D02*
X765Y982D01*
X692Y981D02*
X713Y981D01*
X743Y981D02*
X765Y981D01*
X692Y980D02*
X714Y980D01*
X742Y980D02*
X765Y980D01*
X692Y979D02*
X715Y979D01*
X741Y979D02*
X765Y979D01*
X692Y978D02*
X717Y978D01*
X740Y978D02*
X765Y978D01*
X692Y977D02*
X718Y977D01*
X738Y977D02*
X765Y977D01*
X692Y976D02*
X720Y976D01*
X736Y976D02*
X765Y976D01*
X692Y975D02*
X724Y975D01*
X733Y975D02*
X765Y975D01*
X692Y974D02*
X765Y974D01*
X692Y973D02*
X765Y973D01*
X692Y972D02*
X765Y972D01*
X692Y971D02*
X765Y971D01*
X692Y970D02*
X765Y970D01*
X692Y969D02*
X765Y969D01*
X692Y968D02*
X765Y968D01*
X692Y967D02*
X765Y967D01*
X692Y966D02*
X765Y966D01*
X692Y965D02*
X765Y965D01*
X692Y964D02*
X765Y964D01*
X692Y963D02*
X765Y963D01*
X692Y962D02*
X765Y962D01*
X692Y961D02*
X765Y961D01*
X692Y960D02*
X765Y960D01*
X692Y959D02*
X765Y959D01*
X692Y958D02*
X765Y958D01*
X217Y356D02*
X290Y356D01*
X217Y355D02*
X290Y355D01*
X217Y354D02*
X290Y354D01*
X217Y353D02*
X290Y353D01*
X217Y352D02*
X290Y352D01*
X217Y351D02*
X290Y351D01*
X217Y350D02*
X290Y350D01*
X217Y349D02*
X290Y349D01*
X217Y348D02*
X290Y348D01*
X217Y347D02*
X290Y347D01*
X217Y346D02*
X290Y346D01*
X217Y345D02*
X290Y345D01*
X217Y344D02*
X290Y344D01*
X217Y343D02*
X290Y343D01*
X217Y342D02*
X290Y342D01*
X217Y341D02*
X290Y341D01*
X217Y340D02*
X290Y340D01*
X217Y339D02*
X290Y339D01*
X217Y338D02*
X247Y338D01*
X260Y338D02*
X290Y338D01*
X217Y337D02*
X245Y337D01*
X263Y337D02*
X290Y337D01*
X217Y336D02*
X243Y336D01*
X265Y336D02*
X290Y336D01*
X217Y335D02*
X241Y335D01*
X266Y335D02*
X290Y335D01*
X217Y334D02*
X240Y334D01*
X267Y334D02*
X290Y334D01*
X217Y333D02*
X239Y333D01*
X268Y333D02*
X290Y333D01*
X217Y332D02*
X238Y332D01*
X269Y332D02*
X290Y332D01*
X217Y331D02*
X237Y331D01*
X270Y331D02*
X290Y331D01*
X217Y330D02*
X237Y330D01*
X271Y330D02*
X290Y330D01*
X217Y329D02*
X236Y329D01*
X271Y329D02*
X290Y329D01*
X217Y328D02*
X236Y328D01*
X272Y328D02*
X290Y328D01*
X217Y327D02*
X235Y327D01*
X272Y327D02*
X290Y327D01*
X217Y326D02*
X235Y326D01*
X273Y326D02*
X290Y326D01*
X217Y325D02*
X234Y325D01*
X273Y325D02*
X290Y325D01*
X217Y324D02*
X234Y324D01*
X273Y324D02*
X290Y324D01*
X217Y323D02*
X234Y323D01*
X273Y323D02*
X290Y323D01*
X217Y322D02*
X234Y322D01*
X274Y322D02*
X290Y322D01*
X217Y321D02*
X234Y321D01*
X274Y321D02*
X290Y321D01*
X217Y320D02*
X234Y320D01*
X274Y320D02*
X290Y320D01*
X217Y319D02*
X233Y319D01*
X274Y319D02*
X290Y319D01*
X217Y318D02*
X234Y318D01*
X274Y318D02*
X290Y318D01*
X217Y317D02*
X234Y317D01*
X274Y317D02*
X290Y317D01*
X217Y316D02*
X234Y316D01*
X273Y316D02*
X290Y316D01*
X217Y315D02*
X234Y315D01*
X273Y315D02*
X290Y315D01*
X217Y314D02*
X234Y314D01*
X273Y314D02*
X290Y314D01*
X217Y313D02*
X235Y313D01*
X273Y313D02*
X290Y313D01*
X217Y312D02*
X235Y312D01*
X272Y312D02*
X290Y312D01*
X217Y311D02*
X235Y311D01*
X272Y311D02*
X290Y311D01*
X217Y310D02*
X236Y310D01*
X271Y310D02*
X290Y310D01*
X217Y309D02*
X236Y309D01*
X271Y309D02*
X290Y309D01*
X217Y308D02*
X237Y308D01*
X270Y308D02*
X290Y308D01*
X217Y307D02*
X238Y307D01*
X269Y307D02*
X290Y307D01*
X217Y306D02*
X239Y306D01*
X268Y306D02*
X290Y306D01*
X567Y306D02*
X640Y306D01*
X217Y305D02*
X240Y305D01*
X267Y305D02*
X290Y305D01*
X567Y305D02*
X640Y305D01*
X217Y304D02*
X241Y304D01*
X266Y304D02*
X290Y304D01*
X567Y304D02*
X640Y304D01*
X217Y303D02*
X242Y303D01*
X265Y303D02*
X290Y303D01*
X567Y303D02*
X640Y303D01*
X217Y302D02*
X244Y302D01*
X263Y302D02*
X290Y302D01*
X567Y302D02*
X640Y302D01*
X217Y301D02*
X246Y301D01*
X261Y301D02*
X290Y301D01*
X567Y301D02*
X640Y301D01*
X217Y300D02*
X250Y300D01*
X257Y300D02*
X290Y300D01*
X567Y300D02*
X640Y300D01*
X217Y299D02*
X290Y299D01*
X567Y299D02*
X640Y299D01*
X217Y298D02*
X290Y298D01*
X567Y298D02*
X640Y298D01*
X217Y297D02*
X290Y297D01*
X567Y297D02*
X640Y297D01*
X217Y296D02*
X290Y296D01*
X567Y296D02*
X640Y296D01*
X217Y295D02*
X290Y295D01*
X567Y295D02*
X640Y295D01*
X217Y294D02*
X290Y294D01*
X567Y294D02*
X640Y294D01*
X217Y293D02*
X290Y293D01*
X567Y293D02*
X640Y293D01*
X217Y292D02*
X290Y292D01*
X567Y292D02*
X640Y292D01*
X217Y291D02*
X290Y291D01*
X567Y291D02*
X640Y291D01*
X217Y290D02*
X290Y290D01*
X567Y290D02*
X640Y290D01*
X217Y289D02*
X290Y289D01*
X567Y289D02*
X599Y289D01*
X607Y289D02*
X640Y289D01*
X217Y288D02*
X290Y288D01*
X567Y288D02*
X596Y288D01*
X611Y288D02*
X640Y288D01*
X217Y287D02*
X290Y287D01*
X567Y287D02*
X594Y287D01*
X613Y287D02*
X640Y287D01*
X217Y286D02*
X290Y286D01*
X567Y286D02*
X592Y286D01*
X615Y286D02*
X640Y286D01*
X217Y285D02*
X290Y285D01*
X567Y285D02*
X591Y285D01*
X616Y285D02*
X640Y285D01*
X217Y284D02*
X290Y284D01*
X567Y284D02*
X589Y284D01*
X617Y284D02*
X640Y284D01*
X217Y283D02*
X290Y283D01*
X567Y283D02*
X588Y283D01*
X618Y283D02*
X640Y283D01*
X567Y282D02*
X588Y282D01*
X619Y282D02*
X640Y282D01*
X567Y281D02*
X587Y281D01*
X620Y281D02*
X640Y281D01*
X567Y280D02*
X586Y280D01*
X621Y280D02*
X640Y280D01*
X567Y279D02*
X585Y279D01*
X621Y279D02*
X640Y279D01*
X567Y278D02*
X585Y278D01*
X622Y278D02*
X640Y278D01*
X567Y277D02*
X584Y277D01*
X622Y277D02*
X640Y277D01*
X567Y276D02*
X584Y276D01*
X623Y276D02*
X640Y276D01*
X567Y275D02*
X584Y275D01*
X623Y275D02*
X640Y275D01*
X567Y274D02*
X583Y274D01*
X623Y274D02*
X640Y274D01*
X567Y273D02*
X583Y273D01*
X624Y273D02*
X640Y273D01*
X567Y272D02*
X583Y272D01*
X624Y272D02*
X640Y272D01*
X567Y271D02*
X583Y271D01*
X624Y271D02*
X640Y271D01*
X567Y270D02*
X583Y270D01*
X624Y270D02*
X640Y270D01*
X567Y269D02*
X583Y269D01*
X624Y269D02*
X640Y269D01*
X567Y268D02*
X583Y268D01*
X624Y268D02*
X640Y268D01*
X567Y267D02*
X583Y267D01*
X624Y267D02*
X640Y267D01*
X567Y266D02*
X583Y266D01*
X624Y266D02*
X640Y266D01*
X567Y265D02*
X583Y265D01*
X623Y265D02*
X640Y265D01*
X567Y264D02*
X584Y264D01*
X623Y264D02*
X640Y264D01*
X567Y263D02*
X584Y263D01*
X623Y263D02*
X640Y263D01*
X567Y262D02*
X584Y262D01*
X622Y262D02*
X640Y262D01*
X567Y261D02*
X585Y261D01*
X622Y261D02*
X640Y261D01*
X567Y260D02*
X585Y260D01*
X621Y260D02*
X640Y260D01*
X567Y259D02*
X586Y259D01*
X621Y259D02*
X640Y259D01*
X567Y258D02*
X586Y258D01*
X620Y258D02*
X640Y258D01*
X567Y257D02*
X587Y257D01*
X619Y257D02*
X640Y257D01*
X567Y256D02*
X588Y256D01*
X619Y256D02*
X640Y256D01*
X567Y255D02*
X589Y255D01*
X618Y255D02*
X640Y255D01*
X567Y254D02*
X590Y254D01*
X617Y254D02*
X640Y254D01*
X567Y253D02*
X591Y253D01*
X615Y253D02*
X640Y253D01*
X567Y252D02*
X593Y252D01*
X614Y252D02*
X640Y252D01*
X567Y251D02*
X595Y251D01*
X612Y251D02*
X640Y251D01*
X567Y250D02*
X598Y250D01*
X609Y250D02*
X640Y250D01*
X567Y249D02*
X640Y249D01*
X567Y248D02*
X640Y248D01*
X567Y247D02*
X640Y247D01*
X567Y246D02*
X640Y246D01*
X567Y245D02*
X640Y245D01*
X567Y244D02*
X640Y244D01*
X567Y243D02*
X640Y243D01*
X567Y242D02*
X640Y242D01*
X567Y241D02*
X640Y241D01*
X567Y240D02*
X640Y240D01*
X567Y239D02*
X640Y239D01*
X567Y238D02*
X640Y238D01*
X567Y237D02*
X640Y237D01*
X567Y236D02*
X640Y236D01*
X567Y235D02*
X640Y235D01*
X567Y234D02*
X640Y234D01*
X567Y233D02*
X640Y233D01*
D02*
G04 End of Copper1*
M02*