G04 MADE WITH FRITZING*
G04 WWW.FRITZING.ORG*
G04 DOUBLE SIDED*
G04 HOLES PLATED*
G04 CONTOUR ON CENTER OF CONTOUR VECTOR*
%ASAXBY*%
%FSLAX23Y23*%
%MOIN*%
%OFA0B0*%
%SFA1.0B1.0*%
%ADD10R,1.063200X1.665990X1.047200X1.649990*%
%ADD11C,0.008000*%
%ADD12R,0.001000X0.001000*%
%LNSILK0*%
G90*
G70*
G54D11*
X4Y1662D02*
X1059Y1662D01*
X1059Y4D01*
X4Y4D01*
X4Y1662D01*
D02*
G54D12*
X792Y825D02*
X824Y825D01*
X846Y825D02*
X867Y825D01*
X895Y825D02*
X920Y825D01*
X792Y824D02*
X824Y824D01*
X844Y824D02*
X869Y824D01*
X893Y824D02*
X920Y824D01*
X792Y823D02*
X824Y823D01*
X843Y823D02*
X870Y823D01*
X892Y823D02*
X920Y823D01*
X155Y822D02*
X157Y822D01*
X182Y822D02*
X183Y822D01*
X201Y822D02*
X233Y822D01*
X792Y822D02*
X824Y822D01*
X842Y822D02*
X871Y822D01*
X891Y822D02*
X920Y822D01*
X154Y821D02*
X158Y821D01*
X180Y821D02*
X185Y821D01*
X201Y821D02*
X233Y821D01*
X792Y821D02*
X824Y821D01*
X841Y821D02*
X872Y821D01*
X890Y821D02*
X920Y821D01*
X153Y820D02*
X159Y820D01*
X180Y820D02*
X185Y820D01*
X201Y820D02*
X233Y820D01*
X792Y820D02*
X824Y820D01*
X841Y820D02*
X872Y820D01*
X889Y820D02*
X920Y820D01*
X153Y819D02*
X159Y819D01*
X179Y819D02*
X185Y819D01*
X201Y819D02*
X233Y819D01*
X792Y819D02*
X824Y819D01*
X840Y819D02*
X872Y819D01*
X889Y819D02*
X920Y819D01*
X153Y818D02*
X160Y818D01*
X178Y818D02*
X185Y818D01*
X201Y818D02*
X233Y818D01*
X792Y818D02*
X798Y818D01*
X805Y818D02*
X811Y818D01*
X818Y818D02*
X824Y818D01*
X840Y818D02*
X846Y818D01*
X866Y818D02*
X872Y818D01*
X888Y818D02*
X895Y818D01*
X915Y818D02*
X920Y818D01*
X154Y817D02*
X161Y817D01*
X178Y817D02*
X185Y817D01*
X201Y817D02*
X233Y817D01*
X792Y817D02*
X798Y817D01*
X805Y817D02*
X811Y817D01*
X818Y817D02*
X824Y817D01*
X840Y817D02*
X846Y817D01*
X866Y817D02*
X872Y817D01*
X888Y817D02*
X894Y817D01*
X915Y817D02*
X920Y817D01*
X154Y816D02*
X161Y816D01*
X177Y816D02*
X184Y816D01*
X201Y816D02*
X233Y816D01*
X792Y816D02*
X797Y816D01*
X805Y816D02*
X811Y816D01*
X818Y816D02*
X824Y816D01*
X840Y816D02*
X846Y816D01*
X865Y816D02*
X872Y816D01*
X888Y816D02*
X894Y816D01*
X915Y816D02*
X920Y816D01*
X155Y815D02*
X162Y815D01*
X177Y815D02*
X184Y815D01*
X201Y815D02*
X207Y815D01*
X215Y815D02*
X220Y815D01*
X228Y815D02*
X233Y815D01*
X792Y815D02*
X797Y815D01*
X805Y815D02*
X811Y815D01*
X819Y815D02*
X824Y815D01*
X840Y815D02*
X845Y815D01*
X864Y815D02*
X871Y815D01*
X888Y815D02*
X894Y815D01*
X915Y815D02*
X920Y815D01*
X156Y814D02*
X162Y814D01*
X176Y814D02*
X183Y814D01*
X201Y814D02*
X207Y814D01*
X215Y814D02*
X220Y814D01*
X228Y814D02*
X233Y814D01*
X793Y814D02*
X796Y814D01*
X805Y814D02*
X811Y814D01*
X819Y814D02*
X823Y814D01*
X841Y814D02*
X844Y814D01*
X864Y814D02*
X871Y814D01*
X888Y814D02*
X894Y814D01*
X915Y814D02*
X920Y814D01*
X156Y813D02*
X163Y813D01*
X176Y813D02*
X182Y813D01*
X201Y813D02*
X207Y813D01*
X215Y813D02*
X220Y813D01*
X228Y813D02*
X233Y813D01*
X805Y813D02*
X811Y813D01*
X863Y813D02*
X870Y813D01*
X888Y813D02*
X894Y813D01*
X915Y813D02*
X920Y813D01*
X157Y812D02*
X164Y812D01*
X175Y812D02*
X182Y812D01*
X202Y812D02*
X207Y812D01*
X215Y812D02*
X220Y812D01*
X228Y812D02*
X233Y812D01*
X805Y812D02*
X811Y812D01*
X862Y812D02*
X870Y812D01*
X888Y812D02*
X894Y812D01*
X915Y812D02*
X920Y812D01*
X157Y811D02*
X164Y811D01*
X174Y811D02*
X181Y811D01*
X202Y811D02*
X206Y811D01*
X215Y811D02*
X220Y811D01*
X229Y811D02*
X232Y811D01*
X805Y811D02*
X811Y811D01*
X861Y811D02*
X869Y811D01*
X888Y811D02*
X894Y811D01*
X915Y811D02*
X920Y811D01*
X158Y810D02*
X165Y810D01*
X174Y810D02*
X181Y810D01*
X204Y810D02*
X204Y810D01*
X215Y810D02*
X220Y810D01*
X231Y810D02*
X231Y810D01*
X805Y810D02*
X811Y810D01*
X860Y810D02*
X868Y810D01*
X888Y810D02*
X895Y810D01*
X915Y810D02*
X920Y810D01*
X158Y809D02*
X165Y809D01*
X173Y809D02*
X180Y809D01*
X215Y809D02*
X220Y809D01*
X805Y809D02*
X811Y809D01*
X860Y809D02*
X867Y809D01*
X889Y809D02*
X896Y809D01*
X915Y809D02*
X920Y809D01*
X159Y808D02*
X166Y808D01*
X173Y808D02*
X179Y808D01*
X215Y808D02*
X220Y808D01*
X805Y808D02*
X811Y808D01*
X859Y808D02*
X866Y808D01*
X889Y808D02*
X920Y808D01*
X160Y807D02*
X166Y807D01*
X172Y807D02*
X179Y807D01*
X215Y807D02*
X220Y807D01*
X805Y807D02*
X811Y807D01*
X858Y807D02*
X866Y807D01*
X889Y807D02*
X920Y807D01*
X160Y806D02*
X167Y806D01*
X171Y806D02*
X178Y806D01*
X215Y806D02*
X220Y806D01*
X805Y806D02*
X811Y806D01*
X857Y806D02*
X865Y806D01*
X890Y806D02*
X920Y806D01*
X161Y805D02*
X168Y805D01*
X171Y805D02*
X178Y805D01*
X215Y805D02*
X220Y805D01*
X805Y805D02*
X811Y805D01*
X857Y805D02*
X864Y805D01*
X891Y805D02*
X920Y805D01*
X161Y804D02*
X168Y804D01*
X170Y804D02*
X177Y804D01*
X215Y804D02*
X220Y804D01*
X805Y804D02*
X811Y804D01*
X856Y804D02*
X863Y804D01*
X892Y804D02*
X920Y804D01*
X162Y803D02*
X177Y803D01*
X215Y803D02*
X220Y803D01*
X805Y803D02*
X811Y803D01*
X855Y803D02*
X863Y803D01*
X894Y803D02*
X920Y803D01*
X163Y802D02*
X176Y802D01*
X215Y802D02*
X220Y802D01*
X805Y802D02*
X811Y802D01*
X854Y802D02*
X862Y802D01*
X897Y802D02*
X920Y802D01*
X163Y801D02*
X175Y801D01*
X215Y801D02*
X220Y801D01*
X805Y801D02*
X811Y801D01*
X853Y801D02*
X861Y801D01*
X902Y801D02*
X908Y801D01*
X915Y801D02*
X920Y801D01*
X164Y800D02*
X175Y800D01*
X215Y800D02*
X220Y800D01*
X805Y800D02*
X811Y800D01*
X853Y800D02*
X860Y800D01*
X901Y800D02*
X908Y800D01*
X915Y800D02*
X920Y800D01*
X164Y799D02*
X174Y799D01*
X215Y799D02*
X220Y799D01*
X805Y799D02*
X811Y799D01*
X852Y799D02*
X860Y799D01*
X900Y799D02*
X907Y799D01*
X915Y799D02*
X920Y799D01*
X165Y798D02*
X174Y798D01*
X215Y798D02*
X220Y798D01*
X805Y798D02*
X811Y798D01*
X851Y798D02*
X859Y798D01*
X900Y798D02*
X907Y798D01*
X915Y798D02*
X920Y798D01*
X165Y797D02*
X173Y797D01*
X215Y797D02*
X220Y797D01*
X805Y797D02*
X811Y797D01*
X850Y797D02*
X858Y797D01*
X899Y797D02*
X906Y797D01*
X915Y797D02*
X920Y797D01*
X166Y796D02*
X173Y796D01*
X215Y796D02*
X220Y796D01*
X805Y796D02*
X811Y796D01*
X850Y796D02*
X857Y796D01*
X899Y796D02*
X906Y796D01*
X915Y796D02*
X920Y796D01*
X165Y795D02*
X173Y795D01*
X215Y795D02*
X220Y795D01*
X805Y795D02*
X811Y795D01*
X849Y795D02*
X856Y795D01*
X898Y795D02*
X905Y795D01*
X915Y795D02*
X920Y795D01*
X164Y794D02*
X174Y794D01*
X215Y794D02*
X220Y794D01*
X805Y794D02*
X811Y794D01*
X848Y794D02*
X856Y794D01*
X898Y794D02*
X904Y794D01*
X915Y794D02*
X920Y794D01*
X164Y793D02*
X175Y793D01*
X215Y793D02*
X220Y793D01*
X805Y793D02*
X811Y793D01*
X847Y793D02*
X855Y793D01*
X897Y793D02*
X904Y793D01*
X915Y793D02*
X920Y793D01*
X163Y792D02*
X175Y792D01*
X215Y792D02*
X220Y792D01*
X805Y792D02*
X811Y792D01*
X846Y792D02*
X854Y792D01*
X896Y792D02*
X903Y792D01*
X915Y792D02*
X920Y792D01*
X163Y791D02*
X176Y791D01*
X215Y791D02*
X220Y791D01*
X805Y791D02*
X811Y791D01*
X846Y791D02*
X853Y791D01*
X896Y791D02*
X903Y791D01*
X915Y791D02*
X920Y791D01*
X162Y790D02*
X176Y790D01*
X215Y790D02*
X220Y790D01*
X805Y790D02*
X811Y790D01*
X845Y790D02*
X853Y790D01*
X895Y790D02*
X902Y790D01*
X915Y790D02*
X920Y790D01*
X162Y789D02*
X168Y789D01*
X170Y789D02*
X177Y789D01*
X215Y789D02*
X220Y789D01*
X805Y789D02*
X811Y789D01*
X844Y789D02*
X852Y789D01*
X895Y789D02*
X901Y789D01*
X915Y789D02*
X920Y789D01*
X161Y788D02*
X168Y788D01*
X171Y788D02*
X178Y788D01*
X215Y788D02*
X220Y788D01*
X805Y788D02*
X811Y788D01*
X843Y788D02*
X851Y788D01*
X894Y788D02*
X901Y788D01*
X915Y788D02*
X920Y788D01*
X160Y787D02*
X167Y787D01*
X171Y787D02*
X178Y787D01*
X215Y787D02*
X220Y787D01*
X805Y787D02*
X811Y787D01*
X843Y787D02*
X850Y787D01*
X893Y787D02*
X900Y787D01*
X915Y787D02*
X920Y787D01*
X160Y786D02*
X167Y786D01*
X172Y786D02*
X179Y786D01*
X215Y786D02*
X220Y786D01*
X805Y786D02*
X811Y786D01*
X842Y786D02*
X849Y786D01*
X893Y786D02*
X900Y786D01*
X915Y786D02*
X920Y786D01*
X159Y785D02*
X166Y785D01*
X172Y785D02*
X179Y785D01*
X215Y785D02*
X220Y785D01*
X805Y785D02*
X811Y785D01*
X841Y785D02*
X849Y785D01*
X868Y785D02*
X871Y785D01*
X892Y785D02*
X899Y785D01*
X915Y785D02*
X920Y785D01*
X159Y784D02*
X165Y784D01*
X173Y784D02*
X180Y784D01*
X215Y784D02*
X220Y784D01*
X805Y784D02*
X811Y784D01*
X841Y784D02*
X848Y784D01*
X867Y784D02*
X872Y784D01*
X892Y784D02*
X899Y784D01*
X915Y784D02*
X920Y784D01*
X158Y783D02*
X165Y783D01*
X174Y783D02*
X180Y783D01*
X215Y783D02*
X220Y783D01*
X805Y783D02*
X811Y783D01*
X840Y783D02*
X847Y783D01*
X866Y783D02*
X872Y783D01*
X891Y783D02*
X898Y783D01*
X915Y783D02*
X920Y783D01*
X157Y782D02*
X164Y782D01*
X174Y782D02*
X181Y782D01*
X215Y782D02*
X220Y782D01*
X805Y782D02*
X811Y782D01*
X840Y782D02*
X846Y782D01*
X866Y782D02*
X872Y782D01*
X891Y782D02*
X897Y782D01*
X915Y782D02*
X920Y782D01*
X157Y781D02*
X164Y781D01*
X175Y781D02*
X182Y781D01*
X215Y781D02*
X220Y781D01*
X805Y781D02*
X811Y781D01*
X840Y781D02*
X846Y781D01*
X866Y781D02*
X872Y781D01*
X890Y781D02*
X897Y781D01*
X915Y781D02*
X920Y781D01*
X156Y780D02*
X163Y780D01*
X175Y780D02*
X182Y780D01*
X215Y780D02*
X220Y780D01*
X805Y780D02*
X811Y780D01*
X840Y780D02*
X872Y780D01*
X889Y780D02*
X896Y780D01*
X915Y780D02*
X920Y780D01*
X156Y779D02*
X163Y779D01*
X176Y779D02*
X183Y779D01*
X215Y779D02*
X220Y779D01*
X805Y779D02*
X811Y779D01*
X840Y779D02*
X871Y779D01*
X889Y779D02*
X896Y779D01*
X915Y779D02*
X920Y779D01*
X155Y778D02*
X162Y778D01*
X177Y778D02*
X183Y778D01*
X215Y778D02*
X220Y778D01*
X805Y778D02*
X811Y778D01*
X841Y778D02*
X871Y778D01*
X888Y778D02*
X895Y778D01*
X915Y778D02*
X920Y778D01*
X155Y777D02*
X161Y777D01*
X177Y777D02*
X184Y777D01*
X215Y777D02*
X220Y777D01*
X805Y777D02*
X811Y777D01*
X841Y777D02*
X870Y777D01*
X888Y777D02*
X894Y777D01*
X915Y777D02*
X920Y777D01*
X154Y776D02*
X161Y776D01*
X178Y776D02*
X185Y776D01*
X215Y776D02*
X220Y776D01*
X805Y776D02*
X811Y776D01*
X842Y776D02*
X869Y776D01*
X888Y776D02*
X894Y776D01*
X915Y776D02*
X920Y776D01*
X153Y775D02*
X160Y775D01*
X178Y775D02*
X185Y775D01*
X215Y775D02*
X220Y775D01*
X806Y775D02*
X810Y775D01*
X843Y775D02*
X868Y775D01*
X889Y775D02*
X893Y775D01*
X915Y775D02*
X920Y775D01*
X153Y774D02*
X160Y774D01*
X179Y774D02*
X185Y774D01*
X215Y774D02*
X220Y774D01*
X807Y774D02*
X809Y774D01*
X845Y774D02*
X866Y774D01*
X890Y774D02*
X892Y774D01*
X916Y774D02*
X918Y774D01*
X153Y773D02*
X159Y773D01*
X179Y773D02*
X185Y773D01*
X215Y773D02*
X220Y773D01*
X154Y772D02*
X158Y772D01*
X180Y772D02*
X185Y772D01*
X215Y772D02*
X220Y772D01*
X155Y771D02*
X157Y771D01*
X181Y771D02*
X184Y771D01*
X216Y771D02*
X219Y771D01*
X843Y725D02*
X867Y725D01*
X902Y725D02*
X904Y725D01*
X842Y724D02*
X868Y724D01*
X901Y724D02*
X905Y724D01*
X841Y723D02*
X869Y723D01*
X900Y723D02*
X906Y723D01*
X156Y722D02*
X157Y722D01*
X183Y722D02*
X184Y722D01*
X210Y722D02*
X234Y722D01*
X840Y722D02*
X870Y722D01*
X900Y722D02*
X906Y722D01*
X155Y721D02*
X159Y721D01*
X181Y721D02*
X185Y721D01*
X208Y721D02*
X234Y721D01*
X839Y721D02*
X871Y721D01*
X900Y721D02*
X906Y721D01*
X154Y720D02*
X160Y720D01*
X181Y720D02*
X186Y720D01*
X206Y720D02*
X234Y720D01*
X839Y720D02*
X871Y720D01*
X900Y720D02*
X907Y720D01*
X154Y719D02*
X160Y719D01*
X180Y719D02*
X186Y719D01*
X205Y719D02*
X234Y719D01*
X839Y719D02*
X871Y719D01*
X899Y719D02*
X907Y719D01*
X154Y718D02*
X161Y718D01*
X179Y718D02*
X186Y718D01*
X204Y718D02*
X234Y718D01*
X839Y718D02*
X845Y718D01*
X865Y718D02*
X871Y718D01*
X899Y718D02*
X907Y718D01*
X154Y717D02*
X161Y717D01*
X179Y717D02*
X186Y717D01*
X203Y717D02*
X234Y717D01*
X839Y717D02*
X845Y717D01*
X865Y717D02*
X871Y717D01*
X899Y717D02*
X908Y717D01*
X155Y716D02*
X162Y716D01*
X178Y716D02*
X185Y716D01*
X203Y716D02*
X234Y716D01*
X839Y716D02*
X845Y716D01*
X865Y716D02*
X871Y716D01*
X898Y716D02*
X908Y716D01*
X156Y715D02*
X162Y715D01*
X178Y715D02*
X184Y715D01*
X203Y715D02*
X210Y715D01*
X228Y715D02*
X234Y715D01*
X839Y715D02*
X845Y715D01*
X865Y715D02*
X871Y715D01*
X898Y715D02*
X908Y715D01*
X156Y714D02*
X163Y714D01*
X177Y714D02*
X184Y714D01*
X202Y714D02*
X209Y714D01*
X229Y714D02*
X234Y714D01*
X839Y714D02*
X845Y714D01*
X865Y714D02*
X871Y714D01*
X898Y714D02*
X909Y714D01*
X157Y713D02*
X164Y713D01*
X176Y713D02*
X183Y713D01*
X202Y713D02*
X208Y713D01*
X229Y713D02*
X234Y713D01*
X839Y713D02*
X845Y713D01*
X865Y713D02*
X871Y713D01*
X897Y713D02*
X909Y713D01*
X157Y712D02*
X164Y712D01*
X176Y712D02*
X183Y712D01*
X202Y712D02*
X208Y712D01*
X229Y712D02*
X234Y712D01*
X839Y712D02*
X845Y712D01*
X865Y712D02*
X871Y712D01*
X897Y712D02*
X909Y712D01*
X158Y711D02*
X165Y711D01*
X175Y711D02*
X182Y711D01*
X202Y711D02*
X208Y711D01*
X229Y711D02*
X234Y711D01*
X839Y711D02*
X845Y711D01*
X865Y711D02*
X871Y711D01*
X897Y711D02*
X909Y711D01*
X159Y710D02*
X165Y710D01*
X175Y710D02*
X182Y710D01*
X202Y710D02*
X208Y710D01*
X229Y710D02*
X234Y710D01*
X839Y710D02*
X845Y710D01*
X865Y710D02*
X871Y710D01*
X897Y710D02*
X910Y710D01*
X159Y709D02*
X166Y709D01*
X174Y709D02*
X181Y709D01*
X202Y709D02*
X208Y709D01*
X229Y709D02*
X234Y709D01*
X839Y709D02*
X845Y709D01*
X865Y709D02*
X871Y709D01*
X896Y709D02*
X902Y709D01*
X904Y709D02*
X910Y709D01*
X160Y708D02*
X167Y708D01*
X173Y708D02*
X180Y708D01*
X202Y708D02*
X208Y708D01*
X229Y708D02*
X234Y708D01*
X839Y708D02*
X845Y708D01*
X865Y708D02*
X871Y708D01*
X896Y708D02*
X902Y708D01*
X904Y708D02*
X910Y708D01*
X160Y707D02*
X167Y707D01*
X173Y707D02*
X180Y707D01*
X202Y707D02*
X208Y707D01*
X229Y707D02*
X234Y707D01*
X839Y707D02*
X845Y707D01*
X865Y707D02*
X871Y707D01*
X896Y707D02*
X902Y707D01*
X905Y707D02*
X911Y707D01*
X161Y706D02*
X168Y706D01*
X172Y706D02*
X179Y706D01*
X202Y706D02*
X209Y706D01*
X229Y706D02*
X234Y706D01*
X839Y706D02*
X845Y706D01*
X865Y706D02*
X871Y706D01*
X895Y706D02*
X901Y706D01*
X905Y706D02*
X911Y706D01*
X161Y705D02*
X168Y705D01*
X172Y705D02*
X179Y705D01*
X203Y705D02*
X234Y705D01*
X839Y705D02*
X845Y705D01*
X865Y705D02*
X871Y705D01*
X895Y705D02*
X901Y705D01*
X905Y705D02*
X911Y705D01*
X162Y704D02*
X169Y704D01*
X171Y704D02*
X178Y704D01*
X203Y704D02*
X234Y704D01*
X839Y704D02*
X845Y704D01*
X865Y704D02*
X871Y704D01*
X895Y704D02*
X901Y704D01*
X905Y704D02*
X911Y704D01*
X163Y703D02*
X177Y703D01*
X204Y703D02*
X234Y703D01*
X839Y703D02*
X845Y703D01*
X865Y703D02*
X871Y703D01*
X895Y703D02*
X901Y703D01*
X906Y703D02*
X912Y703D01*
X163Y702D02*
X177Y702D01*
X205Y702D02*
X234Y702D01*
X839Y702D02*
X845Y702D01*
X865Y702D02*
X871Y702D01*
X894Y702D02*
X900Y702D01*
X906Y702D02*
X912Y702D01*
X164Y701D02*
X176Y701D01*
X206Y701D02*
X234Y701D01*
X839Y701D02*
X845Y701D01*
X865Y701D02*
X871Y701D01*
X894Y701D02*
X900Y701D01*
X906Y701D02*
X912Y701D01*
X164Y700D02*
X176Y700D01*
X207Y700D02*
X234Y700D01*
X839Y700D02*
X845Y700D01*
X865Y700D02*
X871Y700D01*
X894Y700D02*
X900Y700D01*
X907Y700D02*
X913Y700D01*
X165Y699D02*
X175Y699D01*
X209Y699D02*
X234Y699D01*
X839Y699D02*
X845Y699D01*
X865Y699D02*
X871Y699D01*
X893Y699D02*
X899Y699D01*
X907Y699D02*
X913Y699D01*
X166Y698D02*
X174Y698D01*
X216Y698D02*
X223Y698D01*
X229Y698D02*
X234Y698D01*
X839Y698D02*
X845Y698D01*
X865Y698D02*
X871Y698D01*
X893Y698D02*
X899Y698D01*
X907Y698D02*
X913Y698D01*
X166Y697D02*
X174Y697D01*
X215Y697D02*
X222Y697D01*
X229Y697D02*
X234Y697D01*
X839Y697D02*
X845Y697D01*
X865Y697D02*
X871Y697D01*
X893Y697D02*
X899Y697D01*
X907Y697D02*
X914Y697D01*
X166Y696D02*
X174Y696D01*
X215Y696D02*
X221Y696D01*
X229Y696D02*
X234Y696D01*
X839Y696D02*
X845Y696D01*
X865Y696D02*
X871Y696D01*
X893Y696D02*
X898Y696D01*
X908Y696D02*
X914Y696D01*
X166Y695D02*
X174Y695D01*
X214Y695D02*
X221Y695D01*
X229Y695D02*
X234Y695D01*
X839Y695D02*
X845Y695D01*
X865Y695D02*
X871Y695D01*
X892Y695D02*
X898Y695D01*
X908Y695D02*
X914Y695D01*
X165Y694D02*
X175Y694D01*
X213Y694D02*
X220Y694D01*
X229Y694D02*
X234Y694D01*
X839Y694D02*
X845Y694D01*
X865Y694D02*
X871Y694D01*
X892Y694D02*
X898Y694D01*
X908Y694D02*
X914Y694D01*
X165Y693D02*
X175Y693D01*
X213Y693D02*
X220Y693D01*
X229Y693D02*
X234Y693D01*
X839Y693D02*
X845Y693D01*
X865Y693D02*
X871Y693D01*
X892Y693D02*
X898Y693D01*
X909Y693D02*
X915Y693D01*
X164Y692D02*
X176Y692D01*
X212Y692D02*
X219Y692D01*
X229Y692D02*
X234Y692D01*
X839Y692D02*
X845Y692D01*
X865Y692D02*
X871Y692D01*
X891Y692D02*
X897Y692D01*
X909Y692D02*
X915Y692D01*
X164Y691D02*
X176Y691D01*
X212Y691D02*
X219Y691D01*
X229Y691D02*
X234Y691D01*
X839Y691D02*
X845Y691D01*
X865Y691D02*
X871Y691D01*
X891Y691D02*
X915Y691D01*
X163Y690D02*
X177Y690D01*
X211Y690D02*
X218Y690D01*
X229Y690D02*
X234Y690D01*
X839Y690D02*
X845Y690D01*
X865Y690D02*
X871Y690D01*
X891Y690D02*
X916Y690D01*
X162Y689D02*
X169Y689D01*
X171Y689D02*
X178Y689D01*
X211Y689D02*
X217Y689D01*
X229Y689D02*
X234Y689D01*
X839Y689D02*
X845Y689D01*
X865Y689D02*
X871Y689D01*
X890Y689D02*
X916Y689D01*
X162Y688D02*
X169Y688D01*
X171Y688D02*
X178Y688D01*
X210Y688D02*
X217Y688D01*
X229Y688D02*
X234Y688D01*
X839Y688D02*
X845Y688D01*
X865Y688D02*
X871Y688D01*
X890Y688D02*
X916Y688D01*
X161Y687D02*
X168Y687D01*
X172Y687D02*
X179Y687D01*
X209Y687D02*
X216Y687D01*
X229Y687D02*
X234Y687D01*
X839Y687D02*
X845Y687D01*
X865Y687D02*
X871Y687D01*
X890Y687D02*
X916Y687D01*
X161Y686D02*
X167Y686D01*
X173Y686D02*
X179Y686D01*
X209Y686D02*
X216Y686D01*
X229Y686D02*
X234Y686D01*
X839Y686D02*
X845Y686D01*
X865Y686D02*
X871Y686D01*
X890Y686D02*
X917Y686D01*
X160Y685D02*
X167Y685D01*
X173Y685D02*
X180Y685D01*
X208Y685D02*
X215Y685D01*
X229Y685D02*
X234Y685D01*
X839Y685D02*
X845Y685D01*
X865Y685D02*
X871Y685D01*
X889Y685D02*
X917Y685D01*
X159Y684D02*
X166Y684D01*
X174Y684D02*
X181Y684D01*
X208Y684D02*
X214Y684D01*
X229Y684D02*
X234Y684D01*
X839Y684D02*
X845Y684D01*
X865Y684D02*
X871Y684D01*
X889Y684D02*
X895Y684D01*
X911Y684D02*
X917Y684D01*
X159Y683D02*
X166Y683D01*
X174Y683D02*
X181Y683D01*
X207Y683D02*
X214Y683D01*
X229Y683D02*
X234Y683D01*
X839Y683D02*
X845Y683D01*
X865Y683D02*
X871Y683D01*
X889Y683D02*
X895Y683D01*
X912Y683D02*
X918Y683D01*
X158Y682D02*
X165Y682D01*
X175Y682D02*
X182Y682D01*
X206Y682D02*
X213Y682D01*
X229Y682D02*
X234Y682D01*
X839Y682D02*
X845Y682D01*
X865Y682D02*
X871Y682D01*
X888Y682D02*
X894Y682D01*
X912Y682D02*
X918Y682D01*
X158Y681D02*
X165Y681D01*
X175Y681D02*
X182Y681D01*
X206Y681D02*
X213Y681D01*
X229Y681D02*
X234Y681D01*
X839Y681D02*
X845Y681D01*
X865Y681D02*
X871Y681D01*
X888Y681D02*
X894Y681D01*
X912Y681D02*
X918Y681D01*
X157Y680D02*
X164Y680D01*
X176Y680D02*
X183Y680D01*
X205Y680D02*
X212Y680D01*
X229Y680D02*
X234Y680D01*
X839Y680D02*
X871Y680D01*
X888Y680D02*
X894Y680D01*
X912Y680D02*
X918Y680D01*
X157Y679D02*
X163Y679D01*
X177Y679D02*
X184Y679D01*
X205Y679D02*
X212Y679D01*
X229Y679D02*
X234Y679D01*
X839Y679D02*
X871Y679D01*
X888Y679D02*
X893Y679D01*
X913Y679D02*
X919Y679D01*
X156Y678D02*
X163Y678D01*
X177Y678D02*
X184Y678D01*
X204Y678D02*
X211Y678D01*
X229Y678D02*
X234Y678D01*
X839Y678D02*
X871Y678D01*
X887Y678D02*
X893Y678D01*
X913Y678D02*
X919Y678D01*
X155Y677D02*
X162Y677D01*
X178Y677D02*
X185Y677D01*
X204Y677D02*
X210Y677D01*
X229Y677D02*
X234Y677D01*
X840Y677D02*
X870Y677D01*
X887Y677D02*
X893Y677D01*
X913Y677D02*
X919Y677D01*
X155Y676D02*
X162Y676D01*
X178Y676D02*
X185Y676D01*
X203Y676D02*
X210Y676D01*
X229Y676D02*
X234Y676D01*
X841Y676D02*
X869Y676D01*
X887Y676D02*
X893Y676D01*
X914Y676D02*
X919Y676D01*
X154Y675D02*
X161Y675D01*
X179Y675D02*
X186Y675D01*
X202Y675D02*
X209Y675D01*
X229Y675D02*
X234Y675D01*
X842Y675D02*
X868Y675D01*
X888Y675D02*
X892Y675D01*
X914Y675D02*
X919Y675D01*
X154Y674D02*
X160Y674D01*
X180Y674D02*
X186Y674D01*
X202Y674D02*
X209Y674D01*
X229Y674D02*
X234Y674D01*
X843Y674D02*
X867Y674D01*
X889Y674D02*
X891Y674D01*
X915Y674D02*
X918Y674D01*
X154Y673D02*
X160Y673D01*
X180Y673D02*
X186Y673D01*
X202Y673D02*
X208Y673D01*
X229Y673D02*
X234Y673D01*
X154Y672D02*
X159Y672D01*
X181Y672D02*
X186Y672D01*
X203Y672D02*
X207Y672D01*
X229Y672D02*
X234Y672D01*
X155Y671D02*
X158Y671D01*
X182Y671D02*
X185Y671D01*
X203Y671D02*
X206Y671D01*
X230Y671D02*
X233Y671D01*
X843Y623D02*
X868Y623D01*
X902Y623D02*
X919Y623D01*
X166Y622D02*
X184Y622D01*
X215Y622D02*
X232Y622D01*
X842Y622D02*
X870Y622D01*
X900Y622D02*
X920Y622D01*
X166Y621D02*
X185Y621D01*
X213Y621D02*
X233Y621D01*
X841Y621D02*
X870Y621D01*
X898Y621D02*
X920Y621D01*
X166Y620D02*
X185Y620D01*
X212Y620D02*
X233Y620D01*
X840Y620D02*
X871Y620D01*
X897Y620D02*
X920Y620D01*
X166Y619D02*
X185Y619D01*
X211Y619D02*
X233Y619D01*
X840Y619D02*
X872Y619D01*
X897Y619D02*
X920Y619D01*
X166Y618D02*
X185Y618D01*
X210Y618D02*
X233Y618D01*
X840Y618D02*
X872Y618D01*
X896Y618D02*
X919Y618D01*
X166Y617D02*
X184Y617D01*
X210Y617D02*
X232Y617D01*
X840Y617D02*
X846Y617D01*
X866Y617D02*
X872Y617D01*
X896Y617D02*
X903Y617D01*
X907Y617D02*
X914Y617D01*
X166Y616D02*
X172Y616D01*
X209Y616D02*
X217Y616D01*
X221Y616D02*
X227Y616D01*
X840Y616D02*
X845Y616D01*
X866Y616D02*
X872Y616D01*
X895Y616D02*
X902Y616D01*
X908Y616D02*
X913Y616D01*
X166Y615D02*
X172Y615D01*
X209Y615D02*
X215Y615D01*
X221Y615D02*
X227Y615D01*
X840Y615D02*
X845Y615D01*
X866Y615D02*
X872Y615D01*
X895Y615D02*
X901Y615D01*
X908Y615D02*
X913Y615D01*
X166Y614D02*
X172Y614D01*
X208Y614D02*
X215Y614D01*
X221Y614D02*
X227Y614D01*
X840Y614D02*
X845Y614D01*
X866Y614D02*
X872Y614D01*
X894Y614D02*
X901Y614D01*
X908Y614D02*
X913Y614D01*
X166Y613D02*
X172Y613D01*
X208Y613D02*
X214Y613D01*
X221Y613D02*
X227Y613D01*
X840Y613D02*
X845Y613D01*
X866Y613D02*
X872Y613D01*
X894Y613D02*
X900Y613D01*
X908Y613D02*
X913Y613D01*
X166Y612D02*
X172Y612D01*
X207Y612D02*
X214Y612D01*
X221Y612D02*
X227Y612D01*
X840Y612D02*
X845Y612D01*
X866Y612D02*
X872Y612D01*
X893Y612D02*
X900Y612D01*
X908Y612D02*
X913Y612D01*
X166Y611D02*
X172Y611D01*
X207Y611D02*
X213Y611D01*
X221Y611D02*
X227Y611D01*
X840Y611D02*
X845Y611D01*
X866Y611D02*
X872Y611D01*
X893Y611D02*
X899Y611D01*
X908Y611D02*
X913Y611D01*
X166Y610D02*
X172Y610D01*
X206Y610D02*
X213Y610D01*
X221Y610D02*
X227Y610D01*
X840Y610D02*
X845Y610D01*
X866Y610D02*
X872Y610D01*
X892Y610D02*
X899Y610D01*
X908Y610D02*
X913Y610D01*
X166Y609D02*
X172Y609D01*
X206Y609D02*
X212Y609D01*
X221Y609D02*
X227Y609D01*
X840Y609D02*
X845Y609D01*
X866Y609D02*
X872Y609D01*
X892Y609D02*
X898Y609D01*
X908Y609D02*
X913Y609D01*
X166Y608D02*
X172Y608D01*
X205Y608D02*
X212Y608D01*
X221Y608D02*
X227Y608D01*
X840Y608D02*
X845Y608D01*
X866Y608D02*
X872Y608D01*
X891Y608D02*
X898Y608D01*
X908Y608D02*
X913Y608D01*
X166Y607D02*
X172Y607D01*
X205Y607D02*
X211Y607D01*
X221Y607D02*
X227Y607D01*
X840Y607D02*
X845Y607D01*
X866Y607D02*
X872Y607D01*
X891Y607D02*
X897Y607D01*
X908Y607D02*
X913Y607D01*
X166Y606D02*
X172Y606D01*
X204Y606D02*
X211Y606D01*
X221Y606D02*
X227Y606D01*
X840Y606D02*
X845Y606D01*
X866Y606D02*
X872Y606D01*
X890Y606D02*
X897Y606D01*
X908Y606D02*
X913Y606D01*
X166Y605D02*
X172Y605D01*
X204Y605D02*
X210Y605D01*
X221Y605D02*
X227Y605D01*
X840Y605D02*
X845Y605D01*
X866Y605D02*
X872Y605D01*
X890Y605D02*
X896Y605D01*
X908Y605D02*
X913Y605D01*
X166Y604D02*
X172Y604D01*
X203Y604D02*
X210Y604D01*
X221Y604D02*
X227Y604D01*
X840Y604D02*
X845Y604D01*
X866Y604D02*
X872Y604D01*
X889Y604D02*
X896Y604D01*
X908Y604D02*
X913Y604D01*
X166Y603D02*
X172Y603D01*
X203Y603D02*
X209Y603D01*
X221Y603D02*
X227Y603D01*
X840Y603D02*
X845Y603D01*
X866Y603D02*
X872Y603D01*
X889Y603D02*
X895Y603D01*
X908Y603D02*
X913Y603D01*
X166Y602D02*
X172Y602D01*
X202Y602D02*
X209Y602D01*
X221Y602D02*
X227Y602D01*
X840Y602D02*
X845Y602D01*
X866Y602D02*
X872Y602D01*
X888Y602D02*
X895Y602D01*
X908Y602D02*
X913Y602D01*
X166Y601D02*
X172Y601D01*
X202Y601D02*
X208Y601D01*
X221Y601D02*
X227Y601D01*
X840Y601D02*
X845Y601D01*
X866Y601D02*
X872Y601D01*
X888Y601D02*
X894Y601D01*
X908Y601D02*
X913Y601D01*
X166Y600D02*
X172Y600D01*
X202Y600D02*
X208Y600D01*
X221Y600D02*
X227Y600D01*
X840Y600D02*
X845Y600D01*
X866Y600D02*
X872Y600D01*
X888Y600D02*
X894Y600D01*
X908Y600D02*
X913Y600D01*
X166Y599D02*
X172Y599D01*
X202Y599D02*
X207Y599D01*
X221Y599D02*
X227Y599D01*
X840Y599D02*
X845Y599D01*
X866Y599D02*
X872Y599D01*
X888Y599D02*
X894Y599D01*
X908Y599D02*
X913Y599D01*
X166Y598D02*
X172Y598D01*
X201Y598D02*
X207Y598D01*
X221Y598D02*
X227Y598D01*
X840Y598D02*
X845Y598D01*
X866Y598D02*
X872Y598D01*
X888Y598D02*
X894Y598D01*
X908Y598D02*
X913Y598D01*
X166Y597D02*
X172Y597D01*
X201Y597D02*
X207Y597D01*
X221Y597D02*
X227Y597D01*
X840Y597D02*
X845Y597D01*
X866Y597D02*
X872Y597D01*
X888Y597D02*
X894Y597D01*
X908Y597D02*
X913Y597D01*
X166Y596D02*
X172Y596D01*
X201Y596D02*
X207Y596D01*
X221Y596D02*
X227Y596D01*
X840Y596D02*
X845Y596D01*
X866Y596D02*
X872Y596D01*
X888Y596D02*
X894Y596D01*
X908Y596D02*
X913Y596D01*
X166Y595D02*
X172Y595D01*
X202Y595D02*
X207Y595D01*
X221Y595D02*
X227Y595D01*
X840Y595D02*
X845Y595D01*
X866Y595D02*
X872Y595D01*
X888Y595D02*
X894Y595D01*
X908Y595D02*
X913Y595D01*
X155Y594D02*
X157Y594D01*
X166Y594D02*
X172Y594D01*
X202Y594D02*
X208Y594D01*
X221Y594D02*
X227Y594D01*
X840Y594D02*
X845Y594D01*
X866Y594D02*
X872Y594D01*
X888Y594D02*
X894Y594D01*
X908Y594D02*
X913Y594D01*
X154Y593D02*
X158Y593D01*
X166Y593D02*
X172Y593D01*
X202Y593D02*
X208Y593D01*
X221Y593D02*
X227Y593D01*
X840Y593D02*
X845Y593D01*
X866Y593D02*
X872Y593D01*
X889Y593D02*
X895Y593D01*
X908Y593D02*
X913Y593D01*
X153Y592D02*
X159Y592D01*
X166Y592D02*
X172Y592D01*
X202Y592D02*
X208Y592D01*
X221Y592D02*
X227Y592D01*
X840Y592D02*
X845Y592D01*
X866Y592D02*
X872Y592D01*
X889Y592D02*
X895Y592D01*
X908Y592D02*
X913Y592D01*
X153Y591D02*
X159Y591D01*
X166Y591D02*
X172Y591D01*
X203Y591D02*
X209Y591D01*
X221Y591D02*
X227Y591D01*
X840Y591D02*
X845Y591D01*
X866Y591D02*
X872Y591D01*
X889Y591D02*
X896Y591D01*
X908Y591D02*
X913Y591D01*
X153Y590D02*
X159Y590D01*
X166Y590D02*
X172Y590D01*
X203Y590D02*
X209Y590D01*
X221Y590D02*
X227Y590D01*
X840Y590D02*
X845Y590D01*
X866Y590D02*
X872Y590D01*
X890Y590D02*
X896Y590D01*
X908Y590D02*
X913Y590D01*
X153Y589D02*
X159Y589D01*
X166Y589D02*
X172Y589D01*
X203Y589D02*
X210Y589D01*
X221Y589D02*
X227Y589D01*
X840Y589D02*
X845Y589D01*
X866Y589D02*
X872Y589D01*
X890Y589D02*
X897Y589D01*
X908Y589D02*
X913Y589D01*
X153Y588D02*
X159Y588D01*
X166Y588D02*
X172Y588D01*
X204Y588D02*
X211Y588D01*
X221Y588D02*
X227Y588D01*
X840Y588D02*
X845Y588D01*
X866Y588D02*
X872Y588D01*
X891Y588D02*
X897Y588D01*
X908Y588D02*
X913Y588D01*
X153Y587D02*
X159Y587D01*
X166Y587D02*
X172Y587D01*
X204Y587D02*
X211Y587D01*
X221Y587D02*
X227Y587D01*
X840Y587D02*
X845Y587D01*
X866Y587D02*
X872Y587D01*
X891Y587D02*
X898Y587D01*
X908Y587D02*
X913Y587D01*
X153Y586D02*
X159Y586D01*
X166Y586D02*
X172Y586D01*
X205Y586D02*
X212Y586D01*
X221Y586D02*
X227Y586D01*
X840Y586D02*
X845Y586D01*
X866Y586D02*
X872Y586D01*
X892Y586D02*
X899Y586D01*
X908Y586D02*
X913Y586D01*
X153Y585D02*
X159Y585D01*
X166Y585D02*
X172Y585D01*
X205Y585D02*
X212Y585D01*
X221Y585D02*
X227Y585D01*
X840Y585D02*
X845Y585D01*
X866Y585D02*
X872Y585D01*
X892Y585D02*
X899Y585D01*
X908Y585D02*
X913Y585D01*
X153Y584D02*
X159Y584D01*
X166Y584D02*
X172Y584D01*
X206Y584D02*
X213Y584D01*
X221Y584D02*
X227Y584D01*
X840Y584D02*
X845Y584D01*
X866Y584D02*
X872Y584D01*
X893Y584D02*
X900Y584D01*
X908Y584D02*
X913Y584D01*
X153Y583D02*
X159Y583D01*
X166Y583D02*
X172Y583D01*
X206Y583D02*
X213Y583D01*
X221Y583D02*
X227Y583D01*
X840Y583D02*
X845Y583D01*
X866Y583D02*
X872Y583D01*
X893Y583D02*
X900Y583D01*
X908Y583D02*
X913Y583D01*
X153Y582D02*
X159Y582D01*
X166Y582D02*
X172Y582D01*
X207Y582D02*
X214Y582D01*
X221Y582D02*
X227Y582D01*
X840Y582D02*
X845Y582D01*
X866Y582D02*
X872Y582D01*
X894Y582D02*
X901Y582D01*
X908Y582D02*
X913Y582D01*
X153Y581D02*
X159Y581D01*
X166Y581D02*
X172Y581D01*
X207Y581D02*
X214Y581D01*
X221Y581D02*
X227Y581D01*
X840Y581D02*
X845Y581D01*
X866Y581D02*
X872Y581D01*
X894Y581D02*
X901Y581D01*
X908Y581D02*
X913Y581D01*
X153Y580D02*
X159Y580D01*
X166Y580D02*
X172Y580D01*
X208Y580D02*
X215Y580D01*
X221Y580D02*
X227Y580D01*
X840Y580D02*
X845Y580D01*
X866Y580D02*
X872Y580D01*
X895Y580D02*
X902Y580D01*
X908Y580D02*
X913Y580D01*
X153Y579D02*
X159Y579D01*
X166Y579D02*
X172Y579D01*
X208Y579D02*
X215Y579D01*
X221Y579D02*
X227Y579D01*
X840Y579D02*
X845Y579D01*
X866Y579D02*
X872Y579D01*
X895Y579D02*
X903Y579D01*
X908Y579D02*
X913Y579D01*
X153Y578D02*
X159Y578D01*
X166Y578D02*
X172Y578D01*
X209Y578D02*
X216Y578D01*
X221Y578D02*
X227Y578D01*
X840Y578D02*
X872Y578D01*
X896Y578D02*
X918Y578D01*
X153Y577D02*
X184Y577D01*
X209Y577D02*
X232Y577D01*
X840Y577D02*
X872Y577D01*
X896Y577D02*
X919Y577D01*
X153Y576D02*
X185Y576D01*
X210Y576D02*
X233Y576D01*
X840Y576D02*
X871Y576D01*
X897Y576D02*
X920Y576D01*
X153Y575D02*
X185Y575D01*
X211Y575D02*
X233Y575D01*
X841Y575D02*
X871Y575D01*
X898Y575D02*
X920Y575D01*
X153Y574D02*
X185Y574D01*
X211Y574D02*
X233Y574D01*
X842Y574D02*
X870Y574D01*
X899Y574D02*
X920Y574D01*
X153Y573D02*
X185Y573D01*
X213Y573D02*
X233Y573D01*
X843Y573D02*
X869Y573D01*
X901Y573D02*
X919Y573D01*
X154Y572D02*
X184Y572D01*
X214Y572D02*
X233Y572D01*
X845Y572D02*
X866Y572D01*
X904Y572D02*
X917Y572D01*
X156Y571D02*
X182Y571D01*
X218Y571D02*
X231Y571D01*
X841Y524D02*
X864Y524D01*
X901Y524D02*
X918Y524D01*
X159Y523D02*
X183Y523D01*
X218Y523D02*
X231Y523D01*
X839Y523D02*
X864Y523D01*
X899Y523D02*
X919Y523D01*
X157Y522D02*
X185Y522D01*
X215Y522D02*
X233Y522D01*
X839Y522D02*
X864Y522D01*
X898Y522D02*
X919Y522D01*
X156Y521D02*
X185Y521D01*
X213Y521D02*
X234Y521D01*
X839Y521D02*
X864Y521D01*
X897Y521D02*
X919Y521D01*
X155Y520D02*
X186Y520D01*
X212Y520D02*
X234Y520D01*
X839Y520D02*
X864Y520D01*
X896Y520D02*
X919Y520D01*
X154Y519D02*
X186Y519D01*
X211Y519D02*
X234Y519D01*
X840Y519D02*
X864Y519D01*
X896Y519D02*
X918Y519D01*
X154Y518D02*
X185Y518D01*
X210Y518D02*
X233Y518D01*
X841Y518D02*
X864Y518D01*
X895Y518D02*
X917Y518D01*
X154Y517D02*
X184Y517D01*
X210Y517D02*
X232Y517D01*
X859Y517D02*
X864Y517D01*
X895Y517D02*
X901Y517D01*
X907Y517D02*
X913Y517D01*
X154Y516D02*
X159Y516D01*
X209Y516D02*
X217Y516D01*
X222Y516D02*
X227Y516D01*
X859Y516D02*
X864Y516D01*
X894Y516D02*
X901Y516D01*
X907Y516D02*
X913Y516D01*
X154Y515D02*
X159Y515D01*
X209Y515D02*
X216Y515D01*
X222Y515D02*
X227Y515D01*
X859Y515D02*
X864Y515D01*
X894Y515D02*
X900Y515D01*
X907Y515D02*
X913Y515D01*
X154Y514D02*
X159Y514D01*
X208Y514D02*
X215Y514D01*
X222Y514D02*
X227Y514D01*
X859Y514D02*
X864Y514D01*
X893Y514D02*
X900Y514D01*
X907Y514D02*
X913Y514D01*
X154Y513D02*
X159Y513D01*
X208Y513D02*
X214Y513D01*
X222Y513D02*
X227Y513D01*
X859Y513D02*
X864Y513D01*
X892Y513D02*
X899Y513D01*
X907Y513D02*
X913Y513D01*
X154Y512D02*
X159Y512D01*
X207Y512D02*
X214Y512D01*
X222Y512D02*
X227Y512D01*
X859Y512D02*
X864Y512D01*
X892Y512D02*
X899Y512D01*
X907Y512D02*
X913Y512D01*
X154Y511D02*
X159Y511D01*
X207Y511D02*
X213Y511D01*
X222Y511D02*
X227Y511D01*
X859Y511D02*
X864Y511D01*
X891Y511D02*
X898Y511D01*
X907Y511D02*
X913Y511D01*
X154Y510D02*
X159Y510D01*
X206Y510D02*
X213Y510D01*
X222Y510D02*
X227Y510D01*
X859Y510D02*
X864Y510D01*
X891Y510D02*
X898Y510D01*
X907Y510D02*
X913Y510D01*
X154Y509D02*
X159Y509D01*
X206Y509D02*
X212Y509D01*
X222Y509D02*
X227Y509D01*
X859Y509D02*
X864Y509D01*
X890Y509D02*
X897Y509D01*
X907Y509D02*
X913Y509D01*
X154Y508D02*
X159Y508D01*
X205Y508D02*
X212Y508D01*
X222Y508D02*
X227Y508D01*
X859Y508D02*
X864Y508D01*
X890Y508D02*
X897Y508D01*
X907Y508D02*
X913Y508D01*
X154Y507D02*
X159Y507D01*
X205Y507D02*
X211Y507D01*
X222Y507D02*
X227Y507D01*
X859Y507D02*
X864Y507D01*
X889Y507D02*
X896Y507D01*
X907Y507D02*
X913Y507D01*
X154Y506D02*
X159Y506D01*
X204Y506D02*
X211Y506D01*
X222Y506D02*
X227Y506D01*
X859Y506D02*
X864Y506D01*
X889Y506D02*
X896Y506D01*
X907Y506D02*
X913Y506D01*
X154Y505D02*
X159Y505D01*
X204Y505D02*
X210Y505D01*
X222Y505D02*
X227Y505D01*
X859Y505D02*
X864Y505D01*
X889Y505D02*
X895Y505D01*
X907Y505D02*
X913Y505D01*
X154Y504D02*
X159Y504D01*
X203Y504D02*
X210Y504D01*
X222Y504D02*
X227Y504D01*
X859Y504D02*
X864Y504D01*
X888Y504D02*
X894Y504D01*
X907Y504D02*
X913Y504D01*
X154Y503D02*
X159Y503D01*
X203Y503D02*
X209Y503D01*
X222Y503D02*
X227Y503D01*
X859Y503D02*
X864Y503D01*
X888Y503D02*
X894Y503D01*
X907Y503D02*
X913Y503D01*
X154Y502D02*
X159Y502D01*
X203Y502D02*
X209Y502D01*
X222Y502D02*
X227Y502D01*
X858Y502D02*
X864Y502D01*
X887Y502D02*
X894Y502D01*
X907Y502D02*
X913Y502D01*
X154Y501D02*
X159Y501D01*
X202Y501D02*
X208Y501D01*
X222Y501D02*
X227Y501D01*
X842Y501D02*
X864Y501D01*
X887Y501D02*
X893Y501D01*
X907Y501D02*
X913Y501D01*
X154Y500D02*
X182Y500D01*
X202Y500D02*
X208Y500D01*
X222Y500D02*
X227Y500D01*
X841Y500D02*
X864Y500D01*
X887Y500D02*
X893Y500D01*
X907Y500D02*
X913Y500D01*
X154Y499D02*
X183Y499D01*
X202Y499D02*
X208Y499D01*
X222Y499D02*
X227Y499D01*
X840Y499D02*
X864Y499D01*
X887Y499D02*
X893Y499D01*
X907Y499D02*
X913Y499D01*
X154Y498D02*
X184Y498D01*
X202Y498D02*
X208Y498D01*
X222Y498D02*
X227Y498D01*
X840Y498D02*
X864Y498D01*
X887Y498D02*
X893Y498D01*
X907Y498D02*
X913Y498D01*
X155Y497D02*
X185Y497D01*
X202Y497D02*
X207Y497D01*
X222Y497D02*
X227Y497D01*
X839Y497D02*
X864Y497D01*
X887Y497D02*
X893Y497D01*
X907Y497D02*
X913Y497D01*
X156Y496D02*
X185Y496D01*
X202Y496D02*
X208Y496D01*
X222Y496D02*
X227Y496D01*
X839Y496D02*
X864Y496D01*
X887Y496D02*
X893Y496D01*
X907Y496D02*
X913Y496D01*
X157Y495D02*
X186Y495D01*
X202Y495D02*
X208Y495D01*
X222Y495D02*
X227Y495D01*
X839Y495D02*
X845Y495D01*
X887Y495D02*
X894Y495D01*
X907Y495D02*
X913Y495D01*
X159Y494D02*
X186Y494D01*
X202Y494D02*
X208Y494D01*
X222Y494D02*
X227Y494D01*
X839Y494D02*
X845Y494D01*
X888Y494D02*
X894Y494D01*
X907Y494D02*
X913Y494D01*
X180Y493D02*
X186Y493D01*
X202Y493D02*
X209Y493D01*
X222Y493D02*
X227Y493D01*
X839Y493D02*
X845Y493D01*
X888Y493D02*
X895Y493D01*
X907Y493D02*
X913Y493D01*
X180Y492D02*
X186Y492D01*
X203Y492D02*
X209Y492D01*
X222Y492D02*
X227Y492D01*
X839Y492D02*
X845Y492D01*
X889Y492D02*
X895Y492D01*
X907Y492D02*
X913Y492D01*
X180Y491D02*
X186Y491D01*
X203Y491D02*
X210Y491D01*
X222Y491D02*
X227Y491D01*
X839Y491D02*
X845Y491D01*
X889Y491D02*
X896Y491D01*
X907Y491D02*
X913Y491D01*
X180Y490D02*
X186Y490D01*
X204Y490D02*
X210Y490D01*
X222Y490D02*
X227Y490D01*
X839Y490D02*
X845Y490D01*
X889Y490D02*
X896Y490D01*
X907Y490D02*
X913Y490D01*
X180Y489D02*
X186Y489D01*
X204Y489D02*
X211Y489D01*
X222Y489D02*
X227Y489D01*
X839Y489D02*
X845Y489D01*
X890Y489D02*
X897Y489D01*
X907Y489D02*
X913Y489D01*
X180Y488D02*
X186Y488D01*
X205Y488D02*
X211Y488D01*
X222Y488D02*
X227Y488D01*
X839Y488D02*
X845Y488D01*
X890Y488D02*
X897Y488D01*
X907Y488D02*
X913Y488D01*
X180Y487D02*
X186Y487D01*
X205Y487D02*
X212Y487D01*
X222Y487D02*
X227Y487D01*
X839Y487D02*
X845Y487D01*
X891Y487D02*
X898Y487D01*
X907Y487D02*
X913Y487D01*
X180Y486D02*
X186Y486D01*
X206Y486D02*
X212Y486D01*
X222Y486D02*
X227Y486D01*
X839Y486D02*
X845Y486D01*
X891Y486D02*
X898Y486D01*
X907Y486D02*
X913Y486D01*
X180Y485D02*
X186Y485D01*
X206Y485D02*
X213Y485D01*
X222Y485D02*
X227Y485D01*
X839Y485D02*
X845Y485D01*
X892Y485D02*
X899Y485D01*
X907Y485D02*
X913Y485D01*
X180Y484D02*
X186Y484D01*
X207Y484D02*
X213Y484D01*
X222Y484D02*
X227Y484D01*
X839Y484D02*
X845Y484D01*
X892Y484D02*
X899Y484D01*
X907Y484D02*
X913Y484D01*
X180Y483D02*
X186Y483D01*
X207Y483D02*
X214Y483D01*
X222Y483D02*
X227Y483D01*
X839Y483D02*
X845Y483D01*
X893Y483D02*
X900Y483D01*
X907Y483D02*
X913Y483D01*
X180Y482D02*
X186Y482D01*
X208Y482D02*
X214Y482D01*
X222Y482D02*
X227Y482D01*
X839Y482D02*
X845Y482D01*
X868Y482D02*
X868Y482D01*
X893Y482D02*
X900Y482D01*
X907Y482D02*
X913Y482D01*
X180Y481D02*
X186Y481D01*
X208Y481D02*
X215Y481D01*
X222Y481D02*
X227Y481D01*
X839Y481D02*
X845Y481D01*
X865Y481D02*
X870Y481D01*
X894Y481D02*
X901Y481D01*
X907Y481D02*
X913Y481D01*
X180Y480D02*
X186Y480D01*
X209Y480D02*
X215Y480D01*
X222Y480D02*
X227Y480D01*
X839Y480D02*
X845Y480D01*
X863Y480D02*
X871Y480D01*
X894Y480D02*
X901Y480D01*
X907Y480D02*
X913Y480D01*
X180Y479D02*
X186Y479D01*
X209Y479D02*
X216Y479D01*
X222Y479D02*
X227Y479D01*
X839Y479D02*
X871Y479D01*
X895Y479D02*
X917Y479D01*
X180Y478D02*
X186Y478D01*
X210Y478D02*
X218Y478D01*
X221Y478D02*
X228Y478D01*
X839Y478D02*
X871Y478D01*
X895Y478D02*
X918Y478D01*
X155Y477D02*
X186Y477D01*
X210Y477D02*
X233Y477D01*
X839Y477D02*
X871Y477D01*
X896Y477D02*
X919Y477D01*
X154Y476D02*
X186Y476D01*
X211Y476D02*
X234Y476D01*
X840Y476D02*
X870Y476D01*
X897Y476D02*
X919Y476D01*
X154Y475D02*
X186Y475D01*
X211Y475D02*
X234Y475D01*
X841Y475D02*
X868Y475D01*
X898Y475D02*
X919Y475D01*
X154Y474D02*
X186Y474D01*
X212Y474D02*
X234Y474D01*
X842Y474D02*
X866Y474D01*
X899Y474D02*
X919Y474D01*
X154Y473D02*
X186Y473D01*
X213Y473D02*
X233Y473D01*
X843Y473D02*
X863Y473D01*
X902Y473D02*
X917Y473D01*
X155Y472D02*
X186Y472D01*
X215Y472D02*
X233Y472D01*
X864Y425D02*
X868Y425D01*
X903Y425D02*
X916Y425D01*
X862Y424D02*
X869Y424D01*
X899Y424D02*
X918Y424D01*
X862Y423D02*
X870Y423D01*
X898Y423D02*
X918Y423D01*
X157Y422D02*
X184Y422D01*
X215Y422D02*
X232Y422D01*
X861Y422D02*
X870Y422D01*
X896Y422D02*
X918Y422D01*
X155Y421D02*
X185Y421D01*
X213Y421D02*
X233Y421D01*
X861Y421D02*
X870Y421D01*
X896Y421D02*
X918Y421D01*
X154Y420D02*
X185Y420D01*
X212Y420D02*
X233Y420D01*
X862Y420D02*
X870Y420D01*
X895Y420D02*
X918Y420D01*
X154Y419D02*
X185Y419D01*
X211Y419D02*
X233Y419D01*
X863Y419D02*
X870Y419D01*
X894Y419D02*
X917Y419D01*
X153Y418D02*
X185Y418D01*
X210Y418D02*
X233Y418D01*
X865Y418D02*
X870Y418D01*
X894Y418D02*
X901Y418D01*
X906Y418D02*
X912Y418D01*
X153Y417D02*
X184Y417D01*
X209Y417D02*
X232Y417D01*
X865Y417D02*
X870Y417D01*
X893Y417D02*
X900Y417D01*
X906Y417D02*
X912Y417D01*
X153Y416D02*
X159Y416D01*
X209Y416D02*
X216Y416D01*
X221Y416D02*
X227Y416D01*
X865Y416D02*
X870Y416D01*
X893Y416D02*
X899Y416D01*
X906Y416D02*
X912Y416D01*
X153Y415D02*
X159Y415D01*
X208Y415D02*
X215Y415D01*
X221Y415D02*
X227Y415D01*
X865Y415D02*
X870Y415D01*
X892Y415D02*
X899Y415D01*
X906Y415D02*
X912Y415D01*
X153Y414D02*
X159Y414D01*
X208Y414D02*
X215Y414D01*
X221Y414D02*
X227Y414D01*
X865Y414D02*
X870Y414D01*
X892Y414D02*
X898Y414D01*
X906Y414D02*
X912Y414D01*
X153Y413D02*
X159Y413D01*
X207Y413D02*
X214Y413D01*
X221Y413D02*
X227Y413D01*
X865Y413D02*
X870Y413D01*
X891Y413D02*
X898Y413D01*
X906Y413D02*
X912Y413D01*
X153Y412D02*
X159Y412D01*
X207Y412D02*
X213Y412D01*
X221Y412D02*
X227Y412D01*
X865Y412D02*
X870Y412D01*
X891Y412D02*
X897Y412D01*
X906Y412D02*
X912Y412D01*
X153Y411D02*
X159Y411D01*
X206Y411D02*
X213Y411D01*
X221Y411D02*
X227Y411D01*
X865Y411D02*
X870Y411D01*
X890Y411D02*
X897Y411D01*
X906Y411D02*
X912Y411D01*
X153Y410D02*
X159Y410D01*
X206Y410D02*
X212Y410D01*
X221Y410D02*
X227Y410D01*
X865Y410D02*
X870Y410D01*
X890Y410D02*
X896Y410D01*
X906Y410D02*
X912Y410D01*
X153Y409D02*
X159Y409D01*
X205Y409D02*
X212Y409D01*
X221Y409D02*
X227Y409D01*
X865Y409D02*
X870Y409D01*
X889Y409D02*
X896Y409D01*
X906Y409D02*
X912Y409D01*
X153Y408D02*
X159Y408D01*
X205Y408D02*
X211Y408D01*
X221Y408D02*
X227Y408D01*
X865Y408D02*
X870Y408D01*
X889Y408D02*
X895Y408D01*
X906Y408D02*
X912Y408D01*
X153Y407D02*
X159Y407D01*
X204Y407D02*
X211Y407D01*
X221Y407D02*
X227Y407D01*
X865Y407D02*
X870Y407D01*
X888Y407D02*
X895Y407D01*
X906Y407D02*
X912Y407D01*
X153Y406D02*
X159Y406D01*
X204Y406D02*
X210Y406D01*
X221Y406D02*
X227Y406D01*
X865Y406D02*
X870Y406D01*
X888Y406D02*
X894Y406D01*
X906Y406D02*
X912Y406D01*
X153Y405D02*
X159Y405D01*
X203Y405D02*
X210Y405D01*
X221Y405D02*
X227Y405D01*
X865Y405D02*
X870Y405D01*
X888Y405D02*
X894Y405D01*
X906Y405D02*
X912Y405D01*
X153Y404D02*
X159Y404D01*
X203Y404D02*
X209Y404D01*
X221Y404D02*
X227Y404D01*
X865Y404D02*
X870Y404D01*
X887Y404D02*
X893Y404D01*
X906Y404D02*
X912Y404D01*
X153Y403D02*
X159Y403D01*
X203Y403D02*
X209Y403D01*
X221Y403D02*
X227Y403D01*
X865Y403D02*
X870Y403D01*
X887Y403D02*
X893Y403D01*
X906Y403D02*
X912Y403D01*
X153Y402D02*
X159Y402D01*
X202Y402D02*
X208Y402D01*
X221Y402D02*
X227Y402D01*
X865Y402D02*
X870Y402D01*
X887Y402D02*
X893Y402D01*
X906Y402D02*
X912Y402D01*
X153Y401D02*
X160Y401D01*
X202Y401D02*
X208Y401D01*
X221Y401D02*
X227Y401D01*
X865Y401D02*
X870Y401D01*
X886Y401D02*
X892Y401D01*
X906Y401D02*
X912Y401D01*
X154Y400D02*
X177Y400D01*
X202Y400D02*
X207Y400D01*
X221Y400D02*
X227Y400D01*
X865Y400D02*
X870Y400D01*
X886Y400D02*
X892Y400D01*
X906Y400D02*
X912Y400D01*
X154Y399D02*
X178Y399D01*
X201Y399D02*
X207Y399D01*
X221Y399D02*
X227Y399D01*
X865Y399D02*
X870Y399D01*
X886Y399D02*
X892Y399D01*
X906Y399D02*
X912Y399D01*
X155Y398D02*
X178Y398D01*
X201Y398D02*
X207Y398D01*
X221Y398D02*
X227Y398D01*
X865Y398D02*
X870Y398D01*
X886Y398D02*
X892Y398D01*
X906Y398D02*
X912Y398D01*
X155Y397D02*
X179Y397D01*
X201Y397D02*
X207Y397D01*
X221Y397D02*
X227Y397D01*
X864Y397D02*
X870Y397D01*
X887Y397D02*
X892Y397D01*
X906Y397D02*
X912Y397D01*
X155Y396D02*
X178Y396D01*
X201Y396D02*
X207Y396D01*
X221Y396D02*
X227Y396D01*
X839Y396D02*
X870Y396D01*
X887Y396D02*
X893Y396D01*
X906Y396D02*
X912Y396D01*
X154Y395D02*
X178Y395D01*
X201Y395D02*
X207Y395D01*
X221Y395D02*
X227Y395D01*
X838Y395D02*
X870Y395D01*
X887Y395D02*
X893Y395D01*
X906Y395D02*
X912Y395D01*
X154Y394D02*
X177Y394D01*
X202Y394D02*
X208Y394D01*
X221Y394D02*
X227Y394D01*
X838Y394D02*
X870Y394D01*
X887Y394D02*
X894Y394D01*
X906Y394D02*
X912Y394D01*
X153Y393D02*
X160Y393D01*
X202Y393D02*
X208Y393D01*
X221Y393D02*
X227Y393D01*
X838Y393D02*
X870Y393D01*
X888Y393D02*
X894Y393D01*
X906Y393D02*
X912Y393D01*
X153Y392D02*
X159Y392D01*
X202Y392D02*
X208Y392D01*
X221Y392D02*
X227Y392D01*
X838Y392D02*
X870Y392D01*
X888Y392D02*
X895Y392D01*
X906Y392D02*
X912Y392D01*
X153Y391D02*
X159Y391D01*
X202Y391D02*
X209Y391D01*
X221Y391D02*
X227Y391D01*
X838Y391D02*
X870Y391D01*
X889Y391D02*
X895Y391D01*
X906Y391D02*
X912Y391D01*
X153Y390D02*
X159Y390D01*
X203Y390D02*
X209Y390D01*
X221Y390D02*
X227Y390D01*
X838Y390D02*
X844Y390D01*
X864Y390D02*
X870Y390D01*
X889Y390D02*
X896Y390D01*
X906Y390D02*
X912Y390D01*
X153Y389D02*
X159Y389D01*
X203Y389D02*
X210Y389D01*
X221Y389D02*
X227Y389D01*
X838Y389D02*
X844Y389D01*
X865Y389D02*
X870Y389D01*
X890Y389D02*
X896Y389D01*
X906Y389D02*
X912Y389D01*
X153Y388D02*
X159Y388D01*
X204Y388D02*
X210Y388D01*
X221Y388D02*
X227Y388D01*
X839Y388D02*
X844Y388D01*
X865Y388D02*
X870Y388D01*
X890Y388D02*
X897Y388D01*
X906Y388D02*
X912Y388D01*
X153Y387D02*
X159Y387D01*
X204Y387D02*
X211Y387D01*
X221Y387D02*
X227Y387D01*
X844Y387D02*
X844Y387D01*
X865Y387D02*
X870Y387D01*
X891Y387D02*
X897Y387D01*
X906Y387D02*
X912Y387D01*
X153Y386D02*
X159Y386D01*
X205Y386D02*
X211Y386D01*
X221Y386D02*
X227Y386D01*
X865Y386D02*
X870Y386D01*
X891Y386D02*
X898Y386D01*
X906Y386D02*
X912Y386D01*
X153Y385D02*
X159Y385D01*
X205Y385D02*
X212Y385D01*
X221Y385D02*
X227Y385D01*
X865Y385D02*
X870Y385D01*
X892Y385D02*
X898Y385D01*
X906Y385D02*
X912Y385D01*
X153Y384D02*
X159Y384D01*
X206Y384D02*
X212Y384D01*
X221Y384D02*
X227Y384D01*
X865Y384D02*
X870Y384D01*
X892Y384D02*
X899Y384D01*
X906Y384D02*
X912Y384D01*
X153Y383D02*
X159Y383D01*
X206Y383D02*
X213Y383D01*
X221Y383D02*
X227Y383D01*
X865Y383D02*
X870Y383D01*
X893Y383D02*
X899Y383D01*
X906Y383D02*
X912Y383D01*
X153Y382D02*
X159Y382D01*
X207Y382D02*
X213Y382D01*
X221Y382D02*
X227Y382D01*
X865Y382D02*
X870Y382D01*
X893Y382D02*
X900Y382D01*
X906Y382D02*
X912Y382D01*
X153Y381D02*
X159Y381D01*
X207Y381D02*
X214Y381D01*
X221Y381D02*
X227Y381D01*
X865Y381D02*
X870Y381D01*
X894Y381D02*
X900Y381D01*
X906Y381D02*
X912Y381D01*
X153Y380D02*
X159Y380D01*
X208Y380D02*
X214Y380D01*
X221Y380D02*
X227Y380D01*
X864Y380D02*
X870Y380D01*
X894Y380D02*
X902Y380D01*
X906Y380D02*
X912Y380D01*
X153Y379D02*
X159Y379D01*
X208Y379D02*
X215Y379D01*
X221Y379D02*
X227Y379D01*
X860Y379D02*
X870Y379D01*
X894Y379D02*
X917Y379D01*
X153Y378D02*
X159Y378D01*
X209Y378D02*
X216Y378D01*
X221Y378D02*
X227Y378D01*
X861Y378D02*
X870Y378D01*
X895Y378D02*
X918Y378D01*
X153Y377D02*
X184Y377D01*
X209Y377D02*
X232Y377D01*
X862Y377D02*
X870Y377D01*
X896Y377D02*
X918Y377D01*
X153Y376D02*
X185Y376D01*
X210Y376D02*
X233Y376D01*
X863Y376D02*
X870Y376D01*
X897Y376D02*
X918Y376D01*
X154Y375D02*
X185Y375D01*
X211Y375D02*
X233Y375D01*
X864Y375D02*
X870Y375D01*
X898Y375D02*
X918Y375D01*
X154Y374D02*
X185Y374D01*
X211Y374D02*
X233Y374D01*
X865Y374D02*
X869Y374D01*
X900Y374D02*
X917Y374D01*
X155Y373D02*
X185Y373D01*
X213Y373D02*
X233Y373D01*
X156Y372D02*
X184Y372D01*
X214Y372D02*
X232Y372D01*
X160Y371D02*
X181Y371D01*
X219Y371D02*
X229Y371D01*
X903Y325D02*
X915Y325D01*
X899Y324D02*
X917Y324D01*
X181Y323D02*
X182Y323D01*
X868Y323D02*
X869Y323D01*
X897Y323D02*
X917Y323D01*
X179Y322D02*
X183Y322D01*
X215Y322D02*
X216Y322D01*
X867Y322D02*
X869Y322D01*
X896Y322D02*
X918Y322D01*
X179Y321D02*
X184Y321D01*
X213Y321D02*
X216Y321D01*
X867Y321D02*
X869Y321D01*
X895Y321D02*
X918Y321D01*
X178Y320D02*
X184Y320D01*
X212Y320D02*
X216Y320D01*
X866Y320D02*
X869Y320D01*
X894Y320D02*
X917Y320D01*
X178Y319D02*
X184Y319D01*
X211Y319D02*
X216Y319D01*
X865Y319D02*
X869Y319D01*
X894Y319D02*
X916Y319D01*
X178Y318D02*
X184Y318D01*
X210Y318D02*
X216Y318D01*
X864Y318D02*
X869Y318D01*
X893Y318D02*
X901Y318D01*
X905Y318D02*
X911Y318D01*
X160Y317D02*
X163Y317D01*
X178Y317D02*
X184Y317D01*
X210Y317D02*
X216Y317D01*
X864Y317D02*
X869Y317D01*
X893Y317D02*
X899Y317D01*
X905Y317D02*
X911Y317D01*
X159Y316D02*
X164Y316D01*
X178Y316D02*
X184Y316D01*
X209Y316D02*
X216Y316D01*
X866Y316D02*
X868Y316D01*
X892Y316D02*
X899Y316D01*
X905Y316D02*
X911Y316D01*
X159Y315D02*
X164Y315D01*
X178Y315D02*
X184Y315D01*
X209Y315D02*
X216Y315D01*
X892Y315D02*
X898Y315D01*
X905Y315D02*
X911Y315D01*
X159Y314D02*
X164Y314D01*
X178Y314D02*
X184Y314D01*
X208Y314D02*
X215Y314D01*
X891Y314D02*
X898Y314D01*
X905Y314D02*
X911Y314D01*
X159Y313D02*
X164Y313D01*
X178Y313D02*
X184Y313D01*
X208Y313D02*
X214Y313D01*
X891Y313D02*
X897Y313D01*
X905Y313D02*
X911Y313D01*
X159Y312D02*
X164Y312D01*
X178Y312D02*
X184Y312D01*
X207Y312D02*
X214Y312D01*
X890Y312D02*
X897Y312D01*
X905Y312D02*
X911Y312D01*
X159Y311D02*
X164Y311D01*
X178Y311D02*
X184Y311D01*
X207Y311D02*
X213Y311D01*
X890Y311D02*
X896Y311D01*
X905Y311D02*
X911Y311D01*
X159Y310D02*
X164Y310D01*
X178Y310D02*
X184Y310D01*
X206Y310D02*
X213Y310D01*
X889Y310D02*
X896Y310D01*
X905Y310D02*
X911Y310D01*
X159Y309D02*
X164Y309D01*
X178Y309D02*
X184Y309D01*
X206Y309D02*
X212Y309D01*
X889Y309D02*
X895Y309D01*
X905Y309D02*
X911Y309D01*
X159Y308D02*
X164Y308D01*
X178Y308D02*
X184Y308D01*
X205Y308D02*
X212Y308D01*
X888Y308D02*
X895Y308D01*
X905Y308D02*
X911Y308D01*
X159Y307D02*
X164Y307D01*
X178Y307D02*
X184Y307D01*
X205Y307D02*
X211Y307D01*
X888Y307D02*
X894Y307D01*
X905Y307D02*
X911Y307D01*
X159Y306D02*
X164Y306D01*
X178Y306D02*
X184Y306D01*
X204Y306D02*
X211Y306D01*
X887Y306D02*
X894Y306D01*
X905Y306D02*
X911Y306D01*
X159Y305D02*
X164Y305D01*
X178Y305D02*
X184Y305D01*
X204Y305D02*
X210Y305D01*
X839Y305D02*
X845Y305D01*
X887Y305D02*
X893Y305D01*
X905Y305D02*
X911Y305D01*
X159Y304D02*
X164Y304D01*
X178Y304D02*
X184Y304D01*
X203Y304D02*
X210Y304D01*
X837Y304D02*
X846Y304D01*
X886Y304D02*
X893Y304D01*
X905Y304D02*
X911Y304D01*
X159Y303D02*
X164Y303D01*
X178Y303D02*
X184Y303D01*
X203Y303D02*
X209Y303D01*
X838Y303D02*
X847Y303D01*
X886Y303D02*
X892Y303D01*
X905Y303D02*
X911Y303D01*
X159Y302D02*
X164Y302D01*
X178Y302D02*
X184Y302D01*
X203Y302D02*
X209Y302D01*
X839Y302D02*
X848Y302D01*
X886Y302D02*
X892Y302D01*
X905Y302D02*
X911Y302D01*
X159Y301D02*
X164Y301D01*
X178Y301D02*
X184Y301D01*
X202Y301D02*
X208Y301D01*
X840Y301D02*
X849Y301D01*
X886Y301D02*
X891Y301D01*
X905Y301D02*
X911Y301D01*
X159Y300D02*
X164Y300D01*
X178Y300D02*
X184Y300D01*
X202Y300D02*
X208Y300D01*
X841Y300D02*
X850Y300D01*
X886Y300D02*
X891Y300D01*
X905Y300D02*
X911Y300D01*
X159Y299D02*
X164Y299D01*
X178Y299D02*
X184Y299D01*
X202Y299D02*
X208Y299D01*
X842Y299D02*
X852Y299D01*
X885Y299D02*
X891Y299D01*
X905Y299D02*
X911Y299D01*
X159Y298D02*
X164Y298D01*
X178Y298D02*
X184Y298D01*
X202Y298D02*
X208Y298D01*
X843Y298D02*
X853Y298D01*
X886Y298D02*
X891Y298D01*
X905Y298D02*
X911Y298D01*
X159Y297D02*
X164Y297D01*
X178Y297D02*
X184Y297D01*
X202Y297D02*
X207Y297D01*
X845Y297D02*
X854Y297D01*
X886Y297D02*
X892Y297D01*
X905Y297D02*
X911Y297D01*
X159Y296D02*
X164Y296D01*
X178Y296D02*
X184Y296D01*
X202Y296D02*
X208Y296D01*
X846Y296D02*
X855Y296D01*
X886Y296D02*
X892Y296D01*
X905Y296D02*
X911Y296D01*
X158Y295D02*
X165Y295D01*
X178Y295D02*
X184Y295D01*
X202Y295D02*
X208Y295D01*
X847Y295D02*
X856Y295D01*
X886Y295D02*
X892Y295D01*
X905Y295D02*
X911Y295D01*
X156Y294D02*
X184Y294D01*
X202Y294D02*
X208Y294D01*
X848Y294D02*
X856Y294D01*
X886Y294D02*
X893Y294D01*
X905Y294D02*
X911Y294D01*
X156Y293D02*
X184Y293D01*
X202Y293D02*
X209Y293D01*
X849Y293D02*
X856Y293D01*
X887Y293D02*
X893Y293D01*
X905Y293D02*
X911Y293D01*
X155Y292D02*
X184Y292D01*
X203Y292D02*
X209Y292D01*
X850Y292D02*
X856Y292D01*
X887Y292D02*
X894Y292D01*
X905Y292D02*
X911Y292D01*
X155Y291D02*
X184Y291D01*
X203Y291D02*
X210Y291D01*
X851Y291D02*
X856Y291D01*
X888Y291D02*
X894Y291D01*
X905Y291D02*
X911Y291D01*
X156Y290D02*
X184Y290D01*
X204Y290D02*
X210Y290D01*
X851Y290D02*
X856Y290D01*
X888Y290D02*
X895Y290D01*
X905Y290D02*
X911Y290D01*
X156Y289D02*
X184Y289D01*
X204Y289D02*
X211Y289D01*
X851Y289D02*
X856Y289D01*
X889Y289D02*
X895Y289D01*
X905Y289D02*
X911Y289D01*
X158Y288D02*
X164Y288D01*
X205Y288D02*
X211Y288D01*
X851Y288D02*
X856Y288D01*
X889Y288D02*
X896Y288D01*
X905Y288D02*
X911Y288D01*
X159Y287D02*
X164Y287D01*
X205Y287D02*
X212Y287D01*
X851Y287D02*
X856Y287D01*
X890Y287D02*
X896Y287D01*
X905Y287D02*
X911Y287D01*
X159Y286D02*
X164Y286D01*
X206Y286D02*
X212Y286D01*
X851Y286D02*
X856Y286D01*
X890Y286D02*
X897Y286D01*
X905Y286D02*
X911Y286D01*
X159Y285D02*
X164Y285D01*
X206Y285D02*
X213Y285D01*
X851Y285D02*
X856Y285D01*
X891Y285D02*
X897Y285D01*
X905Y285D02*
X911Y285D01*
X159Y284D02*
X164Y284D01*
X207Y284D02*
X213Y284D01*
X851Y284D02*
X856Y284D01*
X891Y284D02*
X898Y284D01*
X905Y284D02*
X911Y284D01*
X159Y283D02*
X164Y283D01*
X207Y283D02*
X214Y283D01*
X851Y283D02*
X856Y283D01*
X892Y283D02*
X898Y283D01*
X905Y283D02*
X911Y283D01*
X159Y282D02*
X164Y282D01*
X208Y282D02*
X214Y282D01*
X851Y282D02*
X856Y282D01*
X892Y282D02*
X899Y282D01*
X905Y282D02*
X911Y282D01*
X159Y281D02*
X164Y281D01*
X208Y281D02*
X215Y281D01*
X851Y281D02*
X856Y281D01*
X893Y281D02*
X899Y281D01*
X905Y281D02*
X911Y281D01*
X159Y280D02*
X164Y280D01*
X209Y280D02*
X215Y280D01*
X222Y280D02*
X227Y280D01*
X851Y280D02*
X856Y280D01*
X893Y280D02*
X901Y280D01*
X905Y280D02*
X911Y280D01*
X159Y279D02*
X164Y279D01*
X209Y279D02*
X216Y279D01*
X222Y279D02*
X227Y279D01*
X851Y279D02*
X856Y279D01*
X894Y279D02*
X916Y279D01*
X159Y278D02*
X164Y278D01*
X210Y278D02*
X218Y278D01*
X221Y278D02*
X228Y278D01*
X851Y278D02*
X856Y278D01*
X894Y278D02*
X917Y278D01*
X159Y277D02*
X164Y277D01*
X210Y277D02*
X233Y277D01*
X851Y277D02*
X856Y277D01*
X895Y277D02*
X918Y277D01*
X159Y276D02*
X164Y276D01*
X211Y276D02*
X234Y276D01*
X851Y276D02*
X856Y276D01*
X896Y276D02*
X918Y276D01*
X159Y275D02*
X164Y275D01*
X211Y275D02*
X234Y275D01*
X851Y275D02*
X856Y275D01*
X897Y275D02*
X917Y275D01*
X159Y274D02*
X164Y274D01*
X212Y274D02*
X234Y274D01*
X852Y274D02*
X855Y274D01*
X899Y274D02*
X916Y274D01*
X159Y273D02*
X164Y273D01*
X213Y273D02*
X233Y273D01*
X160Y272D02*
X163Y272D01*
X215Y272D02*
X233Y272D01*
X847Y224D02*
X863Y224D01*
X901Y224D02*
X918Y224D01*
X846Y223D02*
X864Y223D01*
X899Y223D02*
X919Y223D01*
X846Y222D02*
X864Y222D01*
X898Y222D02*
X919Y222D01*
X173Y221D02*
X183Y221D01*
X846Y221D02*
X864Y221D01*
X897Y221D02*
X919Y221D01*
X168Y220D02*
X186Y220D01*
X204Y220D02*
X208Y220D01*
X846Y220D02*
X864Y220D01*
X896Y220D02*
X919Y220D01*
X166Y219D02*
X187Y219D01*
X203Y219D02*
X208Y219D01*
X846Y219D02*
X864Y219D01*
X895Y219D02*
X918Y219D01*
X165Y218D02*
X187Y218D01*
X203Y218D02*
X209Y218D01*
X846Y218D02*
X851Y218D01*
X858Y218D02*
X864Y218D01*
X895Y218D02*
X902Y218D01*
X907Y218D02*
X913Y218D01*
X164Y217D02*
X187Y217D01*
X203Y217D02*
X209Y217D01*
X846Y217D02*
X851Y217D01*
X859Y217D02*
X864Y217D01*
X894Y217D02*
X901Y217D01*
X907Y217D02*
X913Y217D01*
X164Y216D02*
X186Y216D01*
X203Y216D02*
X209Y216D01*
X846Y216D02*
X851Y216D01*
X859Y216D02*
X864Y216D01*
X894Y216D02*
X900Y216D01*
X907Y216D02*
X913Y216D01*
X163Y215D02*
X186Y215D01*
X203Y215D02*
X209Y215D01*
X846Y215D02*
X851Y215D01*
X859Y215D02*
X864Y215D01*
X893Y215D02*
X900Y215D01*
X907Y215D02*
X913Y215D01*
X162Y214D02*
X170Y214D01*
X174Y214D02*
X180Y214D01*
X203Y214D02*
X209Y214D01*
X846Y214D02*
X851Y214D01*
X859Y214D02*
X864Y214D01*
X893Y214D02*
X899Y214D01*
X907Y214D02*
X913Y214D01*
X162Y213D02*
X169Y213D01*
X175Y213D02*
X180Y213D01*
X203Y213D02*
X209Y213D01*
X846Y213D02*
X851Y213D01*
X859Y213D02*
X864Y213D01*
X892Y213D02*
X899Y213D01*
X907Y213D02*
X913Y213D01*
X161Y212D02*
X168Y212D01*
X175Y212D02*
X180Y212D01*
X203Y212D02*
X209Y212D01*
X846Y212D02*
X851Y212D01*
X859Y212D02*
X864Y212D01*
X892Y212D02*
X898Y212D01*
X907Y212D02*
X913Y212D01*
X161Y211D02*
X168Y211D01*
X175Y211D02*
X180Y211D01*
X203Y211D02*
X209Y211D01*
X846Y211D02*
X851Y211D01*
X859Y211D02*
X864Y211D01*
X891Y211D02*
X898Y211D01*
X907Y211D02*
X913Y211D01*
X160Y210D02*
X167Y210D01*
X175Y210D02*
X180Y210D01*
X203Y210D02*
X209Y210D01*
X846Y210D02*
X851Y210D01*
X859Y210D02*
X864Y210D01*
X891Y210D02*
X897Y210D01*
X907Y210D02*
X913Y210D01*
X160Y209D02*
X167Y209D01*
X175Y209D02*
X180Y209D01*
X203Y209D02*
X209Y209D01*
X846Y209D02*
X851Y209D01*
X859Y209D02*
X864Y209D01*
X890Y209D02*
X897Y209D01*
X907Y209D02*
X913Y209D01*
X159Y208D02*
X166Y208D01*
X175Y208D02*
X180Y208D01*
X203Y208D02*
X209Y208D01*
X846Y208D02*
X851Y208D01*
X859Y208D02*
X864Y208D01*
X890Y208D02*
X896Y208D01*
X907Y208D02*
X913Y208D01*
X159Y207D02*
X166Y207D01*
X175Y207D02*
X180Y207D01*
X203Y207D02*
X209Y207D01*
X846Y207D02*
X851Y207D01*
X859Y207D02*
X864Y207D01*
X889Y207D02*
X896Y207D01*
X907Y207D02*
X913Y207D01*
X158Y206D02*
X165Y206D01*
X175Y206D02*
X180Y206D01*
X203Y206D02*
X209Y206D01*
X846Y206D02*
X851Y206D01*
X859Y206D02*
X864Y206D01*
X889Y206D02*
X895Y206D01*
X907Y206D02*
X913Y206D01*
X158Y205D02*
X164Y205D01*
X175Y205D02*
X180Y205D01*
X203Y205D02*
X209Y205D01*
X220Y205D02*
X220Y205D01*
X846Y205D02*
X851Y205D01*
X859Y205D02*
X864Y205D01*
X888Y205D02*
X895Y205D01*
X907Y205D02*
X913Y205D01*
X157Y204D02*
X164Y204D01*
X175Y204D02*
X180Y204D01*
X203Y204D02*
X209Y204D01*
X220Y204D02*
X220Y204D01*
X846Y204D02*
X851Y204D01*
X859Y204D02*
X864Y204D01*
X888Y204D02*
X894Y204D01*
X907Y204D02*
X913Y204D01*
X157Y203D02*
X163Y203D01*
X175Y203D02*
X180Y203D01*
X203Y203D02*
X209Y203D01*
X219Y203D02*
X220Y203D01*
X846Y203D02*
X851Y203D01*
X859Y203D02*
X864Y203D01*
X888Y203D02*
X894Y203D01*
X907Y203D02*
X913Y203D01*
X156Y202D02*
X163Y202D01*
X175Y202D02*
X180Y202D01*
X203Y202D02*
X209Y202D01*
X219Y202D02*
X221Y202D01*
X844Y202D02*
X866Y202D01*
X887Y202D02*
X893Y202D01*
X907Y202D02*
X913Y202D01*
X156Y201D02*
X162Y201D01*
X175Y201D02*
X180Y201D01*
X203Y201D02*
X209Y201D01*
X218Y201D02*
X222Y201D01*
X842Y201D02*
X868Y201D01*
X887Y201D02*
X893Y201D01*
X907Y201D02*
X913Y201D01*
X156Y200D02*
X162Y200D01*
X175Y200D02*
X180Y200D01*
X203Y200D02*
X209Y200D01*
X218Y200D02*
X222Y200D01*
X841Y200D02*
X869Y200D01*
X887Y200D02*
X893Y200D01*
X907Y200D02*
X913Y200D01*
X155Y199D02*
X161Y199D01*
X175Y199D02*
X180Y199D01*
X203Y199D02*
X209Y199D01*
X218Y199D02*
X223Y199D01*
X840Y199D02*
X870Y199D01*
X887Y199D02*
X893Y199D01*
X907Y199D02*
X913Y199D01*
X155Y198D02*
X161Y198D01*
X175Y198D02*
X180Y198D01*
X203Y198D02*
X209Y198D01*
X217Y198D02*
X223Y198D01*
X839Y198D02*
X871Y198D01*
X887Y198D02*
X893Y198D01*
X907Y198D02*
X913Y198D01*
X155Y197D02*
X161Y197D01*
X175Y197D02*
X180Y197D01*
X203Y197D02*
X209Y197D01*
X217Y197D02*
X223Y197D01*
X839Y197D02*
X871Y197D01*
X887Y197D02*
X893Y197D01*
X907Y197D02*
X913Y197D01*
X155Y196D02*
X161Y196D01*
X175Y196D02*
X180Y196D01*
X203Y196D02*
X209Y196D01*
X216Y196D02*
X223Y196D01*
X839Y196D02*
X871Y196D01*
X887Y196D02*
X893Y196D01*
X907Y196D02*
X913Y196D01*
X155Y195D02*
X160Y195D01*
X175Y195D02*
X180Y195D01*
X203Y195D02*
X209Y195D01*
X216Y195D02*
X222Y195D01*
X839Y195D02*
X845Y195D01*
X865Y195D02*
X871Y195D01*
X888Y195D02*
X894Y195D01*
X907Y195D02*
X913Y195D01*
X155Y194D02*
X161Y194D01*
X175Y194D02*
X180Y194D01*
X203Y194D02*
X209Y194D01*
X215Y194D02*
X222Y194D01*
X839Y194D02*
X845Y194D01*
X865Y194D02*
X871Y194D01*
X888Y194D02*
X894Y194D01*
X907Y194D02*
X913Y194D01*
X155Y193D02*
X161Y193D01*
X175Y193D02*
X180Y193D01*
X203Y193D02*
X209Y193D01*
X215Y193D02*
X221Y193D01*
X839Y193D02*
X845Y193D01*
X865Y193D02*
X871Y193D01*
X888Y193D02*
X895Y193D01*
X907Y193D02*
X913Y193D01*
X155Y192D02*
X161Y192D01*
X175Y192D02*
X180Y192D01*
X203Y192D02*
X209Y192D01*
X214Y192D02*
X221Y192D01*
X229Y192D02*
X229Y192D01*
X839Y192D02*
X845Y192D01*
X865Y192D02*
X871Y192D01*
X889Y192D02*
X895Y192D01*
X907Y192D02*
X913Y192D01*
X155Y191D02*
X161Y191D01*
X175Y191D02*
X180Y191D01*
X203Y191D02*
X209Y191D01*
X214Y191D02*
X220Y191D01*
X229Y191D02*
X230Y191D01*
X839Y191D02*
X845Y191D01*
X865Y191D02*
X871Y191D01*
X889Y191D02*
X896Y191D01*
X907Y191D02*
X913Y191D01*
X156Y190D02*
X162Y190D01*
X175Y190D02*
X180Y190D01*
X203Y190D02*
X209Y190D01*
X214Y190D02*
X220Y190D01*
X229Y190D02*
X231Y190D01*
X839Y190D02*
X845Y190D01*
X865Y190D02*
X871Y190D01*
X890Y190D02*
X896Y190D01*
X907Y190D02*
X913Y190D01*
X156Y189D02*
X162Y189D01*
X175Y189D02*
X180Y189D01*
X203Y189D02*
X209Y189D01*
X213Y189D02*
X220Y189D01*
X229Y189D02*
X232Y189D01*
X839Y189D02*
X845Y189D01*
X865Y189D02*
X871Y189D01*
X890Y189D02*
X897Y189D01*
X907Y189D02*
X913Y189D01*
X156Y188D02*
X163Y188D01*
X175Y188D02*
X180Y188D01*
X203Y188D02*
X209Y188D01*
X213Y188D02*
X219Y188D01*
X229Y188D02*
X233Y188D01*
X283Y188D02*
X283Y188D01*
X840Y188D02*
X845Y188D01*
X865Y188D02*
X871Y188D01*
X891Y188D02*
X897Y188D01*
X907Y188D02*
X913Y188D01*
X157Y187D02*
X164Y187D01*
X175Y187D02*
X180Y187D01*
X203Y187D02*
X209Y187D01*
X212Y187D02*
X219Y187D01*
X229Y187D02*
X235Y187D01*
X282Y187D02*
X283Y187D01*
X844Y187D02*
X845Y187D01*
X865Y187D02*
X871Y187D01*
X891Y187D02*
X898Y187D01*
X907Y187D02*
X913Y187D01*
X157Y186D02*
X164Y186D01*
X175Y186D02*
X180Y186D01*
X203Y186D02*
X209Y186D01*
X212Y186D02*
X218Y186D01*
X229Y186D02*
X235Y186D01*
X280Y186D02*
X283Y186D01*
X865Y186D02*
X871Y186D01*
X892Y186D02*
X898Y186D01*
X907Y186D02*
X913Y186D01*
X158Y185D02*
X165Y185D01*
X175Y185D02*
X180Y185D01*
X203Y185D02*
X209Y185D01*
X211Y185D02*
X218Y185D01*
X229Y185D02*
X235Y185D01*
X279Y185D02*
X283Y185D01*
X865Y185D02*
X871Y185D01*
X892Y185D02*
X899Y185D01*
X907Y185D02*
X913Y185D01*
X158Y184D02*
X165Y184D01*
X175Y184D02*
X180Y184D01*
X203Y184D02*
X209Y184D01*
X211Y184D02*
X217Y184D01*
X229Y184D02*
X235Y184D01*
X277Y184D02*
X283Y184D01*
X865Y184D02*
X871Y184D01*
X893Y184D02*
X899Y184D01*
X907Y184D02*
X913Y184D01*
X159Y183D02*
X166Y183D01*
X175Y183D02*
X180Y183D01*
X203Y183D02*
X209Y183D01*
X211Y183D02*
X217Y183D01*
X229Y183D02*
X235Y183D01*
X277Y183D02*
X283Y183D01*
X865Y183D02*
X871Y183D01*
X893Y183D02*
X900Y183D01*
X907Y183D02*
X913Y183D01*
X159Y182D02*
X166Y182D01*
X175Y182D02*
X180Y182D01*
X203Y182D02*
X216Y182D01*
X229Y182D02*
X235Y182D01*
X277Y182D02*
X283Y182D01*
X865Y182D02*
X871Y182D01*
X894Y182D02*
X900Y182D01*
X907Y182D02*
X913Y182D01*
X160Y181D02*
X167Y181D01*
X175Y181D02*
X180Y181D01*
X203Y181D02*
X216Y181D01*
X229Y181D02*
X235Y181D01*
X277Y181D02*
X283Y181D01*
X865Y181D02*
X871Y181D01*
X894Y181D02*
X901Y181D01*
X907Y181D02*
X913Y181D01*
X160Y180D02*
X167Y180D01*
X175Y180D02*
X180Y180D01*
X203Y180D02*
X216Y180D01*
X229Y180D02*
X235Y180D01*
X251Y180D02*
X257Y180D01*
X277Y180D02*
X283Y180D01*
X865Y180D02*
X871Y180D01*
X895Y180D02*
X902Y180D01*
X907Y180D02*
X913Y180D01*
X161Y179D02*
X168Y179D01*
X175Y179D02*
X180Y179D01*
X203Y179D02*
X215Y179D01*
X229Y179D02*
X235Y179D01*
X251Y179D02*
X257Y179D01*
X277Y179D02*
X283Y179D01*
X860Y179D02*
X871Y179D01*
X895Y179D02*
X918Y179D01*
X161Y178D02*
X168Y178D01*
X175Y178D02*
X180Y178D01*
X203Y178D02*
X215Y178D01*
X229Y178D02*
X235Y178D01*
X251Y178D02*
X257Y178D01*
X277Y178D02*
X283Y178D01*
X861Y178D02*
X871Y178D01*
X896Y178D02*
X919Y178D01*
X162Y177D02*
X169Y177D01*
X175Y177D02*
X180Y177D01*
X203Y177D02*
X214Y177D01*
X229Y177D02*
X235Y177D01*
X251Y177D02*
X258Y177D01*
X277Y177D02*
X283Y177D01*
X862Y177D02*
X870Y177D01*
X896Y177D02*
X919Y177D01*
X162Y176D02*
X170Y176D01*
X174Y176D02*
X181Y176D01*
X203Y176D02*
X214Y176D01*
X229Y176D02*
X235Y176D01*
X252Y176D02*
X259Y176D01*
X275Y176D02*
X283Y176D01*
X863Y176D02*
X870Y176D01*
X897Y176D02*
X919Y176D01*
X163Y175D02*
X186Y175D01*
X203Y175D02*
X213Y175D01*
X229Y175D02*
X235Y175D01*
X252Y175D02*
X282Y175D01*
X864Y175D02*
X869Y175D01*
X898Y175D02*
X919Y175D01*
X164Y174D02*
X186Y174D01*
X203Y174D02*
X213Y174D01*
X229Y174D02*
X235Y174D01*
X253Y174D02*
X282Y174D01*
X865Y174D02*
X868Y174D01*
X900Y174D02*
X918Y174D01*
X164Y173D02*
X187Y173D01*
X203Y173D02*
X213Y173D01*
X229Y173D02*
X235Y173D01*
X253Y173D02*
X281Y173D01*
X904Y173D02*
X916Y173D01*
X165Y172D02*
X187Y172D01*
X203Y172D02*
X212Y172D01*
X229Y172D02*
X235Y172D01*
X254Y172D02*
X280Y172D01*
X166Y171D02*
X187Y171D01*
X203Y171D02*
X212Y171D01*
X230Y171D02*
X235Y171D01*
X255Y171D02*
X279Y171D01*
X168Y170D02*
X186Y170D01*
X203Y170D02*
X211Y170D01*
X230Y170D02*
X234Y170D01*
X257Y170D02*
X277Y170D01*
X796Y124D02*
X797Y124D01*
X869Y124D02*
X872Y124D01*
X893Y124D02*
X920Y124D01*
X157Y123D02*
X159Y123D01*
X183Y123D02*
X185Y123D01*
X205Y123D02*
X216Y123D01*
X795Y123D02*
X798Y123D01*
X868Y123D02*
X872Y123D01*
X891Y123D02*
X921Y123D01*
X155Y122D02*
X160Y122D01*
X182Y122D02*
X186Y122D01*
X204Y122D02*
X216Y122D01*
X794Y122D02*
X799Y122D01*
X867Y122D02*
X873Y122D01*
X890Y122D02*
X921Y122D01*
X155Y121D02*
X160Y121D01*
X181Y121D02*
X187Y121D01*
X203Y121D02*
X216Y121D01*
X793Y121D02*
X799Y121D01*
X867Y121D02*
X873Y121D01*
X890Y121D02*
X921Y121D01*
X155Y120D02*
X160Y120D01*
X181Y120D02*
X187Y120D01*
X203Y120D02*
X216Y120D01*
X793Y120D02*
X800Y120D01*
X867Y120D02*
X873Y120D01*
X889Y120D02*
X921Y120D01*
X155Y119D02*
X160Y119D01*
X181Y119D02*
X187Y119D01*
X203Y119D02*
X216Y119D01*
X793Y119D02*
X801Y119D01*
X867Y119D02*
X873Y119D01*
X889Y119D02*
X920Y119D01*
X155Y118D02*
X160Y118D01*
X181Y118D02*
X187Y118D01*
X204Y118D02*
X216Y118D01*
X792Y118D02*
X799Y118D01*
X867Y118D02*
X873Y118D01*
X889Y118D02*
X895Y118D01*
X155Y117D02*
X160Y117D01*
X181Y117D02*
X187Y117D01*
X205Y117D02*
X216Y117D01*
X792Y117D02*
X798Y117D01*
X867Y117D02*
X873Y117D01*
X889Y117D02*
X895Y117D01*
X155Y116D02*
X160Y116D01*
X181Y116D02*
X187Y116D01*
X792Y116D02*
X798Y116D01*
X867Y116D02*
X873Y116D01*
X889Y116D02*
X895Y116D01*
X155Y115D02*
X160Y115D01*
X181Y115D02*
X187Y115D01*
X792Y115D02*
X798Y115D01*
X867Y115D02*
X873Y115D01*
X889Y115D02*
X895Y115D01*
X155Y114D02*
X160Y114D01*
X181Y114D02*
X187Y114D01*
X792Y114D02*
X798Y114D01*
X867Y114D02*
X873Y114D01*
X889Y114D02*
X895Y114D01*
X155Y113D02*
X160Y113D01*
X181Y113D02*
X187Y113D01*
X792Y113D02*
X798Y113D01*
X867Y113D02*
X873Y113D01*
X889Y113D02*
X895Y113D01*
X155Y112D02*
X160Y112D01*
X181Y112D02*
X187Y112D01*
X792Y112D02*
X798Y112D01*
X867Y112D02*
X873Y112D01*
X889Y112D02*
X895Y112D01*
X155Y111D02*
X160Y111D01*
X181Y111D02*
X187Y111D01*
X792Y111D02*
X798Y111D01*
X867Y111D02*
X873Y111D01*
X889Y111D02*
X895Y111D01*
X155Y110D02*
X160Y110D01*
X181Y110D02*
X187Y110D01*
X792Y110D02*
X798Y110D01*
X867Y110D02*
X873Y110D01*
X889Y110D02*
X895Y110D01*
X155Y109D02*
X161Y109D01*
X181Y109D02*
X187Y109D01*
X792Y109D02*
X798Y109D01*
X866Y109D02*
X873Y109D01*
X889Y109D02*
X895Y109D01*
X155Y108D02*
X161Y108D01*
X181Y108D02*
X187Y108D01*
X792Y108D02*
X798Y108D01*
X866Y108D02*
X872Y108D01*
X889Y108D02*
X895Y108D01*
X155Y107D02*
X161Y107D01*
X180Y107D02*
X187Y107D01*
X792Y107D02*
X798Y107D01*
X847Y107D02*
X848Y107D01*
X866Y107D02*
X872Y107D01*
X889Y107D02*
X895Y107D01*
X156Y106D02*
X162Y106D01*
X180Y106D02*
X186Y106D01*
X792Y106D02*
X798Y106D01*
X844Y106D02*
X848Y106D01*
X865Y106D02*
X871Y106D01*
X889Y106D02*
X895Y106D01*
X156Y105D02*
X162Y105D01*
X179Y105D02*
X186Y105D01*
X793Y105D02*
X798Y105D01*
X842Y105D02*
X849Y105D01*
X865Y105D02*
X871Y105D01*
X889Y105D02*
X895Y105D01*
X156Y104D02*
X163Y104D01*
X179Y104D02*
X185Y104D01*
X793Y104D02*
X799Y104D01*
X843Y104D02*
X849Y104D01*
X864Y104D02*
X871Y104D01*
X889Y104D02*
X895Y104D01*
X157Y103D02*
X163Y103D01*
X179Y103D02*
X185Y103D01*
X793Y103D02*
X800Y103D01*
X843Y103D02*
X849Y103D01*
X864Y103D02*
X870Y103D01*
X889Y103D02*
X896Y103D01*
X157Y102D02*
X163Y102D01*
X178Y102D02*
X185Y102D01*
X793Y102D02*
X816Y102D01*
X844Y102D02*
X850Y102D01*
X864Y102D02*
X870Y102D01*
X889Y102D02*
X912Y102D01*
X157Y101D02*
X164Y101D01*
X178Y101D02*
X184Y101D01*
X794Y101D02*
X817Y101D01*
X844Y101D02*
X850Y101D01*
X863Y101D02*
X870Y101D01*
X890Y101D02*
X914Y101D01*
X158Y100D02*
X164Y100D01*
X178Y100D02*
X184Y100D01*
X207Y100D02*
X222Y100D01*
X794Y100D02*
X818Y100D01*
X844Y100D02*
X851Y100D01*
X863Y100D02*
X869Y100D01*
X891Y100D02*
X914Y100D01*
X158Y99D02*
X164Y99D01*
X177Y99D02*
X183Y99D01*
X205Y99D02*
X223Y99D01*
X795Y99D02*
X818Y99D01*
X845Y99D02*
X851Y99D01*
X862Y99D02*
X869Y99D01*
X891Y99D02*
X914Y99D01*
X159Y98D02*
X165Y98D01*
X177Y98D02*
X183Y98D01*
X204Y98D02*
X224Y98D01*
X794Y98D02*
X818Y98D01*
X845Y98D02*
X851Y98D01*
X862Y98D02*
X868Y98D01*
X891Y98D02*
X914Y98D01*
X159Y97D02*
X165Y97D01*
X176Y97D02*
X183Y97D01*
X204Y97D02*
X224Y97D01*
X794Y97D02*
X817Y97D01*
X845Y97D02*
X852Y97D01*
X862Y97D02*
X868Y97D01*
X890Y97D02*
X914Y97D01*
X159Y96D02*
X166Y96D01*
X176Y96D02*
X182Y96D01*
X203Y96D02*
X225Y96D01*
X793Y96D02*
X816Y96D01*
X846Y96D02*
X852Y96D01*
X861Y96D02*
X868Y96D01*
X890Y96D02*
X913Y96D01*
X160Y95D02*
X166Y95D01*
X176Y95D02*
X182Y95D01*
X203Y95D02*
X226Y95D01*
X793Y95D02*
X800Y95D01*
X846Y95D02*
X853Y95D01*
X861Y95D02*
X867Y95D01*
X889Y95D02*
X896Y95D01*
X160Y94D02*
X166Y94D01*
X175Y94D02*
X181Y94D01*
X203Y94D02*
X209Y94D01*
X793Y94D02*
X799Y94D01*
X847Y94D02*
X853Y94D01*
X861Y94D02*
X867Y94D01*
X889Y94D02*
X895Y94D01*
X161Y93D02*
X167Y93D01*
X175Y93D02*
X181Y93D01*
X203Y93D02*
X209Y93D01*
X793Y93D02*
X798Y93D01*
X847Y93D02*
X853Y93D01*
X860Y93D02*
X866Y93D01*
X889Y93D02*
X895Y93D01*
X161Y92D02*
X167Y92D01*
X174Y92D02*
X181Y92D01*
X203Y92D02*
X209Y92D01*
X792Y92D02*
X798Y92D01*
X847Y92D02*
X854Y92D01*
X860Y92D02*
X866Y92D01*
X889Y92D02*
X895Y92D01*
X161Y91D02*
X168Y91D01*
X174Y91D02*
X180Y91D01*
X203Y91D02*
X209Y91D01*
X792Y91D02*
X798Y91D01*
X848Y91D02*
X854Y91D01*
X859Y91D02*
X866Y91D01*
X889Y91D02*
X895Y91D01*
X162Y90D02*
X168Y90D01*
X174Y90D02*
X180Y90D01*
X203Y90D02*
X209Y90D01*
X792Y90D02*
X798Y90D01*
X848Y90D02*
X854Y90D01*
X859Y90D02*
X865Y90D01*
X889Y90D02*
X895Y90D01*
X162Y89D02*
X168Y89D01*
X173Y89D02*
X180Y89D01*
X203Y89D02*
X209Y89D01*
X792Y89D02*
X798Y89D01*
X849Y89D02*
X855Y89D01*
X859Y89D02*
X865Y89D01*
X889Y89D02*
X895Y89D01*
X163Y88D02*
X169Y88D01*
X173Y88D02*
X179Y88D01*
X203Y88D02*
X209Y88D01*
X792Y88D02*
X798Y88D01*
X849Y88D02*
X855Y88D01*
X858Y88D02*
X864Y88D01*
X889Y88D02*
X895Y88D01*
X163Y87D02*
X169Y87D01*
X172Y87D02*
X179Y87D01*
X203Y87D02*
X209Y87D01*
X792Y87D02*
X798Y87D01*
X849Y87D02*
X856Y87D01*
X858Y87D02*
X864Y87D01*
X889Y87D02*
X895Y87D01*
X163Y86D02*
X170Y86D01*
X172Y86D02*
X178Y86D01*
X203Y86D02*
X209Y86D01*
X792Y86D02*
X798Y86D01*
X850Y86D02*
X864Y86D01*
X889Y86D02*
X895Y86D01*
X164Y85D02*
X170Y85D01*
X172Y85D02*
X178Y85D01*
X203Y85D02*
X209Y85D01*
X792Y85D02*
X798Y85D01*
X850Y85D02*
X863Y85D01*
X889Y85D02*
X895Y85D01*
X164Y84D02*
X178Y84D01*
X203Y84D02*
X209Y84D01*
X792Y84D02*
X798Y84D01*
X851Y84D02*
X863Y84D01*
X889Y84D02*
X895Y84D01*
X164Y83D02*
X177Y83D01*
X203Y83D02*
X209Y83D01*
X792Y83D02*
X798Y83D01*
X851Y83D02*
X863Y83D01*
X889Y83D02*
X895Y83D01*
X165Y82D02*
X177Y82D01*
X203Y82D02*
X209Y82D01*
X792Y82D02*
X798Y82D01*
X851Y82D02*
X862Y82D01*
X889Y82D02*
X895Y82D01*
X165Y81D02*
X176Y81D01*
X203Y81D02*
X209Y81D01*
X792Y81D02*
X798Y81D01*
X852Y81D02*
X862Y81D01*
X889Y81D02*
X895Y81D01*
X166Y80D02*
X176Y80D01*
X203Y80D02*
X209Y80D01*
X230Y80D02*
X234Y80D01*
X792Y80D02*
X798Y80D01*
X852Y80D02*
X861Y80D01*
X889Y80D02*
X895Y80D01*
X166Y79D02*
X176Y79D01*
X203Y79D02*
X209Y79D01*
X227Y79D02*
X235Y79D01*
X793Y79D02*
X823Y79D01*
X853Y79D02*
X861Y79D01*
X889Y79D02*
X919Y79D01*
X166Y78D02*
X175Y78D01*
X203Y78D02*
X235Y78D01*
X793Y78D02*
X824Y78D01*
X853Y78D02*
X861Y78D01*
X889Y78D02*
X920Y78D01*
X167Y77D02*
X175Y77D01*
X203Y77D02*
X235Y77D01*
X793Y77D02*
X825Y77D01*
X853Y77D02*
X860Y77D01*
X889Y77D02*
X921Y77D01*
X167Y76D02*
X174Y76D01*
X203Y76D02*
X235Y76D01*
X794Y76D02*
X825Y76D01*
X854Y76D02*
X860Y76D01*
X890Y76D02*
X921Y76D01*
X168Y75D02*
X174Y75D01*
X204Y75D02*
X234Y75D01*
X794Y75D02*
X824Y75D01*
X854Y75D02*
X859Y75D01*
X891Y75D02*
X921Y75D01*
X168Y74D02*
X174Y74D01*
X204Y74D02*
X232Y74D01*
X796Y74D02*
X824Y74D01*
X855Y74D02*
X859Y74D01*
X892Y74D02*
X920Y74D01*
X168Y73D02*
X173Y73D01*
X206Y73D02*
X230Y73D01*
X798Y73D02*
X822Y73D01*
X856Y73D02*
X857Y73D01*
X894Y73D02*
X918Y73D01*
X169Y72D02*
X172Y72D01*
X207Y72D02*
X227Y72D01*
D02*
G04 End of Silk0*
M02*