G04 MADE WITH FRITZING*
G04 WWW.FRITZING.ORG*
G04 DOUBLE SIDED*
G04 HOLES PLATED*
G04 CONTOUR ON CENTER OF CONTOUR VECTOR*
%ASAXBY*%
%FSLAX23Y23*%
%MOIN*%
%OFA0B0*%
%SFA1.0B1.0*%
%ADD10C,0.084000*%
%ADD11C,0.180000*%
%ADD12C,0.049370*%
%ADD13C,0.085000*%
%ADD14C,0.088000*%
%ADD15R,0.116299X0.069055*%
%ADD16R,0.085000X0.085000*%
%ADD17R,0.001000X0.001000*%
%LNMASK0*%
G90*
G70*
G54D10*
X604Y269D03*
X704Y269D03*
X804Y269D03*
G54D11*
X864Y1276D03*
X864Y1512D03*
X679Y1394D03*
G54D12*
X379Y944D03*
X254Y594D03*
G54D13*
X379Y794D03*
X679Y794D03*
X379Y694D03*
X679Y694D03*
X379Y594D03*
X679Y594D03*
X379Y494D03*
X679Y494D03*
G54D10*
X729Y994D03*
X629Y994D03*
X529Y994D03*
X254Y319D03*
X254Y219D03*
X254Y119D03*
G54D14*
X79Y1269D03*
X179Y1269D03*
X279Y1269D03*
X379Y1269D03*
X79Y94D03*
X79Y194D03*
X79Y294D03*
X79Y394D03*
X79Y494D03*
X79Y594D03*
X79Y694D03*
X79Y794D03*
X979Y794D03*
X979Y694D03*
X979Y594D03*
X979Y494D03*
X979Y394D03*
X979Y294D03*
X979Y194D03*
X979Y94D03*
G54D15*
X954Y1116D03*
X954Y919D03*
G54D16*
X379Y794D03*
G54D17*
X687Y1036D02*
X770Y1036D01*
X687Y1035D02*
X770Y1035D01*
X687Y1034D02*
X770Y1034D01*
X687Y1033D02*
X770Y1033D01*
X687Y1032D02*
X770Y1032D01*
X687Y1031D02*
X770Y1031D01*
X687Y1030D02*
X770Y1030D01*
X687Y1029D02*
X770Y1029D01*
X687Y1028D02*
X770Y1028D01*
X687Y1027D02*
X770Y1027D01*
X687Y1026D02*
X770Y1026D01*
X687Y1025D02*
X770Y1025D01*
X687Y1024D02*
X770Y1024D01*
X687Y1023D02*
X770Y1023D01*
X687Y1022D02*
X770Y1022D01*
X687Y1021D02*
X770Y1021D01*
X687Y1020D02*
X770Y1020D01*
X687Y1019D02*
X770Y1019D01*
X687Y1018D02*
X770Y1018D01*
X687Y1017D02*
X770Y1017D01*
X687Y1016D02*
X770Y1016D01*
X687Y1015D02*
X770Y1015D01*
X687Y1014D02*
X770Y1014D01*
X687Y1013D02*
X770Y1013D01*
X687Y1012D02*
X770Y1012D01*
X687Y1011D02*
X770Y1011D01*
X687Y1010D02*
X770Y1010D01*
X687Y1009D02*
X770Y1009D01*
X687Y1008D02*
X723Y1008D01*
X734Y1008D02*
X770Y1008D01*
X687Y1007D02*
X721Y1007D01*
X736Y1007D02*
X770Y1007D01*
X687Y1006D02*
X719Y1006D01*
X738Y1006D02*
X770Y1006D01*
X687Y1005D02*
X718Y1005D01*
X739Y1005D02*
X770Y1005D01*
X687Y1004D02*
X717Y1004D01*
X740Y1004D02*
X770Y1004D01*
X687Y1003D02*
X716Y1003D01*
X741Y1003D02*
X770Y1003D01*
X687Y1002D02*
X715Y1002D01*
X741Y1002D02*
X770Y1002D01*
X687Y1001D02*
X715Y1001D01*
X742Y1001D02*
X770Y1001D01*
X687Y1000D02*
X714Y1000D01*
X742Y1000D02*
X770Y1000D01*
X687Y999D02*
X714Y999D01*
X743Y999D02*
X770Y999D01*
X687Y998D02*
X714Y998D01*
X743Y998D02*
X770Y998D01*
X687Y997D02*
X713Y997D01*
X743Y997D02*
X770Y997D01*
X687Y996D02*
X713Y996D01*
X743Y996D02*
X770Y996D01*
X687Y995D02*
X713Y995D01*
X743Y995D02*
X770Y995D01*
X687Y994D02*
X713Y994D01*
X743Y994D02*
X770Y994D01*
X687Y993D02*
X713Y993D01*
X743Y993D02*
X770Y993D01*
X687Y992D02*
X713Y992D01*
X743Y992D02*
X770Y992D01*
X687Y991D02*
X713Y991D01*
X743Y991D02*
X770Y991D01*
X687Y990D02*
X714Y990D01*
X743Y990D02*
X770Y990D01*
X687Y989D02*
X714Y989D01*
X743Y989D02*
X770Y989D01*
X687Y988D02*
X714Y988D01*
X742Y988D02*
X770Y988D01*
X687Y987D02*
X715Y987D01*
X742Y987D02*
X770Y987D01*
X687Y986D02*
X716Y986D01*
X741Y986D02*
X770Y986D01*
X687Y985D02*
X716Y985D01*
X740Y985D02*
X770Y985D01*
X687Y984D02*
X717Y984D01*
X739Y984D02*
X770Y984D01*
X687Y983D02*
X718Y983D01*
X738Y983D02*
X770Y983D01*
X687Y982D02*
X720Y982D01*
X737Y982D02*
X770Y982D01*
X687Y981D02*
X721Y981D01*
X735Y981D02*
X770Y981D01*
X687Y980D02*
X724Y980D01*
X733Y980D02*
X770Y980D01*
X687Y979D02*
X770Y979D01*
X687Y978D02*
X770Y978D01*
X687Y977D02*
X770Y977D01*
X687Y976D02*
X770Y976D01*
X687Y975D02*
X770Y975D01*
X687Y974D02*
X770Y974D01*
X687Y973D02*
X770Y973D01*
X687Y972D02*
X770Y972D01*
X687Y971D02*
X770Y971D01*
X687Y970D02*
X770Y970D01*
X687Y969D02*
X770Y969D01*
X687Y968D02*
X770Y968D01*
X687Y967D02*
X770Y967D01*
X687Y966D02*
X770Y966D01*
X687Y965D02*
X770Y965D01*
X687Y964D02*
X770Y964D01*
X687Y963D02*
X770Y963D01*
X687Y962D02*
X770Y962D01*
X687Y961D02*
X770Y961D01*
X687Y960D02*
X770Y960D01*
X687Y959D02*
X770Y959D01*
X687Y958D02*
X770Y958D01*
X687Y957D02*
X770Y957D01*
X687Y956D02*
X770Y956D01*
X687Y955D02*
X770Y955D01*
X687Y954D02*
X770Y954D01*
X687Y953D02*
X770Y953D01*
X212Y361D02*
X295Y361D01*
X212Y360D02*
X295Y360D01*
X212Y359D02*
X295Y359D01*
X212Y358D02*
X295Y358D01*
X212Y357D02*
X295Y357D01*
X212Y356D02*
X295Y356D01*
X212Y355D02*
X295Y355D01*
X212Y354D02*
X295Y354D01*
X212Y353D02*
X295Y353D01*
X212Y352D02*
X295Y352D01*
X212Y351D02*
X295Y351D01*
X212Y350D02*
X295Y350D01*
X212Y349D02*
X295Y349D01*
X212Y348D02*
X295Y348D01*
X212Y347D02*
X295Y347D01*
X212Y346D02*
X295Y346D01*
X212Y345D02*
X295Y345D01*
X212Y344D02*
X295Y344D01*
X212Y343D02*
X295Y343D01*
X212Y342D02*
X295Y342D01*
X212Y341D02*
X295Y341D01*
X212Y340D02*
X295Y340D01*
X212Y339D02*
X295Y339D01*
X212Y338D02*
X295Y338D01*
X212Y337D02*
X295Y337D01*
X212Y336D02*
X295Y336D01*
X212Y335D02*
X295Y335D01*
X212Y334D02*
X295Y334D01*
X212Y333D02*
X248Y333D01*
X260Y333D02*
X295Y333D01*
X212Y332D02*
X246Y332D01*
X262Y332D02*
X295Y332D01*
X212Y331D02*
X244Y331D01*
X263Y331D02*
X295Y331D01*
X212Y330D02*
X243Y330D01*
X264Y330D02*
X295Y330D01*
X212Y329D02*
X242Y329D01*
X265Y329D02*
X295Y329D01*
X212Y328D02*
X241Y328D01*
X266Y328D02*
X295Y328D01*
X212Y327D02*
X241Y327D01*
X267Y327D02*
X295Y327D01*
X212Y326D02*
X240Y326D01*
X267Y326D02*
X295Y326D01*
X212Y325D02*
X239Y325D01*
X268Y325D02*
X295Y325D01*
X212Y324D02*
X239Y324D01*
X268Y324D02*
X295Y324D01*
X212Y323D02*
X239Y323D01*
X268Y323D02*
X295Y323D01*
X212Y322D02*
X239Y322D01*
X269Y322D02*
X295Y322D01*
X212Y321D02*
X239Y321D01*
X269Y321D02*
X295Y321D01*
X212Y320D02*
X238Y320D01*
X269Y320D02*
X295Y320D01*
X212Y319D02*
X238Y319D01*
X269Y319D02*
X295Y319D01*
X212Y318D02*
X239Y318D01*
X269Y318D02*
X295Y318D01*
X212Y317D02*
X239Y317D01*
X269Y317D02*
X295Y317D01*
X212Y316D02*
X239Y316D01*
X268Y316D02*
X295Y316D01*
X212Y315D02*
X239Y315D01*
X268Y315D02*
X295Y315D01*
X212Y314D02*
X239Y314D01*
X268Y314D02*
X295Y314D01*
X212Y313D02*
X240Y313D01*
X267Y313D02*
X295Y313D01*
X212Y312D02*
X240Y312D01*
X267Y312D02*
X295Y312D01*
X212Y311D02*
X241Y311D01*
X266Y311D02*
X295Y311D01*
X562Y311D02*
X645Y311D01*
X212Y310D02*
X242Y310D01*
X265Y310D02*
X295Y310D01*
X562Y310D02*
X645Y310D01*
X212Y309D02*
X243Y309D01*
X264Y309D02*
X295Y309D01*
X562Y309D02*
X645Y309D01*
X212Y308D02*
X244Y308D01*
X263Y308D02*
X295Y308D01*
X562Y308D02*
X645Y308D01*
X212Y307D02*
X245Y307D01*
X262Y307D02*
X295Y307D01*
X562Y307D02*
X645Y307D01*
X212Y306D02*
X247Y306D01*
X260Y306D02*
X295Y306D01*
X562Y306D02*
X645Y306D01*
X212Y305D02*
X250Y305D01*
X257Y305D02*
X295Y305D01*
X562Y305D02*
X645Y305D01*
X212Y304D02*
X295Y304D01*
X562Y304D02*
X645Y304D01*
X212Y303D02*
X295Y303D01*
X562Y303D02*
X645Y303D01*
X212Y302D02*
X295Y302D01*
X562Y302D02*
X645Y302D01*
X212Y301D02*
X295Y301D01*
X562Y301D02*
X645Y301D01*
X212Y300D02*
X295Y300D01*
X562Y300D02*
X645Y300D01*
X212Y299D02*
X295Y299D01*
X562Y299D02*
X645Y299D01*
X212Y298D02*
X295Y298D01*
X562Y298D02*
X645Y298D01*
X212Y297D02*
X295Y297D01*
X562Y297D02*
X645Y297D01*
X212Y296D02*
X295Y296D01*
X562Y296D02*
X645Y296D01*
X212Y295D02*
X295Y295D01*
X562Y295D02*
X645Y295D01*
X212Y294D02*
X295Y294D01*
X562Y294D02*
X645Y294D01*
X212Y293D02*
X295Y293D01*
X562Y293D02*
X645Y293D01*
X212Y292D02*
X295Y292D01*
X562Y292D02*
X645Y292D01*
X212Y291D02*
X295Y291D01*
X562Y291D02*
X645Y291D01*
X212Y290D02*
X295Y290D01*
X562Y290D02*
X645Y290D01*
X212Y289D02*
X295Y289D01*
X562Y289D02*
X645Y289D01*
X212Y288D02*
X295Y288D01*
X562Y288D02*
X645Y288D01*
X212Y287D02*
X295Y287D01*
X562Y287D02*
X645Y287D01*
X212Y286D02*
X295Y286D01*
X562Y286D02*
X645Y286D01*
X212Y285D02*
X295Y285D01*
X562Y285D02*
X645Y285D01*
X212Y284D02*
X295Y284D01*
X562Y284D02*
X599Y284D01*
X607Y284D02*
X645Y284D01*
X212Y283D02*
X295Y283D01*
X562Y283D02*
X597Y283D01*
X610Y283D02*
X645Y283D01*
X212Y282D02*
X295Y282D01*
X562Y282D02*
X595Y282D01*
X612Y282D02*
X645Y282D01*
X212Y281D02*
X295Y281D01*
X562Y281D02*
X593Y281D01*
X613Y281D02*
X645Y281D01*
X212Y280D02*
X295Y280D01*
X562Y280D02*
X592Y280D01*
X614Y280D02*
X645Y280D01*
X212Y279D02*
X295Y279D01*
X562Y279D02*
X591Y279D01*
X615Y279D02*
X645Y279D01*
X212Y278D02*
X295Y278D01*
X562Y278D02*
X591Y278D01*
X616Y278D02*
X645Y278D01*
X562Y277D02*
X590Y277D01*
X617Y277D02*
X645Y277D01*
X562Y276D02*
X589Y276D01*
X617Y276D02*
X645Y276D01*
X562Y275D02*
X589Y275D01*
X618Y275D02*
X645Y275D01*
X562Y274D02*
X589Y274D01*
X618Y274D02*
X645Y274D01*
X562Y273D02*
X588Y273D01*
X618Y273D02*
X645Y273D01*
X562Y272D02*
X588Y272D01*
X619Y272D02*
X645Y272D01*
X562Y271D02*
X588Y271D01*
X619Y271D02*
X645Y271D01*
X562Y270D02*
X588Y270D01*
X619Y270D02*
X645Y270D01*
X562Y269D02*
X588Y269D01*
X619Y269D02*
X645Y269D01*
X562Y268D02*
X588Y268D01*
X619Y268D02*
X645Y268D01*
X562Y267D02*
X588Y267D01*
X619Y267D02*
X645Y267D01*
X562Y266D02*
X588Y266D01*
X619Y266D02*
X645Y266D01*
X562Y265D02*
X589Y265D01*
X618Y265D02*
X645Y265D01*
X562Y264D02*
X589Y264D01*
X618Y264D02*
X645Y264D01*
X562Y263D02*
X589Y263D01*
X618Y263D02*
X645Y263D01*
X562Y262D02*
X590Y262D01*
X617Y262D02*
X645Y262D01*
X562Y261D02*
X590Y261D01*
X616Y261D02*
X645Y261D01*
X562Y260D02*
X591Y260D01*
X616Y260D02*
X645Y260D01*
X562Y259D02*
X592Y259D01*
X615Y259D02*
X645Y259D01*
X562Y258D02*
X593Y258D01*
X614Y258D02*
X645Y258D01*
X562Y257D02*
X594Y257D01*
X612Y257D02*
X645Y257D01*
X562Y256D02*
X596Y256D01*
X611Y256D02*
X645Y256D01*
X562Y255D02*
X599Y255D01*
X608Y255D02*
X645Y255D01*
X562Y254D02*
X645Y254D01*
X562Y253D02*
X645Y253D01*
X562Y252D02*
X645Y252D01*
X562Y251D02*
X645Y251D01*
X562Y250D02*
X645Y250D01*
X562Y249D02*
X645Y249D01*
X562Y248D02*
X645Y248D01*
X562Y247D02*
X645Y247D01*
X562Y246D02*
X645Y246D01*
X562Y245D02*
X645Y245D01*
X562Y244D02*
X645Y244D01*
X562Y243D02*
X645Y243D01*
X562Y242D02*
X645Y242D01*
X562Y241D02*
X645Y241D01*
X562Y240D02*
X645Y240D01*
X562Y239D02*
X645Y239D01*
X562Y238D02*
X645Y238D01*
X562Y237D02*
X645Y237D01*
X562Y236D02*
X645Y236D01*
X562Y235D02*
X645Y235D01*
X562Y234D02*
X645Y234D01*
X562Y233D02*
X645Y233D01*
X562Y232D02*
X645Y232D01*
X562Y231D02*
X645Y231D01*
X562Y230D02*
X645Y230D01*
X562Y229D02*
X645Y229D01*
X562Y228D02*
X645Y228D01*
D02*
G04 End of Mask0*
M02*