G04 MADE WITH FRITZING*
G04 WWW.FRITZING.ORG*
G04 DOUBLE SIDED*
G04 HOLES PLATED*
G04 CONTOUR ON CENTER OF CONTOUR VECTOR*
%ASAXBY*%
%FSLAX23Y23*%
%MOIN*%
%OFA0B0*%
%SFA1.0B1.0*%
%ADD10C,0.084000*%
%ADD11C,0.049370*%
%ADD12C,0.085000*%
%ADD13C,0.088000*%
%ADD14R,0.085000X0.085000*%
%ADD15R,0.001000X0.001000*%
%LNMASK0*%
G90*
G70*
G54D10*
X825Y143D03*
X825Y343D03*
X625Y243D03*
G54D11*
X375Y943D03*
X275Y593D03*
G54D12*
X375Y793D03*
X675Y793D03*
X375Y693D03*
X675Y693D03*
X375Y593D03*
X675Y593D03*
X375Y493D03*
X675Y493D03*
G54D10*
X250Y318D03*
X250Y218D03*
X250Y118D03*
G54D13*
X75Y1268D03*
X175Y1268D03*
X275Y1268D03*
X375Y1268D03*
X75Y93D03*
X75Y193D03*
X75Y293D03*
X75Y393D03*
X75Y493D03*
X75Y593D03*
X75Y693D03*
X75Y793D03*
X975Y793D03*
X975Y693D03*
X975Y593D03*
X975Y493D03*
X975Y393D03*
X975Y293D03*
X975Y193D03*
X975Y93D03*
G54D14*
X375Y793D03*
G54D15*
X208Y360D02*
X290Y360D01*
X208Y359D02*
X290Y359D01*
X208Y358D02*
X290Y358D01*
X208Y357D02*
X290Y357D01*
X208Y356D02*
X290Y356D01*
X208Y355D02*
X290Y355D01*
X208Y354D02*
X290Y354D01*
X208Y353D02*
X290Y353D01*
X208Y352D02*
X290Y352D01*
X208Y351D02*
X290Y351D01*
X208Y350D02*
X290Y350D01*
X208Y349D02*
X290Y349D01*
X208Y348D02*
X290Y348D01*
X208Y347D02*
X290Y347D01*
X208Y346D02*
X290Y346D01*
X208Y345D02*
X290Y345D01*
X208Y344D02*
X290Y344D01*
X208Y343D02*
X290Y343D01*
X208Y342D02*
X290Y342D01*
X208Y341D02*
X290Y341D01*
X208Y340D02*
X290Y340D01*
X208Y339D02*
X290Y339D01*
X208Y338D02*
X290Y338D01*
X208Y337D02*
X290Y337D01*
X208Y336D02*
X290Y336D01*
X208Y335D02*
X290Y335D01*
X208Y334D02*
X290Y334D01*
X208Y333D02*
X245Y333D01*
X253Y333D02*
X290Y333D01*
X208Y332D02*
X242Y332D01*
X256Y332D02*
X290Y332D01*
X208Y331D02*
X240Y331D01*
X258Y331D02*
X290Y331D01*
X208Y330D02*
X239Y330D01*
X259Y330D02*
X290Y330D01*
X208Y329D02*
X238Y329D01*
X260Y329D02*
X290Y329D01*
X208Y328D02*
X237Y328D01*
X261Y328D02*
X290Y328D01*
X208Y327D02*
X236Y327D01*
X262Y327D02*
X290Y327D01*
X208Y326D02*
X236Y326D01*
X262Y326D02*
X290Y326D01*
X208Y325D02*
X235Y325D01*
X263Y325D02*
X290Y325D01*
X208Y324D02*
X235Y324D01*
X263Y324D02*
X290Y324D01*
X208Y323D02*
X234Y323D01*
X264Y323D02*
X290Y323D01*
X208Y322D02*
X234Y322D01*
X264Y322D02*
X290Y322D01*
X208Y321D02*
X234Y321D01*
X264Y321D02*
X290Y321D01*
X208Y320D02*
X234Y320D01*
X264Y320D02*
X290Y320D01*
X208Y319D02*
X234Y319D01*
X264Y319D02*
X290Y319D01*
X208Y318D02*
X234Y318D01*
X264Y318D02*
X290Y318D01*
X208Y317D02*
X234Y317D01*
X264Y317D02*
X290Y317D01*
X208Y316D02*
X234Y316D01*
X264Y316D02*
X290Y316D01*
X208Y315D02*
X234Y315D01*
X264Y315D02*
X290Y315D01*
X208Y314D02*
X235Y314D01*
X263Y314D02*
X290Y314D01*
X208Y313D02*
X235Y313D01*
X263Y313D02*
X290Y313D01*
X208Y312D02*
X235Y312D01*
X262Y312D02*
X290Y312D01*
X208Y311D02*
X236Y311D01*
X262Y311D02*
X290Y311D01*
X208Y310D02*
X237Y310D01*
X261Y310D02*
X290Y310D01*
X208Y309D02*
X238Y309D01*
X260Y309D02*
X290Y309D01*
X208Y308D02*
X239Y308D01*
X259Y308D02*
X290Y308D01*
X208Y307D02*
X240Y307D01*
X258Y307D02*
X290Y307D01*
X208Y306D02*
X241Y306D01*
X257Y306D02*
X290Y306D01*
X208Y305D02*
X243Y305D01*
X255Y305D02*
X290Y305D01*
X208Y304D02*
X290Y304D01*
X208Y303D02*
X290Y303D01*
X208Y302D02*
X290Y302D01*
X208Y301D02*
X290Y301D01*
X208Y300D02*
X290Y300D01*
X208Y299D02*
X290Y299D01*
X208Y298D02*
X290Y298D01*
X208Y297D02*
X290Y297D01*
X208Y296D02*
X290Y296D01*
X208Y295D02*
X290Y295D01*
X208Y294D02*
X290Y294D01*
X208Y293D02*
X290Y293D01*
X208Y292D02*
X290Y292D01*
X208Y291D02*
X290Y291D01*
X208Y290D02*
X290Y290D01*
X208Y289D02*
X290Y289D01*
X208Y288D02*
X290Y288D01*
X208Y287D02*
X290Y287D01*
X208Y286D02*
X290Y286D01*
X208Y285D02*
X290Y285D01*
X208Y284D02*
X290Y284D01*
X208Y283D02*
X290Y283D01*
X208Y282D02*
X290Y282D01*
X208Y281D02*
X290Y281D01*
X208Y280D02*
X290Y280D01*
X208Y279D02*
X290Y279D01*
X208Y278D02*
X290Y278D01*
X208Y277D02*
X290Y277D01*
D02*
G04 End of Mask0*
M02*