G04 MADE WITH FRITZING*
G04 WWW.FRITZING.ORG*
G04 DOUBLE SIDED*
G04 HOLES PLATED*
G04 CONTOUR ON CENTER OF CONTOUR VECTOR*
%ASAXBY*%
%FSLAX23Y23*%
%MOIN*%
%OFA0B0*%
%SFA1.0B1.0*%
%ADD10C,0.078000*%
%ADD11R,0.074803X0.062992*%
%ADD12R,0.035433X0.031496*%
%ADD13R,0.062992X0.074803*%
%ADD14C,0.024000*%
%LNCOPPER1*%
G90*
G70*
G54D10*
X68Y773D03*
X68Y673D03*
X68Y573D03*
X68Y473D03*
X68Y373D03*
X68Y273D03*
X68Y173D03*
X68Y73D03*
X968Y773D03*
X968Y673D03*
X968Y573D03*
X968Y473D03*
X968Y373D03*
X968Y273D03*
X968Y173D03*
X968Y73D03*
X368Y473D03*
X468Y473D03*
X568Y473D03*
X668Y473D03*
G54D11*
X767Y122D03*
X767Y244D03*
G54D12*
X667Y172D03*
X667Y247D03*
X585Y210D03*
G54D11*
X468Y308D03*
X468Y186D03*
G54D13*
X367Y623D03*
X489Y623D03*
G54D14*
X368Y503D02*
X367Y591D01*
D02*
X498Y282D02*
X573Y220D01*
D02*
X218Y273D02*
X267Y323D01*
D02*
X317Y723D02*
X518Y723D01*
D02*
X568Y673D02*
X568Y623D01*
D02*
X767Y522D02*
X767Y270D01*
D02*
X717Y573D02*
X767Y522D01*
D02*
X568Y623D02*
X617Y573D01*
D02*
X818Y122D02*
X918Y72D01*
D02*
X918Y72D02*
X938Y73D01*
D02*
X717Y122D02*
X736Y122D01*
D02*
X518Y723D02*
X568Y673D01*
D02*
X267Y673D02*
X317Y723D01*
D02*
X617Y573D02*
X717Y573D01*
D02*
X267Y323D02*
X267Y673D01*
D02*
X98Y273D02*
X218Y273D01*
D02*
X736Y245D02*
X680Y247D01*
D02*
X678Y162D02*
X717Y122D01*
D02*
X799Y122D02*
X818Y122D01*
D02*
X367Y273D02*
X437Y212D01*
D02*
X368Y443D02*
X367Y273D01*
D02*
X468Y334D02*
X468Y443D01*
D02*
X568Y522D02*
X568Y503D01*
D02*
X518Y573D02*
X568Y522D01*
D02*
X507Y591D02*
X518Y573D01*
G04 End of Copper1*
M02*