; NON-PLATED HOLES START AT T1
; THROUGH (PLATED) HOLES START AT T100
M48
INCH
T100C0.038000
%
T100
X006682Y004732
X009682Y000732
X003682Y004732
X000682Y003732
X000682Y004732
X009682Y003732
X000682Y007732
X009682Y004732
X000682Y002732
X004682Y004732
X009682Y007732
X009682Y001732
X000682Y001732
X000682Y000732
X009682Y006732
X005682Y004732
X000682Y005732
X000682Y006732
X009682Y005732
X009682Y002732
T00
M30
